<svg xmlns="http://www.w3.org/2000/svg" viewBox="0 0 66 26.22"><defs><style>.cls-1{fill:#1c1c1a;}</style></defs><g id="Capa_2" data-name="Capa 2"><g id="Layer_1" data-name="Layer 1"><path class="cls-1" d="M15.51,17.69a13.28,13.28,0,0,1-7,2.1,5.18,5.18,0,0,1-.06-1.24c0-.78.47-.56.78-1.18a4.92,4.92,0,0,0,.38-.9s-.2-3.77-.26-5.35c0-.86-.19-2.29-.38-3.68C8.89,6.62,8.64,6,8.53,5.19c-.17-1.13-.37-2.4-.37-2.4A27.67,27.67,0,0,0,7.63,6c-.1.73-.2,1.49-.29,2.21-.19,1.52-.66,5.59-.73,5.81s-.12-.09-.12-.09.28-4.27.36-6.14c0-.91.11-1.92.23-2.88a16.53,16.53,0,0,1,.34-2,7.11,7.11,0,0,1,.64-1.51c.16,0,.72.93.91,1.79.43,1.93.69,2.17,1,4.2s.59,3.53.63,3.8a23.56,23.56,0,0,1-.17,5.12,1,1,0,0,1-.28.66,2.58,2.58,0,0,0-.85,1.48c0,.4-.07.39,0,.61,0,0,.65,1,4.41-1.26a2.32,2.32,0,0,0,1.17-2V2.06A25.2,25.2,0,0,0,8.34.8,23.7,23.7,0,0,0,1.88,2.06V15.73c0,.84.12,2.42,1.32,3,0,0-3.2-1.1-3.2-3V.9A57.29,57.29,0,0,1,8.34,0a59.25,59.25,0,0,1,8.42.9V15.73a2.46,2.46,0,0,1-1.25,2"/><path class="cls-1" d="M61.93,6.21a2.86,2.86,0,0,1-1.38.29A1.78,1.78,0,0,1,59.19,6a2.1,2.1,0,0,1-.48-1.47A2.27,2.27,0,0,1,59.19,3a1.58,1.58,0,0,1,1.25-.54,2,2,0,0,1,.59.08V.92h.9V6.21M61,5.84V3a1.15,1.15,0,0,0-.39,0c-.7,0-1,.5-1,1.5s.32,1.48,1,1.48A.86.86,0,0,0,61,5.84Z"/><path class="cls-1" d="M66,4.43l-2.42.35c.08.73.44,1.09,1.08,1.09a2.26,2.26,0,0,0,1-.21l.21.56a2.64,2.64,0,0,1-1.3.28A1.77,1.77,0,0,1,63.22,6a2.23,2.23,0,0,1-.49-1.53,2.28,2.28,0,0,1,.45-1.5,1.57,1.57,0,0,1,1.24-.53,1.44,1.44,0,0,1,1.2.51A2.31,2.31,0,0,1,66,4.43m-.83-.35c0-.75-.26-1.13-.78-1.13a.71.71,0,0,0-.63.34,1.76,1.76,0,0,0-.23,1Z"/><rect class="cls-1" x="19.67" y="8.3" width="1.4" height="8.66"/><path class="cls-1" d="M27.53,13.87a3.72,3.72,0,0,1-.63,2.28,2.51,2.51,0,0,1-3.88,0,3.72,3.72,0,0,1-.63-2.28,3.8,3.8,0,0,1,.63-2.3,2.52,2.52,0,0,1,3.88,0,3.8,3.8,0,0,1,.63,2.3m-1.39,0c0-1.55-.39-2.32-1.18-2.32s-1.18.77-1.18,2.32.39,2.26,1.18,2.26S26.14,15.37,26.14,13.86Z"/><path class="cls-1" d="M32.33,15.18a1.74,1.74,0,0,1-.6,1.33,2.29,2.29,0,0,1-1.6.55,2.93,2.93,0,0,1-1.71-.45l.36-.89a1.82,1.82,0,0,0,1.17.36,1,1,0,0,0,.69-.25.84.84,0,0,0,.26-.63.85.85,0,0,0-.21-.61,1.72,1.72,0,0,0-.7-.41,1.84,1.84,0,0,1-1.41-1.73,1.68,1.68,0,0,1,.55-1.28,2,2,0,0,1,1.41-.51,2.87,2.87,0,0,1,1.61.43l-.34.82a1.55,1.55,0,0,0-1-.35.87.87,0,0,0-.65.24.8.8,0,0,0-.23.58c0,.4.3.73.92,1a2,2,0,0,1,1.47,1.83"/><path class="cls-1" d="M42.67,17H41l-.67-2.21H37.6L36.92,17H35.5l2.84-8.59h1.5L42.67,17m-2.52-3.13-.89-3a6.68,6.68,0,0,1-.22-1h0c0,.22-.12.57-.23,1l-.93,3Z"/><path class="cls-1" d="M48.43,17H47V12.57c0-.69-.37-1-1.11-1a2.69,2.69,0,0,0-1,.17V17H43.55V11.1A5.9,5.9,0,0,1,46,10.66a2.79,2.79,0,0,1,1.92.57,1.7,1.7,0,0,1,.53,1.32V17"/><path class="cls-1" d="M54.75,16.62a4.45,4.45,0,0,1-2.16.45,2.72,2.72,0,0,1-2.12-.82,3.27,3.27,0,0,1-.76-2.31,3.51,3.51,0,0,1,.76-2.38,2.47,2.47,0,0,1,2-.85,3.18,3.18,0,0,1,.93.12V8.32h1.4v8.3M53.35,16V11.59a2,2,0,0,0-.62-.08c-1.09,0-1.63.78-1.63,2.35s.51,2.32,1.53,2.32A1.45,1.45,0,0,0,53.35,16Z"/><path class="cls-1" d="M61.13,13.83l-3.79.55c.11,1.14.68,1.72,1.68,1.72a3.4,3.4,0,0,0,1.57-.35l.33.89a4.23,4.23,0,0,1-2,.43,2.76,2.76,0,0,1-2.11-.83A3.43,3.43,0,0,1,56,13.85a3.54,3.54,0,0,1,.7-2.35,2.4,2.4,0,0,1,1.94-.84,2.26,2.26,0,0,1,1.88.81,3.54,3.54,0,0,1,.6,2.36m-1.31-.56c0-1.17-.41-1.75-1.22-1.75a1.12,1.12,0,0,0-1,.51,2.89,2.89,0,0,0-.36,1.64Z"/><path class="cls-1" d="M65.94,15.18a1.72,1.72,0,0,1-.61,1.33,2.26,2.26,0,0,1-1.59.55A3,3,0,0,1,62,16.61l.37-.89a1.81,1.81,0,0,0,1.16.36,1,1,0,0,0,.69-.25.82.82,0,0,0,.27-.63.85.85,0,0,0-.21-.61,1.79,1.79,0,0,0-.7-.41,1.84,1.84,0,0,1-1.41-1.73,1.71,1.71,0,0,1,.54-1.28,2,2,0,0,1,1.42-.51,2.89,2.89,0,0,1,1.61.43l-.35.82a1.51,1.51,0,0,0-1-.35.87.87,0,0,0-.65.24.77.77,0,0,0-.24.58c0,.4.31.73.92,1a2,2,0,0,1,1.48,1.83"/><path class="cls-1" d="M27.06,6.44h-.89V3.64c0-.44-.24-.66-.71-.66a1.75,1.75,0,0,0-.62.11V6.44H24V2.7a3.62,3.62,0,0,1,1.54-.28,1.76,1.76,0,0,1,1.22.36,1.09,1.09,0,0,1,.35.85V6.44"/><path class="cls-1" d="M29,1.37a.43.43,0,0,1-.14.31.54.54,0,0,1-.7,0A.43.43,0,0,1,28,1.37a.45.45,0,0,1,.14-.32.54.54,0,0,1,.7,0,.42.42,0,0,1,.14.32M28,2.49h.9v4H28Z"/><path class="cls-1" d="M33,2.49l-1.26,4h-.85L29.6,2.49h.95L31.24,5a2.21,2.21,0,0,1,.1.54h0c0-.14.06-.32.11-.54l.71-2.55H33"/><path class="cls-1" d="M36.74,4.44l-2.41.35c.07.73.43,1.1,1.07,1.1a2.2,2.2,0,0,0,1-.22l.21.56a2.61,2.61,0,0,1-1.3.28A1.75,1.75,0,0,1,34,6a2.18,2.18,0,0,1-.49-1.53A2.25,2.25,0,0,1,33.93,3a1.52,1.52,0,0,1,1.23-.54,1.44,1.44,0,0,1,1.2.51,2.25,2.25,0,0,1,.38,1.51m-.83-.35c0-.75-.26-1.12-.78-1.12a.72.72,0,0,0-.63.33,1.78,1.78,0,0,0-.23,1Z"/><path class="cls-1" d="M39.46,2.42l-.18.66A1.14,1.14,0,0,0,38.87,3a.77.77,0,0,0-.42.1V6.44h-.89V2.7a4.24,4.24,0,0,1,1.9-.28"/><path class="cls-1" d="M42.31,5.3a1.09,1.09,0,0,1-.39.85,1.44,1.44,0,0,1-1,.36,1.9,1.9,0,0,1-1.09-.29L40,5.65a1.17,1.17,0,0,0,.74.23.64.64,0,0,0,.44-.16.5.5,0,0,0,.17-.4.53.53,0,0,0-.13-.39,1.16,1.16,0,0,0-.45-.26,1.17,1.17,0,0,1-.9-1.11,1.08,1.08,0,0,1,.35-.81,1.25,1.25,0,0,1,.9-.33,1.8,1.8,0,0,1,1,.28L42,3.22A1,1,0,0,0,41.34,3a.54.54,0,0,0-.41.15.5.5,0,0,0-.15.37c0,.26.19.46.58.62a1.25,1.25,0,0,1,1,1.16"/><path class="cls-1" d="M44.05,1.37a.39.39,0,0,1-.14.31.48.48,0,0,1-.35.13.47.47,0,0,1-.34-.13.4.4,0,0,1-.15-.31.42.42,0,0,1,.15-.32.47.47,0,0,1,.34-.13.48.48,0,0,1,.35.13.39.39,0,0,1,.14.32m-.93,1.12H44v4h-.89Z"/><path class="cls-1" d="M48.06,6.23a2.82,2.82,0,0,1-1.37.28A1.73,1.73,0,0,1,45.33,6a2.1,2.1,0,0,1-.48-1.47A2.29,2.29,0,0,1,45.33,3a1.58,1.58,0,0,1,1.25-.54,2,2,0,0,1,.59.08V.93h.89v5.3m-.89-.38V3a1.6,1.6,0,0,0-.39,0c-.7,0-1,.5-1,1.5s.32,1.48,1,1.48A.86.86,0,0,0,47.17,5.85Z"/><path class="cls-1" d="M51.87,6.23a3.06,3.06,0,0,1-1.43.28c-1.07,0-1.61-.4-1.61-1.2a1.14,1.14,0,0,1,.65-1.07A4.17,4.17,0,0,1,51,3.85V3.64c0-.43-.26-.65-.78-.65a2.25,2.25,0,0,0-1,.24l-.2-.51a3,3,0,0,1,1.35-.3c1,0,1.46.45,1.46,1.36V6.23M51,5.91V4.28a2.6,2.6,0,0,0-1,.27.81.81,0,0,0-.37.73c0,.49.28.74.83.74A1.19,1.19,0,0,0,51,5.91Z"/><path class="cls-1" d="M55.89,6.23a2.84,2.84,0,0,1-1.38.28A1.71,1.71,0,0,1,53.16,6a2.1,2.1,0,0,1-.49-1.47A2.29,2.29,0,0,1,53.16,3a1.56,1.56,0,0,1,1.24-.54,2.13,2.13,0,0,1,.6.08V.93h.89v5.3M55,5.85V3a1.62,1.62,0,0,0-.4,0c-.69,0-1,.5-1,1.5s.33,1.48,1,1.48A.88.88,0,0,0,55,5.85Z"/><path class="cls-1" d="M19.65.94h1V5.19c0,.46.26.7.76.7A1.67,1.67,0,0,0,22,5.77V.94H23V6.18a3.75,3.75,0,0,1-1.64.31A1.85,1.85,0,0,1,20,6.1a1.17,1.17,0,0,1-.37-.9V.94"/><polyline class="cls-1" points="1.75 22.27 0.72 22.27 0.72 23.3 1.63 23.3 1.63 23.71 0.72 23.71 0.72 25.25 0.1 25.25 0.1 21.85 1.75 21.85 1.75 22.27"/><path class="cls-1" d="M3.91,25.12a1.84,1.84,0,0,1-.88.17c-.67,0-1-.24-1-.74a.73.73,0,0,1,.48-.7,2.67,2.67,0,0,1,.89-.2v-.13c0-.27-.16-.41-.49-.41a1.4,1.4,0,0,0-.61.15L2.17,23A1.85,1.85,0,0,1,3,22.76q.9,0,.9.84v1.52m-.51-.2v-1a2.11,2.11,0,0,0-.58.14.51.51,0,0,0-.27.48c0,.31.17.46.51.46A.86.86,0,0,0,3.4,24.92Z"/><path class="cls-1" d="M6,25.13a.86.86,0,0,1-.58.16.81.81,0,0,1-.74-.41A1.53,1.53,0,0,1,4.41,24a1.55,1.55,0,0,1,.22-.86.85.85,0,0,1,.75-.4.9.9,0,0,1,.57.17l-.12.31a.52.52,0,0,0-.33-.1c-.36,0-.53.29-.53.87a1.35,1.35,0,0,0,.1.57.45.45,0,0,0,.42.32.5.5,0,0,0,.33-.11l.13.34"/><path class="cls-1" d="M8.27,25.1a2,2,0,0,1-.94.2c-.63,0-1-.28-1-.83V22.81h.56v1.7a.37.37,0,0,0,.41.41.74.74,0,0,0,.36-.08v-2h.56V25.1"/><rect class="cls-1" x="8.88" y="21.82" width="0.56" height="3.43"/><path class="cls-1" d="M11.14,25.23a.74.74,0,0,1-.28.05.66.66,0,0,1-.49-.18.64.64,0,0,1-.18-.49V23.16H9.92v-.35h.27V22l.56-.15v1h.39v.35h-.39v1.43c0,.21.08.31.26.31a.32.32,0,0,0,.13,0v.35"/><path class="cls-1" d="M13.37,25.12a1.84,1.84,0,0,1-.88.17c-.67,0-1-.24-1-.74a.73.73,0,0,1,.48-.7,2.6,2.6,0,0,1,.88-.2v-.13c0-.27-.16-.41-.48-.41a1.37,1.37,0,0,0-.61.15L11.63,23a1.79,1.79,0,0,1,.84-.19q.9,0,.9.84v1.52m-.52-.2v-1a1.93,1.93,0,0,0-.57.14.51.51,0,0,0-.27.48c0,.31.17.46.51.46A.81.81,0,0,0,12.85,24.92Z"/><path class="cls-1" d="M15.84,25.1a1.7,1.7,0,0,1-.85.18,1.09,1.09,0,0,1-.86-.35,1.35,1.35,0,0,1-.28-.89,1.45,1.45,0,0,1,.26-.89.94.94,0,0,1,.81-.39,1.25,1.25,0,0,1,.36,0v-1h.56v3.3m-.56-.23V23.1a.88.88,0,0,0-.24,0c-.43,0-.64.31-.64.94s.2.91.6.91A.6.6,0,0,0,15.28,24.87Z"/><path class="cls-1" d="M19.56,25.1a1.7,1.7,0,0,1-.85.18,1.05,1.05,0,0,1-.85-.35,1.31,1.31,0,0,1-.29-.89,1.45,1.45,0,0,1,.26-.89.94.94,0,0,1,.81-.39,1.38,1.38,0,0,1,.37,0v-1h.55v3.3M19,24.87V23.1a1,1,0,0,0-.25,0c-.42,0-.64.31-.64.94s.2.91.6.91A.65.65,0,0,0,19,24.87Z"/><path class="cls-1" d="M22.1,24l-1.5.22c0,.46.27.68.67.68a1.23,1.23,0,0,0,.62-.14l.13.35a1.62,1.62,0,0,1-.81.17,1.06,1.06,0,0,1-.86-.36,1.41,1.41,0,0,1-.27-.91,1.46,1.46,0,0,1,.24-.88.93.93,0,0,1,.8-.38.85.85,0,0,1,.78.37,1.46,1.46,0,0,1,.2.88m-.52-.22q0-.69-.48-.69a.45.45,0,0,0-.44.29,1.46,1.46,0,0,0-.09.56Z"/><path class="cls-1" d="M26.39,25.25h-.65l-.26-.88h-1.1l-.27.88h-.56l1.12-3.4h.6l1.12,3.4m-1-1.24L25,22.81A2.4,2.4,0,0,1,25,22.4h0a2.71,2.71,0,0,1-.09.41L24.48,24Z"/><path class="cls-1" d="M28.1,22.77l-.11.4a.73.73,0,0,0-.25,0,.5.5,0,0,0-.26.06v2.06h-.56V22.94a2.56,2.56,0,0,1,1.18-.17"/><path class="cls-1" d="M30.36,26.22h-.54v-1a1.12,1.12,0,0,1-.47.1.85.85,0,0,1-.74-.38,1.33,1.33,0,0,1-.24-.82,1.44,1.44,0,0,1,.29-.95,1.09,1.09,0,0,1,.9-.38,1.55,1.55,0,0,1,.8.18v3.28m-.54-1.35V23.14a.6.6,0,0,0-.29-.05c-.4,0-.61.32-.61,1s.19.9.58.9A.66.66,0,0,0,29.82,24.87Z"/><path class="cls-1" d="M32.84,25.1a2,2,0,0,1-.94.2c-.63,0-.95-.28-.95-.83V22.81h.56v1.7a.36.36,0,0,0,.4.41.78.78,0,0,0,.37-.08v-2h.56V25.1"/><path class="cls-1" d="M34,22.11a.25.25,0,0,1-.09.2.35.35,0,0,1-.42,0,.25.25,0,0,1-.09-.2.27.27,0,0,1,.09-.2.35.35,0,0,1,.42,0,.25.25,0,0,1,.09.2m-.58.7H34v2.44h-.56Z"/><path class="cls-1" d="M35.7,25.23a.78.78,0,0,1-.28.05.68.68,0,0,1-.5-.18.64.64,0,0,1-.18-.49V23.16h-.27v-.35h.27V22l.56-.15v1h.4v.35h-.4v1.43c0,.21.09.31.27.31a.34.34,0,0,0,.13,0v.35"/><path class="cls-1" d="M38.09,24l-1.5.22c0,.46.27.68.67.68a1.23,1.23,0,0,0,.62-.14l.13.35a1.62,1.62,0,0,1-.81.17,1.06,1.06,0,0,1-.86-.36,1.41,1.41,0,0,1-.27-.91,1.46,1.46,0,0,1,.24-.88.93.93,0,0,1,.8-.38.88.88,0,0,1,.79.37,1.54,1.54,0,0,1,.19.88m-.52-.22q0-.69-.48-.69a.45.45,0,0,0-.44.29,1.46,1.46,0,0,0-.09.56Z"/><path class="cls-1" d="M40,25.13a.83.83,0,0,1-.57.16.82.82,0,0,1-.75-.41A1.61,1.61,0,0,1,38.5,24a1.55,1.55,0,0,1,.23-.86.84.84,0,0,1,.74-.4.86.86,0,0,1,.57.17l-.12.31a.49.49,0,0,0-.32-.1q-.54,0-.54.87a1.35,1.35,0,0,0,.1.57.45.45,0,0,0,.43.32.52.52,0,0,0,.33-.11l.12.34"/><path class="cls-1" d="M41.57,25.23a.7.7,0,0,1-.28.05.66.66,0,0,1-.49-.18.64.64,0,0,1-.18-.49V23.16h-.27v-.35h.27V22l.56-.15v1h.39v.35h-.39v1.43c0,.21.09.31.26.31a.32.32,0,0,0,.13,0v.35"/><path class="cls-1" d="M43.92,25.1a2,2,0,0,1-.94.2c-.63,0-.95-.28-.95-.83V22.81h.56v1.7a.37.37,0,0,0,.41.41.74.74,0,0,0,.36-.08v-2h.56V25.1"/><path class="cls-1" d="M45.69,22.77l-.11.4a.69.69,0,0,0-.25,0,.5.5,0,0,0-.26.06v2.06h-.56V22.94a2.56,2.56,0,0,1,1.18-.17"/><path class="cls-1" d="M47.82,25.12a1.87,1.87,0,0,1-.88.17c-.67,0-1-.24-1-.74a.74.74,0,0,1,.47-.7,2.73,2.73,0,0,1,.89-.2v-.13c0-.27-.16-.41-.48-.41a1.37,1.37,0,0,0-.61.15L46.08,23a1.79,1.79,0,0,1,.84-.19q.9,0,.9.84v1.52m-.52-.2v-1a1.93,1.93,0,0,0-.57.14.52.52,0,0,0-.28.48c0,.31.18.46.52.46A.81.81,0,0,0,47.3,24.92Z"/><path class="cls-1" d="M51.55,22.81l-1.12,3.41h-.58l.4-1-.81-2.44H50l.42,1.58a1.34,1.34,0,0,1,0,.35h0a2.06,2.06,0,0,1,.07-.35L51,22.81h.52"/><path class="cls-1" d="M55.5,23.53a2.16,2.16,0,0,1-.32,1.25,1.29,1.29,0,0,1-1.13.53,2,2,0,0,1-1-.19V22A2,2,0,0,1,54,21.8a1.34,1.34,0,0,1,1.14.5,2,2,0,0,1,.34,1.23m-.64,0c0-.88-.28-1.31-.83-1.31a.74.74,0,0,0-.32.05v2.56a.88.88,0,0,0,.33.05.68.68,0,0,0,.69-.45A2.6,2.6,0,0,0,54.86,23.52Z"/><path class="cls-1" d="M56.51,22.11a.25.25,0,0,1-.09.2.34.34,0,0,1-.22.07.31.31,0,0,1-.21-.07.25.25,0,0,1-.09-.2.27.27,0,0,1,.09-.2.31.31,0,0,1,.21-.07.34.34,0,0,1,.22.07.25.25,0,0,1,.09.2m-.59.7h.56v2.44h-.56Z"/><path class="cls-1" d="M58.49,24.55a.66.66,0,0,1-.27.55,1,1,0,0,1-.6.19,1.16,1.16,0,0,1-.68-.18l.15-.35a.73.73,0,0,0,.45.14.4.4,0,0,0,.27-.09.3.3,0,0,0,.11-.25c0-.18-.12-.32-.36-.41a.72.72,0,0,1-.55-.68.64.64,0,0,1,.23-.52.76.76,0,0,1,.54-.19,1.2,1.2,0,0,1,.64.17l-.14.32a.59.59,0,0,0-.39-.13.41.41,0,0,0-.25.08.3.3,0,0,0-.1.24q0,.24.36.39a.77.77,0,0,1,.59.72"/><path class="cls-1" d="M60.9,24l-1.5.22c.05.46.27.68.67.68a1.23,1.23,0,0,0,.62-.14l.13.35a1.62,1.62,0,0,1-.81.17,1.06,1.06,0,0,1-.86-.36,1.41,1.41,0,0,1-.27-.91,1.46,1.46,0,0,1,.24-.88.93.93,0,0,1,.8-.38.88.88,0,0,1,.79.37,1.54,1.54,0,0,1,.19.88m-.52-.22q0-.69-.48-.69a.45.45,0,0,0-.44.29,1.46,1.46,0,0,0-.09.56Z"/><path class="cls-1" d="M63.33,25.25h-.56V23.5c0-.26-.14-.39-.43-.39a.92.92,0,0,0-.38.07v2.07H61.4V22.94a2.27,2.27,0,0,1,1-.18c.64,0,1,.25,1,.74v1.75M62,22.36l.6-.05.5,0h.25v-.36H62Z"/><path class="cls-1" d="M65.86,24a1.52,1.52,0,0,1-.23.87,1,1,0,0,1-1.57,0,1.52,1.52,0,0,1-.23-.87,1.55,1.55,0,0,1,.23-.88,1,1,0,0,1,1.57,0,1.55,1.55,0,0,1,.23.88m-.55,0c0-.61-.15-.91-.47-.91s-.46.3-.46.91.15.89.46.89S65.31,24.62,65.31,24Z"/></g></g></svg>