<svg id="Layer_1" data-name="Layer 1" xmlns="http://www.w3.org/2000/svg" viewBox="0 0 1200 1039.74"><defs><style>.cls-1{fill:#2727d3;}</style></defs><title>background_hacer</title><polygon class="cls-1" points="7.07 1032.86 14.3 1032.86 14.3 1025.97 21.53 1025.97 21.53 1032.86 28.77 1032.86 28.77 1039.74 36 1039.74 36 1032.86 43.24 1032.86 43.24 1025.97 50.47 1025.97 50.47 1032.86 57.7 1032.86 57.7 1039.74 64.94 1039.74 64.94 1032.86 72.17 1032.86 72.17 1025.97 79.41 1025.97 79.41 1032.86 86.64 1032.86 86.64 1039.74 93.87 1039.74 93.87 1032.86 101.1 1032.86 101.1 1025.97 108.33 1025.97 108.33 1032.86 115.57 1032.86 115.57 1039.74 122.8 1039.74 122.8 1032.86 130.04 1032.86 130.04 1025.97 137.27 1025.97 137.27 1032.86 144.5 1032.86 144.5 1039.74 151.74 1039.74 151.74 1032.86 158.97 1032.86 158.97 1025.97 166.21 1025.97 166.21 1032.86 173.43 1032.86 173.43 1039.74 180.67 1039.74 180.67 1032.86 187.9 1032.86 187.9 1025.97 195.13 1025.97 195.13 1032.86 202.37 1032.86 202.37 1039.74 209.6 1039.74 209.6 1032.86 216.84 1032.86 216.84 1025.97 224.06 1025.97 224.06 1032.86 231.3 1032.86 231.3 1039.74 238.53 1039.74 238.53 1032.86 245.77 1032.86 245.77 1025.97 253 1025.97 253 1032.86 260.23 1032.86 260.23 1039.74 267.47 1039.74 267.47 1032.86 274.7 1032.86 274.7 1025.97 281.93 1025.97 281.93 1032.86 289.17 1032.86 289.17 1039.74 296.4 1039.74 296.4 1032.86 303.64 1032.86 303.64 1025.97 310.86 1025.97 310.86 1032.86 318.1 1032.86 318.1 1039.74 325.33 1039.74 325.33 1032.86 332.57 1032.86 332.57 1025.97 339.8 1025.97 339.8 1032.86 347.03 1032.86 347.03 1039.74 354.27 1039.74 354.27 1032.86 361.5 1032.86 361.5 1025.97 368.73 1025.97 368.73 1032.86 375.96 1032.86 375.96 1039.74 383.2 1039.74 383.2 1032.86 390.44 1032.86 390.44 1025.97 397.66 1025.97 397.66 1032.86 404.9 1032.86 404.9 1039.74 412.13 1039.74 412.13 1032.86 419.37 1032.86 419.37 1025.97 426.6 1025.97 426.6 1032.86 433.83 1032.86 433.83 1039.74 441.07 1039.74 441.07 1032.86 448.3 1032.86 448.3 1025.97 455.53 1025.97 455.53 1032.86 462.76 1032.86 462.76 1039.74 470 1039.74 470 1032.86 477.23 1032.86 477.23 1025.97 484.46 1025.97 484.46 1032.86 491.7 1032.86 491.7 1039.74 498.93 1039.74 498.93 1032.86 506.17 1032.86 506.17 1025.97 513.4 1025.97 513.4 1032.86 520.63 1032.86 520.63 1039.74 527.87 1039.74 527.87 1032.86 535.09 1032.86 535.09 1025.97 542.33 1025.97 542.33 1032.86 549.56 1032.86 549.56 1039.74 556.8 1039.74 556.8 1032.86 564.03 1032.86 564.03 1025.97 571.26 1025.97 571.26 1032.86 578.5 1032.86 578.5 1039.74 585.73 1039.74 585.73 1032.86 592.97 1032.86 592.97 1025.97 600.2 1025.97 600.2 1032.86 607.43 1032.86 607.43 1039.74 614.66 1039.74 614.66 1032.86 621.89 1032.86 621.89 1025.97 629.13 1025.97 629.13 1032.86 636.36 1032.86 636.36 1039.74 643.6 1039.74 643.6 1032.86 650.83 1032.86 650.83 1025.97 658.06 1025.97 658.06 1032.86 665.3 1032.86 665.3 1039.74 672.53 1039.74 672.53 1032.86 679.77 1032.86 679.77 1025.97 687 1025.97 687 1032.86 694.23 1032.86 694.23 1039.74 701.46 1039.74 701.46 1032.86 708.69 1032.86 708.69 1025.97 715.93 1025.97 715.93 1032.86 723.16 1032.86 723.16 1039.74 730.4 1039.74 730.4 1032.86 737.63 1032.86 737.63 1025.97 744.86 1025.97 744.86 1032.86 752.1 1032.86 752.1 1039.74 759.33 1039.74 759.33 1032.86 766.57 1032.86 766.57 1025.97 773.8 1025.97 773.8 1032.86 781.03 1032.86 781.03 1039.74 788.26 1039.74 788.26 1032.86 795.49 1032.86 795.49 1025.97 802.73 1025.97 802.73 1032.86 809.96 1032.86 809.96 1039.74 817.2 1039.74 817.2 1032.86 824.43 1032.86 824.43 1025.97 831.66 1025.97 831.66 1032.86 838.89 1032.86 838.89 1039.74 846.13 1039.74 846.13 1032.86 853.36 1032.86 853.36 1025.97 860.6 1025.97 860.6 1032.86 867.83 1032.86 867.83 1039.74 875.06 1039.74 875.06 1032.86 882.29 1032.86 882.29 1025.97 889.52 1025.97 889.52 1032.86 896.76 1032.86 896.76 1039.74 904 1039.74 904 1032.86 911.23 1032.86 911.23 1025.97 918.46 1025.97 918.46 1032.86 925.69 1032.86 925.69 1039.74 932.93 1039.74 932.93 1032.86 940.16 1032.86 940.16 1025.97 947.4 1025.97 947.4 1032.86 954.63 1032.86 954.63 1039.74 961.86 1039.74 961.86 1032.86 969.09 1032.86 969.09 1025.97 976.33 1025.97 976.33 1032.86 983.56 1032.86 983.56 1039.74 990.79 1039.74 990.79 1032.86 998.03 1032.86 998.03 1025.97 1005.26 1025.97 1005.26 1032.86 1012.49 1032.86 1012.49 1039.74 1019.73 1039.74 1019.73 1032.86 1026.96 1032.86 1026.96 1025.97 1034.2 1025.97 1034.2 1032.86 1041.43 1032.86 1041.43 1039.74 1048.66 1039.74 1048.66 1032.86 1055.89 1032.86 1055.89 1025.97 1063.12 1025.97 1063.12 1032.86 1070.36 1032.86 1070.36 1039.74 1077.59 1039.74 1077.59 1032.86 1084.83 1032.86 1084.83 1025.97 1092.06 1025.97 1092.06 1032.86 1099.29 1032.86 1099.29 1039.74 1106.53 1039.74 1106.53 1032.86 1113.76 1032.86 1113.76 1025.97 1121 1025.97 1121 1032.86 1128.22 1032.86 1128.22 1039.74 1135.46 1039.74 1135.46 1032.86 1142.69 1032.86 1142.69 1025.97 1149.92 1025.97 1149.92 1032.86 1157.16 1032.86 1157.16 1039.74 1164.39 1039.74 1164.39 1032.86 1171.63 1032.86 1171.63 1025.97 1178.86 1025.97 1178.86 1032.86 1186.09 1032.86 1186.09 1039.74 1193.33 1039.74 1193.33 1032.86 1200 1032.86 1200 0 0 0 0 1039.74 7.07 1039.74 7.07 1032.86"/></svg>