<?xml version="1.0" encoding="utf-8"?>
<!-- Generator: Adobe Illustrator 24.1.2, SVG Export Plug-In . SVG Version: 6.00 Build 0)  -->
<svg version="1.1" id="Capa_1" xmlns="http://www.w3.org/2000/svg" xmlns:xlink="http://www.w3.org/1999/xlink" x="0px" y="0px"
	 viewBox="0 0 25.7 39" style="enable-background:new 0 0 25.7 39;" xml:space="preserve">
<style type="text/css">
	.st0{enable-background:new    ;}
	.st1{fill:#2727DC;}
</style>
<g id="Capa_2_1_">
	<g id="Layer_1">
		<g class="st0">
			<path class="st1" d="M1.5,31.7v-2.4h1.2V28h1.2v-1.2h1.2v-1.2h1.2v-2.4h1.2v-1.2h1.2v-1.2H10v-2.4H8.8v-1.2H7.6v-1.2H6.4v-2.4
				H5.1v-1.2H3.9V11H2.7V9.8H1.5V7.3h4.9v1.2h1.2V11h1.2v1.2H10v1.2h1.2v2.4h2.4v-2.4h1.2v-1.2h1.2V11h1.2V8.5h1.2V7.3h4.9v2.4h-1.2
				V11H21v1.2h-1.2v1.2h-1.2v2.4h-1.2v1.2h-1.2v1.2h-1.2v2.4h1.2v1.2h1.2v1.2h1.2v2.4h1.2v1.2H21V28h1.2v1.2h1.2v2.4h-4.9v-1.2h-1.2
				V28h-1.2v-1.2h-1.2v-1.2h-1.2v-2.4h-2.4v2.4H10v1.2H8.8V28H7.6v2.4H6.4v1.2H1.5z"/>
		</g>
	</g>
</g>
</svg>
