<svg id="Layer_1" data-name="Layer 1" xmlns="http://www.w3.org/2000/svg" viewBox="0 0 1196.48 610.38"><defs><style>.cls-1{fill:#fff;}.cls-2{fill:#f34141;}</style></defs><title>footer_hacer</title><path class="cls-1" d="M293.44,285.63V206.17h5.67V280h39.73v5.68Z" transform="translate(-0.24 -0.5)"/><path class="cls-1" d="M367.66,268.6V223.19h5.67V268.6Zm5.67-45.41v-5.67H379v5.67Zm0,51.09V268.6H379v5.68ZM379,217.52v-5.68h5.67v5.68ZM379,280v-5.67h5.67V280Zm5.67-68.11v-5.67h28.38v5.67Zm0,73.79V280h28.38v5.68Zm28.38-68.11v-5.68h5.68v5.68Zm0,62.43v-5.67h5.68V280Zm5.68-56.76v-5.67h5.67v5.67Zm0,51.09V268.6h5.67v5.68Zm5.67-5.68V223.19h5.68V268.6Z" transform="translate(-0.24 -0.5)"/><path class="cls-1" d="M464.58,237.38V217.52h5.68v19.86Zm0,36.9V262.92h5.68v11.36Zm5.68-56.76v-5.68h5.67v5.68Zm0,25.54v-5.68h5.67v5.68Zm0,36.89v-5.67h5.67V280Zm5.67-68.11v-5.67h28.38v5.67Zm0,36.9v-5.68h28.38v5.68Zm0,36.89V280h28.38v5.68Zm28.38-68.11v-5.68H510v5.68Zm0,36.89v-5.67H510v5.67Zm0,25.54v-5.67H510V280ZM510,228.87V217.52h5.67v11.35Zm0,45.41V254.41h5.67v19.87Z" transform="translate(-0.24 -0.5)"/><path class="cls-1" d="M589.45,211.84v-5.67H646.2v5.67H620.66v73.79H615V211.84Z" transform="translate(-0.24 -0.5)"/><path class="cls-1" d="M668.47,285.63V206.17h5.67v79.46Z" transform="translate(-0.24 -0.5)"/><path class="cls-1" d="M702.08,285.63V206.17h45.41v5.67H707.76v31.22h34v5.68h-34V280h39.73v5.68Z" transform="translate(-0.24 -0.5)"/><path class="cls-1" d="M775.43,285.63V206.17h11.35v5.67h-5.67v73.79Zm11.35-62.44V211.84h5.68v11.35Zm5.68,11.36V223.19h5.67v11.36Zm5.67,11.35V234.55h5.68V245.9Zm5.68,11.35V245.9h5.68v11.35Zm5.68-11.35V234.55h5.67V245.9Zm5.67-11.35V223.19h5.68v11.36Zm5.68-11.36V211.84h5.67v11.35Zm5.67-11.35v-5.67h11.35v79.46h-5.67V211.84Z" transform="translate(-0.24 -0.5)"/><path class="cls-1" d="M865.81,285.63V206.17h39.72v5.67h-34v31.22h34v5.68h-34v36.89Zm39.72-68.11v-5.68h5.68v5.68Zm0,25.54v-5.68h5.68v5.68Zm5.68-5.68V217.52h5.68v19.86Z" transform="translate(-0.24 -0.5)"/><path class="cls-1" d="M939.15,268.6V223.19h5.68V268.6Zm5.68-45.41v-5.67h5.68v5.67Zm0,51.09V268.6h5.68v5.68Zm5.68-56.76v-5.68h5.67v5.68Zm0,62.43v-5.67h5.67V280Zm5.67-68.11v-5.67h28.38v5.67Zm0,73.79V280h28.38v5.68Zm28.38-68.11v-5.68h5.68v5.68Zm0,62.43v-5.67h5.68V280Zm5.68-56.76v-5.67h5.67v5.67Zm0,51.09V268.6h5.67v5.68Zm5.67-5.68V223.19h5.68V268.6Z" transform="translate(-0.24 -0.5)"/><path class="cls-1" d="M1029.53,237.38V217.52h5.67v19.86Zm0,36.9V262.92h5.67v11.36Zm5.67-56.76v-5.68h5.68v5.68Zm0,25.54v-5.68h5.68v5.68Zm0,36.89v-5.67h5.68V280Zm5.68-68.11v-5.67h28.38v5.67Zm0,36.9v-5.68h28.38v5.68Zm0,36.89V280h28.38v5.68Zm28.38-68.11v-5.68h5.67v5.68Zm0,36.89v-5.67h5.67v5.67Zm0,25.54v-5.67h5.67V280Zm5.67-51.08V217.52h5.68v11.35Zm0,45.41V254.41h5.68v19.87Z" transform="translate(-0.24 -0.5)"/><path class="cls-1" d="M134.87,423.48V344H174.6v5.68h-34v68.11h34v5.67Zm39.73-68.1V349.7h5.68v5.68Zm0,62.43v-5.68h5.68v5.68Zm5.68-51.08V355.38H186v11.35Zm0,45.4V400.78H186v11.35ZM186,400.78v-34h5.68v34Z" transform="translate(-0.24 -0.5)"/><path class="cls-1" d="M210.84,423.48V344h45.4v5.68H216.51v31.22h34.06v5.67H216.51v31.22h39.73v5.67Z" transform="translate(-0.24 -0.5)"/><path class="cls-1" d="M306,423.48V344h5.68v73.79h39.73v5.67Z" transform="translate(-0.24 -0.5)"/><path class="cls-1" d="M365,423.48V372.4h5.68v22.71h39.73V372.4H416v51.08h-5.67v-22.7H370.63v22.7Zm5.68-51.08V361.05h5.67V372.4Zm5.67-11.35V349.7H382v11.35ZM382,349.7V344h17v5.68Zm17,11.35V349.7h5.68v11.35Zm5.68,11.35V361.05h5.68V372.4Z" transform="translate(-0.24 -0.5)"/><path class="cls-1" d="M465.8,423.48V344h45.41v5.68H471.48v31.22h34v5.67h-34v31.22h39.73v5.67Z" transform="translate(-0.24 -0.5)"/><path class="cls-1" d="M524.74,375.24V355.38h5.68v19.86Zm0,36.89V400.78h5.68v11.35Zm5.68-56.75V349.7h5.67v5.68Zm0,25.54v-5.68h5.67v5.68Zm0,36.89v-5.68h5.67v5.68Zm5.67-68.11V344h28.38v5.68Zm0,36.89v-5.67h28.38v5.67Zm0,36.89v-5.67h28.38v5.67Zm28.38-68.1V349.7h5.68v5.68Zm0,36.89v-5.68h5.68v5.68Zm0,25.54v-5.68h5.68v5.68Zm5.68-51.08V355.38h5.67v11.35Zm0,45.4V392.27h5.67v19.86Z" transform="translate(-0.24 -0.5)"/><path class="cls-1" d="M595,406.46V361.05h5.68v45.41Zm5.68-45.41v-5.67h5.67v5.67Zm0,51.08v-5.67h5.67v5.67Zm5.67-56.75V349.7h5.68v5.68Zm0,62.43v-5.68h5.68v5.68Zm5.68-68.11V344h28.38v5.68Zm0,73.78v-5.67h28.38v5.67Zm28.38-68.1V349.7h5.67v5.68Zm0,62.43v-5.68h5.67v5.68Zm5.67-51.08V355.38h5.68v11.35Zm0,45.4V400.78h5.68v11.35Z" transform="translate(-0.24 -0.5)"/><path class="cls-1" d="M671,412.13V344h5.67v68.11Zm5.67,5.68v-5.68h5.68v5.68Zm5.68,5.67v-5.67h34v5.67Zm34-5.67v-5.68h5.68v5.68Zm5.68-5.68V344h5.67v68.11Z" transform="translate(-0.24 -0.5)"/><path class="cls-1" d="M747,406.46V361.05h5.68v45.41Zm5.68-45.41v-5.67h5.67v5.67Zm0,51.08v-5.67h5.67v5.67Zm5.67-56.75V349.7H764v5.68Zm0,62.43v-5.68H764v5.68ZM764,349.7V344h28.38v5.68Zm0,73.78v-5.67h28.38v5.67Zm28.38-68.1V349.7h5.68v5.68Zm0,62.43v-5.68h5.68v5.68Zm5.68-51.08V355.38h5.67v11.35Zm0,45.4V400.78h5.67v11.35Z" transform="translate(-0.24 -0.5)"/><path class="cls-1" d="M822.93,423.48V344h5.68v36.9H874V344h5.68v79.46H874V386.59h-45.4v36.89Z" transform="translate(-0.24 -0.5)"/><path class="cls-1" d="M898.9,423.48V372.4h5.67v22.71H944.3V372.4H950v51.08H944.3v-22.7H904.57v22.7Zm5.67-51.08V361.05h5.68V372.4Zm5.68-11.35V349.7h5.67v11.35Zm5.67-11.35V344h17v5.68Zm17,11.35V349.7h5.68v11.35Zm5.68,11.35V361.05h5.67V372.4Z" transform="translate(-0.24 -0.5)"/><path class="cls-1" d="M135.83,257.25v-5.68h5.68v5.68Zm5.68-5.68V245.9h5.67v5.67Zm0,11.35v-5.67h5.67v5.67Zm5.67-17v-5.68h5.68v5.68Zm0,22.7v-5.68h5.68v5.68Zm5.68-28.38v-5.67h5.67v5.67Zm0,34.06V268.6h5.67v5.68Zm5.67-39.73v-5.68h5.68v5.68Zm0,45.4v-5.67h5.68V280Z" transform="translate(-0.24 -0.5)"/><path class="cls-1" d="M192.15,257.25v-5.68h5.68v5.68Zm5.68-5.68V245.9h5.67v5.67Zm0,11.35v-5.67h5.67v5.67Zm5.67-17v-5.68h5.68v5.68Zm0,22.7v-5.68h5.68v5.68Zm5.68-28.38v-5.67h5.67v5.67Zm0,34.06V268.6h5.67v5.68Zm5.67-39.73v-5.68h5.68v5.68Zm0,45.4v-5.67h5.68V280Z" transform="translate(-0.24 -0.5)"/><path class="cls-1" d="M251.31,260.09V248.73h11.35v11.36Z" transform="translate(-0.24 -0.5)"/><path class="cls-1" d="M972,397.7V386.35h11.35V397.7Z" transform="translate(-0.24 -0.5)"/><path class="cls-1" d="M1005.42,372.4v-5.67h5.68v5.67Zm0,45.41v-5.68h5.68v5.68Zm5.68-39.73V372.4h5.67v5.68Zm0,34.05v-5.67h5.67v5.67Zm5.67-28.37v-5.68h5.68v5.68Zm0,22.7v-5.68h5.68v5.68Zm5.68-17v-5.67h5.67v5.67Zm0,11.35v-5.67h5.67v5.67Zm5.67-5.67v-5.68h5.68v5.68Z" transform="translate(-0.24 -0.5)"/><path class="cls-1" d="M1053,372.4v-5.67h5.68v5.67Zm0,45.41v-5.68h5.68v5.68Zm5.68-39.73V372.4h5.67v5.68Zm0,34.05v-5.67h5.67v5.67Zm5.67-28.37v-5.68H1070v5.68Zm0,22.7v-5.68H1070v5.68Zm5.68-17v-5.67h5.67v5.67Zm0,11.35v-5.67h5.67v5.67Zm5.67-5.67v-5.68h5.68v5.68Z" transform="translate(-0.24 -0.5)"/><rect class="cls-2" x="165.86" y="570.57" width="6.64" height="6.64"/><rect class="cls-2" x="258.75" y="484.32" width="6.64" height="6.64"/><polygon class="cls-2" points="378.17 577.21 371.54 577.21 371.54 583.84 378.17 583.84 384.8 583.84 384.8 577.21 384.8 570.57 378.17 570.57 378.17 577.21"/><polygon class="cls-2" points="570.57 490.96 563.94 490.96 563.94 497.59 563.94 504.22 570.57 504.22 570.57 510.86 570.57 517.5 563.94 517.5 563.94 524.13 563.94 530.77 570.57 530.77 570.57 524.13 577.21 524.13 577.21 517.5 577.21 510.86 577.21 504.22 577.21 497.59 570.57 497.59 570.57 490.96"/><polygon class="cls-2" points="517.49 570.57 510.86 570.57 504.23 570.57 497.59 570.57 490.96 570.57 484.32 570.57 484.32 563.94 477.69 563.94 477.69 557.3 484.32 557.3 484.32 550.67 490.96 550.67 490.96 544.03 484.32 544.03 477.69 544.03 471.06 544.03 471.06 537.4 471.06 530.77 471.06 524.13 471.06 517.5 464.42 517.5 464.42 524.13 464.42 530.77 464.42 537.4 457.78 537.4 451.15 537.4 451.15 530.77 444.52 530.77 444.52 524.13 437.88 524.13 437.88 517.5 431.25 517.5 431.25 524.13 431.25 530.77 437.88 530.77 437.88 537.4 444.52 537.4 444.52 544.03 451.15 544.03 457.78 544.03 457.78 550.67 464.42 550.67 464.42 557.3 471.06 557.3 471.06 563.94 471.06 570.57 477.69 570.57 477.69 577.21 484.32 577.21 490.96 577.21 497.59 577.21 504.23 577.21 510.86 577.21 517.49 577.21 524.13 577.21 530.77 577.21 530.77 570.57 524.13 570.57 517.49 570.57"/><polygon class="cls-2" points="152.59 563.94 159.23 563.94 159.23 557.3 159.23 550.67 165.86 550.67 165.86 544.03 172.5 544.03 179.14 544.03 179.14 550.67 179.14 557.3 179.14 563.94 185.77 563.94 185.77 557.3 185.77 550.67 185.77 544.03 185.77 537.4 179.14 537.4 172.5 537.4 165.86 537.4 159.23 537.4 159.23 544.03 152.59 544.03 152.59 550.67 152.59 557.3 145.96 557.3 145.96 563.94 145.96 570.57 145.96 577.21 152.59 577.21 152.59 570.57 152.59 563.94"/><rect class="cls-2" x="172.5" y="563.94" width="6.64" height="6.63"/><polygon class="cls-2" points="291.92 530.77 285.28 530.77 278.65 530.77 278.65 537.4 285.28 537.4 285.28 544.03 291.92 544.03 291.92 537.4 291.92 530.77"/><polygon class="cls-2" points="530.77 563.94 530.77 570.57 537.4 570.57 544.04 570.57 544.04 563.94 537.4 563.94 530.77 563.94"/><polygon class="cls-2" points="26.54 557.3 26.54 550.67 26.54 544.03 26.54 537.4 26.54 530.77 26.54 524.13 33.17 524.13 33.17 517.5 33.17 510.86 33.17 504.22 26.54 504.22 26.54 510.86 26.54 517.5 19.9 517.5 19.9 524.13 19.9 530.77 19.9 537.4 19.9 544.03 19.9 550.67 19.9 557.3 19.9 563.94 19.9 570.57 26.54 570.57 26.54 563.94 26.54 557.3"/><polygon class="cls-2" points="106.15 550.67 106.15 544.03 106.15 537.4 99.52 537.4 99.52 530.77 92.88 530.77 92.88 524.13 86.25 524.13 79.62 524.13 79.62 530.77 72.98 530.77 72.98 537.4 66.35 537.4 66.35 544.03 66.35 550.67 59.71 550.67 59.71 557.3 59.71 563.94 59.71 570.57 53.07 570.57 46.44 570.57 46.44 577.21 39.81 577.21 33.17 577.21 33.17 570.57 26.54 570.57 26.54 577.21 26.54 583.84 33.17 583.84 39.81 583.84 46.44 583.84 53.07 583.84 53.07 577.21 59.71 577.21 66.35 577.21 66.35 570.57 66.35 563.94 66.35 557.3 72.98 557.3 72.98 550.67 72.98 544.03 79.62 544.03 79.62 537.4 86.25 537.4 92.88 537.4 92.88 544.03 99.52 544.03 99.52 550.67 99.52 557.3 99.52 563.94 106.15 563.94 106.15 557.3 106.15 550.67"/><polygon class="cls-2" points="232.21 557.3 232.21 563.94 232.21 570.57 232.21 577.21 232.21 583.84 232.21 590.48 238.85 590.48 238.85 583.84 238.85 577.21 238.85 570.57 238.85 563.94 238.85 557.3 238.85 550.67 238.85 544.03 232.21 544.03 232.21 550.67 232.21 557.3"/><rect class="cls-2" x="291.92" y="544.03" width="6.64" height="6.64"/><rect class="cls-2" x="550.67" y="544.03" width="6.64" height="6.64"/><polygon class="cls-2" points="384.8 544.03 384.8 550.67 384.8 557.3 384.8 563.94 384.8 570.57 391.44 570.57 391.44 563.94 391.44 557.3 391.44 550.67 391.44 544.03 391.44 537.4 384.8 537.4 384.8 544.03"/><polygon class="cls-2" points="557.3 537.4 557.3 544.03 563.94 544.03 563.94 537.4 563.94 530.77 557.3 530.77 557.3 537.4"/><polygon class="cls-2" points="278.65 517.5 272.02 517.5 272.02 524.13 272.02 530.77 278.65 530.77 278.65 524.13 278.65 517.5"/><polygon class="cls-2" points="212.31 517.5 218.94 517.5 218.94 524.13 225.57 524.13 225.57 530.77 225.57 537.4 225.57 544.03 232.21 544.03 232.21 537.4 232.21 530.77 232.21 524.13 232.21 517.5 225.57 517.5 225.57 510.86 218.94 510.86 218.94 504.22 212.31 504.22 212.31 510.86 212.31 517.5"/><polygon class="cls-2" points="477.69 510.86 477.69 504.22 484.32 504.22 484.32 497.59 490.96 497.59 490.96 504.22 497.59 504.22 497.59 510.86 497.59 517.5 497.59 524.13 497.59 530.77 490.96 530.77 490.96 537.4 490.96 544.03 497.59 544.03 497.59 537.4 504.23 537.4 504.23 530.77 504.23 524.13 504.23 517.5 504.23 510.86 504.23 504.22 504.23 497.59 497.59 497.59 497.59 490.96 490.96 490.96 484.32 490.96 477.69 490.96 477.69 497.59 471.06 497.59 471.06 504.22 471.06 510.86 471.06 517.5 477.69 517.5 477.69 510.86"/><polygon class="cls-2" points="132.69 504.22 126.06 504.22 119.42 504.22 119.42 497.59 112.79 497.59 112.79 490.96 106.15 490.96 106.15 484.32 106.15 477.69 106.15 471.05 106.15 464.42 99.52 464.42 99.52 471.05 99.52 477.69 99.52 484.32 99.52 490.96 99.52 497.59 106.15 497.59 106.15 504.22 112.79 504.22 112.79 510.86 119.42 510.86 126.06 510.86 132.69 510.86 139.33 510.86 145.96 510.86 145.96 504.22 139.33 504.22 132.69 504.22"/><polygon class="cls-2" points="272.02 504.22 265.38 504.22 265.38 510.86 265.38 517.5 272.02 517.5 272.02 510.86 272.02 504.22"/><polygon class="cls-2" points="431.25 504.22 431.25 497.59 431.25 490.96 431.25 484.32 424.61 484.32 417.98 484.32 417.98 490.96 424.61 490.96 424.61 497.59 424.61 504.22 424.61 510.86 424.61 517.5 431.25 517.5 431.25 510.86 431.25 504.22"/><polygon class="cls-2" points="145.96 497.59 145.96 504.22 152.59 504.22 159.23 504.22 159.23 497.59 152.59 497.59 145.96 497.59"/><rect class="cls-2" x="258.75" y="497.59" width="6.64" height="6.63"/><polygon class="cls-2" points="159.23 490.96 159.23 497.59 165.86 497.59 172.5 497.59 172.5 490.96 165.86 490.96 159.23 490.96"/><polygon class="cls-2" points="563.94 477.69 557.3 477.69 557.3 471.05 550.67 471.05 550.67 464.42 544.04 464.42 544.04 457.79 537.4 457.79 530.77 457.79 524.13 457.79 517.49 457.79 510.86 457.79 504.23 457.79 504.23 451.15 497.59 451.15 490.96 451.15 490.96 444.51 484.32 444.51 477.69 444.51 471.06 444.51 471.06 451.15 477.69 451.15 484.32 451.15 484.32 457.79 490.96 457.79 497.59 457.79 497.59 464.42 504.23 464.42 510.86 464.42 517.49 464.42 524.13 464.42 530.77 464.42 537.4 464.42 537.4 471.05 544.04 471.05 544.04 477.69 550.67 477.69 550.67 484.32 557.3 484.32 557.3 490.96 563.94 490.96 563.94 484.32 563.94 477.69"/><rect class="cls-2" x="325.09" y="570.57" width="6.64" height="6.64"/><polygon class="cls-2" points="364.9 471.05 364.9 477.69 364.9 484.32 371.54 484.32 371.54 490.96 371.54 497.59 371.54 504.22 371.54 510.86 378.17 510.86 378.17 504.22 378.17 497.59 378.17 490.96 378.17 484.32 378.17 477.69 371.54 477.69 371.54 471.05 371.54 464.42 371.54 457.79 364.9 457.79 364.9 464.42 364.9 471.05"/><polygon class="cls-2" points="39.81 497.59 46.44 497.59 46.44 490.96 53.07 490.96 53.07 484.32 53.07 477.69 59.71 477.69 59.71 471.05 59.71 464.42 59.71 457.79 59.71 451.15 59.71 444.51 59.71 437.88 59.71 431.25 59.71 424.61 59.71 417.98 59.71 411.34 59.71 404.7 53.07 404.7 53.07 411.34 53.07 417.98 53.07 424.61 53.07 431.25 53.07 437.88 53.07 444.51 53.07 451.15 53.07 457.79 53.07 464.42 53.07 471.05 46.44 471.05 46.44 477.69 46.44 484.32 39.81 484.32 39.81 490.96 33.17 490.96 33.17 497.59 33.17 504.22 39.81 504.22 39.81 497.59"/><rect class="cls-2" x="305.19" y="550.67" width="6.64" height="6.64"/><polygon class="cls-2" points="199.04 490.96 205.67 490.96 205.67 497.59 205.67 504.22 212.31 504.22 212.31 497.59 212.31 490.96 212.31 484.32 205.67 484.32 205.67 477.69 199.04 477.69 199.04 484.32 199.04 490.96"/><rect class="cls-2" x="252.11" y="477.69" width="6.64" height="6.64"/><polygon class="cls-2" points="172.5 484.32 172.5 490.96 179.14 490.96 179.14 484.32 179.14 477.69 172.5 477.69 172.5 484.32"/><polygon class="cls-2" points="544.04 557.3 544.04 563.94 550.67 563.94 550.67 557.3 550.67 550.67 544.04 550.67 544.04 557.3"/><polygon class="cls-2" points="318.46 563.94 318.46 557.3 311.83 557.3 311.83 563.94 311.83 570.57 318.46 570.57 325.09 570.57 325.09 563.94 318.46 563.94"/><rect class="cls-2" x="192.4" y="471.05" width="6.64" height="6.64"/><polygon class="cls-2" points="384.8 524.13 384.8 517.5 378.17 517.5 378.17 524.13 378.17 530.77 378.17 537.4 384.8 537.4 384.8 530.77 384.8 524.13"/><polygon class="cls-2" points="6.64 72.98 6.64 66.35 6.64 59.71 6.64 53.07 6.64 46.44 6.64 39.8 0 39.8 0 46.44 0 53.07 0 59.71 0 66.35 0 72.98 0 79.61 0 86.25 6.64 86.25 6.64 79.61 6.64 72.98"/><polygon class="cls-2" points="345 59.71 345 53.07 345 46.44 345 39.8 345 33.17 345 26.54 345 19.9 351.63 19.9 351.63 13.27 351.63 6.63 358.27 6.63 358.27 0 351.63 0 345 0 345 6.63 345 13.27 338.36 13.27 338.36 19.9 338.36 26.54 338.36 33.17 338.36 39.8 338.36 46.44 338.36 53.07 338.36 59.71 338.36 66.35 345 66.35 345 59.71"/><rect class="cls-2" x="557.3" y="59.71" width="6.64" height="6.64"/><rect class="cls-2" x="358.27" y="298.56" width="6.64" height="6.63"/><rect class="cls-2" x="345" y="285.28" width="6.63" height="6.64"/><polygon class="cls-2" points="19.9 272.01 19.9 265.38 19.9 258.75 19.9 252.11 19.9 245.48 19.9 238.84 13.27 238.84 13.27 245.48 13.27 252.11 13.27 258.75 13.27 265.38 13.27 272.01 13.27 278.65 13.27 285.28 19.9 285.28 19.9 278.65 19.9 272.01"/><polygon class="cls-2" points="424.61 26.54 424.61 33.17 431.25 33.17 431.25 26.54 431.25 19.9 424.61 19.9 417.98 19.9 417.98 26.54 424.61 26.54"/><polygon class="cls-2" points="345 79.61 351.63 79.61 351.63 86.25 358.27 86.25 364.9 86.25 364.9 92.88 371.54 92.88 378.17 92.88 378.17 86.25 384.8 86.25 384.8 79.61 391.44 79.61 391.44 72.98 391.44 66.35 391.44 59.71 391.44 53.07 391.44 46.44 391.44 39.8 391.44 33.17 391.44 26.54 398.07 26.54 398.07 19.9 404.71 19.9 411.35 19.9 417.98 19.9 417.98 13.27 411.35 13.27 404.71 13.27 398.07 13.27 391.44 13.27 391.44 19.9 384.8 19.9 384.8 26.54 384.8 33.17 384.8 39.8 384.8 46.44 384.8 53.07 384.8 59.71 384.8 66.35 384.8 72.98 378.17 72.98 378.17 79.61 371.54 79.61 364.9 79.61 358.27 79.61 358.27 72.98 351.63 72.98 351.63 66.35 345 66.35 345 72.98 345 79.61"/><polygon class="cls-2" points="431.25 72.98 431.25 66.35 431.25 59.71 431.25 53.07 424.61 53.07 424.61 59.71 424.61 66.35 424.61 72.98 424.61 79.61 424.61 86.25 424.61 92.88 431.25 92.88 437.88 92.88 444.52 92.88 451.15 92.88 457.78 92.88 457.78 86.25 464.42 86.25 464.42 79.61 464.42 72.98 464.42 66.35 464.42 59.71 471.06 59.71 471.06 53.07 471.06 46.44 471.06 39.8 464.42 39.8 464.42 46.44 464.42 53.07 457.78 53.07 457.78 59.71 457.78 66.35 457.78 72.98 457.78 79.61 451.15 79.61 451.15 86.25 444.52 86.25 437.88 86.25 431.25 86.25 431.25 79.61 431.25 72.98"/><polygon class="cls-2" points="524.13 33.17 530.77 33.17 530.77 26.54 524.13 26.54 517.49 26.54 517.49 33.17 524.13 33.17"/><polygon class="cls-2" points="490.96 33.17 497.59 33.17 497.59 26.54 504.23 26.54 510.86 26.54 517.49 26.54 517.49 19.9 510.86 19.9 504.23 19.9 497.59 19.9 490.96 19.9 490.96 26.54 484.32 26.54 477.69 26.54 477.69 33.17 484.32 33.17 490.96 33.17"/><polygon class="cls-2" points="99.52 451.15 99.52 444.51 92.88 444.51 92.88 451.15 92.88 457.79 92.88 464.42 99.52 464.42 99.52 457.79 99.52 451.15"/><polygon class="cls-2" points="252.11 457.79 252.11 464.42 252.11 471.05 258.75 471.05 258.75 464.42 258.75 457.79 258.75 451.15 252.11 451.15 252.11 457.79"/><rect class="cls-2" x="550.67" y="53.07" width="6.64" height="6.64"/><polygon class="cls-2" points="192.4 451.15 185.77 451.15 185.77 457.79 179.14 457.79 172.5 457.79 172.5 464.42 179.14 464.42 179.14 471.05 179.14 477.69 185.77 477.69 185.77 471.05 192.4 471.05 192.4 464.42 192.4 457.79 199.04 457.79 199.04 451.15 199.04 444.51 192.4 444.51 192.4 451.15"/><polygon class="cls-2" points="252.11 437.88 252.11 431.25 245.48 431.25 245.48 437.88 245.48 444.51 252.11 444.51 252.11 437.88"/><rect class="cls-2" x="245.48" y="417.98" width="6.63" height="6.64"/><polygon class="cls-2" points="46.44 398.07 39.81 398.07 33.17 398.07 33.17 391.44 26.54 391.44 19.9 391.44 19.9 384.8 13.27 384.8 13.27 378.17 13.27 371.53 13.27 364.9 13.27 358.27 13.27 351.63 6.64 351.63 6.64 358.27 6.64 364.9 6.64 371.53 6.64 378.17 6.64 384.8 6.64 391.44 13.27 391.44 13.27 398.07 19.9 398.07 26.54 398.07 26.54 404.7 33.17 404.7 39.81 404.7 46.44 404.7 53.07 404.7 53.07 398.07 46.44 398.07"/><polygon class="cls-2" points="411.35 378.17 404.71 378.17 404.71 371.53 398.07 371.53 391.44 371.53 384.8 371.53 378.17 371.53 371.54 371.53 364.9 371.53 358.27 371.53 351.63 371.53 351.63 378.17 351.63 384.8 351.63 391.44 351.63 398.07 351.63 404.7 351.63 411.34 351.63 417.98 351.63 424.61 351.63 431.25 358.27 431.25 358.27 437.88 358.27 444.51 358.27 451.15 358.27 457.79 364.9 457.79 364.9 451.15 364.9 444.51 364.9 437.88 364.9 431.25 364.9 424.61 358.27 424.61 358.27 417.98 358.27 411.34 358.27 404.7 358.27 398.07 358.27 391.44 358.27 384.8 358.27 378.17 364.9 378.17 371.54 378.17 378.17 378.17 384.8 378.17 391.44 378.17 398.07 378.17 398.07 384.8 404.71 384.8 404.71 391.44 411.35 391.44 411.35 384.8 411.35 378.17"/><polygon class="cls-2" points="451.15 364.9 451.15 371.53 457.78 371.53 457.78 364.9 457.78 358.27 451.15 358.27 451.15 364.9"/><polygon class="cls-2" points="490.96 351.63 484.32 351.63 477.69 351.63 471.06 351.63 464.42 351.63 457.78 351.63 457.78 358.27 464.42 358.27 471.06 358.27 477.69 358.27 484.32 358.27 484.32 364.9 490.96 364.9 490.96 358.27 490.96 351.63"/><polygon class="cls-2" points="19.9 344.99 26.54 344.99 33.17 344.99 39.81 344.99 46.44 344.99 46.44 338.36 39.81 338.36 33.17 338.36 26.54 338.36 19.9 338.36 13.27 338.36 13.27 344.99 13.27 351.63 19.9 351.63 19.9 344.99"/><polygon class="cls-2" points="53.07 351.63 53.07 358.27 59.71 358.27 66.35 358.27 72.98 358.27 79.62 358.27 79.62 351.63 79.62 344.99 79.62 338.36 72.98 338.36 72.98 331.73 66.35 331.73 66.35 325.09 59.71 325.09 59.71 318.46 53.07 318.46 53.07 325.09 53.07 331.73 59.71 331.73 59.71 338.36 66.35 338.36 66.35 344.99 72.98 344.99 72.98 351.63 66.35 351.63 59.71 351.63 59.71 344.99 53.07 344.99 46.44 344.99 46.44 351.63 53.07 351.63"/><polygon class="cls-2" points="437.88 46.44 437.88 39.8 431.25 39.8 431.25 46.44 431.25 53.07 437.88 53.07 437.88 46.44"/><polygon class="cls-2" points="112.79 344.99 106.15 344.99 106.15 351.63 112.79 351.63 119.42 351.63 119.42 344.99 112.79 344.99"/><polygon class="cls-2" points="99.52 338.36 99.52 331.73 92.88 331.73 92.88 325.09 86.25 325.09 79.62 325.09 79.62 331.73 86.25 331.73 86.25 338.36 92.88 338.36 92.88 344.99 99.52 344.99 106.15 344.99 106.15 338.36 99.52 338.36"/><polygon class="cls-2" points="179.14 338.36 172.5 338.36 172.5 344.99 165.86 344.99 159.23 344.99 159.23 351.63 152.59 351.63 145.96 351.63 139.33 351.63 132.69 351.63 126.06 351.63 119.42 351.63 119.42 358.27 126.06 358.27 132.69 358.27 139.33 358.27 145.96 358.27 152.59 358.27 159.23 358.27 165.86 358.27 165.86 351.63 172.5 351.63 179.14 351.63 179.14 344.99 185.77 344.99 192.4 344.99 192.4 338.36 185.77 338.36 179.14 338.36"/><polygon class="cls-2" points="524.13 331.73 524.13 325.09 530.77 325.09 530.77 318.46 530.77 311.82 530.77 305.19 524.13 305.19 524.13 298.56 517.49 298.56 517.49 291.92 517.49 285.28 517.49 278.65 510.86 278.65 510.86 272.01 504.23 272.01 497.59 272.01 490.96 272.01 484.32 272.01 477.69 272.01 471.06 272.01 471.06 278.65 464.42 278.65 464.42 285.28 457.78 285.28 457.78 291.92 451.15 291.92 451.15 298.56 457.78 298.56 464.42 298.56 464.42 291.92 471.06 291.92 471.06 285.28 477.69 285.28 477.69 278.65 484.32 278.65 490.96 278.65 497.59 278.65 504.23 278.65 504.23 285.28 510.86 285.28 510.86 291.92 510.86 298.56 510.86 305.19 517.49 305.19 517.49 311.82 524.13 311.82 524.13 318.46 517.49 318.46 517.49 325.09 517.49 331.73 517.49 338.36 517.49 344.99 524.13 344.99 524.13 338.36 524.13 331.73"/><polygon class="cls-2" points="563.94 338.36 557.3 338.36 550.67 338.36 550.67 331.73 544.04 331.73 537.4 331.73 537.4 338.36 544.04 338.36 544.04 344.99 550.67 344.99 557.3 344.99 563.94 344.99 570.57 344.99 570.57 338.36 570.57 331.73 563.94 331.73 563.94 338.36"/><rect class="cls-2" x="530.77" y="325.09" width="6.64" height="6.64"/><rect class="cls-2" x="46.44" y="311.82" width="6.63" height="6.64"/><polygon class="cls-2" points="79.62 311.82 72.98 311.82 72.98 305.19 72.98 298.56 79.62 298.56 79.62 291.92 86.25 291.92 92.88 291.92 99.52 291.92 106.15 291.92 112.79 291.92 119.42 291.92 126.06 291.92 132.69 291.92 132.69 298.56 139.33 298.56 145.96 298.56 152.59 298.56 152.59 291.92 145.96 291.92 139.33 291.92 139.33 285.28 132.69 285.28 126.06 285.28 119.42 285.28 112.79 285.28 106.15 285.28 99.52 285.28 92.88 285.28 86.25 285.28 79.62 285.28 72.98 285.28 72.98 291.92 66.35 291.92 66.35 298.56 66.35 305.19 66.35 311.82 66.35 318.46 72.98 318.46 72.98 325.09 79.62 325.09 79.62 318.46 79.62 311.82"/><polygon class="cls-2" points="384.8 318.46 391.44 318.46 391.44 311.82 384.8 311.82 378.17 311.82 378.17 318.46 384.8 318.46"/><polygon class="cls-2" points="417.98 311.82 411.35 311.82 404.71 311.82 398.07 311.82 398.07 318.46 404.71 318.46 411.35 318.46 417.98 318.46 424.61 318.46 431.25 318.46 431.25 311.82 424.61 311.82 417.98 311.82"/><polygon class="cls-2" points="371.54 305.19 364.9 305.19 364.9 311.82 371.54 311.82 378.17 311.82 378.17 305.19 371.54 305.19"/><polygon class="cls-2" points="431.25 305.19 431.25 311.82 437.88 311.82 444.52 311.82 444.52 305.19 437.88 305.19 431.25 305.19"/><polygon class="cls-2" points="159.23 305.19 165.86 305.19 165.86 311.82 172.5 311.82 179.14 311.82 179.14 318.46 185.77 318.46 192.4 318.46 192.4 311.82 185.77 311.82 185.77 305.19 179.14 305.19 172.5 305.19 172.5 298.56 165.86 298.56 159.23 298.56 152.59 298.56 152.59 305.19 159.23 305.19"/><polygon class="cls-2" points="225.57 305.19 218.94 305.19 218.94 311.82 218.94 318.46 225.57 318.46 225.57 311.82 232.21 311.82 232.21 305.19 232.21 298.56 225.57 298.56 225.57 305.19"/><polygon class="cls-2" points="298.56 298.56 291.92 298.56 285.28 298.56 278.65 298.56 278.65 291.92 272.02 291.92 265.38 291.92 265.38 285.28 265.38 278.65 265.38 272.01 265.38 265.38 265.38 258.75 265.38 252.11 258.75 252.11 258.75 258.75 258.75 265.38 258.75 272.01 258.75 278.65 258.75 285.28 258.75 291.92 258.75 298.56 265.38 298.56 272.02 298.56 272.02 305.19 278.65 305.19 285.28 305.19 291.92 305.19 298.56 305.19 305.19 305.19 305.19 298.56 298.56 298.56"/><rect class="cls-2" x="444.52" y="298.56" width="6.63" height="6.63"/><polygon class="cls-2" points="232.21 46.44 225.57 46.44 218.94 46.44 212.31 46.44 205.67 46.44 199.04 46.44 192.4 46.44 185.77 46.44 179.14 46.44 172.5 46.44 165.86 46.44 159.23 46.44 159.23 53.07 152.59 53.07 145.96 53.07 145.96 59.71 145.96 66.35 152.59 66.35 152.59 59.71 159.23 59.71 165.86 59.71 165.86 53.07 172.5 53.07 179.14 53.07 185.77 53.07 192.4 53.07 199.04 53.07 205.67 53.07 212.31 53.07 218.94 53.07 225.57 53.07 232.21 53.07 232.21 59.71 225.57 59.71 225.57 66.35 225.57 72.98 218.94 72.98 218.94 79.61 218.94 86.25 218.94 92.88 225.57 92.88 225.57 86.25 225.57 79.61 232.21 79.61 232.21 72.98 232.21 66.35 238.85 66.35 238.85 59.71 245.48 59.71 245.48 66.35 252.11 66.35 258.75 66.35 258.75 59.71 252.11 59.71 252.11 53.07 245.48 53.07 245.48 46.44 238.85 46.44 232.21 46.44"/><rect class="cls-2" x="351.63" y="291.92" width="6.64" height="6.64"/><polygon class="cls-2" points="26.54 285.28 19.9 285.28 19.9 291.92 19.9 298.56 26.54 298.56 26.54 291.92 26.54 285.28"/><polygon class="cls-2" points="345 272.01 338.36 272.01 338.36 278.65 338.36 285.28 345 285.28 345 278.65 345 272.01"/><rect class="cls-2" x="544.04" y="272.01" width="6.63" height="6.64"/><polygon class="cls-2" points="570.57 92.88 577.21 92.88 577.21 86.25 577.21 79.61 570.57 79.61 570.57 86.25 570.57 92.88"/><polygon class="cls-2" points="265.38 86.25 265.38 92.88 265.38 99.52 265.38 106.15 258.75 106.15 252.11 106.15 245.48 106.15 238.85 106.15 238.85 99.52 232.21 99.52 232.21 92.88 225.57 92.88 225.57 99.52 225.57 106.15 232.21 106.15 232.21 112.78 238.85 112.78 245.48 112.78 252.11 112.78 258.75 112.78 265.38 112.78 272.02 112.78 272.02 106.15 272.02 99.52 272.02 92.88 272.02 86.25 272.02 79.61 272.02 72.98 265.38 72.98 265.38 79.61 265.38 86.25"/><polygon class="cls-2" points="331.73 79.61 325.09 79.61 325.09 72.98 318.46 72.98 318.46 79.61 318.46 86.25 325.09 86.25 325.09 92.88 331.73 92.88 331.73 86.25 331.73 79.61"/><polygon class="cls-2" points="563.94 79.61 570.57 79.61 570.57 72.98 570.57 66.35 563.94 66.35 563.94 72.98 563.94 79.61"/><polygon class="cls-2" points="139.33 72.98 139.33 79.61 132.69 79.61 132.69 86.25 132.69 92.88 132.69 99.52 132.69 106.15 139.33 106.15 139.33 99.52 139.33 92.88 139.33 86.25 145.96 86.25 145.96 79.61 145.96 72.98 145.96 66.35 139.33 66.35 139.33 72.98"/><rect class="cls-2" x="258.75" y="66.35" width="6.64" height="6.63"/><polygon class="cls-2" points="318.46 59.71 311.83 59.71 311.83 53.07 305.19 53.07 305.19 46.44 298.56 46.44 298.56 39.8 291.92 39.8 285.28 39.8 285.28 46.44 291.92 46.44 291.92 53.07 298.56 53.07 298.56 59.71 305.19 59.71 305.19 66.35 311.83 66.35 311.83 72.98 318.46 72.98 318.46 66.35 318.46 59.71"/><polygon class="cls-2" points="46.44 59.71 46.44 66.35 53.07 66.35 53.07 72.98 53.07 79.61 59.71 79.61 66.35 79.61 66.35 86.25 72.98 86.25 79.62 86.25 79.62 79.61 86.25 79.61 92.88 79.61 99.52 79.61 99.52 72.98 106.15 72.98 106.15 66.35 106.15 59.71 112.79 59.71 112.79 53.07 112.79 46.44 112.79 39.8 106.15 39.8 106.15 46.44 106.15 53.07 99.52 53.07 99.52 59.71 99.52 66.35 92.88 66.35 92.88 72.98 86.25 72.98 79.62 72.98 72.98 72.98 66.35 72.98 59.71 72.98 59.71 66.35 59.71 59.71 53.07 59.71 53.07 53.07 46.44 53.07 46.44 59.71"/><polygon class="cls-2" points="311.83 358.27 311.83 351.63 318.46 351.63 318.46 344.99 318.46 338.36 318.46 331.73 318.46 325.09 318.46 318.46 318.46 311.82 311.83 311.82 311.83 305.19 305.19 305.19 305.19 311.82 305.19 318.46 311.83 318.46 311.83 325.09 311.83 331.73 311.83 338.36 311.83 344.99 305.19 344.99 305.19 351.63 298.56 351.63 291.92 351.63 291.92 358.27 285.28 358.27 278.65 358.27 278.65 364.9 272.02 364.9 272.02 371.53 265.38 371.53 265.38 378.17 272.02 378.17 278.65 378.17 278.65 371.53 285.28 371.53 285.28 364.9 291.92 364.9 298.56 364.9 298.56 358.27 305.19 358.27 311.83 358.27"/><polygon class="cls-2" points="212.31 325.09 205.67 325.09 199.04 325.09 199.04 318.46 192.4 318.46 192.4 325.09 192.4 331.73 192.4 338.36 199.04 338.36 205.67 338.36 205.67 344.99 205.67 351.63 205.67 358.27 205.67 364.9 205.67 371.53 212.31 371.53 212.31 378.17 212.31 384.8 212.31 391.44 212.31 398.07 212.31 404.7 218.94 404.7 218.94 398.07 218.94 391.44 218.94 384.8 218.94 378.17 218.94 371.53 218.94 364.9 212.31 364.9 212.31 358.27 212.31 351.63 212.31 344.99 212.31 338.36 212.31 331.73 218.94 331.73 218.94 325.09 218.94 318.46 212.31 318.46 212.31 325.09"/><polygon class="cls-2" points="39.81 305.19 39.81 298.56 33.17 298.56 26.54 298.56 26.54 305.19 33.17 305.19 33.17 311.82 39.81 311.82 46.44 311.82 46.44 305.19 39.81 305.19"/><polygon class="cls-2" points="537.4 298.56 537.4 291.92 544.04 291.92 544.04 285.28 544.04 278.65 537.4 278.65 537.4 285.28 530.77 285.28 530.77 291.92 530.77 298.56 530.77 305.19 537.4 305.19 537.4 298.56"/><rect class="cls-2" x="451.15" y="424.61" width="6.64" height="6.64"/><polygon class="cls-2" points="278.65 33.17 272.02 33.17 265.38 33.17 258.75 33.17 258.75 39.8 265.38 39.8 272.02 39.8 278.65 39.8 285.28 39.8 285.28 33.17 278.65 33.17"/><rect class="cls-2" x="252.11" y="411.34" width="6.64" height="6.64"/><rect class="cls-2" x="451.15" y="411.34" width="6.64" height="6.64"/><polygon class="cls-2" points="205.67 411.34 205.67 417.98 205.67 424.61 205.67 431.25 212.31 431.25 212.31 424.61 212.31 417.98 212.31 411.34 212.31 404.7 205.67 404.7 205.67 411.34"/><polygon class="cls-2" points="119.42 33.17 126.06 33.17 126.06 26.54 132.69 26.54 132.69 19.9 139.33 19.9 145.96 19.9 145.96 13.27 152.59 13.27 159.23 13.27 165.86 13.27 172.5 13.27 179.14 13.27 179.14 19.9 185.77 19.9 192.4 19.9 199.04 19.9 205.67 19.9 212.31 19.9 218.94 19.9 218.94 13.27 225.57 13.27 232.21 13.27 232.21 6.63 225.57 6.63 218.94 6.63 212.31 6.63 212.31 13.27 205.67 13.27 199.04 13.27 192.4 13.27 185.77 13.27 185.77 6.63 179.14 6.63 172.5 6.63 165.86 6.63 159.23 6.63 152.59 6.63 145.96 6.63 139.33 6.63 139.33 13.27 132.69 13.27 126.06 13.27 126.06 19.9 119.42 19.9 119.42 26.54 112.79 26.54 112.79 33.17 112.79 39.8 119.42 39.8 119.42 33.17"/><polygon class="cls-2" points="139.33 404.7 139.33 411.34 145.96 411.34 145.96 417.98 152.59 417.98 152.59 424.61 159.23 424.61 159.23 431.25 159.23 437.88 159.23 444.51 152.59 444.51 152.59 437.88 145.96 437.88 139.33 437.88 132.69 437.88 126.06 437.88 126.06 444.51 132.69 444.51 139.33 444.51 145.96 444.51 145.96 451.15 152.59 451.15 152.59 457.79 145.96 457.79 139.33 457.79 132.69 457.79 126.06 457.79 126.06 451.15 126.06 444.51 119.42 444.51 119.42 451.15 119.42 457.79 119.42 464.42 126.06 464.42 132.69 464.42 139.33 464.42 145.96 464.42 152.59 464.42 159.23 464.42 159.23 457.79 165.86 457.79 172.5 457.79 172.5 451.15 165.86 451.15 165.86 444.51 165.86 437.88 165.86 431.25 165.86 424.61 165.86 417.98 159.23 417.98 159.23 411.34 152.59 411.34 152.59 404.7 145.96 404.7 145.96 398.07 139.33 398.07 132.69 398.07 126.06 398.07 126.06 404.7 132.69 404.7 139.33 404.7"/><rect class="cls-2" x="252.11" y="398.07" width="6.64" height="6.63"/><polygon class="cls-2" points="13.27 33.17 19.9 33.17 19.9 26.54 26.54 26.54 33.17 26.54 39.81 26.54 46.44 26.54 46.44 19.9 53.07 19.9 59.71 19.9 66.35 19.9 72.98 19.9 79.62 19.9 79.62 26.54 86.25 26.54 86.25 33.17 86.25 39.8 79.62 39.8 79.62 46.44 72.98 46.44 66.35 46.44 59.71 46.44 53.07 46.44 53.07 53.07 59.71 53.07 66.35 53.07 72.98 53.07 79.62 53.07 86.25 53.07 86.25 46.44 92.88 46.44 92.88 39.8 92.88 33.17 92.88 26.54 92.88 19.9 86.25 19.9 86.25 13.27 79.62 13.27 72.98 13.27 66.35 13.27 59.71 13.27 53.07 13.27 46.44 13.27 39.81 13.27 39.81 19.9 33.17 19.9 26.54 19.9 19.9 19.9 13.27 19.9 13.27 26.54 6.64 26.54 6.64 33.17 6.64 39.8 13.27 39.8 13.27 33.17"/><polygon class="cls-2" points="411.35 404.7 411.35 411.34 417.98 411.34 417.98 417.98 417.98 424.61 417.98 431.25 417.98 437.88 417.98 444.51 417.98 451.15 417.98 457.79 417.98 464.42 417.98 471.05 417.98 477.69 424.61 477.69 424.61 471.05 424.61 464.42 424.61 457.79 424.61 451.15 424.61 444.51 424.61 437.88 424.61 431.25 424.61 424.61 424.61 417.98 424.61 411.34 424.61 404.7 417.98 404.7 417.98 398.07 417.98 391.44 411.35 391.44 411.35 398.07 411.35 404.7"/><polygon class="cls-2" points="583.84 398.07 577.21 398.07 577.21 391.44 570.57 391.44 563.94 391.44 557.3 391.44 557.3 384.8 550.67 384.8 544.04 384.8 537.4 384.8 537.4 391.44 530.77 391.44 524.13 391.44 517.49 391.44 510.86 391.44 510.86 398.07 504.23 398.07 497.59 398.07 497.59 404.7 504.23 404.7 510.86 404.7 517.49 404.7 517.49 398.07 524.13 398.07 530.77 398.07 537.4 398.07 544.04 398.07 544.04 391.44 550.67 391.44 550.67 398.07 557.3 398.07 563.94 398.07 570.57 398.07 570.57 404.7 577.21 404.7 577.21 411.34 583.84 411.34 583.84 417.98 583.84 424.61 577.21 424.61 577.21 431.25 570.57 431.25 570.57 424.61 563.94 424.61 563.94 417.98 557.3 417.98 557.3 411.34 557.3 404.7 550.67 404.7 550.67 398.07 544.04 398.07 544.04 404.7 544.04 411.34 550.67 411.34 550.67 417.98 550.67 424.61 557.3 424.61 557.3 431.25 563.94 431.25 563.94 437.88 570.57 437.88 577.21 437.88 583.84 437.88 583.84 431.25 590.48 431.25 590.48 424.61 590.48 417.98 590.48 411.34 590.48 404.7 583.84 404.7 583.84 398.07"/><polygon class="cls-2" points="497.59 384.8 497.59 378.17 497.59 371.53 497.59 364.9 490.96 364.9 490.96 371.53 490.96 378.17 490.96 384.8 490.96 391.44 490.96 398.07 497.59 398.07 497.59 391.44 497.59 384.8"/><polygon class="cls-2" points="258.75 384.8 258.75 391.44 258.75 398.07 265.38 398.07 265.38 391.44 265.38 384.8 265.38 378.17 258.75 378.17 258.75 384.8"/><polygon class="cls-2" points="245.48 39.8 245.48 46.44 252.11 46.44 258.75 46.44 258.75 39.8 252.11 39.8 245.48 39.8"/><polygon class="cls-2" points="537.4 371.53 537.4 364.9 530.77 364.9 530.77 358.27 530.77 351.63 530.77 344.99 524.13 344.99 524.13 351.63 524.13 358.27 524.13 364.9 524.13 371.53 530.77 371.53 530.77 378.17 530.77 384.8 537.4 384.8 537.4 378.17 537.4 371.53"/><polygon class="cls-2" points="106.15 437.88 106.15 431.25 106.15 424.61 112.79 424.61 112.79 417.98 119.42 417.98 119.42 411.34 126.06 411.34 126.06 404.7 119.42 404.7 112.79 404.7 112.79 411.34 106.15 411.34 106.15 417.98 99.52 417.98 99.52 424.61 99.52 431.25 99.52 437.88 99.52 444.51 106.15 444.51 106.15 437.88"/><polygon class="cls-2" points="464.42 437.88 464.42 431.25 457.78 431.25 457.78 437.88 457.78 444.51 464.42 444.51 471.06 444.51 471.06 437.88 464.42 437.88"/><polygon class="cls-2" points="537.4 39.8 537.4 46.44 544.04 46.44 544.04 53.07 550.67 53.07 550.67 46.44 550.67 39.8 544.04 39.8 544.04 33.17 537.4 33.17 530.77 33.17 530.77 39.8 537.4 39.8"/><polygon class="cls-2" points="199.04 437.88 199.04 444.51 205.67 444.51 205.67 437.88 205.67 431.25 199.04 431.25 199.04 437.88"/><polygon class="cls-2" points="444.52 378.17 444.52 384.8 444.52 391.44 444.52 398.07 444.52 404.7 444.52 411.34 451.15 411.34 451.15 404.7 451.15 398.07 451.15 391.44 451.15 384.8 451.15 378.17 451.15 371.53 444.52 371.53 444.52 378.17"/><rect class="cls-2" x="471.06" y="33.17" width="6.64" height="6.63"/><polygon class="cls-2" points="358.27 583.84 351.63 583.84 345 583.84 345 577.21 338.36 577.21 331.73 577.21 331.73 583.84 338.36 583.84 338.36 590.48 345 590.48 351.63 590.48 358.27 590.48 364.9 590.48 371.54 590.48 371.54 583.84 364.9 583.84 358.27 583.84"/><polygon class="cls-2" points="218.94 590.48 218.94 597.11 212.31 597.11 205.67 597.11 205.67 603.74 199.04 603.74 192.4 603.74 185.77 603.74 179.14 603.74 172.5 603.74 172.5 597.11 165.86 597.11 165.86 590.48 159.23 590.48 159.23 597.11 159.23 603.74 165.86 603.74 165.86 610.38 172.5 610.38 179.14 610.38 185.77 610.38 192.4 610.38 199.04 610.38 205.67 610.38 212.31 610.38 212.31 603.74 218.94 603.74 225.57 603.74 225.57 597.11 232.21 597.11 232.21 590.48 225.57 590.48 218.94 590.48"/><polygon class="cls-2" points="165.86 583.84 165.86 577.21 159.23 577.21 152.59 577.21 152.59 583.84 145.96 583.84 139.33 583.84 132.69 583.84 126.06 583.84 126.06 577.21 119.42 577.21 112.79 577.21 112.79 570.57 112.79 563.94 106.15 563.94 106.15 570.57 106.15 577.21 106.15 583.84 112.79 583.84 119.42 583.84 119.42 590.48 126.06 590.48 132.69 590.48 139.33 590.48 145.96 590.48 152.59 590.48 159.23 590.48 159.23 583.84 165.86 583.84"/><polygon class="cls-2" points="451.15 119.42 444.52 119.42 437.88 119.42 431.25 119.42 424.61 119.42 424.61 126.06 417.98 126.06 417.98 132.69 411.35 132.69 411.35 139.32 417.98 139.32 424.61 139.32 424.61 132.69 431.25 132.69 431.25 126.06 437.88 126.06 444.52 126.06 444.52 132.69 451.15 132.69 451.15 126.06 451.15 119.42"/><polygon class="cls-2" points="145.96 119.42 139.33 119.42 139.33 112.78 132.69 112.78 132.69 119.42 132.69 126.06 139.33 126.06 139.33 132.69 145.96 132.69 145.96 126.06 145.96 119.42"/><polygon class="cls-2" points="544.04 132.69 544.04 139.32 550.67 139.32 550.67 145.96 550.67 152.59 550.67 159.23 550.67 165.86 557.3 165.86 557.3 159.23 557.3 152.59 557.3 145.96 557.3 139.32 557.3 132.69 550.67 132.69 550.67 126.06 550.67 119.42 544.04 119.42 544.04 126.06 544.04 132.69"/><polygon class="cls-2" points="33.17 126.06 26.54 126.06 26.54 132.69 33.17 132.69 39.81 132.69 39.81 126.06 33.17 126.06"/><rect class="cls-2" x="451.15" y="132.69" width="6.64" height="6.63"/><polygon class="cls-2" points="272.02 145.96 272.02 139.32 272.02 132.69 278.65 132.69 278.65 126.06 285.28 126.06 285.28 132.69 291.92 132.69 298.56 132.69 305.19 132.69 311.83 132.69 318.46 132.69 325.09 132.69 331.73 132.69 338.36 132.69 338.36 126.06 345 126.06 345 119.42 345 112.78 345 106.15 338.36 106.15 338.36 99.52 338.36 92.88 331.73 92.88 331.73 99.52 331.73 106.15 331.73 112.78 338.36 112.78 338.36 119.42 331.73 119.42 331.73 126.06 325.09 126.06 318.46 126.06 311.83 126.06 305.19 126.06 298.56 126.06 291.92 126.06 291.92 119.42 285.28 119.42 278.65 119.42 272.02 119.42 272.02 126.06 265.38 126.06 265.38 132.69 265.38 139.32 258.75 139.32 258.75 145.96 258.75 152.59 265.38 152.59 265.38 145.96 272.02 145.96"/><polygon class="cls-2" points="159.23 139.32 159.23 132.69 152.59 132.69 145.96 132.69 145.96 139.32 152.59 139.32 152.59 145.96 159.23 145.96 165.86 145.96 165.86 139.32 159.23 139.32"/><polygon class="cls-2" points="92.88 139.32 92.88 132.69 86.25 132.69 79.62 132.69 72.98 132.69 66.35 132.69 59.71 132.69 53.07 132.69 46.44 132.69 39.81 132.69 39.81 139.32 46.44 139.32 53.07 139.32 59.71 139.32 66.35 139.32 72.98 139.32 79.62 139.32 86.25 139.32 86.25 145.96 92.88 145.96 99.52 145.96 99.52 139.32 92.88 139.32"/><polygon class="cls-2" points="583.84 145.96 583.84 139.32 583.84 132.69 583.84 126.06 583.84 119.42 583.84 112.78 583.84 106.15 583.84 99.52 577.21 99.52 577.21 106.15 577.21 112.78 577.21 119.42 577.21 126.06 577.21 132.69 577.21 139.32 577.21 145.96 577.21 152.59 583.84 152.59 583.84 145.96"/><polygon class="cls-2" points="497.59 152.59 504.23 152.59 504.23 145.96 504.23 139.32 497.59 139.32 497.59 145.96 497.59 152.59"/><polygon class="cls-2" points="457.78 152.59 464.42 152.59 464.42 145.96 464.42 139.32 457.78 139.32 457.78 145.96 457.78 152.59"/><polygon class="cls-2" points="471.06 159.23 464.42 159.23 464.42 165.86 464.42 172.49 471.06 172.49 471.06 165.86 471.06 159.23"/><polygon class="cls-2" points="119.42 159.23 119.42 152.59 112.79 152.59 112.79 145.96 106.15 145.96 99.52 145.96 99.52 152.59 106.15 152.59 106.15 159.23 112.79 159.23 112.79 165.86 119.42 165.86 126.06 165.86 126.06 159.23 119.42 159.23"/><polygon class="cls-2" points="524.13 99.52 517.49 99.52 510.86 99.52 504.23 99.52 504.23 106.15 497.59 106.15 497.59 112.78 490.96 112.78 490.96 119.42 490.96 126.06 490.96 132.69 490.96 139.32 497.59 139.32 497.59 132.69 497.59 126.06 497.59 119.42 504.23 119.42 504.23 112.78 510.86 112.78 510.86 106.15 517.49 106.15 524.13 106.15 530.77 106.15 530.77 99.52 524.13 99.52"/><polygon class="cls-2" points="358.27 165.86 351.63 165.86 345 165.86 345 172.49 351.63 172.49 358.27 172.49 364.9 172.49 364.9 165.86 358.27 165.86"/><polygon class="cls-2" points="232.21 165.86 232.21 159.23 225.57 159.23 218.94 159.23 218.94 152.59 212.31 152.59 205.67 152.59 199.04 152.59 192.4 152.59 192.4 145.96 185.77 145.96 179.14 145.96 172.5 145.96 165.86 145.96 165.86 152.59 172.5 152.59 179.14 152.59 185.77 152.59 185.77 159.23 192.4 159.23 199.04 159.23 205.67 159.23 212.31 159.23 212.31 165.86 218.94 165.86 225.57 165.86 225.57 172.49 232.21 172.49 238.85 172.49 238.85 165.86 232.21 165.86"/><polygon class="cls-2" points="583.84 172.49 583.84 165.86 583.84 159.23 577.21 159.23 577.21 165.86 577.21 172.49 577.21 179.13 583.84 179.13 583.84 172.49"/><rect class="cls-2" x="504.23" y="172.49" width="6.64" height="6.64"/><polygon class="cls-2" points="417.98 172.49 417.98 165.86 417.98 159.23 417.98 152.59 417.98 145.96 411.35 145.96 411.35 152.59 411.35 159.23 411.35 165.86 411.35 172.49 411.35 179.13 411.35 185.77 417.98 185.77 417.98 179.13 417.98 172.49"/><polygon class="cls-2" points="338.36 179.13 331.73 179.13 331.73 185.77 331.73 192.4 331.73 199.04 338.36 199.04 338.36 192.4 338.36 185.77 345 185.77 345 179.13 345 172.49 338.36 172.49 338.36 179.13"/><rect class="cls-2" x="570.57" y="179.13" width="6.64" height="6.64"/><polygon class="cls-2" points="557.3 179.13 557.3 172.49 550.67 172.49 550.67 179.13 550.67 185.77 557.3 185.77 557.3 179.13"/><polygon class="cls-2" points="477.69 179.13 477.69 172.49 471.06 172.49 471.06 179.13 471.06 185.77 471.06 192.4 477.69 192.4 477.69 185.77 477.69 179.13"/><polygon class="cls-2" points="364.9 185.77 364.9 192.4 364.9 199.04 371.54 199.04 371.54 192.4 371.54 185.77 371.54 179.13 371.54 172.49 364.9 172.49 364.9 179.13 364.9 185.77"/><rect class="cls-2" x="544.04" y="185.77" width="6.63" height="6.64"/><polygon class="cls-2" points="305.19 185.77 298.56 185.77 291.92 185.77 291.92 179.13 285.28 179.13 285.28 172.49 278.65 172.49 278.65 165.86 272.02 165.86 272.02 159.23 272.02 152.59 265.38 152.59 265.38 159.23 265.38 165.86 265.38 172.49 272.02 172.49 272.02 179.13 278.65 179.13 278.65 185.77 285.28 185.77 285.28 192.4 291.92 192.4 298.56 192.4 298.56 199.04 305.19 199.04 305.19 192.4 305.19 185.77"/><polygon class="cls-2" points="524.13 192.4 524.13 185.77 517.49 185.77 517.49 179.13 510.86 179.13 510.86 185.77 510.86 192.4 517.49 192.4 517.49 199.04 524.13 199.04 530.77 199.04 530.77 192.4 524.13 192.4"/><polygon class="cls-2" points="417.98 199.04 424.61 199.04 424.61 192.4 424.61 185.77 417.98 185.77 417.98 192.4 417.98 199.04"/><polygon class="cls-2" points="66.35 199.04 66.35 192.4 59.71 192.4 53.07 192.4 53.07 199.04 59.71 199.04 66.35 199.04"/><rect class="cls-2" x="424.61" y="199.04" width="6.64" height="6.63"/><polygon class="cls-2" points="72.98 205.67 79.62 205.67 79.62 199.04 72.98 199.04 66.35 199.04 66.35 205.67 72.98 205.67"/><polygon class="cls-2" points="53.07 205.67 53.07 199.04 46.44 199.04 39.81 199.04 39.81 205.67 46.44 205.67 53.07 205.67"/><polygon class="cls-2" points="537.4 212.3 537.4 205.67 544.04 205.67 550.67 205.67 557.3 205.67 557.3 199.04 563.94 199.04 563.94 192.4 557.3 192.4 550.67 192.4 550.67 199.04 544.04 199.04 544.04 192.4 537.4 192.4 537.4 199.04 530.77 199.04 530.77 205.67 524.13 205.67 524.13 212.3 530.77 212.3 537.4 212.3"/><polygon class="cls-2" points="490.96 205.67 490.96 199.04 484.32 199.04 484.32 192.4 477.69 192.4 477.69 199.04 477.69 205.67 484.32 205.67 484.32 212.3 490.96 212.3 497.59 212.3 497.59 205.67 490.96 205.67"/><rect class="cls-2" x="331.73" y="205.67" width="6.64" height="6.64"/><rect class="cls-2" x="530.77" y="106.15" width="6.64" height="6.64"/><polygon class="cls-2" points="504.23 218.94 510.86 218.94 517.49 218.94 524.13 218.94 524.13 212.3 517.49 212.3 510.86 212.3 504.23 212.3 497.59 212.3 497.59 218.94 504.23 218.94"/><polygon class="cls-2" points="431.25 212.3 424.61 212.3 424.61 218.94 424.61 225.57 431.25 225.57 431.25 218.94 431.25 212.3"/><polygon class="cls-2" points="79.62 218.94 86.25 218.94 92.88 218.94 99.52 218.94 106.15 218.94 112.79 218.94 119.42 218.94 126.06 218.94 132.69 218.94 132.69 212.3 139.33 212.3 139.33 205.67 139.33 199.04 139.33 192.4 139.33 185.77 139.33 179.13 139.33 172.49 132.69 172.49 132.69 165.86 126.06 165.86 126.06 172.49 126.06 179.13 132.69 179.13 132.69 185.77 132.69 192.4 132.69 199.04 132.69 205.67 126.06 205.67 126.06 212.3 119.42 212.3 112.79 212.3 106.15 212.3 99.52 212.3 92.88 212.3 86.25 212.3 86.25 205.67 79.62 205.67 79.62 212.3 79.62 218.94"/><polygon class="cls-2" points="331.73 225.57 331.73 232.21 331.73 238.84 331.73 245.48 331.73 252.11 338.36 252.11 338.36 245.48 338.36 238.84 338.36 232.21 338.36 225.57 338.36 218.94 331.73 218.94 331.73 225.57"/><polygon class="cls-2" points="258.75 218.94 258.75 212.3 258.75 205.67 258.75 199.04 258.75 192.4 258.75 185.77 252.11 185.77 252.11 179.13 245.48 179.13 245.48 172.49 238.85 172.49 238.85 179.13 238.85 185.77 245.48 185.77 245.48 192.4 252.11 192.4 252.11 199.04 252.11 205.67 252.11 212.3 252.11 218.94 252.11 225.57 258.75 225.57 258.75 218.94"/><rect class="cls-2" x="26.54" y="218.94" width="6.64" height="6.64"/><rect class="cls-2" x="431.25" y="225.57" width="6.64" height="6.64"/><polygon class="cls-2" points="311.83 225.57 311.83 218.94 311.83 212.3 311.83 205.67 311.83 199.04 305.19 199.04 305.19 205.67 305.19 212.3 305.19 218.94 305.19 225.57 305.19 232.21 311.83 232.21 311.83 225.57"/><polygon class="cls-2" points="252.11 232.21 252.11 225.57 245.48 225.57 245.48 232.21 245.48 238.84 252.11 238.84 252.11 232.21"/><polygon class="cls-2" points="26.54 232.21 26.54 225.57 19.9 225.57 19.9 232.21 19.9 238.84 26.54 238.84 26.54 232.21"/><polygon class="cls-2" points="437.88 245.48 437.88 238.84 431.25 238.84 431.25 245.48 431.25 252.11 437.88 252.11 437.88 245.48"/><polygon class="cls-2" points="278.65 252.11 285.28 252.11 291.92 252.11 298.56 252.11 298.56 245.48 305.19 245.48 305.19 238.84 305.19 232.21 298.56 232.21 298.56 238.84 291.92 238.84 291.92 245.48 285.28 245.48 278.65 245.48 272.02 245.48 265.38 245.48 265.38 252.11 272.02 252.11 278.65 252.11"/><path class="cls-2" d="M245.72,246v-6.64H232.45v-6.63h-6.63v-6.64h-6.64v-6.63H205.91V212.8H172.74v6.64h-6.63v39.81h6.63v6.63h6.64v6.63h46.44v-6.63h6.63v33.18h6.64V252.61h6.63Zm-13.27,6.63h-6.63v6.64h-6.64v6.63H186v-6.63h-6.63v-6.64h-6.64V226.07h6.64v-6.63h19.9v6.63h13.27v6.64h6.63v6.63h6.64V246h6.63Z" transform="translate(-0.24 -0.5)"/><rect class="cls-2" x="537.4" y="112.78" width="6.64" height="6.64"/><polygon class="cls-2" points="398.07 252.11 391.44 252.11 391.44 245.48 384.8 245.48 384.8 238.84 378.17 238.84 378.17 232.21 378.17 225.57 378.17 218.94 378.17 212.3 378.17 205.67 371.54 205.67 371.54 212.3 371.54 218.94 371.54 225.57 371.54 232.21 371.54 238.84 371.54 245.48 378.17 245.48 378.17 252.11 384.8 252.11 384.8 258.75 391.44 258.75 398.07 258.75 404.71 258.75 404.71 252.11 398.07 252.11"/><polygon class="cls-2" points="570.57 265.38 570.57 272.01 577.21 272.01 577.21 278.65 577.21 285.28 577.21 291.92 577.21 298.56 577.21 305.19 577.21 311.82 577.21 318.46 570.57 318.46 570.57 325.09 570.57 331.73 577.21 331.73 577.21 325.09 583.84 325.09 583.84 318.46 583.84 311.82 583.84 305.19 583.84 298.56 583.84 291.92 583.84 285.28 583.84 278.65 583.84 272.01 583.84 265.38 577.21 265.38 577.21 258.75 570.57 258.75 563.94 258.75 557.3 258.75 557.3 265.38 563.94 265.38 570.57 265.38"/><polygon class="cls-2" points="411.35 265.38 417.98 265.38 424.61 265.38 424.61 258.75 431.25 258.75 431.25 252.11 424.61 252.11 417.98 252.11 417.98 258.75 411.35 258.75 404.71 258.75 404.71 265.38 411.35 265.38"/><rect class="cls-2" x="550.67" y="265.38" width="6.64" height="6.63"/><polygon class="cls-2" points="26.54 112.78 19.9 112.78 19.9 106.15 19.9 99.52 13.27 99.52 13.27 106.15 13.27 112.78 13.27 119.42 19.9 119.42 19.9 126.06 26.54 126.06 26.54 119.42 26.54 112.78"/><polygon class="cls-2" points="497.59 159.23 497.59 165.86 504.23 165.86 510.86 165.86 510.86 159.23 504.23 159.23 497.59 159.23"/><rect class="cls-2" x="563.94" y="185.77" width="6.64" height="6.64"/><rect class="cls-2" x="338.36" y="258.75" width="6.64" height="6.64"/><polygon class="cls-2" points="39.81 212.3 39.81 205.67 33.17 205.67 33.17 212.3 33.17 218.94 39.81 218.94 39.81 212.3"/><polygon class="cls-2" points="13.27 86.25 6.64 86.25 6.64 92.88 6.64 99.52 13.27 99.52 13.27 92.88 13.27 86.25"/><rect class="cls-2" x="771.87" y="570.57" width="6.64" height="6.64"/><rect class="cls-2" x="864.75" y="484.32" width="6.64" height="6.64"/><polygon class="cls-2" points="984.18 577.21 977.54 577.21 977.54 583.84 984.18 583.84 990.81 583.84 990.81 577.21 990.81 570.57 984.18 570.57 984.18 577.21"/><polygon class="cls-2" points="1176.58 490.96 1169.94 490.96 1169.94 497.59 1169.94 504.22 1176.58 504.22 1176.58 510.86 1176.58 517.5 1169.94 517.5 1169.94 524.13 1169.94 530.77 1176.58 530.77 1176.58 524.13 1183.21 524.13 1183.21 517.5 1183.21 510.86 1183.21 504.22 1183.21 497.59 1176.58 497.59 1176.58 490.96"/><polygon class="cls-2" points="1123.5 570.57 1116.87 570.57 1110.23 570.57 1103.6 570.57 1096.96 570.57 1090.32 570.57 1090.32 563.94 1083.69 563.94 1083.69 557.3 1090.32 557.3 1090.32 550.67 1096.96 550.67 1096.96 544.03 1090.32 544.03 1083.69 544.03 1077.06 544.03 1077.06 537.4 1077.06 530.77 1077.06 524.13 1077.06 517.5 1070.42 517.5 1070.42 524.13 1070.42 530.77 1070.42 537.4 1063.79 537.4 1057.15 537.4 1057.15 530.77 1050.52 530.77 1050.52 524.13 1043.89 524.13 1043.89 517.5 1037.25 517.5 1037.25 524.13 1037.25 530.77 1043.89 530.77 1043.89 537.4 1050.52 537.4 1050.52 544.03 1057.15 544.03 1063.79 544.03 1063.79 550.67 1070.42 550.67 1070.42 557.3 1077.06 557.3 1077.06 563.94 1077.06 570.57 1083.69 570.57 1083.69 577.21 1090.32 577.21 1096.96 577.21 1103.6 577.21 1110.23 577.21 1116.87 577.21 1123.5 577.21 1130.13 577.21 1136.77 577.21 1136.77 570.57 1130.13 570.57 1123.5 570.57"/><polygon class="cls-2" points="758.6 563.94 765.23 563.94 765.23 557.3 765.23 550.67 771.87 550.67 771.87 544.03 778.5 544.03 785.14 544.03 785.14 550.67 785.14 557.3 785.14 563.94 791.77 563.94 791.77 557.3 791.77 550.67 791.77 544.03 791.77 537.4 785.14 537.4 778.5 537.4 771.87 537.4 765.23 537.4 765.23 544.03 758.6 544.03 758.6 550.67 758.6 557.3 751.97 557.3 751.97 563.94 751.97 570.57 751.97 577.21 758.6 577.21 758.6 570.57 758.6 563.94"/><rect class="cls-2" x="778.5" y="563.94" width="6.64" height="6.63"/><polygon class="cls-2" points="897.92 530.77 891.29 530.77 884.66 530.77 884.66 537.4 891.29 537.4 891.29 544.03 897.92 544.03 897.92 537.4 897.92 530.77"/><polygon class="cls-2" points="1136.77 563.94 1136.77 570.57 1143.4 570.57 1150.04 570.57 1150.04 563.94 1143.4 563.94 1136.77 563.94"/><polygon class="cls-2" points="632.54 557.3 632.54 550.67 632.54 544.03 632.54 537.4 632.54 530.77 632.54 524.13 639.18 524.13 639.18 517.5 639.18 510.86 639.18 504.22 632.54 504.22 632.54 510.86 632.54 517.5 625.9 517.5 625.9 524.13 625.9 530.77 625.9 537.4 625.9 544.03 625.9 550.67 625.9 557.3 625.9 563.94 625.9 570.57 632.54 570.57 632.54 563.94 632.54 557.3"/><polygon class="cls-2" points="712.16 550.67 712.16 544.03 712.16 537.4 705.52 537.4 705.52 530.77 698.89 530.77 698.89 524.13 692.25 524.13 685.62 524.13 685.62 530.77 678.98 530.77 678.98 537.4 672.35 537.4 672.35 544.03 672.35 550.67 665.71 550.67 665.71 557.3 665.71 563.94 665.71 570.57 659.08 570.57 652.45 570.57 652.45 577.21 645.81 577.21 639.18 577.21 639.18 570.57 632.54 570.57 632.54 577.21 632.54 583.84 639.18 583.84 645.81 583.84 652.45 583.84 659.08 583.84 659.08 577.21 665.71 577.21 672.35 577.21 672.35 570.57 672.35 563.94 672.35 557.3 678.98 557.3 678.98 550.67 678.98 544.03 685.62 544.03 685.62 537.4 692.25 537.4 698.89 537.4 698.89 544.03 705.52 544.03 705.52 550.67 705.52 557.3 705.52 563.94 712.16 563.94 712.16 557.3 712.16 550.67"/><polygon class="cls-2" points="838.21 557.3 838.21 563.94 838.21 570.57 838.21 577.21 838.21 583.84 838.21 590.48 844.85 590.48 844.85 583.84 844.85 577.21 844.85 570.57 844.85 563.94 844.85 557.3 844.85 550.67 844.85 544.03 838.21 544.03 838.21 550.67 838.21 557.3"/><rect class="cls-2" x="897.92" y="544.03" width="6.64" height="6.64"/><rect class="cls-2" x="1156.67" y="544.03" width="6.64" height="6.64"/><polygon class="cls-2" points="990.81 544.03 990.81 550.67 990.81 557.3 990.81 563.94 990.81 570.57 997.44 570.57 997.44 563.94 997.44 557.3 997.44 550.67 997.44 544.03 997.44 537.4 990.81 537.4 990.81 544.03"/><polygon class="cls-2" points="1163.31 537.4 1163.31 544.03 1169.94 544.03 1169.94 537.4 1169.94 530.77 1163.31 530.77 1163.31 537.4"/><polygon class="cls-2" points="884.66 517.5 878.02 517.5 878.02 524.13 878.02 530.77 884.66 530.77 884.66 524.13 884.66 517.5"/><polygon class="cls-2" points="818.31 517.5 824.94 517.5 824.94 524.13 831.58 524.13 831.58 530.77 831.58 537.4 831.58 544.03 838.21 544.03 838.21 537.4 838.21 530.77 838.21 524.13 838.21 517.5 831.58 517.5 831.58 510.86 824.94 510.86 824.94 504.22 818.31 504.22 818.31 510.86 818.31 517.5"/><polygon class="cls-2" points="1083.69 510.86 1083.69 504.22 1090.32 504.22 1090.32 497.59 1096.96 497.59 1096.96 504.22 1103.6 504.22 1103.6 510.86 1103.6 517.5 1103.6 524.13 1103.6 530.77 1096.96 530.77 1096.96 537.4 1096.96 544.03 1103.6 544.03 1103.6 537.4 1110.23 537.4 1110.23 530.77 1110.23 524.13 1110.23 517.5 1110.23 510.86 1110.23 504.22 1110.23 497.59 1103.6 497.59 1103.6 490.96 1096.96 490.96 1090.32 490.96 1083.69 490.96 1083.69 497.59 1077.06 497.59 1077.06 504.22 1077.06 510.86 1077.06 517.5 1083.69 517.5 1083.69 510.86"/><polygon class="cls-2" points="738.69 504.22 732.06 504.22 725.42 504.22 725.42 497.59 718.79 497.59 718.79 490.96 712.16 490.96 712.16 484.32 712.16 477.69 712.16 471.05 712.16 464.42 705.52 464.42 705.52 471.05 705.52 477.69 705.52 484.32 705.52 490.96 705.52 497.59 712.16 497.59 712.16 504.22 718.79 504.22 718.79 510.86 725.42 510.86 732.06 510.86 738.69 510.86 745.33 510.86 751.97 510.86 751.97 504.22 745.33 504.22 738.69 504.22"/><polygon class="cls-2" points="878.02 504.22 871.39 504.22 871.39 510.86 871.39 517.5 878.02 517.5 878.02 510.86 878.02 504.22"/><polygon class="cls-2" points="1037.25 504.22 1037.25 497.59 1037.25 490.96 1037.25 484.32 1030.61 484.32 1023.98 484.32 1023.98 490.96 1030.61 490.96 1030.61 497.59 1030.61 504.22 1030.61 510.86 1030.61 517.5 1037.25 517.5 1037.25 510.86 1037.25 504.22"/><polygon class="cls-2" points="751.97 497.59 751.97 504.22 758.6 504.22 765.23 504.22 765.23 497.59 758.6 497.59 751.97 497.59"/><rect class="cls-2" x="864.75" y="497.59" width="6.64" height="6.63"/><polygon class="cls-2" points="765.23 490.96 765.23 497.59 771.87 497.59 778.5 497.59 778.5 490.96 771.87 490.96 765.23 490.96"/><polygon class="cls-2" points="1169.94 477.69 1163.31 477.69 1163.31 471.05 1156.67 471.05 1156.67 464.42 1150.04 464.42 1150.04 457.79 1143.4 457.79 1136.77 457.79 1130.13 457.79 1123.5 457.79 1116.87 457.79 1110.23 457.79 1110.23 451.15 1103.6 451.15 1096.96 451.15 1096.96 444.51 1090.32 444.51 1083.69 444.51 1077.06 444.51 1077.06 451.15 1083.69 451.15 1090.32 451.15 1090.32 457.79 1096.96 457.79 1103.6 457.79 1103.6 464.42 1110.23 464.42 1116.87 464.42 1123.5 464.42 1130.13 464.42 1136.77 464.42 1143.4 464.42 1143.4 471.05 1150.04 471.05 1150.04 477.69 1156.67 477.69 1156.67 484.32 1163.31 484.32 1163.31 490.96 1169.94 490.96 1169.94 484.32 1169.94 477.69"/><rect class="cls-2" x="931.1" y="570.57" width="6.64" height="6.64"/><polygon class="cls-2" points="970.9 471.05 970.9 477.69 970.9 484.32 977.54 484.32 977.54 490.96 977.54 497.59 977.54 504.22 977.54 510.86 984.18 510.86 984.18 504.22 984.18 497.59 984.18 490.96 984.18 484.32 984.18 477.69 977.54 477.69 977.54 471.05 977.54 464.42 977.54 457.79 970.9 457.79 970.9 464.42 970.9 471.05"/><polygon class="cls-2" points="645.81 497.59 652.45 497.59 652.45 490.96 659.08 490.96 659.08 484.32 659.08 477.69 665.71 477.69 665.71 471.05 665.71 464.42 665.71 457.79 665.71 451.15 665.71 444.51 665.71 437.88 665.71 431.25 665.71 424.61 665.71 417.98 665.71 411.34 665.71 404.7 659.08 404.7 659.08 411.34 659.08 417.98 659.08 424.61 659.08 431.25 659.08 437.88 659.08 444.51 659.08 451.15 659.08 457.79 659.08 464.42 659.08 471.05 652.45 471.05 652.45 477.69 652.45 484.32 645.81 484.32 645.81 490.96 639.18 490.96 639.18 497.59 639.18 504.22 645.81 504.22 645.81 497.59"/><rect class="cls-2" x="911.19" y="550.67" width="6.64" height="6.64"/><polygon class="cls-2" points="805.04 490.96 811.68 490.96 811.68 497.59 811.68 504.22 818.31 504.22 818.31 497.59 818.31 490.96 818.31 484.32 811.68 484.32 811.68 477.69 805.04 477.69 805.04 484.32 805.04 490.96"/><rect class="cls-2" x="858.11" y="477.69" width="6.64" height="6.64"/><polygon class="cls-2" points="778.5 484.32 778.5 490.96 785.14 490.96 785.14 484.32 785.14 477.69 778.5 477.69 778.5 484.32"/><polygon class="cls-2" points="1150.04 557.3 1150.04 563.94 1156.67 563.94 1156.67 557.3 1156.67 550.67 1150.04 550.67 1150.04 557.3"/><polygon class="cls-2" points="924.46 563.94 924.46 557.3 917.83 557.3 917.83 563.94 917.83 570.57 924.46 570.57 931.1 570.57 931.1 563.94 924.46 563.94"/><rect class="cls-2" x="798.4" y="471.05" width="6.64" height="6.64"/><polygon class="cls-2" points="990.81 524.13 990.81 517.5 984.18 517.5 984.18 524.13 984.18 530.77 984.18 537.4 990.81 537.4 990.81 530.77 990.81 524.13"/><polygon class="cls-2" points="612.64 72.98 612.64 66.35 612.64 59.71 612.64 53.07 612.64 46.44 612.64 39.8 606 39.8 606 46.44 606 53.07 606 59.71 606 66.35 606 72.98 606 79.61 606 86.25 612.64 86.25 612.64 79.61 612.64 72.98"/><polygon class="cls-2" points="951 59.71 951 53.07 951 46.44 951 39.8 951 33.17 951 26.54 951 19.9 957.63 19.9 957.63 13.27 957.63 6.63 964.27 6.63 964.27 0 957.63 0 951 0 951 6.63 951 13.27 944.37 13.27 944.37 19.9 944.37 26.54 944.37 33.17 944.37 39.8 944.37 46.44 944.37 53.07 944.37 59.71 944.37 66.35 951 66.35 951 59.71"/><rect class="cls-2" x="1163.31" y="59.71" width="6.64" height="6.64"/><rect class="cls-2" x="964.27" y="298.56" width="6.64" height="6.63"/><rect class="cls-2" x="951" y="285.28" width="6.63" height="6.64"/><polygon class="cls-2" points="625.9 272.01 625.9 265.38 625.9 258.75 625.9 252.11 625.9 245.48 625.9 238.84 619.27 238.84 619.27 245.48 619.27 252.11 619.27 258.75 619.27 265.38 619.27 272.01 619.27 278.65 619.27 285.28 625.9 285.28 625.9 278.65 625.9 272.01"/><polygon class="cls-2" points="1030.61 26.54 1030.61 33.17 1037.25 33.17 1037.25 26.54 1037.25 19.9 1030.61 19.9 1023.98 19.9 1023.98 26.54 1030.61 26.54"/><polygon class="cls-2" points="951 79.61 957.63 79.61 957.63 86.25 964.27 86.25 970.9 86.25 970.9 92.88 977.54 92.88 984.18 92.88 984.18 86.25 990.81 86.25 990.81 79.61 997.44 79.61 997.44 72.98 997.44 66.35 997.44 59.71 997.44 53.07 997.44 46.44 997.44 39.8 997.44 33.17 997.44 26.54 1004.08 26.54 1004.08 19.9 1010.71 19.9 1017.35 19.9 1023.98 19.9 1023.98 13.27 1017.35 13.27 1010.71 13.27 1004.08 13.27 997.44 13.27 997.44 19.9 990.81 19.9 990.81 26.54 990.81 33.17 990.81 39.8 990.81 46.44 990.81 53.07 990.81 59.71 990.81 66.35 990.81 72.98 984.18 72.98 984.18 79.61 977.54 79.61 970.9 79.61 964.27 79.61 964.27 72.98 957.63 72.98 957.63 66.35 951 66.35 951 72.98 951 79.61"/><polygon class="cls-2" points="1037.25 72.98 1037.25 66.35 1037.25 59.71 1037.25 53.07 1030.61 53.07 1030.61 59.71 1030.61 66.35 1030.61 72.98 1030.61 79.61 1030.61 86.25 1030.61 92.88 1037.25 92.88 1043.89 92.88 1050.52 92.88 1057.15 92.88 1063.79 92.88 1063.79 86.25 1070.42 86.25 1070.42 79.61 1070.42 72.98 1070.42 66.35 1070.42 59.71 1077.06 59.71 1077.06 53.07 1077.06 46.44 1077.06 39.8 1070.42 39.8 1070.42 46.44 1070.42 53.07 1063.79 53.07 1063.79 59.71 1063.79 66.35 1063.79 72.98 1063.79 79.61 1057.15 79.61 1057.15 86.25 1050.52 86.25 1043.89 86.25 1037.25 86.25 1037.25 79.61 1037.25 72.98"/><polygon class="cls-2" points="1130.13 33.17 1136.77 33.17 1136.77 26.54 1130.13 26.54 1123.5 26.54 1123.5 33.17 1130.13 33.17"/><polygon class="cls-2" points="1096.96 33.17 1103.6 33.17 1103.6 26.54 1110.23 26.54 1116.87 26.54 1123.5 26.54 1123.5 19.9 1116.87 19.9 1110.23 19.9 1103.6 19.9 1096.96 19.9 1096.96 26.54 1090.32 26.54 1083.69 26.54 1083.69 33.17 1090.32 33.17 1096.96 33.17"/><polygon class="cls-2" points="705.52 451.15 705.52 444.51 698.89 444.51 698.89 451.15 698.89 457.79 698.89 464.42 705.52 464.42 705.52 457.79 705.52 451.15"/><polygon class="cls-2" points="858.11 457.79 858.11 464.42 858.11 471.05 864.75 471.05 864.75 464.42 864.75 457.79 864.75 451.15 858.11 451.15 858.11 457.79"/><rect class="cls-2" x="1156.67" y="53.07" width="6.64" height="6.64"/><polygon class="cls-2" points="798.4 451.15 791.77 451.15 791.77 457.79 785.14 457.79 778.5 457.79 778.5 464.42 785.14 464.42 785.14 471.05 785.14 477.69 791.77 477.69 791.77 471.05 798.4 471.05 798.4 464.42 798.4 457.79 805.04 457.79 805.04 451.15 805.04 444.51 798.4 444.51 798.4 451.15"/><polygon class="cls-2" points="858.11 437.88 858.11 431.25 851.48 431.25 851.48 437.88 851.48 444.51 858.11 444.51 858.11 437.88"/><rect class="cls-2" x="851.48" y="417.98" width="6.63" height="6.64"/><polygon class="cls-2" points="652.45 398.07 645.81 398.07 639.18 398.07 639.18 391.44 632.54 391.44 625.9 391.44 625.9 384.8 619.27 384.8 619.27 378.17 619.27 371.53 619.27 364.9 619.27 358.27 619.27 351.63 612.64 351.63 612.64 358.27 612.64 364.9 612.64 371.53 612.64 378.17 612.64 384.8 612.64 391.44 619.27 391.44 619.27 398.07 625.9 398.07 632.54 398.07 632.54 404.7 639.18 404.7 645.81 404.7 652.45 404.7 659.08 404.7 659.08 398.07 652.45 398.07"/><polygon class="cls-2" points="1017.35 378.17 1010.71 378.17 1010.71 371.53 1004.08 371.53 997.44 371.53 990.81 371.53 984.18 371.53 977.54 371.53 970.9 371.53 964.27 371.53 957.63 371.53 957.63 378.17 957.63 384.8 957.63 391.44 957.63 398.07 957.63 404.7 957.63 411.34 957.63 417.98 957.63 424.61 957.63 431.25 964.27 431.25 964.27 437.88 964.27 444.51 964.27 451.15 964.27 457.79 970.9 457.79 970.9 451.15 970.9 444.51 970.9 437.88 970.9 431.25 970.9 424.61 964.27 424.61 964.27 417.98 964.27 411.34 964.27 404.7 964.27 398.07 964.27 391.44 964.27 384.8 964.27 378.17 970.9 378.17 977.54 378.17 984.18 378.17 990.81 378.17 997.44 378.17 1004.08 378.17 1004.08 384.8 1010.71 384.8 1010.71 391.44 1017.35 391.44 1017.35 384.8 1017.35 378.17"/><polygon class="cls-2" points="1057.15 364.9 1057.15 371.53 1063.79 371.53 1063.79 364.9 1063.79 358.27 1057.15 358.27 1057.15 364.9"/><polygon class="cls-2" points="1096.96 351.63 1090.32 351.63 1083.69 351.63 1077.06 351.63 1070.42 351.63 1063.79 351.63 1063.79 358.27 1070.42 358.27 1077.06 358.27 1083.69 358.27 1090.32 358.27 1090.32 364.9 1096.96 364.9 1096.96 358.27 1096.96 351.63"/><polygon class="cls-2" points="625.9 344.99 632.54 344.99 639.18 344.99 645.81 344.99 652.45 344.99 652.45 338.36 645.81 338.36 639.18 338.36 632.54 338.36 625.9 338.36 619.27 338.36 619.27 344.99 619.27 351.63 625.9 351.63 625.9 344.99"/><polygon class="cls-2" points="659.08 351.63 659.08 358.27 665.71 358.27 672.35 358.27 678.98 358.27 685.62 358.27 685.62 351.63 685.62 344.99 685.62 338.36 678.98 338.36 678.98 331.73 672.35 331.73 672.35 325.09 665.71 325.09 665.71 318.46 659.08 318.46 659.08 325.09 659.08 331.73 665.71 331.73 665.71 338.36 672.35 338.36 672.35 344.99 678.98 344.99 678.98 351.63 672.35 351.63 665.71 351.63 665.71 344.99 659.08 344.99 652.45 344.99 652.45 351.63 659.08 351.63"/><polygon class="cls-2" points="1043.89 46.44 1043.89 39.8 1037.25 39.8 1037.25 46.44 1037.25 53.07 1043.89 53.07 1043.89 46.44"/><polygon class="cls-2" points="718.79 344.99 712.16 344.99 712.16 351.63 718.79 351.63 725.42 351.63 725.42 344.99 718.79 344.99"/><polygon class="cls-2" points="705.52 338.36 705.52 331.73 698.89 331.73 698.89 325.09 692.25 325.09 685.62 325.09 685.62 331.73 692.25 331.73 692.25 338.36 698.89 338.36 698.89 344.99 705.52 344.99 712.16 344.99 712.16 338.36 705.52 338.36"/><polygon class="cls-2" points="785.14 338.36 778.5 338.36 778.5 344.99 771.87 344.99 765.23 344.99 765.23 351.63 758.6 351.63 751.97 351.63 745.33 351.63 738.69 351.63 732.06 351.63 725.42 351.63 725.42 358.27 732.06 358.27 738.69 358.27 745.33 358.27 751.97 358.27 758.6 358.27 765.23 358.27 771.87 358.27 771.87 351.63 778.5 351.63 785.14 351.63 785.14 344.99 791.77 344.99 798.4 344.99 798.4 338.36 791.77 338.36 785.14 338.36"/><polygon class="cls-2" points="1130.13 331.73 1130.13 325.09 1136.77 325.09 1136.77 318.46 1136.77 311.82 1136.77 305.19 1130.13 305.19 1130.13 298.56 1123.5 298.56 1123.5 291.92 1123.5 285.28 1123.5 278.65 1116.87 278.65 1116.87 272.01 1110.23 272.01 1103.6 272.01 1096.96 272.01 1090.32 272.01 1083.69 272.01 1077.06 272.01 1077.06 278.65 1070.42 278.65 1070.42 285.28 1063.79 285.28 1063.79 291.92 1057.15 291.92 1057.15 298.56 1063.79 298.56 1070.42 298.56 1070.42 291.92 1077.06 291.92 1077.06 285.28 1083.69 285.28 1083.69 278.65 1090.32 278.65 1096.96 278.65 1103.6 278.65 1110.23 278.65 1110.23 285.28 1116.87 285.28 1116.87 291.92 1116.87 298.56 1116.87 305.19 1123.5 305.19 1123.5 311.82 1130.13 311.82 1130.13 318.46 1123.5 318.46 1123.5 325.09 1123.5 331.73 1123.5 338.36 1123.5 344.99 1130.13 344.99 1130.13 338.36 1130.13 331.73"/><polygon class="cls-2" points="1169.94 338.36 1163.31 338.36 1156.67 338.36 1156.67 331.73 1150.04 331.73 1143.4 331.73 1143.4 338.36 1150.04 338.36 1150.04 344.99 1156.67 344.99 1163.31 344.99 1169.94 344.99 1176.58 344.99 1176.58 338.36 1176.58 331.73 1169.94 331.73 1169.94 338.36"/><rect class="cls-2" x="1136.77" y="325.09" width="6.64" height="6.64"/><rect class="cls-2" x="652.45" y="311.82" width="6.63" height="6.64"/><polygon class="cls-2" points="685.62 311.82 678.98 311.82 678.98 305.19 678.98 298.56 685.62 298.56 685.62 291.92 692.25 291.92 698.89 291.92 705.52 291.92 712.16 291.92 718.79 291.92 725.42 291.92 732.06 291.92 738.69 291.92 738.69 298.56 745.33 298.56 751.97 298.56 758.6 298.56 758.6 291.92 751.97 291.92 745.33 291.92 745.33 285.28 738.69 285.28 732.06 285.28 725.42 285.28 718.79 285.28 712.16 285.28 705.52 285.28 698.89 285.28 692.25 285.28 685.62 285.28 678.98 285.28 678.98 291.92 672.35 291.92 672.35 298.56 672.35 305.19 672.35 311.82 672.35 318.46 678.98 318.46 678.98 325.09 685.62 325.09 685.62 318.46 685.62 311.82"/><polygon class="cls-2" points="990.81 318.46 997.44 318.46 997.44 311.82 990.81 311.82 984.18 311.82 984.18 318.46 990.81 318.46"/><polygon class="cls-2" points="1023.98 311.82 1017.35 311.82 1010.71 311.82 1004.08 311.82 1004.08 318.46 1010.71 318.46 1017.35 318.46 1023.98 318.46 1030.61 318.46 1037.25 318.46 1037.25 311.82 1030.61 311.82 1023.98 311.82"/><polygon class="cls-2" points="977.54 305.19 970.9 305.19 970.9 311.82 977.54 311.82 984.18 311.82 984.18 305.19 977.54 305.19"/><polygon class="cls-2" points="1037.25 305.19 1037.25 311.82 1043.89 311.82 1050.52 311.82 1050.52 305.19 1043.89 305.19 1037.25 305.19"/><polygon class="cls-2" points="765.23 305.19 771.87 305.19 771.87 311.82 778.5 311.82 785.14 311.82 785.14 318.46 791.77 318.46 798.4 318.46 798.4 311.82 791.77 311.82 791.77 305.19 785.14 305.19 778.5 305.19 778.5 298.56 771.87 298.56 765.23 298.56 758.6 298.56 758.6 305.19 765.23 305.19"/><polygon class="cls-2" points="831.58 305.19 824.94 305.19 824.94 311.82 824.94 318.46 831.58 318.46 831.58 311.82 838.21 311.82 838.21 305.19 838.21 298.56 831.58 298.56 831.58 305.19"/><polygon class="cls-2" points="904.56 298.56 897.92 298.56 891.29 298.56 884.66 298.56 884.66 291.92 878.02 291.92 871.39 291.92 871.39 285.28 871.39 278.65 871.39 272.01 871.39 265.38 871.39 258.75 871.39 252.11 864.75 252.11 864.75 258.75 864.75 265.38 864.75 272.01 864.75 278.65 864.75 285.28 864.75 291.92 864.75 298.56 871.39 298.56 878.02 298.56 878.02 305.19 884.66 305.19 891.29 305.19 897.92 305.19 904.56 305.19 911.19 305.19 911.19 298.56 904.56 298.56"/><rect class="cls-2" x="1050.52" y="298.56" width="6.63" height="6.63"/><polygon class="cls-2" points="838.21 46.44 831.58 46.44 824.94 46.44 818.31 46.44 811.68 46.44 805.04 46.44 798.4 46.44 791.77 46.44 785.14 46.44 778.5 46.44 771.87 46.44 765.23 46.44 765.23 53.07 758.6 53.07 751.97 53.07 751.97 59.71 751.97 66.35 758.6 66.35 758.6 59.71 765.23 59.71 771.87 59.71 771.87 53.07 778.5 53.07 785.14 53.07 791.77 53.07 798.4 53.07 805.04 53.07 811.68 53.07 818.31 53.07 824.94 53.07 831.58 53.07 838.21 53.07 838.21 59.71 831.58 59.71 831.58 66.35 831.58 72.98 824.94 72.98 824.94 79.61 824.94 86.25 824.94 92.88 831.58 92.88 831.58 86.25 831.58 79.61 838.21 79.61 838.21 72.98 838.21 66.35 844.85 66.35 844.85 59.71 851.48 59.71 851.48 66.35 858.11 66.35 864.75 66.35 864.75 59.71 858.11 59.71 858.11 53.07 851.48 53.07 851.48 46.44 844.85 46.44 838.21 46.44"/><rect class="cls-2" x="957.63" y="291.92" width="6.64" height="6.64"/><polygon class="cls-2" points="632.54 285.28 625.9 285.28 625.9 291.92 625.9 298.56 632.54 298.56 632.54 291.92 632.54 285.28"/><polygon class="cls-2" points="951 272.01 944.37 272.01 944.37 278.65 944.37 285.28 951 285.28 951 278.65 951 272.01"/><rect class="cls-2" x="1150.04" y="272.01" width="6.63" height="6.64"/><polygon class="cls-2" points="1176.58 92.88 1183.21 92.88 1183.21 86.25 1183.21 79.61 1176.58 79.61 1176.58 86.25 1176.58 92.88"/><polygon class="cls-2" points="871.39 86.25 871.39 92.88 871.39 99.52 871.39 106.15 864.75 106.15 858.11 106.15 851.48 106.15 844.85 106.15 844.85 99.52 838.21 99.52 838.21 92.88 831.58 92.88 831.58 99.52 831.58 106.15 838.21 106.15 838.21 112.78 844.85 112.78 851.48 112.78 858.11 112.78 864.75 112.78 871.39 112.78 878.02 112.78 878.02 106.15 878.02 99.52 878.02 92.88 878.02 86.25 878.02 79.61 878.02 72.98 871.39 72.98 871.39 79.61 871.39 86.25"/><polygon class="cls-2" points="937.73 79.61 931.1 79.61 931.1 72.98 924.46 72.98 924.46 79.61 924.46 86.25 931.1 86.25 931.1 92.88 937.73 92.88 937.73 86.25 937.73 79.61"/><polygon class="cls-2" points="1169.94 79.61 1176.58 79.61 1176.58 72.98 1176.58 66.35 1169.94 66.35 1169.94 72.98 1169.94 79.61"/><polygon class="cls-2" points="745.33 72.98 745.33 79.61 738.69 79.61 738.69 86.25 738.69 92.88 738.69 99.52 738.69 106.15 745.33 106.15 745.33 99.52 745.33 92.88 745.33 86.25 751.97 86.25 751.97 79.61 751.97 72.98 751.97 66.35 745.33 66.35 745.33 72.98"/><rect class="cls-2" x="864.75" y="66.35" width="6.64" height="6.63"/><polygon class="cls-2" points="924.46 59.71 917.83 59.71 917.83 53.07 911.19 53.07 911.19 46.44 904.56 46.44 904.56 39.8 897.92 39.8 891.29 39.8 891.29 46.44 897.92 46.44 897.92 53.07 904.56 53.07 904.56 59.71 911.19 59.71 911.19 66.35 917.83 66.35 917.83 72.98 924.46 72.98 924.46 66.35 924.46 59.71"/><polygon class="cls-2" points="652.45 59.71 652.45 66.35 659.08 66.35 659.08 72.98 659.08 79.61 665.71 79.61 672.35 79.61 672.35 86.25 678.98 86.25 685.62 86.25 685.62 79.61 692.25 79.61 698.89 79.61 705.52 79.61 705.52 72.98 712.16 72.98 712.16 66.35 712.16 59.71 718.79 59.71 718.79 53.07 718.79 46.44 718.79 39.8 712.16 39.8 712.16 46.44 712.16 53.07 705.52 53.07 705.52 59.71 705.52 66.35 698.89 66.35 698.89 72.98 692.25 72.98 685.62 72.98 678.98 72.98 672.35 72.98 665.71 72.98 665.71 66.35 665.71 59.71 659.08 59.71 659.08 53.07 652.45 53.07 652.45 59.71"/><polygon class="cls-2" points="917.83 358.27 917.83 351.63 924.46 351.63 924.46 344.99 924.46 338.36 924.46 331.73 924.46 325.09 924.46 318.46 924.46 311.82 917.83 311.82 917.83 305.19 911.19 305.19 911.19 311.82 911.19 318.46 917.83 318.46 917.83 325.09 917.83 331.73 917.83 338.36 917.83 344.99 911.19 344.99 911.19 351.63 904.56 351.63 897.92 351.63 897.92 358.27 891.29 358.27 884.66 358.27 884.66 364.9 878.02 364.9 878.02 371.53 871.39 371.53 871.39 378.17 878.02 378.17 884.66 378.17 884.66 371.53 891.29 371.53 891.29 364.9 897.92 364.9 904.56 364.9 904.56 358.27 911.19 358.27 917.83 358.27"/><polygon class="cls-2" points="818.31 325.09 811.68 325.09 805.04 325.09 805.04 318.46 798.4 318.46 798.4 325.09 798.4 331.73 798.4 338.36 805.04 338.36 811.68 338.36 811.68 344.99 811.68 351.63 811.68 358.27 811.68 364.9 811.68 371.53 818.31 371.53 818.31 378.17 818.31 384.8 818.31 391.44 818.31 398.07 818.31 404.7 824.94 404.7 824.94 398.07 824.94 391.44 824.94 384.8 824.94 378.17 824.94 371.53 824.94 364.9 818.31 364.9 818.31 358.27 818.31 351.63 818.31 344.99 818.31 338.36 818.31 331.73 824.94 331.73 824.94 325.09 824.94 318.46 818.31 318.46 818.31 325.09"/><polygon class="cls-2" points="645.81 305.19 645.81 298.56 639.18 298.56 632.54 298.56 632.54 305.19 639.18 305.19 639.18 311.82 645.81 311.82 652.45 311.82 652.45 305.19 645.81 305.19"/><polygon class="cls-2" points="1143.4 298.56 1143.4 291.92 1150.04 291.92 1150.04 285.28 1150.04 278.65 1143.4 278.65 1143.4 285.28 1136.77 285.28 1136.77 291.92 1136.77 298.56 1136.77 305.19 1143.4 305.19 1143.4 298.56"/><rect class="cls-2" x="1057.15" y="424.61" width="6.64" height="6.64"/><polygon class="cls-2" points="884.66 33.17 878.02 33.17 871.39 33.17 864.75 33.17 864.75 39.8 871.39 39.8 878.02 39.8 884.66 39.8 891.29 39.8 891.29 33.17 884.66 33.17"/><rect class="cls-2" x="858.11" y="411.34" width="6.64" height="6.64"/><rect class="cls-2" x="1057.15" y="411.34" width="6.64" height="6.64"/><polygon class="cls-2" points="811.68 411.34 811.68 417.98 811.68 424.61 811.68 431.25 818.31 431.25 818.31 424.61 818.31 417.98 818.31 411.34 818.31 404.7 811.68 404.7 811.68 411.34"/><polygon class="cls-2" points="725.42 33.17 732.06 33.17 732.06 26.54 738.69 26.54 738.69 19.9 745.33 19.9 751.97 19.9 751.97 13.27 758.6 13.27 765.23 13.27 771.87 13.27 778.5 13.27 785.14 13.27 785.14 19.9 791.77 19.9 798.4 19.9 805.04 19.9 811.68 19.9 818.31 19.9 824.94 19.9 824.94 13.27 831.58 13.27 838.21 13.27 838.21 6.63 831.58 6.63 824.94 6.63 818.31 6.63 818.31 13.27 811.68 13.27 805.04 13.27 798.4 13.27 791.77 13.27 791.77 6.63 785.14 6.63 778.5 6.63 771.87 6.63 765.23 6.63 758.6 6.63 751.97 6.63 745.33 6.63 745.33 13.27 738.69 13.27 732.06 13.27 732.06 19.9 725.42 19.9 725.42 26.54 718.79 26.54 718.79 33.17 718.79 39.8 725.42 39.8 725.42 33.17"/><polygon class="cls-2" points="1189.84 404.7 1189.84 398.07 1183.21 398.07 1183.21 391.44 1176.58 391.44 1169.94 391.44 1163.31 391.44 1163.31 384.8 1156.67 384.8 1150.04 384.8 1143.4 384.8 1143.4 391.44 1136.77 391.44 1130.13 391.44 1123.5 391.44 1116.87 391.44 1116.87 398.07 1110.23 398.07 1103.6 398.07 1103.6 404.7 1110.23 404.7 1116.87 404.7 1123.5 404.7 1123.5 398.07 1130.13 398.07 1136.77 398.07 1143.4 398.07 1150.04 398.07 1150.04 391.44 1156.67 391.44 1156.67 398.07 1163.31 398.07 1169.94 398.07 1176.58 398.07 1176.58 404.7 1183.21 404.7 1183.21 411.34 1189.84 411.34 1189.84 417.98 1189.84 424.61 1183.21 424.61 1183.21 431.25 1176.58 431.25 1176.58 424.61 1169.94 424.61 1169.94 417.98 1163.31 417.98 1163.31 411.34 1163.31 404.7 1156.67 404.7 1156.67 398.07 1150.04 398.07 1150.04 404.7 1150.04 411.34 1156.67 411.34 1156.67 417.98 1156.67 424.61 1163.31 424.61 1163.31 431.25 1169.94 431.25 1169.94 437.88 1176.58 437.88 1183.21 437.88 1189.84 437.88 1189.84 431.25 1196.48 431.25 1196.48 424.61 1196.48 417.98 1196.48 411.34 1196.48 404.7 1189.84 404.7"/><polygon class="cls-2" points="745.33 404.7 745.33 411.34 751.97 411.34 751.97 417.98 758.6 417.98 758.6 424.61 765.23 424.61 765.23 431.25 765.23 437.88 765.23 444.51 758.6 444.51 758.6 437.88 751.97 437.88 745.33 437.88 738.69 437.88 732.06 437.88 732.06 444.51 738.69 444.51 745.33 444.51 751.97 444.51 751.97 451.15 758.6 451.15 758.6 457.79 751.97 457.79 745.33 457.79 738.69 457.79 732.06 457.79 732.06 451.15 732.06 444.51 725.42 444.51 725.42 451.15 725.42 457.79 725.42 464.42 732.06 464.42 738.69 464.42 745.33 464.42 751.97 464.42 758.6 464.42 765.23 464.42 765.23 457.79 771.87 457.79 778.5 457.79 778.5 451.15 771.87 451.15 771.87 444.51 771.87 437.88 771.87 431.25 771.87 424.61 771.87 417.98 765.23 417.98 765.23 411.34 758.6 411.34 758.6 404.7 751.97 404.7 751.97 398.07 745.33 398.07 738.69 398.07 732.06 398.07 732.06 404.7 738.69 404.7 745.33 404.7"/><rect class="cls-2" x="858.11" y="398.07" width="6.64" height="6.63"/><polygon class="cls-2" points="619.27 33.17 625.9 33.17 625.9 26.54 632.54 26.54 639.18 26.54 645.81 26.54 652.45 26.54 652.45 19.9 659.08 19.9 665.71 19.9 672.35 19.9 678.98 19.9 685.62 19.9 685.62 26.54 692.25 26.54 692.25 33.17 692.25 39.8 685.62 39.8 685.62 46.44 678.98 46.44 672.35 46.44 665.71 46.44 659.08 46.44 659.08 53.07 665.71 53.07 672.35 53.07 678.98 53.07 685.62 53.07 692.25 53.07 692.25 46.44 698.89 46.44 698.89 39.8 698.89 33.17 698.89 26.54 698.89 19.9 692.25 19.9 692.25 13.27 685.62 13.27 678.98 13.27 672.35 13.27 665.71 13.27 659.08 13.27 652.45 13.27 645.81 13.27 645.81 19.9 639.18 19.9 632.54 19.9 625.9 19.9 619.27 19.9 619.27 26.54 612.64 26.54 612.64 33.17 612.64 39.8 619.27 39.8 619.27 33.17"/><polygon class="cls-2" points="1017.35 404.7 1017.35 411.34 1023.98 411.34 1023.98 417.98 1023.98 424.61 1023.98 431.25 1023.98 437.88 1023.98 444.51 1023.98 451.15 1023.98 457.79 1023.98 464.42 1023.98 471.05 1023.98 477.69 1030.61 477.69 1030.61 471.05 1030.61 464.42 1030.61 457.79 1030.61 451.15 1030.61 444.51 1030.61 437.88 1030.61 431.25 1030.61 424.61 1030.61 417.98 1030.61 411.34 1030.61 404.7 1023.98 404.7 1023.98 398.07 1023.98 391.44 1017.35 391.44 1017.35 398.07 1017.35 404.7"/><polygon class="cls-2" points="1103.6 384.8 1103.6 378.17 1103.6 371.53 1103.6 364.9 1096.96 364.9 1096.96 371.53 1096.96 378.17 1096.96 384.8 1096.96 391.44 1096.96 398.07 1103.6 398.07 1103.6 391.44 1103.6 384.8"/><polygon class="cls-2" points="864.75 384.8 864.75 391.44 864.75 398.07 871.39 398.07 871.39 391.44 871.39 384.8 871.39 378.17 864.75 378.17 864.75 384.8"/><polygon class="cls-2" points="851.48 39.8 851.48 46.44 858.11 46.44 864.75 46.44 864.75 39.8 858.11 39.8 851.48 39.8"/><polygon class="cls-2" points="1143.4 371.53 1143.4 364.9 1136.77 364.9 1136.77 358.27 1136.77 351.63 1136.77 344.99 1130.13 344.99 1130.13 351.63 1130.13 358.27 1130.13 364.9 1130.13 371.53 1136.77 371.53 1136.77 378.17 1136.77 384.8 1143.4 384.8 1143.4 378.17 1143.4 371.53"/><polygon class="cls-2" points="712.16 437.88 712.16 431.25 712.16 424.61 718.79 424.61 718.79 417.98 725.42 417.98 725.42 411.34 732.06 411.34 732.06 404.7 725.42 404.7 718.79 404.7 718.79 411.34 712.16 411.34 712.16 417.98 705.52 417.98 705.52 424.61 705.52 431.25 705.52 437.88 705.52 444.51 712.16 444.51 712.16 437.88"/><polygon class="cls-2" points="1070.42 437.88 1070.42 431.25 1063.79 431.25 1063.79 437.88 1063.79 444.51 1070.42 444.51 1077.06 444.51 1077.06 437.88 1070.42 437.88"/><polygon class="cls-2" points="1143.4 39.8 1143.4 46.44 1150.04 46.44 1150.04 53.07 1156.67 53.07 1156.67 46.44 1156.67 39.8 1150.04 39.8 1150.04 33.17 1143.4 33.17 1136.77 33.17 1136.77 39.8 1143.4 39.8"/><polygon class="cls-2" points="805.04 437.88 805.04 444.51 811.68 444.51 811.68 437.88 811.68 431.25 805.04 431.25 805.04 437.88"/><polygon class="cls-2" points="1050.52 378.17 1050.52 384.8 1050.52 391.44 1050.52 398.07 1050.52 404.7 1050.52 411.34 1057.15 411.34 1057.15 404.7 1057.15 398.07 1057.15 391.44 1057.15 384.8 1057.15 378.17 1057.15 371.53 1050.52 371.53 1050.52 378.17"/><rect class="cls-2" x="1077.06" y="33.17" width="6.64" height="6.63"/><polygon class="cls-2" points="964.27 583.84 957.63 583.84 951 583.84 951 577.21 944.37 577.21 937.73 577.21 937.73 583.84 944.37 583.84 944.37 590.48 951 590.48 957.63 590.48 964.27 590.48 970.9 590.48 977.54 590.48 977.54 583.84 970.9 583.84 964.27 583.84"/><polygon class="cls-2" points="824.94 590.48 824.94 597.11 818.31 597.11 811.68 597.11 811.68 603.74 805.04 603.74 798.4 603.74 791.77 603.74 785.14 603.74 778.5 603.74 778.5 597.11 771.87 597.11 771.87 590.48 765.23 590.48 765.23 597.11 765.23 603.74 771.87 603.74 771.87 610.38 778.5 610.38 785.14 610.38 791.77 610.38 798.4 610.38 805.04 610.38 811.68 610.38 818.31 610.38 818.31 603.74 824.94 603.74 831.58 603.74 831.58 597.11 838.21 597.11 838.21 590.48 831.58 590.48 824.94 590.48"/><polygon class="cls-2" points="771.87 583.84 771.87 577.21 765.23 577.21 758.6 577.21 758.6 583.84 751.97 583.84 745.33 583.84 738.69 583.84 732.06 583.84 732.06 577.21 725.42 577.21 718.79 577.21 718.79 570.57 718.79 563.94 712.16 563.94 712.16 570.57 712.16 577.21 712.16 583.84 718.79 583.84 725.42 583.84 725.42 590.48 732.06 590.48 738.69 590.48 745.33 590.48 751.97 590.48 758.6 590.48 765.23 590.48 765.23 583.84 771.87 583.84"/><polygon class="cls-2" points="1057.15 119.42 1050.52 119.42 1043.89 119.42 1037.25 119.42 1030.61 119.42 1030.61 126.06 1023.98 126.06 1023.98 132.69 1017.35 132.69 1017.35 139.32 1023.98 139.32 1030.61 139.32 1030.61 132.69 1037.25 132.69 1037.25 126.06 1043.89 126.06 1050.52 126.06 1050.52 132.69 1057.15 132.69 1057.15 126.06 1057.15 119.42"/><polygon class="cls-2" points="751.97 119.42 745.33 119.42 745.33 112.78 738.69 112.78 738.69 119.42 738.69 126.06 745.33 126.06 745.33 132.69 751.97 132.69 751.97 126.06 751.97 119.42"/><polygon class="cls-2" points="1150.04 132.69 1150.04 139.32 1156.67 139.32 1156.67 145.96 1156.67 152.59 1156.67 159.23 1156.67 165.86 1163.31 165.86 1163.31 159.23 1163.31 152.59 1163.31 145.96 1163.31 139.32 1163.31 132.69 1156.67 132.69 1156.67 126.06 1156.67 119.42 1150.04 119.42 1150.04 126.06 1150.04 132.69"/><polygon class="cls-2" points="639.18 126.06 632.54 126.06 632.54 132.69 639.18 132.69 645.81 132.69 645.81 126.06 639.18 126.06"/><rect class="cls-2" x="1057.15" y="132.69" width="6.64" height="6.63"/><polygon class="cls-2" points="878.02 145.96 878.02 139.32 878.02 132.69 884.66 132.69 884.66 126.06 891.29 126.06 891.29 132.69 897.92 132.69 904.56 132.69 911.19 132.69 917.83 132.69 924.46 132.69 931.1 132.69 937.73 132.69 944.37 132.69 944.37 126.06 951 126.06 951 119.42 951 112.78 951 106.15 944.37 106.15 944.37 99.52 944.37 92.88 937.73 92.88 937.73 99.52 937.73 106.15 937.73 112.78 944.37 112.78 944.37 119.42 937.73 119.42 937.73 126.06 931.1 126.06 924.46 126.06 917.83 126.06 911.19 126.06 904.56 126.06 897.92 126.06 897.92 119.42 891.29 119.42 884.66 119.42 878.02 119.42 878.02 126.06 871.39 126.06 871.39 132.69 871.39 139.32 864.75 139.32 864.75 145.96 864.75 152.59 871.39 152.59 871.39 145.96 878.02 145.96"/><polygon class="cls-2" points="765.23 139.32 765.23 132.69 758.6 132.69 751.97 132.69 751.97 139.32 758.6 139.32 758.6 145.96 765.23 145.96 771.87 145.96 771.87 139.32 765.23 139.32"/><polygon class="cls-2" points="698.89 139.32 698.89 132.69 692.25 132.69 685.62 132.69 678.98 132.69 672.35 132.69 665.71 132.69 659.08 132.69 652.45 132.69 645.81 132.69 645.81 139.32 652.45 139.32 659.08 139.32 665.71 139.32 672.35 139.32 678.98 139.32 685.62 139.32 692.25 139.32 692.25 145.96 698.89 145.96 705.52 145.96 705.52 139.32 698.89 139.32"/><polygon class="cls-2" points="1189.84 145.96 1189.84 139.32 1189.84 132.69 1189.84 126.06 1189.84 119.42 1189.84 112.78 1189.84 106.15 1189.84 99.52 1183.21 99.52 1183.21 106.15 1183.21 112.78 1183.21 119.42 1183.21 126.06 1183.21 132.69 1183.21 139.32 1183.21 145.96 1183.21 152.59 1189.84 152.59 1189.84 145.96"/><polygon class="cls-2" points="1103.6 152.59 1110.23 152.59 1110.23 145.96 1110.23 139.32 1103.6 139.32 1103.6 145.96 1103.6 152.59"/><polygon class="cls-2" points="1063.79 152.59 1070.42 152.59 1070.42 145.96 1070.42 139.32 1063.79 139.32 1063.79 145.96 1063.79 152.59"/><polygon class="cls-2" points="1077.06 159.23 1070.42 159.23 1070.42 165.86 1070.42 172.49 1077.06 172.49 1077.06 165.86 1077.06 159.23"/><polygon class="cls-2" points="725.42 159.23 725.42 152.59 718.79 152.59 718.79 145.96 712.16 145.96 705.52 145.96 705.52 152.59 712.16 152.59 712.16 159.23 718.79 159.23 718.79 165.86 725.42 165.86 732.06 165.86 732.06 159.23 725.42 159.23"/><polygon class="cls-2" points="1130.13 99.52 1123.5 99.52 1116.87 99.52 1110.23 99.52 1110.23 106.15 1103.6 106.15 1103.6 112.78 1096.96 112.78 1096.96 119.42 1096.96 126.06 1096.96 132.69 1096.96 139.32 1103.6 139.32 1103.6 132.69 1103.6 126.06 1103.6 119.42 1110.23 119.42 1110.23 112.78 1116.87 112.78 1116.87 106.15 1123.5 106.15 1130.13 106.15 1136.77 106.15 1136.77 99.52 1130.13 99.52"/><polygon class="cls-2" points="964.27 165.86 957.63 165.86 951 165.86 951 172.49 957.63 172.49 964.27 172.49 970.9 172.49 970.9 165.86 964.27 165.86"/><polygon class="cls-2" points="838.21 165.86 838.21 159.23 831.58 159.23 824.94 159.23 824.94 152.59 818.31 152.59 811.68 152.59 805.04 152.59 798.4 152.59 798.4 145.96 791.77 145.96 785.14 145.96 778.5 145.96 771.87 145.96 771.87 152.59 778.5 152.59 785.14 152.59 791.77 152.59 791.77 159.23 798.4 159.23 805.04 159.23 811.68 159.23 818.31 159.23 818.31 165.86 824.94 165.86 831.58 165.86 831.58 172.49 838.21 172.49 844.85 172.49 844.85 165.86 838.21 165.86"/><polygon class="cls-2" points="1189.84 172.49 1189.84 165.86 1189.84 159.23 1183.21 159.23 1183.21 165.86 1183.21 172.49 1183.21 179.13 1189.84 179.13 1189.84 172.49"/><rect class="cls-2" x="1110.23" y="172.49" width="6.64" height="6.64"/><polygon class="cls-2" points="1023.98 172.49 1023.98 165.86 1023.98 159.23 1023.98 152.59 1023.98 145.96 1017.35 145.96 1017.35 152.59 1017.35 159.23 1017.35 165.86 1017.35 172.49 1017.35 179.13 1017.35 185.77 1023.98 185.77 1023.98 179.13 1023.98 172.49"/><polygon class="cls-2" points="944.37 179.13 937.73 179.13 937.73 185.77 937.73 192.4 937.73 199.04 944.37 199.04 944.37 192.4 944.37 185.77 951 185.77 951 179.13 951 172.49 944.37 172.49 944.37 179.13"/><rect class="cls-2" x="1176.58" y="179.13" width="6.64" height="6.64"/><polygon class="cls-2" points="1163.31 179.13 1163.31 172.49 1156.67 172.49 1156.67 179.13 1156.67 185.77 1163.31 185.77 1163.31 179.13"/><polygon class="cls-2" points="1083.69 179.13 1083.69 172.49 1077.06 172.49 1077.06 179.13 1077.06 185.77 1077.06 192.4 1083.69 192.4 1083.69 185.77 1083.69 179.13"/><polygon class="cls-2" points="970.9 185.77 970.9 192.4 970.9 199.04 977.54 199.04 977.54 192.4 977.54 185.77 977.54 179.13 977.54 172.49 970.9 172.49 970.9 179.13 970.9 185.77"/><rect class="cls-2" x="1150.04" y="185.77" width="6.63" height="6.64"/><polygon class="cls-2" points="911.19 185.77 904.56 185.77 897.92 185.77 897.92 179.13 891.29 179.13 891.29 172.49 884.66 172.49 884.66 165.86 878.02 165.86 878.02 159.23 878.02 152.59 871.39 152.59 871.39 159.23 871.39 165.86 871.39 172.49 878.02 172.49 878.02 179.13 884.66 179.13 884.66 185.77 891.29 185.77 891.29 192.4 897.92 192.4 904.56 192.4 904.56 199.04 911.19 199.04 911.19 192.4 911.19 185.77"/><polygon class="cls-2" points="1130.13 192.4 1130.13 185.77 1123.5 185.77 1123.5 179.13 1116.87 179.13 1116.87 185.77 1116.87 192.4 1123.5 192.4 1123.5 199.04 1130.13 199.04 1136.77 199.04 1136.77 192.4 1130.13 192.4"/><polygon class="cls-2" points="1023.98 199.04 1030.61 199.04 1030.61 192.4 1030.61 185.77 1023.98 185.77 1023.98 192.4 1023.98 199.04"/><polygon class="cls-2" points="672.35 199.04 672.35 192.4 665.71 192.4 659.08 192.4 659.08 199.04 665.71 199.04 672.35 199.04"/><rect class="cls-2" x="1030.61" y="199.04" width="6.64" height="6.63"/><polygon class="cls-2" points="678.98 205.67 685.62 205.67 685.62 199.04 678.98 199.04 672.35 199.04 672.35 205.67 678.98 205.67"/><polygon class="cls-2" points="659.08 205.67 659.08 199.04 652.45 199.04 645.81 199.04 645.81 205.67 652.45 205.67 659.08 205.67"/><polygon class="cls-2" points="1143.4 212.3 1143.4 205.67 1150.04 205.67 1156.67 205.67 1163.31 205.67 1163.31 199.04 1169.94 199.04 1169.94 192.4 1163.31 192.4 1156.67 192.4 1156.67 199.04 1150.04 199.04 1150.04 192.4 1143.4 192.4 1143.4 199.04 1136.77 199.04 1136.77 205.67 1130.13 205.67 1130.13 212.3 1136.77 212.3 1143.4 212.3"/><polygon class="cls-2" points="1096.96 205.67 1096.96 199.04 1090.32 199.04 1090.32 192.4 1083.69 192.4 1083.69 199.04 1083.69 205.67 1090.32 205.67 1090.32 212.3 1096.96 212.3 1103.6 212.3 1103.6 205.67 1096.96 205.67"/><rect class="cls-2" x="937.73" y="205.67" width="6.64" height="6.64"/><rect class="cls-2" x="1136.77" y="106.15" width="6.64" height="6.64"/><polygon class="cls-2" points="1110.23 218.94 1116.87 218.94 1123.5 218.94 1130.13 218.94 1130.13 212.3 1123.5 212.3 1116.87 212.3 1110.23 212.3 1103.6 212.3 1103.6 218.94 1110.23 218.94"/><polygon class="cls-2" points="1037.25 212.3 1030.61 212.3 1030.61 218.94 1030.61 225.57 1037.25 225.57 1037.25 218.94 1037.25 212.3"/><polygon class="cls-2" points="685.62 218.94 692.25 218.94 698.89 218.94 705.52 218.94 712.16 218.94 718.79 218.94 725.42 218.94 732.06 218.94 738.69 218.94 738.69 212.3 745.33 212.3 745.33 205.67 745.33 199.04 745.33 192.4 745.33 185.77 745.33 179.13 745.33 172.49 738.69 172.49 738.69 165.86 732.06 165.86 732.06 172.49 732.06 179.13 738.69 179.13 738.69 185.77 738.69 192.4 738.69 199.04 738.69 205.67 732.06 205.67 732.06 212.3 725.42 212.3 718.79 212.3 712.16 212.3 705.52 212.3 698.89 212.3 692.25 212.3 692.25 205.67 685.62 205.67 685.62 212.3 685.62 218.94"/><polygon class="cls-2" points="937.73 225.57 937.73 232.21 937.73 238.84 937.73 245.48 937.73 252.11 944.37 252.11 944.37 245.48 944.37 238.84 944.37 232.21 944.37 225.57 944.37 218.94 937.73 218.94 937.73 225.57"/><polygon class="cls-2" points="864.75 218.94 864.75 212.3 864.75 205.67 864.75 199.04 864.75 192.4 864.75 185.77 858.11 185.77 858.11 179.13 851.48 179.13 851.48 172.49 844.85 172.49 844.85 179.13 844.85 185.77 851.48 185.77 851.48 192.4 858.11 192.4 858.11 199.04 858.11 205.67 858.11 212.3 858.11 218.94 858.11 225.57 864.75 225.57 864.75 218.94"/><rect class="cls-2" x="632.54" y="218.94" width="6.64" height="6.64"/><rect class="cls-2" x="1037.25" y="225.57" width="6.64" height="6.64"/><polygon class="cls-2" points="917.83 225.57 917.83 218.94 917.83 212.3 917.83 205.67 917.83 199.04 911.19 199.04 911.19 205.67 911.19 212.3 911.19 218.94 911.19 225.57 911.19 232.21 917.83 232.21 917.83 225.57"/><polygon class="cls-2" points="858.11 232.21 858.11 225.57 851.48 225.57 851.48 232.21 851.48 238.84 858.11 238.84 858.11 232.21"/><polygon class="cls-2" points="632.54 232.21 632.54 225.57 625.9 225.57 625.9 232.21 625.9 238.84 632.54 238.84 632.54 232.21"/><polygon class="cls-2" points="1043.89 245.48 1043.89 238.84 1037.25 238.84 1037.25 245.48 1037.25 252.11 1043.89 252.11 1043.89 245.48"/><polygon class="cls-2" points="884.66 252.11 891.29 252.11 897.92 252.11 904.56 252.11 904.56 245.48 911.19 245.48 911.19 238.84 911.19 232.21 904.56 232.21 904.56 238.84 897.92 238.84 897.92 245.48 891.29 245.48 884.66 245.48 878.02 245.48 871.39 245.48 871.39 252.11 878.02 252.11 884.66 252.11"/><path class="cls-2" d="M851.73,246v-6.64H838.45v-6.63h-6.63v-6.64h-6.64v-6.63H811.92V212.8H778.74v6.64h-6.63v39.81h6.63v6.63h6.64v6.63h46.44v-6.63h6.63v33.18h6.64V252.61h6.64Zm-13.28,6.63h-6.63v6.64h-6.64v6.63H792v-6.63h-6.63v-6.64h-6.64V226.07h6.64v-6.63h19.9v6.63h13.27v6.64h6.63v6.63h6.64V246h6.63Z" transform="translate(-0.24 -0.5)"/><rect class="cls-2" x="1143.4" y="112.78" width="6.64" height="6.64"/><polygon class="cls-2" points="1004.08 252.11 997.44 252.11 997.44 245.48 990.81 245.48 990.81 238.84 984.18 238.84 984.18 232.21 984.18 225.57 984.18 218.94 984.18 212.3 984.18 205.67 977.54 205.67 977.54 212.3 977.54 218.94 977.54 225.57 977.54 232.21 977.54 238.84 977.54 245.48 984.18 245.48 984.18 252.11 990.81 252.11 990.81 258.75 997.44 258.75 1004.08 258.75 1010.71 258.75 1010.71 252.11 1004.08 252.11"/><polygon class="cls-2" points="1176.58 265.38 1176.58 272.01 1183.21 272.01 1183.21 278.65 1183.21 285.28 1183.21 291.92 1183.21 298.56 1183.21 305.19 1183.21 311.82 1183.21 318.46 1176.58 318.46 1176.58 325.09 1176.58 331.73 1183.21 331.73 1183.21 325.09 1189.84 325.09 1189.84 318.46 1189.84 311.82 1189.84 305.19 1189.84 298.56 1189.84 291.92 1189.84 285.28 1189.84 278.65 1189.84 272.01 1189.84 265.38 1183.21 265.38 1183.21 258.75 1176.58 258.75 1169.94 258.75 1163.31 258.75 1163.31 265.38 1169.94 265.38 1176.58 265.38"/><polygon class="cls-2" points="1017.35 265.38 1023.98 265.38 1030.61 265.38 1030.61 258.75 1037.25 258.75 1037.25 252.11 1030.61 252.11 1023.98 252.11 1023.98 258.75 1017.35 258.75 1010.71 258.75 1010.71 265.38 1017.35 265.38"/><rect class="cls-2" x="1156.67" y="265.38" width="6.64" height="6.63"/><polygon class="cls-2" points="632.54 112.78 625.9 112.78 625.9 106.15 625.9 99.52 619.27 99.52 619.27 106.15 619.27 112.78 619.27 119.42 625.9 119.42 625.9 126.06 632.54 126.06 632.54 119.42 632.54 112.78"/><polygon class="cls-2" points="1103.6 159.23 1103.6 165.86 1110.23 165.86 1116.87 165.86 1116.87 159.23 1110.23 159.23 1103.6 159.23"/><rect class="cls-2" x="1169.94" y="185.77" width="6.64" height="6.64"/><rect class="cls-2" x="944.37" y="258.75" width="6.64" height="6.64"/><polygon class="cls-2" points="645.81 212.3 645.81 205.67 639.18 205.67 639.18 212.3 639.18 218.94 645.81 218.94 645.81 212.3"/><polygon class="cls-2" points="619.27 86.25 612.64 86.25 612.64 92.88 612.64 99.52 619.27 99.52 619.27 92.88 619.27 86.25"/></svg>