<svg xmlns="http://www.w3.org/2000/svg" viewBox="0 0 47.81 15.11"><defs><style>.cls-1{fill:#1e1e1b;}.cls-2{fill:#b0b2b3;}.cls-3{fill:#060606;}.cls-4{fill:#fff;}</style></defs><g id="Capa_2" data-name="Capa 2"><g id="Layer_1" data-name="Layer 1"><path class="cls-1" d="M7.36,3.74A4.13,4.13,0,0,0,6.12,4a.83.83,0,0,0-.58.81.67.67,0,0,0,.78.53,2.1,2.1,0,0,0,1-.5Zm0-.27V2.73c0-.56-.61-.58-.86-.58a1,1,0,0,0-.8.25.72.72,0,0,0-.06.47.37.37,0,0,1-.36.4.39.39,0,0,1-.39-.4.89.89,0,0,1,.41-.7,2.42,2.42,0,0,1,1.29-.32,1.91,1.91,0,0,1,1.2.35A.93.93,0,0,1,8.12,3V5.21l.7.19v.25h-1l-.45-.48a2.48,2.48,0,0,1-1.43.53c-.79,0-1.16-.43-1.16-.82,0,0-.13-.82,1-1.17.22-.07.42-.1.59-.14a5.39,5.39,0,0,1,1-.1M23.73,8.92c-.53-.1-1-.24-1-.59s.51-.47.73-.46a1.34,1.34,0,0,1,1.25.85H25l-.22-1.08h-.2l-.07.23a1.83,1.83,0,0,0-1-.31c-.87,0-1.36.5-1.36,1.06s.7.78,1.24.93,1.21.18,1.21.7-.85.61-.85.61a1.51,1.51,0,0,1-1.46-1h-.24l.23,1.27h.23l.08-.29a2.7,2.7,0,0,0,1.19.34A1.32,1.32,0,0,0,25.23,10c0-.81-.95-1-1.5-1.06M20.37,3.74A4.23,4.23,0,0,0,19.12,4a.84.84,0,0,0-.57.81.67.67,0,0,0,.77.53,2.1,2.1,0,0,0,1.05-.5Zm0-.27V2.73c0-.56-.6-.58-.86-.58a1,1,0,0,0-.79.25.72.72,0,0,0-.06.47.37.37,0,0,1-.37.4.4.4,0,0,1-.39-.4.89.89,0,0,1,.41-.7,2.48,2.48,0,0,1,1.3-.32,1.91,1.91,0,0,1,1.2.35,1,1,0,0,1,.31.83V5.21l.74.21,0,.23H20.82l-.44-.48A2.48,2.48,0,0,1,19,5.7c-.8,0-1.16-.43-1.16-.82,0,0-.13-.82,1.05-1.17.22-.07.42-.1.59-.14a5.33,5.33,0,0,1,.95-.1M26,6.87a.43.43,0,1,0,.43-.43.43.43,0,0,0-.43.43m.75.78-1.27.14v.28h.59v2.62l-.6.19v.22h1.87v-.22l-.59-.19Zm-16-1.21a.43.43,0,1,0,.43.43.43.43,0,0,0-.43-.43M11,7.65l-1.27.14v.28h.6v2.62l-.62.19v.22h1.88v-.22L11,10.69Zm10.66,0h0a1.54,1.54,0,0,0-1.4.57V7.66H20l-1,.28v.2h.62v2.6l-.6.16v.2h1.93v-.2l-.64-.17V8.5a1.15,1.15,0,0,1,.65-.39c.31,0,.33.2.64.24h0A.38.38,0,0,0,21.94,8a.38.38,0,0,0-.28-.36m13-5.75h0a1.67,1.67,0,0,0-1.52.63V1.91H32.8l-1.12.3v.23h.67V5.26l-.65.17v.22h2.1V5.43l-.69-.18V2.82s.4-.42.7-.42.36.22.7.26h0A.41.41,0,0,0,35,2.25a.4.4,0,0,0-.31-.39M16.18,8.75h1.74a.85.85,0,0,0-.86-.89.84.84,0,0,0-.88.89m0,.3s-.27,1.8,1.15,1.8a1.25,1.25,0,0,0,1.1-.65l.22.11a1.5,1.5,0,0,1-1.42.86A1.83,1.83,0,0,1,16.1,7.91a1.65,1.65,0,0,1,1-.32,1.49,1.49,0,0,1,1.55,1.46Zm12.7-6h1.88a.92.92,0,0,0-.92-1,.91.91,0,0,0-1,1M28,3.78a2,2,0,0,1,.74-1.6,1.85,1.85,0,0,1,1.11-.34,1.6,1.6,0,0,1,1.67,1.58H28.83s-.28,2,1.25,2a1.36,1.36,0,0,0,1.19-.7l.24.11A1.6,1.6,0,0,1,30,5.71,2,2,0,0,1,28,3.78m-2,.66v.47c0,.5.48.79,1,.79a1.41,1.41,0,0,0,1.13-.45A.8.8,0,0,1,28.05,5a1.08,1.08,0,0,1-.67.35.6.6,0,0,1-.59-.51c0-.11,0-.32,0-.5V2.16h1.11V1.9H26.78V.47h-.35a2,2,0,0,1-.3,1.09,1,1,0,0,1-.71.36v.24H26Zm3,6.43a.55.55,0,0,1-.54-.47c0-.1,0-.29,0-.46V7.87h1V7.64h-1V6.33h-.32a1.94,1.94,0,0,1-.28,1,.9.9,0,0,1-.66.33v.22h.56v2.55c0,.46.46.73,1,.73a1.35,1.35,0,0,0,1.1-.46l-.18-.16a1,1,0,0,1-.63.33M23.78,3.3c-.57-.11-1-.26-1-.65s.55-.5.78-.49a1.48,1.48,0,0,1,1.36.92h.23l-.24-1.17h-.21l-.07.26a1.92,1.92,0,0,0-1-.34c-.94,0-1.48.54-1.48,1.14s.77.85,1.35,1,1.31.2,1.31.75-.92.67-.92.67a1.64,1.64,0,0,1-1.58-1.12H22l.25,1.37h.25l.09-.31a2.86,2.86,0,0,0,1.28.37,1.42,1.42,0,0,0,1.56-1.26c0-.88-1-1-1.63-1.15M8.88,10.69V8.51a.82.82,0,0,0-.28-.63,1.35,1.35,0,0,0-.7-.28A2,2,0,0,0,6.62,8l-.32.22V7.66H6.05L5,7.94v.21h.61V10.7L5,10.89v.21H6.91v-.21l-.6-.19V8.52h0a2.9,2.9,0,0,1,.52-.34A1.41,1.41,0,0,1,7.64,8,.63.63,0,0,1,8,8.18a1,1,0,0,1,.16.59V10.7l-.59.19v.21H9.47v-.22Zm-.71,0v0ZM12.48,5.2h0Zm-2.77,0-.65.21v.23h2V5.42l-.65-.21V2.84h0A3.87,3.87,0,0,1,11,2.46a1.57,1.57,0,0,1,.87-.24.69.69,0,0,1,.4.25,1.07,1.07,0,0,1,.18.65v2.1l-.64.2v.23h2.05V5.42l-.64-.21V2.83a.85.85,0,0,0-.3-.68,1.42,1.42,0,0,0-.77-.31,2.17,2.17,0,0,0-1.39.39l-.34.24V1.91h-.28L9,2.21v.23h.68ZM4.61,4l-.18-.07h0A2.92,2.92,0,0,1,2.17,5.36s-.71,0-.71-.6h0v-4L2.14.56V.39H0v.2L.65.76V5.22L0,5.4v.25H4ZM32.29,7.86,32.9,8,32,10.44,31,8l.5-.13V7.65H29.82v.22l.46.12,1.36,3.35-.26.49c-.1.2-.32.52-.57.54s-.29-.26-.47-.35-.63.25-.41.53a.71.71,0,0,0,.47.23,1.26,1.26,0,0,0,.54-.1,1.67,1.67,0,0,0,.26-.17,1.8,1.8,0,0,0,.37-.5c.16-.31.32-.61.45-.93l.35-.81.41-1,.36-.86L33.32,8V8l.5-.13V7.64H32.29ZM4.56,6.63h0l.63-.17V6.21H3.47v.23l.68.18V9.78s0,1.06-1.35,1.06S1.4,9.92,1.4,9.78V6.62l.7-.19V6.21H0v.23l.68.18V9.73s-.11,1.47,2,1.47S4.56,9.81,4.56,9.81Zm10.91,1H14v.2l.56.15-.89,2.48L12.72,8l.52-.13V7.64H11.52v.21L12,8l1.26,3.13h.41L15,8l.5-.13ZM13.92,3.78a1.91,1.91,0,0,1,.62-1.54,2.09,2.09,0,0,1,1.27-.43A2,2,0,0,1,17,2.17a.89.89,0,0,1,.41.7.39.39,0,0,1-.39.4.36.36,0,0,1-.36-.4.94.94,0,0,0-.05-.43.78.78,0,0,0-.69-.35c-.75,0-1.07.75-1.07,1.67,0,1.23.67,1.67,1.25,1.67a1.62,1.62,0,0,0,1.2-.72l.23.15a1.92,1.92,0,0,1-1.62.88,2,2,0,0,1-1.95-2"/><path class="cls-2" d="M47.81,5V6.08a10.28,10.28,0,0,1-6,9,10.28,10.28,0,0,1-6-9V5Z"/><path class="cls-3" d="M41.84,0a20.41,20.41,0,0,1,6,.76V5H35.87V.76a20.41,20.41,0,0,1,6-.76"/><path class="cls-4" d="M37.17,1.23h0l0,0a.18.18,0,0,1,.11,0,.21.21,0,0,1,.13.05s0,0,0,0l0,0a.17.17,0,0,0-.12-.05h0m.12.37-.09,0a.14.14,0,0,0-.12.06l0,.07h0a.21.21,0,0,1,.12,0h.05s0-.07,0-.07h0m0-.21h0v0s0,0,0,.05l.15.1a.3.3,0,0,1,.09-.13l-.08-.16h0l0,0,0,0a.82.82,0,0,0-.1.11m.3,2.7a.2.2,0,0,0,0,.1h0v0a.3.3,0,0,1,.12-.11.17.17,0,0,1,0-.07.13.13,0,0,0-.09.09m.15-1.89c.08.07.12.09.15.09a.05.05,0,0,0,0,0l0,0a.08.08,0,0,0,0-.05.24.24,0,0,0,0-.1h0s-.18-.41-.22-.57a.11.11,0,0,1,0-.05h-.07a.3.3,0,0,0-.14.26.73.73,0,0,0,.23.49m-.3-.52v0s-.06,0-.07,0a.1.1,0,0,0-.07,0,.23.23,0,0,0-.06.12.08.08,0,0,0,0,.05l.06,0,.15,0a.57.57,0,0,1,0-.18v0M37.75,1h0a.08.08,0,0,1,.07,0,.23.23,0,0,0-.07-.15.17.17,0,0,0-.11,0h0l0,0a.18.18,0,0,1,.09.14m-.15.21s0,.05,0,.07l0,.08h0l.07,0h0l0-.08a.31.31,0,0,0,0-.08v0a.07.07,0,0,0,0-.05s0,0,0,0h0s-.1,0-.12.06,0,.05,0,.08m.7.08a.27.27,0,0,0,.06-.14.15.15,0,0,0,0-.1s0,0,0,0v.09a.17.17,0,0,1,0,.12.18.18,0,0,1,0,.07m1.35-.27h0s0,0,0-.06,0-.05,0-.08,0,0,0-.06,0,0,0,0l0,0L40,.73l0,0a.31.31,0,0,1,.12,0A5.57,5.57,0,0,1,40.8.57l.05,0a.34.34,0,0,1,.08.09l0,0v0h0a0,0,0,0,1,0,0h.1a.15.15,0,0,1,0,.08.13.13,0,0,1,0,.06.49.49,0,0,1-.13.28h0a1.08,1.08,0,0,1,.21.57l-.06-.08v0l0,0h0s0,0,0,0,0,0,0,0a0,0,0,0,0,0,0,2,2,0,0,1,.08.59h0l-.07-.12s0,0,0,0h0v0a.77.77,0,0,1,.05.29,1.17,1.17,0,0,1-.05.3.41.41,0,0,0,0,.08v0l0,0a.47.47,0,0,0,0-.1s0,0,0,0h0a0,0,0,0,0,0,0s0,0,0,0h0v.07a.68.68,0,0,1-.16.44l-.11.1,0,0V3.06s0,0,0,0l0,0h0s0,0,0,0a.59.59,0,0,1-.17.25.17.17,0,0,1-.12.06h0l0,0a.33.33,0,0,0,0-.14.09.09,0,0,0,0-.08s-.06,0-.12,0H40a1.6,1.6,0,0,0-.5.18l-.28.16a.46.46,0,0,1,0-.19.36.36,0,0,1,0-.19l0,0h0v0s0,0,0,0v0h0a.49.49,0,0,0-.16.06L39,3a.65.65,0,0,1,.18-.45.59.59,0,0,1,.2-.14l0,0v0h0l0,0h0l-.1,0-.07,0h0A.61.61,0,0,1,39.69,2h.15s0,0,0,0,0,0,0,0h0l-.08-.05,0,0h.15a.36.36,0,0,0,.14,0,.26.26,0,0,0,.17-.06.64.64,0,0,0,.06-.1.14.14,0,0,0,0-.06.06.06,0,0,0-.05-.06h-.07a.15.15,0,0,0-.11,0,.06.06,0,0,1,0,0h0l-.07-.07-.06,0h0l.09,0h.21a.14.14,0,0,0,.12-.05.16.16,0,0,0,0-.09.24.24,0,0,0,0-.07,2.61,2.61,0,0,0-.13-.26A.09.09,0,0,0,40,1a.26.26,0,0,0-.12.05l-.06,0a.12.12,0,0,1-.09,0,.09.09,0,0,1-.08,0,.1.1,0,0,1,0-.07M40.1.82l.06,0h0a.2.2,0,0,0,0,0s.06,0,.06-.05-.13,0-.15,0h-.06s0,0,0,0m-2.27.67A3.89,3.89,0,0,0,38,2l0,.06a.4.4,0,0,1,0,.13.15.15,0,0,1,0,.09L38,2.33h0v0s0,0,0,0a.13.13,0,0,0,0,.08.48.48,0,0,1,0,.08l.07.11,0,0h0s0,0,0,0v0h0V2.55a0,0,0,0,1,0,0,0,0,0,0,1,0,0,.64.64,0,0,1,0,.09h0v0l0,.09a.51.51,0,0,0,.2.18V2.82h0v0s0,0,0,0h0v0h0v0l0,.06a1.31,1.31,0,0,0,.13.16.76.76,0,0,0,.33.24.34.34,0,0,1,0-.1.57.57,0,0,1,0-.18l0,0-.16.13V3a.78.78,0,0,1,.2-.51.69.69,0,0,1,.13-.11h-.12a2,2,0,0,1-1-.51A.29.29,0,0,1,38,1.62a.21.21,0,0,1,0-.12.28.28,0,0,1,.15-.1h0v0s0,0-.06-.07l-.14-.11,0,0h0l0,0s-.15.13-.15.25,0,0,0,.06m.42,2.07h0a.05.05,0,0,0,0,0l-.06,0,0,0h-.06l0,0-.08,0,0,0a.53.53,0,0,0,.16.13l.09,0v0a.22.22,0,0,1,0-.09m-.48,0a.22.22,0,0,0-.13,0l0,0h0l.09,0h.07l0-.07h0m.37-.3a.21.21,0,0,0-.1,0h0a.22.22,0,0,1,.09.15h0l.07.06a.2.2,0,0,0-.1-.19m7.28.51h0l0,0,0,0-.1,0a.28.28,0,0,0-.13,0l0,0h.1l.09,0Zm0,.15a.26.26,0,0,0,.05.12.11.11,0,0,0,.08,0,.14.14,0,0,0,.09,0s.08,0,.06,0l0,0,0-.07,0-.11a0,0,0,0,0,0,0s0,0,0,0,0,0,0,0l-.09.09s0,0,0,0m-.26.33a.3.3,0,0,0,0,.12h0v0a.24.24,0,0,1,.14-.11v0s0,0,0-.05h0a.19.19,0,0,0-.12.09m-3.1-.6h.1a.24.24,0,0,0-.1-.13.27.27,0,0,0-.12,0h0a.23.23,0,0,1,.12.13h0Zm3.6.76v0a.21.21,0,0,0,0,.12.24.24,0,0,0,.06.16v0a.2.2,0,0,1,0-.07.24.24,0,0,1,0-.11h0l0,0h0a.08.08,0,0,0,0,0m.5,0h0v0h-.09a.19.19,0,0,0,.09.13.19.19,0,0,0,.12,0h0a.2.2,0,0,1-.11-.13m-8.09-.14a.19.19,0,0,0-.06.15v0a.24.24,0,0,1,.09-.12l0,0a0,0,0,0,1,0,0m3.38-.57a.2.2,0,0,0-.13,0h.12l.06,0h-.05m.07.27h0s0,0,0,0h.15V4a.14.14,0,0,0,0-.06.13.13,0,0,0,0-.06v0l-.08-.07,0,0-.05,0,0,0,0,0a0,0,0,0,0,0,0,.16.16,0,0,1,0,.09V4m4.77.11a.07.07,0,0,1,0,0,.26.26,0,0,1,0-.12h0a.28.28,0,0,0,0-.13.31.31,0,0,0-.09-.21s0,0,0-.06a.5.5,0,0,1,0-.14.37.37,0,0,0,0-.17.31.31,0,0,0,0-.08c0,.05,0,.15-.09.14s0-.06,0-.09v0s0-.06,0-.1a.57.57,0,0,0,0-.18s0,.07,0,.08h-.06s0,0,0,0a.1.1,0,0,1,0,0l0-.11a1.27,1.27,0,0,0,0-.14s0,0,0,.06,0,.07,0,.08,0,0,0,0,0,0,0-.08a.42.42,0,0,0,0-.12s0,0,0,0v0l0,.06a.43.43,0,0,1-.13.14.39.39,0,0,1-.26.09A.83.83,0,0,1,45,2.64c-.09-.06-.25-.15-.34-.22l0,0h.14a.93.93,0,0,0,.42-.07.59.59,0,0,0,.26-.23.67.67,0,0,1,.24-.23.41.41,0,0,1,.21-.05.59.59,0,0,1,.18,0,.3.3,0,0,0-.3-.2.46.46,0,0,0-.34.17l0,0v0h0v0a.08.08,0,0,0,0,0,.48.48,0,0,0-.07-.15.61.61,0,0,0-.51-.21H44.7a10.54,10.54,0,0,0-1.11.24,9.47,9.47,0,0,1-1.27.11,1.27,1.27,0,0,1-.28,0,.35.35,0,0,1-.19-.1.16.16,0,0,1-.05-.11.18.18,0,0,1,.11-.18.56.56,0,0,1,.21,0,2.42,2.42,0,0,1,.69.2,1.08,1.08,0,0,0,.39.06,2,2,0,0,0,.67-.18.82.82,0,0,1,.38-.08h.14A.54.54,0,0,0,44,1.16a.86.86,0,0,0-.38.1h0a.06.06,0,0,1,0,0,.16.16,0,0,1,0-.11A.3.3,0,0,1,43.79,1,.5.5,0,0,0,43.63,1a1.37,1.37,0,0,0-.31,0h0a1.15,1.15,0,0,0-.45.1,1.19,1.19,0,0,1-.42.09h-.16a1.22,1.22,0,0,0-.45.07.31.31,0,0,0-.18.28.34.34,0,0,0,.19.29,1.17,1.17,0,0,0,.54.11h0A10.77,10.77,0,0,0,44,1.68a3.32,3.32,0,0,1,.68-.11.56.56,0,0,1,.3.07.25.25,0,0,1,.13.24.27.27,0,0,1-.07.2.35.35,0,0,1-.28.1,5.12,5.12,0,0,1-.59-.08h0l-.16,0C43.69,2,43.26,2,43,2H43a7.57,7.57,0,0,0-.89.09c-.35.05-.68.13-.79.15v.34l-.09-.15v0a1.28,1.28,0,0,1,0,.33l0,.09v0L41,3l-.07-.11a.74.74,0,0,1-.17.37l-.11.1h0l0,0-.14.08V3.27a.38.38,0,0,1-.09.09.29.29,0,0,1-.18.08h-.06l-.12,0,.06-.1s0,0,0,0a.33.33,0,0,0,0-.1h0s0,0-.06,0H40a1.3,1.3,0,0,0-.47.17l-.39.23-.24.14a1.3,1.3,0,0,1-.39.14h-.11a.2.2,0,0,1-.14,0,.38.38,0,0,1-.16,0A.48.48,0,0,1,38,3.63s0,0-.06-.08a.32.32,0,0,0-.13.24.15.15,0,0,0,0,.07v0h0a1.64,1.64,0,0,0,.42,0h0a0,0,0,0,1,0,0h0s0,0,0,0a1.71,1.71,0,0,1-.44.05h0a.53.53,0,0,0,.06.19.17.17,0,0,0,.12.08h0a1.33,1.33,0,0,1,.36-.2h0s0,0,0,0h0a0,0,0,0,1,0,0h0a.31.31,0,0,0-.1,0l-.1,0h0v0l.09.14a.11.11,0,0,0,.08,0s.09,0,.14-.1a.17.17,0,0,1,.15-.08h.24a.14.14,0,0,0,.08,0s0,0,0,0l0,0,.13,0,.19,0h0l0,0a.1.1,0,0,1,0-.06.05.05,0,0,1,0,0,0,0,0,0,1,0,0l0,0,0,0h0a.69.69,0,0,0,.36.1h.09l-.07-.05a.08.08,0,0,1,0,0V4h0l.09,0h.07l.17,0a.27.27,0,0,0,.16,0l-.11-.1a0,0,0,0,1,0,0,0,0,0,0,1,0,0h.11l.07,0a.6.6,0,0,0,.2,0,.24.24,0,0,0,.15,0l-.07-.05a0,0,0,0,1,0,0v0l0,0h.1a.3.3,0,0,0,.2,0l-.11-.14,0,0,0,0,.19,0a3.2,3.2,0,0,0,.57-.25,5.56,5.56,0,0,1,1.22-.61l.3,0a1.23,1.23,0,0,1,.29,0,.55.55,0,0,1,.25.17,3.45,3.45,0,0,1,.26.28l.21.2,0,0,0,0,.09,0a.81.81,0,0,0,.21.1s0-.18,0-.15a.23.23,0,0,1,.07.07l.08.06a.26.26,0,0,0,.15.06h0l-.06-.06v0s0,0,0,0h.17a1.1,1.1,0,0,0,.25,0l.26-.07h0l.06,0,0,0s0,0,.06.07a.24.24,0,0,0,0,.07.81.81,0,0,1,.1.33.17.17,0,0,1,0,.07.35.35,0,0,1-.06.2.23.23,0,0,1-.16.11h-.08l-.15,0h0a.1.1,0,0,0-.06.09.15.15,0,0,0,0,.08h0l0,0a.11.11,0,0,0,.09,0h0a.19.19,0,0,0,.1,0l.06-.06h0l.07-.09h.05s0,0,0,0v0h0l0,0,0,0,0,0h0v0l0,0,.06.06,0,0c.05,0,.09,0,.12-.07a.35.35,0,0,0,0-.08.36.36,0,0,0,0-.14V4.07h0V4h0l0,0h0V4.2s0,.07,0,.09h.2a.06.06,0,0,0,0,0,.07.07,0,0,0,0-.07v0s0-.06,0-.07l0,0M43.8,3.67l-.12,0a.27.27,0,0,1-.13-.22.38.38,0,0,1,.11-.25L43.81,3l-.21-.21a.69.69,0,0,0-.2-.13.37.37,0,0,0-.25.05.61.61,0,0,0-.14.07.84.84,0,0,0-.31.41l0,0,.08-.05h.06v.09a.25.25,0,0,1,0,.07.88.88,0,0,0,0,.16.53.53,0,0,1,.07-.09h0s0,0,0,0v0a.5.5,0,0,0,0,.21.15.15,0,0,1,0,.17.4.4,0,0,1-.13.13l-.11,0a.5.5,0,0,0-.16,0c-.07,0-.13.07-.2.09h-.06A.34.34,0,0,1,42.1,4a.14.14,0,0,1,0-.1.24.24,0,0,1,.08-.17h-.23a.15.15,0,0,0-.08,0h0v0l0,0s0,.07,0,.13,0,.12-.05.16v0a.2.2,0,0,0,.05.13.63.63,0,0,0,.32.2,2.12,2.12,0,0,0,.29.06h0l.27-.07.3,0-.1,0h0s0,0,0,0v0l0,0h.38a.23.23,0,0,0,.15-.07h0l0,0-.05,0h0a0,0,0,0,1,0,0h0s0,0,0,0h.11a.58.58,0,0,0,.14,0,.66.66,0,0,0,.15-.09h0l-.09-.06h0s0,0,0,0h.14l.14,0,0,0H43.8m-2.46.49,0,.06h0a.15.15,0,0,1,.11,0s0,0,0,0h0v0a.24.24,0,0,0-.11.08m.39.17s0,0,0,0h0v0a.09.09,0,0,0,0,0l.07.06h.08a.08.08,0,0,0,.08,0l0-.06a.62.62,0,0,1-.19-.12h0m0-.07a.34.34,0,0,1,0-.16v0h-.14a.16.16,0,0,0,0,.06s0,0,0,.07,0,0,0,0l0,0,.13,0h0l0,0m-.09.19a.2.2,0,0,0,0,.14h0v0l.05-.07a.07.07,0,0,1,0,0h0M38.9,1.3a.38.38,0,0,0,.17.08.57.57,0,0,0,.18,0l.33,0,.31,0a.46.46,0,0,1,.3.09.48.48,0,0,0-.29-.13,1.82,1.82,0,0,0-.33,0,1.71,1.71,0,0,1-.32,0A.34.34,0,0,1,39,1.17h0s-.09,0-.11,0a.07.07,0,0,0,0,.11Z"/><path class="cls-4" d="M39.19,12.46c0-.1,0-.19.06-.29h0a2.83,2.83,0,0,0,.81.21,4.24,4.24,0,0,1,1.35.4,2.32,2.32,0,0,0-.35-.12,2.83,2.83,0,0,0-1-.1,3.27,3.27,0,0,1-.92-.1m5.33.13a3.49,3.49,0,0,1-1,.08,3.48,3.48,0,0,0-1,.09,2.85,2.85,0,0,0-.42.12,3.21,3.21,0,0,1,.47-.08,3.76,3.76,0,0,1,1,0,3,3,0,0,0,.94,0c0-.08,0-.17,0-.25m-2.25.19.35-.12a2.83,2.83,0,0,1,1-.1,3.27,3.27,0,0,0,.92-.1,2.93,2.93,0,0,0-.05-.29h0a3,3,0,0,1-.82.21,4.24,4.24,0,0,0-1.35.4m-2.13-.11a3.4,3.4,0,0,1-1-.08c0,.08,0,.17-.05.25a3,3,0,0,0,.94,0,3.8,3.8,0,0,1,1,0l.47.08a2.85,2.85,0,0,0-.42-.12,3.48,3.48,0,0,0-1-.09m-.37-2.11-.49,1.49c.41.26,1.94.2,2.51.88V11.35c-.15-.68-1.6-.52-2-.79m4.14,0c-.42.27-1.87.11-2,.79v1.58c.57-.68,2.1-.62,2.51-.88Z"/><path class="cls-4" d="M37.14,6.61l.07.11a.13.13,0,0,0,.13.08h0a.7.7,0,0,0-.06.24V7.1a.29.29,0,0,1,0,.16l0,0a.19.19,0,0,0-.06.18h0a.18.18,0,0,0,.15.1l.06,0a.33.33,0,0,1,.11.12l0,0a.52.52,0,0,0,.22.18.15.15,0,0,0-.08.16l0,.14a.15.15,0,0,0,.15.12h0l.13,0a.15.15,0,0,0,.12-.1.69.69,0,0,0,.21.13l.05,0a.34.34,0,0,1,.15.06l0,.05a.17.17,0,0,0,.15.11h0c.08,0,.12-.07.15-.11l0-.05s.1,0,.14-.06l.06,0a.5.5,0,0,0,.23-.16l0,.07a.24.24,0,0,0,.11.06h.15a.15.15,0,0,0,.15-.14V8.06a.14.14,0,0,0,0-.11l0,0a.53.53,0,0,0,.18-.16l0,0a.63.63,0,0,1,.1-.12h.06a.18.18,0,0,0,.15-.11h0c0-.08,0-.14-.06-.18l0,0a.39.39,0,0,1,0-.16V7a.59.59,0,0,0-.07-.27h0a.15.15,0,0,0,.14-.09l.06-.13a.11.11,0,0,0,0-.11.14.14,0,0,0-.08-.09l-.12,0-.06,0a.17.17,0,0,0-.1,0,.57.57,0,0,0-.09-.22l0,0a.5.5,0,0,1-.08-.14.43.43,0,0,0,0-.05.19.19,0,0,0-.06-.18h0a.11.11,0,0,0-.08,0,.29.29,0,0,0-.1,0l-.06,0h0l-.14,0-.06,0-.17,0-.11,0a.11.11,0,0,0,0-.08.14.14,0,0,0,0-.1l-.1-.09a.15.15,0,0,0-.11,0,.16.16,0,0,0-.11,0l-.09.1a.14.14,0,0,0,0,.15h-.07l-.18,0-.05,0a.37.37,0,0,1-.14,0h0l-.06,0-.1,0a.11.11,0,0,0-.08,0h0a.17.17,0,0,0-.06.18v.06s-.05.09-.08.13l0,0a.61.61,0,0,0-.1.26.18.18,0,0,0-.1,0l-.08,0-.12.07a.16.16,0,0,0-.07.09.17.17,0,0,0,0,.12"/><path class="cls-4" d="M38.7,6.31a.31.31,0,0,1,.3.25h0a.31.31,0,0,1,.15.58.31.31,0,0,1,0,.19.34.34,0,0,1-.13.2.3.3,0,0,1-.18.06.3.3,0,0,1-.21-.08.31.31,0,0,1-.22.09.28.28,0,0,1-.18-.06.32.32,0,0,1-.11-.39A.33.33,0,0,1,38.07,7a.39.39,0,0,1,0-.24.33.33,0,0,1,.3-.22h0a.34.34,0,0,1,.08-.17.32.32,0,0,1,.23-.09"/><path class="cls-3" d="M38.74,6.31a.31.31,0,0,1,.26.25h0a.31.31,0,0,1,.28.18,1.22,1.22,0,0,0,.25-.11c.25-.12.27-.28.14-.48a.65.65,0,0,1-.13-.23c0-.07,0-.14,0-.16h0s-.08,0-.14,0-.2,0-.27,0-.37,0-.41.27a1.14,1.14,0,0,0,0,.28m-.07-.58h0l.09-.14a0,0,0,0,0,0,0l-.1-.09s0,0-.05,0l-.09.1a0,0,0,0,0,0,0Zm-.85.91c.06,0,.15.07.25.1a.32.32,0,0,1,.28-.18h0a.34.34,0,0,1,.08-.17.4.4,0,0,1,.2-.09,1,1,0,0,0,0-.27c0-.28-.19-.35-.41-.28a.59.59,0,0,1-.27,0c-.07,0-.12-.06-.14,0s0,.08,0,.15a.62.62,0,0,1-.13.24c-.13.19-.11.35.13.48m-.58-.09.07.12a0,0,0,0,0,0,0l.15-.06a0,0,0,0,0,0,0l-.11-.13a0,0,0,0,0-.05,0l-.12.07a0,0,0,0,0,0,0m2.66.06.16,0s0,0,0,0l0-.13s0,0,0,0L40,6.4s0,0-.05,0l-.09.14a0,0,0,0,0,0,.05M38,8s0,0,0,0L37.8,8s0,0,0,0l0,.13s0,0,0,0l.13,0s0,0,0,0Zm2-1c0-.23-.12-.35-.39-.31a1.35,1.35,0,0,0-.27.07.31.31,0,0,1-.15.34.31.31,0,0,1,0,.19.32.32,0,0,1-.1.18,1.81,1.81,0,0,0,.17.19c.2.2.36.17.5,0s.1-.16.19-.19.13,0,.14-.06-.05-.06-.09-.12A.64.64,0,0,1,40,7m-1.81.11A.33.33,0,0,1,38.07,7a.34.34,0,0,1,0-.22,1.09,1.09,0,0,0-.25-.06c-.28,0-.39.07-.4.31a.58.58,0,0,1,0,.26c0,.06-.09.1-.09.13s.09,0,.15,0a.57.57,0,0,1,.18.2.29.29,0,0,0,.5,0,1.31,1.31,0,0,0,.17-.2.32.32,0,0,1-.08-.36M39.62,8l-.16,0s0,0,0,0l0,.17s0,0,0,0h.13s0,0,0,0l0-.13a0,0,0,0,0,0,0m-.4-.24c.13.24.05.39-.17.47a.51.51,0,0,0-.25.11c0,.05-.06.12-.09.12s-.05-.07-.09-.12a.51.51,0,0,0-.25-.11c-.22-.08-.3-.23-.17-.47a2,2,0,0,1,.13-.22.3.3,0,0,0,.16,0,.31.31,0,0,0,.22-.09.3.3,0,0,0,.21.08.29.29,0,0,0,.16,0,1,1,0,0,1,.14.22"/><path class="cls-3" d="M38.29,7.06h.05l0,0a0,0,0,0,1,0,0l0,0a.19.19,0,0,0,.05.27.19.19,0,0,0,.27,0s0,0,0-.05h0l0,0,.05,0h0a.05.05,0,0,0,0,0,.19.19,0,0,0,.27.05.21.21,0,0,0,0-.28l0,0h0a0,0,0,0,1,0,0,0,0,0,0,1,0,0h0a.21.21,0,0,0,.12-.25A.2.2,0,0,0,39,6.68l-.05,0h0s0,0,0,0v0a.19.19,0,0,0-.19-.19.19.19,0,0,0-.2.19.07.07,0,0,0,0,0,0,0,0,0,1,0,0,0,0,0,0,1,0,0l-.05,0a.2.2,0,0,0-.24.13.18.18,0,0,0,.12.24"/><path class="cls-4" d="M38.54,7a.15.15,0,0,1,.15-.15.15.15,0,0,1,.15.15.16.16,0,0,1-.15.16A.15.15,0,0,1,38.54,7"/><path class="cls-4" d="M46.54,6.61l-.07.11a.14.14,0,0,1-.13.08h0a.54.54,0,0,1,0,.24V7.1a.41.41,0,0,0,0,.16l0,0a.19.19,0,0,1,.06.18h0a.18.18,0,0,1-.16.1l-.05,0s-.08.07-.11.12l0,0a.52.52,0,0,1-.22.18A.15.15,0,0,1,46,8.1l0,.14a.16.16,0,0,1-.15.12h0l-.14,0a.14.14,0,0,1-.11-.1.69.69,0,0,1-.21.13l-.06,0s-.12,0-.14.06l0,.05a.17.17,0,0,1-.15.11h0a.17.17,0,0,1-.15-.11l0-.05a.35.35,0,0,0-.14-.06l-.06,0a.5.5,0,0,1-.23-.16.16.16,0,0,1,0,.07.17.17,0,0,1-.1.06h-.15a.15.15,0,0,1-.15-.14l0-.13a.15.15,0,0,1,0-.11l0,0a.56.56,0,0,1-.19-.16l0,0a.43.43,0,0,0-.11-.12h0a.17.17,0,0,1-.15-.11h0a.17.17,0,0,1,.06-.18l0,0a.39.39,0,0,0,0-.16V7a.48.48,0,0,1,.07-.27h0a.17.17,0,0,1-.14-.09l-.05-.13a.11.11,0,0,1,0-.11.14.14,0,0,1,.08-.09l.12,0,.06,0a.17.17,0,0,1,.1,0,.57.57,0,0,1,.09-.22l0,0s.08-.1.08-.14V5.85A.19.19,0,0,1,44,5.67h0a.11.11,0,0,1,.08,0,.29.29,0,0,1,.1,0l0,0h0l.14,0,0,0,.18,0,.1,0a.19.19,0,0,1,0-.08.14.14,0,0,1,0-.1l.1-.09a.14.14,0,0,1,.1,0,.17.17,0,0,1,.12,0l.09.1a.14.14,0,0,1,0,.15h.07l.17,0,.06,0a.37.37,0,0,0,.14,0h0l.06,0,.1,0a.11.11,0,0,1,.08,0h0a.19.19,0,0,1,.06.18s0,0,0,.06a.66.66,0,0,0,.08.13l0,0a.61.61,0,0,1,.1.26.15.15,0,0,1,.1,0l.08,0,.12.07a.16.16,0,0,1,.07.09.17.17,0,0,1,0,.12"/><path class="cls-4" d="M45,6.31a.32.32,0,0,0-.31.25h0a.32.32,0,0,0-.3.21.32.32,0,0,0,.15.37.31.31,0,0,0,0,.19.3.3,0,0,0,.13.2.28.28,0,0,0,.18.06A.32.32,0,0,0,45,7.51a.31.31,0,0,0,.22.09.3.3,0,0,0,.18-.06.32.32,0,0,0,.1-.39A.24.24,0,0,0,45.6,7a.29.29,0,0,0,0-.24.31.31,0,0,0-.3-.22h0a.28.28,0,0,0-.09-.17A.31.31,0,0,0,45,6.31"/><path class="cls-3" d="M44.94,6.31a1.14,1.14,0,0,0,0-.28c0-.27-.19-.34-.41-.27s-.18.07-.27,0-.12-.06-.14,0h0s0,.09,0,.16a.65.65,0,0,1-.13.23c-.13.2-.11.36.14.48a1,1,0,0,0,.25.11.31.31,0,0,1,.28-.18h0a.33.33,0,0,1,.27-.25m.17-.71a0,0,0,0,0,0,0L45,5.45a0,0,0,0,0-.05,0l-.1.09s0,0,0,0l.08.14h0Zm.74,1c.25-.13.27-.29.14-.48a.62.62,0,0,1-.13-.24c0-.07,0-.14,0-.15s-.08,0-.14,0a.59.59,0,0,1-.27,0c-.22-.07-.37,0-.41.28a1,1,0,0,0,0,.27.34.34,0,0,1,.19.09.28.28,0,0,1,.09.17h0a.33.33,0,0,1,.29.18,2.21,2.21,0,0,0,.24-.1m.59-.09a0,0,0,0,0,0,0l-.12-.07a0,0,0,0,0-.05,0l-.11.13a0,0,0,0,0,0,0l.16.06a0,0,0,0,0,0,0Zm-2.66.06a0,0,0,0,0,0-.05l-.1-.14s0,0,0,0l-.13.06s0,0,0,0l0,.13s0,0,0,0Zm1.89,1.56s0,0,0,0l.13,0s0,0,0,0l0-.13s0,0,0,0L45.72,8s0,0,0,0ZM43.67,7a.66.66,0,0,1,0,.27c0,.06-.09.1-.08.12s.08,0,.14.06.14.14.19.19.3.22.5,0a1.12,1.12,0,0,0,.16-.19.32.32,0,0,1-.06-.37.3.3,0,0,1-.15-.34,1.54,1.54,0,0,0-.27-.07c-.27,0-.38.08-.39.31m1.8.11a.3.3,0,0,1-.07.36,1.31,1.31,0,0,0,.17.2.29.29,0,0,0,.5,0,.57.57,0,0,1,.18-.2c.06,0,.13,0,.14,0s0-.07-.08-.13,0-.19,0-.26c0-.24-.12-.36-.39-.31a1.09,1.09,0,0,0-.25.06.29.29,0,0,1,0,.22.24.24,0,0,1-.13.13M44.05,8s0,0,0,0l0,.13s0,0,0,0h.14s0,0,0,0V8a0,0,0,0,0,0,0Zm.41-.24a1.38,1.38,0,0,1,.13-.22.33.33,0,0,0,.17,0A.32.32,0,0,0,45,7.51a.31.31,0,0,0,.22.09.3.3,0,0,0,.16,0,2,2,0,0,1,.13.22c.13.24.05.39-.17.47a.51.51,0,0,0-.25.11c0,.05-.06.12-.09.12s0-.07-.09-.12a.51.51,0,0,0-.25-.11c-.22-.08-.3-.23-.17-.47"/><path class="cls-3" d="M45.39,7.06h-.06l0,0a0,0,0,0,0,0,0l0,0a.19.19,0,0,1-.05.27.18.18,0,0,1-.27,0s0,0,0-.05h0l0,0,0,0h0a.05.05,0,0,1,0,0,.21.21,0,0,1-.28.05.22.22,0,0,1,0-.28l0,0h0s0,0,0,0a0,0,0,0,0,0,0h0a.2.2,0,0,1,.12-.38l.05,0h0s0,0,0,0v0A.18.18,0,0,1,45,6.43a.19.19,0,0,1,.2.19.43.43,0,0,1,0,0,0,0,0,0,0,0,0,0,0,0,0,0,0,0l0,0a.2.2,0,0,1,.25.13.19.19,0,0,1-.12.24"/><path class="cls-4" d="M45.14,7A.15.15,0,0,0,45,6.83a.16.16,0,0,0-.16.15.16.16,0,0,0,.16.16A.16.16,0,0,0,45.14,7"/><path class="cls-4" d="M46.53,10.06a4,4,0,0,1-1.12.14,4.53,4.53,0,0,1-1-.11,3.8,3.8,0,0,1-.54-.18,8,8,0,0,0-.8-.3,4.78,4.78,0,0,0-1.21-.14,4.19,4.19,0,0,0-1.1.12,3.81,3.81,0,0,0-.57.19,7.91,7.91,0,0,1-.78.28,4,4,0,0,1-1.12.14,4.39,4.39,0,0,1-1-.11,3.39,3.39,0,0,1-.51-.17c.06.14.12.27.19.4l.14,0a4.24,4.24,0,0,0,1.2.15,4.6,4.6,0,0,0,1.1-.12A4,4,0,0,0,40,10.2c.26-.1.49-.21.77-.29a4.09,4.09,0,0,1,1.12-.13,3.9,3.9,0,0,1,1,.11c.2,0,.37.11.54.17a8.22,8.22,0,0,0,.81.3,4.24,4.24,0,0,0,1.2.15,4.6,4.6,0,0,0,1.1-.12l.24-.07c.07-.13.13-.26.19-.39l-.41.13"/><path class="cls-4" d="M45.41,9.58a4.53,4.53,0,0,1-1-.11,3.8,3.8,0,0,1-.54-.18,8,8,0,0,0-.8-.3,4.31,4.31,0,0,0-1.21-.15,4.66,4.66,0,0,0-1.1.12,5.43,5.43,0,0,0-.57.19,6,6,0,0,1-.78.29,4,4,0,0,1-1.12.14,4.39,4.39,0,0,1-1-.11,3.8,3.8,0,0,1-.54-.18l-.27-.11.15.4.48.16a4.24,4.24,0,0,0,1.2.15,4.6,4.6,0,0,0,1.1-.12A5.65,5.65,0,0,0,40,9.58a6.43,6.43,0,0,1,.77-.29,4,4,0,0,1,1.12-.14,4.39,4.39,0,0,1,1,.11,3.8,3.8,0,0,1,.54.18,8.22,8.22,0,0,0,.81.3,4.24,4.24,0,0,0,1.2.15,4.6,4.6,0,0,0,1.1-.12,5.65,5.65,0,0,0,.58-.19l.15-.4a5,5,0,0,1-.71.26,4,4,0,0,1-1.12.14"/><path class="cls-4" d="M36.34,8.88a7.55,7.55,0,0,0,.73.27,4.69,4.69,0,0,0,1.2.14,4.6,4.6,0,0,0,1.1-.12A4,4,0,0,0,40,9a6.39,6.39,0,0,1,.77-.28,4,4,0,0,1,1.12-.14,3.9,3.9,0,0,1,1,.11,3.8,3.8,0,0,1,.54.18,8.22,8.22,0,0,0,.81.3,4.69,4.69,0,0,0,1.2.14,4.6,4.6,0,0,0,1.1-.12A4,4,0,0,0,47.09,9l.25-.1c0-.13.08-.25.11-.38l-.14.06a7.91,7.91,0,0,1-.78.29,4.84,4.84,0,0,1-2.14,0c-.2,0-.37-.11-.54-.17a6.11,6.11,0,0,0-.8-.3,4.31,4.31,0,0,0-1.21-.15,4.66,4.66,0,0,0-1.1.12,3.81,3.81,0,0,0-.57.19,7.91,7.91,0,0,1-.78.29A4,4,0,0,1,38.27,9a3.9,3.9,0,0,1-1-.11c-.2,0-.37-.11-.54-.17l-.48-.2.11.38"/></g></g></svg>