<svg id="Layer_1" data-name="Layer 1" xmlns="http://www.w3.org/2000/svg" viewBox="0 0 256.71 57.45"><defs><style>.cls-1{fill:#ecc931;}.cls-2{fill:#da1c24;}</style></defs><title>logo_hacer</title><path class="cls-1" d="M12.12,43.73V37.38h6.36v6.35Zm6.36-6.35V31h6.35v6.36Zm0,12.7V43.73h6.35v6.35ZM24.83,31V24.67h6.35V31Zm0,25.42V50.08h6.35v6.36Zm6.35-31.77V18.32h6.36v6.35Zm0,38.12V56.44h6.36v6.35Zm6.36-44.47V12h6.35v6.36Zm0,50.83V62.79h6.35v6.36Z" transform="translate(-12.12 -11.96)"/><path class="cls-1" d="M75.17,43.73V37.38h6.35v6.35Zm6.35-6.35V31h6.36v6.36Zm0,12.7V43.73h6.36v6.35ZM87.88,31V24.67h6.35V31Zm0,25.42V50.08h6.35v6.36Zm6.35-31.77V18.32h6.36v6.35Zm0,38.12V56.44h6.36v6.35Zm6.36-44.47V12h6.35v6.36Zm0,50.83V62.79h6.35v6.36Z" transform="translate(-12.12 -11.96)"/><path class="cls-2" d="M141.39,46.91V34.2H154.1V46.91Z" transform="translate(-12.12 -11.96)"/><path class="cls-1" d="M183.79,18.59V12.23h6.36v6.36Zm0,50.83V63.06h6.36v6.36Zm6.36-44.48V18.59h6.35v6.35Zm0,38.12V56.71h6.35v6.35Zm6.35-31.77V24.94h6.36v6.35Zm0,25.42V50.35h6.36v6.36Zm6.36-19.06V31.29h6.35v6.36Zm0,12.7V44h6.35v6.35ZM209.21,44V37.65h6.35V44Z" transform="translate(-12.12 -11.96)"/><path class="cls-1" d="M237.07,18.59V12.23h6.35v6.36Zm0,50.83V63.06h6.35v6.36Zm6.35-44.48V18.59h6.36v6.35Zm0,38.12V56.71h6.36v6.35Zm6.36-31.77V24.94h6.35v6.35Zm0,25.42V50.35h6.35v6.36Zm6.35-19.06V31.29h6.35v6.36Zm0,12.7V44h6.35v6.35ZM262.48,44V37.65h6.36V44Z" transform="translate(-12.12 -11.96)"/></svg>