<svg width="116" height="83" viewBox="0 0 116 83" fill="#2727dc" xmlns="http://www.w3.org/2000/svg">
<path d="M74.3268 82.6732L115.262 41.7383L74.3268 0.803482L66.6992 8.43109L91.7856 33.5175L83.5647 41.7383L91.7856 49.9592L66.6992 75.0456L74.3268 82.6732Z"/>
<path d="M74.2421 49.3659L81.8697 41.7383L74.2421 34.1107L66.6145 41.7383L74.2421 49.3659Z"/>
<path d="M57.8003 49.366L65.4279 41.7384L57.8003 34.1107L50.1727 41.7384L57.8003 49.366Z"/>
<path d="M7.62759 49.366L15.2552 41.7383L7.62759 34.1107L-3.05176e-05 41.7383L7.62759 49.366Z"/>
<path d="M24.4083 49.366L32.0359 41.7384L24.4083 34.1107L16.7807 41.7384L24.4083 49.366Z"/>
<path d="M40.8501 49.366L48.4777 41.7384L40.8501 34.1107L33.2225 41.7384L40.8501 49.366Z"/>
</svg>
