<svg xmlns="http://www.w3.org/2000/svg" viewBox="0 0 40.88 12.07"><g id="Capa_2" data-name="Capa 2"><g id="Layer_1" data-name="Layer 1"><path d="M37.22,2.21c-.22,0-.27.11-.27.27v.08h.32v.32H37V4.35h-.47V2.88h-.2V2.56h.2V2.43c0-.36.23-.55.62-.55h.21v.32Z"/><path d="M40.18,9.77V7.56a.47.47,0,0,0-.52-.5.63.63,0,0,0-.49.18,1.13,1.13,0,0,1,0,.43v2.1h-.71V7.56c0-.25-.06-.52-.52-.52a.78.78,0,0,0-.43.1V9.77h-.71V6.86A2.79,2.79,0,0,1,38,6.6a1.34,1.34,0,0,1,.9.26,1.47,1.47,0,0,1,.89-.26.93.93,0,0,1,1.06,1V9.77Z"/><path d="M32.79,5.07a1.35,1.35,0,0,1-.61-.13l.1-.28a1,1,0,0,0,.44.1c.3,0,.39-.14.39-.37V4.27a.74.74,0,0,1-.37.08c-.44,0-.63-.22-.63-.58V2.56h.47V3.75a.25.25,0,0,0,.29.29A.55.55,0,0,0,33.11,4V2.56h.48V4.28a.71.71,0,0,1-.8.79"/><path d="M31.52,4.37A.45.45,0,0,1,31,3.89v-1h-.19V2.56H31V2.19l.48-.13v.5h.29v.32h-.29v1c0,.16.08.21.19.21h.17v.3a1.42,1.42,0,0,1-.32,0"/><rect x="30.02" y="2.56" width="0.47" height="1.79"/><path d="M29,4.39a1.22,1.22,0,0,1-.56-.13L28.6,4a.9.9,0,0,0,.37.1c.17,0,.27-.06.27-.19s-.08-.19-.29-.27a.55.55,0,0,1,.2-1.08,1,1,0,0,1,.51.13l-.13.28a.58.58,0,0,0-.32-.09c-.16,0-.24.07-.24.18s.12.17.29.24a.57.57,0,0,1,.43.57.58.58,0,0,1-.65.56"/><path d="M28.33,2.88l-.22,0-.2,0V4.35h-.47V2.66a2,2,0,0,1,.66-.12,1.62,1.62,0,0,1,.3,0Z"/><path d="M32.82,9.77V7.61a.46.46,0,0,0-.52-.52.94.94,0,0,0-.52.15V9.77h-.71V5.61h.71V6.77a1.84,1.84,0,0,1,.69-.14c.77,0,1.05.46,1.05.93V9.77Z"/><path d="M23.36,2.34a.22.22,0,0,1-.25-.23.22.22,0,0,1,.25-.23.23.23,0,1,1,0,.46"/><path d="M24.89,4.35h-.45l-.62-1.79h.51l.23.84a3.26,3.26,0,0,1,.11.4h0a3.42,3.42,0,0,1,.09-.4L25,2.56h.47Z"/><rect x="23.12" y="2.56" width="0.47" height="1.79"/><path d="M30.26,2.34A.22.22,0,0,1,30,2.11a.22.22,0,0,1,.25-.23.23.23,0,1,1,0,.46"/><path d="M22.3,4.35V3.09c0-.13-.06-.25-.29-.25a.61.61,0,0,0-.24,0V4.35h-.48V2.66A2,2,0,0,1,22,2.52c.54,0,.74.27.74.57V4.35Z"/><path d="M24.27,6.27a.37.37,0,1,1,.4-.37.37.37,0,0,1-.4.37"/><path d="M26.85,9.77V7.56c0-.25-.1-.52-.55-.52a1,1,0,0,0-.48.1V9.77h-.7V6.86a2.91,2.91,0,0,1,1.21-.26c.93,0,1.23.46,1.23,1V9.77Z"/><path d="M20.15,4.39a.72.72,0,0,1-.81-.72V2.07h.5v1.6c0,.22.11.33.31.33s.31-.11.31-.33V2.07H21v1.6a.72.72,0,0,1-.81.72"/><rect x="23.92" y="6.66" width="0.71" height="3.11"/><path d="M23,9.81A.76.76,0,0,1,22.18,9V7.11h-.35V6.66h.35V6l.7-.2v.82h.5v.45h-.5V9c0,.28.15.36.35.36h.21v.46a3.13,3.13,0,0,1-.41,0"/><path d="M21.19,9.81A.76.76,0,0,1,20.34,9V7.11H20V6.66h.35V6l.7-.2v.82h.5v.45H21V9c0,.28.15.36.35.36h.21v.46a3.13,3.13,0,0,1-.41,0"/><path d="M16.1,4.35V3.09c0-.14-.07-.25-.27-.25a.47.47,0,0,0-.26.07V4.35H15.1V1.91h.47v.7a.79.79,0,0,1,.36-.09c.47,0,.65.28.65.56V4.35Z"/><polygon points="14.38 2.44 14.38 4.35 13.88 4.35 13.88 2.44 13.42 2.44 13.42 2.07 14.85 2.07 14.85 2.44 14.38 2.44"/><path d="M6.29,1.93V.87a5.12,5.12,0,0,1,1.3.52v1a6.66,6.66,0,0,0-1.3-.46"/><path d="M16.14,9.77,14.66,7.28c-.09-.16-.16-.31-.24-.49h0a3.34,3.34,0,0,1,0,.51V9.77h-.68v-4h.72l1.38,2.33a3.15,3.15,0,0,1,.22.45h0a4.11,4.11,0,0,1,0-.47V5.81h.68v4Z"/><path d="M5.52,7.29l.07-2.18a.24.24,0,0,1,.24-.24.23.23,0,0,1,.23.24l.08,2.18Z"/><path d="M5.83,11.44A3.69,3.69,0,0,1,4,10.9a3.61,3.61,0,0,0-1.73-.45A4.24,4.24,0,0,0,0,11.12,2.78,2.78,0,0,1,2.43,9.81a4.7,4.7,0,0,1,2.24.6,3.43,3.43,0,0,0,1.7.45,2.58,2.58,0,0,0,1.71-.63,2.76,2.76,0,0,1-2.25,1.21"/><path d="M35.29,2.52c-.54,0-.79.4-.79.93s.25.94.79.94.78-.4.78-.94-.25-.93-.78-.93m0,1.55c-.25,0-.3-.27-.3-.62s0-.61.3-.61.3.27.3.61-.06.62-.3.62"/><path d="M35.16,6.6a2.47,2.47,0,0,0-1.06.24l.16.42A1.81,1.81,0,0,1,35,7.07c.37,0,.62.1.62.51v.17a2.84,2.84,0,0,0-.45,0c-.72,0-1.3.37-1.3,1.11s.41,1,1.28,1a2.7,2.7,0,0,0,1.15-.22V7.69c0-.81-.52-1.09-1.17-1.09m.49,2.78a1.36,1.36,0,0,1-.42.08.6.6,0,0,1-.62-.67.61.61,0,0,1,.64-.68,2.22,2.22,0,0,1,.4,0Z"/><path d="M27.14,3.41c0-.56-.29-.89-.78-.89s-.79.35-.79.93a.83.83,0,0,0,.86.94,1.35,1.35,0,0,0,.64-.14L27,3.93a1,1,0,0,1-.47.11C26.26,4,26.06,4,26,3.6h1.11Zm-.45-.11H26c0-.35.14-.47.33-.47s.34.11.34.45Z"/><path d="M29.5,6.61c-1,0-1.5.63-1.5,1.64s.49,1.55,1.24,1.55a1.35,1.35,0,0,0,.62-.12v.2c0,.41-.22.68-.74.68a1.63,1.63,0,0,1-.76-.18l-.19.44a2.24,2.24,0,0,0,1.07.23,1.17,1.17,0,0,0,1.31-1.24v-3a2.37,2.37,0,0,0-1.05-.21m.36,2.62a.86.86,0,0,1-.41.1c-.5,0-.72-.37-.72-1.08S29,7,29.49,7a.84.84,0,0,1,.37.07Z"/><path d="M18.38,3.41c0-.56-.29-.89-.78-.89s-.8.35-.8.93a.83.83,0,0,0,.87.94,1.35,1.35,0,0,0,.64-.14l-.12-.32a1.05,1.05,0,0,1-.47.11c-.22,0-.42-.09-.45-.44h1.11Zm-.46-.11h-.67c0-.35.14-.47.34-.47s.33.11.33.45Z"/><path d="M18.49,6.6c-.88,0-1.32.68-1.32,1.62s.44,1.61,1.32,1.61,1.32-.67,1.32-1.61S19.37,6.6,18.49,6.6m0,2.8c-.48,0-.56-.62-.56-1.18S18.05,7,18.53,7s.57.63.57,1.19S19,9.4,18.53,9.4"/><path d="M6.29,2.17A6.21,6.21,0,0,0,5.41,2V.69a6.58,6.58,0,0,0-1-.07,7.73,7.73,0,0,0-1,.06V1.93a7.27,7.27,0,0,0-.86.17V.85a6,6,0,0,0-1.4.58V4l.59.56L1.59,7.49,1.12,8V9.66l.16.17a3.15,3.15,0,0,1,1.49-.38,4.09,4.09,0,0,1,2,.58V7.88l-.31-.4v-3l.61-1-.25.92a3.08,3.08,0,0,1,.53,0A4.6,4.6,0,0,1,7,4.72l.61-.57V2.62a6.64,6.64,0,0,0-1.3-.45M2.61,7.29l.07-2.18a.23.23,0,0,1,.23-.24.23.23,0,0,1,.23.24l.08,2.18Z"/><rect x="10.65" width="0.17" height="12.07"/></g></g></svg>