<svg id="Layer_1" data-name="Layer 1" xmlns="http://www.w3.org/2000/svg" viewBox="0 0 371.16 110.26"><defs><style>.cls-1{fill:#2727d3;}</style></defs><title>patron_calcar</title><path class="cls-1" d="M67.94,117.88a1.23,1.23,0,0,1-.89-.37l-4.73-4.73A1.26,1.26,0,0,1,64.1,111l4.72,4.73a1.25,1.25,0,0,1,0,1.77A1.21,1.21,0,0,1,67.94,117.88ZM53.75,103.69a1.23,1.23,0,0,1-.89-.37l-4.73-4.73a1.25,1.25,0,0,1,1.77-1.77l4.73,4.73a1.25,1.25,0,0,1,0,1.77A1.21,1.21,0,0,1,53.75,103.69ZM39.56,89.5a1.23,1.23,0,0,1-.89-.37L33.94,84.4a1.26,1.26,0,0,1,1.78-1.77l4.73,4.73a1.27,1.27,0,0,1,0,1.77A1.25,1.25,0,0,1,39.56,89.5ZM25.37,75.31a1.23,1.23,0,0,1-.89-.37l-4.73-4.73a1.26,1.26,0,1,1,1.78-1.77l4.72,4.73a1.25,1.25,0,0,1,0,1.77A1.21,1.21,0,0,1,25.37,75.31Z" transform="translate(-14.9 -7.62)"/><path class="cls-1" d="M20.57,57.43a1.26,1.26,0,0,1-.89-2.15l4.73-4.73a1.26,1.26,0,0,1,1.78,1.78l-4.73,4.73A1.29,1.29,0,0,1,20.57,57.43ZM34.76,43.24a1.26,1.26,0,0,1-.89-2.15l4.73-4.72a1.26,1.26,0,1,1,1.78,1.77l-4.73,4.73A1.27,1.27,0,0,1,34.76,43.24ZM49,29.05a1.29,1.29,0,0,1-.89-.37,1.26,1.26,0,0,1,0-1.77l4.73-4.73A1.26,1.26,0,1,1,54.57,24l-4.73,4.73A1.29,1.29,0,0,1,49,29.05ZM63.14,14.86a1.25,1.25,0,0,1-.89-.37,1.27,1.27,0,0,1,0-1.77L67,8a1.26,1.26,0,0,1,1.78,1.77L64,14.49A1.23,1.23,0,0,1,63.14,14.86Z" transform="translate(-14.9 -7.62)"/><path class="cls-1" d="M16.15,67.37a1.26,1.26,0,0,1-1.25-1.26V59.42a1.26,1.26,0,0,1,2.51,0v6.69A1.27,1.27,0,0,1,16.15,67.37Z" transform="translate(-14.9 -7.62)"/><path class="cls-1" d="M142.16,117.88a1.23,1.23,0,0,1-.89-.37l-4.73-4.73a1.26,1.26,0,0,1,1.78-1.77l4.73,4.73a1.27,1.27,0,0,1,0,1.77A1.25,1.25,0,0,1,142.16,117.88ZM128,103.69a1.23,1.23,0,0,1-.89-.37l-4.73-4.73a1.26,1.26,0,0,1,1.78-1.77l4.73,4.73a1.26,1.26,0,0,1-.89,2.14ZM113.78,89.5a1.25,1.25,0,0,1-.89-.37l-4.73-4.73a1.26,1.26,0,0,1,1.78-1.77l4.73,4.73a1.27,1.27,0,0,1,0,1.77A1.25,1.25,0,0,1,113.78,89.5ZM99.59,75.31a1.23,1.23,0,0,1-.89-.37L94,70.21a1.26,1.26,0,1,1,1.78-1.77l4.73,4.73a1.26,1.26,0,0,1-.89,2.14Z" transform="translate(-14.9 -7.62)"/><path class="cls-1" d="M94.8,57.43a1.27,1.27,0,0,1-.89-.37,1.26,1.26,0,0,1,0-1.78l4.73-4.73a1.26,1.26,0,1,1,1.77,1.78l-4.73,4.73A1.25,1.25,0,0,1,94.8,57.43ZM109,43.24a1.26,1.26,0,0,1-.88-2.15l4.73-4.73a1.26,1.26,0,1,1,1.77,1.78l-4.73,4.73A1.29,1.29,0,0,1,109,43.24Zm14.2-14.19a1.27,1.27,0,0,1-.89-.37,1.25,1.25,0,0,1,0-1.77L127,22.18A1.25,1.25,0,1,1,128.79,24l-4.73,4.73A1.25,1.25,0,0,1,123.18,29.05Zm14.18-14.19a1.26,1.26,0,0,1-.88-2.14L141.2,8A1.26,1.26,0,0,1,143,9.76l-4.73,4.73A1.27,1.27,0,0,1,137.36,14.86Z" transform="translate(-14.9 -7.62)"/><path class="cls-1" d="M90.37,67.37a1.26,1.26,0,0,1-1.25-1.26V59.42a1.26,1.26,0,0,1,2.51,0v6.69A1.26,1.26,0,0,1,90.37,67.37Z" transform="translate(-14.9 -7.62)"/><path class="cls-1" d="M380.32,57.43a1.25,1.25,0,0,1-.88-.37l-4.73-4.73a1.26,1.26,0,0,1,1.77-1.78l4.73,4.73a1.26,1.26,0,0,1,0,1.78A1.27,1.27,0,0,1,380.32,57.43ZM366.13,43.24a1.29,1.29,0,0,1-.89-.37l-4.72-4.73a1.25,1.25,0,1,1,1.77-1.77L367,41.09a1.26,1.26,0,0,1,0,1.78A1.27,1.27,0,0,1,366.13,43.24ZM352,29.05a1.27,1.27,0,0,1-.89-.37L346.33,24a1.25,1.25,0,0,1,1.77-1.77l4.73,4.73a1.26,1.26,0,0,1-.88,2.14Zm-14.2-14.19a1.21,1.21,0,0,1-.88-.37l-4.73-4.73A1.25,1.25,0,1,1,333.91,8l4.73,4.73a1.25,1.25,0,0,1,0,1.77A1.23,1.23,0,0,1,337.75,14.86Z" transform="translate(-14.9 -7.62)"/><path class="cls-1" d="M333.09,117.88a1.25,1.25,0,0,1-.89-.37,1.27,1.27,0,0,1,0-1.77l4.73-4.73a1.26,1.26,0,0,1,1.78,1.77L334,117.51A1.25,1.25,0,0,1,333.09,117.88Zm14.19-14.19a1.23,1.23,0,0,1-.89-.37,1.25,1.25,0,0,1,0-1.77l4.73-4.73a1.26,1.26,0,0,1,1.78,1.77l-4.73,4.73A1.25,1.25,0,0,1,347.28,103.69ZM361.47,89.5a1.23,1.23,0,0,1-.89-.37,1.25,1.25,0,0,1,0-1.77l4.73-4.73a1.25,1.25,0,1,1,1.77,1.77l-4.73,4.73A1.21,1.21,0,0,1,361.47,89.5Zm14.19-14.19a1.23,1.23,0,0,1-.89-.37,1.25,1.25,0,0,1,0-1.77l4.73-4.73a1.25,1.25,0,1,1,1.77,1.77l-4.72,4.73A1.25,1.25,0,0,1,375.66,75.31Z" transform="translate(-14.9 -7.62)"/><path class="cls-1" d="M384.81,67.33a1.26,1.26,0,0,1-1.26-1.25V59.39a1.26,1.26,0,1,1,2.51,0v6.69A1.25,1.25,0,0,1,384.81,67.33Z" transform="translate(-14.9 -7.62)"/><path class="cls-1" d="M306.1,57.43a1.29,1.29,0,0,1-.89-.37l-4.73-4.73a1.26,1.26,0,0,1,1.78-1.78L307,55.28a1.26,1.26,0,0,1,0,1.78A1.27,1.27,0,0,1,306.1,57.43ZM291.91,43.24a1.29,1.29,0,0,1-.89-.37l-4.73-4.73a1.26,1.26,0,1,1,1.78-1.77l4.73,4.72a1.26,1.26,0,0,1,0,1.78A1.29,1.29,0,0,1,291.91,43.24ZM277.72,29.05a1.25,1.25,0,0,1-.88-.37L272.11,24a1.25,1.25,0,1,1,1.77-1.77l4.73,4.73a1.25,1.25,0,0,1,0,1.77A1.27,1.27,0,0,1,277.72,29.05ZM263.53,14.86a1.25,1.25,0,0,1-.89-.37l-4.73-4.73A1.26,1.26,0,1,1,259.69,8l4.73,4.73a1.25,1.25,0,0,1,0,1.77A1.23,1.23,0,0,1,263.53,14.86Z" transform="translate(-14.9 -7.62)"/><path class="cls-1" d="M258.87,117.88a1.23,1.23,0,0,1-.89-.37,1.25,1.25,0,0,1,0-1.77l4.73-4.73a1.26,1.26,0,1,1,1.78,1.77l-4.73,4.73A1.25,1.25,0,0,1,258.87,117.88Zm14.19-14.19a1.23,1.23,0,0,1-.89-.37,1.25,1.25,0,0,1,0-1.77l4.73-4.73a1.25,1.25,0,0,1,1.77,1.77l-4.73,4.73A1.21,1.21,0,0,1,273.06,103.69ZM287.24,89.5a1.21,1.21,0,0,1-.88-.37,1.25,1.25,0,0,1,0-1.77l4.73-4.73a1.25,1.25,0,1,1,1.77,1.77l-4.73,4.73A1.25,1.25,0,0,1,287.24,89.5Zm14.2-14.19a1.23,1.23,0,0,1-.89-.37,1.25,1.25,0,0,1,0-1.77l4.73-4.73a1.25,1.25,0,0,1,1.77,1.77l-4.73,4.73A1.21,1.21,0,0,1,301.44,75.31Z" transform="translate(-14.9 -7.62)"/><path class="cls-1" d="M310.58,67.33a1.25,1.25,0,0,1-1.25-1.25V59.39a1.26,1.26,0,1,1,2.51,0v6.69A1.25,1.25,0,0,1,310.58,67.33Z" transform="translate(-14.9 -7.62)"/><path class="cls-1" d="M207.61,73.59H185.92V51.9h21.69Zm-19.18-2.5h16.68V54.41H188.43Z" transform="translate(-14.9 -7.62)"/></svg>