<svg xmlns="http://www.w3.org/2000/svg" viewBox="0 0 93.66 23.55"><defs><style>.cls-1{fill-rule:evenodd;}</style></defs><g id="Capa_2" data-name="Capa 2"><g id="Layer_1" data-name="Layer 1"><path class="cls-1" d="M5.53,23.53H6v0c-.12,0-.15,0-.15-.1v-.92h0l-.27.15v0l.1,0s0,0,0,.07v.71c0,.11-.06.11-.14.12ZM7.59,23c.17.12.24.18.24.29a.16.16,0,0,1-.17.17c-.13,0-.19-.1-.19-.22A.26.26,0,0,1,7.59,23m-.24.26a.27.27,0,0,0,.29.25A.27.27,0,0,0,8,23.29c0-.1,0-.19-.24-.34.08-.05.2-.11.2-.25s-.1-.22-.27-.22a.26.26,0,0,0-.28.24c0,.12,0,.18.19.28-.14.12-.2.16-.2.3m.12-.62a.15.15,0,0,1,.16-.16.17.17,0,0,1,.18.17.26.26,0,0,1-.15.23c-.06,0-.19-.12-.19-.24m2.1-.16c.19,0,.19.39.19.49s0,.49-.19.49-.2-.37-.2-.49,0-.49.2-.49m0-.05c-.29,0-.35.36-.35.54s.06.54.35.54.34-.35.34-.54-.06-.54-.34-.54m1.77.54a.36.36,0,0,1,.2,0,.26.26,0,0,1,.11.21c0,.11-.05.23-.2.23s-.15-.09-.22-.09a.06.06,0,0,0-.06.06c0,.08.13.1.17.1.24,0,.42-.14.42-.37a.28.28,0,0,0-.19-.28.25.25,0,0,0,.14-.22.21.21,0,0,0-.23-.21.31.31,0,0,0-.31.25h0a.27.27,0,0,1,.23-.17.17.17,0,0,1,.17.16c0,.15-.11.22-.25.27ZM9.34.48a1.77,1.77,0,0,1-.51.05s0,.07,0,.09-.05,0-.05,0a.22.22,0,0,1,0,.12H8.69c0,.05.05.07,0,.09s0,0,0,0A.05.05,0,0,0,8.74.9c.18-.05.46-.19.58,0,.09,0,.16-.09.25-.09a1.11,1.11,0,0,1,1.1.35.67.67,0,0,1,.19.5.33.33,0,0,1-.28.23c-.23,0-.37-.36-.62-.16a.76.76,0,0,0-.32.51c0,.13.18.07.25.13a.86.86,0,0,0,.09.3c.1-.11.21-.32.42-.25s.11,0,.18.07l.07,0,.16-.25s0,0,0,0-.14,0-.14-.14,0-.12.07-.14l.14,0a.3.3,0,0,1,.09-.24.76.76,0,0,1,.18-.09.28.28,0,0,1,0,.28L11,2l0,.07A1.51,1.51,0,0,0,11.34,2a1.29,1.29,0,0,1,.05-.35c-.16,0-.23-.18-.26-.32a.4.4,0,0,1,.35.09s-.05,0-.05-.07-.14-.2-.27-.2A.48.48,0,0,1,11,.92a.42.42,0,0,1,.19-.33s0,0,0,0,.09.19.11.28a.23.23,0,0,1,0,.25.47.47,0,0,0,.14.14c.07,0,0-.09,0-.14a1.11,1.11,0,0,1,.05-.25l.2-.14c.05,0,.07.05.1.07a.39.39,0,0,1,0,.32l-.09.12c-.05,0-.12,0-.14.05s0,.06,0,.09c.12.23-.2.37-.09.59l.25.07c.12-.13,0-.32.07-.43s.07-.14.14-.17.12.14.17.26c.15-.05.34-.09.5-.16s0,.07,0,.11-.16.23-.18.39a.5.5,0,0,1-.21.25,1,1,0,0,1,0,.6.1.1,0,0,0,0,.07.6.6,0,0,0,.16,0,1.26,1.26,0,0,1,.09-.53.31.31,0,0,1-.05-.23c.05-.14.19-.19.31-.25a.19.19,0,0,1-.05-.21.51.51,0,0,1,.15-.21.37.37,0,0,1,.14.32s0,.07,0,.1a1.16,1.16,0,0,0,.37-.07c0-.08-.11-.1-.16-.17a.3.3,0,0,1,0-.25l.06-.16c.09,0,.14,0,.21.09a.51.51,0,0,1,.07.28s0,.11-.09.16,0,0,0,0a1.19,1.19,0,0,0,.15-.35c0-.07-.07-.11-.07-.18a.42.42,0,0,1-.16-.23.51.51,0,0,1,.19-.3.24.24,0,0,1,.13,0,.4.4,0,0,1,.08.22s.06,0,.11,0a.4.4,0,0,1,.32,0c-.07.12-.16.28-.32.28s-.09,0-.11,0v0c.13,0,.22,0,.34.09l.05,0a.35.35,0,0,1-.28.21c-.09,0-.16,0-.23-.09s-.05.07,0,.11a.33.33,0,0,1,.21.05s.09.09.09.16a.43.43,0,0,1-.33.11.38.38,0,0,1,.1.3.72.72,0,0,1-.33,0,.49.49,0,0,1-.16-.29l0,0a1.75,1.75,0,0,0-.57.07.31.31,0,0,0-.1.3c.05.12.21.12.28.25s.07.1.05.17-.12.2-.21.28,0,0,0,0,.26,0,.37,0a.55.55,0,0,1-.07-.46A.68.68,0,0,0,13,2.48c.12,0,.19.13.26.25l.06-.07c.05,0,.12-.05.16,0a.44.44,0,0,1,0,.39l.21.05c.07-.14.17-.3.33-.33a.66.66,0,0,1,.25,0,.55.55,0,0,1-.14.23.58.58,0,0,1,.28.3c-.12,0-.23.11-.34,0s0,0,0,0,.09.14.11.24a.26.26,0,0,1-.21,0,.47.47,0,0,1-.27-.42,0,0,0,0,0,0-.06.44.44,0,0,0-.25,0h-.1a.41.41,0,0,1,.12.36.87.87,0,0,1-.44-.13.24.24,0,0,1-.06-.15.3.3,0,0,0-.21,0,1,1,0,0,0,.09.18.81.81,0,0,1,.05.51.69.69,0,0,1-.63.34s0,0,0,0l.16.14a.57.57,0,0,1,.28-.08c.11,0,.2.1.27.19a.09.09,0,0,0,.09,0,.27.27,0,0,1,.3.12c.07,0,0,.18.16.14a.75.75,0,0,1,.65.31.34.34,0,0,0,0-.2.35.35,0,0,0,0-.23.29.29,0,0,1,.18,0,.72.72,0,0,1,.37.28c.12-.23.35-.28.53-.44a1.93,1.93,0,0,0,0,.48,1.18,1.18,0,0,1,.6-.23s0,0,0,0a1,1,0,0,0-.16.54.24.24,0,0,1,.19,0,.91.91,0,0,1,.57.28.36.36,0,0,0-.32,0,4.3,4.3,0,0,1-.37.37.5.5,0,0,0,.17,0,3.65,3.65,0,0,0,.43-.23s0,0,0,0-.06.07-.09.09L16,6s.07,0,.11.07.23-.14.4-.11c0,0,0,0,0,.07s-.23,0-.32.07.13.09.18.14l.16-.1c.05,0,.05,0,.05.07s-.12.07-.16.1.05.11,0,.18,0,0-.07,0-.05-.33-.23-.33h0c0,.1.05.19.07.28s0,0-.05,0h0A2,2,0,0,0,16,6.16a1.21,1.21,0,0,0-.25-.08c0,.1.07.17,0,.28s0-.09.09-.09c.17.16,0,.44.06.62s0,.07.06.07a.3.3,0,0,0,.19,0s.06-.05.06-.07,0,0,.05.09a.41.41,0,0,1-.25.3h-.11c0,.07,0,.11.06.18s.05.09,0,.14c-.16-.11-.35,0-.53-.09a.19.19,0,0,0,0,.18s.1.1.17.08h0c-.09.09-.23,0-.33,0s-.18-.14-.27-.21a1.55,1.55,0,0,0,.07.43s0,0,0,0a.71.71,0,0,1-.4-.16c-.07,0-.11.09-.16.12a.81.81,0,0,0,.08.25c0,.17.08.32.13.49H15c.28.11.2.43.37.64h.09c.35-.39-.19-.9.11-1.31a.37.37,0,0,1,.3-.08c.14,0,.16.17.23.23a3.34,3.34,0,0,1,.33,1.39c0,.13,0,.29-.21.36a.12.12,0,0,0-.12,0c0,.07.05.14.07.21s.28,0,.34-.14.05-.24.17-.28a.58.58,0,0,1,.18,0,.52.52,0,0,1,.21.43.35.35,0,0,1,.19.19.28.28,0,0,1-.17.29.89.89,0,0,1-.06.4c-.08,0-.17.09-.23,0a.36.36,0,0,1-.23-.32.37.37,0,0,1-.1-.16c-.09,0-.18-.07-.27,0s-.05.13,0,.2.19.16.14.3c-.11.32-.36.58-.48.9a.53.53,0,0,0,0,.46.85.85,0,0,0,.18.37c0,.07.07.2,0,.28s-.16.06-.26.06a.93.93,0,0,1-.47-.64,4.22,4.22,0,0,1,.06-.64.19.19,0,0,0-.07-.17.19.19,0,0,0-.16.12c-.11.19.11.41-.07.57s-.2.24-.16.37a.4.4,0,0,0,.28.26.27.27,0,0,0,.2,0s0,0,0-.09a.39.39,0,0,1,0,.3c-.05.11,0,.25-.16.3l-.21,0a.12.12,0,0,0,.09,0,.17.17,0,0,1,.17,0,.38.38,0,0,1,.41-.17l.14.07c.14-.14.28-.36.51-.32,0,0,.07,0,.07.09a.5.5,0,0,1-.07.3.33.33,0,0,1,.3.16c0,.23-.26.32-.45.4l.08,0a.23.23,0,0,1,.09.12.29.29,0,0,1-.19.18s-.14,0-.14.07a.09.09,0,0,0,0,.07c.07,0,.13,0,.18,0a.44.44,0,0,1,.4.14.26.26,0,0,1-.14.21,1,1,0,0,1-.49-.09.35.35,0,0,1-.11.13.13.13,0,0,0,.07.1,1.25,1.25,0,0,1,.09.25.26.26,0,0,1,.25-.07,2.25,2.25,0,0,1,.69.46c0,.05.12.09.07.16h0a.7.7,0,0,0-.21-.21.51.51,0,0,1,0,.3c-.07,0,0-.14,0-.2l0-.14c-.1-.09-.23-.16-.35-.28a1.31,1.31,0,0,0-.28,0c.23.16.53.39.49.71,0,0,0,.07-.08.05h0c.06-.28-.15-.46-.33-.64L16,15.34c-.07,0,0,.13-.07.18s-.09,0-.09,0,0,.1,0,.12a.18.18,0,0,1-.16.09c0,.07-.12.07-.07.14a.11.11,0,0,1,0,.07c-.05,0,0-.07-.05-.1s-.14,0-.18,0a.31.31,0,0,1-.28-.07c0-.07-.1,0-.14,0s-.12-.14-.16-.23a.15.15,0,0,1-.16-.12s0-.07,0-.11-.17,0-.16.07a1.14,1.14,0,0,1-1,.67h-.16a1,1,0,0,0-.2.25c-.12.09-.24.23-.35.32.09,0,.21,0,.25.12s0,.07.05.11.09-.11.16-.11.3.25.35.41a.31.31,0,0,1-.1.28.07.07,0,0,0-.06,0s0,.11-.07.16-.09,0-.14,0a.17.17,0,0,1-.12.16s-.11,0-.11.07a.2.2,0,0,1-.14.14s0,0-.07,0,0,.07-.07.09c.12.12.1.3.19.44s.07.21.18.16c.33-.07.23-.51.55-.58,0,0,0,0,.07,0s0-.13.07-.18a.67.67,0,0,1,0-.37c.07,0,.12.09.19.12l.06.06a1.27,1.27,0,0,0,.21-.69s0,0,0,0a.72.72,0,0,1,.25.51.75.75,0,0,0,.12-.39s0,0,.06.05.08.25.12.39a1.17,1.17,0,0,0,.41-.83c0-.21,0-.42,0-.63h0a1.38,1.38,0,0,1,.23,1.31h.07a7.81,7.81,0,0,0,.57-.79l0,0a3.85,3.85,0,0,1-.15.92.94.94,0,0,1-.49.41c0,.05.07,0,.09,0a.77.77,0,0,0,.6-.17h0c0,.07-.05.12-.07.19a3.17,3.17,0,0,1-.21.27.21.21,0,0,1,0,.4s0,.11.07.16a.26.26,0,0,1-.15.18s0,0,0,0l.12,0a.6.6,0,0,1,.53-.28c.05.09-.07.16-.12.23a.57.57,0,0,1-.46.17.08.08,0,0,0,0,.07.52.52,0,0,1,.18.15.62.62,0,0,1,.56.07s0,0,0,.05-.21.18-.37.16c0,0,0,.09,0,.09a.54.54,0,0,1,.4.16c.06.07,0,.17,0,.23a.41.41,0,0,1-.37-.09c0,.07-.05.16-.08.23-.09-.16-.32-.3-.22-.53,0,0,.07,0,.09,0-.14-.12-.14-.33-.33-.37s-.06.11-.13.16a.67.67,0,0,1,.12.16c0,.12,0,.23,0,.32s-.19-.07-.31-.09c0,.16.14.28.26.36s.05.06.07.06a.21.21,0,0,1,.23-.06.4.4,0,0,1,.18.19.1.1,0,0,1,0,.07.32.32,0,0,1-.3,0c-.11-.18-.35-.23-.46-.43a.31.31,0,0,0-.07.25c0,.06.07.18.16.18a.26.26,0,0,1,.16,0c0,.09.12.16.07.25s0,.09,0,.07a.25.25,0,0,1-.26-.14c0-.07,0-.16-.07-.21a1.2,1.2,0,0,0-.09-.12c-.07.1.05.22,0,.33a.35.35,0,0,1-.18.16c-.07,0-.07,0-.1-.09a.29.29,0,0,1,.08-.3s.09,0,.11-.11.23-.4.16-.63c0,0-.05,0-.07,0a.45.45,0,0,1,0,.23.38.38,0,0,1-.21,0,.24.24,0,0,1,0-.28l-.12-.1s-.06.07-.09.1,0,.07,0,.14a.4.4,0,0,1,.14.41c0,.07,0,.13-.12.16a.51.51,0,0,1-.14-.49c.08-.08,0-.22.12-.32l.07-.09a.47.47,0,0,0,0-.16c-.07,0-.19,0-.19.07a.4.4,0,0,1-.14.25c0,.25.17.44.07.7,0,.07-.09.18-.2.18a.41.41,0,0,1-.07-.39c0-.07,0-.16.11-.21V19.8a.69.69,0,0,1-.16-.18.08.08,0,0,0-.05-.09.15.15,0,0,0-.09,0c0,.18-.11.34,0,.48a.51.51,0,0,1-.25.51l-.07.05a.41.41,0,0,1-.05-.28s0,0,0,0a2.33,2.33,0,0,1-.28.05l-.09,0v0A.77.77,0,0,0,14,20a.8.8,0,0,0,.09-.53l0,0c-.05.07-.12.16-.19.16h-.14a.55.55,0,0,1-.34.41c-.07,0-.14,0-.21,0s.16-.11.16-.23l0-.18c-.08,0-.2.05-.29,0l-.14.1a.57.57,0,0,1,.14-.42c-.07,0-.14,0-.21,0s-.09.05-.14.07.07-.18.09-.28a2.14,2.14,0,0,1-.55-.78s-.07.12-.09.19a.45.45,0,0,0,.13.32A.48.48,0,0,1,12,19c-.09,0,0,.12-.09.17s-.07.06-.11.11a.37.37,0,0,1-.16,0,.35.35,0,0,1,0-.39.2.2,0,0,1,.21,0c0,.06.09,0,.16,0s.11,0,.11-.07a.37.37,0,0,1-.06-.3h0a.87.87,0,0,1-.83,0s-.05-.07-.07-.07a1.11,1.11,0,0,1-.32-.85A6.07,6.07,0,0,1,9.35,18h0l.09.09a3.7,3.7,0,0,0,1.16-.35s0,0,0,0a.66.66,0,0,1,0,.25l.16,0a.34.34,0,0,1,0,.15,1,1,0,0,1-.07.29s0,0,.07.05l.1.06a1.74,1.74,0,0,0,.22.05.73.73,0,0,1,.38.74.48.48,0,0,1-.18.34c-.28.23-.74.16-.9.53a.38.38,0,0,0,0,.21s0,0,0,0a.38.38,0,0,1-.16-.34L10.11,20s0,.07,0,.09a.52.52,0,0,1-.3.16.16.16,0,0,0,.05.11c.07.07.2.1.2.21a.14.14,0,0,1-.11.14.35.35,0,0,1-.14,0,.24.24,0,0,1-.16.13c-.12,0-.18,0-.28-.09a.9.9,0,0,1-.66.51c-.23,0-.37-.21-.53-.35s-.14.09-.23.12-.14.07-.23,0,0-.16,0-.25,0,0,0-.07a.35.35,0,0,1-.3,0,.36.36,0,0,1-.12-.35c0-.05.07-.12.14-.12a.26.26,0,0,1,.11,0,.08.08,0,0,0,0-.09s-.14,0-.18,0a.24.24,0,0,1,0-.28,1.13,1.13,0,0,1,.46-.41c0-.12-.07-.24-.07-.35a1.28,1.28,0,0,1-.21.14h0a.43.43,0,0,1-.23.42c-.07,0,0,.06-.07.11a.35.35,0,0,1-.2.21.39.39,0,0,1-.12.34c-.11.12-.3.16-.34.32h0c-.14-.48-.51-.87-.69-1.35,0,0,0-.09,0-.09s-.06.11-.11.14c-.21.09-.3-.17-.49-.23v-.05s.1,0,.15,0,.23-.16.36-.07,0,.09.09.11A.8.8,0,0,1,6,18.62a.82.82,0,0,1,.25-.21c.21,0,.44-.11.62,0a.44.44,0,0,1,.3-.31.5.5,0,0,1,.49.16.85.85,0,0,1,.13.3c.07,0,.16-.14.12-.23s-.12,0-.14-.09a.22.22,0,0,1,0-.25,5.09,5.09,0,0,1-1.47-.44c0,.12,0,.24,0,.37a1.1,1.1,0,0,1-.45.69l-.12.1a2.44,2.44,0,0,1-.39.06,1.34,1.34,0,0,1-.71-.36,5,5,0,0,1-.76.44c-.14.11-.09.32-.21.46a.69.69,0,0,1-.64.23.41.41,0,0,1-.3-.23c-.07-.14,0-.26,0-.39s.16-.33.21-.49.23-.11.3-.2A.79.79,0,0,0,3.55,18s0,0,0,0a.76.76,0,0,0-.55.28.69.69,0,0,0-.21.32s-.05,0-.05,0a1.43,1.43,0,0,1,.23-.37L3.15,18c-.23,0-.39.27-.48.48a1.74,1.74,0,0,0,0,1.08l.14.14v0c-.07,0-.18,0-.25-.09s0,0,0,0a1.22,1.22,0,0,1-.33,0,.35.35,0,0,1-.14.25.29.29,0,0,1,.07.3v0a1.61,1.61,0,0,1,.33-.06c0,.06,0,.11,0,.18s.17,0,.19.09,0,.14,0,.21a.81.81,0,0,1-.22,0,.37.37,0,0,1-.17.34s-.09.07-.15.07l0,0c0-.16,0-.34.06-.46v0a.28.28,0,0,1-.18,0c0-.08.05-.12.05-.19s-.07,0-.11,0a.4.4,0,0,1-.05.32.47.47,0,0,1-.25.23.24.24,0,0,1-.05-.21.44.44,0,0,1,.18-.32.38.38,0,0,1-.18-.09c-.05,0-.07,0-.09,0s0,.16-.1.23a.65.65,0,0,1-.41.21l-.05,0A.39.39,0,0,1,1,20.45s.09,0,.09-.07-.11,0-.14,0a.5.5,0,0,1-.52.18H.37a.48.48,0,0,1,.18-.32.45.45,0,0,1,.42,0,.32.32,0,0,0,.25.07,1,1,0,0,0,.23-.07.5.5,0,0,1,.05-.32.1.1,0,0,0-.05-.07.67.67,0,0,1-.37.05c0-.07,0-.17.07-.21a.46.46,0,0,1,.23-.09v-.07c-.07-.1-.23,0-.3-.1s0,.05,0,.05-.21.09-.33.14a.27.27,0,0,1,0,.3A.19.19,0,0,1,.62,20a.54.54,0,0,1-.18-.11c-.07.09-.09.23-.23.3l-.14,0a.42.42,0,0,1,0-.39.4.4,0,0,1,.26-.18.73.73,0,0,0,.09-.26.11.11,0,0,0-.09.05,1,1,0,0,1-.35,0,.63.63,0,0,1,.14-.27.76.76,0,0,1,.32-.05l0,0a.65.65,0,0,1-.16-.46.4.4,0,0,1,.23-.21s0,0,0,0a3.64,3.64,0,0,1,.76-.39c-.14-.14-.21-.32-.37-.46H.87a.34.34,0,0,1-.34.18.34.34,0,0,1-.16,0,.71.71,0,0,1,.18-.28.55.55,0,0,1,.28.07l.09,0a.69.69,0,0,0-.23-.19c-.14-.11,0-.29,0-.43a.47.47,0,0,1,.21.39c-.07,0,0,.07,0,.09s0,.07.09.09a.54.54,0,0,1,.11-.27.28.28,0,0,1,.19.27.57.57,0,0,1-.08.28.79.79,0,0,0,.28.32l.26.07c0,.19-.12.32-.21.46a.13.13,0,0,0-.07.12l0,0c.18,0,.25.23.41.28A.13.13,0,0,0,2,19c0-.12,0-.23,0-.35a3.69,3.69,0,0,1,.25-.34s0,0,0,0-.15,0-.19,0-.19-.37-.26-.55a7.33,7.33,0,0,1,0-1.55c-.07.12-.09.26-.19.35l0,.07a3.09,3.09,0,0,0,0,.55s0,0,0,0a2.4,2.4,0,0,0,.26,1.06H1.77a3.38,3.38,0,0,1-.28-1.52s-.05,0-.05,0-.06.1-.11.12a1.32,1.32,0,0,1-.1-.53s-.06,0-.06,0a.43.43,0,0,1-.09.36.33.33,0,0,1-.19.12.56.56,0,0,1,0-.37s-.07,0-.07,0a.45.45,0,0,1-.05.34C.64,16.88.6,17,.5,17a.7.7,0,0,1-.07-.41s-.11,0-.18,0A1,1,0,0,1,0,16.37a.48.48,0,0,1,.32-.21.34.34,0,0,1,.26.21s.09,0,.14,0-.05,0-.05-.07a.29.29,0,0,1,0-.3.4.4,0,0,1,.28.07.53.53,0,0,1,0,.19H1.1a.68.68,0,0,1,.13-.12.67.67,0,0,1,.15-.32l-.12-.12a.33.33,0,0,1-.37.05s-.09-.09-.11,0-.07,0-.1,0-.18.05-.27.09,0-.06,0-.1a.69.69,0,0,1,.18-.35c0-.14-.07-.3,0-.44s-.14,0-.14-.09,0-.14.07-.18a.39.39,0,0,1,.21-.17s0,0,0,0c.16-.14.37-.28.57-.17,0,0,0,0,0-.06s0-.1-.06-.12-.21.12-.35.09-.23,0-.27-.13A.17.17,0,0,1,.66,14s.09,0,.09-.05a.58.58,0,0,1-.09-.55.41.41,0,0,1,.25.11c.07,0,.07.12.09.16l.14-.13a.14.14,0,0,0,.05.11s0,0,0,0a1.13,1.13,0,0,1,0-.26.5.5,0,0,1,.34,0,.52.52,0,0,0,.07-.11A1.09,1.09,0,0,1,1.78,13a.2.2,0,0,1,.1,0,.31.31,0,0,1,.09.14c0,.11.09.27,0,.37s-.16.09-.16.18a.14.14,0,0,0,0,.16.72.72,0,0,0,.07.11c.07,0,.12-.06.16-.08.05-.19.05-.42.24-.54a.55.55,0,0,0,.31-.23s0-.07.07,0l.1,0c0-.07,0-.14,0-.21a3,3,0,0,1-.09-.66s-.14,0-.19,0a.19.19,0,0,1-.18-.07c0-.14,0-.35-.19-.38,0,0-.16.08-.16.17a1.81,1.81,0,0,1-.36,1.17.07.07,0,0,1-.1,0s0,0-.07-.07a2.77,2.77,0,0,0-.23-1.33,3,3,0,0,1-.3-.46c0-.11.1-.18.14-.27V10.8a.3.3,0,0,0-.21,0c0,.16,0,.39-.25.43s-.25-.29-.3-.48A.36.36,0,0,1,0,10.51a.22.22,0,0,1,.12-.21c.11-.11,0-.3.09-.44a.19.19,0,0,1,.09-.13.12.12,0,0,1,.14,0c.14.11.14.29.19.45s0,.1,0,.1a1.5,1.5,0,0,0,.3,0s0-.1,0-.17S.74,10.11.7,10c-.19-.35,0-.69.11-1a1.35,1.35,0,0,1,.64-.92.3.3,0,0,1,.26.09c0,.2-.14.32-.14.51a1.12,1.12,0,0,0,.07.66.24.24,0,0,0,.21.07A.51.51,0,0,0,2,9c.09-.1.23,0,.32-.05s.12-.37.19-.55,0-.05,0-.1-.35-.23-.37-.43a.42.42,0,0,1,.23-.44s.05-.16-.07-.16a.15.15,0,0,0-.16,0c0,.07,0,.16,0,.21a.4.4,0,0,1-.36.25.38.38,0,0,1-.05-.32A.32.32,0,0,1,2,7.17c.05,0,.08,0,.13,0s.12-.05.16-.07a.41.41,0,0,1,0-.39c0-.05.05-.07.05-.12s-.14-.27-.19-.41-.05-.07-.09,0l-.16.06a.16.16,0,0,0,0,.12.5.5,0,0,1,.23.27.66.66,0,0,1,0,.24.37.37,0,0,1-.35-.14.06.06,0,0,0,0,0c-.07,0-.07.08-.09.11a.35.35,0,0,1-.07.09.45.45,0,0,1,.09.46.53.53,0,0,1-.25.3l0,0c-.09-.19-.19-.46,0-.62v0h-.1A.6.6,0,0,1,1,7.38a.59.59,0,0,1-.27,0c-.1-.16,0-.34.13-.48a.51.51,0,0,1,.37-.07s0,0,0,0A.28.28,0,0,0,1,6.69a.71.71,0,0,0-.21.11.47.47,0,0,1-.25.35l0,0a.8.8,0,0,1,0,.3.77.77,0,0,1-.18.18.17.17,0,0,1-.1-.16.37.37,0,0,1,.12-.32.36.36,0,0,0-.14,0v0A.4.4,0,0,1,.44,6.8a.82.82,0,0,0,.39-.11s.05,0,.07-.05,0,0,0,0a.46.46,0,0,1-.51-.09.47.47,0,0,1,0-.35.7.7,0,0,1,.37.14c.07.07.07.14.14.18V6.41A.59.59,0,0,1,1.25,6h.11a.19.19,0,0,1,0,.19A.61.61,0,0,1,1,6.53s0,0,0,.07.18,0,.25.09.12.16.19.18,0-.07,0-.09a.47.47,0,0,1,0-.33c.05,0,.1-.11.17-.13a.76.76,0,0,1,.14.3h0a.63.63,0,0,1,.05-.3v-.1c-.05,0-.12,0-.16-.06a.55.55,0,0,1-.19-.42s.05,0,.09,0a.57.57,0,0,1,.26,0,1.57,1.57,0,0,0-.14-.25s-.07,0-.09,0a.49.49,0,0,1-.51-.07.62.62,0,0,1-.18-.42S.83,5,.85,5a1.93,1.93,0,0,1,.55.14,1.46,1.46,0,0,0-.14-.28V4.77l-.13-.06-.1,0,0-.09V4.41l.07-.16,0-.09h0l.11.1.07.09.07.11,0,.07,0,.1-.07.11,0,.07,0,.09,0,0v0l.05-.14.05-.07.13-.11,0,0h0l.09.16.05.19,0,.21,0,.16-.05.09-.06.09h0v0l.21.28v0l0-.12,0-.09L2,5.33l.12-.14,0,0h0l.07.06s0,.12.07.16l.07.31v.11l0,.11L2.3,6l-.07.07,0,.05v0l.09.16.12.16,0,0h.05V5.88l.08-.16.09-.16.11-.14.16-.11.19-.08.18,0h.07s0,0,0,0l0-.07,0-.16V4.77l.07-.11,0-.07.09.07.16.07h0l0-.05V4.54l0-.09.07-.14L4,4.43l.21.09.09.07,0,0,0,0,0,0,.23-.27-.11,0-.07,0-.16,0-.12-.07-.09-.07L4,4.1,4,4l0-.19-.09.07-.09,0L3.66,4H3.59l0-.12,0-.13v-.1l0-.09v0l0,0-.07.05H3.34l0,0,0,0v0l0,.05-.09,0-.09,0,0,0,0,.05S3,4,3,4V4H2.9V4h0L2.67,4h0V4s0-.07.07-.07l0,0,.05,0s.06,0,.06,0H2.76l0-.05,0-.07,0,0,.19,0,0,0s0,.05,0,0l0,0-.05,0,0,0v0l0,0,.05,0,0,0,.09.11,0,0h0l.05,0v0l0,0h0V3.53l0,0h.21l0,0,0,0-.14-.07,0-.11,0-.09,0,0,0,0,0,0h.09l.1,0,.11,0,.07,0,0,.09h.18l.21-.16.11-.09h0s0,0,0,0l0,0h0l-.09.11L4,3.16l-.17,0h0v0l0,0,0,0,0-.05V3l0-.06,0-.07v0l0,0,0,0V2.47h-.1l0,.16,0,.1-.1.09-.05,0-.06,0H3.29l0-.07,0-.09,0-.11.07-.14.09-.07,0,0v0l-.12,0H3.24l0,.09-.07.09-.1.12-.15,0-.1,0,0,0,0-.13,0-.07.07-.12.07-.07-.07-.11V1.87l0,0h0l.13.07.1.07,0,.06v.05s0-.14,0,.07l0,0,.16.05h0V2l0,0L3.31,1.9l0-.07h-.1l-.09,0L3,1.76l0-.05-.07-.14,0-.11V1.37s0,0,0,0l.16,0,.05,0,0,0,0-.1,0-.06.07-.07,0,0,.07.05,0,0,.07.14v.09h0l.05,0,.07.11,0,.14,0,.09,0,.1L3.49,2v.16l0,0,.1-.07.11,0L3.8,2l.09,0,0,0H4v.09l0,.1-.07.11v0h0l0,0L4,2.47l.09,0,.09.09.09.14,0,.07v.07l0,.07L4.46,3l0,0,0-.07,0,0,0,0v0l-.09-.11,0-.12,0,0-.09,0-.07,0-.07-.1,0-.09,0-.09V2.13l0,0h.11l0,0,.07.09,0,.1,0,.11s0,0,0,0l.21,0h.16s0,0,0,0l0,0,0,0-.07-.06,0-.08,0-.06v0l-.1,0L4.44,2,4.32,1.9l-.09-.12,0-.07,0-.09,0-.07,0-.05,0,0h.16l.13,0h0l0,0,0-.14,0,0,0,0h.07l0,0,.09.09,0,0L5,1.59l0,.14,0,.12,0,0V2L5,2.07l0,.06,0,0,.12,0,0,0,.06-.06V2l0-.09-.14-.16L5,1.66l0-.09,0-.12V1.23l0-.12L5.08,1,5.15,1l.07,0,.09,0L5.4,1l0,.07,0,.11,0,.07h0l.09-.07.12-.07h.16l0,.07,0,.11,0,.14,0,.16,0,0-.14.11-.09.07,0,.05v0h0l.13-.1.1,0,0,0,0,0L6,1.84,6,2l0,.11,0,.12,0,.07-.05.05,0,0,0,.14L6,2.6l0,.14H6l.28-.09.11,0h.14l.09,0,0,0,.15.16h.06l.07,0L7,2.72l0-.05,0-.09,0-.05,0,0,.11-.07.07,0,0-.1v0l0-.16L7.15,2l-.09-.09L7,1.8l-.12-.07H6.76l-.07,0-.11.07-.14.1-.05,0H6.23l-.06-.07-.12-.12v-.2l0-.14.07-.12.12-.14.11-.09L6.57,1l.19-.1.12,0h.23l.16,0L7.43.9l.09,0h.05L7.63.88l.1-.05h.13l.1,0,.14,0,.11,0,0-.05-.07,0V.74s0,0,0,0l0,0V.62l0,0h0V.51h-.5V0h.65l0,0V.09h0l.05,0h0V.18h.23V.12l.12,0h0l0-.09h.62ZM8.5,7.09s-.05,0-.05,0,0,.07.05.05ZM4.9,5.23l-.2,0a7,7,0,0,0-.7.85c-.11.12,0,.25-.09.37a8.52,8.52,0,0,1,1-1.27m-.32,0a0,0,0,0,0,0,0,6.33,6.33,0,0,0-.59.8s0,0,0,0a9.89,9.89,0,0,1,.64-.81M4,4.93c-.12-.16-.32-.14-.51-.23a.52.52,0,0,0,0,.44c.09.11.23.11.32.25,0,0,.05,0,.05-.07a1.11,1.11,0,0,1-.28-.41.08.08,0,0,1,.05,0c.06.14.16.32.32.32l.11-.14L4,4.93m1.22-.78a3.81,3.81,0,0,0-.58.41A10.49,10.49,0,0,0,3.2,6.5c.21.07.35-.12.46-.25a11.46,11.46,0,0,1,1-1.39c.19-.25.46-.41.51-.71M1.9,10.48c0-.07-.16,0-.21,0s.14,0,.21,0Zm-1-.06s0-.05,0,0-.13.14-.11.25l0,0c.05,0,.05-.09.09-.11s0,.06,0,.11,0,0,.07,0,.11-.16.16-.25-.09,0-.14,0Zm.27,0v-.07a.07.07,0,0,0-.06,0c-.05.09-.14.14-.16.23s.11-.09.18-.14-.07.09,0,.16l0,0c.07-.05,0-.16,0-.23m-.47,0s0-.05-.05-.05-.07.07-.07.14l.07,0s0,0,0,0a0,0,0,0,0,0,0c.05,0,.11-.09.09-.16a.06.06,0,0,0-.06,0m1-.49s0,0-.07,0a.26.26,0,0,0-.18,0,1.1,1.1,0,0,0-.07.85c.05.14.14.3.28.3s.14-.11.18-.19a.36.36,0,0,0-.09.08c-.05,0-.05,0-.07-.05s-.05-.07,0-.12.05,0,.07,0A.3.3,0,0,1,2,10.71v-.05l0,.05a.2.2,0,0,0-.21.09.08.08,0,0,1,0-.07s.1-.07.14-.09.07,0,.12,0a1.61,1.61,0,0,1,0-.45c-.07,0-.14,0-.18-.07-.05.11.09.07.11.16s-.16,0-.23-.05l0,.07a.22.22,0,0,1,.23.07l0,0a.36.36,0,0,1-.21,0c0,.07-.05.16,0,.2l.19,0a0,0,0,0,1,0,.07l-.19,0v.07l-.07,0a.9.9,0,0,1,0-.57c.07-.05.07-.16.11-.23m.41-2.69s-.07,0-.12,0a.24.24,0,0,0-.2.19.43.43,0,0,0,0,.23l.14,0a.4.4,0,0,0,.16-.34M.49,7.15c-.1,0-.12.07-.16.11a.29.29,0,0,0,0,.33.5.5,0,0,0,.18-.44M1.64,7l-.09-.09L1.48,7a.34.34,0,0,0-.1.3.66.66,0,0,0,.07.25.61.61,0,0,0,.19-.2l0-.17s0-.09,0-.13m-.39-.09a.34.34,0,0,0-.28,0,.38.38,0,0,0-.19.32.11.11,0,0,0,0,.07.75.75,0,0,0,.21,0,.57.57,0,0,0,.28-.39M.72,6.8A.51.51,0,0,0,.3,7L.23,7.1a.38.38,0,0,0,.32,0A.26.26,0,0,0,.72,6.8M3.46,7a1,1,0,0,1-.93-.37.48.48,0,0,0-.18.32c0,.14.07.23.19.3a.41.41,0,0,0,0,.26l-.13.09a.37.37,0,0,0-.07.32A.69.69,0,0,0,3,8.27s.13.05.18,0l0-.1h0a.6.6,0,0,1-.49-.06S2.58,8,2.61,8a.79.79,0,0,0,.52.1c.05,0,.1,0,.1-.05A.6.6,0,0,1,2.74,8s0,0,0,0a3.84,3.84,0,0,0,.48,0s0,0,0-.07l-.07,0c-.11,0-.25,0-.32-.09s0,0,.05,0a.85.85,0,0,0,.32,0s.07,0,.07,0H3.09S3,7.74,3,7.67s.12,0,.18,0,.19,0,.26-.07A.52.52,0,0,1,3,7.56s0,0,0-.07a.45.45,0,0,0,.3,0s0,0,0,0-.18,0-.25,0,0,0,0-.07.07,0,.12,0,.18,0,.18-.07a.26.26,0,0,1-.25,0s0,0,0,0,0,0,0,0,.14,0,.23,0,0,0,0,0-.17,0-.21,0V7.14a.27.27,0,0,1,.18,0s0,.05,0,.05.14-.25.19-.37c-.1,0-.19.14-.3.14M2.05,6.68a.29.29,0,0,0-.2-.27.31.31,0,0,0,0,.28s.12.09.19.06Zm-.44-.23,0-.07c-.05,0-.09,0-.12.07a.42.42,0,0,0,.05.4c.09,0,.11-.12.16-.19a.25.25,0,0,0,0-.21m-.8.1a.51.51,0,0,0-.44-.32.46.46,0,0,0,.09.3.42.42,0,0,0,.35,0ZM1.34,6V6a.37.37,0,0,0-.26.07A.46.46,0,0,0,.9,6.5a.76.76,0,0,0,.41-.28c0-.06.07-.11,0-.18M3.43,5.9l0,0a.15.15,0,0,0-.17,0,.17.17,0,0,0-.11.21s0,.12.09.09a.93.93,0,0,0,.21-.32m-1.52,0a.32.32,0,0,0-.2-.07c-.07,0-.14,0-.19,0s.12.3.25.32h.17s.11,0,.11-.07a.51.51,0,0,0-.14-.18M3.5,5.69c-.07-.09-.16-.09-.28-.09a.58.58,0,0,0-.37.3.61.61,0,0,0,0,.44c.07,0,.14.16.23.16a.42.42,0,0,0,.09-.14.17.17,0,0,1-.11-.09.39.39,0,0,1,0-.39.55.55,0,0,1,.35-.12s0,0,0-.07m.25-.25a.34.34,0,0,0-.18-.14.66.66,0,0,0-.67.1.86.86,0,0,0-.34.89.73.73,0,0,0,.53.6.87.87,0,0,0,.48-.07.64.64,0,0,0,.25-.65l-.18.23a.47.47,0,0,1-.49.21L3,6.55a.45.45,0,0,1-.23-.33A.64.64,0,0,1,3,5.58a.67.67,0,0,1,.6,0,.76.76,0,0,0,.11-.16M2.3,5.83a1,1,0,0,0-.13-.57A.58.58,0,0,0,2,5.6.41.41,0,0,0,2.19,6a.74.74,0,0,0,.11-.16m-.69-.48C1.47,5.1,1.17,5.1.94,5l0,.11a.48.48,0,0,0,.43.35.22.22,0,0,0,.21-.14m.16-.25a.89.89,0,0,0-.11-.55.51.51,0,0,0-.19.34.46.46,0,0,0,.14.34h.1s.06-.06.06-.13m2.58-.35c-.09-.19-.32-.23-.48-.35a.33.33,0,0,0-.05.21c0,.18.16.16.23.3s0,.07.07.09.07,0,.07-.07l-.12-.11c0-.07-.09-.12,0-.19l.13.14a.13.13,0,0,0,.1.07Zm.48.16a.85.85,0,0,0,.42-.58c-.1.23-.33.39-.46.58,0,0,0,0,0,0M1.31,4.57c.05-.16-.07-.25-.18-.35,0,.1-.07.17-.07.26a.21.21,0,0,0,.2.18s.05,0,.05-.09m9.18-.63a5.28,5.28,0,0,0-.85-.28A5,5,0,0,0,7,3.8a6.31,6.31,0,0,0-1.2.58l0,0c0,.07-.07.14-.09.21L6,4.38A5.32,5.32,0,0,1,7.8,3.71a5,5,0,0,1,2.12.16,4.09,4.09,0,0,1,1.38.66l-.14-.23a3.61,3.61,0,0,0-.67-.36M5.73,3.48s-.05,0-.07,0,0,0,.07.07Zm.11,0s0,0,0,0a.07.07,0,0,0,0,0m-1.93,0H3.86c-.06,0-.09,0-.13.07a.37.37,0,0,0-.12.37c0,.09.09,0,.14,0l.09-.07a.36.36,0,0,0,.07-.41m2.1,0s0-.05,0-.05l0,0s0,0,0,0m.13-.05s0,0,0,0,0,0,0,0Zm2.62,0c-.09.07-.22,0-.32,0v0a.35.35,0,0,1-.3,0s0,.11,0,.18c.23,0,.46,0,.67,0l0-.09s0-.07-.06-.07m-2.48,0a0,0,0,0,0,0,0s0,0,0,0,0,0,0,0m-.74.33A1,1,0,0,0,5,3.2a.79.79,0,0,0-.83.24A.53.53,0,0,0,4.05,4a.64.64,0,0,0,.37.3.3.3,0,0,0,.3,0C4.81,4,4.49,4,4.37,3.85A.32.32,0,0,1,4.3,3.6a.5.5,0,0,1,.48-.17.83.83,0,0,1,.49.37A2.19,2.19,0,0,0,5.34,4a1,1,0,0,1-.35.9c-.11.07-.29,0-.36.16a.5.5,0,0,0,.27,0,.9.9,0,0,0,.58-.41,1.08,1.08,0,0,0,.06-1.15M3.7,3.35a.4.4,0,0,0-.37-.19s-.07,0,0,.07a.31.31,0,0,0,.25.18.21.21,0,0,0,.16-.06m2.74-.17s0-.05-.05-.05v.05Zm.12-.09s0,0,0,0v0h0Zm-2,.05s-.09-.05-.14-.07A2.42,2.42,0,0,1,4,3.34.2.2,0,0,0,4,3.48c.13-.18.34-.23.5-.34m.67,0C5.13,3.14,5.08,3,5,3a.11.11,0,0,0,0,.07c.07,0,.14.07.21,0M6.67,3s0,0,0,0,0,0,0,0M4.21,2.86c-.07-.07-.18,0-.25,0a.34.34,0,0,0-.16.23l.13,0a.38.38,0,0,0,.28-.23m.78,0-.09,0a.3.3,0,0,0-.3.09l0,.12a.56.56,0,0,0,.32.07A.28.28,0,0,0,5,2.83m1.57-.11-.19,0a3.29,3.29,0,0,0-1.08.53,1,1,0,0,1,.39.36.94.94,0,0,1,.09.58l.1-.07c0-.18-.07-.34-.12-.53a0,0,0,0,1,0,0,1.14,1.14,0,0,1,.17.53L6,4a1.92,1.92,0,0,0,0-.32c0-.07-.09-.12,0-.18s0,.09.1.16,0,.21.07.32.06,0,.09,0A2.3,2.3,0,0,0,6,3.43s0,0,0,0a.69.69,0,0,1,.13.3c0,.07,0,.17,0,.21s0,0,.06,0l0-.32c0-.07-.12-.11-.07-.18s0,0,.07,0a1.29,1.29,0,0,1,.11.46.12.12,0,0,0,.1-.05,3.06,3.06,0,0,0-.1-.41c0-.05-.07-.07,0-.11s0,0,.07,0a1,1,0,0,1,.14.48s0,0,.09,0a1.19,1.19,0,0,0-.11-.42s-.09-.09,0-.14.13.21.18.3,0,.16,0,.24.07,0,.1,0a2.73,2.73,0,0,0-.19-.57s0,0,0,0a1.16,1.16,0,0,1,.23.55,0,0,0,0,0,0,0,1.09,1.09,0,0,0-.11-.42s-.07-.09,0-.11A.79.79,0,0,1,7,3.57s0,0,0,0c0-.17-.07-.3-.11-.44a1,1,0,0,0-.32-.39m-2.35,0a.45.45,0,0,0-.4-.3.54.54,0,0,1,0,.12c0,.07,0,.16.09.2s.25-.09.35,0M5,2.58c0-.07-.09-.09-.14-.13a.37.37,0,0,0-.34.06c0,.07,0,.17.13.21A.52.52,0,0,1,5,2.7a.12.12,0,0,0,0-.12M3.56,2.42l0,0c-.07.05-.14,0-.16.12a.3.3,0,0,0-.07.27.53.53,0,0,0,.19-.06.78.78,0,0,0,.06-.31m-.37-.2a.41.41,0,0,0-.18,0,.33.33,0,0,0-.16.29h.07a.49.49,0,0,0,.27-.34m2.4,0s-.14,0-.18,0l-.1,0a.63.63,0,0,0-.23.65.72.72,0,0,0,.25.21l.56-.3a.94.94,0,0,0-.07-.4.43.43,0,0,0-.23-.18m-.41.05c0-.07-.12,0-.17-.09l0,0a.2.2,0,0,0,0,.23s0,0,0,.05a.63.63,0,0,1,.17-.23m-.81.09a.57.57,0,0,0-.12-.18H4.18a.25.25,0,0,0,0,.23s.09.11.16.09ZM3.89,2.1a.27.27,0,0,0-.31.07s-.07.12,0,.16a.27.27,0,0,0,.32,0,.32.32,0,0,0,0-.19M4.9,2c-.05,0-.05-.07-.09-.05a.19.19,0,0,0,0,.19.12.12,0,0,0,.09.08A.53.53,0,0,1,5,2.07S4.94,2,4.9,2m-1.75.16c0-.14-.12-.21-.21-.28,0,.12,0,.23.07.32s.07-.06.14,0m2.76-.31h0c-.12.08-.23.14-.23.28a1,1,0,0,0,.18.09.09.09,0,0,0,.09-.09c.07-.09,0-.18,0-.28m-1.2-.08c-.09-.19-.27-.19-.46-.21A.58.58,0,0,0,4.69,2a.23.23,0,0,1,.07-.09.9.9,0,0,1,0-.16M3.58,1.57s0-.09-.07,0a.38.38,0,0,0-.09.37s.05,0,.07,0a.28.28,0,0,0,.09-.33m-.34.1a.4.4,0,0,0-.3-.28.44.44,0,0,0,0,.23.31.31,0,0,0,.26.12.11.11,0,0,0,0-.07m1.45-.35h0a.23.23,0,0,0-.05.21l.14.13a.58.58,0,0,1,.07.21s0,0,.05-.05a.51.51,0,0,0-.21-.5M3.4,1.46a.27.27,0,0,0-.14-.25.49.49,0,0,0-.07.25c.07.07.07.16.11.25a.28.28,0,0,0,.1-.25m2.05-.24A.27.27,0,0,0,5.24,1a.29.29,0,0,0-.16.18.58.58,0,0,0,0,.32c0,.23.4.35.35.62l.09,0a.88.88,0,0,0,0-.32h0c.14-.1.3-.21.33-.39s0-.17,0-.21l-.18.07c-.1.09-.1.23-.18.32H5.43a2.18,2.18,0,0,0,0-.35M9.22.41V.11H8.81c-.05,0-.05.12-.14.07s0,.07,0,.1a1.48,1.48,0,0,1-.42,0v0c0-.07,0,0-.09,0V.12l-.46,0c0,.09,0,.19,0,.3.51,0,1.06,0,1.54,0m1.57,2.76v0Zm2.46.07s-.06-.09-.11-.09-.14,0-.19,0a.5.5,0,0,0,.38.23.25.25,0,0,0-.08-.18m-2.6-.11v0l0,0s0,0,0,0Zm3.59.08s-.09-.06-.11-.11-.16,0-.23,0l.09.13a1.31,1.31,0,0,0,.28,0Zm-3.73-.15s0,0,0,0v.05s0,0,0,0M10.37,3h0s0,0,0,0h0s0,0,0,0m-.13-.05s0,0,0,0l0,0a0,0,0,0,0,0,.05,0,0,0,0,0,0,0m1.5,0a.12.12,0,0,0-.08,0s0,0,0,0a.08.08,0,0,0,.07,0s.05,0,.05,0m-1.62,0s0,0,0,0h0s0,0,0,0m4-.05a.79.79,0,0,0-.23,0,.49.49,0,0,0-.23.42.38.38,0,0,0,.19.3.32.32,0,0,0,.14,0s-.1-.1-.1-.17,0-.09,0-.11-.07-.09-.09-.13,0,0,0-.08.32-.07.34-.25m-2.3,0a.08.08,0,0,0-.11,0,.06.06,0,0,0-.06.05h.07a.14.14,0,0,0,.1-.05M10,2.78a.08.08,0,0,0,0,0Zm3.45,0v0a.37.37,0,0,0-.16.09.77.77,0,0,1-.06.23h.09a.33.33,0,0,0,.13-.28M12,2.66h-.09a.14.14,0,0,0-.12,0,0,0,0,0,0,0,0A.18.18,0,0,0,12,2.66m.72.12c0-.1-.12-.21-.23-.23s0,.14,0,.18a.69.69,0,0,0,0,.32c.07.05.11,0,.16-.06a.37.37,0,0,0,.07-.21m.46.13A.39.39,0,0,0,13,2.55a.49.49,0,0,0-.05.32S13,3,13,3s.05,0,.07,0,0-.09.07-.14M12,2.55s0,0-.07,0-.09,0-.11.07.11,0,.16,0,0,0,0-.05m0-.16h-.07s-.09,0-.09.07a.11.11,0,0,0,.14,0s0,0,0,0m-.07-.09s-.07,0-.12,0a0,0,0,0,0,0,0s.1,0,.12,0m-.16-.1a.09.09,0,0,0-.1,0s0,0,0,0,.07,0,.07,0m-.16,0s0,0,0,0,0,0,0,0h0s0,0,0,0m0-.05a.36.36,0,0,0-.27,0,.87.87,0,0,0-.44.24.61.61,0,0,0-.16.28c.14,0,.25.15.41.15v0h-.12s.07,0,.1-.07H11l0,0s0,0,0,0,.14,0,.14-.1a.08.08,0,0,1,.05,0,1.16,1.16,0,0,0,0,.33s0,.07.06,0a1.49,1.49,0,0,1,.24.14,1.35,1.35,0,0,1,.48-.07l0,0a.79.79,0,0,0,0-.57c-.06-.18-.27-.23-.48-.23m1.84,0A.12.12,0,0,0,13.37,2a.15.15,0,0,0-.16,0c0,.07,0,.12.09.19s.18.07.25,0-.05-.12-.07-.16M12.15,2c0-.05-.07,0-.07,0s0,0,0,0,0,0,0,0M10.93,2s0,0-.07,0a.31.31,0,0,0-.14.11c0,.05,0,.07.07.07s.07,0,.12,0,0-.07,0-.12M12.19,2s0,0,0,0V2s0,0,0,0,0,0,0,0m1.24,0s0-.1-.07-.05.05,0,.07.05m.32-.1s-.06-.07-.11-.09a.15.15,0,0,0-.18,0s0,.1.07.12a.19.19,0,0,0,.22-.07M11,1.88a.12.12,0,0,0,0-.16L11,1.79c0,.05-.05.12,0,.16s0,0,.06-.07m1.8,0a.16.16,0,0,0-.08-.19.45.45,0,0,0-.08.23c0,.05,0,.07.09.07a.14.14,0,0,0,.07-.11M12,1.65s-.09.05-.16.05v.05h0c.07,0,.17,0,.14-.1m.53,0a1.14,1.14,0,0,0-.67.3l0,.11.14,0a.64.64,0,0,1,.21.09.38.38,0,0,0,.18-.28s0,.07-.09.07,0,0,0-.07a.36.36,0,0,0,.1-.07c.07-.07.16-.11.18-.2m-.55,0s0,0-.07,0-.07,0,0,0a.12.12,0,0,0,.12-.07m0,0s0,0,0-.05a.08.08,0,0,0,0,.05Zm2.1,0a.51.51,0,0,0-.16-.09.22.22,0,0,0-.21.07.1.1,0,0,0,0,.11.54.54,0,0,0,.21,0A.47.47,0,0,0,14,1.51m-.81-.13h0c0,.06-.05.11-.05.18a.32.32,0,0,0,.16.25.27.27,0,0,0,.05-.14c0-.11-.05-.2-.14-.29m-1.7.16a.37.37,0,0,0-.21-.16.38.38,0,0,0,.09.16.13.13,0,0,0,.12,0m2.09-.14a1.6,1.6,0,0,0,0-.21s-.09.07-.09.14,0,0,0,.07M14,1.05a.41.41,0,0,0-.16,0,.3.3,0,0,0-.14.16c.06.05.14,0,.2,0s.12-.07.1-.14M13.57.93a.14.14,0,0,0-.09-.08s-.07.08-.09.13a.21.21,0,0,0,0,.25c.05,0,.12,0,.14-.09s0-.13,0-.21M11.71.82A.56.56,0,0,0,11.5,1a.23.23,0,0,0,.05.18.24.24,0,0,0,.11-.09.33.33,0,0,0,.05-.26M11.27,1a.4.4,0,0,0-.14-.28.29.29,0,0,0-.05.23.26.26,0,0,0,.17.14.15.15,0,0,1,0-.09M13.7,7.26l-.14,0a1.59,1.59,0,0,0,.12.27s0,0,.06-.06,0-.12,0-.17M13.56,6a6.45,6.45,0,0,0-2-2,.39.39,0,0,0,.09.28,6.93,6.93,0,0,1,1.5,1.56l.18.16c.07,0,.14.12.21,0m-.51-.23a7.08,7.08,0,0,0-1.27-1.36c.39.46.81.92,1.18,1.41l0,.07s0,0,.06-.07Zm-.39-2.4A.76.76,0,0,0,12,3a.91.91,0,0,0-.78.51c-.18.51.16.9.49,1.24a8.86,8.86,0,0,1,1.24,1.36L13,6a5,5,0,0,0-.41-.53c-.4-.52-1-.92-1.14-1.56a.42.42,0,0,1,.15-.32.58.58,0,0,1,.64-.17s.11.08.11.14-.09.14-.13.24-.26,0-.33.11,0,.09,0,.14a.3.3,0,0,0,.3.18A.61.61,0,0,0,12.66,4l.07-.14a.57.57,0,0,0-.07-.49m1.08,2.51s-.07,0-.11-.06l0,.06s0,0,.07,0,0,0,0,0m0-.11a.59.59,0,0,0-.27-.14l0,.07c.05.07.16.07.23.07m-.07-.23c-.09,0-.16-.07-.25-.09a.15.15,0,0,0-.09,0l.07.07c.11,0,.2.07.3.07s0-.05,0-.07m0-.14c-.09-.14-.28-.09-.42-.07,0,0,0,0,0,0a2,2,0,0,1,.34,0,0,0,0,0,0,0,0m1.4.32c.07-.16.16-.32.23-.49l-.3.4h-.16l-.09.07c0,.06-.09.13-.09.2s0-.11.09-.13a.18.18,0,0,1,.16,0s.09.07.16,0m-2.21-1c-.07-.1-.16-.21-.25-.21a.22.22,0,0,0-.21,0l.44.37c.12.11.23.27.37.39a.58.58,0,0,1,.55.07.62.62,0,0,1,.16.57.47.47,0,0,1-.25.23.54.54,0,0,1-.51-.18.76.76,0,0,0-.11.16.47.47,0,0,0,0,.35l.14.09a.67.67,0,0,0,.44,0,1.57,1.57,0,0,0,.48-.25,1.43,1.43,0,0,0,.21-.49.63.63,0,0,1,.41-.46l0-.18a.79.79,0,0,0-.49-.44c0,.14,0,.28,0,.42a.24.24,0,0,0,.14.25v0a.32.32,0,0,1-.23-.2.83.83,0,0,0-.81-.41c0-.1-.07-.21-.19-.26s-.16.07-.25.1M15.08,5h-.26s-.14,0-.11.09l.16,0c.05,0,.09,0,.14,0A.17.17,0,0,1,15.08,5m1.08.43c-.05,0-.1,0-.12-.09a.45.45,0,0,0-.46.07,1.07,1.07,0,0,1-.18.39s.07,0,.11,0c.32.07.37-.37.65-.4m-1.29-.13v0h-.09l0,0a.25.25,0,0,0,.12,0m.07-.16a.26.26,0,0,0-.21,0,.07.07,0,0,1,0,0h0c.07,0,.16,0,.16,0m.11-.23V4.87c-.09,0-.14,0-.23,0s-.09,0-.09.07a1.77,1.77,0,0,1,.32,0m0-.17v0h0c-.07,0-.16,0-.21.07Zm0-.16s-.05,0-.05,0h.05s0,0,0,0m.27,1.61c-.21.14-.48.14-.62.35a.43.43,0,0,0,0,.23.31.31,0,0,0,.14.09.25.25,0,0,0,.2-.09s0-.09,0-.13-.11,0-.16-.08.09,0,.13,0a.25.25,0,0,1,.12.18c.07.12.18.12.3.12l-.07-.23a.36.36,0,0,0-.21-.11.32.32,0,0,0,.16-.31m.07,0,0,0a3.56,3.56,0,0,1-.6.23.51.51,0,0,0-.21.35c0,.11.07.23.19.27a.33.33,0,0,0,.33-.11c0-.07.08,0,.13,0s.25,0,.34.09,0,0,0-.07-.09-.23-.13-.35l-.1-.09a.51.51,0,0,0,.07-.32M14.34,7s0,0-.07,0V7a0,0,0,0,0,.05,0s0,0,0,0m0-.14s0-.07-.05-.07v0a.05.05,0,0,0,.05,0Zm0-.14s0-.06-.05-.08,0,0,0,.06,0,0,0,0m0-.2s-.09,0-.09,0,0,0,.07,0a.12.12,0,0,0,0,0m0-.14s0,0-.05,0,0,0,0,0,.05,0,.05,0M15.51,5a.27.27,0,0,0,.05-.11.93.93,0,0,0-.53.34.41.41,0,0,0-.11.23.31.31,0,0,0-.17,0,.46.46,0,0,0-.3.32,1.25,1.25,0,0,1-.36.62c-.23.14-.44.33-.72.28l0,.16,0,.14a.63.63,0,0,0,.42.16l.07.25a1.36,1.36,0,0,1-.12.12c0,.07,0,.11,0,.18s.12.16.21.21A.92.92,0,0,0,14.2,8a.56.56,0,0,0,.46-.16,1,1,0,0,1-.37-.62l0,0a0,0,0,0,1,0,0,.94.94,0,0,0,.69.74c0-.19,0-.4-.18-.53,0,0,0,0,0-.07.28,0,.32.36.6.39a1,1,0,0,1-.09-.18.27.27,0,0,1,0-.17.8.8,0,0,0,.47.09.61.61,0,0,0-.26-.32s0,0,0,0a.42.42,0,0,0,.36.07A.41.41,0,0,0,16.18,7,.3.3,0,0,1,16,7c-.34,0-.09-.44-.19-.65a1.56,1.56,0,0,0-.11.26h0s0,0,0,0a.62.62,0,0,0-.08-.5c0-.12-.18-.14-.27-.21a.58.58,0,0,1-.21.07L15,6.11c-.14.09-.3.11-.42.25a.21.21,0,0,1,0,.1l0,0,0-.16c.09-.11.25-.14.37-.23s0-.11.09-.18a.43.43,0,0,0,.34-.14A1.81,1.81,0,0,0,15.51,5m1.4,5.64c-.08,0-.08.07-.12.07a.31.31,0,0,1-.25,0s0,0,0,.05a.17.17,0,0,0,.18,0,.3.3,0,0,0,.17-.14m-.1-.07a.42.42,0,0,1-.27,0,.07.07,0,0,0,0,0,.22.22,0,0,0,.27,0s0,0,0,0m0-.09s0,0,0,0a.78.78,0,0,1-.21,0s0,0,0,0,.17,0,.21,0m0-.07v-.05a.61.61,0,0,0-.23,0v0Zm.32-.1c-.05,0-.12-.06-.16,0a.11.11,0,0,0-.1.12.19.19,0,0,0,.07.2s.1,0,.14,0a.11.11,0,0,0,.07-.09c.05-.07,0-.13,0-.21m-.28,0a.51.51,0,0,0-.3,0c.09,0,.19,0,.28,0s0,0,0,0m0-.14c-.11,0-.25,0-.32.07a1.32,1.32,0,0,1,.28,0s.07.11.09,0,0,0,0-.07m.12.07c0-.09-.14-.21-.25-.21s-.12,0-.12.1l0,0a.3.3,0,0,1,.27.07s0,.07,0,.07M17,10c-.05-.07-.12-.16-.21-.16s-.09.07-.12.12A.33.33,0,0,1,17,10ZM16,8.36s0-.07,0-.09a.36.36,0,0,1-.28.16l.17.37a3.77,3.77,0,0,1,.11,1c0,.07.07,0,.09,0a.19.19,0,0,0,.17-.12.31.31,0,0,1-.17,0s0,0,0,0,.19-.07.21-.16a1,1,0,0,1-.21.1s0,0-.05-.07a.87.87,0,0,1,.19,0,.1.1,0,0,0,.07-.12s-.05.05-.09.05A.13.13,0,0,1,16,9.44l0,0a.27.27,0,0,0,.25-.09.1.1,0,0,0,0-.07.23.23,0,0,1-.23.05s0-.05,0-.07l.09,0a.35.35,0,0,0,.11-.07s0-.09,0-.11l-.11.09c-.05,0-.1,0-.12,0a.08.08,0,0,1,0-.05c.07,0,.19,0,.21-.09s0-.07,0-.1-.11.15-.2.1-.06,0,0-.07a.24.24,0,0,0,.21-.14.17.17,0,0,0,0-.1.34.34,0,0,1-.14.15c-.05,0-.11,0-.14,0a.09.09,0,0,1,.09,0c.09,0,.12-.12.14-.19s0,0,0,0a.31.31,0,0,1-.21.16s-.05,0-.05-.05.16,0,.21-.14a.13.13,0,0,0,0-.12.52.52,0,0,1-.18.15c-.05,0-.11,0-.11,0s.2,0,.24-.16M14.5,8a2,2,0,0,1-.34,0,11.58,11.58,0,0,1,.37,1.77,1,1,0,0,1,.48.29l.12,0a.5.5,0,0,1,0-.24c0-.06.1-.13.16-.13a.27.27,0,0,1,.28.11,1.3,1.3,0,0,1,.16.95c.05,0,.07,0,.12,0s.09-.17.2-.16.14-.08.23-.08a.15.15,0,0,0,.14,0,.36.36,0,0,0,0-.32,2,2,0,0,1-.35,0c0-.05-.06,0-.09-.05s0,0,0,0,.05,0,.07,0L16,10C16,10,16,10,15.94,9.9a.44.44,0,0,1-.08-.25,2.15,2.15,0,0,0-.23-1.24l0,0c.1,0,.21-.05.23-.17A.15.15,0,0,0,15.84,8c-.09,0-.16.05-.25.09a.48.48,0,0,0-.07.26,5.55,5.55,0,0,1,.09.83c0,.09-.07.22-.18.23a.42.42,0,0,1-.17,0c-.09-.18-.09-.41-.25-.58a.41.41,0,0,0-.16,0l-.11,0c-.07-.27-.17-.52-.24-.8m.72,2.53h-.07s0,0,0,0h0s0,0,0,0m0-.07s0,0,0,0v0l0,0Zm0-.07s0,0,0,0h0m.09-.39a.37.37,0,0,1-.09.16.61.61,0,0,0-.19,0,.74.74,0,0,1,0,.44l.11,0c.14-.07.07.12.14.14a1.1,1.1,0,0,0,0-.76m.28-.12a.29.29,0,0,0-.28-.11s-.09.09-.07.14,0,0,.07,0a1.29,1.29,0,0,1,.19.54,1.33,1.33,0,0,1-.09.45c0,.05-.07,0-.1.05s.1.09.16.12a.91.91,0,0,0,.14-.07,1.41,1.41,0,0,0,0-1.07m-.09,1.87c-.05,0-.05,0-.05.05s.05.07.09.09,0,0,0-.05-.05-.07-.07-.09m.13-.07s0,0-.06,0,0,0,0,0,0,0,0,0m.1-.14a0,0,0,0,0-.05,0s0,.05.05,0m.14-.23s0,0,0,0v0Zm.09-.14s0,0,0,0v0s0,0,0,0a0,0,0,0,0,0,0m.07-.11s0,0,0,0,0,0,0,0,0,0,.05,0Zm.85,0c.05,0,.06,0,.09,0a.58.58,0,0,1-.18,0v0s.06,0,.09,0M16.07,11s0-.05-.06-.05,0,0,0,0,.05.07.07.07a.06.06,0,0,0,0,0m.84,0s.09,0,.09-.12a.36.36,0,0,1-.33.12s0,0,0,0a.19.19,0,0,0,.19,0m.09-.28h0a.49.49,0,0,1-.34.17l0,0a.26.26,0,0,0,.21,0,.27.27,0,0,0,.14-.19M11.06,2.83c-.27-.1-.45-.33-.78-.33l-.11.1-.09.11a1.65,1.65,0,0,0-.28.67c0,.05,0,.09,0,.12a.86.86,0,0,1,0-.23c.07-.1.09-.26.21-.33s0,0,0,0a1.59,1.59,0,0,0-.18.57s0,0,.06,0a.56.56,0,0,1,0-.23A.78.78,0,0,1,10.19,3a0,0,0,0,1,0,0,1.44,1.44,0,0,0-.15.47.3.3,0,0,0,0,.13h0a1,1,0,0,1,.19-.57s0,0,0,0a.88.88,0,0,0-.13.6h.07V3.52a.71.71,0,0,1,.16-.39l0,0a1.54,1.54,0,0,0-.11.55s0,.07.06,0a.42.42,0,0,1,0-.19c0-.11,0-.3.16-.36v0a.91.91,0,0,0-.09.35c0,.06,0,.18,0,.23a2,2,0,0,1,.16-.56s.05,0,.05,0a2.06,2.06,0,0,0-.12.57.08.08,0,0,1,.07,0,1.06,1.06,0,0,0,0-.25c0-.11,0-.23.12-.3s0,0,0,0l-.09.32c0,.09,0,.2,0,.28h0a1.23,1.23,0,0,1,.07-.42c0-.07,0-.14.09-.16s0,0,.05,0a.87.87,0,0,0-.1.19c0,.14,0,.27,0,.39l.09.07a1,1,0,0,1,0-.39,1,1,0,0,1,.43-.63ZM9.27,1.06,9.17,1C9,.85,8.85,1,8.69,1a.38.38,0,0,1-.16.11c-.11,0-.23,0-.28-.11A2.23,2.23,0,0,1,7.93,1c-.12-.07-.2,0-.27.11s0,0,0,.05a.55.55,0,0,1,.1.5.41.41,0,0,1-.26.16A.29.29,0,0,0,7.61,2c.19.26,0,.62.19.85,0,.14-.14.21-.11.35a.16.16,0,0,0,.06.12.85.85,0,0,1,.14-.17c.05,0,0,0,0-.07s0,0,.07,0a.37.37,0,0,0,.23.18c.07,0,.14,0,.16-.05S8.19,3,8.19,2.81c0,0,0-.05.09,0s0,.07.05.1a.32.32,0,0,0,.27,0s0-.07.05-.1.07,0,.09.05-.2.14-.18.28a.15.15,0,0,0,0,.09A.42.42,0,0,0,9,3H9c.1,0,0,.1.07.14s.08.07.12.12.07,0,.07-.1-.11-.2-.12-.34c.21-.18.07-.48.12-.72s.16-.2.14-.34a.53.53,0,0,1-.24-.16.55.55,0,0,1,.1-.53s0,0,0,0m-1.4.71s-.07-.16-.12-.06a.13.13,0,0,0,.06.11.06.06,0,0,0,.06-.05M9.18,1.7c0-.11-.12,0-.14.07a.1.1,0,0,0,.07.05,1,1,0,0,0,.07-.12M8.6,1.54s0,0,0-.07,0,.12-.05.19.05,0,.07,0,0-.09,0-.14m-.21,0c0-.05,0-.07,0-.1a.31.31,0,0,0,0,.21h0c.05,0,0-.09,0-.11m-.18-.1s0,0-.05,0a.39.39,0,0,0,0,.16s0,0,0,0,0-.12,0-.17m.58.12c0-.05,0-.14,0-.14s0,.09,0,.16,0,0,.07,0m-.72-.14S8,1.36,8,1.4s0,.1,0,.14,0,0,.09,0Zm.87.07c0-.05,0-.07,0-.12s0,0-.06,0,0,.12,0,.17h0s0,0,0-.05M8,2.39S8,2.28,8,2.3a.13.13,0,0,0,0,.12l.09,0a.05.05,0,0,0,0,0Zm1,0V2.3c-.06,0-.06.05-.09.09s-.07,0,0,0,0,0,.07,0S9,2.39,9,2.37M7.68,1.29A.7.7,0,0,0,7,1a2.09,2.09,0,0,0-.44.16.61.61,0,0,0-.32.64l.07.07a.2.2,0,0,0,.14,0,2.52,2.52,0,0,0,.14-.33.63.63,0,0,1,1-.18c0,.07.05.11,0,.18s-.13,0-.16.1a.11.11,0,0,0,.09.09.14.14,0,0,0,.14,0,.4.4,0,0,0,.07-.32M8.55,1a.2.2,0,0,0-.2,0V1A.06.06,0,0,0,8.42,1a.1.1,0,0,0,.13,0s0,0,0-.06m0-.14,0,0a2.26,2.26,0,0,0-.26,0s0,0,0,.06a.88.88,0,0,0,.28,0Zm0-.12a1.7,1.7,0,0,1-.32,0s0,0,0,.05h.35Zm0-.09,0,0a2.28,2.28,0,0,1-.37,0v0a1.17,1.17,0,0,0,.37,0s0,0,0,0M8.72.46a4.44,4.44,0,0,0-.53,0,0,0,0,0,0,0,.05h.44l.05,0s0,0,0,0m.46,1.61s0-.07,0-.07a.58.58,0,0,1-.46.19s0,0,0,.06,0,.24.16.28a.15.15,0,0,0,.2,0c.12-.06.1-.2.1-.31ZM8,2.17A.63.63,0,0,1,7.8,2l0,0c0,.07.07.11.09.16a.66.66,0,0,0,0,.25.21.21,0,0,0,.2.11.36.36,0,0,0,.21-.11c0-.09.05-.16,0-.25a1.14,1.14,0,0,1-.25,0m2.3-1.11L10.17,1a.74.74,0,0,0-.81.14c0,.07-.07.09-.11.16a.33.33,0,0,0,.11.34.14.14,0,0,0,.16,0,.1.1,0,0,0,0-.07c0-.05-.06,0-.11-.05s-.07-.07,0-.11a.26.26,0,0,1,.19-.21.7.7,0,0,1,.71.16c.14.12.11.28.21.44a.16.16,0,0,0,.16,0c.07,0,.07-.11.09-.2a.68.68,0,0,0-.41-.53M1.23,13.82a.36.36,0,0,0-.11-.21.28.28,0,0,0-.09.26c0,.09.14.13.22.18a.76.76,0,0,1-.06-.18Zm-.3-.25a.35.35,0,0,0-.2-.14.72.72,0,0,0,.07.39l.16.07v-.05a.83.83,0,0,0,0-.27m.72-.07a.33.33,0,0,0-.4-.16.53.53,0,0,0,.1.32.76.76,0,0,0,.16.09c.07,0,.11.07.18.05s0-.1,0-.17a.17.17,0,0,0,0-.13m1.1-.33s-.09,0-.14,0a.88.88,0,0,1-.25.18.53.53,0,0,0-.27.47l.11-.07a.49.49,0,0,1,.11.18l.17,0a.43.43,0,0,1,.16.39c0,.18-.18.25-.23.39s.12.35.16.5a1.07,1.07,0,0,1,.44-.5c-.09-.21-.14-.41-.21-.63,0,0,0-.06,0-.09h.05a2.71,2.71,0,0,0,.25.67l.18-.07v0c-.18-.44-.41-.88-.55-1.34m-.92-.11h0c-.07.07-.16.11-.18.21a.48.48,0,0,0,.11.25s0,0,0,0,.11-.07.16-.14a.38.38,0,0,0-.12-.27M3.09,8.4H3l0,.1a3.75,3.75,0,0,0-.3,1.15l-.11.07c-.12,0,0,.23-.18.28a.35.35,0,0,0-.24.14,1.18,1.18,0,0,0,0,.57,1,1,0,0,0,.37.32.3.3,0,0,1,.09.23c0,.07.09.07.14.1s.07.09.07.15a.92.92,0,0,0-.07.26,9.44,9.44,0,0,0,.09,1.08l0,.07a9,9,0,0,0,.62,1.52.22.22,0,0,1,0,.16,1.2,1.2,0,0,0-.74.57.92.92,0,0,0,.12.85,1,1,0,0,0,1,.35s.06-.1.09-.14a.15.15,0,0,0,0-.18s-.1-.07-.14,0a.23.23,0,0,0,0,.16A.69.69,0,0,1,3,16a.89.89,0,0,1-.23-.66,1,1,0,0,1,.72-.62c.09,0,.13,0,.2.06s.12,0,.16,0A8.1,8.1,0,0,1,2.87,12,9.19,9.19,0,0,1,3,8.78a2,2,0,0,0,.07-.38M1.66,8.2c0-.07-.11-.09-.18-.09A1.09,1.09,0,0,0,1,8.57,4.86,4.86,0,0,0,.7,9.77.68.68,0,0,0,.84,10L1,10a.09.09,0,0,1,.1,0v0a.08.08,0,0,0,0,.07c0,.07,0,.17,0,.24a1.19,1.19,0,0,1-.42,0C.56,10.25.58,10.14.56,10s0-.22-.16-.27-.11.25-.11.42-.07.18-.17.23a.29.29,0,0,0,0,.2l.11.09s0,.12,0,.19,0,.23.18.28l.09,0a1.13,1.13,0,0,0,.1-.37.35.35,0,0,1,.36,0,.74.74,0,0,0,0,.21.65.65,0,0,0-.13.23c0,.19.18.32.27.49a2.25,2.25,0,0,1,.26,1.06.75.75,0,0,0,0,.22c0,.05.05,0,.07,0a1.58,1.58,0,0,0,.27-.75c0-.14,0-.3,0-.42s.18-.12.29-.12.07,0,.1.07,0,.23.09.35l.14,0h.14c0-.09,0-.16,0-.23a.59.59,0,0,1,0-.32s0-.09,0-.12-.18-.2-.23-.32a1.18,1.18,0,0,1-.32-.27s-.05,0-.05,0-.11.14-.16.23a.39.39,0,0,1-.23.05c-.09,0-.14-.07-.21-.12a1.08,1.08,0,0,1,0-1.15.23.23,0,0,1,.24-.07s.09,0,.11.12.05.11.09.18.12,0,.16,0a.51.51,0,0,1,.31-.21.34.34,0,0,0,0-.16.69.69,0,0,1,.18-.16,4.4,4.4,0,0,1,.3-1.2c-.07,0-.14,0-.21-.06a.91.91,0,0,1-.11.25,2.08,2.08,0,0,0-.07.55l0,0c-.05,0-.07-.05-.1-.07s-.13-.05-.2,0a.6.6,0,0,1-.26.38.17.17,0,0,1-.16,0c-.18,0-.2-.21-.27-.37a.24.24,0,0,1,0-.14s0,0-.06,0a.61.61,0,0,0,.16.46l0,0s-.07,0-.07,0L1.32,9.1s-.05,0-.07,0a.79.79,0,0,0,.16.39s0,0,0,0-.06-.16-.18-.21,0,0,0,0,.07.13.12.18,0,0,0,.07-.07-.14-.14-.07.09.14.16.18a.1.1,0,0,1,0,.07s-.07,0-.1-.07a0,0,0,0,0,0,0c0,.05.07.05.09.07s0,.07,0,.09,0,0,0,0-.07.09-.15,0c.06-.25,0-.55.08-.83s.51-.55.53-.92m-.36,3A.28.28,0,0,0,1.21,11c-.05.06-.16.09-.14.18a1.67,1.67,0,0,1,.48.87c0,.1,0,.19,0,.26a.11.11,0,0,0,.07,0s0-.09,0-.11.1-.26.1-.4c-.07,0-.05.1-.1.14h0s0-.07,0-.11.09-.14.12-.23,0,0-.05,0l-.12.14,0,0c0-.11.09-.16.16-.21a0,0,0,0,0,0,0s-.12,0-.18,0a.05.05,0,0,1-.05,0c0-.05.09,0,.14-.07v0c-.07-.05-.14,0-.21,0s-.05-.05,0-.07h.16v0c-.07,0-.21,0-.26-.09s0,0,.05,0m1,9.41a.17.17,0,0,0-.09-.07l-.07.09a.36.36,0,0,0,0,.35l.09-.05a.32.32,0,0,0,.09-.32m-.55.07c0-.07.07-.14,0-.21s0,0-.06,0a.41.41,0,0,0-.12.42s.07-.05.09-.07Zm-.44-.28-.2.08a.3.3,0,0,0-.14.25c.14-.05.32-.17.34-.33m1.17,0s-.06,0-.11,0-.07,0-.07.09a.48.48,0,0,0,.24.09.15.15,0,0,0-.06-.13M1,20.31v0a.36.36,0,0,0-.51.19l.12,0A.47.47,0,0,0,1,20.31m1.38-.12a.41.41,0,0,0-.32.09.21.21,0,0,0,0,.17h.17a.33.33,0,0,0,.18-.25M2,20a.27.27,0,0,0-.29-.12l-.12.1a.34.34,0,0,0,0,.27c0,.07.11.1.17.09A.24.24,0,0,0,2,20.17.2.2,0,0,0,2,20M.32,20c0-.09.12-.18,0-.29s-.23.11-.25.23a.24.24,0,0,0,0,.23A.24.24,0,0,0,.32,20m1.18-.3H1.31c-.05,0-.11.07-.11.14a.31.31,0,0,0,.3-.14m-.81.05a.31.31,0,0,0-.21-.23.55.55,0,0,0,0,.26c0,.09.12.11.16.18a.26.26,0,0,0,.07-.21M2,19.34c-.08-.09-.19,0-.26,0a1.49,1.49,0,0,1-.25.13c-.05,0,0,.07-.05.09s.05.07.07.07,0,.12,0,.19l0,0a.45.45,0,0,1,.39,0A.61.61,0,0,0,2,19.34M.44,19.18a.51.51,0,0,0-.21,0c-.09,0-.11.13-.14.2a1,1,0,0,0,.28-.07.15.15,0,0,0,.07-.16m1.15-.05h0s-.05,0,0,0,.05,0,.05,0m.3.05s0-.05,0-.05,0,0,0,.05ZM.62,19.11c-.09.05-.09.14-.11.21s.07.14.14.18.06,0,.06,0,0-.25-.09-.37m1.82.23a.47.47,0,0,0-.39-.26s0,.05,0,.1.07.09.12.14,0,.09,0,.13a.68.68,0,0,0,.32.05h0Zm-.83-.44a.86.86,0,0,0-.39,0c0,.1,0,.18,0,.3s.16-.07.25,0v0a0,0,0,0,1,0,0s0,0-.07.05-.18,0-.25.11a.62.62,0,0,0,.6-.16s.05-.09.07-.13-.14-.1-.21-.17m-.46-.09a.5.5,0,0,0-.44.12l0,.11a.52.52,0,0,1,.14.32c0,.05,0,.1,0,.17s.26-.08.3-.19a1.79,1.79,0,0,0,.07-.53m2.4.25a.94.94,0,0,1-.44-.44L3,18.85c0,.14-.14.33-.07.46s.21.14.32.14.1,0,.12,0v0a.34.34,0,0,0,.16,0,.5.5,0,0,0,.23-.3ZM.64,18.88c0-.11,0-.28-.09-.39-.09.09-.18.19-.13.32A.89.89,0,0,0,.55,19c0-.07.09-.09.09-.16m.53-.44c0-.06-.14-.06-.2-.06a.61.61,0,0,0-.3.18c0,.12,0,.19,0,.3h0a.84.84,0,0,1,.42-.14,1.35,1.35,0,0,0,0-.28m.51-.21v0a.72.72,0,0,0-.65.12c.07,0,.19,0,.23.07l-.06.34s0,.05,0,.05.12,0,.19,0,.14-.26.23-.37Zm2.9.09c-.07,0-.14-.13-.23-.18a3,3,0,0,1-.37.3,1.11,1.11,0,0,1-.78.07s-.05,0-.05,0,.09.19.16.26a.78.78,0,0,0,.37.22l.12,0c0-.11.11-.18.2-.23a1.79,1.79,0,0,0,.33-.18.89.89,0,0,0,.25-.26m-1.71-.39a.4.4,0,0,0-.23-.32c-.06.07-.18.07-.27.1s-.09.13-.18.18,0,.16,0,.23.21.07.28.14a1,1,0,0,0-.42.73.43.43,0,0,1,.37.19,2.46,2.46,0,0,1,.28-1c0-.09.11-.13.13-.23M.8,17.62a.27.27,0,0,0-.23,0,.46.46,0,0,0-.11.16H.64c.07,0,.14,0,.16-.13m.39-.26a.1.1,0,0,0-.07,0l0,.06a.29.29,0,0,0,.09.33s0,0,0,0a.44.44,0,0,0,0-.26Zm1.22-.07-.2.14a.41.41,0,0,0-.07.39.31.31,0,0,1,.14-.11,1.21,1.21,0,0,1,.13-.42m.12.28c.16-.07.16-.28.16-.44l-.09.07c-.09.12-.21.23-.19.41a.28.28,0,0,0,.12,0m-1.68-.3A.25.25,0,0,0,.73,17a.3.3,0,0,0,0,.23.53.53,0,0,0,.11.09.09.09,0,0,0,0-.09m3.56,0c-.13-.14-.2-.34-.41-.37,0,0-.07,0-.07,0s-.2.23-.13.39c0-.12,0-.25.18-.28v0c-.07.11-.18.27-.11.39,0-.14.09-.21.16-.3s0,0,0,0a.82.82,0,0,1-.11.23s-.07.16,0,.2a.48.48,0,0,1,.18-.32s0,0,0,.05a.4.4,0,0,0-.16.34.06.06,0,0,0,0,.07.66.66,0,0,1,.14-.32h0a.68.68,0,0,0-.12.41s0,.07.07.07a.54.54,0,0,1,.14-.36s0,0,.07,0a.56.56,0,0,0-.12.41c0,.05,0,.07.07.07a.63.63,0,0,1,.05-.3s.07-.09.12-.09a.07.07,0,0,1,0,0,.37.37,0,0,0-.11.37.14.14,0,0,0,.09.14.42.42,0,0,1,0-.41.21.21,0,0,1,.09-.05s0,0,0,0a.65.65,0,0,0-.1.51l.12.07,0-.09a.54.54,0,0,1,.16-.53c-.16-.14-.32-.28-.47-.44m-3.7-.75,0,0s-.12,0-.15,0,0,.28,0,.42a.42.42,0,0,0,.16-.44m.41,0c0-.06,0-.16,0-.2a.37.37,0,0,0-.14.09.44.44,0,0,0,0,.3.37.37,0,0,0,.18-.19m.37-.2s-.05,0,0,0a0,0,0,0,0,0,0Zm1.2.07a.44.44,0,0,0-.1-.15l0,.12a.52.52,0,0,0,.16.41.42.42,0,0,0,0-.38M.53,16.3c-.05,0-.1-.09-.17-.06s-.16,0-.2.09a.34.34,0,0,0,.29.16.12.12,0,0,0,.09-.12.2.2,0,0,0,0-.07m1-.09s0-.05-.07-.05v.05s0,.05.05,0a0,0,0,0,0,0,0M1,16.14a.24.24,0,0,0-.2-.09s0,.07,0,.11.05.12.1.12.09,0,.11,0a.34.34,0,0,0,0-.14m.65-.07s-.09-.07-.09,0a.06.06,0,0,0,.06,0Zm0-.09,0,0s-.05,0-.05,0,.05,0,.09,0,0,0,0,0m.21-.07s0,0,0,0,0,.05,0,.07,0,0,0-.09m-.1.05,0-.07c-.09,0-.21-.07-.28,0a1.07,1.07,0,0,0,0,.71l.14-.06a.66.66,0,0,0,.22-.6m.44.09c-.09-.09,0-.26,0-.35a.74.74,0,0,1-.28.21c0,.53-.09,1-.09,1.52a2,2,0,0,0,.3.74s0,0,0,0,0-.16-.05-.23h0c-.09-.12,0-.3,0-.44a.47.47,0,0,1,.3-.3s.07,0,.09,0A2.49,2.49,0,0,0,2.69,17a0,0,0,0,1,.07,0,1.78,1.78,0,0,1,0,.46s-.05.07-.05.1a.63.63,0,0,1,.28.36l.11,0a.31.31,0,0,1,.21,0c.14,0,.32-.07.39.07a.78.78,0,0,1-.41.48,1.51,1.51,0,0,0,.3,0,.89.89,0,0,0,.69-.39,3.69,3.69,0,0,1-.63-.74.71.71,0,0,1,.3-.57.45.45,0,0,1,.39.25s.12.14.19.14S4.58,17,4.6,17c-.19-.23-.39-.46-.6-.67l0,0v.05a.58.58,0,0,1-.64.16,1.07,1.07,0,0,1-.8-.71s0,.05,0,.09a1.58,1.58,0,0,0,.57.74v0c-.11.1-.19,0-.26-.09,0,.14,0,.3-.09.39a.11.11,0,0,1-.07,0c-.11-.21-.27-.46-.14-.71L2.41,16h0l-.13.09a.06.06,0,0,1-.08,0m-.44-.37s0,0-.06,0,0,.06,0,.06,0,0,0,0m.12,0c0-.05-.07,0-.1-.05v0s.05.06.1.06ZM2,15.61s-.07,0-.12,0,0,0,0,0,.05.05.09,0,.05,0,0,0m.11-.11a.11.11,0,0,0-.11,0s0,.07.09.07Zm-1.4.12a1.4,1.4,0,0,1-.09-.17.62.62,0,0,0-.14.28.36.36,0,0,0,.23-.11m.46-.21,0,0a.33.33,0,0,0-.21,0,.25.25,0,0,0-.07.19.29.29,0,0,0,.3,0c.09-.05,0-.18,0-.25m1-.05s-.05,0-.07,0,0,0,0,.07,0,0,0-.07M.8,15.57a.32.32,0,0,0,0-.35c-.05,0-.1,0-.12.1s0,.2.12.27Zm1.38-.35s-.07,0-.07,0l.05,0Zm1.27-.07a.06.06,0,0,0-.05-.05.42.42,0,0,0-.35.42.34.34,0,0,0,.17.32c.07,0,.14.07.23,0s0,0,0,0a.12.12,0,0,0-.09,0,.29.29,0,0,1-.24-.18.4.4,0,0,1,.09-.34.22.22,0,0,1,.19-.07.06.06,0,0,0,.05,0m-2.79,0a.43.43,0,0,0,.25-.34A.62.62,0,0,1,.66,15a.31.31,0,0,0,0,.25m2.95-.28a.26.26,0,0,0-.14-.09.82.82,0,0,0-.62.46.52.52,0,0,0,.11.59.67.67,0,0,0,.58.28s0,0,0-.07a.26.26,0,0,1,.14-.18c-.12-.21-.28-.37-.39-.58,0,0,0-.06.07-.06s.2.29.29.45a9.38,9.38,0,0,0,1.5,1.52l.33.21a1.08,1.08,0,0,1,.13-.33.13.13,0,0,1,.12,0A.88.88,0,0,1,6.1,18a.63.63,0,0,1-.33.44c-.09,0-.15.11-.29.09a.48.48,0,0,1-.42-.3,1.4,1.4,0,0,1,0-.41c0-.05-.07-.05-.11-.05a.38.38,0,0,0-.18.3.69.69,0,0,0,.46.6A.8.8,0,0,0,6,18.5a.87.87,0,0,0,.32-.76A1.49,1.49,0,0,0,6,17.1,7.33,7.33,0,0,1,3.93,15c-.05-.05-.12,0-.19,0a.58.58,0,0,0,.1.32A7,7,0,0,0,5,16.62l0,0A5.86,5.86,0,0,1,3.7,15.27c-.07-.1-.05-.23-.09-.35M2.16,15a.51.51,0,0,0-.47-.21l-.15.07a.68.68,0,0,0-.28.48.41.41,0,0,0,.16.35.53.53,0,0,0,.58,0c.13-.09.27-.23.25-.39s0-.18-.09-.27M1,14.6a.54.54,0,0,0-.28,0c-.07.07-.14.13-.14.23H.77A.38.38,0,0,0,1,14.6m.78,0a.53.53,0,0,1-.32-.05.31.31,0,0,1-.23.12c-.05,0-.11,0-.14.06L1,14.86c0,.13-.08.25-.17.36s.05.12.07.16.21,0,.28-.07.06-.11,0-.16.23-.36.42-.41.09,0,.11,0,0-.09,0-.13m-.41-.16a.61.61,0,0,0-.4-.05l-.09.09.07,0a.37.37,0,0,0,.38,0s.09,0,0-.06m.46-.05a.39.39,0,0,0-.37-.21.11.11,0,0,1-.07,0c0,.09,0,.18.12.22a.3.3,0,0,0,.32,0ZM2.48,14a.31.31,0,0,0-.17.05.52.52,0,0,0-.22.41.77.77,0,0,1,0,.37c0,.05.14.09.16.16s0,.18.11.25a1.26,1.26,0,0,1,0,.28c.09.16-.14.27-.09.44a.61.61,0,0,0,.27-.51,4.15,4.15,0,0,0-.16-.78c0-.16.16-.26.23-.41A.36.36,0,0,0,2.48,14m-1.38.07C1,14,.91,14,.8,14s-.14,0-.14.11a.41.41,0,0,0,.32.07c.05,0,.12,0,.12-.07M2.23,14c0-.05,0-.12,0-.14s-.21.14-.3.23,0,.09,0,.16,0,.3,0,.46.09,0,.12.05c0-.26,0-.6.23-.76m-.51,0a.54.54,0,0,0-.21-.16.36.36,0,0,0-.23.05.32.32,0,0,0,.14.21c.12,0,.23,0,.32,0a.18.18,0,0,0,0-.14m1.13-.16c0-.05-.05-.05-.1-.07v0c0,.05,0,.07,0,.1s0-.05.05-.05m-1.52-.09a.06.06,0,0,0-.05-.05s0,.05,0,.05Zm1.78,7.08a.14.14,0,0,0-.14,0,.48.48,0,0,0,0,.37A.43.43,0,0,0,3.11,21a.18.18,0,0,0,0-.19M4,20.58a1.13,1.13,0,0,1-.76-.2c0,.08.1.15.14.25a1.06,1.06,0,0,0,.21.11,2.12,2.12,0,0,0,.67.05A.49.49,0,0,0,4,20.58m0-.18-.37-.16c-.16,0-.37-.14-.51,0a1.13,1.13,0,0,0,1,.18Zm-.37-.49a.89.89,0,0,1-.76-.09.17.17,0,0,0,0,.18.49.49,0,0,0,.24.15.45.45,0,0,1,.39-.08l.16-.16m9.11-2.52c-.05,0-.09-.09-.16-.07a.09.09,0,0,0-.05.09.92.92,0,0,1,.19.48h.07s0-.06.07-.11a.51.51,0,0,0-.12-.39m-.58,0a.17.17,0,0,0-.13-.07s0,0-.08.05a.19.19,0,0,1,.1.13c.07,0,.07-.09.11-.11m-.06-.16v0l0,0Zm.27,0a.19.19,0,0,0-.14-.07.11.11,0,0,0-.09.07c.07,0,.11.16.21.1a.15.15,0,0,0,0-.1m-.12-.16s.05,0,0-.05,0,0,0,.05Zm.33,0L12.52,17a.19.19,0,0,0-.12,0c-.11.07,0,.12.07.19s.09,0,.14-.05,0-.07,0-.09m.18-.11c0-.05-.09-.12-.16-.1l-.07,0a.22.22,0,0,1,.12.18s.13-.05.11-.11m.12-.21c0-.05-.07-.05-.14-.05a.07.07,0,0,0-.07.07c.09,0,.09.09.16.16a.05.05,0,0,0,.05-.05.15.15,0,0,0,0-.13m3.18-6.11c-.09,0-.11.1-.16.14a.39.39,0,0,1-.2,0,.57.57,0,0,1-.12.21.2.2,0,0,1-.2,0c-.19,0-.12-.25-.24-.35a.15.15,0,0,0-.16,0,.65.65,0,0,1-.46.24,6.6,6.6,0,0,1-.2,1.79l.09-.07a.42.42,0,0,1,.32.09v-.13c0-.19.23-.24.26-.4s-.12-.46.06-.57a.22.22,0,0,1,.19,0c.11,0,.09.16.12.23s.13.14.15.23-.13-.07-.18-.11l0,.09a1.43,1.43,0,0,0,.11.12c.05,0,.07,0,.09.06s-.13,0-.2-.06l0,.09c.05.09.17,0,.21.11s-.13,0-.21,0v.09a.31.31,0,0,0,.17,0s.09,0,.09,0a.55.55,0,0,1-.18,0s0,0,0,0,0,0,.05,0,.13,0,.16,0,.06,0,.06,0-.13.05-.18.07a.07.07,0,0,0,0,.07c.07,0,.13-.05.2-.05h0a.32.32,0,0,1-.18.12l0,0s.08,0,.13,0l.07,0a0,0,0,0,1,0,0l-.15.11v0c.05,0,.07,0,.1,0s.07-.07.14,0-.09.06-.12.11.09,0,.12,0a.16.16,0,0,0,.07-.16,1.39,1.39,0,0,1-.21-.85c.11-.35.39-.65.52-1,.07-.14-.09-.21-.13-.27a.31.31,0,0,1,0-.17M14,8.05S13.91,8,13.86,8a8.91,8.91,0,0,1,.4,1.66,8.67,8.67,0,0,1-.07,2.74,7.36,7.36,0,0,1-1.65,3.52h0A6,6,0,0,1,11.2,17a.92.92,0,0,0-.2.84,1.11,1.11,0,0,0,.3.48l.25.09c.19.05.35-.05.53-.09a.57.57,0,0,0,.28-.49.42.42,0,0,0-.21-.3.27.27,0,0,0-.18.07.22.22,0,0,0-.12.26c0,.07.14,0,.19.09v0c-.07.14-.23.16-.4.16a.74.74,0,0,1-.32-.22.63.63,0,0,1,0-.58c.11-.27.39-.44.59-.65A7.45,7.45,0,0,0,13,15.53a7.31,7.31,0,0,0,1.08-2.21,2.39,2.39,0,0,1,.15-.54,9.12,9.12,0,0,0,.23-1.88.49.49,0,0,0,.39-.17.52.52,0,0,0,.07-.5c0-.14-.21-.21-.32-.25l-.18-.07A8.1,8.1,0,0,0,14,8.05M13,17.3a.41.41,0,0,0-.23-.17s0,0,0,0a.11.11,0,0,0,0,.11.8.8,0,0,1,.18.28c0,.05,0,.16.07.16s0-.05.05-.07a.45.45,0,0,0,0-.34m.26.06A.52.52,0,0,0,13,17C13,17,13,17,13,17.09a.71.71,0,0,1,.21.46h.07a.67.67,0,0,0,0-.19m.18-.13c-.07-.16-.09-.39-.32-.39a.09.09,0,0,0-.05.11c.07.05.12.07.16.14a.54.54,0,0,1,.12.27c.06,0,.06-.09.09-.13m1.93-1.53c-.09,0-.14,0-.2,0l0,.07a.06.06,0,0,0,.05.05.17.17,0,0,0,.14,0Zm.19,0-.07,0s0,0,0,0,0,.09,0,.12l.09,0s0-.07,0-.09m-.46-.18c-.08,0-.21,0-.26.07l0,.09s.1.07.17,0l.07-.06c0-.05,0-.1,0-.14m.66.07c0-.05,0-.09-.11-.12s-.07.07-.12.09,0,.05,0,.07.09,0,.16,0Zm-.39-.05-.09-.09a.09.09,0,0,0-.09.05v.11l.09.05.09,0,0-.07Zm-.3-.11L15,15.25a.2.2,0,0,1-.11,0v.09c0,.05.09.09.14.12s.07,0,.09-.07m-.23.07c-.09-.1,0-.26-.12-.33s-.11.1-.09.16,0,.12.07.17Zm.48-.44h-.22c0,.07-.08.11-.08.18s.1.12.17.16l.09,0a1.21,1.21,0,0,0,0-.3m.33.27a.33.33,0,0,0-.05-.29c-.07,0-.16,0-.23,0s.07.11,0,.18-.06.12,0,.21.11.05.18.05a.52.52,0,0,0,.12-.17M13.89,15s0,0,0,0,0,.17,0,.28a.47.47,0,0,1-.39.23.45.45,0,0,0,.39-.16.42.42,0,0,0,0-.3m2,0L15.78,15s0,0-.07,0a.39.39,0,0,1,0,.39c.07,0,.14.07.21,0s0-.23-.07-.34m.56-.44a.66.66,0,0,0-.31,0,.17.17,0,0,0-.13,0s0,0,0,.05a.64.64,0,0,1,.16.07c.11,0,.26,0,.32-.07s0-.07-.06-.12m-1.6-.2h-.16s0,.07,0,.09a.39.39,0,0,0,.15,0,.08.08,0,0,0,0-.07m0-.12v-.07c-.07,0-.16,0-.16,0s.11,0,.16.05Zm1.41-.09a.33.33,0,0,0-.31-.07c0,.09,0,.18.09.25l.19-.07s0-.06,0-.11m-1.43-.11s0,0,0,0,0,0-.07,0a.09.09,0,0,0,.1,0m1.08.2c-.07-.11,0-.28-.18-.37a.24.24,0,0,0-.12,0,.39.39,0,0,1-.16.39,1.14,1.14,0,0,1,.16.14.51.51,0,0,1,0,.48h0a1,1,0,0,0,.23-.06c.16-.1.16-.26.18-.4s-.07-.11-.09-.18m-1.06-.39s0,0,0,0,0,0,0,0Zm-.65.07a.23.23,0,0,0-.09-.25,2.85,2.85,0,0,0-.11.3c.09,0,.16,0,.2,0m.77-.25h0c-.05,0-.07,0-.11,0s0,0,.06,0a.08.08,0,0,0,.08,0m.53.09a.37.37,0,0,0-.28-.19.53.53,0,0,1,.09.49s-.07.07-.07.11.07.3,0,.44a.41.41,0,0,1-.38.19.33.33,0,0,0,0,.22.13.13,0,0,0,.13.07c.07,0,.07-.13.07-.2a.61.61,0,0,0,.3,0c.12,0,.14-.16.17-.3s-.12-.18-.19-.27.07-.09.09-.14a.49.49,0,0,0,0-.39m1-.14c-.07-.09-.16,0-.25-.07a1.82,1.82,0,0,1-.46.34l.07.1a1.41,1.41,0,0,0,.6-.26.18.18,0,0,0,0-.11m-.18-.44,0,0c-.23,0-.35.25-.51.39a.14.14,0,0,0-.14-.09.32.32,0,0,0-.32.09.76.76,0,0,1,.21.23.24.24,0,0,1,.18.07,1,1,0,0,0,.6-.65m-1.15-.13c-.3,0-.39-.33-.67-.33-.11,0-.18.14-.26.23s0,.42-.13.63c0,0,.07.09.11.11a.38.38,0,0,1,0,.26.57.57,0,0,1-.33.11,4.12,4.12,0,0,1-.29.6.51.51,0,0,1,.48.11.65.65,0,0,1,0,.65.79.79,0,0,1-.8.25c.27,0,.57,0,.74-.28a.62.62,0,0,0,0-.53.28.28,0,0,0-.25-.16.35.35,0,0,0-.28.14A8.61,8.61,0,0,1,12,16.75c-.25.25-.66.46-.71.85a.51.51,0,0,0,.21.41.29.29,0,0,0,.32.09s.07,0,.07-.09a.37.37,0,0,1-.14-.09.5.5,0,0,1,.07-.3c-.07-.11-.21,0-.3-.12s.12-.09.16-.11a11,11,0,0,0,1.52-1.45h0a1,1,0,0,0,1-.44.69.69,0,0,0,.06-.67s0-.07-.06-.09,0,0,.06,0,.1.29.14.43.16-.09.23-.14v-.32s0-.06,0-.09.2.09.29,0,.14-.22.14-.33a.24.24,0,0,0-.11-.14s.11-.07.16-.11a1.7,1.7,0,0,0,0-.32c-.05-.17-.21-.19-.33-.23s.05,0,.05-.05a.45.45,0,0,0-.25.05c-.11.07-.11.2-.16.3a.65.65,0,0,1,.11-.33c.09-.18.33-.09.48-.16l.15,0a.84.84,0,0,0,.11-.3.28.28,0,0,1-.16.07m.17,4.37a1.07,1.07,0,0,0-.1-1.08,1.69,1.69,0,0,1-.39,1.26.49.49,0,0,1-.2.14v0a.66.66,0,0,0,0-.44.77.77,0,0,1-.13.35c-.05.06-.09.13-.18.09s0-.21,0-.32a.4.4,0,0,0-.1-.28,3.39,3.39,0,0,1-.14.57c0,.07,0,.17-.14.17s-.06-.19-.15-.21a.43.43,0,0,0,0,.25.48.48,0,0,0-.05.14s0,0,.05,0a.23.23,0,0,1,.09.25.58.58,0,0,1,0,.35l.14,0a.49.49,0,0,1,0,.16s.09,0,.11.07,0,.11-.09.16,0,.18.09.23.12,0,.14,0,.07.2.19.25a.33.33,0,0,0,.11-.25c-.11-.05-.13-.14-.21-.23a.47.47,0,0,1,0-.37c0-.05.1-.07.1-.14s0,0-.07-.09a.26.26,0,0,0-.16.07s-.05.07-.07.07.11-.19.18-.23.12,0,.16,0,.07,0,.1,0,.07-.11,0-.16a.36.36,0,0,0-.32-.16s-.07,0-.11,0,0,0-.05,0a.52.52,0,0,1,.34-.25.42.42,0,0,1,.34.09.76.76,0,0,1,.24.72.69.69,0,0,1-.25.23.3.3,0,0,1-.21-.05c0-.05,0-.07.07-.09v-.07c-.05,0-.07-.07-.12-.05a.24.24,0,0,0-.16.21.35.35,0,0,0,.21.35.76.76,0,0,0,.39,0,.45.45,0,0,0,.23-.2.93.93,0,0,0,0-.95.4.4,0,0,1-.12-.16h0a.45.45,0,0,0,.23,0,1,1,0,0,0,.5-1,4.88,4.88,0,0,0-.32.41c-.07.07-.12.19-.18.26s-.07.06-.12.06,0-.07.05-.09-.07,0-.09,0-.1.16-.21.11a.82.82,0,0,0,.21-.25m.35,3.2a.12.12,0,0,0-.12-.05.16.16,0,0,0,0,.14c.05,0,.1.06.14,0a.33.33,0,0,0,0-.13m-.49,0a.07.07,0,0,0,0-.12.43.43,0,0,0-.06.17.06.06,0,0,0,.06-.05m1-.21a.24.24,0,0,0-.19-.11s-.06,0-.06.06a.19.19,0,0,0,.18.09s.07,0,.07,0m-1.66.05a.42.42,0,0,0,.07-.44l0,.07a.67.67,0,0,0,0,.37m-.37-.42,0-.11h0a.6.6,0,0,0-.16.44.46.46,0,0,0,.2-.33m.81.16a.31.31,0,0,0-.11-.32.39.39,0,0,0,.09.39.08.08,0,0,0,0-.07m1.73-.18a.35.35,0,0,0-.35-.21.69.69,0,0,0,.35.26s0,0,0,0m-.42-.19s-.07,0-.07-.07h0a.35.35,0,0,0,.12.31l0-.12Zm-1,.09a.32.32,0,0,0-.12-.2.13.13,0,0,0,0,.18.15.15,0,0,0,.1,0m0-.25a0,0,0,0,0,0,0s0,0,0,0m.43,0c0-.05,0-.07-.09-.07a.16.16,0,0,0-.16,0c0,.05,0,.1,0,.14a.25.25,0,0,0,.23.1c0-.08,0-.12,0-.19m.76-.21c-.11,0-.3-.11-.39,0a.48.48,0,0,0,.16.12.27.27,0,0,0,.23-.12m-.81-.39c-.06,0-.16,0-.22-.05s-.1.1-.14.17-.19.09-.28.16l0,.09a.17.17,0,0,0,.05.12.37.37,0,0,0,.27,0,.9.9,0,0,0,.37-.3s0-.11,0-.18,0,0-.05-.05m.7-.23a.51.51,0,0,0-.35.21.43.43,0,0,0,.35-.21m-2.4,0-.05,0c0-.05-.09,0-.11,0-.23.07-.46-.07-.69,0a.33.33,0,0,0-.23.31.69.69,0,0,1,.26,0l.2-.11a.08.08,0,0,1,0-.07.08.08,0,0,1,0,0c0,.09.09.14.14.21s0,0,0,.05-.1-.1-.17-.07a.09.09,0,0,0-.11,0,1.59,1.59,0,0,0-.18.3.47.47,0,0,0,.27-.05.12.12,0,0,1,.12,0,.54.54,0,0,1,0,.26c0,.07-.05.11-.07.18s.11-.07.18-.14,0-.25.16-.32v0a.15.15,0,0,0,.18,0A.17.17,0,0,0,14,19.3h-.09s-.07,0-.07-.05.28-.07.27-.21l0,0c-.1-.05-.21.05-.3,0,.07-.1.18-.05.25-.07Zm1.89-.05,0,0a.32.32,0,0,1-.14,0h-.16a.45.45,0,0,0-.05.18.34.34,0,0,0,.28,0,.19.19,0,0,0,.09-.18m.09-.3a.19.19,0,0,0-.23-.07.43.43,0,0,1-.18,0v.23a.68.68,0,0,0,.32,0,.35.35,0,0,0,.09-.16m-3.31-.18s-.05-.09-.09-.11a.08.08,0,0,0-.07,0,.14.14,0,0,0-.05.11,1.92,1.92,0,0,0,.44.65.46.46,0,0,1,.07-.07,1.18,1.18,0,0,1-.3-.6m1.08-.09a.3.3,0,0,0-.14,0,.47.47,0,0,0-.21.28s.07,0,.12,0,0,0,0,0l-.21.14a2.07,2.07,0,0,1-.3.12.12.12,0,0,0,.07.11.78.78,0,0,1,.23-.07c.16,0,.32.09.48,0s.07-.14.07-.21,0-.25-.09-.34m1.86.13a.42.42,0,0,0,.42-.29.83.83,0,0,1-.58.06.21.21,0,0,1,.07.16c0,.05,0,.1.09.07m-.51.07a.65.65,0,0,0-.34-.39.46.46,0,0,0-.3.05,1.27,1.27,0,0,1,.26,0,.29.29,0,0,1,.16.24.33.33,0,0,1-.14.2s-.05,0-.05,0,.17.08.21.17,0,.09.07.09a.5.5,0,0,0,.13-.42m-2.55-.84a.2.2,0,0,0-.18-.14c-.07,0-.12,0-.14.07a.31.31,0,0,1,.16.14.58.58,0,0,1,0,.43.25.25,0,0,0,.11,0c.14-.12.05-.32,0-.46M6.39,13.74s0-.05,0-.05,0,.05,0,.05m3.3,6.53-.14,0c0,.05,0,.09,0,.13s.14.28.27.26a.07.07,0,0,0,.07-.07.65.65,0,0,0-.11-.12.22.22,0,0,1-.12-.18m-.25-.05s-.07,0-.12,0a.72.72,0,0,0,.07.48.22.22,0,0,0,.21.14c.05,0,.05-.07.05-.12a.76.76,0,0,1-.21-.46m-1.38.3c-.17-.16-.12-.43-.05-.64a.28.28,0,0,1-.12.12.78.78,0,0,1-.13.71,1.06,1.06,0,0,1,0,.25h0a.44.44,0,0,0,.23-.13s.09,0,.14,0c.13.21.34.42.59.35a.64.64,0,0,0,.44-.48.17.17,0,0,0-.07-.14c-.09.11-.25.11-.37.21s0,.11-.06.18-.05,0-.1,0c-.16-.18-.39-.27-.57-.44m1.36-.69c-.07,0-.1-.11-.17-.07l.07.09a.7.7,0,0,0,.37.12s0,0,0,0a.44.44,0,0,1-.27-.1m-.76-.11-.08,0s-.09,0-.11,0-.07,0-.11.09.16-.05.25-.05.07.07.11.05,0-.05-.06-.07m-.79-.07s0,0,0-.07-.23.12-.33.23a.31.31,0,0,0-.06.28c0,.09.16,0,.2.07a.33.33,0,0,1-.09.32s-.07-.07-.11-.07a.07.07,0,0,0-.09,0,.3.3,0,0,0,0,.28.26.26,0,0,0,.21,0l.11-.09.07-.12a.67.67,0,0,0,0-.52.64.64,0,0,0,.2-.24s0,0,0,0a2.08,2.08,0,0,1-.21.21s0,0,0,0a.47.47,0,0,1,.2-.28m.67-.16s-.07,0-.09-.07,0,.07,0,.09.09,0,.14,0a.11.11,0,0,0,0-.14,0,0,0,0,0,0,0s0,0-.07,0m1.52-.07c0-.07-.09,0-.14,0a.21.21,0,0,0,0,.16.49.49,0,0,0,.32.35.42.42,0,0,1,.11-.17c-.06-.07-.14-.09-.2-.16s-.05-.11-.07-.18m-.21-.05a1.65,1.65,0,0,1-.48.1c.07.11.21.15.3.22s-.07,0-.09,0-.23-.09-.35-.16a4.24,4.24,0,0,1-.46.41c0,.05.05.07.05.1s.09.11,0,.15-.1-.13-.19-.13.05.25,0,.34-.05-.21-.12-.29,0,0,0,0l0,.18s0,.07,0,.07,0-.21-.07-.27,0,0,0,.06,0,0-.07,0A.37.37,0,0,0,8.31,20a.34.34,0,0,0-.16-.07.54.54,0,0,0-.11.3c0,.32.34.32.53.48l.06.07,0-.07c.05-.12.19-.14.3-.16a.29.29,0,0,0,.18-.28.35.35,0,0,0-.09-.3s0,0,0,0,0-.07.06-.07a.88.88,0,0,0,.67.28c.09-.07.21-.12.23-.23a.37.37,0,0,1-.16-.21.32.32,0,0,1,0-.35m-1-.25s0,0,0,0,0,0,0,0Zm-.66,0s0,0,0,0v0a0,0,0,1,0,0,0m-2.58,0a.2.2,0,0,0-.14,0l-.14.06s.07.12.14.12.12,0,.14,0,0-.07,0-.12m3.48,0c0-.06-.14-.06-.24-.06a.41.41,0,0,0-.22.09s.06,0,.11,0,0,0,0,0l.05,0s.09,0,.11,0,.12,0,.19-.07m-.7,0a.49.49,0,0,0-.34-.07s-.1,0-.12.09.1,0,.17,0,0,0,0,0,.08,0,.12.07,0-.07.05-.09.07,0,.11,0ZM10,19l0,0c-.05,0-.12,0-.16,0s-.3.23-.46.27c0,0,0,.05,0,.07a1.4,1.4,0,0,0,.53-.11A.28.28,0,0,0,10,19m.3,0L10.24,19l-.09,0a.48.48,0,0,1-.12.28c.12,0,.26.14.37,0s.07,0,0-.07a.36.36,0,0,1-.14-.16m-2.79,0a.79.79,0,0,1-.43-.16.31.31,0,0,0,.14.23.35.35,0,0,0,.34,0s.1-.07.09-.12-.09,0-.14,0M11.87,19a.05.05,0,0,0-.06-.06.15.15,0,0,0-.1.16s.1,0,.12,0a.17.17,0,0,0,0-.12M10,18.68h0a.56.56,0,0,1-.28.05s0,.05,0,.07a.48.48,0,0,0,.3-.07s0,0,0-.05m1.25.18a.42.42,0,0,0-.39-.18.22.22,0,0,0-.17.14c0,.07,0,.14,0,.21a.28.28,0,0,0,.28,0c.06.05,0,.16,0,.25-.09.26-.39.33-.57.47a.4.4,0,0,0-.19.43.71.71,0,0,1,.33-.37c.23-.11.53-.13.66-.39a.53.53,0,0,0,0-.6m-2.92-.22s-.1,0-.14,0a1.85,1.85,0,0,1-.37.37,2.68,2.68,0,0,0,0,.39.71.71,0,0,0,.23.32c.17.09.33.35.56.21a2.5,2.5,0,0,0,.55-.53,1.38,1.38,0,0,0,.07-.26A.39.39,0,0,0,9.67,19c-.07,0-.14,0-.19-.05l-.09,0s-.12,0-.16,0A.33.33,0,0,1,9,18.82c-.06,0-.16,0-.2,0a.29.29,0,0,0-.24,0c-.09,0-.15,0-.22-.07s-.05-.09,0-.14m2.41,0s-.07-.07-.11,0a1.38,1.38,0,0,1-.3.34.41.41,0,0,0,.21.26.35.35,0,0,1-.05.13c0,.14-.21.14-.32.14v0s0,0,.05,0a3,3,0,0,0,.35-.09l.09-.09.05,0c0,.09-.12.12-.19.16s-.16,0-.18.09a.22.22,0,0,0,.09.07c.14-.11.32-.11.46-.25s.09-.14,0-.23l-.06,0a.3.3,0,0,1-.12-.56m-.85-.09v0a1,1,0,0,0-.3.05v0a.13.13,0,0,0,.07,0,.39.39,0,0,0,.23-.09m-2.6,0a.08.08,0,0,0-.09,0c0,.05.09.14.15.14a.64.64,0,0,0-.06-.14m-.42,0-.11-.07a1.19,1.19,0,0,0-.46,0,.8.8,0,0,0-.46.74,5.73,5.73,0,0,0,.6,1.12.84.84,0,0,0,.07.19c.09-.12.28-.14.34-.28s0-.13,0-.18-.12,0-.16,0a.63.63,0,0,1-.28-.25l0-.12-.12-.14a.29.29,0,0,1-.09-.32s0,0,0,0,0,0,0,.07.09.26.21.35a.36.36,0,0,0,.11.25.42.42,0,0,0,.4.07.16.16,0,0,0,.11-.16.7.7,0,0,1-.42-.16.16.16,0,0,1,0-.12,1.91,1.91,0,0,0,.32.16.31.31,0,0,0,.3-.07.32.32,0,0,0,.07-.25.38.38,0,0,1-.28-.11c0-.07-.07,0-.14,0a.34.34,0,0,1-.39-.09.31.31,0,0,1,0-.32s.05,0,.07,0a.34.34,0,0,0,0,.2.2.2,0,0,0,.16.12A.18.18,0,0,0,7,19.1c0-.09,0-.18,0-.28a.38.38,0,0,1-.12-.29m.69-.26a.38.38,0,0,0-.46,0A.3.3,0,0,0,7,18.5c0,.21.17.37.33.46a.75.75,0,0,0,.8-.3c.05-.07-.09-.05-.11-.11a2.09,2.09,0,0,1-.17.14.57.57,0,0,1-.59,0,.22.22,0,0,1-.09-.19c0-.05.07-.12.14-.09s.14.16.2.27a1.06,1.06,0,0,0,.25,0,.83.83,0,0,0-.16-.37M9,18.13c0-.05,0-.05-.06-.05l0,.12s0,0,0,0a.11.11,0,0,0,0-.09M8.79,18s0-.05,0,0,0,.06,0,.09,0,.05,0,.07,0-.1,0-.14m-.16,0s-.07-.07-.07,0-.05.11,0,.09,0-.07,0-.09m1.89,0,0-.16a5,5,0,0,1-1,.27c0,.07.07.1.1.17a2.23,2.23,0,0,0,.94-.28m-1.08.32a1,1,0,0,0-.44-.5.88.88,0,0,0-.86,0c-.11.07-.27.16-.27.3s.07.09.11.07.24-.21.4-.21c0,0,0,0,0,0s-.09.05-.14.08-.23.11-.23.25.07.11.14.11a.29.29,0,0,0,.35-.12s0,0,.06.05-.18.12-.15.26.09,0,.13,0,.28,0,.4,0,0-.16.11-.21l.05.05c0,.06-.05.16,0,.23a.15.15,0,0,0,.14.09c.09-.07,0-.18,0-.28s-.16-.23-.28-.34,0-.07,0-.09a1,1,0,0,1,.39.45,1,1,0,0,1,0,.24,1.19,1.19,0,0,0,.83-.07.9.9,0,0,0,.37-.63,3.42,3.42,0,0,1-.77.23c-.13,0-.34.12-.45,0M12,17.5a.18.18,0,0,0-.14-.06s-.07,0-.07,0a.38.38,0,0,1,.12.09A.31.31,0,0,0,12,17.5m-3.94.33a5.32,5.32,0,0,1-1.81-.57l.08.18a5.71,5.71,0,0,0,1.55.49c.09,0,.14-.05.18-.1m2.86-.44c0-.07.07-.13.07-.18a6.15,6.15,0,0,1-1.43.55,2.24,2.24,0,0,1-.44.07l.12.1a2.74,2.74,0,0,0,.74-.17,5,5,0,0,0,.94-.37m-5.48.15c-.23-.16-.46-.34-.71-.48,0,.07,0,.18-.17.18a2.29,2.29,0,0,0,.63.48l0,.07.12,0s0,.05,0,.07,0,0,0,0-.12,0-.1.07a.2.2,0,0,0,.19-.13s.07,0,.09,0,0,.07-.09.09-.14.07-.21.12v.07c.14,0,.2-.09.32-.14s.07-.14.14-.14,0,0,0,.05a.68.68,0,0,1-.46.32s0,0,0,0,.14,0,.23,0A1.74,1.74,0,0,0,5.73,18v0a.53.53,0,0,1-.32.3.78.78,0,0,0-.14.05s0,0,.05,0a.89.89,0,0,0,.41-.19s.07-.11.11-.13,0,0,0,0-.21.25-.33.36a.36.36,0,0,1,.14,0l.14-.09.12-.16a.74.74,0,0,0-.05-.72c-.07-.07-.12-.18-.23-.21-.14.14-.07.37-.23.47H5.36l.07-.14M9.09,3.41c0-.1-.05-.21-.14-.24s0,.17,0,.26l.12,0s.07,0,.07,0M8,3.2a.1.1,0,0,0-.07,0,.28.28,0,0,0-.12.23c0,.11.12,0,.17,0S8,3.3,8,3.2M7.41,1.75c-.14,0-.1-.25-.28-.23,0,0-.07.05-.07.1a.53.53,0,0,0,.16.27.55.55,0,0,1,.11.53c0,.09-.11.14-.2.18a.34.34,0,0,1-.07.19C7,2.86,7,3,6.86,3A1.46,1.46,0,0,0,7,3.13.64.64,0,0,1,7,3.67a4.69,4.69,0,0,1,.67-.17s0-.07,0-.09a.27.27,0,0,1-.14-.14c-.05-.16,0-.3.09-.44a.72.72,0,0,1-.07-.44c0-.2-.12-.34-.16-.52s0-.1,0-.12m2.41-.18,0-.05c-.19,0-.14.23-.3.23,0,.21-.14.35-.16.55a.94.94,0,0,1-.07.55c.05,0,.05.12.09.18s.05.26-.07.33-.07.05-.06.11l.57.1s-.07-.1,0-.14a1.43,1.43,0,0,1,.21-.62.41.41,0,0,1-.12-.35c-.07,0-.16,0-.23,0-.16-.27.12-.48.21-.71,0,0,0-.09,0-.13m2.4,2c-.1-.17-.35-.12-.46,0s-.27.21-.23.37a1.73,1.73,0,0,0,.28.19.21.21,0,0,1,0-.17c.05-.18.3-.11.42-.25s0-.07,0-.09m-7,.36a.69.69,0,0,0-.69-.35.23.23,0,0,0-.12.19A2.16,2.16,0,0,0,4.7,4a.28.28,0,0,1,.11.26A3,3,0,0,0,5.2,4Zm5.39.33a4.65,4.65,0,0,0-2.29-.44,4.83,4.83,0,0,0-2.18.66,5.66,5.66,0,0,0-1,.78A6.27,6.27,0,0,0,3.87,6.82,8.16,8.16,0,0,0,3,9.35a8.79,8.79,0,0,0-.11,1.91,10.49,10.49,0,0,0,.23,1.52,8.38,8.38,0,0,0,1,2.28A6,6,0,0,0,6.3,17.14a5.15,5.15,0,0,0,2,.6,1.2,1.2,0,0,1,.65,0,6,6,0,0,0,.85-.14,7.64,7.64,0,0,0,.94-.37,5.86,5.86,0,0,0,1.82-1.45A7.6,7.6,0,0,0,14,12.62a7,7,0,0,0,.2-1.65,7.51,7.51,0,0,0-.14-1.77,7.51,7.51,0,0,0-.69-2A.92.92,0,0,1,13.24,7a.23.23,0,0,1,0-.21l-.11-.2a.43.43,0,0,1-.23-.32L12.68,6a8.58,8.58,0,0,0-.87-1c-.05,0-.1,0-.12-.1a6.72,6.72,0,0,0-1.12-.73M13.1,6.9a6.85,6.85,0,0,0-1.18-1.54,5.31,5.31,0,0,0-1.43-1,4.43,4.43,0,0,0-2.9-.32,5,5,0,0,0-1.65.72c-.14.1-.28.2-.41.31a6.06,6.06,0,0,0-.76.76A7.44,7.44,0,0,0,3.18,9.31a8.44,8.44,0,0,0,.15,3.54l0,0s0,0,0,0v0a6.93,6.93,0,0,0,1.15,2.44A5.82,5.82,0,0,0,6,16.8a4.69,4.69,0,0,0,2,.76,4.56,4.56,0,0,0,2.08-.23,4.87,4.87,0,0,0,1.27-.68,5.33,5.33,0,0,0,.93-.85A6.58,6.58,0,0,0,13.44,14c.11-.27.2-.53.29-.8a8.72,8.72,0,0,0,.34-1.82,8.28,8.28,0,0,0-.36-3.06,7.6,7.6,0,0,0-.61-1.4m-.14,0A6,6,0,0,0,11.55,5.2,4.66,4.66,0,0,0,9.48,4.14a4.28,4.28,0,0,0-1.55,0,4.44,4.44,0,0,0-1.13.33A5.7,5.7,0,0,0,4.42,6.5a7.52,7.52,0,0,0-1.23,3.89,8.11,8.11,0,0,0,.62,3.52A6.46,6.46,0,0,0,6,16.63a4.9,4.9,0,0,0,1.25.63,4.53,4.53,0,0,0,2.63,0,5,5,0,0,0,1.37-.68,5.7,5.7,0,0,0,1.08-1,6.82,6.82,0,0,0,1.45-3,8,8,0,0,0-.22-4.42A6.55,6.55,0,0,0,13,6.92m-2.7-1.79a2.47,2.47,0,0,0-.78-.3,3.48,3.48,0,0,0-1.29-.11,3.91,3.91,0,0,0-1.88.72,4.52,4.52,0,0,0-.76.69A6.27,6.27,0,0,0,4.38,8a8.32,8.32,0,0,0-.51,2.12,8.13,8.13,0,0,0,.26,2.65,6.36,6.36,0,0,0,.81,1.83,5.09,5.09,0,0,0,2,1.83,3.66,3.66,0,0,0,.78.29,3.9,3.9,0,0,0,1.7,0,6.71,6.71,0,0,0,.76-.28,4.72,4.72,0,0,0,1-.64,5.17,5.17,0,0,0,1-1.14,7.27,7.27,0,0,0,.94-2.25,6.86,6.86,0,0,0,.19-1.36,7.65,7.65,0,0,0-.43-2.8,8.83,8.83,0,0,0-.45-1,5.11,5.11,0,0,0-2.13-2.14m1.45,1.31A4.4,4.4,0,0,0,9.39,4.9,3.46,3.46,0,0,0,8.1,4.81,4.48,4.48,0,0,0,5.18,6.73,6.4,6.4,0,0,0,4,9.83a7,7,0,0,0,.06,2.28,6.7,6.7,0,0,0,.47,1.57,5.66,5.66,0,0,0,1.49,2A4.26,4.26,0,0,0,8,16.66a2.15,2.15,0,0,0,.71.05,3.85,3.85,0,0,0,2.4-1,6.1,6.1,0,0,0,1.83-3.06,5.54,5.54,0,0,0,.23-1.29,7.5,7.5,0,0,0-.3-2.8,6.89,6.89,0,0,0-1.14-2.14m-1.17-.83A3.49,3.49,0,0,0,8.42,5a3.56,3.56,0,0,0-1.88.64,4.9,4.9,0,0,0-1.2,1.16,6.65,6.65,0,0,0-1.1,2.69,7.16,7.16,0,0,0,0,2.88,6,6,0,0,0,1.53,2.94,4.12,4.12,0,0,0,2,1.2,3.22,3.22,0,0,0,1,.05,6,6,0,0,0,.61-.08,4.54,4.54,0,0,0,1.33-.64,5,5,0,0,0,.81-.78A6.24,6.24,0,0,0,12.62,13c.07-.21.13-.42.19-.64A8.37,8.37,0,0,0,13,10.65c0-.39-.05-.81-.12-1.22a6.1,6.1,0,0,0-.74-2,5.14,5.14,0,0,0-1.57-1.82m.9,1A4,4,0,0,0,9.83,5.34a4,4,0,0,0-1.75-.25A4.23,4.23,0,0,0,5.41,6.84,7,7,0,0,0,4.56,8.5a1,1,0,0,1,0,.16,7.77,7.77,0,0,0-.29,2.42,8,8,0,0,0,.44,2.18,6,6,0,0,0,1.48,2.21A3.72,3.72,0,0,0,8,16.41a2.74,2.74,0,0,0,1,0,3.11,3.11,0,0,0,1.52-.59,4.06,4.06,0,0,0,.55-.46,5.61,5.61,0,0,0,1.19-1.75,6.84,6.84,0,0,0,.34-.92,7.27,7.27,0,0,0,.23-1.6h0a8.19,8.19,0,0,0-.11-1.51,6.33,6.33,0,0,0-1.32-3M9.51,5.89,9.23,5.8a2.21,2.21,0,0,0-1.17,0,3.27,3.27,0,0,0-1.71,1,4.84,4.84,0,0,0-1.14,2,8.1,8.1,0,0,0-.3,2A7.21,7.21,0,0,0,5.31,13a4.85,4.85,0,0,0,1.55,2.19A3.12,3.12,0,0,0,8,15.7a2.56,2.56,0,0,0,1.23,0,3.25,3.25,0,0,0,.4-.15,3.53,3.53,0,0,0,.59-.35,4.06,4.06,0,0,0,.49-.44,4.8,4.8,0,0,0,.54-.67A5.77,5.77,0,0,0,12,12.29a6.83,6.83,0,0,0,.16-1.87,5,5,0,0,0-.05-.53A5.55,5.55,0,0,0,11.93,9a6.14,6.14,0,0,0-.8-1.7A3.74,3.74,0,0,0,9.51,5.89m.2.18A2.75,2.75,0,0,0,8.49,5.8a2.92,2.92,0,0,0-1.95.92,5.08,5.08,0,0,0-1.19,2A7.43,7.43,0,0,0,5,10.82a6.32,6.32,0,0,0,.52,2.39,4.07,4.07,0,0,0,1.83,2.14,2.62,2.62,0,0,0,1.22.32,2.66,2.66,0,0,0,.61-.07,3.19,3.19,0,0,0,1.28-.72,5,5,0,0,0,1.29-2.07,6.39,6.39,0,0,0,.31-2.53A5.61,5.61,0,0,0,11.83,9a4.72,4.72,0,0,0-2.12-2.9m1.14,1.22a5.48,5.48,0,0,0-1-.94,2.45,2.45,0,0,0-2.11-.21A4,4,0,0,0,5.92,7.85a6,6,0,0,0-.71,2.33,6.42,6.42,0,0,0,.26,2.39.43.43,0,0,0,.16,0c0,.07.09.11.13.18a.45.45,0,0,0,.45.05.51.51,0,0,0,.18-.46l.11-.05a2.23,2.23,0,0,0-.09-.39,5.22,5.22,0,0,1,0-2.12A3.81,3.81,0,0,1,7.64,7.46l.42-.26a.27.27,0,0,0,.21.21c0,.32,0,.64,0,.95a.23.23,0,0,1,0,.11.28.28,0,0,0-.12.16H7.32c-.16,0-.2.16-.25.28S7,9,7,9.07a.28.28,0,0,0,0,.25c.09,0,.23,0,.3,0a.65.65,0,0,0,0-.21C7.32,9,7.3,9,7.26,9l0-.1s0,0,0,0h.83c.07,0,.07.09.12.14v1s-.09.14-.16.09a.27.27,0,0,0-.25.19.31.31,0,0,0-.07.32c0,.07,0,.14,0,.21H6.87l-.14,0-.12,0s0-.09,0-.15-.07-.07-.09-.05,0-.09,0-.14,0,0,0,0-.06,0-.09,0,0,0,0,.07a.1.1,0,0,0,0,.07c.12.05,0,.12,0,.19s0,0,0,.07.06,0,.09.09a.19.19,0,0,0-.07.16c.07.16.14.34.21.53a.65.65,0,0,0,.05.18c0,.07.09.09.16.09a.49.49,0,0,1,0,.17s0,0,.07,0c.14.39.27.78.39,1.2a.08.08,0,0,0,0,.07s0,0,0,0,.07.07.09.09,0,.05,0,.07-.09.12-.12.21,0,0,.07,0a3.93,3.93,0,0,0,.48,0A.44.44,0,0,0,8,13.46.51.51,0,0,0,7.77,13a.31.31,0,0,0,0-.21c0-.05.09,0,.11,0a.06.06,0,0,0,0-.06c0-.05-.1-.05-.15-.05s-.15.16-.2.28l0,0c-.12-.3-.24-.62-.38-.91a.35.35,0,0,0,0-.12c0-.05-.07-.05-.09-.07s0-.05,0-.07a.15.15,0,0,0,0-.09s0,0,0-.05H8c0,.05,0,.07,0,.12s.21.27.35.37v2a.42.42,0,0,1-.2.36c-.51.26-.93-.18-1.27-.5-.1-.14-.28-.25-.33-.41s.1-.05.07-.09L6,13v0c0,.18.11.37.16.58,0,0,0,.11,0,.16s0-.1.13-.07a.94.94,0,0,1,.18.21s0,0,0,0,0,0,0,0h0a2.25,2.25,0,0,0,.3.39,2,2,0,0,0,1.24.71c.19,0,.28.16.39.28s.1.11.12.18,0,0,0,0a.76.76,0,0,1,.32-.37,3.84,3.84,0,0,0,.93-.46,3.2,3.2,0,0,0,.27-.25c.21-.24.37-.51.58-.76,0,0,.07.07.11.07a.1.1,0,0,0,0,0c0-.18.07-.34.12-.53S11,13,11,12.93s-.14.11-.21.18l.07,0c0,.14-.16.14-.23.23s-.09.09-.16.07,0,0,0,0l.31-.21-.33.21c0,.06.09,0,.07.11a2.16,2.16,0,0,1-.27.4,2.26,2.26,0,0,1-.62.54.82.82,0,0,1-.26.1.46.46,0,0,1-.46-.12.32.32,0,0,1-.14-.27c0-.6,0-1.15-.07-1.75a.89.89,0,0,1,0-.23s0,0,.07.07a.91.91,0,0,0,.41.09.11.11,0,0,1,.07,0,.9.9,0,0,1,.19.16c.05,0,.09,0,.11,0s0-.11-.09-.16-.16-.09-.14-.19-.3-.18-.46-.27a.28.28,0,0,0-.18.09v-.25H10s0,.07.07.11a.35.35,0,0,1-.05.08c-.11,0,0,.13-.07.17l-.32.81c0,.05,0,.1-.07.14a.37.37,0,0,0-.2-.28s-.1,0-.12,0,0,.05,0,.07.07,0,.09,0,0,0,.05,0-.07.14,0,.21a.52.52,0,0,0-.21.23.44.44,0,0,0,.09.44.37.37,0,0,0,.35.06c.09,0,.18.07.25,0s-.05-.09-.09-.13,0-.1,0-.14,0,0,0,0,0-.07.09-.07,0-.07-.05-.11q.15-.45.33-.9c0-.09,0-.21.09-.28l.07,0a.12.12,0,0,0,0-.09.06.06,0,0,1,0-.06.21.21,0,0,0,.16-.1,3,3,0,0,1,.25-.69.35.35,0,0,0-.09-.16c0-.07,0-.16.09-.16s0,0,.07-.05,0-.06,0-.09.07-.09.07-.18l-.07-.07s-.07,0-.09,0,0,.09,0,.14,0,0-.07,0-.05.05-.07.07a.13.13,0,0,0,0,.09.28.28,0,0,1,0,.12l-.1,0H8.64a3.76,3.76,0,0,0,0-.59.06.06,0,0,1,.07-.05C8.8,10,8.94,10,9,9.85s0-.14,0-.16a.28.28,0,0,1,.12-.12.19.19,0,0,0,.18,0,1.3,1.3,0,0,0,.19-.37A.3.3,0,0,0,9.37,9l.05-.13.44,0c.05,0,.06.07.11.09a.15.15,0,0,0,.16,0c.07-.07.14-.16.1-.25s-.08-.14-.14-.14a.28.28,0,0,0-.23.09,1.16,1.16,0,0,1-.33,0,.25.25,0,0,1,0-.12.88.88,0,0,0-.23-.39s-.07,0-.09,0A.68.68,0,0,1,9.1,8c0-.21-.07-.34-.19-.51a.17.17,0,0,0-.14,0,1.07,1.07,0,0,0-.14-.16.25.25,0,0,0,0-.18l0,0A2.79,2.79,0,0,1,9,7.2a3.53,3.53,0,0,1,1.7,2.58,4.94,4.94,0,0,1,.07,1.54,5.78,5.78,0,0,1-.18.94l.12.07c0,.14,0,.27.11.39a.36.36,0,0,0,.35.09.5.5,0,0,0,.3-.25h.16a6,6,0,0,0,.27-1.86,9.35,9.35,0,0,0-.21-1.59,6.63,6.63,0,0,0-.87-1.82m-2.19.37c.07-.09-.09-.16-.14-.23,0,.35.05.67.05,1,.07,0,.11.09.16.16h.41a.75.75,0,0,1-.09-.3c.07-.09,0-.16-.07-.23a.17.17,0,0,1-.14,0,.78.78,0,0,1-.18-.42M9.23,8.9V8.84H8.73l0,0A1.74,1.74,0,0,0,8.59,9c0,.18,0,.36,0,.57.05,0,.12,0,.17,0s.13-.07.18-.12S9,9.11,9.1,9a.11.11,0,0,1,.13-.07m-1,1.84v-.32c-.07.1-.11.26-.27.26,0,0,0,0,0,.07h.27m.57-3.12s0,0-.05,0,.05.14.08.21v0s0,0,.08,0a2,2,0,0,0-.11-.2m.56.94a.89.89,0,0,0-.12-.26v0a.13.13,0,0,1-.09.05.32.32,0,0,1,0,.16l0,0v0a.06.06,0,0,1,.09,0s0,0,.05,0m-.12.6s-.06-.05-.06-.07-.12.13-.12.21h.05s.07,0,.07.06a1,1,0,0,0,.11-.2Zm-.5.62s0,0,0-.07l-.12.07a.85.85,0,0,1,0,.16l.19-.11s0,0,0-.05m-.65.51s-.06,0-.09-.07a1,1,0,0,0-.11.2.15.15,0,0,1,.14,0,.83.83,0,0,1,.09-.16Zm1,1.72a1,1,0,0,1-.22-.07l0,0s0,.09,0,.13l.18,0s0-.05,0-.07.05,0,0-.05m-.83-.29s0,0-.08-.05a.1.1,0,0,1-.1.09c0,.07.11.09.19.14s0-.12,0-.18M10.8,7.38A3.11,3.11,0,0,0,8.75,6.1,2.45,2.45,0,0,0,7,6.72,4.5,4.5,0,0,0,5.71,8.5a6,6,0,0,0-.18,3.95c0,.05.1,0,.14,0s.07.13.14.18a.37.37,0,0,0,.34.05.5.5,0,0,0,.14-.44l.12,0a4.29,4.29,0,0,1-.14-.62,5.65,5.65,0,0,1,0-1.88A3.58,3.58,0,0,1,8,7.11a.34.34,0,0,1,.18-.32.31.31,0,0,1,.32,0l0,0A.51.51,0,0,1,8.66,7L9,7.06A2.89,2.89,0,0,1,10.29,8.3a4.57,4.57,0,0,1,.6,2,5.91,5.91,0,0,1-.15,1.89l.09,0a.56.56,0,0,0,.09.39.35.35,0,0,0,.21.07.44.44,0,0,0,.32-.27.17.17,0,0,0,.14,0,6.3,6.3,0,0,0,.23-2.06,5.71,5.71,0,0,0-1-3m-.25,6.17v0a3.27,3.27,0,0,1-.48.59,1.89,1.89,0,0,1-.53.42.72.72,0,0,1-.64,0H8.85s0,.07,0,.09a.67.67,0,0,0,.66,0,1.48,1.48,0,0,0,.35-.25,5.57,5.57,0,0,0,.66-.81m-2.16.69,0-2.11,0,0v2.07a.42.42,0,0,1-.2.36.79.79,0,0,1-.72,0,2.82,2.82,0,0,1-.8-.71h0l.1.14a3.28,3.28,0,0,0,.74.64.88.88,0,0,0,.69.11.47.47,0,0,0,.29-.44m.16-2.18h0s-.07,0-.1,0v.42l0,1.56v0a.69.69,0,0,1-.11.46.59.59,0,0,1-.46.21c-.65,0-1.11-.65-1.48-1.13,0-.05,0-.09,0-.16s-.13-.07-.23-.1.05.17.07.24,0,0,.07,0,.1.09.09.16c.16.17.26.33.39.49A2.23,2.23,0,0,0,8,15a.54.54,0,0,1,.46.18s.07.09.12.07a.8.8,0,0,1,.51-.32,2.56,2.56,0,0,0,.73-.3,6.13,6.13,0,0,0,.81-1,.12.12,0,0,1,.11-.07.24.24,0,0,0,0-.18s0-.07,0-.1-.14.07-.18.12a.72.72,0,0,1-.19.41,5,5,0,0,1-.73.79,1.28,1.28,0,0,1-.65.16c-.16-.05-.34-.14-.37-.3s-.07-.28-.09-.39c0-.67,0-1.31,0-2m0,3.17s-.1,0-.14,0,.09.1.11.17,0,0,.05,0,0-.09,0-.14M11.2,12.3c-.09-.05-.2,0-.15.13a.11.11,0,0,0,.14.05.1.1,0,0,0,0-.18m-5.11.06a.11.11,0,0,0-.19.12.12.12,0,0,0,.14.06c.08,0,.1-.13,0-.18m.36-1.79s0,0,0,0,0,0,0,0m0-.12s0,0,0,0,0,0,0,0a.07.07,0,0,0,0,0s0,0,0-.05m.09.21a.1.1,0,0,0-.07,0s0,0,0,.06l0,0a.46.46,0,0,1,.07-.07m.05.18s0-.05-.05-.07,0,.07,0,.09Zm.53,1.08v0c-.07,0-.12,0-.18.07a0,0,0,0,0,0,0c.09,0,.16,0,.18-.1m3.22-1.08H6.85a.35.35,0,0,0-.21.07c0,.05-.12.07-.11.16a2.23,2.23,0,0,1,.2.55l.07-.07a1.33,1.33,0,0,1,.39,0H9.86a1.1,1.1,0,0,1,.48,0l.07,0A4.76,4.76,0,0,1,10.6,11a.35.35,0,0,0-.28-.18m-3.45.78-.07,0,.09.23s.05,0,.07,0a.58.58,0,0,0-.09-.23m.78,1.27a.33.33,0,0,0,0-.12c-.11.07-.09.21-.11.32s0,.07.09.07,0,0,0-.09,0-.11,0-.18m-.57-.74s0-.13-.1-.07a2.24,2.24,0,0,0,.1.26c.11.27.18.59.3.87l.09,0c-.11-.35-.25-.69-.39-1m.46,1.08s-.07,0-.12,0a.31.31,0,0,1-.09.07H7.4s.12,0,.14-.07m0,.09H7.42a0,0,0,0,0,0,0,.22.22,0,0,0,.16,0m.37,0c0-.09,0-.2-.14-.25s0,.21,0,.3,0,.09,0,.14h0c0-.09,0-.23-.14-.25h0a.31.31,0,0,1,.09.27s0,.05,0,.09l.14-.06a.62.62,0,0,0,0-.19c0-.07-.09-.14-.09-.21s0,0,0,0a.63.63,0,0,0,.12.18Zm-.42.33a.15.15,0,0,0-.09,0s0,0,0,0,.11,0,.13,0m.1-.21s-.07,0-.12,0,0,.07,0,.12.07,0,.1,0,0,.13.09.13,0,0,0,0,0-.14,0-.21,0,0-.06,0m-1.52-.3h0a.13.13,0,0,0,0,.09.77.77,0,0,0,.37.21v0a1.24,1.24,0,0,1-.39-.25m.16.49s0-.05-.05-.05v.05s0,0,0,0,0,0,0,0m4.48-3s0,0-.07-.06-.05,0,0,0a.05.05,0,0,0,.05,0s0,0,0,0m0-.2s0-.09,0,0,0,0,0,0,0,0,0,0m-.11.32,0,0,0,.09s0,0,0,0Zm-.42,1.18-.06-.05c-.05,0-.12,0-.12,0a.18.18,0,0,0,.16.11c.05,0,0,0,0-.06m.1-.28c0-.05-.1-.09-.09,0a1.72,1.72,0,0,1-.07.21h.07a.56.56,0,0,0,.09-.19m-.78,1.43c0-.14,0-.28-.11-.32v0a.28.28,0,0,1,.06.18c0,.07,0,.14,0,.19s.05-.05.07-.07m-.14.07s0-.07,0-.07l-.07,0a1.72,1.72,0,0,0-.07.21s0,0,0,0a1,1,0,0,1,.09-.21h0v.05c0,.12-.14.23-.07.37s.09.07.14.07a.1.1,0,0,0,0-.07.24.24,0,0,1,.09-.25v0s0,0-.05,0-.07.14-.09.23,0,0,0,0,0,0,0,0,.07-.21.07-.32m.76-1.09s0,0-.05,0a9.06,9.06,0,0,0-.43,1.13s.05,0,.09,0l0-.07Zm-.35,1.23a.17.17,0,0,0-.2,0,0,0,0,0,1,0,0c.07,0,.12.05.18,0m0,.06a.19.19,0,0,0-.12,0s-.07,0-.07,0,.12,0,.19,0m0,.19c0-.1-.1-.09-.15-.11s0,0,0,0h0c0,.05,0,.12,0,.17s0,.07,0,.09,0-.11.09-.16a.32.32,0,0,1,.12,0Zm0,.11s0,0-.09,0,0,0,0,0a.17.17,0,0,1,.12,0Zm1.06-.06s0,0-.05,0,0,0,0,0a0,0,0,0,0,0,0M8.16,11.67l0-.05H8c0,.05.05.07.09.07s0,0,0,0m.37-.05h-.1l.1.12c0-.05,0-.08,0-.12m0,.14s-.09-.12-.16-.14H8.25a.86.86,0,0,0,.18.14s0,.11.1.09a.19.19,0,0,0,0-.09m-.13.05c0-.05,0-.05,0-.07v.09s0,0,0,0m-.28,0c0-.05,0-.11-.07-.14a.13.13,0,0,0,0,.12c.09.11.23.27.39.25a.08.08,0,0,1,.05,0c-.05,0-.07,0-.12,0s-.16-.12-.25-.16m.76.18c-.16,0-.32-.11-.48-.16l0,0s0,.05,0,.05a1.6,1.6,0,0,0,.48.16Zm0,.14a.22.22,0,0,0-.11,0l0,0a.72.72,0,0,0,.32.11.15.15,0,0,0,.09,0s0,0,0,0Zm.35-.21a1.21,1.21,0,0,0-.39-.11s-.07,0-.07.09l0,0c.07-.09.19,0,.28,0s.11.11.21.14a.2.2,0,0,0-.07-.14m.2.3a2.22,2.22,0,0,0-.27-.19s-.05,0,0,0a1.79,1.79,0,0,0,.26.23s.07.07.12.07,0,0,0-.05-.07-.06-.1-.11m-2-.86s-.06,0-.06-.06V11c0-.06,0-.06.06-.06v0H7.28l-.13.31L7,11H6.85v0c.05,0,.06,0,.06,0v.3s0,.05-.06.05v0H7v0c-.06,0-.07,0-.07-.06V11h0l.16.38h0L7.28,11h0v.32c0,.05,0,.05-.06.05v0h.22Zm0-.4s.06,0,.06,0v.31c0,.05,0,.05-.06.05v0h.38l0-.14h0a.16.16,0,0,1-.17.12s-.06,0-.06,0v-.15c.07,0,.1,0,.11.1h0v-.22h0c0,.08,0,.09-.11.09V11s0,0,.05,0,.14,0,.15.11h0V11H7.44Zm.42.42h.21a.23.23,0,0,0,.23-.23c0-.1-.06-.21-.24-.21h-.2v0s0,0,0,0v.32s0,0,0,0ZM8,11v.33s0,0,0,0,.13-.05.12-.2,0-.2-.12-.2,0,0,0,0m.29,0s.06,0,.06,0v.31c0,.05,0,.05-.06.05v0h.38l0-.14h0a.16.16,0,0,1-.17.12s0,0,0,0v-.15c.06,0,.09,0,.1.09h0v-.21h0c0,.08,0,.09-.1.09V11s0,0,0,0,.14,0,.15.11h0V11H8.31Zm.82.27h0a.15.15,0,0,1-.16.13s0,0,0,0V11c0-.06,0-.06.06-.06v0H8.73v0s.06,0,.06,0v.31c0,.05,0,.05-.06.05v0H9.1Zm.42,0h0c0,.07-.06.13-.16.13s-.06,0-.06,0V11c0-.06,0-.06.06-.06v0H9.15v0s.06,0,.06,0v.31c0,.05,0,.05-.06.05v0h.37Zm.24.13s-.06,0-.06-.05V11s0,0,.06,0H9.57v0s0,0,0,0v.31c0,.05,0,.05-.06.05v0h.22Zm0,0H10s-.06,0-.06-.06v-.26l.29.35h0V11s0,0,.05-.06h-.14c.06,0,.06,0,.06.07v.19h0L10,11H9.81l0,0v.31s0,.05,0,.05ZM8.47,7.18s-.07,0-.07,0a2.69,2.69,0,0,0,.33.41h0a.08.08,0,0,0,0-.07,3,3,0,0,0-.3-.34M7.14,9s0,0,0,0,0,.05,0,.05,0,0,0,0m0,.1S7.1,9,7.05,9s0,.05,0,.1,0,.09,0,.13.13,0,.16-.07a.13.13,0,0,0,0-.13m1.11-.54c-.11,0-.09.14-.14.23l0,0H7.32l-.11,0s-.09.12-.07.17,0-.07.12-.1c.27,0,.55,0,.85,0l0,0,0,0s0,0,0,0a.22.22,0,0,1,0-.16c0-.1.09-.1.07-.17m0,.49h0c0,.34,0,.6,0,.94a0,0,0,0,0,0,0c0-.05,0-.09,0-.14Zm.24-2c-.05-.07-.12-.14-.21-.12a.35.35,0,0,0-.19.1.39.39,0,0,0,0,.28s.11.06.11.13h0c0,.37,0,.71,0,1.08h0v-.8a7.49,7.49,0,0,1,0,.82c0,.05-.12.07-.12.14s0,.16,0,.23.14,0,.14.14l0,.69s.07,0,.07-.07V9s0-.05,0-.08-.19,0-.21-.11,0-.09,0-.11.14,0,.21,0,0-.05-.07-.12,0,0,0-.06l0-1.09,0,0c0-.07-.09-.12-.09-.18a.06.06,0,0,0,0,0s0,0,0,.07,0,.05,0,.1a.06.06,0,0,1-.06,0,.19.19,0,0,1,0-.19A.15.15,0,0,1,8.36,7,.12.12,0,0,1,8.5,7s0,.12.07.14a.22.22,0,0,0,0-.16m.66,1.77a.28.28,0,0,0-.06-.09H8.38v0s0,0,0,.07Zm.6-.11s0,0,0,0-.05,0-.05.07,0,0,0,0l-.21,0,0,.11h.25s0-.07.07,0,0,0,0-.06m.3-.08c0-.09-.13-.07-.18,0a.18.18,0,0,0,0,.21.13.13,0,0,0,.1,0l0,0s0,0,0,0a0,0,0,0,0,0,0l0,0s0,0,0,0,0-.07,0-.1m-.87.05c-.09-.12-.07-.25-.16-.35a.66.66,0,0,0,.13.42s0,0,0-.07m.07-.46-.1,0s0,.05,0,.07.09.16.16.25,0,.16,0,.25c.16-.18,0-.39-.09-.55m0,.44s0-.07-.07-.05,0,.32,0,.49a0,0,0,0,0,0,0,.94.94,0,0,0,.07-.48M9.22,9h0C9.1,9,9.08,9.14,9,9.2s0,.14,0,.19l0-.05c0-.12.07-.18.12-.27S9.23,9,9.22,9m.2.14S9.4,9,9.37,9a.33.33,0,0,0,0,.14l-.13.23a.28.28,0,0,0-.12.12h.07a.25.25,0,0,0,.12-.11c0-.09.16-.19.11-.32m-.27.27s0,0,0,0a1.89,1.89,0,0,1-.34.35v0h0a.64.64,0,0,0,.35-.37m-.35.26c-.12,0-.21.05-.32.09s-.12.12-.09.19l.06-.05c.05-.09.16-.12.23-.16s.1,0,.12-.07m.14.25a.17.17,0,0,0,0-.14s0,0-.07,0-.16.16-.26.22-.11,0-.15.08l0,0a.37.37,0,0,0,.16,0,1.38,1.38,0,0,0,.28-.19m-.39.07,0,0a.41.41,0,0,0-.23.11.88.88,0,0,0-.2.18l0,.05a2.73,2.73,0,0,1,.42-.3m-.26.3,0-.05s0,0,0,.05-.09.16-.13.26a.17.17,0,0,0-.07.13.17.17,0,0,0,.11-.09.73.73,0,0,0,.16-.3m-.18-.16a.3.3,0,0,0-.14.05c-.07.11-.21.25-.14.39s0,0,0,0,.07-.18.12-.28.09-.06.11-.11M8,10.5s0,0,0,0a.38.38,0,0,0-.12.28h.1A1.17,1.17,0,0,0,8,10.5m.5-.37-.09,0v.62a.15.15,0,0,0,.09,0Zm-.13.61c0-.2,0-.41,0-.61,0,0,.06.09,0,.16s0,.3-.05.46h.08m2.3-.23s0,0,0,0l0,0s0,0,0,0M8.4,7.06s-.09,0-.09,0,0,.05.07,0,0,0,0,0m.17-.13a.23.23,0,0,0-.24-.12c-.13,0-.2.12-.25.23a.26.26,0,0,0,.05.25h0a.35.35,0,0,1,0-.37l.11,0A.22.22,0,0,1,8.57,7Zm.18.71H8.7c0,.09,0,.18.07.25s.07.16.19.14c0,0-.05-.07-.09-.09s-.14-.16-.12-.3m.18-.07c0-.05-.06-.09-.11-.07v0s0,0,0,0,0,0,0,0A1.49,1.49,0,0,1,9,7.82s.05.07.07.07S9,7.66,8.93,7.57M9.05,8c-.05,0-.05-.09-.12-.12a.1.1,0,0,0,0,0,3.78,3.78,0,0,1,.28.46l0,0A2.1,2.1,0,0,0,9.05,8m-.41.65s-.07-.12-.12-.12v0a.43.43,0,0,1,.07.1s.05,0,.05,0m.09.07,0,0H8.61v0c.05,0,.1,0,.12,0m-.16,0s-.05,0-.05,0h.05Zm0,6s0-.11-.05,0,0,0,0,0,.07.07,0,.09-.07,0-.09,0l0,0a0,0,0,0,0,0,.05s0,.09.12.09.07-.09.11-.09-.09-.07-.11-.14m-5.2,5.21a.87.87,0,0,1-.59-.21v.05c0,.05,0,.09,0,.16-.05.26.26.28.37.43s.07.17.09.26L3,20.74a.42.42,0,0,0-.14.09.53.53,0,0,0,0,.46.43.43,0,0,0,.3-.27.48.48,0,0,0-.05-.26.32.32,0,0,1,.12-.11c.27.32.71.18,1.08.27l0-.07c0-.13-.16-.23-.27-.32.06-.05.14-.07.18-.11s.09-.07.09-.12h0a.36.36,0,0,1-.3.05,2.37,2.37,0,0,1-.48-.23c.11-.12.25-.23.36-.37v0l0,0a.9.9,0,0,1-.49.19m7.5-7.69s0,0,.14-.07l.5-.1v0l-.44-.3c-.06-.05-.09-.06-.09-.11h0l0,.19h0s0-.08,0-.06,0,0,.1.06l0,.19A.27.27,0,0,1,11,12s0,0,0-.08h0l-.06.28Zm.28-.4,0,.17.23,0ZM11,11.59c0-.05,0-.08.08-.08l.44.05c.05,0,.05,0,0,.09h0l0-.31h0s0,.08-.07.08l-.44-.06c-.05,0-.05,0-.05-.09h0l0,.32Zm.63-.32v-.19h0c0,.07,0,.08-.09.08h-.27c-.06,0-.2,0-.2-.17s.13-.12.18-.12h.3c.08,0,.08,0,.09.09h0v-.3h0c0,.05,0,.07-.09.07h-.3a.2.2,0,0,0-.17,0A.29.29,0,0,0,11,11a.27.27,0,0,0,.06.19.34.34,0,0,0,.17,0h.29c.06,0,.07,0,.07.07Zm0-1.08a.31.31,0,0,0-.39-.23.29.29,0,0,0-.24.35l0,0a.25.25,0,0,0,0,.14.5.5,0,0,0,0,.12h0a.06.06,0,0,1,0,0,.18.18,0,0,1,.05-.14.31.31,0,0,0,.36.15.31.31,0,0,0,.24-.38m-.57.2a.31.31,0,0,0,.29,0c.13,0,.28-.11.25-.23s-.19-.11-.32-.08-.23.06-.25.17l0,0c.16-.08.16.05,0,.12l0,0m.42-.92a.32.32,0,0,0-.62.15.31.31,0,0,0,.39.24.31.31,0,0,0,.23-.39m0,0c0-.12-.2-.12-.33-.09s-.28.08-.24.23.24.1.32.08.28-.1.25-.22m-.63-.21s0-.08,0-.1L11.28,9c.05,0,.07,0,.09.07h0l-.11-.3h0a.06.06,0,0,1,0,.1l-.4.15c-.05,0-.07,0-.09,0h0l.11.3Zm-.16-.43c0-.06,0-.08,0-.11l.43-.2c0,.07.06.15-.07.23v0l.17-.08-.22-.49-.18.07,0,0a.16.16,0,0,1,.21.1l-.43.2c-.07,0-.08,0-.12,0h0l.13.29Zm-.53-.93.11.17h0c0-.06,0-.09,0-.12l.31-.19h0l-.21.59v0l.45-.28s.06,0,.1,0h0L10.9,8h0c0,.07,0,.09,0,.12l-.23.14h0l.17-.47-.1-.16h0s0,0,0,.1l-.36.22s-.08,0-.11,0Zm0,0s0-.06,0-.16l.23-.46,0,0-.5.17c-.07,0-.1,0-.14,0h0l.13.14v0s0,0,0-.08l.11,0,.13.16a.39.39,0,0,1-.06.11s0,0-.08,0h0l.19.22ZM10,7.39l.12.14.1-.22Zm-.56-.9s.06,0,0,.1L9.26,7s-.06,0-.1,0V7l.44.28.13-.14v0a.23.23,0,0,1-.29,0c-.05,0-.06,0,0-.08l.12-.19c.07.05.09.1,0,.2h0l.17-.25h0a.13.13,0,0,1-.2,0l.11-.18s0,0,.08,0,.14.12.09.24h0l.1-.15-.44-.28Zm-.94.35.29.06a.29.29,0,0,0,.37-.24c0-.13,0-.31-.26-.36l-.27,0v0s.07,0,0,.07l-.09.44s0,0-.08,0Zm.33-.48-.09.45s0,0,0,.06S9,6.85,9,6.63s0-.26-.12-.3-.06,0-.06,0m-1.26.8L7.85,7A.29.29,0,0,0,8,6.62a.28.28,0,0,0-.42-.13l-.26.12,0,0s.06,0,.09,0l.18.4s0,.06,0,.09Zm0-.58.2.41s0,0,.07,0,.13-.13,0-.33-.13-.24-.27-.17,0,0,0,.06m0,.58s-.06,0-.15,0l-.48-.22v0l.18.5c0,.07,0,.1,0,.13v0l.14-.12,0,0s-.06,0-.08,0,0,0,0-.11l.15-.13a.45.45,0,0,1,.12.06s0,0,0,.07v0l.22-.19Zm-.46.17.13-.12L7,7.11Zm-.36.72.19-.21a.31.31,0,0,0,0-.46.29.29,0,0,0-.44.06l-.18.21h0s0,0,.09,0l.34.29a.06.06,0,0,1,0,.09Zm-.26-.52.34.3s0,0,.08,0,.07-.17-.09-.31-.22-.17-.33,0,0,.06,0,.07m.26.55s0,.07-.1,0L6.26,7.9s0-.07,0-.11h0l-.15.28h0s0-.08.1,0l.38.21s0,.06,0,.11h0l.16-.27Zm-.55.16L6,8.16v0s0,0,0,0,0,0-.09.12A.19.19,0,0,0,6,8.6s.1,0,.24-.07l0,0s.09-.07.14,0a.1.1,0,0,1,0,.14.2.2,0,0,1-.25.09v0l.19.1,0,0s0,0,0,0a.56.56,0,0,0,.09-.12.19.19,0,0,0-.27-.26l-.11.09c-.07.05-.09.06-.14,0a.09.09,0,0,1,0-.12.2.2,0,0,1,.23-.1Zm.19.56,0,0-.3.09A.17.17,0,0,0,6,8.74c-.15-.05-.21.14-.23.2l-.09.27h0c0-.05,0-.07.1-.05l.39.12c.06,0,.06,0,.05.1h0l.09-.29h0c0,.06,0,.07-.11.05L6,9.1v0L6.34,9l.06-.17ZM5.76,9,6,9.09c0-.11,0-.17-.08-.2s-.14,0-.16.06,0,.06,0,.07m-.23.86c0-.05,0-.08.07-.07L6,9.89s0,0,0,.09h0l.1-.51L6,9.39v0a.24.24,0,0,1,.11.26q0,.09-.06.06l-.22,0c0-.09.05-.13.16-.12v0l-.3-.06v0c.11,0,.11.08.1.16l-.2,0s0,0,0-.07,0-.18.18-.18v0l-.18,0-.1.51Zm0,.06v.19h0c0-.05,0-.07,0-.07l.06,0,.29.14-.29.09-.08,0s0,0,0-.08h0l0,.31h0s0-.06.07-.07l.56-.19v0L5.58,10a.1.1,0,0,1-.07-.09Zm.54.69s0,.09-.06.09H5.53c-.06,0-.06-.05-.06-.09h0V11h0s0-.09.06-.09H6S6,10.89,6,11h0v-.32Zm.1.95,0-.2h0c0,.07,0,.09-.08.1l-.35,0h0l.43-.46v0l-.53.07s-.06,0-.08-.06h0l0,.19h0c0-.07,0-.08.08-.09l.27,0-.34.36,0,.18h0s0,0,0-.09L6,11.51s.06,0,.08.08Zm-.6.14,0,.19h0c0-.08,0-.09.07-.1l.27-.07c.05,0,.2,0,.22.12S6.07,12,6,12l-.29.07c-.08,0-.09,0-.1-.07h0l.07.28h0c0-.05,0-.07.07-.09L6,12.16c.1,0,.12,0,.15-.09a.29.29,0,0,0-.08-.35.31.31,0,0,0-.19,0l-.28.06c-.06,0-.07,0-.09-.06Z"/><path d="M20.46,3.63h3.37v.18h-.17a1.21,1.21,0,0,0-.52.08.43.43,0,0,0-.2.22,2.32,2.32,0,0,0-.06.7V8A3.14,3.14,0,0,0,23,9.15a1.08,1.08,0,0,0,.43.47,1.42,1.42,0,0,0,.77.19,1.63,1.63,0,0,0,.9-.24,1.43,1.43,0,0,0,.56-.65,4.13,4.13,0,0,0,.18-1.46V4.81a1.58,1.58,0,0,0-.09-.63.59.59,0,0,0-.23-.26,1.45,1.45,0,0,0-.61-.11V3.63h2.25v.18H27a.89.89,0,0,0-.46.11.66.66,0,0,0-.26.33,1.48,1.48,0,0,0-.07.56V7.28a6.49,6.49,0,0,1-.15,1.66,1.8,1.8,0,0,1-.73.93,2.66,2.66,0,0,1-1.6.43,3.06,3.06,0,0,1-1.31-.22,1.94,1.94,0,0,1-.89-.79A2.76,2.76,0,0,1,21.31,8V4.81a2.32,2.32,0,0,0-.06-.7A.47.47,0,0,0,21,3.89a1.26,1.26,0,0,0-.57-.08Z"/><path d="M29.79,3.63l3.21,4V4.87a1.35,1.35,0,0,0-.16-.79,1,1,0,0,0-.78-.27V3.63h2.15v.18a1.61,1.61,0,0,0-.55.14.55.55,0,0,0-.22.27,2,2,0,0,0-.08.65V10.3H33.2L28.79,4.87V9a.91.91,0,0,0,.26.76.9.9,0,0,0,.59.2h.15v.18H27.48V10a1,1,0,0,0,.75-.22A1,1,0,0,0,28.44,9V4.42l-.14-.18a1.53,1.53,0,0,0-.36-.34,1.28,1.28,0,0,0-.46-.09V3.63Z"/><path d="M38.05,10v.18H34.64V10h.22a.83.83,0,0,0,.45-.1.42.42,0,0,0,.2-.23A2.27,2.27,0,0,0,35.56,9V4.75a2.52,2.52,0,0,0-.05-.63.5.5,0,0,0-.22-.21.76.76,0,0,0-.43-.1h-.22V3.63h3.41v.18h-.22a.94.94,0,0,0-.45.1.46.46,0,0,0-.2.23,1.9,1.9,0,0,0,0,.61V9a2,2,0,0,0,0,.63.58.58,0,0,0,.22.22.86.86,0,0,0,.43.09Z"/><path d="M45.28,3.63v.18a1.11,1.11,0,0,0-.64.38A6.53,6.53,0,0,0,44,5.32l-2.24,5h-.16L39.41,5.12A6.6,6.6,0,0,0,38.87,4a.79.79,0,0,0-.52-.21V3.63h3.12v.18h-.1a1.11,1.11,0,0,0-.58.11.25.25,0,0,0-.11.21.54.54,0,0,0,0,.2c0,.08.11.29.26.63l1.39,3.25,1.29-2.89c.15-.35.24-.58.28-.7a1.33,1.33,0,0,0,.05-.3.4.4,0,0,0-.08-.26.48.48,0,0,0-.22-.17,1.64,1.64,0,0,0-.55-.08V3.63Z"/><path d="M48.06,4V6.66h.13a1,1,0,0,0,.9-.39,2.44,2.44,0,0,0,.35-1.15h.19V8.53h-.19a2.46,2.46,0,0,0-.24-.91,1,1,0,0,0-.43-.48A1.65,1.65,0,0,0,48.06,7V8.86a2.55,2.55,0,0,0,0,.65.36.36,0,0,0,.17.2.77.77,0,0,0,.4.08h.39a2.32,2.32,0,0,0,1.46-.42,2.4,2.4,0,0,0,.79-1.29h.18l-.29,2.07H45.58V10h.21a.9.9,0,0,0,.46-.1.41.41,0,0,0,.19-.23A1.9,1.9,0,0,0,46.49,9V4.75a3,3,0,0,0,0-.54A.41.41,0,0,0,46.29,4a.82.82,0,0,0-.5-.14h-.21V3.63H51V5.56h-.18a2.52,2.52,0,0,0-.39-1,1.4,1.4,0,0,0-.72-.45,3.7,3.7,0,0,0-1-.09Z"/><path d="M54.56,7.18V9a2.13,2.13,0,0,0,.06.66.49.49,0,0,0,.23.22,1.63,1.63,0,0,0,.61.08v.18H52.12V10a1.66,1.66,0,0,0,.62-.08A.52.52,0,0,0,53,9.67,1.76,1.76,0,0,0,53,9V4.78A1.83,1.83,0,0,0,53,4.11a.49.49,0,0,0-.23-.22,1.59,1.59,0,0,0-.61-.08V3.63h3a6.46,6.46,0,0,1,1.73.17,1.73,1.73,0,0,1,.89.6,1.57,1.57,0,0,1,.35,1,1.52,1.52,0,0,1-.52,1.19,2.13,2.13,0,0,1-.93.45l1.57,2.2a3.28,3.28,0,0,0,.44.54.79.79,0,0,0,.45.16v.18H57.08l-2.1-3Zm0-3.2V6.84h.27a3.14,3.14,0,0,0,1-.12,1,1,0,0,0,.52-.45,1.57,1.57,0,0,0,.19-.83,1.53,1.53,0,0,0-.35-1.1A1.49,1.49,0,0,0,55.07,4Z"/><path d="M63.67,3.49l0,2.17h-.19a2.28,2.28,0,0,0-.69-1.32,1.72,1.72,0,0,0-1.18-.49,1.06,1.06,0,0,0-.77.26.76.76,0,0,0-.29.6.7.7,0,0,0,.1.38,1.47,1.47,0,0,0,.45.45,9.82,9.82,0,0,0,1,.56,4.55,4.55,0,0,1,1.54,1.07,1.8,1.8,0,0,1,.4,1.14,1.86,1.86,0,0,1-.64,1.4,2.26,2.26,0,0,1-1.62.59,2.72,2.72,0,0,1-.58-.06A4.11,4.11,0,0,1,60.6,10a1.08,1.08,0,0,0-.38-.09A.48.48,0,0,0,60,10a.8.8,0,0,0-.23.3h-.17V7.84h.17a2.88,2.88,0,0,0,.82,1.58,1.92,1.92,0,0,0,1.3.55,1.22,1.22,0,0,0,.86-.3A.9.9,0,0,0,63,9a1,1,0,0,0-.13-.45,1.39,1.39,0,0,0-.37-.41,5.27,5.27,0,0,0-.88-.5,7.58,7.58,0,0,1-1.28-.75,2.17,2.17,0,0,1-.6-.69,1.68,1.68,0,0,1-.21-.83A1.79,1.79,0,0,1,60.13,4a2,2,0,0,1,1.44-.54,2.51,2.51,0,0,1,.62.07,3,3,0,0,1,.55.22,1.39,1.39,0,0,0,.45.15.23.23,0,0,0,.2-.08.93.93,0,0,0,.14-.36Z"/><path d="M68.12,10v.18h-3.4V10h.21a.9.9,0,0,0,.46-.1.41.41,0,0,0,.19-.23,1.9,1.9,0,0,0,0-.61V4.75a2.1,2.1,0,0,0,0-.63.47.47,0,0,0-.21-.21.8.8,0,0,0-.44-.1h-.21V3.63h3.4v.18h-.21a1,1,0,0,0-.46.1.51.51,0,0,0-.2.23,2.27,2.27,0,0,0,0,.61V9a1.9,1.9,0,0,0,.06.63.48.48,0,0,0,.21.22.9.9,0,0,0,.44.09Z"/><path d="M68.48,10.15V10h.21a.88.88,0,0,0,.44-.09.51.51,0,0,0,.22-.24A2.16,2.16,0,0,0,69.4,9V4.75a2,2,0,0,0-.06-.63.42.42,0,0,0-.21-.21.8.8,0,0,0-.44-.1h-.21V3.63h2.91A4.68,4.68,0,0,1,73.27,4a2.77,2.77,0,0,1,1.32,1.18A3.51,3.51,0,0,1,75,6.91a3.49,3.49,0,0,1-.22,1.27,3,3,0,0,1-.57,1,3,3,0,0,1-.81.61,4.35,4.35,0,0,1-1.12.35,5.2,5.2,0,0,1-.93.06ZM71,4V9.09a2,2,0,0,0,0,.49.29.29,0,0,0,.13.14.78.78,0,0,0,.38.07,1.46,1.46,0,0,0,1.22-.54A3.77,3.77,0,0,0,73.31,7a4.2,4.2,0,0,0-.4-2,1.63,1.63,0,0,0-.8-.8A3.13,3.13,0,0,0,71,4"/><path d="M79.55,8.29h-2.3L77,8.93a1.35,1.35,0,0,0-.13.52.45.45,0,0,0,.22.41,1.82,1.82,0,0,0,.64.11v.18H75.53V10a.92.92,0,0,0,.58-.29,4.31,4.31,0,0,0,.56-1L79,3.5h.09l2.35,5.34a3,3,0,0,0,.55,1,.77.77,0,0,0,.46.17v.18H79.3V10h.13a1,1,0,0,0,.53-.1.28.28,0,0,0,.11-.23.55.55,0,0,0,0-.17l-.15-.36Zm-.17-.35-1-2.25-1,2.25Z"/><path d="M82.69,10.15V10h.22a.86.86,0,0,0,.43-.09.51.51,0,0,0,.22-.24,2.16,2.16,0,0,0,0-.61V4.75a2,2,0,0,0-.06-.63.42.42,0,0,0-.21-.21.78.78,0,0,0-.43-.1h-.22V3.63h2.92A4.66,4.66,0,0,1,87.48,4,2.77,2.77,0,0,1,88.8,5.13a3.51,3.51,0,0,1,.45,1.78A3.49,3.49,0,0,1,89,8.18a3,3,0,0,1-.57,1,2.7,2.7,0,0,1-.81.61,4.35,4.35,0,0,1-1.12.35,5.07,5.07,0,0,1-.92.06ZM85.17,4V9.09a2,2,0,0,0,0,.49.29.29,0,0,0,.13.14.78.78,0,0,0,.38.07,1.46,1.46,0,0,0,1.22-.54A3.71,3.71,0,0,0,87.52,7a4.2,4.2,0,0,0-.4-2,1.59,1.59,0,0,0-.8-.8A3.13,3.13,0,0,0,85.17,4"/><path d="M20.36,19.58V19.4h.22a.83.83,0,0,0,.43-.09.53.53,0,0,0,.23-.24,2.35,2.35,0,0,0,0-.61V14.18a2.4,2.4,0,0,0-.05-.63.52.52,0,0,0-.22-.22.86.86,0,0,0-.43-.09h-.22v-.18h2.92a4.71,4.71,0,0,1,1.88.32,2.8,2.8,0,0,1,1.32,1.17,3.55,3.55,0,0,1,.45,1.79,3.62,3.62,0,0,1-.22,1.26,2.83,2.83,0,0,1-.58,1,2.67,2.67,0,0,1-.81.6,4.21,4.21,0,0,1-1.12.36,5,5,0,0,1-.92.06Zm2.49-6.15v5.08a1.64,1.64,0,0,0,0,.5.25.25,0,0,0,.13.14.74.74,0,0,0,.37.07,1.46,1.46,0,0,0,1.23-.55,3.75,3.75,0,0,0,.57-2.29,4.38,4.38,0,0,0-.39-2,1.76,1.76,0,0,0-.8-.8,3.46,3.46,0,0,0-1.15-.14"/><path d="M30,13.44v2.65h.13a1,1,0,0,0,.9-.39,2.44,2.44,0,0,0,.35-1.15h.19V18H31.4a2.46,2.46,0,0,0-.24-.91,1,1,0,0,0-.43-.48,1.65,1.65,0,0,0-.71-.12v1.83a2.59,2.59,0,0,0,.05.66.36.36,0,0,0,.17.2.77.77,0,0,0,.4.08H31a2.11,2.11,0,0,0,2.25-1.72h.18l-.29,2.08H27.54V19.4h.21a1,1,0,0,0,.46-.1.44.44,0,0,0,.19-.23,1.9,1.9,0,0,0,.05-.61V14.18a3.22,3.22,0,0,0,0-.55.44.44,0,0,0-.18-.26.82.82,0,0,0-.5-.13h-.21v-.18H33V15h-.18a2.64,2.64,0,0,0-.39-1,1.54,1.54,0,0,0-.72-.45,3.82,3.82,0,0,0-1-.08Z"/><path d="M39.91,17.72h-2.3l-.27.64a1.4,1.4,0,0,0-.14.52.44.44,0,0,0,.22.4,2,2,0,0,0,.64.12v.18H35.9V19.4a1,1,0,0,0,.57-.29,3.88,3.88,0,0,0,.56-1l2.33-5.19h.09l2.35,5.34a3.27,3.27,0,0,0,.55.95.8.8,0,0,0,.46.18v.18H39.66V19.4h.13a1,1,0,0,0,.54-.11.25.25,0,0,0,.1-.22.57.57,0,0,0,0-.18,2.27,2.27,0,0,0-.14-.36Zm-.16-.35-1-2.25-1,2.25Z"/><path d="M45.38,13.06l3.21,4V14.3a1.33,1.33,0,0,0-.17-.79.9.9,0,0,0-.77-.27v-.18H49.8v.18a1.47,1.47,0,0,0-.56.14.56.56,0,0,0-.22.27,1.93,1.93,0,0,0-.08.65v5.42h-.16l-4.4-5.42v4.14a.91.91,0,0,0,.25.76,1,1,0,0,0,.59.2h.16v.18H43.06V19.4a1.1,1.1,0,0,0,.75-.22,1.06,1.06,0,0,0,.21-.74v-4.6l-.13-.17a1.22,1.22,0,0,0-.37-.34,1.28,1.28,0,0,0-.46-.09v-.18Z"/><path d="M56.24,13.06v1.76h-.18a2.56,2.56,0,0,0-.34-.87,1.28,1.28,0,0,0-.51-.43,1.64,1.64,0,0,0-.64-.08h-.49v5a2,2,0,0,0,.06.63.5.5,0,0,0,.22.21.78.78,0,0,0,.44.1H55v.18H51.6V19.4h.22a.94.94,0,0,0,.45-.1.46.46,0,0,0,.2-.23,1.9,1.9,0,0,0,.05-.61v-5h-.47a1.38,1.38,0,0,0-.95.27,1.82,1.82,0,0,0-.53,1.11h-.18V13.06Z"/><path d="M60.2,19.4v.18H56.79V19.4H57a1,1,0,0,0,.45-.1.4.4,0,0,0,.19-.23,1.79,1.79,0,0,0,.06-.61V14.18a1.9,1.9,0,0,0-.06-.63.44.44,0,0,0-.21-.22.89.89,0,0,0-.43-.09h-.22v-.18H60.2v.18H60a.9.9,0,0,0-.46.1.41.41,0,0,0-.19.23,1.79,1.79,0,0,0-.06.61v4.28a2,2,0,0,0,.06.63.5.5,0,0,0,.22.21.76.76,0,0,0,.43.1Z"/><path d="M64.22,13a3.23,3.23,0,0,1,3.5,3.32A3.51,3.51,0,0,1,67,18.48a3.64,3.64,0,0,1-5.43.05,3.41,3.41,0,0,1-.76-2.23,3.28,3.28,0,0,1,1-2.42A3.13,3.13,0,0,1,64.22,13m.06.31a1.46,1.46,0,0,0-1.36.91,4.93,4.93,0,0,0-.38,2.15,4.2,4.2,0,0,0,.59,2.47,1.33,1.33,0,0,0,1.14.55,1.38,1.38,0,0,0,.83-.24,1.9,1.9,0,0,0,.65-1A5.37,5.37,0,0,0,66,16.38a5.81,5.81,0,0,0-.24-1.93,1.89,1.89,0,0,0-.61-.91,1.5,1.5,0,0,0-.86-.26"/><path d="M72.78,19.63a1.79,1.79,0,0,0,.69,1,2,2,0,0,0,1.16.33,3,3,0,0,0,.41,0v.29a5.39,5.39,0,0,1-1.3.18,3,3,0,0,1-1.59-.43,2.67,2.67,0,0,1-1.06-1.29,3.19,3.19,0,0,1-1.91-1.15,3.4,3.4,0,0,1-.72-2.17,3.29,3.29,0,0,1,1-2.43,3.67,3.67,0,0,1,5,0,3.29,3.29,0,0,1,1,2.43,3.36,3.36,0,0,1-.76,2.2,2.94,2.94,0,0,1-1.84,1.12m-.86-6.35a1.45,1.45,0,0,0-1.33.9,4.58,4.58,0,0,0-.4,2.14,4.24,4.24,0,0,0,.59,2.48,1.45,1.45,0,0,0,2.28,0,3.92,3.92,0,0,0,.59-2.38,5.1,5.1,0,0,0-.37-2.27,1.45,1.45,0,0,0-1.36-.88"/><path d="M76,13.06h3.36v.18h-.17a1.24,1.24,0,0,0-.52.08.43.43,0,0,0-.2.22,2.29,2.29,0,0,0-.06.69v3.19a3.21,3.21,0,0,0,.13,1.16,1.1,1.1,0,0,0,.44.47,1.36,1.36,0,0,0,.76.19,1.63,1.63,0,0,0,.9-.24,1.47,1.47,0,0,0,.56-.65,4.13,4.13,0,0,0,.18-1.46V14.23a1.52,1.52,0,0,0-.09-.62.5.5,0,0,0-.23-.26,1.38,1.38,0,0,0-.61-.11v-.18h2.26v.18h-.14a1,1,0,0,0-.46.11.58.58,0,0,0-.26.33,1.72,1.72,0,0,0-.06.55v2.48a6.54,6.54,0,0,1-.15,1.66,1.86,1.86,0,0,1-.74.93,2.62,2.62,0,0,1-1.6.43A3.08,3.08,0,0,1,78,19.5a1.92,1.92,0,0,1-.89-.78,2.8,2.8,0,0,1-.26-1.3V14.23a2.42,2.42,0,0,0-.06-.7.43.43,0,0,0-.21-.21,1.32,1.32,0,0,0-.57-.08Z"/><path d="M86.44,19.4v.18H83V19.4h.22a.94.94,0,0,0,.45-.1.46.46,0,0,0,.2-.23,2.27,2.27,0,0,0,0-.61V14.18a2.4,2.4,0,0,0,0-.63.52.52,0,0,0-.22-.22.89.89,0,0,0-.43-.09H83v-.18h3.41v.18h-.22a.9.9,0,0,0-.46.1.45.45,0,0,0-.19.23,1.79,1.79,0,0,0-.06.61v4.28a2,2,0,0,0,.06.63.5.5,0,0,0,.22.21.76.76,0,0,0,.43.1Z"/><path d="M90.76,17.72H88.45l-.27.64a1.35,1.35,0,0,0-.13.52.42.42,0,0,0,.22.4,1.93,1.93,0,0,0,.64.12v.18H86.74V19.4a1,1,0,0,0,.58-.29,3.94,3.94,0,0,0,.55-1l2.33-5.19h.09l2.35,5.34a3.23,3.23,0,0,0,.56.95.77.77,0,0,0,.46.18v.18H90.51V19.4h.13a1,1,0,0,0,.53-.11.25.25,0,0,0,.1-.22.55.55,0,0,0,0-.18l-.15-.36Zm-.17-.35-1-2.25-1,2.25Z"/></g></g></svg>