<svg xmlns="http://www.w3.org/2000/svg" viewBox="0 0 5.76 6.29"><defs><style>.cls-1{fill:#f34141;}</style></defs><g id="Capa_2" data-name="Capa 2"><g id="Layer_1" data-name="Layer 1"><path class="cls-1" d="M5.76,3.68H5.24v.53H4.72v.51H4.2v.53H3.68v.51H3.16v.53H2.59V5.76H2.08V5.25H1.55V4.72H1V4.21H.52V3.68H0V2.6H.57v.52h.51v.52H1.6v.52h.52v.52h.52V5.2h.48V4.68h.51V4.16h.53V3.64h.51V3.12H5.2V2.6h.56Zm0-2.59H5.24V1.6H4.72v.53H4.2v.51H3.68v.53H3.16v.51H2.59V3.17H2.08V2.64H1.55V2.13H1V1.6H.52V1.09H0V0H.57V.52h.51V1H1.6v.52h.52v.52h.52V2.6h.48V2.08h.51V1.56h.53V1h.51V.52H5.2V0h.56Z"/></g></g></svg>