<svg xmlns="http://www.w3.org/2000/svg" viewBox="0 0 1054.02 242"><defs><style>.cls-1{fill:#fc4141;}.cls-2{fill:#fedb31;}</style></defs><g id="Capa_2" data-name="Capa 2"><g id="Layer_1" data-name="Layer 1"><path class="cls-1" d="M176.57,88.48V0h6.32V82.16h44.25v6.32Z"/><path class="cls-1" d="M259.23,69.52V19h6.32V69.52ZM265.55,19V12.64h6.31V19Zm0,56.88V69.52h6.31v6.32Zm6.31-63.2V6.32h6.32v6.32Zm0,69.52V75.84h6.32v6.32Zm6.32-75.84V0h31.61V6.32Zm0,82.16V82.16h31.61v6.32Zm31.61-75.84V6.32h6.32v6.32Zm0,69.52V75.84h6.32v6.32ZM316.11,19V12.64h6.32V19Zm0,56.88V69.52h6.32v6.32Zm6.32-6.32V19h6.32V69.52Z"/><path class="cls-1" d="M367.16,34.76V12.64h6.32V34.76Zm0,41.08V63.2h6.32V75.84Zm6.32-63.2V6.32h6.32v6.32Zm0,28.44V34.76h6.32v6.32Zm0,41.08V75.84h6.32v6.32ZM379.8,6.32V0h31.6V6.32Zm0,41.08V41.08h31.6V47.4Zm0,41.08V82.16h31.6v6.32Zm31.6-75.84V6.32h6.32v6.32Zm0,41.08V47.4h6.32v6.32Zm0,28.44V75.84h6.32v6.32Zm6.32-56.88V12.64H424V25.28Zm0,50.56V53.72H424V75.84Z"/><path class="cls-1" d="M506.2,6.32V0h63.21V6.32H541V88.48h-6.32V6.32Z"/><path class="cls-1" d="M594.2,88.48V0h6.32V88.48Z"/><path class="cls-1" d="M631.63,88.48V0H682.2V6.32H638V41.08h37.92V47.4H638V82.16H682.2v6.32Z"/><path class="cls-1" d="M713.31,88.48V0H726V6.32h-6.32V88.48ZM726,19V6.32h6.32V19Zm6.32,12.64V19h6.32V31.6Zm6.32,12.64V31.6h6.32V44.24Zm6.32,12.64V44.24h6.33V56.88Zm6.33-12.64V31.6h6.31V44.24Zm6.31-12.64V19h6.32V31.6ZM763.87,19V6.32h6.32V19Zm6.32-12.64V0h12.65V88.48h-6.33V6.32Z"/><path class="cls-1" d="M814,88.48V0h44.24V6.32H820.27V41.08h37.92V47.4H820.27V88.48Zm44.24-75.84V6.32h6.32v6.32Zm0,28.44V34.76h6.32v6.32Zm6.32-6.32V12.64h6.32V34.76Z"/><path class="cls-1" d="M895.63,69.52V19H902V69.52ZM902,19V12.64h6.32V19Zm0,56.88V69.52h6.32v6.32Zm6.32-63.2V6.32h6.32v6.32Zm0,69.52V75.84h6.32v6.32Zm6.32-75.84V0h31.6V6.32Zm0,82.16V82.16h31.6v6.32Zm31.6-75.84V6.32h6.32v6.32Zm0,69.52V75.84h6.32v6.32ZM952.51,19V12.64h6.32V19Zm0,56.88V69.52h6.32v6.32Zm6.32-6.32V19h6.32V69.52Z"/><path class="cls-1" d="M996.27,34.76V12.64h6.32V34.76Zm0,41.08V63.2h6.32V75.84Zm6.32-63.2V6.32h6.32v6.32Zm0,28.44V34.76h6.32v6.32Zm0,41.08V75.84h6.32v6.32Zm6.32-75.84V0h31.6V6.32Zm0,41.08V41.08h31.6V47.4Zm0,41.08V82.16h31.6v6.32Zm31.6-75.84V6.32h6.32v6.32Zm0,41.08V47.4h6.32v6.32Zm0,28.44V75.84h6.32v6.32Zm6.32-56.88V12.64h6.32V25.28Zm0,50.56V53.72h6.32V75.84Z"/><path class="cls-1" d="M0,242V153.52H44.24v6.32H6.32v75.84H44.24V242Zm44.24-75.84v-6.32h6.32v6.32Zm0,69.52v-6.32h6.32v6.32Zm6.32-56.88V166.16h6.32V178.8Zm0,50.56V216.72h6.32v12.64Zm6.32-12.64V178.8H63.2v37.92Z"/><path class="cls-1" d="M84.59,242V153.52h50.56v6.32H90.91V194.6h37.92v6.32H90.91v34.76h44.24V242Z"/><path class="cls-1" d="M190.58,242V153.52h6.32v82.16h44.24V242Z"/><path class="cls-1" d="M256.21,242V185.12h6.32V210.4h44.24V185.12h6.32V242h-6.32V216.72H262.53V242Zm6.32-56.88V172.48h6.32v12.64Zm6.32-12.64V159.84h6.32v12.64Zm6.32-12.64v-6.32h19v6.32Zm19,12.64V159.84h6.32v12.64Zm6.32,12.64V172.48h6.32v12.64Z"/><path class="cls-1" d="M368.52,242V153.52h50.56v6.32H374.84V194.6h37.92v6.32H374.84v34.76h44.24V242Z"/><path class="cls-1" d="M434.15,188.28V166.16h6.32v22.12Zm0,41.08V216.72h6.32v12.64Zm6.32-63.2v-6.32h6.32v6.32Zm0,28.44v-6.32h6.32v6.32Zm0,41.08v-6.32h6.32v6.32Zm6.32-75.84v-6.32h31.6v6.32Zm0,41.08V194.6h31.6v6.32Zm0,41.08v-6.32h31.6V242Zm31.6-75.84v-6.32h6.32v6.32Zm0,41.08v-6.32h6.32v6.32Zm0,28.44v-6.32h6.32v6.32Zm6.32-56.88V166.16H491V178.8Zm0,50.56V207.24H491v22.12Z"/><path class="cls-1" d="M512.43,223V172.48h6.32V223Zm6.32-50.56v-6.32h6.31v6.32Zm0,56.88V223h6.31v6.32Zm6.31-63.2v-6.32h6.32v6.32Zm0,69.52v-6.32h6.32v6.32Zm6.32-75.84v-6.32H563v6.32Zm0,82.16v-6.32H563V242ZM563,166.16v-6.32h6.32v6.32Zm0,69.52v-6.32h6.32v6.32Zm6.32-56.88V166.16h6.32V178.8Zm0,50.56V216.72h6.32v12.64Z"/><path class="cls-1" d="M597,229.36V153.52h6.32v75.84Zm6.32,6.32v-6.32h6.32v6.32Zm6.32,6.32v-6.32h37.92V242Zm37.92-6.32v-6.32h6.32v6.32Zm6.32-6.32V153.52h6.32v75.84Z"/><path class="cls-1" d="M681.61,223V172.48h6.32V223Zm6.32-50.56v-6.32h6.32v6.32Zm0,56.88V223h6.32v6.32Zm6.32-63.2v-6.32h6.32v6.32Zm0,69.52v-6.32h6.32v6.32Zm6.32-75.84v-6.32h31.6v6.32Zm0,82.16v-6.32h31.6V242Zm31.6-75.84v-6.32h6.33v6.32Zm0,69.52v-6.32h6.33v6.32Zm6.33-56.88V166.16h6.32V178.8Zm0,50.56V216.72h6.32v12.64Z"/><path class="cls-1" d="M766.21,242V153.52h6.32V194.6h50.56V153.52h6.32V242h-6.32V200.92H772.53V242Z"/><path class="cls-1" d="M850.8,242V185.12h6.32V210.4h44.24V185.12h6.32V242h-6.32V216.72H857.12V242Zm6.32-56.88V172.48h6.32v12.64Zm6.32-12.64V159.84h6.32v12.64Zm6.32-12.64v-6.32h19v6.32Zm19,12.64V159.84H895v12.64ZM895,185.12V172.48h6.32v12.64Z"/><path class="cls-2" d="M1.07,56.88V50.56H7.39v6.32Zm6.32-6.32V44.24h6.32v6.32Zm0,12.64V56.88h6.32V63.2Zm6.32-19V37.92H20v6.32Zm0,25.28V63.2H20v6.32ZM20,37.92V31.6h6.32v6.32Zm0,37.92V69.52h6.32v6.32ZM26.35,31.6V25.28h6.32V31.6Zm0,50.56V75.84h6.32v6.32Z"/><path class="cls-2" d="M63.78,56.88V50.56H70.1v6.32Zm6.32-6.32V44.24h6.32v6.32Zm0,12.64V56.88h6.32V63.2Zm6.32-19V37.92h6.33v6.32Zm0,25.28V63.2h6.33v6.32Zm6.33-31.6V31.6h6.32v6.32Zm0,37.92V69.52h6.32v6.32ZM89.07,31.6V25.28h6.32V31.6Zm0,50.56V75.84h6.32v6.32Z"/><path class="cls-2" d="M129.66,60V47.4H142.3V60Z"/><path class="cls-2" d="M932.24,213.29V200.65h12.64v12.64Z"/><path class="cls-2" d="M969.42,185.12V178.8h6.32v6.32Zm0,50.56v-6.32h6.32v6.32Zm6.32-44.24v-6.32h6.33v6.32Zm0,37.92V223h6.33v6.32Zm6.33-31.6v-6.32h6.32v6.32Zm0,25.28v-6.32h6.32V223Zm6.32-19v-6.32h6.31v6.32Zm0,12.64V210.4h6.31v6.32Zm6.31-6.32v-6.32H1001v6.32Z"/><path class="cls-2" d="M1022.42,185.12V178.8h6.32v6.32Zm0,50.56v-6.32h6.32v6.32Zm6.32-44.24v-6.32h6.32v6.32Zm0,37.92V223h6.32v6.32Zm6.32-31.6v-6.32h6.32v6.32Zm0,25.28v-6.32h6.32V223Zm6.32-19v-6.32h6.32v6.32Zm0,12.64V210.4h6.32v6.32Zm6.32-6.32v-6.32H1054v6.32Z"/></g></g></svg>