<svg xmlns="http://www.w3.org/2000/svg" viewBox="0 0 38.24 9.42"><defs><style>.cls-1{fill:#fc4141;}.cls-2{fill:#2727e5;}</style></defs><g id="Capa_2" data-name="Capa 2"><g id="Layer_1" data-name="Layer 1"><path class="cls-1" d="M0,5.23v-1H1.05v1Zm1.05-1V3.14h1V4.19Zm0,2.09v-1h1v1Zm1-3.14V2.09H3.14V3.14Zm0,4.19v-1H3.14v1ZM3.14,2.09v-1H4.19v1Zm0,6.28v-1H4.19v1ZM4.19,1.05V0h1V1.05Zm0,8.37V8.37h1V9.42Z"/><path class="cls-1" d="M8.77,5.23v-1H9.82v1Zm1.05-1V3.14h1V4.19Zm0,2.09v-1h1v1Zm1-3.14V2.09h1V3.14Zm0,4.19v-1h1v1Zm1-5.24v-1H13v1Zm0,6.28v-1H13v1ZM13,1.05V0h1V1.05Zm0,8.37V8.37h1V9.42Z"/><path class="cls-2" d="M18.07,5.81V3.72h2.09V5.81Z"/><path class="cls-1" d="M24.23,1.05V0h1.05V1.05Zm0,8.37V8.37h1.05V9.42Zm1.05-7.33v-1h1v1Zm0,6.28v-1h1v1Zm1-5.23V2.09h1.05V3.14Zm0,4.19v-1h1.05v1Zm1.05-3.14V3.14h1.05V4.19Zm0,2.09v-1h1.05v1Zm1.05-1v-1h1v1Z"/><path class="cls-1" d="M33,1.05V0h1V1.05Zm0,8.37V8.37h1V9.42Zm1-7.33v-1H35.1v1Zm0,6.28v-1H35.1v1ZM35.1,3.14V2.09h1V3.14Zm0,4.19v-1h1v1Zm1-3.14V3.14h1V4.19Zm0,2.09v-1h1v1Zm1-1v-1h1.05v1Z"/></g></g></svg>