<svg xmlns="http://www.w3.org/2000/svg" viewBox="0 0 207.62 277.04"><defs><style>.cls-1,.cls-10,.cls-9{fill:#b092ff;}.cls-2{fill:#7945ff;}.cls-3{font-size:13.28px;fill:#fff;}.cls-10,.cls-3{font-family:DarkerGrotesque-Black, Darker Grotesque;font-weight:800;}.cls-4,.cls-5{font-family:DarkerGrotesque-SemiBold, Darker Grotesque;font-weight:600;}.cls-4{letter-spacing:0em;}.cls-6{letter-spacing:-0.04em;}.cls-7{letter-spacing:0.01em;}.cls-8{letter-spacing:0.01em;}.cls-9{font-size:25.93px;font-family:Terminal-Grotesque, Terminal Grotesque;}.cls-10{font-size:12px;}.cls-11{fill:none;stroke:#b092ff;stroke-miterlimit:10;}</style></defs><g id="Capa_2" data-name="Capa 2"><g id="Layer_1" data-name="Layer 1"><circle class="cls-1" cx="103.81" cy="173.23" r="103.8"/><path class="cls-2" d="M103.81,173.23l-.3-103.8c56.94-.17,103.94,46.55,104.1,103.5S161.06,276.87,104.11,277a103.82,103.82,0,0,1-76.38-33.18Z"/><text class="cls-3" transform="translate(38.85 137.72)">42%<tspan class="cls-4" x="23.12" y="0"> </tspan><tspan class="cls-5"><tspan x="-14.14" y="15.11">RES</tspan><tspan class="cls-6" x="6.75" y="15.11">T</tspan><tspan x="12.33" y="15.11">AN</tspan><tspan class="cls-7" x="27.58" y="15.11">T</tspan><tspan x="33.78" y="15.11">E</tspan><tspan x="-27.76" y="30.21">DE POBLACIÓN</tspan></tspan></text><text class="cls-3" transform="translate(125.07 184.3)">58%<tspan class="cls-4" x="23.43" y="0"> </tspan><tspan class="cls-5"><tspan class="cls-8" x="-15.74" y="15.11">V</tspan><tspan x="-8.49" y="15.11">ÍCTIMAS </tspan><tspan x="-30.3" y="30.21">DEL CONFLICTO</tspan></tspan></text><text class="cls-9" transform="translate(70.01 36.73)">10,007</text><text class="cls-10" transform="translate(72.64 11.29)">POBLACIÓN:</text><path class="cls-11" d="M141.07,43.47h3.46V41.74h1.74V26.16H148V24.43h1.73V22.69h1.73V21h-1.73V19.23H148V17.5h-1.73V3.65h-1.74V1.92h-3.46"/><path class="cls-11" d="M66.55.5H63.08V2.23H61.35V17.81H59.62v1.74H57.89v1.73H56.16V23h1.73v1.73h1.73v1.73h1.73V40.32h1.73v1.73h3.47"/></g></g></svg>