<svg xmlns="http://www.w3.org/2000/svg" viewBox="0 0 138.89 143.62"><defs><style>.cls-1{fill:#f58b1e;}.cls-2{fill:#ffc133;}.cls-3{fill:#f06723;}.cls-4{fill:#ffe255;}</style></defs><g id="Capa_2" data-name="Capa 2"><g id="Layer_1" data-name="Layer 1"><path class="cls-1" d="M64.71,77.34H63.13v1.57H60V77.34H56.82V80.5H55.23v3.15H53.66v3.16H52.08v1.58H50.5V90H48.92V88.39H45.76V86.81H41V85.23H37.87V83.65H33.14v1.58H36.3v1.58h1.57V90H31.56v1.58H28.4V90H26.83V86.81H28.4V85.23H30V83.65h3.15V80.5h1.58V77.34h-11V75.76h1.58V72.6h1.58V71H25.25V69.44H23.67V67.87h3.16V66.29H22.09v1.58H18.94v1.57H17.36V71H15.78V72.6H14.2v1.58H12.63v3.16H14.2v1.57h1.58V80.5h3.16v1.57h1.58v3.16H7.89v1.58H6.31v1.58H9.47V90h3.16v1.58H14.2v4.73H12.63v1.59H14.2v1.57h3.16V101h3.16v4.74H28.4v3.15H26.83v1.58H25.25v1.58H23.67v-1.58H20.52V108.9H18.94v1.58H17.36v4.74h1.58v1.57h3.15v1.58h9.47V120h1.58v3.16H31.56v1.58H18.94v-1.58H17.36v14.2h4.73v1.58H28.4v1.57H30v-1.57h3.15v1.57H31.56v1.59H17.36v1.57H64.71v-1.57H60v-1.59H50.5v-1.57H64.71v-1.58H56.82v-1.58h-7.9v1.58H47.35v-1.58H42.61v-1.58H39.46v-1.57H37.87V131H41v-1.58h11V131h3.15v-1.58h6.32V131h3.16v-9.47H60V120h-7.9v-1.58H48.92v-1.58H47.35v-3.16H50.5v-1.57h7.89v1.57h6.32v-7.88H63.13v-3.16H61.55V99.43H60V97.86H58.39V96.27H50.5V93.12h1.58V91.54H60V90h1.57V86.81H58.39V83.65H60V82.07h1.57V80.5h3.16v1.57h1.58V75.76H64.71ZM28.4,102.59H23.67V101H22.09V97.86H20.52V93.12h3.15V91.54h1.58v1.58h11V94.7h3.16V93.12H41V94.7h3.16v4.73H41V101H39.46V99.43H37.87V101H36.3v1.58H28.4Zm7.9,36.3H34.72v-1.58h-11v-1.58H22.09V131H28.4v1.58H30v1.57h3.15v1.58h1.58v1.58H36.3Zm3.16,0H41v1.57h4.73v1.59h-6.3v-1.59H37.87v-1.57Zm-1.59-22.1H36.3v-1.57H31.56v-1.59H30V108.9h4.73v1.58h7.89v3.15h1.58v1.59H42.61v1.57H37.87Zm11.05,4.74v3.16H50.5v1.57H42.61v-1.57H41v-1.58H39.46v-1.58h3.15V120h3.15v1.58h3.16Zm3.16-18.94V101h3.15v1.58h3.16v3.16H56.82v1.58H53.66v1.57H50.5v-1.57H48.92v-4.74h3.16Z"/><rect class="cls-1" x="26.83" y="64.71" width="1.57" height="1.58"/><polygon class="cls-1" points="41.03 58.4 42.62 58.4 42.62 59.98 44.19 59.98 45.77 59.98 47.35 59.98 48.92 59.98 50.5 59.98 50.5 58.4 48.92 58.4 47.35 58.4 45.77 58.4 44.19 58.4 44.19 56.82 42.62 56.82 42.62 55.24 41.03 55.24 39.46 55.24 39.46 56.82 41.03 56.82 41.03 58.4"/><polygon class="cls-1" points="64.71 72.6 64.71 71.03 63.13 71.03 63.13 69.44 61.55 69.44 59.98 69.44 59.98 67.87 58.39 67.87 58.39 69.44 56.82 69.44 56.82 71.03 58.39 71.03 59.98 71.03 59.98 72.6 61.55 72.6 63.13 72.6 63.13 74.18 63.13 75.76 64.71 75.76 64.71 74.18 64.71 72.6"/><polygon class="cls-2" points="29.99 118.37 28.4 118.37 26.83 118.37 25.25 118.37 23.67 118.37 22.09 118.37 22.09 116.79 20.52 116.79 18.94 116.79 18.94 115.22 17.36 115.22 17.36 116.79 17.36 118.37 17.36 119.95 17.36 121.53 17.36 123.11 18.94 123.11 18.94 124.69 20.52 124.69 22.09 124.69 23.67 124.69 25.25 124.69 26.83 124.69 28.4 124.69 29.99 124.69 31.56 124.69 31.56 123.11 33.14 123.11 33.14 121.53 33.14 119.95 31.56 119.95 31.56 118.37 29.99 118.37"/><polygon class="cls-2" points="11.04 75.76 11.04 77.34 11.04 78.91 9.47 78.91 9.47 80.5 9.47 82.07 9.47 83.65 7.89 83.65 7.89 85.23 9.47 85.23 11.04 85.23 12.63 85.23 14.2 85.23 15.78 85.23 17.36 85.23 18.94 85.23 20.52 85.23 20.52 83.65 20.52 82.07 18.94 82.07 18.94 80.5 17.36 80.5 15.78 80.5 15.78 78.91 14.2 78.91 14.2 77.34 12.63 77.34 12.63 75.76 11.04 75.76"/><polygon class="cls-2" points="29.99 138.89 29.99 140.46 28.4 140.46 28.4 138.89 26.83 138.89 25.25 138.89 23.67 138.89 22.09 138.89 22.09 137.31 20.52 137.31 18.94 137.31 17.36 137.31 17.36 138.89 17.36 140.46 17.36 142.05 18.94 142.05 20.52 142.05 22.09 142.05 23.67 142.05 25.25 142.05 26.83 142.05 28.4 142.05 29.99 142.05 31.56 142.05 31.56 140.46 33.14 140.46 33.14 138.89 31.56 138.89 29.99 138.89"/><polygon class="cls-2" points="23.67 93.12 22.09 93.12 20.52 93.12 20.52 94.7 20.52 96.27 20.52 97.86 22.09 97.86 22.09 99.43 22.09 101.01 23.67 101.01 23.67 102.59 25.25 102.59 25.25 101.01 25.25 99.43 25.25 97.86 25.25 96.27 25.25 94.7 25.25 93.12 25.25 91.54 23.67 91.54 23.67 93.12"/><polygon class="cls-2" points="33.14 135.73 33.14 134.16 31.56 134.16 29.99 134.16 29.99 132.58 28.4 132.58 28.4 131 26.83 131 25.25 131 23.67 131 22.09 131 22.09 132.58 22.09 134.16 22.09 135.73 23.67 135.73 23.67 137.31 25.25 137.31 26.83 137.31 28.4 137.31 29.99 137.31 31.56 137.31 33.14 137.31 34.72 137.31 34.72 135.73 33.14 135.73"/><polygon class="cls-2" points="29.99 83.65 29.99 85.23 28.4 85.23 28.4 86.81 26.83 86.81 26.83 88.39 26.83 89.96 28.4 89.96 28.4 91.54 29.99 91.54 31.56 91.54 31.56 89.96 33.14 89.96 34.72 89.96 36.3 89.96 37.87 89.96 37.87 88.39 37.87 86.81 36.3 86.81 36.3 85.23 34.72 85.23 33.14 85.23 33.14 83.65 31.56 83.65 29.99 83.65"/><rect class="cls-2" x="34.72" y="137.31" width="1.57" height="1.57"/><polygon class="cls-2" points="37.87 116.79 39.46 116.79 41.03 116.79 42.62 116.79 42.62 115.22 44.19 115.22 44.19 113.63 42.62 113.63 42.62 112.06 42.62 110.48 41.03 110.48 39.46 110.48 37.87 110.48 36.3 110.48 34.72 110.48 34.72 108.9 33.14 108.9 31.56 108.9 29.99 108.9 29.99 110.48 29.99 112.06 29.99 113.63 31.56 113.63 31.56 115.22 33.14 115.22 34.72 115.22 36.3 115.22 36.3 116.79 37.87 116.79"/><polygon class="cls-2" points="41.03 101.01 41.03 99.43 42.62 99.43 44.19 99.43 44.19 97.86 44.19 96.27 44.19 94.7 42.62 94.7 41.03 94.7 41.03 93.12 39.46 93.12 39.46 94.7 37.87 94.7 36.3 94.7 36.3 96.27 36.3 97.86 36.3 99.43 36.3 101.01 37.87 101.01 37.87 99.43 39.46 99.43 39.46 101.01 41.03 101.01"/><polygon class="cls-2" points="42.62 140.46 41.03 140.46 41.03 138.89 39.46 138.89 37.87 138.89 37.87 140.46 39.46 140.46 39.46 142.05 41.03 142.05 42.62 142.05 44.19 142.05 45.77 142.05 45.77 140.46 44.19 140.46 42.62 140.46"/><polygon class="cls-2" points="61.55 131 61.55 129.42 59.98 129.42 58.39 129.42 56.82 129.42 55.23 129.42 55.23 131 53.66 131 52.08 131 52.08 129.42 50.5 129.42 48.92 129.42 47.35 129.42 45.77 129.42 44.19 129.42 42.62 129.42 41.03 129.42 41.03 131 39.46 131 37.87 131 37.87 132.58 39.46 132.58 39.46 134.16 41.03 134.16 42.62 134.16 42.62 135.73 44.19 135.73 45.77 135.73 47.35 135.73 47.35 137.31 48.92 137.31 48.92 135.73 50.5 135.73 52.08 135.73 53.66 135.73 55.23 135.73 56.82 135.73 56.82 137.31 58.39 137.31 59.98 137.31 61.55 137.31 63.13 137.31 64.71 137.31 64.71 135.73 64.71 134.16 64.71 132.58 64.71 131 63.13 131 61.55 131"/><polygon class="cls-2" points="48.92 121.53 47.35 121.53 45.77 121.53 45.77 119.95 44.19 119.95 42.62 119.95 42.62 121.53 41.03 121.53 39.46 121.53 39.46 123.11 41.03 123.11 41.03 124.69 42.62 124.69 42.62 126.26 44.19 126.26 45.77 126.26 47.35 126.26 48.92 126.26 50.5 126.26 50.5 124.69 48.92 124.69 48.92 123.11 48.92 121.53"/><polygon class="cls-2" points="61.55 138.89 59.98 138.89 58.39 138.89 56.82 138.89 55.23 138.89 53.66 138.89 52.08 138.89 50.5 138.89 50.5 140.46 52.08 140.46 53.66 140.46 55.23 140.46 56.82 140.46 58.39 140.46 59.98 140.46 59.98 142.05 61.55 142.05 63.13 142.05 64.71 142.05 64.71 140.46 64.71 138.89 63.13 138.89 61.55 138.89"/><polygon class="cls-2" points="52.08 108.9 53.66 108.9 53.66 107.33 55.23 107.33 56.82 107.33 56.82 105.75 58.39 105.75 58.39 104.17 58.39 102.59 56.82 102.59 55.23 102.59 55.23 101.01 53.66 101.01 52.08 101.01 52.08 102.59 50.5 102.59 48.92 102.59 48.92 104.17 48.92 105.75 48.92 107.33 50.5 107.33 50.5 108.9 52.08 108.9"/><polygon class="cls-2" points="58.39 91.54 56.82 91.54 55.23 91.54 53.66 91.54 52.08 91.54 52.08 93.12 50.5 93.12 50.5 94.7 50.5 96.27 52.08 96.27 53.66 96.27 55.23 96.27 56.82 96.27 58.39 96.27 58.39 97.86 59.97 97.86 59.97 99.44 61.56 99.44 61.56 97.85 59.98 97.85 59.98 96.27 59.98 94.7 59.97 94.7 59.97 93.12 59.97 91.54 58.4 91.54 58.4 93.12 58.4 94.7 58.39 94.7 58.39 93.12 58.39 91.54"/><rect class="cls-2" x="63.13" y="104.17" width="1.58" height="1.58"/><polygon class="cls-2" points="17.36 110.48 18.94 110.48 18.94 108.9 20.52 108.9 20.52 110.48 22.09 110.48 23.67 110.48 23.67 112.06 25.25 112.06 25.25 110.48 26.83 110.48 26.83 108.9 28.4 108.9 28.4 107.33 28.4 105.75 26.83 105.75 25.25 105.75 23.67 105.75 22.09 105.75 20.52 105.75 20.52 104.17 20.52 102.59 20.52 101.01 18.94 101.01 17.36 101.01 17.36 99.43 15.78 99.43 14.2 99.43 14.2 97.86 12.63 97.86 12.63 96.27 14.2 96.27 14.2 94.7 14.2 93.12 14.2 91.54 12.63 91.54 12.63 89.96 11.04 89.96 9.47 89.96 9.47 88.39 7.89 88.39 6.31 88.39 6.31 89.96 4.73 89.96 4.73 91.54 4.73 93.12 3.16 93.12 3.16 94.7 3.16 96.27 1.57 96.27 1.57 97.86 1.57 99.43 1.57 101.01 1.57 102.59 3.16 102.59 3.16 104.17 4.73 104.17 6.31 104.17 6.31 105.75 7.89 105.75 9.47 105.75 9.47 107.33 11.04 107.33 11.04 108.9 12.63 108.9 14.2 108.9 15.78 108.9 15.78 110.48 17.36 110.48"/><polygon class="cls-2" points="25.25 72.6 25.25 74.18 25.25 75.76 23.67 75.76 23.67 77.34 25.25 77.34 26.83 77.34 28.4 77.34 29.99 77.34 31.56 77.34 33.14 77.34 34.72 77.34 34.72 78.91 34.72 80.5 33.14 80.5 33.14 82.07 33.14 83.65 34.72 83.65 36.3 83.65 37.87 83.65 37.87 85.23 39.46 85.23 41.03 85.23 41.03 86.81 42.62 86.81 44.19 86.81 45.77 86.81 45.77 88.39 47.35 88.39 48.92 88.39 48.92 89.96 50.5 89.96 50.5 88.39 52.08 88.39 52.08 86.81 53.66 86.81 53.66 85.23 53.66 83.65 55.23 83.65 55.23 82.07 55.23 80.5 56.82 80.5 56.82 78.91 56.82 77.34 58.39 77.34 59.98 77.34 59.98 78.91 61.55 78.91 63.13 78.91 63.13 77.34 64.71 77.34 64.71 75.76 63.13 75.76 63.13 74.18 63.13 72.6 61.55 72.6 59.98 72.6 59.98 71.03 58.39 71.03 56.82 71.03 56.82 69.44 58.39 69.44 58.39 67.87 59.98 67.87 59.98 69.44 61.55 69.44 61.55 67.87 61.55 66.29 59.98 66.29 59.98 64.71 58.39 64.71 56.82 64.71 55.23 64.71 53.66 64.71 53.66 63.13 52.08 63.13 50.5 63.13 50.5 64.71 48.92 64.71 48.92 66.29 48.92 67.87 48.92 69.44 48.92 71.03 48.92 72.6 48.92 74.18 48.92 75.76 48.92 77.34 47.35 77.34 47.35 78.91 47.35 80.5 45.77 80.5 45.77 78.91 44.19 78.91 44.19 77.34 42.62 77.34 42.62 75.76 41.03 75.76 41.03 74.18 39.46 74.18 39.46 72.6 37.87 72.6 37.87 71.03 36.3 71.03 36.3 69.44 34.72 69.44 34.72 67.87 34.72 66.29 33.14 66.29 33.14 64.71 33.14 63.13 33.14 61.55 33.14 59.98 33.14 58.4 31.56 58.4 31.56 59.98 29.99 59.98 29.99 61.55 28.4 61.55 28.4 63.13 28.4 64.71 28.4 66.29 26.83 66.29 26.83 67.87 25.25 67.87 23.67 67.87 23.67 69.44 25.25 69.44 25.25 71.03 26.83 71.03 26.83 72.6 25.25 72.6"/><polygon class="cls-2" points="61.55 113.63 59.98 113.63 58.39 113.63 58.39 112.06 56.82 112.06 55.23 112.06 53.66 112.06 52.08 112.06 50.5 112.06 50.5 113.63 48.92 113.63 47.35 113.63 47.35 115.22 47.35 116.79 48.92 116.79 48.92 118.37 50.5 118.37 52.08 118.37 52.08 119.95 53.66 119.95 55.23 119.95 56.82 119.95 58.39 119.95 59.98 119.95 59.98 121.53 61.55 121.53 63.13 121.53 64.71 121.53 64.71 119.95 64.71 118.37 64.71 116.79 64.71 115.22 64.71 113.63 63.13 113.63 61.55 113.63"/><polygon class="cls-2" points="64.71 82.07 64.71 80.5 63.13 80.5 61.55 80.5 61.55 82.07 59.98 82.07 59.98 83.65 58.39 83.65 58.39 85.23 58.39 86.81 59.98 86.81 61.55 86.81 61.55 88.39 63.13 88.39 63.13 86.81 64.71 86.81 64.71 85.23 66.28 85.23 66.28 83.65 67.86 83.65 67.86 82.07 66.28 82.07 64.71 82.07"/><polygon class="cls-2" points="101.01 45.77 101.01 44.19 99.43 44.19 99.43 42.62 99.43 41.04 101.01 41.04 101.01 39.46 102.58 39.46 102.58 37.88 102.58 36.31 101.01 36.31 99.43 36.31 99.43 34.72 97.85 34.72 97.85 36.31 97.85 37.88 96.27 37.88 96.27 39.46 96.27 41.04 94.69 41.04 94.69 42.62 93.11 42.62 93.11 44.19 93.11 45.77 91.54 45.77 91.54 47.35 89.95 47.35 89.95 48.93 89.95 50.51 88.38 50.51 88.38 52.08 86.81 52.08 86.81 53.67 85.22 53.67 85.22 55.24 83.65 55.24 83.65 56.82 82.07 56.82 82.07 58.4 80.49 58.4 80.49 59.98 78.91 59.98 78.91 61.55 77.34 61.55 77.34 63.13 75.75 63.13 75.75 64.71 75.75 66.29 74.18 66.29 74.18 67.87 74.18 69.44 74.18 71.03 74.18 72.6 75.75 72.6 77.34 72.6 77.34 74.18 78.91 74.18 80.49 74.18 80.49 75.76 82.07 75.76 82.07 74.18 83.65 74.18 83.65 72.6 83.65 71.03 83.65 69.44 83.65 67.87 85.22 67.87 86.81 67.87 88.38 67.87 88.38 66.29 88.38 64.71 89.95 64.71 89.95 63.13 91.54 63.13 91.54 61.55 93.11 61.55 93.11 59.98 94.69 59.98 94.69 58.4 96.27 58.4 96.27 56.82 97.85 56.82 97.85 55.24 99.43 55.24 99.43 53.67 99.43 52.08 101.01 52.08 101.01 50.51 101.01 48.93 102.58 48.93 104.17 48.93 104.17 47.35 104.17 45.77 102.58 45.77 101.01 45.77"/><polygon class="cls-3" points="52.08 26.83 50.5 26.83 48.92 26.83 47.35 26.83 47.35 25.25 45.77 25.25 44.19 25.25 42.62 25.25 41.03 25.25 39.46 25.25 37.87 25.25 36.3 25.25 36.3 26.83 34.72 26.83 33.14 26.83 31.56 26.83 31.56 28.41 29.99 28.41 29.99 29.99 28.4 29.99 28.4 31.57 26.83 31.57 26.83 33.15 26.83 34.72 25.25 34.72 25.25 36.31 25.25 37.88 25.25 39.46 25.25 41.04 25.25 42.62 26.83 42.62 26.83 44.19 26.83 45.77 28.4 45.77 28.4 47.35 28.4 48.93 29.99 48.93 31.56 48.93 31.56 47.35 31.56 45.77 33.14 45.77 34.72 45.77 34.72 47.35 36.3 47.35 36.3 48.93 37.87 48.93 37.87 47.35 37.87 45.77 37.87 44.19 36.3 44.19 36.3 42.62 36.3 41.04 36.3 39.46 36.3 37.88 36.3 36.31 37.87 36.31 37.87 34.72 39.46 34.72 39.46 33.15 41.03 33.15 42.62 33.15 44.19 33.15 45.77 33.15 47.35 33.15 48.92 33.15 50.5 33.15 50.5 31.57 52.08 31.57 53.66 31.57 53.66 29.99 53.66 28.41 52.08 28.41 52.08 26.83"/><polygon class="cls-3" points="33.14 93.12 31.56 93.12 29.99 93.12 28.4 93.12 26.83 93.12 25.25 93.12 25.25 94.7 25.25 96.27 25.25 97.86 25.25 99.43 25.25 101.01 25.25 102.59 26.83 102.59 28.4 102.59 29.99 102.59 31.56 102.59 33.14 102.59 34.72 102.59 36.3 102.59 36.3 101.01 36.3 99.43 36.3 97.86 36.3 96.27 36.3 94.7 36.3 93.12 34.72 93.12 33.14 93.12"/><polygon class="cls-3" points="78.91 74.18 77.34 74.18 77.34 72.6 75.75 72.6 74.18 72.6 74.18 74.18 72.59 74.18 72.59 75.76 72.59 77.34 71.02 77.34 71.02 78.91 69.44 78.91 69.44 80.5 69.44 82.07 67.86 82.07 67.86 83.65 66.28 83.65 66.28 85.23 64.71 85.23 64.71 86.81 63.13 86.81 63.13 88.39 61.55 88.39 61.55 89.96 59.98 89.96 59.98 91.54 59.98 93.12 59.98 94.7 59.98 96.27 59.98 97.86 61.55 97.86 61.55 99.43 61.55 101.01 61.55 102.59 63.13 102.59 63.13 104.17 64.71 104.17 64.71 102.59 66.28 102.59 66.28 101.01 67.86 101.01 67.86 99.43 69.44 99.43 71.02 99.43 71.02 97.86 72.59 97.86 72.59 96.27 72.59 94.7 74.18 94.7 74.18 93.12 75.75 93.12 75.75 91.54 75.75 89.96 77.34 89.96 77.34 88.39 77.34 86.81 77.34 85.23 78.91 85.23 78.91 83.65 78.91 82.07 78.91 80.5 80.49 80.5 80.49 78.91 80.49 77.34 80.49 75.76 78.91 75.76 78.91 74.18"/><polygon class="cls-3" points="91.54 77.34 89.95 77.34 89.95 75.76 89.95 74.18 88.38 74.18 88.38 72.6 88.38 71.03 86.81 71.03 86.81 69.44 86.81 67.87 85.22 67.87 83.65 67.87 83.65 69.44 83.65 71.03 83.65 72.6 85.22 72.6 85.22 74.18 85.22 75.76 86.81 75.76 86.81 77.34 86.81 78.91 88.38 78.91 88.38 80.5 88.38 82.07 89.95 82.07 89.95 83.65 89.95 85.23 91.54 85.23 91.54 83.65 93.11 83.65 93.11 82.07 93.11 80.5 93.11 78.91 91.54 78.91 91.54 77.34"/><polygon class="cls-3" points="115.21 25.25 113.63 25.25 112.05 25.25 112.05 23.68 110.47 23.68 110.47 25.25 108.9 25.25 108.9 26.83 107.32 26.83 107.32 28.41 105.74 28.41 105.74 29.99 104.17 29.99 104.17 31.57 102.58 31.57 102.58 33.15 101.01 33.15 101.01 34.72 99.43 34.72 99.43 36.31 101.01 36.31 102.58 36.31 102.58 37.88 102.58 39.46 101.01 39.46 101.01 41.04 99.43 41.04 99.43 42.62 99.43 44.19 101.01 44.19 101.01 45.77 102.58 45.77 104.17 45.77 104.17 47.35 105.74 47.35 105.74 45.77 107.32 45.77 107.32 44.19 108.9 44.19 108.9 42.62 108.9 41.04 110.47 41.04 110.47 39.46 112.05 39.46 112.05 37.88 112.05 36.31 113.63 36.31 113.63 34.72 115.21 34.72 115.21 33.15 115.21 31.57 116.79 31.57 116.79 29.99 116.79 28.41 116.79 26.83 115.21 26.83 115.21 25.25"/><polygon class="cls-4" points="1.57 110.48 1.57 108.9 1.57 107.33 1.57 105.75 1.57 104.17 3.16 104.17 4.73 104.17 6.31 104.17 6.31 105.75 7.89 105.75 9.47 105.75 9.47 107.33 11.04 107.33 11.04 108.9 12.63 108.9 14.2 108.9 15.78 108.9 15.78 110.48 17.36 110.48 17.36 112.06 17.36 113.63 15.78 113.63 15.78 115.22 15.78 116.79 15.78 118.37 15.78 119.95 14.2 119.95 14.2 121.53 14.2 123.11 14.2 124.69 14.2 126.26 14.2 127.84 15.78 127.84 15.78 129.42 17.36 129.42 17.36 131 17.36 132.58 17.36 134.16 17.36 135.73 17.36 137.31 17.36 138.89 17.36 140.46 17.36 142.05 15.78 142.05 14.2 142.05 12.63 142.05 12.63 140.46 11.04 140.46 9.47 140.46 9.47 138.89 7.89 138.89 7.89 137.31 6.31 137.31 6.31 135.73 4.73 135.73 4.73 134.16 3.16 134.16 3.16 132.58 1.57 132.58 1.57 131 1.57 129.42 0 129.42 0 127.84 0 126.26 0 124.69 0 123.11 0 121.53 0 119.95 0 118.37 0 116.79 0 115.22 0 113.63 0 112.06 0 110.48 1.57 110.48"/><polygon class="cls-4" points="31.56 47.35 31.56 45.77 33.14 45.77 34.72 45.77 34.72 47.35 36.3 47.35 36.3 48.93 37.87 48.93 37.87 47.35 37.87 45.77 37.87 44.19 36.3 44.19 36.3 42.62 36.3 41.04 36.3 39.46 36.3 37.88 36.3 36.31 37.87 36.31 37.87 34.72 39.46 34.72 39.46 33.15 41.03 33.15 42.62 33.15 44.19 33.15 45.77 33.15 47.35 33.15 48.92 33.15 50.5 33.15 50.5 31.57 52.08 31.57 52.08 33.15 53.66 33.15 53.66 34.72 55.23 34.72 55.23 36.31 55.23 37.88 55.23 39.46 56.82 39.46 56.82 41.04 56.82 42.62 56.82 44.19 56.82 45.77 56.82 47.35 56.82 48.93 56.82 50.51 56.82 52.08 56.82 53.67 55.23 53.67 55.23 55.24 55.23 56.82 53.66 56.82 52.08 56.82 52.08 58.4 50.5 58.4 48.92 58.4 47.35 58.4 45.77 58.4 44.19 58.4 44.19 56.82 42.62 56.82 42.62 55.24 41.03 55.24 39.46 55.24 39.46 56.82 41.03 56.82 41.03 58.4 42.62 58.4 42.62 59.98 44.19 59.98 45.77 59.98 47.35 59.98 48.92 59.98 50.5 59.98 50.5 61.55 50.5 63.13 50.5 64.71 48.92 64.71 48.92 66.29 48.92 67.87 48.92 69.44 48.92 71.03 48.92 72.6 48.92 74.18 48.92 75.76 48.92 77.34 47.35 77.34 47.35 78.91 47.35 80.5 45.77 80.5 45.77 78.91 44.19 78.91 44.19 77.34 42.62 77.34 42.62 75.76 41.03 75.76 41.03 74.18 39.46 74.18 39.46 72.6 37.87 72.6 37.87 71.03 36.3 71.03 36.3 69.44 34.72 69.44 34.72 67.87 34.72 66.29 33.14 66.29 33.14 64.71 33.14 63.13 33.14 61.55 33.14 59.98 33.14 58.4 33.14 56.82 33.14 55.24 33.14 53.67 31.56 53.67 31.56 52.08 31.56 50.51 29.99 50.51 29.99 48.93 31.56 48.93 31.56 47.35"/><polygon class="cls-4" points="66.28 101.01 67.86 101.01 67.86 99.43 69.44 99.43 71.02 99.43 71.02 97.86 72.59 97.86 72.59 96.27 72.59 94.7 74.18 94.7 74.18 93.12 75.75 93.12 75.75 91.54 75.75 89.96 77.34 89.96 77.34 88.39 77.34 86.81 78.91 86.81 78.91 85.23 78.91 83.65 78.91 82.07 78.91 80.5 80.49 80.5 80.49 78.91 80.49 77.34 80.49 75.76 82.07 75.76 82.07 74.18 83.65 74.18 83.65 72.6 85.22 72.6 85.22 74.18 85.22 75.76 86.81 75.76 86.81 77.34 86.81 78.91 88.38 78.91 88.38 80.5 88.38 82.07 89.95 82.07 89.95 83.65 89.95 85.23 91.54 85.23 91.54 86.81 89.95 86.81 88.38 86.81 88.38 88.39 86.81 88.39 86.81 89.96 85.22 89.96 85.22 91.54 85.22 93.12 83.65 93.12 83.65 94.7 82.07 94.7 82.07 96.27 82.07 97.86 80.49 97.86 80.49 99.43 78.91 99.43 78.91 101.01 77.34 101.01 77.34 102.59 75.75 102.59 75.75 104.17 74.18 104.17 72.59 104.17 72.59 105.75 71.02 105.75 71.02 107.33 69.44 107.33 69.44 108.9 67.86 108.9 66.28 108.9 64.71 108.9 64.71 107.33 64.71 105.75 64.71 104.17 64.71 102.59 66.28 102.59 66.28 101.01"/><polygon class="cls-4" points="93.11 83.65 93.11 82.07 93.11 80.5 93.11 78.91 91.54 78.91 91.54 77.34 89.95 77.34 89.95 75.76 89.95 74.18 88.38 74.18 88.38 72.6 89.95 72.6 91.54 72.6 91.54 74.18 93.11 74.18 93.11 75.76 94.69 75.76 94.69 77.34 96.27 77.34 96.27 78.91 96.27 80.5 96.27 82.07 94.69 82.07 94.69 83.65 94.69 85.23 93.11 85.23 91.54 85.23 91.54 83.65 93.11 83.65"/><polygon class="cls-4" points="113.63 20.52 113.63 18.95 115.21 18.95 115.21 17.36 116.79 17.36 116.79 15.79 118.37 15.79 118.37 14.21 119.94 14.21 121.53 14.21 121.53 15.79 119.94 15.79 119.94 17.36 118.37 17.36 118.37 18.95 116.79 18.95 116.79 20.52 115.21 20.52 115.21 22.09 115.21 23.68 113.63 23.68 113.63 25.25 112.05 25.25 112.05 23.68 112.05 22.09 113.63 22.09 113.63 20.52"/><polygon class="cls-4" points="116.79 23.68 118.37 23.68 118.37 22.09 119.94 22.09 119.94 20.52 121.53 20.52 121.53 18.95 121.53 17.36 123.1 17.36 123.1 15.79 124.68 15.79 124.68 14.21 126.26 14.21 126.26 12.63 127.84 12.63 127.84 11.05 127.84 9.48 129.41 9.48 129.41 7.89 131 7.89 131 6.32 131 4.73 132.57 4.73 132.57 3.16 132.57 1.58 134.16 1.58 134.16 0 135.73 0 137.31 0 138.89 0 138.89 1.58 138.89 3.16 138.89 4.73 137.31 4.73 137.31 6.32 135.73 6.32 134.16 6.32 132.57 6.32 132.57 7.89 132.57 9.48 131 9.48 131 11.05 129.41 11.05 129.41 12.63 129.41 14.21 127.84 14.21 127.84 15.79 126.26 15.79 126.26 17.36 124.68 17.36 124.68 18.95 123.1 18.95 123.1 20.52 123.1 22.09 121.53 22.09 121.53 23.68 119.94 23.68 119.94 25.25 118.37 25.25 118.37 26.83 116.79 26.83 115.21 26.83 115.21 25.25 116.79 25.25 116.79 23.68"/></g></g></svg>