<svg xmlns="http://www.w3.org/2000/svg" viewBox="0 0 121.1 125.22"><defs><style>.cls-1{fill:#a83356;}.cls-2{fill:#ff6656;}.cls-3{fill:#d13828;}.cls-4{fill:#ff9193;}</style></defs><g id="Capa_2" data-name="Capa 2"><g id="Layer_1" data-name="Layer 1"><polygon class="cls-1" points="23.39 30.27 23.39 28.9 23.39 27.53 24.77 27.53 24.77 26.15 26.15 26.15 26.15 24.77 27.52 24.77 27.52 23.39 28.89 23.39 30.27 23.39 31.65 23.39 31.65 22.02 33.02 22.02 34.4 22.02 35.77 22.02 37.16 22.02 38.53 22.02 39.9 22.02 41.28 22.02 41.28 23.39 42.66 23.39 44.03 23.39 45.41 23.39 45.41 24.77 46.78 24.77 46.78 26.15 46.78 27.53 45.41 27.53 44.03 27.53 44.03 28.9 42.66 28.9 41.28 28.9 39.9 28.9 38.53 28.9 37.16 28.9 35.77 28.9 34.4 28.9 34.4 30.27 33.02 30.27 33.02 31.66 31.65 31.66 31.65 33.03 31.65 34.4 31.65 35.78 31.65 37.16 31.65 38.53 33.02 38.53 33.02 39.91 33.02 41.28 33.02 42.66 31.65 42.66 31.65 41.28 30.27 41.28 30.27 39.91 28.89 39.91 27.52 39.91 27.52 41.28 27.52 42.66 26.15 42.66 24.77 42.66 24.77 41.28 24.77 39.91 23.39 39.91 23.39 38.53 23.39 37.16 22.02 37.16 22.02 35.78 22.02 34.4 22.02 33.03 22.02 31.66 22.02 30.27 23.39 30.27"/><path class="cls-2" d="M5.5,75.69v1.38H8.26v1.37H11v1.37h1.37v4.13H11v1.38h1.37v1.37h2.76v1.38h2.75V92.2h6.88V95H23.39v1.38H22V97.7H20.64V96.33H17.89V95H16.51v1.38H15.14v4.13h1.37v1.37h2.75v1.37h8.26v1.39h1.37v2.75H27.52v1.37h-11v-1.37H15.14v12.38h4.12v1.38h5.51v1.37h1.38V121.1h2.74v1.37H27.52v1.38H15.14v1.37H56.42v-1.37H52.29v-1.38H44V121.1H56.42v-1.38H49.54v-1.38H42.66v1.38H41.28v-1.38H37.16V117H34.4V115.6H33v-1.39h2.75v-1.37h9.64v1.37h2.75v-1.37h5.51v1.37h2.75V106H52.29v-1.37H45.41V103.2H42.66v-1.37H41.28V99.08H44V97.7h6.88v1.38h5.51V92.2H55V89.45H53.67V86.69H52.29V85.32H50.91V83.94H44V81.19h1.38V79.81h6.88V78.44h1.38V75.69H50.91V72.93h1.38V71.56h1.38V70.18h2.75v1.38h1.37v-5.5H56.42v1.37H55V68.8H52.29V67.43H49.54v2.75H48.16v2.75H46.78v2.76H45.41v1.38H44v1.37H42.66V77.07H39.9V75.69H35.77V74.31H33V72.93H28.89v1.38h2.76v1.38H33v2.75h-5.5v1.37H24.77V78.44H23.39V75.69h1.38V74.31h1.38V72.93h2.74V70.18h1.38V67.43H20.64V66.06H22V63.3h1.37V61.93H22V60.55H20.64V59.17h2.75V57.8H19.26v1.37H16.51v1.38H15.14v1.38H13.76V63.3H12.38v1.38H11v2.75h1.37V68.8h1.38v1.38h2.75v1.38h1.38v2.75h-11v1.38ZM46.78,93.58V95H44V93.58H42.66V89.45h2.75V88.07h2.75v1.38h2.75V92.2H49.54v1.38H46.78ZM44,110.09H37.16v-1.38H35.77v-1.37H34.4V106h2.76v-1.37H39.9V106h2.76v2.75H44ZM34.4,123.85v-1.38H33V121.1h2.75v1.37H39.9v1.38H34.4Zm-15.14-5.51v-4.13h5.51v1.39h1.38V117h2.74v1.37h1.38v1.38h1.38v1.38H30.27v-1.38H20.64v-1.38ZM26.15,95h4.12v1.38h6.89v2.75h1.37v1.38H37.16v1.37H31.65v-1.37H27.52V99.08H26.15V95Zm-6.89-6.88V85.32H17.89V81.19h2.75V79.81H22v1.38h9.63v1.38H34.4V81.19h1.37v1.38h2.76v4.12H35.77v1.38H34.4V86.69H33v1.38H31.65v1.38h-11V88.07Z"/><rect class="cls-2" x="23.39" y="56.42" width="1.37" height="1.38"/><polygon class="cls-2" points="41.28 52.29 39.9 52.29 38.53 52.29 37.16 52.29 37.16 50.92 35.77 50.92 35.77 49.54 34.4 49.54 34.4 48.16 35.77 48.16 37.16 48.16 37.16 49.54 38.53 49.54 38.53 50.92 39.9 50.92 41.28 50.92 42.66 50.92 44.03 50.92 44.03 52.29 42.66 52.29 41.28 52.29"/><polygon class="cls-2" points="55.04 64.68 55.04 63.3 53.67 63.3 52.29 63.3 52.29 61.93 50.91 61.93 49.54 61.93 49.54 60.55 50.91 60.55 50.91 59.17 52.29 59.17 52.29 60.55 53.67 60.55 55.04 60.55 55.04 61.93 56.42 61.93 56.42 63.3 56.42 64.68 56.42 66.06 55.04 66.06 55.04 64.68"/><polygon class="cls-3" points="16.51 101.83 17.89 101.83 19.26 101.83 19.26 103.2 20.64 103.2 22.02 103.2 23.39 103.2 24.77 103.2 26.15 103.2 27.52 103.2 27.52 104.59 28.89 104.59 28.89 105.96 28.89 107.34 27.52 107.34 27.52 108.71 26.15 108.71 24.77 108.71 23.39 108.71 22.02 108.71 20.64 108.71 19.26 108.71 17.89 108.71 16.51 108.71 16.51 107.34 15.14 107.34 15.14 105.96 15.14 104.59 15.14 103.2 15.14 101.83 15.14 100.46 16.51 100.46 16.51 101.83"/><polygon class="cls-3" points="15.14 74.31 13.76 74.31 12.38 74.31 11.01 74.31 9.63 74.31 8.26 74.31 6.88 74.31 6.88 72.93 8.26 72.93 8.26 71.56 8.26 70.18 8.26 68.8 9.63 68.8 9.63 67.43 9.63 66.06 11.01 66.06 11.01 67.43 12.38 67.43 12.38 68.8 13.76 68.8 13.76 70.18 15.14 70.18 16.51 70.18 16.51 71.56 17.89 71.56 17.89 72.93 17.89 74.31 16.51 74.31 15.14 74.31"/><polygon class="cls-3" points="17.89 119.72 19.26 119.72 19.26 121.1 20.64 121.1 22.02 121.1 23.39 121.1 24.77 121.1 24.77 122.47 26.15 122.47 26.15 121.1 27.52 121.1 28.89 121.1 28.89 122.47 27.52 122.47 27.52 123.85 26.15 123.85 24.77 123.85 23.39 123.85 22.02 123.85 20.64 123.85 19.26 123.85 17.89 123.85 16.51 123.85 15.14 123.85 15.14 122.47 15.14 121.1 15.14 119.72 16.51 119.72 17.89 119.72"/><polygon class="cls-3" points="20.64 79.81 22.02 79.81 22.02 81.19 22.02 82.57 22.02 83.94 22.02 85.32 22.02 86.69 22.02 88.07 22.02 89.45 20.64 89.45 20.64 88.07 19.26 88.07 19.26 86.69 19.26 85.32 17.89 85.32 17.89 83.94 17.89 82.57 17.89 81.19 19.26 81.19 20.64 81.19 20.64 79.81"/><polygon class="cls-3" points="22.02 60.55 20.64 60.55 20.64 59.17 22.02 59.17 23.39 59.17 23.39 60.55 23.39 61.93 22.02 61.93 22.02 60.55"/><polygon class="cls-3" points="27.52 119.72 26.15 119.72 24.77 119.72 23.39 119.72 22.02 119.72 20.64 119.72 20.64 118.34 19.26 118.34 19.26 116.97 19.26 115.59 19.26 114.21 20.64 114.21 22.02 114.21 23.39 114.21 24.77 114.21 24.77 115.59 26.15 115.59 26.15 116.97 27.52 116.97 28.89 116.97 28.89 118.34 30.27 118.34 30.27 119.72 28.89 119.72 27.52 119.72"/><polygon class="cls-3" points="30.27 74.31 31.65 74.31 31.65 75.69 33.02 75.69 33.02 77.07 33.02 78.44 31.65 78.44 30.27 78.44 28.89 78.44 27.52 78.44 27.52 79.81 26.15 79.81 24.77 79.81 24.77 78.44 23.39 78.44 23.39 77.07 23.39 75.69 24.77 75.69 24.77 74.31 26.15 74.31 26.15 72.93 27.52 72.93 28.89 72.93 28.89 74.31 30.27 74.31"/><rect class="cls-3" x="30.27" y="119.72" width="1.37" height="1.37"/><polygon class="cls-3" points="31.65 100.46 30.27 100.46 28.89 100.46 27.52 100.46 27.52 99.08 26.15 99.08 26.15 97.7 26.15 96.33 26.15 94.95 27.52 94.95 28.89 94.95 30.27 94.95 30.27 96.33 31.65 96.33 33.02 96.33 34.4 96.33 35.77 96.33 37.16 96.33 37.16 97.7 37.16 99.08 38.53 99.08 38.53 100.46 37.16 100.46 37.16 101.83 35.77 101.83 34.4 101.83 33.02 101.83 31.65 101.83 31.65 100.46"/><polygon class="cls-3" points="31.65 88.07 31.65 86.69 31.65 85.32 31.65 83.94 31.65 82.57 33.02 82.57 34.4 82.57 34.4 81.19 35.77 81.19 35.77 82.57 37.16 82.57 38.53 82.57 38.53 83.94 38.53 85.32 38.53 86.69 37.16 86.69 35.77 86.69 35.77 88.07 34.4 88.07 34.4 86.69 33.02 86.69 33.02 88.07 31.65 88.07"/><polygon class="cls-3" points="35.77 121.1 35.77 122.47 37.16 122.47 38.53 122.47 39.9 122.47 39.9 123.85 38.53 123.85 37.16 123.85 35.77 123.85 34.4 123.85 34.4 122.47 33.02 122.47 33.02 121.1 34.4 121.1 35.77 121.1"/><polygon class="cls-3" points="35.77 114.21 35.77 112.84 37.16 112.84 38.53 112.84 39.9 112.84 41.28 112.84 42.66 112.84 44.03 112.84 45.41 112.84 45.41 114.21 46.78 114.21 48.16 114.21 48.16 112.84 49.54 112.84 50.91 112.84 52.29 112.84 53.67 112.84 53.67 114.21 55.04 114.21 56.42 114.21 56.42 115.59 56.42 116.97 56.42 118.34 56.42 119.72 55.04 119.72 53.67 119.72 52.29 119.72 50.91 119.72 49.54 119.72 49.54 118.34 48.16 118.34 46.78 118.34 45.41 118.34 44.03 118.34 42.66 118.34 42.66 119.72 41.28 119.72 41.28 118.34 39.9 118.34 38.53 118.34 37.16 118.34 37.16 116.97 35.77 116.97 34.4 116.97 34.4 115.59 33.02 115.59 33.02 114.21 34.4 114.21 35.77 114.21"/><polygon class="cls-3" points="38.53 104.59 39.9 104.59 39.9 105.96 41.28 105.96 42.66 105.96 42.66 107.34 42.66 108.71 44.03 108.71 44.03 110.09 42.66 110.09 41.28 110.09 39.9 110.09 38.53 110.09 37.16 110.09 37.16 108.71 35.77 108.71 35.77 107.34 34.4 107.34 34.4 105.96 35.77 105.96 37.16 105.96 37.16 104.59 38.53 104.59"/><polygon class="cls-3" points="46.78 121.1 48.16 121.1 49.54 121.1 50.91 121.1 52.29 121.1 53.67 121.1 55.04 121.1 56.42 121.1 56.42 122.47 56.42 123.85 55.04 123.85 53.67 123.85 52.29 123.85 52.29 122.47 50.91 122.47 49.54 122.47 48.16 122.47 46.78 122.47 45.41 122.47 44.03 122.47 44.03 121.1 45.41 121.1 46.78 121.1"/><polygon class="cls-3" points="45.41 94.95 44.03 94.95 44.03 93.58 42.66 93.58 42.66 92.2 42.66 90.82 42.66 89.45 44.03 89.45 45.41 89.45 45.41 88.07 46.78 88.07 48.16 88.07 48.16 89.45 49.54 89.45 50.91 89.45 50.91 90.82 50.91 92.2 49.54 92.2 49.54 93.58 48.16 93.58 46.78 93.58 46.78 94.95 45.41 94.95"/><polygon class="cls-3" points="50.92 79.81 52.29 79.81 52.29 81.19 52.29 82.57 52.29 82.57 52.29 83.94 52.29 85.32 53.67 85.32 53.67 86.7 52.29 86.7 52.29 85.32 50.91 85.32 50.91 83.94 49.54 83.94 48.16 83.94 46.78 83.94 45.41 83.94 44.03 83.94 44.03 82.57 44.03 81.19 45.41 81.19 45.41 79.81 46.78 79.81 48.16 79.81 49.54 79.81 50.91 79.81 50.91 81.19 50.91 82.57 50.92 82.57 50.92 81.19 50.92 79.81"/><rect class="cls-3" x="55.04" y="90.82" width="1.38" height="1.38"/><path class="cls-3" d="M1.37,83.94v5.51H2.75v1.37H5.5V92.2H8.26v1.38H9.63V95h4.13v1.38h2.75V93.58h0V95h1.38v1.38h2.75V97.7H22V96.33h1.37V95h1.38V92.2H17.89V88.07H15.14V86.69H12.38V85.32H11V83.94h1.37V79.81H11V78.44H8.26V77.07H5.5v1.37H4.13v1.37h0v1.38H2.75v2.75ZM5.5,79.81h0v1.38h0Z"/><path class="cls-3" d="M55,67.43h1.38V66.06H55V63.3H52.29V61.93H49.54V60.55h1.37V59.17h1.38v1.38h1.38V57.8H52.29V56.42H46.78V55.05H45.41V57.8h0V55.05H44v1.37H42.66v11H41.28v2.75H39.9V68.8H38.53V67.43H37.16V66.06H35.77V64.68H34.4V63.3H33V61.93H31.65V60.55H30.27V57.8H28.89V50.92H27.52v1.37H26.15v1.38H24.77V57.8H23.39v5.5H22v2.76H20.64v1.37h9.63v2.75H28.89v2.75H33v1.38h2.75v1.38H39.9v1.38h2.76v1.37H44V77.07h1.38V75.69h1.37V72.93h1.38V70.18h1.38V67.43h2.75V68.8H55Zm-6.88-6.88V59.17h0v1.38Zm-1.38,4.13h0v1.38h0Zm0-6.88v1.37h0V57.8Z"/><polygon class="cls-3" points="56.42 100.46 56.42 101.83 56.42 103.2 56.42 104.59 56.42 105.96 55.04 105.96 53.67 105.96 52.29 105.96 52.29 104.59 50.91 104.59 49.54 104.59 48.16 104.59 46.78 104.59 45.41 104.59 45.41 103.2 44.03 103.2 42.66 103.2 42.66 101.83 41.28 101.83 41.28 100.46 41.28 99.08 42.66 99.08 44.03 99.08 44.03 97.7 45.41 97.7 46.78 97.7 48.16 97.7 49.54 97.7 50.91 97.7 50.91 99.08 52.29 99.08 53.67 99.08 55.04 99.08 56.42 99.08 56.42 100.46"/><polygon class="cls-3" points="56.42 74.31 56.42 75.69 55.04 75.69 55.04 77.07 53.67 77.07 53.67 75.69 52.29 75.69 50.91 75.69 50.91 74.31 50.91 72.93 52.29 72.93 52.29 71.56 53.67 71.56 53.67 70.18 55.04 70.18 56.42 70.18 56.42 71.56 57.79 71.56 59.17 71.56 59.17 72.93 57.79 72.93 57.79 74.31 56.42 74.31"/><polygon class="cls-3" points="66.05 56.42 66.05 55.05 67.43 55.05 67.43 53.67 68.8 53.67 68.8 52.29 70.18 52.29 70.18 50.92 71.56 50.92 71.56 49.54 72.93 49.54 72.93 48.16 74.3 48.16 74.3 46.79 75.69 46.79 75.69 45.41 77.06 45.41 77.06 44.04 78.43 44.04 78.43 42.66 78.43 41.28 79.81 41.28 79.81 39.91 81.19 39.91 81.19 38.53 81.19 37.16 82.56 37.16 82.56 35.78 83.94 35.78 83.94 34.4 83.94 33.03 85.31 33.03 85.31 31.66 85.31 30.27 86.69 30.27 86.69 31.66 88.07 31.66 89.44 31.66 89.44 33.03 89.44 34.4 88.07 34.4 88.07 35.78 86.69 35.78 86.69 37.16 86.69 38.53 88.07 38.53 88.07 39.91 89.44 39.91 90.82 39.91 90.82 41.28 90.82 42.66 89.44 42.66 88.07 42.66 88.07 44.04 88.07 45.41 86.69 45.41 86.69 46.79 86.69 48.16 85.31 48.16 85.31 49.54 83.94 49.54 83.94 50.92 82.56 50.92 82.56 52.29 81.19 52.29 81.19 53.67 79.81 53.67 79.81 55.05 78.43 55.05 78.43 56.42 77.06 56.42 77.06 57.8 77.06 59.17 75.69 59.17 74.3 59.17 72.93 59.17 72.93 60.55 72.93 61.93 72.93 63.3 72.93 64.68 71.56 64.68 71.56 66.06 70.18 66.06 70.18 64.68 68.8 64.68 67.43 64.68 67.43 63.3 66.05 63.3 64.68 63.3 64.68 61.93 64.68 60.55 64.68 59.17 64.68 57.8 66.05 57.8 66.05 56.42"/><polygon class="cls-1" points="23.39 81.19 24.77 81.19 26.15 81.19 27.52 81.19 28.89 81.19 30.27 81.19 31.65 81.19 31.65 82.57 31.65 83.94 31.65 85.32 31.65 86.69 31.65 88.07 31.65 89.45 30.27 89.45 28.89 89.45 27.52 89.45 26.15 89.45 24.77 89.45 23.39 89.45 22.02 89.45 22.02 88.07 22.02 86.69 22.02 85.32 22.02 83.94 22.02 82.57 22.02 81.19 23.39 81.19"/><polygon class="cls-1" points="53.67 77.07 55.04 77.07 55.04 75.69 56.42 75.69 56.42 74.31 57.79 74.31 57.79 72.93 59.17 72.93 59.17 71.56 60.55 71.56 60.55 70.18 60.55 68.8 61.92 68.8 61.92 67.43 63.29 67.43 63.29 66.06 63.29 64.68 64.68 64.68 64.68 63.3 66.05 63.3 67.43 63.3 67.43 64.68 68.8 64.68 68.8 66.06 70.18 66.06 70.18 67.43 70.18 68.8 70.18 70.18 68.8 70.18 68.8 71.56 68.8 72.93 68.8 74.31 67.43 74.31 67.43 75.69 67.43 77.07 67.43 78.44 66.05 78.44 66.05 79.81 66.05 81.19 64.68 81.19 64.68 82.57 63.29 82.57 63.29 83.94 63.29 85.32 61.92 85.32 61.92 86.69 60.55 86.69 59.17 86.69 59.17 88.07 57.79 88.07 57.79 89.45 56.42 89.45 56.42 90.82 55.04 90.82 55.04 89.45 53.67 89.45 53.67 88.07 53.67 86.69 53.67 85.32 52.29 85.32 52.29 83.94 52.29 82.57 52.29 81.19 52.29 79.81 52.29 78.44 53.67 78.44 53.67 77.07"/><polygon class="cls-1" points="75.69 59.17 75.69 60.55 75.69 61.93 77.06 61.93 77.06 63.3 77.06 64.68 78.43 64.68 78.43 66.06 78.43 67.43 79.81 67.43 79.81 68.8 81.19 68.8 81.19 70.18 81.19 71.56 81.19 72.93 79.81 72.93 79.81 74.31 78.43 74.31 78.43 72.93 78.43 71.56 77.06 71.56 77.06 70.18 77.06 68.8 75.69 68.8 75.69 67.43 75.69 66.06 74.3 66.06 74.3 64.68 74.3 63.3 72.93 63.3 72.93 61.93 72.93 60.55 72.93 59.17 74.3 59.17 75.69 59.17"/><polygon class="cls-1" points="88.07 28.9 89.44 28.9 89.44 27.53 90.82 27.53 90.82 26.15 92.19 26.15 92.19 24.77 93.57 24.77 93.57 23.39 94.95 23.39 94.95 22.02 96.32 22.02 96.32 20.65 97.7 20.65 97.7 22.02 99.08 22.02 100.45 22.02 100.45 23.39 101.83 23.39 101.83 24.77 101.83 26.15 101.83 27.53 100.45 27.53 100.45 28.9 100.45 30.27 99.08 30.27 99.08 31.66 97.7 31.66 97.7 33.03 97.7 34.4 96.32 34.4 96.32 35.78 94.95 35.78 94.95 37.16 94.95 38.53 93.57 38.53 93.57 39.91 92.19 39.91 92.19 41.28 90.82 41.28 90.82 39.91 89.44 39.91 88.07 39.91 88.07 38.53 86.69 38.53 86.69 37.16 86.69 35.78 88.07 35.78 88.07 34.4 89.44 34.4 89.44 33.03 89.44 31.66 88.07 31.66 86.69 31.66 86.69 30.27 88.07 30.27 88.07 28.9"/><polygon class="cls-4" points="1.37 96.33 1.37 94.95 1.37 93.58 1.37 92.2 1.37 90.82 2.75 90.82 4.13 90.82 5.5 90.82 5.5 92.2 6.88 92.2 8.26 92.2 8.26 93.58 9.63 93.58 9.63 94.95 11.01 94.95 12.38 94.95 13.76 94.95 13.76 96.33 15.14 96.33 15.14 97.7 15.14 99.08 13.76 99.08 13.76 100.46 13.76 101.83 13.76 103.2 13.76 104.59 12.38 104.59 12.38 105.96 12.38 107.34 12.38 108.71 12.38 110.09 12.38 111.47 13.76 111.47 13.76 112.84 15.14 112.84 15.14 114.21 15.14 115.59 15.14 116.97 15.14 118.34 15.14 119.72 15.14 121.1 15.14 122.47 15.14 123.85 13.76 123.85 12.38 123.85 11.01 123.85 11.01 122.47 9.63 122.47 8.26 122.47 8.26 121.1 6.88 121.1 6.88 119.72 5.5 119.72 5.5 118.34 4.13 118.34 4.13 116.97 2.75 116.97 2.75 115.59 1.37 115.59 1.37 114.21 1.37 112.84 0 112.84 0 111.47 0 110.09 0 108.71 0 107.34 0 105.96 0 104.59 0 103.2 0 101.83 0 100.46 0 99.08 0 97.7 0 96.33 1.37 96.33"/><polygon class="cls-4" points="27.52 41.28 27.52 39.91 28.89 39.91 30.27 39.91 30.27 41.28 31.65 41.28 31.65 42.66 33.02 42.66 33.02 41.28 33.02 39.91 33.02 38.53 31.65 38.53 31.65 37.16 31.65 35.78 31.65 34.4 31.65 33.03 31.65 31.66 33.02 31.66 33.02 30.27 34.4 30.27 34.4 28.9 35.77 28.9 37.16 28.9 38.53 28.9 39.9 28.9 41.28 28.9 42.66 28.9 44.03 28.9 44.03 27.53 45.41 27.53 45.41 28.9 46.78 28.9 46.78 30.27 48.16 30.27 48.16 31.66 48.16 33.03 48.16 34.4 49.54 34.4 49.54 35.78 49.54 37.16 49.54 38.53 49.54 39.91 49.54 41.28 49.54 42.66 49.54 44.04 49.54 45.41 49.54 46.79 48.16 46.79 48.16 48.16 48.16 49.54 46.78 49.54 45.41 49.54 45.41 50.92 44.03 50.92 42.66 50.92 41.28 50.92 39.9 50.92 38.53 50.92 38.53 49.54 37.16 49.54 37.16 48.16 35.77 48.16 34.4 48.16 34.4 49.54 35.77 49.54 35.77 50.92 37.16 50.92 37.16 52.29 38.53 52.29 39.9 52.29 41.28 52.29 42.66 52.29 44.03 52.29 44.03 53.67 44.03 55.05 44.03 56.42 42.66 56.42 42.66 57.8 42.66 59.17 42.66 60.55 42.66 61.93 42.66 63.3 42.66 64.68 42.66 66.06 42.66 67.43 41.28 67.43 41.28 68.8 41.28 70.18 39.9 70.18 39.9 68.8 38.53 68.8 38.53 67.43 37.16 67.43 37.16 66.06 35.77 66.06 35.77 64.68 34.4 64.68 34.4 63.3 33.02 63.3 33.02 61.93 31.65 61.93 31.65 60.55 30.27 60.55 30.27 59.17 30.27 57.8 28.89 57.8 28.89 56.42 28.89 55.05 28.89 53.67 28.89 52.29 28.89 50.92 28.89 49.54 28.89 48.16 28.89 46.79 27.52 46.79 27.52 45.41 27.52 44.04 26.15 44.04 26.15 42.66 27.52 42.66 27.52 41.28"/><polygon class="cls-4" points="57.79 88.07 59.17 88.07 59.17 86.69 60.55 86.69 61.92 86.69 61.92 85.32 63.29 85.32 63.29 83.94 63.29 82.57 64.68 82.57 64.68 81.19 66.05 81.19 66.05 79.81 66.05 78.44 67.43 78.44 67.43 77.07 67.43 75.69 68.8 75.69 68.8 74.31 68.8 72.93 68.8 71.56 68.8 70.18 70.18 70.18 70.18 68.8 70.18 67.43 70.18 66.06 71.56 66.06 71.56 64.68 72.93 64.68 72.93 63.3 74.3 63.3 74.3 64.68 74.3 66.06 75.69 66.06 75.69 67.43 75.69 68.8 77.06 68.8 77.06 70.18 77.06 71.56 78.43 71.56 78.43 72.93 78.43 74.31 79.81 74.31 79.81 75.69 78.43 75.69 77.06 75.69 77.06 77.07 75.69 77.07 75.69 78.44 74.3 78.44 74.3 79.81 74.3 81.19 72.93 81.19 72.93 82.57 71.56 82.57 71.56 83.94 71.56 85.32 70.18 85.32 70.18 86.69 68.8 86.69 68.8 88.07 67.43 88.07 67.43 89.45 66.05 89.45 66.05 90.82 64.68 90.82 63.29 90.82 63.29 92.2 61.92 92.2 61.92 93.58 60.55 93.58 60.55 94.95 59.17 94.95 57.79 94.95 56.42 94.95 56.42 93.58 56.42 92.2 56.42 90.82 56.42 89.45 57.79 89.45 57.79 88.07"/><polygon class="cls-4" points="81.19 72.93 81.19 71.56 81.19 70.18 81.19 68.8 79.81 68.8 79.81 67.43 78.43 67.43 78.43 66.06 78.43 64.68 77.06 64.68 77.06 63.3 78.43 63.3 79.81 63.3 79.81 64.68 81.19 64.68 81.19 66.06 82.56 66.06 82.56 67.43 83.94 67.43 83.94 68.8 83.94 70.18 83.94 71.56 82.56 71.56 82.56 72.93 82.56 74.31 81.19 74.31 79.81 74.31 79.81 72.93 81.19 72.93"/><polygon class="cls-4" points="99.08 17.89 99.08 16.52 100.45 16.52 100.45 15.14 101.83 15.14 101.83 13.76 103.2 13.76 103.2 12.39 104.58 12.39 105.96 12.39 105.96 13.76 104.58 13.76 104.58 15.14 103.2 15.14 103.2 16.52 101.83 16.52 101.83 17.89 100.45 17.89 100.45 19.26 100.45 20.65 99.08 20.65 99.08 22.02 97.7 22.02 97.7 20.65 97.7 19.26 99.08 19.26 99.08 17.89"/><polygon class="cls-4" points="101.83 20.65 103.2 20.65 103.2 19.26 104.58 19.26 104.58 17.89 105.96 17.89 105.96 16.52 105.96 15.14 107.33 15.14 107.33 13.76 108.7 13.76 108.7 12.39 110.09 12.39 110.09 11.01 111.46 11.01 111.46 9.64 111.46 8.26 112.83 8.26 112.83 6.88 114.21 6.88 114.21 5.51 114.21 4.13 115.59 4.13 115.59 2.75 115.59 1.38 116.97 1.38 116.97 0 118.34 0 119.72 0 121.1 0 121.1 1.38 121.1 2.75 121.1 4.13 119.72 4.13 119.72 5.51 118.34 5.51 116.97 5.51 115.59 5.51 115.59 6.88 115.59 8.26 114.21 8.26 114.21 9.64 112.83 9.64 112.83 11.01 112.83 12.39 111.46 12.39 111.46 13.76 110.09 13.76 110.09 15.14 108.7 15.14 108.7 16.52 107.33 16.52 107.33 17.89 107.33 19.26 105.96 19.26 105.96 20.65 104.58 20.65 104.58 22.02 103.2 22.02 103.2 23.39 101.83 23.39 100.45 23.39 100.45 22.02 101.83 22.02 101.83 20.65"/></g></g></svg>