<svg xmlns="http://www.w3.org/2000/svg" viewBox="0 0 253.34 202.92"><defs><style>.b7981d6b-5644-495a-9ac9-3e00ff69f3e1{fill:#7945ff;}.e795fe62-f906-4fd4-9f2a-559b3ae41118{fill:#8f66ff;}.a4b6b4c5-3d44-496b-a11f-50c978094060{fill:#b092ff;}.b84fec5d-d276-4552-9bd7-8cf384a4c051{fill:#fff;}.efb5691e-98f9-457d-8963-e095cf37754c{isolation:isolate;}.a8a0e3cd-3715-43a8-808a-79b2085b6390{fill:#844aff;}</style></defs><g id="af006ea0-624b-45f6-b75a-3a3eb7258aeb" data-name="Capa 2"><g id="baea92f6-5def-4dc1-b3f0-31c9f89bff6f" data-name="Capa 1"><g id="bf41f9e3-c3eb-4120-a2f3-f3ac87b46230" data-name="Capa 2"><g id="ad517bf6-2bc9-4d29-9e16-9c45de41400f" data-name="Layer 1"><path class="b7981d6b-5644-495a-9ac9-3e00ff69f3e1" d="M213.65,202.92l-2-2-1.4-2.4h-4.46l-1.48-1.17,7.42-12.26-.71-.5-.16-.83-.78-.66-1.48-.5-1.09-.91h-1.88l-.93-.75-.39-.66-1.72-1-.78-.5h-2.81v1.57h-1.17l-1.63-.16-.94.33v-.75l-1.25-1V180l-.54-.82v-.42l-2.58-.5v-.82l-.86.57-1.16,1.17-.56,1.16-.7.08-1.17.17s-.54.49-.85.49-2.58.33-2.58.33l-.54-.08-1.65-.33-1-.17v-.24l-.93.24-.47.67-.94-.25-1.87.66-.55-1.08-1.33-.33s-1.25-.25-1.17-.83-.71-1.33,0-1.74a2.74,2.74,0,0,0,1-1l-1.31-2.52-1.26-.83h-2.57l-.71-.58v-2.82l-.85-1.16-.47-1.41L165.3,167h-1.87v-.59l-.78-1h-1.17l-.62-.75v-.33h-1.25l-1.64-.41v-2.24l-.86-.58-.39-1.16v-1.08L155,157.7l-1.56-1.24-1.24-.5V154.8l-1-.83h-.86v.58l-1.4-.58-1.72-1.33-.86-.49-1.72.91-1.48-.91-1.56-.5-.86-.66h-2l-1.8-1.16-1.32-1.08-1-1.24-.93-.5-1.87-.41-1.41.41v1.16l-1.33.75h-1.17l-1.32-.67-2.66.42-2.65-.75-1.56-.33s-2.73-1-2.81-1a14,14,0,0,1-.39-1.58v-1s-1.48-.49-1.56-.74a4.18,4.18,0,0,1,0-1l-.78-.74-1.87.5-2-.5-2.73-1.24-.7-.92-2-1-1.33-1.16-1.79-.66-2.34-2.24-1.49-1.58-.85-.74.93-1.83,1.56-.66h3.13l-.09-1.5-.86-1.24-.55-1.57.55-2,1.09-1.83,1.56-2,2.81-.67h5.31l.94-1.91,1.79-3,1.64-3.06,1.32-.92s1.26-1.24,1.41-1.49,1-1.91,1-1.91.78-1.66.94-1.9.08-.91-.31-.66a10.07,10.07,0,0,1-1.4.58l-1.56-.64.54-.53-.54-.79-1.1-1.11a10.18,10.18,0,0,1-.62-1.49,6.82,6.82,0,0,1,.78-1.33l1.32-3.64V93l-.7-1.58-.23-2.57V86l-.7-1.32h-1.65l.48-.75.93-.58h1.57l.69-1a2,2,0,0,0,.48-1.07,3.32,3.32,0,0,0-.24-1.08l-.62-1.49-.31-1.16-1.49-1.33-.16-1.16h.63l.54-.82.48-1.91-.08-1-.32-.66-.31-.75h-1.87l-.39-1s-1.17-1.49-1.41-1.41,0-1.08,0-1.08l-.23-.66-.7-.83-1.41-1.24-.54-.5.77-1.83a2.2,2.2,0,0,1,.63-.82,1.33,1.33,0,0,1,1,0s-.08-1.41-.08-1.66a1.74,1.74,0,0,1,.31-.66l1.4.82.94.83.7-.66,1-1.82L119,56.07,120,55l.47-1.66-2-2.73V49.41l-1-1.33.62-1.58,1.1.92,1.4,1.41,2.11,1.65a7.35,7.35,0,0,0,1,1.41,6.94,6.94,0,0,1,1,1.41l-1.25,1.08.31.82,2.58-.2-.08-3.32-.47-2.4L124.6,47.5l-.7-.34.47-.66,2.73-.66,2.73-1.58,1.56-1.65,2.42-3.07,1.88-2.16,2.88-.66h2l.23-.75.24-2.23-.94-.59.63-1.24a7.15,7.15,0,0,1,.7-1.16c.39-.5.93-1.08.62-1.57s-.62-.5-.54-.92a15.79,15.79,0,0,1,.54-1.9,5.91,5.91,0,0,0-.08-1.83A8,8,0,0,1,142.3,23a21.09,21.09,0,0,1,1.79-1.49l1.25-1.33H147l.86-1.49L150,17.28l.85-.74,1.95.57,2.62.5h1.68l1.63-.41-.46-1.49.39-1.33,1.09-.5,1.87-.41h2.73l2.57.75,2-.17,2.43-1.28,2.11-1.33,1.49-1.08L177,8.7l3.4-.7,2.81-1.24,1-1.41.39-2.24v-1h1.79s.39.67.62.67,1.49-.09,1.49-.09l-.78-1.08,1-.82.85.49L190,0h1.3l2.26.41,1.56.67,1.64,1.32,1,2-1.67,1.4-1.72,1.33L192.19,8l-2.74,1-3.15,1.44L184,15.83l-2.81.83-2.34,3.65L177.59,23,176,25.82l-1.17,2.65-.16,2.07-.53,3-1.66,1.08L172,36l-1.17,1.58-1.17,2.07,1.17.49,1.64-.74,1.4-.91.33,1.08.84,1.32,1-.33.7.08.62,3.07.79,2.82L179.78,48l1.52,1.24.39,2.65.31,2.24-1.09.58-.31,1.66.15,1.57.16,2.9,1.4.83,1.65-.33.54,1.57,1.17,1.91,1.4.83h2.42l1.88.08,2.81-.08,1.87.25,1.48-.17,2.19.58.94-.33,1.71-.83,3.44.17,1.17,1,1.17.08.93.09,1.56-.25.47-.17,9,10.94.7-.33,1,.33.47.09,1.57-.75.69-.75,2.66.42,2.34.33,1.72-.09,1.41-.24,1.79-.17,1.56-.5s.78-.08,1-.08,1.09.16,1.09.16L239.8,75l1.63-.83,2.35.5,1.09.66.54,1.41.63,1.41-2,1.08-.7,1.82.47,1.57-.54,1.75-2.35,1.4-.23,2.49.47,1.91-.24,1.66-.15,1.74-.86,2.07,1.17,1.41.86,1.49-.32,1.91.63,1,.7,2.32.39,1.74.85.43,1-.34.39,1,.85,2.15.71.67.86,1-1.09.75-1.57.74-2.42,2.74-2.8,2,.46.49,2.11-.33,1.48.83L245.3,119l.71.49.94.75L248,121.4l.93,1.16v1.82l.4.75,1,.58v1.91l1.26,2.32.46,1.74.71,2.4.54,1.33V137l-2.73.41.23-2.9-1.71-4.56-1-.42-1.64-4.63-.78.16-1.64,1.74-3.51,1.49v1.58l-1.26.16-1.86-2.16-1.25-.33-.79.33v1.5l1,.83-.39.33-6.71.16-3.36.09-4.52-.25-2.34-.83-2.27.66-1.63.34-.09,3.23-.15,4.31h.78l.54-.09h1l1.17.26,2.43-.09,1.56.58.78,2,.23,1.91-.78,1.49-1.79-.66-1.72-1.16-1.88,1.35-2.17.66-2.43.25-.47.66.16,7.71.31.58,1.25,1.58,1,.49,1.72,1.16,1.33.5.23,1.33-.46,1.4.78,1.17.93,1.49.94,1.24v2.24l.15,1.58-1,3.81-2.27,12.68-1.79,9.37Z"/><path class="e795fe62-f906-4fd4-9f2a-559b3ae41118" d="M123.51,54.38l1.25-1.08a6.94,6.94,0,0,0-1-1.41,7.35,7.35,0,0,1-1-1.41l-2.11-1.66-1.41-1.4-1.09-.92-.62,1.58,1,1.33v1.24l2,2.73L120.07,55l-.94,1.08-1.24,1.33-1,1.82-.7.66-.94-.83-1.4-.82a1.74,1.74,0,0,0-.31.66c0,.25.08,1.66.08,1.66a1.33,1.33,0,0,0-1,0,2.2,2.2,0,0,0-.63.82l-.77,1.83.54.5L113.13,65l.7.83.23.66s-.23,1.16,0,1.08S115.47,69,115.47,69l.39,1h1.87l.31.75.32.66.08,1L118,74.32l-.54.82h-.63L117,76.3l1.49,1.33.31,1.16.62,1.49a3.32,3.32,0,0,1,.24,1.08,2,2,0,0,1-.48,1.07l-.69,1h-1.57l-.93.58-.48.75h1.65l.7,1.33V88.9l.23,2.57.7,1.58V95l-1.32,3.64a6.82,6.82,0,0,0-.78,1.33,10.18,10.18,0,0,0,.62,1.49l1.1,1.11.54.79-.54.53,1.56.64a8.6,8.6,0,0,0,1.4-.58c.39-.25.47.41.31.66.45-.88,1.19.16,3.77,1.42s.58.63,3.68,0,.71-.63,1.57-1.61.55-1.26,1.3-2.88.34-1.31,1.2-3.66.69-.86,2.36-3a8.72,8.72,0,0,0,1.89-3c.92-1.84-.8-3.16-.69-4.31s.52-2.35.86-3.5c.52-2.24,0-2.81,0-2.81a11.43,11.43,0,0,0-2.27-2.54c-1.49-1.26-2.47-.23-3.15-.29s-1.59-.07-2.39-.17c-1.25-.17-.89.46-2,0s-.4-1.43-.93-3.15.07-.52-.9-1.27-.35-.11-1.15-.4-.46-.29-.12-1.43.58-.18,2.17-1.38c0,0-.16-.4.65-1.44s.8.12,1.43,0,.83-.57,1.21-2.69-.38-.46-.69-1.38-1-1.15-1.38-1.78A7.22,7.22,0,0,0,126,61.52c-.51-.29-2.41-1.55-2.52-2.13s.34-.8.69-1.2.69-1.61,1.2-2.24a1.33,1.33,0,0,0,.23-.93l-1.81.18Z"/><path class="a4b6b4c5-3d44-496b-a11f-50c978094060" d="M118.74,70.44l-.48.21.33.68.08,1s.53-.33.41,0-.37.39-.44,1-.48,1.5-.12,1.67.2.66.83.86-.46.68.22,1.36.2-.16,1.07.21l.25.08a2.17,2.17,0,0,0,.51,0c.46,0,.35.27.27.73-.12.68-.43.74-.43,1.23s-.19.56,0,1,.24,1,.74.93A1.77,1.77,0,0,0,123.3,81c.68-.56,1.3-.31,1.2-1.3s-.21-1,0-1.61a.68.68,0,0,0-.26-.72c-.08,0,.11-.21.08-.27s-.14-.35,0-.36c.33,0,.37-.39.73,0,.51.63.19.38.63.5s1,.21,1-.39.3,0,.48-.15a6.27,6.27,0,0,0-.24-1.61c-.54-1.76.07-.53-.92-1.29s-.35-.12-1.17-.41-.47-.29-.12-1.46c.3-1,.51-.43,1.55-1a5.58,5.58,0,0,0-.71-.43c-1.08-.54-1.73,0-2.59,0s-.68-.72-1.22-1.09c-.16-.11-.34-.16-.38-.06a1.49,1.49,0,0,1-.89.91c-.62.2-.54-.25-1.08-.17H119a.38.38,0,0,0,0,.15h0v-.13h0a.06.06,0,0,1,0,.06h-.12a.16.16,0,0,1,0,.23A.18.18,0,0,1,118.74,70.44Z"/><path class="b84fec5d-d276-4552-9bd7-8cf384a4c051" d="M119.74,74.69v-.76h.39v-.39h-.39v-.38h-.38v-.39h1.15V72h.39v.77h1.15v.39h-.38v.38h-.37v.39h.39v.76h-.39v-.38h-.38v-.38h-.39v.38h-.38v.38Zm1.16-1.53h-.39v.38h.39Z"/><rect class="a4b6b4c5-3d44-496b-a11f-50c978094060" x="66.09" y="71.61" width="50.37" height="0.5"/><g class="efb5691e-98f9-457d-8963-e095cf37754c"><g class="efb5691e-98f9-457d-8963-e095cf37754c"><path class="a4b6b4c5-3d44-496b-a11f-50c978094060" d="M0,74.41V67.65H2.56a6.65,6.65,0,0,1,.85.06,2.67,2.67,0,0,1,.85.23,1.52,1.52,0,0,1,.65.53,1.64,1.64,0,0,1,.25,1,1.72,1.72,0,0,1-.15.72,1.14,1.14,0,0,1-.55.53A3,3,0,0,1,3.34,71a2.92,2.92,0,0,1,1.31.24,1.41,1.41,0,0,1,.64.61,1.79,1.79,0,0,1,.18.81,1.65,1.65,0,0,1-.27,1,1.71,1.71,0,0,1-.71.53,3.17,3.17,0,0,1-.92.22c-.32,0-.63,0-.92,0Zm1-3.88H2.44a6,6,0,0,0,.88,0,1.18,1.18,0,0,0,.62-.27.89.89,0,0,0,.22-.67,1,1,0,0,0-.24-.72,1.22,1.22,0,0,0-.63-.28,5.73,5.73,0,0,0-.84-.06H1Zm0,3.06H2.57a6.61,6.61,0,0,0,.93-.06,1.38,1.38,0,0,0,.68-.3,1,1,0,0,0,.26-.74,1,1,0,0,0-.27-.77,1.34,1.34,0,0,0-.72-.33,6,6,0,0,0-1-.08H1Z"/><path class="a4b6b4c5-3d44-496b-a11f-50c978094060" d="M9.46,74.55A3.18,3.18,0,0,1,7,73.61a3.71,3.71,0,0,1-.85-2.56A4.24,4.24,0,0,1,6.5,69.2,2.69,2.69,0,0,1,7.6,68a3.61,3.61,0,0,1,1.86-.44,3.09,3.09,0,0,1,2.46,1,3.68,3.68,0,0,1,.85,2.56,4.26,4.26,0,0,1-.38,1.84,2.73,2.73,0,0,1-1.12,1.23A3.49,3.49,0,0,1,9.46,74.55Zm0-1a2.17,2.17,0,0,0,1.76-.7,2.82,2.82,0,0,0,.58-1.84,2.84,2.84,0,0,0-.58-1.85,2.1,2.1,0,0,0-1.76-.73,2.14,2.14,0,0,0-1.74.7,2.77,2.77,0,0,0-.6,1.88,3.29,3.29,0,0,0,.26,1.33,1.93,1.93,0,0,0,.77.9A2.52,2.52,0,0,0,9.44,73.59Z"/><path class="a4b6b4c5-3d44-496b-a11f-50c978094060" d="M15.77,74.53a2.53,2.53,0,0,1-1-.21,1.78,1.78,0,0,1-.78-.66,2.16,2.16,0,0,1-.29-1.17h.93a1.78,1.78,0,0,0,.1.55.94.94,0,0,0,.34.45,1.19,1.19,0,0,0,.7.18,1,1,0,0,0,.84-.32,1.7,1.7,0,0,0,.28-1.12v-3.8H15.5v-.78h2.36v4.43a4.28,4.28,0,0,1-.19,1.32,1.59,1.59,0,0,1-.64.84A2.35,2.35,0,0,1,15.77,74.53Z"/></g><g class="efb5691e-98f9-457d-8963-e095cf37754c"><path class="a4b6b4c5-3d44-496b-a11f-50c978094060" d="M18.83,74.41l2.27-6.76h1.64l2.32,6.76H24l-.65-2h-2.8l-.65,2Zm3.11-6.34L20.8,71.6h2.28Z"/></g><g class="efb5691e-98f9-457d-8963-e095cf37754c"><path class="a4b6b4c5-3d44-496b-a11f-50c978094060" d="M27.14,74.41V72l-2.3-4.34H26l1.7,3.44,1.69-3.44h1.12L28.14,72v2.44Z"/></g><g class="efb5691e-98f9-457d-8963-e095cf37754c"><path class="a4b6b4c5-3d44-496b-a11f-50c978094060" d="M30.12,74.41l2.27-6.76H34l2.32,6.76H35.28l-.65-2h-2.8l-.65,2Zm3.11-6.34L32.09,71.6h2.28Zm.2-1H33V67l.57-1.22h.87v.2Z"/></g></g><rect class="a8a0e3cd-3715-43a8-808a-79b2085b6390" x="103.56" y="96.29" width="11.44" height="0.5"/><g class="efb5691e-98f9-457d-8963-e095cf37754c"><g class="efb5691e-98f9-457d-8963-e095cf37754c"><path class="e795fe62-f906-4fd4-9f2a-559b3ae41118" d="M66.93,99a3.63,3.63,0,0,1-1.69-.39A2.85,2.85,0,0,1,64,97.49a3.8,3.8,0,0,1-.44-1.93A4.08,4.08,0,0,1,64,93.63a2.84,2.84,0,0,1,1.2-1.18A3.64,3.64,0,0,1,67,92a3.12,3.12,0,0,1,2.11.7,3,3,0,0,1,1,1.82h-1a1.75,1.75,0,0,0-.42-.92,1.8,1.8,0,0,0-.75-.5A2.57,2.57,0,0,0,67,93a2.32,2.32,0,0,0-1.76.65,2.6,2.6,0,0,0-.63,1.87,2.77,2.77,0,0,0,.62,1.94A2.23,2.23,0,0,0,67,98.1a2.6,2.6,0,0,0,1.39-.37,1.69,1.69,0,0,0,.75-1.23h1a3.09,3.09,0,0,1-1,1.83A3.23,3.23,0,0,1,66.93,99Z"/><path class="e795fe62-f906-4fd4-9f2a-559b3ae41118" d="M72.27,98.92h-1V92.16h1v2.91H75.8V92.16h1v6.76h-1V95.85H72.27Z"/></g><g class="efb5691e-98f9-457d-8963-e095cf37754c"><path class="e795fe62-f906-4fd4-9f2a-559b3ae41118" d="M81.11,99.06a3.14,3.14,0,0,1-2.47-.94,3.67,3.67,0,0,1-.86-2.56,4.39,4.39,0,0,1,.37-1.85,2.69,2.69,0,0,1,1.1-1.23A3.63,3.63,0,0,1,81.11,92a3.09,3.09,0,0,1,2.46,1,3.68,3.68,0,0,1,.85,2.56A4.26,4.26,0,0,1,84,97.4a2.76,2.76,0,0,1-1.11,1.23A3.55,3.55,0,0,1,81.11,99.06Zm0-1a2.15,2.15,0,0,0,1.75-.7,3.18,3.18,0,0,0,0-3.69A2.08,2.08,0,0,0,81.1,93a2.16,2.16,0,0,0-1.75.7,2.77,2.77,0,0,0-.59,1.88A3.29,3.29,0,0,0,79,96.89a2,2,0,0,0,.77.9A2.53,2.53,0,0,0,81.1,98.1Z"/></g><g class="efb5691e-98f9-457d-8963-e095cf37754c"><path class="e795fe62-f906-4fd4-9f2a-559b3ae41118" d="M88.67,99A3.63,3.63,0,0,1,87,98.65a2.85,2.85,0,0,1-1.2-1.16,3.8,3.8,0,0,1-.44-1.93,4.08,4.08,0,0,1,.44-1.93A2.84,2.84,0,0,1,87,92.45,3.64,3.64,0,0,1,88.72,92a3.12,3.12,0,0,1,2.11.7,3,3,0,0,1,1,1.82h-1a1.75,1.75,0,0,0-.42-.92,1.8,1.8,0,0,0-.75-.5,2.57,2.57,0,0,0-.91-.16,2.32,2.32,0,0,0-1.76.65,2.6,2.6,0,0,0-.63,1.87A2.77,2.77,0,0,0,87,97.44a2.23,2.23,0,0,0,1.74.66,2.6,2.6,0,0,0,1.39-.37,1.69,1.69,0,0,0,.75-1.23h1a3.09,3.09,0,0,1-1,1.83A3.23,3.23,0,0,1,88.67,99Z"/><path class="e795fe62-f906-4fd4-9f2a-559b3ae41118" d="M95.83,99.06a3.18,3.18,0,0,1-2.48-.94,3.71,3.71,0,0,1-.85-2.56,4.24,4.24,0,0,1,.37-1.85A2.69,2.69,0,0,1,94,92.48,3.61,3.61,0,0,1,95.83,92a3.09,3.09,0,0,1,2.46,1,3.68,3.68,0,0,1,.85,2.56,4.26,4.26,0,0,1-.38,1.84,2.73,2.73,0,0,1-1.12,1.23A3.49,3.49,0,0,1,95.83,99.06Zm0-1a2.17,2.17,0,0,0,1.76-.7,2.82,2.82,0,0,0,.58-1.84,2.84,2.84,0,0,0-.58-1.85A2.1,2.1,0,0,0,95.81,93a2.14,2.14,0,0,0-1.74.7,2.77,2.77,0,0,0-.6,1.88,3.29,3.29,0,0,0,.26,1.33,1.93,1.93,0,0,0,.77.9A2.52,2.52,0,0,0,95.81,98.1Zm.29-6.5h-.47v-.14l.58-1.22h.86v.2Z"/></g></g><g class="efb5691e-98f9-457d-8963-e095cf37754c"><g class="efb5691e-98f9-457d-8963-e095cf37754c"><path class="b84fec5d-d276-4552-9bd7-8cf384a4c051" d="M149.9,106.83a4.51,4.51,0,0,1-2.12-.49,3.47,3.47,0,0,1-1.49-1.45,4.72,4.72,0,0,1-.55-2.39,5,5,0,0,1,.56-2.4,3.52,3.52,0,0,1,1.48-1.48,4.64,4.64,0,0,1,2.18-.5,3.88,3.88,0,0,1,2.63.87,3.73,3.73,0,0,1,1.24,2.27h-1.29a2.15,2.15,0,0,0-.52-1.15,2.23,2.23,0,0,0-.94-.63,3.31,3.31,0,0,0-1.12-.2,2.91,2.91,0,0,0-2.2.82,3.22,3.22,0,0,0-.78,2.32,3.46,3.46,0,0,0,.76,2.41,2.79,2.79,0,0,0,2.17.83,3.14,3.14,0,0,0,1.73-.47,2.09,2.09,0,0,0,1-1.53h1.3a3.87,3.87,0,0,1-1.26,2.29A4,4,0,0,1,149.9,106.83Z"/><path class="b84fec5d-d276-4552-9bd7-8cf384a4c051" d="M158.8,106.86a4,4,0,0,1-3.08-1.17,4.63,4.63,0,0,1-1.06-3.19,5.32,5.32,0,0,1,.46-2.31,3.44,3.44,0,0,1,1.37-1.53,4.49,4.49,0,0,1,2.31-.54,3.88,3.88,0,0,1,3.07,1.19,4.63,4.63,0,0,1,1,3.19,5.21,5.21,0,0,1-.47,2.29,3.38,3.38,0,0,1-1.39,1.53A4.37,4.37,0,0,1,158.8,106.86Zm0-1.2a2.67,2.67,0,0,0,2.18-.88,4,4,0,0,0,0-4.59,2.63,2.63,0,0,0-2.18-.91,2.7,2.7,0,0,0-2.18.87,3.52,3.52,0,0,0-.74,2.35,4.15,4.15,0,0,0,.32,1.65,2.45,2.45,0,0,0,1,1.12A3.14,3.14,0,0,0,158.79,105.66Z"/></g><g class="efb5691e-98f9-457d-8963-e095cf37754c"><path class="b84fec5d-d276-4552-9bd7-8cf384a4c051" d="M164.43,106.68V98.27h1.24v7.33h4.4v1.08Z"/></g><g class="efb5691e-98f9-457d-8963-e095cf37754c"><path class="b84fec5d-d276-4552-9bd7-8cf384a4c051" d="M174.82,106.86a4,4,0,0,1-3.08-1.17,4.63,4.63,0,0,1-1.06-3.19,5.32,5.32,0,0,1,.46-2.31,3.44,3.44,0,0,1,1.37-1.53,4.54,4.54,0,0,1,2.31-.54,3.88,3.88,0,0,1,3.07,1.19,4.63,4.63,0,0,1,1.05,3.19,5.21,5.21,0,0,1-.47,2.29,3.38,3.38,0,0,1-1.39,1.53A4.37,4.37,0,0,1,174.82,106.86Zm0-1.2a2.67,2.67,0,0,0,2.18-.88,3.45,3.45,0,0,0,.73-2.28,3.53,3.53,0,0,0-.73-2.31,2.63,2.63,0,0,0-2.18-.91,2.71,2.71,0,0,0-2.18.87,3.52,3.52,0,0,0-.74,2.35,4.15,4.15,0,0,0,.32,1.65,2.45,2.45,0,0,0,1,1.12A3.14,3.14,0,0,0,174.81,105.66Z"/><path class="b84fec5d-d276-4552-9bd7-8cf384a4c051" d="M180.33,106.68V98.27h2.16l2.36,7.86h0l2.31-7.86h2.15v8.41h-1.27l.08-7.83h0l-2.36,7.83h-1.84l-2.35-7.83h0l.06,7.83Z"/><path class="b84fec5d-d276-4552-9bd7-8cf384a4c051" d="M191.08,106.68V98.27h3.18a8.07,8.07,0,0,1,1.06.07,3.68,3.68,0,0,1,1.06.28,1.93,1.93,0,0,1,.81.66,2.09,2.09,0,0,1,.31,1.21,2,2,0,0,1-.19.89,1.38,1.38,0,0,1-.68.67,3.75,3.75,0,0,1-1.4.32,3.56,3.56,0,0,1,1.63.3,1.7,1.7,0,0,1,.8.76,2.24,2.24,0,0,1,.23,1,2,2,0,0,1-.35,1.24,1.94,1.94,0,0,1-.88.66,3.89,3.89,0,0,1-1.14.28q-.6.06-1.14.06Zm1.22-4.83h1.81a9.11,9.11,0,0,0,1.1-.06,1.41,1.41,0,0,0,.77-.34,1.11,1.11,0,0,0,.28-.84,1.14,1.14,0,0,0-.3-.88,1.42,1.42,0,0,0-.79-.36,7,7,0,0,0-1-.07H192.3Zm0,3.81h2a7,7,0,0,0,1.17-.08,1.55,1.55,0,0,0,.84-.37,1.17,1.17,0,0,0,.32-.92,1.27,1.27,0,0,0-.33-1,1.79,1.79,0,0,0-.9-.41,7.68,7.68,0,0,0-1.22-.09H192.3Z"/><path class="b84fec5d-d276-4552-9bd7-8cf384a4c051" d="M202.8,105.6v1.08h-3.51V105.6h1.15V99.34h-1.15V98.27h3.51v1.07h-1.13v6.26Z"/><path class="b84fec5d-d276-4552-9bd7-8cf384a4c051" d="M204.07,106.68l2.83-8.41h2l2.89,8.41H210.5l-.81-2.51h-3.5l-.8,2.51Zm3.87-7.89-1.42,4.39h2.84Z"/></g></g><path class="a4b6b4c5-3d44-496b-a11f-50c978094060" d="M43,59.08l-1.08.48.72,1.52.18,2.27s1.2-.74.92,0-.83.88-1,2.12-1.08,3.37-.28,3.74.45,1.48,1.87,1.94c1.24.4-1,1.52.49,3s.46-.37,2.39.46c.19.07.38.14.57.19a3.65,3.65,0,0,0,1.14.06c1-.08.79.61.61,1.64-.28,1.53-1,1.66-1,2.77s-.42,1.25,0,2.36.55,2.21,1.66,2.07a4,4,0,0,0,3-1.1c1.52-1.25,2.91-.7,2.7-2.91s-.48-2.22,0-3.6a1.6,1.6,0,0,0-.59-1.63c-.18-.11.25-.46.19-.6-.21-.47-.32-.79,0-.8.74,0,.83-.89,1.65.11,1.14,1.4.43.84,1.4,1.12s2.31.48,2.22-.88.69,0,1.08-.33a13.13,13.13,0,0,0-.54-3.63c-1.22-3.92.16-1.18-2.07-2.88s-.78-.26-2.62-.91-1-.66-.26-3.28c.67-2.21,1.15-1,3.47-2.19a12.91,12.91,0,0,0-1.59-1c-2.42-1.22-3.87,0-5.81,0s-1.51-1.62-2.72-2.44c-.38-.26-.77-.38-.86-.13a3.35,3.35,0,0,1-2,2c-1.41.44-1.22-.56-2.44-.39l-.38.06a.53.53,0,0,1-.25,0s-.17-.08-.21,0a1,1,0,0,0,0,.34c0,.07.07,0,0,.07s0,.1-.06,0-.07,0-.07-.07v-.12c0-.06,0-.18-.1-.15a.14.14,0,0,0-.11.09l.11.07a.2.2,0,0,1,0,.15v.1s0,.14-.11.08a.41.41,0,0,0-.14-.12h-.12s-.06.07-.06.11A.43.43,0,0,1,43,59.08Z"/></g></g></g></g></svg>