<svg xmlns="http://www.w3.org/2000/svg" viewBox="0 0 289.44 232.79"><defs><style>.a5c0e305-5b70-4925-a4f7-bd61d613a7f0,.a7b871e8-ba7f-452f-bc5f-c4cf74c4e2ff{fill:none;}.e63d15c3-2c34-409c-a7a3-356fe8d3279b{fill:#1b0f3b;}.aac47e43-704f-4291-b430-3dc15b0bed9b{fill:#cfbdff;}.fda6bdec-71dc-4876-acac-4978b73decd4{fill:#41238a;}.ba1dbd2a-c399-4f06-a3d6-1a7ba1b65998{fill:#ae90ff;}.a3b175be-29f8-486a-971d-696fa3c2950b,.b39b7359-b394-4152-98cf-b8913fae6558,.ba4e8154-3f76-48e3-8e69-714e874d66f6{fill:#7945ff;}.b39b7359-b394-4152-98cf-b8913fae6558{font-size:18.19px;font-family:Terminal-Grotesque, Terminal Grotesque;}.edb6c625-1f00-4d96-a71f-a127333b3044{letter-spacing:-0.03em;}.ba6a122b-f7fa-4904-8455-9494308fec25{letter-spacing:-0.08em;}.a7b871e8-ba7f-452f-bc5f-c4cf74c4e2ff{stroke:#824aff;stroke-miterlimit:10;}.a3b175be-29f8-486a-971d-696fa3c2950b{font-size:15px;font-family:DarkerGrotesque-ExtraBold, Darker Grotesque;font-weight:800;}.ec4040aa-db29-4ffb-978e-4eb333e31e75{letter-spacing:0em;}.b0464515-9e81-40c6-a3ff-21d67667cd52{letter-spacing:0em;}</style></defs><g id="a39b5695-11d7-4f07-88ac-37d06573fa86" data-name="Capa 2"><g id="b4528970-3cad-4ba4-b447-84426f163a0b" data-name="Layer 1"><polygon class="a5c0e305-5b70-4925-a4f7-bd61d613a7f0" points="141.08 113.55 143.32 113.55 145.57 113.55 145.57 111.3 143.32 111.3 141.08 111.3 138.82 111.3 138.82 113.55 141.08 113.55"/><path class="e63d15c3-2c34-409c-a7a3-356fe8d3279b" d="M271.57,120.29v-2.24h-9v2.24h-4.5v2.26h-4.49v2.25h-4.5V127h-4.51v2.26h-4.5v2.25h-2.25v2.24h-4.5v2.26h-4.49v2.25h-2.26v2.24h-4.49v2.26h-4.5v2.25h-4.51v2.25h-2.24v2.25h-4.51v2.24h-2.24v2.26h-4.5v2.25h-4.51v2.24h-2.24v2.26h-4.51v2.25h-4.5v2.24h-4.49v2.26h-2.26v2.25h-4.49v2.25h-4.5v2.25h-2.26v4.5h-2.25v6.75h2.25v2.25h4.5v-2.25h6.75v-2.26h2.26v-2.24h4.49V178.8h4.5v-2.26h4.51V174.3h4.5v-2.25h4.49V169.8h2.26v-2.25h4.49v-2.26h4.5v-2.24h2.25V160.8h2.26v-2.26h4.5V156.3h4.49v-2.25h4.5v-2.26h4.51v-2.24h4.49V147.3h4.5v-2.25h2.25V142.8h6.76v-2.26h2.24V138.3h4.51v-2.25h4.49v-2.26h4.5v-2.24h4.51V120.29Zm0,4.51v4.5h-4.49V127h-2.26v-6.75h4.5v2.26h2.25Z"/><polygon class="e63d15c3-2c34-409c-a7a3-356fe8d3279b" points="174.82 190.04 172.58 190.04 172.58 192.3 172.58 194.55 172.58 196.8 174.82 196.8 177.07 196.8 179.33 196.8 179.33 194.55 179.33 192.3 179.33 190.04 177.07 190.04 174.82 190.04"/><polygon class="e63d15c3-2c34-409c-a7a3-356fe8d3279b" points="163.57 208.04 161.33 208.04 159.07 208.04 159.07 210.3 159.07 212.55 159.07 214.79 161.33 214.79 163.57 214.79 163.57 212.55 165.82 212.55 165.82 210.3 165.82 208.04 165.82 205.8 163.57 205.8 163.57 208.04"/><polygon class="e63d15c3-2c34-409c-a7a3-356fe8d3279b" points="161.33 73.05 161.33 75.3 163.57 75.3 163.57 73.05 165.82 73.05 165.82 70.79 168.08 70.79 170.32 70.79 172.58 70.79 172.58 73.05 172.58 75.3 172.58 77.54 172.58 79.8 172.58 82.05 172.58 84.29 172.58 86.55 172.58 88.8 172.58 91.05 174.82 91.05 174.82 88.8 177.07 88.8 177.07 86.55 179.33 86.55 179.33 84.29 179.33 82.05 181.57 82.05 181.57 79.8 181.57 77.54 181.57 75.3 181.57 73.05 179.33 73.05 179.33 70.79 177.07 70.79 177.07 68.55 174.82 68.55 172.58 68.55 170.32 68.55 168.08 68.55 165.82 68.55 163.57 68.55 161.33 68.55 159.07 68.55 159.07 70.79 161.33 70.79 161.33 73.05"/><polygon class="e63d15c3-2c34-409c-a7a3-356fe8d3279b" points="156.82 201.29 154.58 201.29 152.32 201.29 152.32 203.55 152.32 205.8 152.32 208.04 154.58 208.04 156.82 208.04 156.82 205.8 159.07 205.8 159.07 203.55 159.07 201.29 159.07 199.05 156.82 199.05 156.82 201.29"/><polygon class="e63d15c3-2c34-409c-a7a3-356fe8d3279b" points="156.82 214.79 154.58 214.79 154.58 212.55 152.32 212.55 152.32 210.3 150.07 210.3 150.07 208.04 147.83 208.04 147.83 205.8 147.83 203.55 145.57 203.55 145.57 201.29 143.32 201.29 143.32 199.05 143.32 196.8 143.32 194.55 143.32 192.3 143.32 190.04 141.08 190.04 141.08 187.8 141.08 185.55 141.08 183.29 138.82 183.29 138.82 185.55 136.58 185.55 136.58 187.8 134.32 187.8 134.32 190.04 134.32 192.3 136.58 192.3 136.58 194.55 136.58 196.8 138.82 196.8 138.82 199.05 138.82 201.29 138.82 203.55 141.08 203.55 141.08 205.8 141.08 208.04 143.32 208.04 143.32 210.3 143.32 212.55 145.57 212.55 145.57 214.79 147.83 214.79 147.83 217.05 150.07 217.05 150.07 219.3 152.32 219.3 154.58 219.3 154.58 221.54 154.58 223.8 156.82 223.8 156.82 221.54 159.07 221.54 159.07 219.3 159.07 217.05 156.82 217.05 156.82 214.79"/><polygon class="e63d15c3-2c34-409c-a7a3-356fe8d3279b" points="154.58 192.3 152.32 192.3 150.07 192.3 150.07 194.55 147.83 194.55 147.83 196.8 147.83 199.05 150.07 199.05 152.32 199.05 154.58 199.05 154.58 196.8 156.82 196.8 156.82 194.55 156.82 192.3 156.82 190.04 154.58 190.04 154.58 192.3"/><polygon class="e63d15c3-2c34-409c-a7a3-356fe8d3279b" points="147.83 183.29 147.83 185.55 145.57 185.55 145.57 187.8 145.57 190.04 145.57 192.3 147.83 192.3 147.83 190.04 150.07 190.04 152.32 190.04 152.32 187.8 154.58 187.8 154.58 185.55 154.58 183.29 154.58 181.05 152.32 181.05 152.32 183.29 150.07 183.29 147.83 183.29"/><polygon class="e63d15c3-2c34-409c-a7a3-356fe8d3279b" points="136.58 104.55 138.82 104.55 138.82 102.29 141.08 102.29 143.32 102.29 145.57 102.29 147.83 102.29 150.07 102.29 150.07 100.05 147.83 100.05 147.83 97.8 145.57 97.8 143.32 97.8 141.08 97.8 138.82 97.8 136.58 97.8 136.58 100.05 134.32 100.05 132.07 100.05 132.07 102.29 132.07 104.55 134.32 104.55 136.58 104.55"/><polygon class="aac47e43-704f-4291-b430-3dc15b0bed9b" points="197.33 203.55 197.33 201.29 195.07 201.29 192.83 201.29 190.57 201.29 188.32 201.29 186.08 201.29 183.82 201.29 181.57 201.29 181.57 203.55 179.33 203.55 179.33 205.8 177.07 205.8 177.07 208.04 174.82 208.04 174.82 210.3 172.58 210.3 170.32 210.3 170.32 212.55 168.08 212.55 168.08 214.79 165.82 214.79 165.82 217.05 163.57 217.05 161.33 217.05 161.33 219.3 163.57 219.3 165.82 219.3 168.08 219.3 170.32 219.3 172.58 219.3 174.82 219.3 174.82 217.05 177.07 217.05 177.07 214.79 179.33 214.79 181.57 214.79 181.57 212.55 183.82 212.55 186.08 212.55 188.32 212.55 190.57 212.55 192.83 212.55 192.83 210.3 195.07 210.3 197.33 210.3 197.33 208.04 199.57 208.04 199.57 205.8 199.57 203.55 197.33 203.55"/><polygon class="aac47e43-704f-4291-b430-3dc15b0bed9b" points="161.33 138.3 161.33 140.54 163.57 140.54 165.82 140.54 165.82 138.3 165.82 136.05 168.08 136.05 168.08 133.79 170.32 133.79 170.32 131.55 170.32 129.3 172.58 129.3 172.58 127.04 172.58 124.8 174.82 124.8 174.82 122.55 177.07 122.55 177.07 120.3 177.07 118.05 179.33 118.05 179.33 115.8 179.33 113.55 181.57 113.55 181.57 111.3 181.57 109.04 183.82 109.04 183.82 106.8 183.82 104.55 183.82 102.29 181.57 102.29 181.57 100.05 179.33 100.05 179.33 97.8 177.07 97.8 177.07 95.54 177.07 93.3 174.82 93.3 174.82 91.05 172.58 91.05 172.58 88.8 172.58 86.55 172.58 84.29 172.58 82.05 172.58 79.8 172.58 77.54 172.58 75.3 172.58 73.05 172.58 70.79 170.32 70.79 168.08 70.79 165.82 70.79 165.82 73.05 163.57 73.05 163.57 75.3 161.33 75.3 161.33 73.05 161.33 70.79 159.07 70.79 159.07 68.55 159.07 66.3 156.82 66.3 154.58 66.3 152.32 66.3 150.07 66.3 147.83 66.3 147.83 68.55 145.57 68.55 143.32 68.55 141.08 68.55 138.82 68.55 138.82 70.79 136.58 70.79 134.32 70.79 132.07 70.79 132.07 73.05 129.83 73.05 127.57 73.05 127.57 75.3 127.57 77.54 129.83 77.54 129.83 79.8 129.83 82.05 129.83 84.29 129.83 86.55 129.83 88.8 129.83 91.05 129.83 93.3 132.07 93.3 132.07 95.54 132.07 97.8 132.07 100.05 134.32 100.05 136.58 100.05 136.58 97.8 138.82 97.8 141.08 97.8 143.32 97.8 145.57 97.8 147.83 97.8 147.83 100.05 150.07 100.05 150.07 102.29 147.83 102.29 145.57 102.29 143.32 102.29 141.08 102.29 138.82 102.29 138.82 104.55 136.58 104.55 136.58 106.8 138.82 106.8 138.82 109.04 138.82 111.3 141.08 111.3 143.32 111.3 145.57 111.3 145.57 109.04 147.83 109.04 147.83 111.3 150.07 111.3 150.07 113.55 150.07 115.8 150.07 118.05 150.07 120.3 150.07 122.55 152.32 122.55 152.32 124.8 152.32 127.04 154.58 127.04 154.58 129.3 154.58 131.55 156.82 131.55 156.82 133.79 156.82 136.05 159.07 136.05 159.07 138.3 161.33 138.3"/><path class="fda6bdec-71dc-4876-acac-4978b73decd4" d="M179.33,194.55v2.25h-6.75V190h4.49v-4.49h-6.75v2.25h-4.5v-2.25h-2.25V178.8h2.25v-6.75h-6.75v2.25h-4.49v2.24h-2.26v2.26h-4.49v2.25h-4.5v2.24h-2.25V190h2.25v11.25h2.24v2.26h2.26V208h2.24v2.26h2.25v2.25h2.26v2.24h2.24v2.26h2.25v2.25h2.26v-2.25h4.49v-2.26h2.26v-2.24h2.24V210.3h4.51V208h2.24V205.8h2.26v-2.25h2.24v-9Zm-24.75,4.5h-6.75v-4.5h2.24V192.3h4.51V190h2.24v6.76h-2.24Zm-9-9v-4.49h2.26v-2.26h4.49v-2.24h2.26v6.75h-2.26V190h-4.49v2.26h-2.26Zm6.75,15.76v-4.51h4.5v-2.24h2.25v6.75h-2.25V208h-4.5Zm11.25,6.75v2.24h-4.5V208h4.5V205.8h2.25v6.75Z"/><polygon class="fda6bdec-71dc-4876-acac-4978b73decd4" points="150.07 219.3 150.07 217.05 147.83 217.05 147.83 214.79 145.57 214.79 145.57 212.55 143.32 212.55 143.32 210.3 143.32 208.04 141.08 208.04 141.08 205.8 141.08 203.55 138.82 203.55 138.82 201.29 138.82 199.05 138.82 196.8 136.58 196.8 136.58 194.55 136.58 192.3 134.32 192.3 134.32 190.04 132.07 190.04 132.07 192.3 129.83 192.3 129.83 194.55 127.57 194.55 127.57 196.8 125.32 196.8 123.08 196.8 123.08 199.05 120.82 199.05 120.82 201.29 118.58 201.29 118.58 203.55 116.33 203.55 114.07 203.55 114.07 205.8 111.83 205.8 111.83 208.04 111.83 210.3 111.83 212.55 114.07 212.55 114.07 214.79 116.33 214.79 116.33 217.05 118.58 217.05 118.58 219.3 120.82 219.3 120.82 221.54 123.08 221.54 123.08 223.8 125.32 223.8 125.32 226.04 127.57 226.04 129.83 226.04 129.83 228.3 132.07 228.3 132.07 230.55 134.32 230.55 134.32 232.79 136.58 232.79 138.82 232.79 141.08 232.79 143.32 232.79 143.32 230.55 145.57 230.55 145.57 228.3 147.83 228.3 150.07 228.3 150.07 226.04 152.32 226.04 152.32 223.8 154.58 223.8 154.58 221.54 154.58 219.3 152.32 219.3 150.07 219.3"/><polygon class="fda6bdec-71dc-4876-acac-4978b73decd4" points="125.32 73.05 127.57 73.05 129.83 73.05 132.07 73.05 132.07 70.79 134.32 70.79 136.58 70.79 138.82 70.79 138.82 68.55 141.08 68.55 143.32 68.55 145.57 68.55 147.83 68.55 147.83 66.3 150.07 66.3 152.32 66.3 154.58 66.3 156.82 66.3 159.07 66.3 159.07 68.55 161.33 68.55 163.57 68.55 165.82 68.55 168.08 68.55 170.32 68.55 172.58 68.55 174.82 68.55 177.07 68.55 177.07 66.3 179.33 66.3 179.33 64.05 179.33 61.8 179.33 59.54 179.33 57.3 179.33 55.05 179.33 52.79 177.07 52.79 177.07 50.55 174.82 50.55 172.58 50.55 172.58 48.3 170.32 48.3 168.08 48.3 165.82 48.3 163.57 48.3 161.33 48.3 159.07 48.3 156.82 48.3 154.58 48.3 152.32 48.3 150.07 48.3 147.83 48.3 145.57 48.3 145.57 50.55 143.32 50.55 141.08 50.55 138.82 50.55 138.82 52.79 136.58 52.79 136.58 55.05 134.32 55.05 134.32 57.3 132.07 57.3 132.07 59.54 129.83 59.54 129.83 61.8 127.57 61.8 127.57 64.05 125.32 64.05 125.32 66.3 125.32 68.55 123.08 68.55 123.08 70.79 125.32 70.79 125.32 73.05"/><polygon class="ba1dbd2a-c399-4f06-a3d6-1a7ba1b65998" points="240.07 165.29 240.07 163.05 237.82 163.05 237.82 160.8 237.82 158.54 235.58 158.54 235.58 156.3 233.32 156.3 233.32 154.05 233.32 151.79 231.07 151.79 231.07 154.05 228.83 154.05 226.57 154.05 226.57 156.3 224.33 156.3 222.08 156.3 222.08 158.54 219.82 158.54 217.58 158.54 217.58 160.8 215.32 160.8 215.32 163.05 213.07 163.05 213.07 165.29 210.83 165.29 208.57 165.29 208.57 167.55 206.32 167.55 204.08 167.55 204.08 169.79 201.82 169.79 201.82 172.05 199.57 172.05 197.33 172.05 197.33 174.3 195.07 174.3 192.83 174.3 192.83 176.54 190.57 176.54 188.32 176.54 188.32 178.8 186.08 178.8 183.82 178.8 183.82 181.05 181.57 181.05 179.33 181.05 179.33 183.29 177.07 183.29 177.07 185.55 177.07 187.8 177.07 190.04 179.33 190.04 179.33 192.3 179.33 194.55 181.57 194.55 181.57 196.8 181.57 199.05 181.57 201.29 183.82 201.29 186.08 201.29 188.32 201.29 190.57 201.29 192.83 201.29 192.83 199.05 195.07 199.05 195.07 196.8 197.33 196.8 199.57 196.8 199.57 194.55 201.82 194.55 201.82 192.3 204.08 192.3 204.08 190.04 201.82 190.04 201.82 187.8 201.82 185.55 204.08 185.55 206.32 185.55 206.32 183.29 206.32 181.05 206.32 178.8 208.57 178.8 210.83 178.8 213.07 178.8 213.07 176.54 210.83 176.54 210.83 174.3 210.83 172.05 213.07 172.05 215.32 172.05 215.32 169.79 215.32 167.55 215.32 165.29 217.58 165.29 219.82 165.29 219.82 167.55 219.82 169.79 222.08 169.79 222.08 172.05 219.82 172.05 217.58 172.05 215.32 172.05 215.32 174.3 215.32 176.54 217.58 176.54 219.82 176.54 222.08 176.54 222.08 178.8 219.82 178.8 217.58 178.8 217.58 181.05 215.32 181.05 213.07 181.05 213.07 183.29 213.07 185.55 215.32 185.55 217.58 185.55 217.58 187.8 215.32 187.8 213.07 187.8 210.83 187.8 208.57 187.8 206.32 187.8 206.32 190.04 208.57 190.04 208.57 192.3 208.57 194.55 210.83 194.55 213.07 194.55 215.32 194.55 217.58 194.55 217.58 192.3 219.82 192.3 219.82 190.04 222.08 190.04 222.08 187.8 224.33 187.8 224.33 185.55 226.57 185.55 228.83 185.55 228.83 183.29 231.07 183.29 233.32 183.29 233.32 181.05 235.58 181.05 235.58 178.8 237.82 178.8 240.07 178.8 240.07 176.54 242.33 176.54 242.33 174.3 242.33 172.05 242.33 169.79 242.33 167.55 242.33 165.29 240.07 165.29"/><polygon class="ba1dbd2a-c399-4f06-a3d6-1a7ba1b65998" points="177.07 167.55 179.33 167.55 179.33 165.29 181.57 165.29 183.82 165.29 183.82 163.05 186.08 163.05 188.32 163.05 188.32 160.8 190.57 160.8 192.83 160.8 192.83 158.54 195.07 158.54 195.07 156.3 197.33 156.3 199.57 156.3 199.57 154.05 201.82 154.05 204.08 154.05 204.08 151.79 206.32 151.79 206.32 149.55 208.57 149.55 210.83 149.55 210.83 147.3 213.07 147.3 213.07 145.04 215.32 145.04 217.58 145.04 217.58 142.8 219.82 142.8 222.08 142.8 222.08 140.54 224.33 140.54 226.57 140.54 226.57 138.3 228.83 138.3 228.83 136.05 228.83 133.79 228.83 131.55 226.57 131.55 226.57 129.3 224.33 129.3 224.33 127.04 224.33 124.8 222.08 124.8 222.08 122.55 219.82 122.55 219.82 120.3 217.58 120.3 217.58 118.05 215.32 118.05 213.07 118.05 213.07 115.8 210.83 115.8 210.83 113.55 208.57 113.55 206.32 113.55 204.08 113.55 204.08 111.3 201.82 111.3 199.57 111.3 199.57 113.55 197.33 113.55 197.33 115.8 197.33 118.05 195.07 118.05 195.07 120.3 195.07 122.55 195.07 124.8 192.83 124.8 192.83 127.04 192.83 129.3 192.83 131.55 190.57 131.55 190.57 133.79 188.32 133.79 188.32 136.05 188.32 138.3 188.32 140.54 186.08 140.54 186.08 142.8 186.08 145.04 183.82 145.04 181.57 145.04 181.57 142.8 179.33 142.8 177.07 142.8 174.82 142.8 172.58 142.8 172.58 145.04 170.32 145.04 168.08 145.04 168.08 147.3 165.82 147.3 165.82 145.04 163.57 145.04 163.57 147.3 163.57 149.55 163.57 151.79 163.57 154.05 163.57 156.3 163.57 158.54 165.82 158.54 165.82 160.8 163.57 160.8 163.57 163.05 163.57 165.29 163.57 167.55 163.57 169.79 163.57 172.05 165.82 172.05 165.82 174.3 168.08 174.3 168.08 172.05 170.32 172.05 172.58 172.05 172.58 169.79 174.82 169.79 177.07 169.79 177.07 167.55"/><path class="ba1dbd2a-c399-4f06-a3d6-1a7ba1b65998" d="M156.82,138.3h-4.5v2.24h-4.49v2.26h-2.26v2.25h-2.24v-13.5h2.24v-18h-4.49v4.5h-2.26v2.24h-2.24v2.26h-4.51v2.25h-6.75v-2.25h-4.5v2.25h-2.24v4.5h-2.25v4.49h-2.26v2.26h2.26v2.25h-2.26v9h-2.24v9h-2.26v6.75h-2.25v6.75h-2.24v24.75h-2.26v4.5h2.26v4.5h2.24v2.25h6.75v-2.25h4.51v-2.26h2.24v-2.24h2.26V196.8h4.49v-2.25h2.26V192.3h2.24V190h2.25V187.8h2.26v-2.25h2.24v-2.26h4.51v-2.24h4.5V178.8h4.49v-2.26h2.26V174.3h4.49v-6.75h-2.25v-4.5h2.25V140.54h-2.25Zm-9,20.24v6.75h-2.26v2.26h-2.24v2.25h-9v-2.25h-2.25v-4.5h-2.24V156.3h6.75v-2.25h13.49v4.49Z"/><polygon class="ba4e8154-3f76-48e3-8e69-714e874d66f6" points="219.82 172.05 222.08 172.05 222.08 169.79 219.82 169.79 219.82 167.55 219.82 165.29 217.58 165.29 215.32 165.29 215.32 167.55 215.32 169.79 215.32 172.05 217.58 172.05 219.82 172.05"/><polygon class="ba4e8154-3f76-48e3-8e69-714e874d66f6" points="215.32 172.05 213.07 172.05 210.83 172.05 210.83 174.3 210.83 176.54 213.07 176.54 213.07 178.8 210.83 178.8 208.57 178.8 206.32 178.8 206.32 181.05 206.32 183.29 206.32 185.55 204.08 185.55 201.82 185.55 201.82 187.8 201.82 190.04 204.08 190.04 204.08 192.3 201.82 192.3 201.82 194.55 199.57 194.55 199.57 196.8 197.33 196.8 195.07 196.8 195.07 199.05 192.83 199.05 192.83 201.29 195.07 201.29 197.33 201.29 197.33 203.55 199.57 203.55 201.82 203.55 201.82 201.29 204.08 201.29 206.32 201.29 206.32 199.05 208.57 199.05 208.57 196.8 210.83 196.8 210.83 194.55 208.57 194.55 208.57 192.3 208.57 190.04 206.32 190.04 206.32 187.8 208.57 187.8 210.83 187.8 213.07 187.8 215.32 187.8 217.58 187.8 217.58 185.55 215.32 185.55 213.07 185.55 213.07 183.29 213.07 181.05 215.32 181.05 217.58 181.05 217.58 178.8 219.82 178.8 222.08 178.8 222.08 176.54 219.82 176.54 217.58 176.54 215.32 176.54 215.32 174.3 215.32 172.05"/><polygon class="ba4e8154-3f76-48e3-8e69-714e874d66f6" points="192.83 129.3 192.83 127.04 192.83 124.8 195.07 124.8 195.07 122.55 195.07 120.3 195.07 118.05 197.33 118.05 197.33 115.8 197.33 113.55 199.57 113.55 199.57 111.3 199.57 109.04 197.33 109.04 195.07 109.04 195.07 106.8 192.83 106.8 192.83 104.55 190.57 104.55 190.57 102.29 188.32 102.29 188.32 100.05 186.08 100.05 183.82 100.05 181.57 100.05 181.57 102.29 183.82 102.29 183.82 104.55 183.82 106.8 183.82 109.04 181.57 109.04 181.57 111.3 181.57 113.55 179.33 113.55 179.33 115.8 179.33 118.05 177.07 118.05 177.07 120.3 177.07 122.55 174.82 122.55 174.82 124.8 172.58 124.8 172.58 127.04 172.58 129.3 170.32 129.3 170.32 131.55 170.32 133.79 168.08 133.79 168.08 136.05 165.82 136.05 165.82 138.3 165.82 140.54 163.57 140.54 161.33 140.54 161.33 138.3 159.07 138.3 159.07 136.05 156.82 136.05 156.82 133.79 156.82 131.55 154.58 131.55 154.58 129.3 154.58 127.04 152.32 127.04 152.32 124.8 152.32 122.55 150.07 122.55 150.07 120.3 150.07 118.05 150.07 115.8 150.07 113.55 150.07 111.3 147.83 111.3 147.83 109.04 145.57 109.04 145.57 111.3 145.57 113.55 145.57 115.8 145.57 118.05 145.57 120.3 145.57 122.55 145.57 124.8 145.57 127.04 145.57 129.3 145.57 131.55 143.32 131.55 143.32 133.79 143.32 136.05 143.32 138.3 143.32 140.54 143.32 142.8 143.32 145.04 145.57 145.04 145.57 142.8 147.83 142.8 147.83 140.54 150.07 140.54 152.32 140.54 152.32 138.3 154.58 138.3 156.82 138.3 156.82 140.54 159.07 140.54 159.07 142.8 159.07 145.04 159.07 147.3 159.07 149.55 159.07 151.79 159.07 154.05 159.07 156.3 159.07 158.54 159.07 160.8 159.07 163.05 156.82 163.05 156.82 165.29 156.82 167.55 159.07 167.55 159.07 169.79 159.07 172.05 161.33 172.05 163.57 172.05 163.57 169.79 163.57 167.55 163.57 165.29 163.57 163.05 163.57 160.8 165.82 160.8 165.82 158.54 163.57 158.54 163.57 156.3 163.57 154.05 163.57 151.79 163.57 149.55 163.57 147.3 163.57 145.04 165.82 145.04 165.82 147.3 168.08 147.3 168.08 145.04 170.32 145.04 172.58 145.04 172.58 142.8 174.82 142.8 177.07 142.8 179.33 142.8 181.57 142.8 181.57 145.04 183.82 145.04 186.08 145.04 186.08 142.8 186.08 140.54 188.32 140.54 188.32 138.3 188.32 136.05 188.32 133.79 190.57 133.79 190.57 131.55 192.83 131.55 192.83 129.3"/><polygon class="ba4e8154-3f76-48e3-8e69-714e874d66f6" points="145.57 154.05 143.32 154.05 141.08 154.05 138.82 154.05 136.58 154.05 136.58 156.3 134.32 156.3 132.07 156.3 129.83 156.3 129.83 158.54 129.83 160.8 129.83 163.05 132.07 163.05 132.07 165.29 132.07 167.55 134.32 167.55 134.32 169.79 136.58 169.79 138.82 169.79 141.08 169.79 143.32 169.79 143.32 167.55 145.57 167.55 145.57 165.29 147.83 165.29 147.83 163.05 147.83 160.8 147.83 158.54 150.07 158.54 150.07 156.3 150.07 154.05 147.83 154.05 145.57 154.05"/><polygon class="ba4e8154-3f76-48e3-8e69-714e874d66f6" points="132.07 124.8 132.07 122.55 134.32 122.55 136.58 122.55 136.58 120.3 138.82 120.3 138.82 118.05 141.08 118.05 141.08 115.8 141.08 113.55 138.82 113.55 138.82 111.3 136.58 111.3 136.58 113.55 134.32 113.55 132.07 113.55 132.07 115.8 129.83 115.8 127.57 115.8 127.57 118.05 125.32 118.05 123.08 118.05 123.08 120.3 123.08 122.55 125.32 122.55 125.32 124.8 127.57 124.8 129.83 124.8 132.07 124.8"/><polygon class="ba4e8154-3f76-48e3-8e69-714e874d66f6" points="109.57 147.3 107.32 147.3 105.08 147.3 102.82 147.3 100.57 147.3 100.57 145.04 98.33 145.04 96.07 145.04 93.83 145.04 91.58 145.04 89.32 145.04 87.08 145.04 87.08 147.3 84.82 147.3 82.57 147.3 82.57 149.55 80.33 149.55 78.07 149.55 78.07 151.79 75.82 151.79 73.58 151.79 73.58 154.05 71.32 154.05 71.32 151.79 69.08 151.79 69.08 154.05 66.87 154.05 64.62 154.05 62.36 154.05 62.36 156.3 60.12 156.3 60.12 158.54 60.12 160.8 60.12 163.05 57.87 163.05 55.62 163.05 55.62 165.29 53.37 165.29 53.37 167.55 53.37 169.79 53.37 172.05 51.13 172.05 48.87 172.05 48.87 174.3 46.62 174.3 46.62 176.54 44.36 176.54 44.36 178.8 44.36 181.05 42.12 181.05 42.12 183.29 39.87 183.29 39.87 185.55 37.61 185.55 37.61 187.8 35.37 187.8 35.37 190.04 35.37 192.3 35.37 194.55 37.61 194.55 37.61 196.8 39.87 196.8 39.87 199.05 42.12 199.05 42.12 201.29 44.36 201.29 44.36 203.55 46.62 203.55 48.87 203.55 51.13 203.55 53.37 203.55 55.62 203.55 57.87 203.55 60.12 203.55 62.36 203.55 64.62 203.55 66.87 203.55 69.08 203.55 69.11 203.55 71.32 203.55 73.58 203.55 75.82 203.55 78.07 203.55 80.33 203.55 82.57 203.55 84.82 203.55 87.08 203.55 89.32 203.55 91.58 203.55 93.83 203.55 96.07 203.55 96.07 201.29 98.33 201.29 100.57 201.29 102.82 201.29 105.08 201.29 105.08 199.05 102.82 199.05 102.82 196.8 102.82 194.55 105.08 194.55 105.08 192.3 105.08 190.04 105.08 187.8 105.08 185.55 105.08 183.29 105.08 181.05 105.08 178.8 105.08 176.54 105.08 174.3 105.08 172.05 105.08 169.79 107.32 169.79 107.32 167.55 107.32 165.29 107.32 163.05 109.57 163.05 109.57 160.8 109.57 158.54 109.57 156.3 111.83 156.3 111.83 154.05 111.83 151.79 111.83 149.55 109.57 149.55 109.57 147.3"/><text class="b39b7359-b394-4152-98cf-b8913fae6558" transform="translate(0 14.78)">F<tspan class="edb6c625-1f00-4d96-a71f-a127333b3044" x="8.88" y="0">A</tspan><tspan class="ba6a122b-f7fa-4904-8455-9494308fec25" x="20.38" y="0">R</tspan><tspan x="29.85" y="0">C-EP</tspan></text><line class="a7b871e8-ba7f-452f-bc5f-c4cf74c4e2ff" x1="69.9" y1="24.37" x2="0.83" y2="24.37"/><text class="a3b175be-29f8-486a-971d-696fa3c2950b" transform="translate(0 44.41)">57 and 34 <tspan x="0" y="18">f</tspan><tspan class="ec4040aa-db29-4ffb-978e-4eb333e31e75" x="4.49" y="18">r</tspan><tspan x="9.79" y="18">onts p</tspan><tspan class="b0464515-9e81-40c6-a3ff-21d67667cd52" x="45.9" y="18">r</tspan><tspan x="51.21" y="18">esent </tspan><tspan x="0" y="36">in the </tspan><tspan class="ec4040aa-db29-4ffb-978e-4eb333e31e75" x="35.97" y="36">r</tspan><tspan x="41.28" y="36">egion </tspan><tspan x="0" y="54">since the </tspan><tspan x="0" y="72" xml:space="preserve">1970s.  </tspan></text></g></g></svg>