<svg xmlns="http://www.w3.org/2000/svg" viewBox="0 0 254 202.92"><defs><style>.cls-1{fill:#7945ff;}.cls-10,.cls-2{fill:#8f66ff;}.cls-3,.cls-6{fill:#b092ff;}.cls-12,.cls-4{fill:#fff;}.cls-5,.cls-9{fill:none;stroke-miterlimit:10;stroke-width:0.5px;}.cls-5{stroke:#b092ff;}.cls-10,.cls-6{font-size:12px;}.cls-10,.cls-12,.cls-6{font-family:DarkerGrotesque-SemiBold, Darker Grotesque;font-weight:600;}.cls-7{letter-spacing:-0.02em;}.cls-8{letter-spacing:-0.03em;}.cls-9{stroke:#844aff;}.cls-11{letter-spacing:0.02em;}.cls-12{font-size:14.94px;}.cls-13{letter-spacing:0em;}.cls-14{letter-spacing:0em;}</style></defs><g id="Capa_2" data-name="Capa 2"><g id="Layer_1" data-name="Layer 1"><path class="cls-1" d="M214.35,202.92l-1.95-2-1.4-2.4h-4.46l-1.48-1.17,7.42-12.26-.71-.5-.16-.83-.78-.66-1.48-.5-1.09-.91h-1.88l-.93-.75-.39-.66-1.72-1-.78-.5h-2.81v1.57h-1.17l-1.63-.16-.94.33v-.75l-1.25-1V180l-.54-.82v-.42l-2.58-.5v-.82l-.86.57-1.16,1.17-.56,1.16-.7.08-1.17.17s-.54.49-.85.49-2.58.33-2.58.33l-.54-.08-1.65-.33-1-.17v-.24l-.93.24-.47.67-.94-.25-1.87.66-.55-1.08-1.33-.33s-1.25-.25-1.17-.83-.71-1.33,0-1.74a2.82,2.82,0,0,0,1-1L173,174.41l-1.26-.83h-2.57l-.71-.58v-2.82l-.85-1.16-.47-1.41L166,167h-1.87v-.59l-.78-1h-1.17l-.62-.75v-.33h-1.25l-1.64-.41v-2.24l-.86-.58-.39-1.16v-1.08l-1.72-1.16-1.56-1.24-1.24-.5v-1.16l-1-.83h-.86v.58l-1.4-.58-1.72-1.33-.86-.49-1.72.91-1.48-.91-1.56-.5-.86-.66h-2l-1.8-1.16-1.32-1.08-1-1.24-.93-.5-1.87-.41-1.41.41v1.16l-1.33.75h-1.17l-1.32-.67-2.66.42-2.65-.75-1.56-.33s-2.73-1-2.81-1a11.38,11.38,0,0,1-.39-1.58v-1s-1.48-.49-1.56-.74a4,4,0,0,1,0-1l-.78-.74-1.87.5-2-.5-2.73-1.24-.7-.92-2-1-1.33-1.16-1.79-.66-2.34-2.24-1.49-1.58-.85-.74.93-1.83,1.56-.66h3.13l-.09-1.5-.86-1.24-.55-1.57.55-2,1.09-1.83,1.56-2,2.81-.67h5.31l.94-1.91,1.79-3,1.64-3.06,1.32-.92s1.26-1.24,1.41-1.49,1-1.91,1-1.91.78-1.66.94-1.9.08-.91-.31-.66a10.05,10.05,0,0,1-1.4.58l-1.56-.64.54-.53-.54-.79-1.1-1.11a9,9,0,0,1-.62-1.49,6.22,6.22,0,0,1,.78-1.33l1.32-3.64V93l-.7-1.58-.23-2.57V86l-.7-1.32h-1.65l.48-.75.93-.58h1.57l.69-1a2.09,2.09,0,0,0,.48-1.07,3.38,3.38,0,0,0-.24-1.08l-.62-1.49-.31-1.16-1.49-1.33-.16-1.16h.63l.54-.82.48-1.91-.08-1-.32-.66-.31-.75h-1.87l-.39-1s-1.17-1.49-1.41-1.41,0-1.08,0-1.08l-.23-.66-.7-.83-1.41-1.24-.54-.5.77-1.83a2.08,2.08,0,0,1,.63-.82,1.33,1.33,0,0,1,1,0s-.08-1.41-.08-1.66a1.6,1.6,0,0,1,.31-.66l1.4.82.94.83.7-.66,1-1.82,1.24-1.33.94-1.08.47-1.66-2-2.73V49.41l-1-1.33.62-1.58,1.1.92,1.4,1.41,2.11,1.65a7.12,7.12,0,0,0,1,1.41,7.52,7.52,0,0,1,1,1.41l-1.25,1.08.31.82L127,55l-.08-3.32-.47-2.4L125.3,47.5l-.7-.34.47-.66,2.73-.66,2.73-1.58,1.56-1.65,2.42-3.07,1.88-2.16,2.88-.66h2l.23-.75.24-2.23-.94-.59.63-1.24a7.13,7.13,0,0,1,.7-1.16c.39-.5.93-1.08.62-1.57s-.62-.5-.54-.92a14.59,14.59,0,0,1,.54-1.9,6.34,6.34,0,0,0-.08-1.83A7.9,7.9,0,0,1,143,23a18.67,18.67,0,0,1,1.79-1.49l1.25-1.33h1.64l.86-1.49,2.11-1.41.85-.74,1.95.57,2.62.5h1.68l1.63-.41-.46-1.49.39-1.33,1.09-.5,1.87-.41H165l2.57.75,2-.17L172,12.77l2.11-1.33,1.49-1.08,2.1-1.66L181.1,8l2.81-1.24,1-1.41.39-2.24V2.07h1.79s.39.67.62.67,1.49-.09,1.49-.09l-.78-1.08,1-.82.85.49L190.7,0H192l2.26.41,1.56.67,1.64,1.32,1,2L196.79,5.8l-1.72,1.33L192.89,8,190.15,9,187,10.44l-2.34,5.39-2.81.83-2.34,3.65L178.29,23l-1.56,2.82-1.17,2.65-.16,2.07-.53,3-1.66,1.08-.54,1.33-1.17,1.58-1.17,2.07,1.17.49,1.64-.74,1.4-.91.33,1.08.84,1.32,1-.33.7.08.62,3.07.79,2.82L180.48,48,182,49.24l.39,2.65.31,2.24-1.09.58-.31,1.66.15,1.57.16,2.9,1.4.83,1.65-.33.54,1.57,1.17,1.91,1.4.83h2.42l1.88.08,2.81-.08,1.87.25,1.48-.17,2.19.58.94-.33,1.71-.83,3.44.17,1.17,1,1.17.08.93.09,1.56-.25.47-.17,9,10.94.7-.33,1,.33.47.09,1.57-.75.69-.75,2.66.42,2.34.33,1.72-.09,1.41-.24,1.79-.17,1.56-.5s.78-.08,1-.08,1.09.16,1.09.16L240.5,75l1.63-.83,2.35.5,1.09.66.54,1.41.63,1.41-2,1.08-.7,1.82.47,1.57-.54,1.75-2.35,1.4-.23,2.49.47,1.91-.24,1.66-.15,1.74-.86,2.07,1.17,1.41.86,1.49-.32,1.91.63,1,.7,2.32.39,1.74.85.43,1-.34.39,1,.85,2.15.71.67.86,1-1.09.75-1.57.74-2.42,2.74-2.8,2,.46.49,2.11-.33,1.48.83L246,119l.71.49.94.75,1.09,1.16.93,1.16v1.82l.4.75,1,.58v1.91l1.26,2.32.46,1.74.71,2.4.54,1.33v1.58l-2.73.41.23-2.9-1.71-4.56-1-.42-1.64-4.63-.78.16-1.64,1.74-3.51,1.49v1.58l-1.26.16-1.86-2.16-1.25-.33-.79.33v1.5l1,.83-.39.33-6.71.16-3.36.09-4.52-.25-2.34-.83-2.27.66-1.63.34-.09,3.23-.15,4.31h.78l.54-.09H218l1.17.26,2.43-.09,1.56.58.78,2,.23,1.91-.78,1.49-1.79-.66-1.72-1.16L218,143.82l-2.17.66-2.43.25-.47.66.16,7.71.31.58,1.25,1.58,1,.49,1.72,1.16,1.33.5.23,1.33-.46,1.4.78,1.17.93,1.49.94,1.24v2.24l.15,1.58-1,3.81L218,184.35l-1.79,9.37Z"/><path class="cls-2" d="M124.21,54.38l1.25-1.08a7.52,7.52,0,0,0-1-1.41,7.12,7.12,0,0,1-1-1.41l-2.11-1.66-1.41-1.4-1.09-.92-.62,1.58,1,1.33v1.24l2,2.73L120.77,55l-.94,1.08-1.24,1.33-1,1.82-.7.66-.94-.83-1.4-.82a1.6,1.6,0,0,0-.31.66c0,.25.08,1.66.08,1.66a1.33,1.33,0,0,0-1,0,2.08,2.08,0,0,0-.63.82l-.77,1.83.54.5L113.83,65l.7.83.23.66s-.23,1.16,0,1.08S116.17,69,116.17,69l.39,1h1.87l.31.75.32.66.08,1-.48,1.91-.54.82h-.63l.16,1.16,1.49,1.33.31,1.16.62,1.49a3.38,3.38,0,0,1,.24,1.08,2.09,2.09,0,0,1-.48,1.07l-.69,1h-1.57l-.93.58-.48.75h1.65l.7,1.33v2.81l.23,2.57.7,1.58v1.91l-1.32,3.64a6.22,6.22,0,0,0-.78,1.33,9,9,0,0,0,.62,1.49l1.1,1.11.54.79-.54.53,1.56.64a8.91,8.91,0,0,0,1.4-.58c.39-.25.47.41.31.66.45-.88,1.19.16,3.77,1.42s.58.63,3.68,0,.71-.63,1.57-1.61.55-1.26,1.3-2.88.34-1.31,1.2-3.66.69-.86,2.36-3a8.83,8.83,0,0,0,1.89-3c.92-1.84-.8-3.16-.69-4.31a35.09,35.09,0,0,1,.86-3.5c.52-2.24,0-2.81,0-2.81A11.68,11.68,0,0,0,136,78.68c-1.49-1.26-2.47-.23-3.15-.29a23,23,0,0,1-2.39-.17c-1.25-.17-.89.46-2,0s-.4-1.43-.93-3.15.07-.52-.9-1.27-.35-.11-1.15-.4-.46-.29-.12-1.43.58-.18,2.17-1.38c0,0-.16-.4.65-1.44s.8.12,1.43,0,.83-.57,1.21-2.69-.38-.46-.69-1.38-1-1.15-1.38-1.78a7.45,7.45,0,0,0-2.07-1.78c-.51-.29-2.41-1.55-2.52-2.13s.34-.8.69-1.2.69-1.61,1.2-2.24a1.4,1.4,0,0,0,.23-.93l-1.81.18Z"/><path class="cls-3" d="M119.44,70.44l-.48.21.33.68.08,1s.53-.33.41,0-.37.39-.44,1-.48,1.5-.12,1.67.2.66.83.86-.46.68.22,1.36.2-.16,1.07.21l.25.08a1.83,1.83,0,0,0,.51,0c.46,0,.35.27.27.73-.12.68-.43.74-.43,1.23s-.19.56,0,1.05.24,1,.74.93A1.78,1.78,0,0,0,124,81c.68-.56,1.3-.31,1.2-1.3s-.21-1,0-1.61a.7.7,0,0,0-.26-.72c-.08,0,.11-.21.08-.27s-.14-.35,0-.36c.33,0,.37-.39.73,0,.51.63.19.38.63.5s1,.21,1-.39.3,0,.48-.15a6.27,6.27,0,0,0-.24-1.61c-.54-1.76.07-.53-.92-1.29s-.35-.12-1.17-.41-.47-.29-.12-1.46c.3-1,.51-.43,1.55-1a6.08,6.08,0,0,0-.71-.43c-1.08-.54-1.73,0-2.59,0s-.68-.72-1.22-1.09c-.16-.11-.34-.16-.38-.06a1.5,1.5,0,0,1-.89.91c-.62.2-.54-.25-1.08-.17l-.18,0a.19.19,0,0,1-.11,0s-.07,0-.09,0a.38.38,0,0,0,0,.15s0,0,0,0,0,0,0,0,0,0,0,0,0,0,0-.06,0-.08,0-.07a.1.1,0,0,0-.05,0l.05,0a.1.1,0,0,1,0,.06s0,0,0,0,0,.06,0,0l-.06,0s0,0-.06,0,0,0,0,0A.16.16,0,0,1,119.44,70.44Z"/><path class="cls-4" d="M120.44,74.69v-.76h.39v-.39h-.39v-.38h-.38v-.39h1.15V72h.39v.77h1.15v.39h-.38v.38H122v.39h.39v.76H122v-.38h-.38v-.38h-.39v.38h-.38v.38Zm1.16-1.53h-.39v.38h.39Z"/><line class="cls-5" x1="117.16" y1="71.86" x2="66.79" y2="71.86"/><text class="cls-6" transform="translate(0 74.41)">BOJ<tspan class="cls-7" x="19.3" y="0">A</tspan><tspan class="cls-8" x="25.74" y="0">Y</tspan><tspan x="30.59" y="0">Á</tspan></text><line class="cls-9" x1="115.7" y1="96.54" x2="104.26" y2="96.54"/><text class="cls-10" transform="translate(64.03 98.92)">CH<tspan class="cls-11" x="14.21" y="0">O</tspan><tspan x="21.74" y="0">CÓ</tspan></text><text class="cls-12" transform="translate(146.11 106.68)">CO<tspan class="cls-13" x="18.04" y="0">L</tspan><tspan class="cls-14" x="24.97" y="0">OMBIA</tspan></text><path class="cls-3" d="M43.68,59.08l-1.08.48.72,1.52.18,2.27s1.2-.74.92,0-.83.88-1,2.12-1.08,3.37-.28,3.74.45,1.48,1.87,1.94c1.24.4-1,1.52.49,3s.46-.37,2.39.46a5.43,5.43,0,0,0,.57.19,3.75,3.75,0,0,0,1.14.06c1-.08.79.61.61,1.64-.28,1.53-1,1.66-1,2.77s-.42,1.25,0,2.36.55,2.21,1.66,2.07a3.94,3.94,0,0,0,3-1.1c1.52-1.25,2.91-.7,2.7-2.91s-.48-2.22,0-3.6a1.6,1.6,0,0,0-.59-1.63c-.18-.11.25-.46.19-.6-.21-.47-.32-.79,0-.8.74,0,.83-.89,1.65.11,1.14,1.4.43.84,1.4,1.12s2.31.48,2.22-.88.69,0,1.08-.33a13.44,13.44,0,0,0-.54-3.63c-1.22-3.92.16-1.18-2.07-2.88s-.78-.26-2.62-.91-1-.66-.26-3.28c.67-2.21,1.15-1,3.47-2.19a13.36,13.36,0,0,0-1.59-1c-2.42-1.22-3.87,0-5.81,0s-1.51-1.62-2.72-2.44c-.38-.26-.77-.38-.86-.13a3.38,3.38,0,0,1-2,2c-1.41.44-1.22-.56-2.44-.39a3.06,3.06,0,0,0-.38.06.45.45,0,0,1-.25,0s-.17-.08-.21,0a1,1,0,0,0,0,.34c0,.07.07,0,0,.07s0,.1-.06,0-.07,0-.07-.07,0-.06,0-.12,0-.18-.1-.15a.14.14,0,0,0-.11.09l.11.07a.26.26,0,0,1,0,.15c0,.06,0,.06,0,.1s0,.14-.11.08a.69.69,0,0,0-.14-.12s-.09,0-.12,0-.06.07-.06.11A.55.55,0,0,1,43.68,59.08Z"/></g></g></svg>