<?xml version="1.0" encoding="utf-8"?>
<!-- Generator: Adobe Illustrator 24.1.2, SVG Export Plug-In . SVG Version: 6.00 Build 0)  -->
<svg version="1.1" id="Capa_1" xmlns="http://www.w3.org/2000/svg" xmlns:xlink="http://www.w3.org/1999/xlink" x="0px" y="0px"
	 viewBox="0 0 207.6 277" style="enable-background:new 0 0 207.6 277;" xml:space="preserve">
<style type="text/css">
	.st0{fill:#B092FF;}
	.st1{fill:#7945FF;}
	.st2{enable-background:new    ;}
	.st3{fill:#FFFFFF;}
</style>
<g id="Capa_2_1_">
	<g id="Layer_1">
		<g>
			<circle class="st0" cx="103.8" cy="173.2" r="103.8"/>
		</g>
		<g>
			<path class="st1" d="M103.8,173.2l-0.3-103.8c56.9-0.2,103.9,46.6,104.1,103.5S161.1,276.9,104.1,277
				c-29,0.1-56.7-11.9-76.4-33.2L103.8,173.2z"/>
		</g>
		<g class="st2">
			<path class="st3" d="M39.3,136.3v-1.4c0.5-0.2,0.9-0.5,1.2-0.8c0.4-0.4,0.7-0.8,0.9-1.2c0.2-0.4,0.4-0.9,0.5-1.4
				c0.1-0.5,0.2-0.9,0.2-1.3h1.7c0,0.5-0.1,1.1-0.4,1.7c-0.2,0.6-0.6,1.1-1,1.7c-0.4,0.5-1,1-1.6,1.4H43v-1h1.6v1h0.9v1.4h-0.9v1.4
				H43v-1.4H39.3z"/>
			<path class="st3" d="M46.6,137.7v-1.3c0,0,0.1-0.1,0.3-0.2c0.2-0.1,0.5-0.2,0.8-0.4s0.7-0.4,1.1-0.6c0.4-0.2,0.7-0.5,1-0.8
				c0.3-0.3,0.6-0.6,0.7-1c0.2-0.4,0.2-0.7,0.2-1s-0.2-0.5-0.5-0.7c-0.2-0.2-0.5-0.2-0.8-0.2c-0.5,0-0.8,0.2-1.1,0.5
				c-0.3,0.3-0.3,0.8-0.2,1.5l-1.5-0.2c-0.1-0.7,0-1.2,0.2-1.7c0.2-0.5,0.6-0.8,1.1-1.1c0.5-0.2,1-0.4,1.6-0.4
				c0.5,0,0.9,0.1,1.3,0.3c0.4,0.2,0.7,0.4,1,0.7c0.2,0.3,0.4,0.7,0.4,1.1s-0.1,0.8-0.3,1.3c-0.2,0.4-0.4,0.7-0.7,1
				c-0.3,0.3-0.6,0.5-0.9,0.8c-0.3,0.2-0.7,0.4-1,0.6c-0.3,0.2-0.6,0.3-0.8,0.4c-0.2,0.1-0.4,0.1-0.5,0.2h4.3v1.4H46.6z"/>
			<path class="st3" d="M54.9,133.3c-0.5,0-0.9-0.1-1.1-0.4c-0.2-0.3-0.4-0.7-0.4-1.1c0-0.5,0.1-0.9,0.3-1.2
				c0.2-0.3,0.6-0.4,1.1-0.4c0.5,0,0.9,0.1,1.1,0.4c0.2,0.3,0.4,0.7,0.4,1.2c0,0.5-0.1,0.8-0.4,1.1
				C55.8,133.1,55.4,133.3,54.9,133.3z M54.9,137.7l-1.1-0.8l3.2-3.3l2.5-3.5l1.1,0.8l-3.1,3.1L54.9,137.7z M54.9,132.2
				c0.2,0,0.3-0.1,0.4-0.2c0.1-0.1,0.1-0.2,0.1-0.4s0-0.3-0.1-0.4s-0.2-0.2-0.4-0.2c-0.2,0-0.3,0.1-0.4,0.2s-0.1,0.3-0.1,0.4
				s0,0.3,0.1,0.4C54.6,132.2,54.7,132.2,54.9,132.2z M59.5,137.9c-0.5,0-0.9-0.1-1.1-0.4c-0.2-0.3-0.4-0.7-0.4-1.2
				c0-0.5,0.1-0.8,0.3-1.1c0.2-0.3,0.6-0.4,1.1-0.4s0.9,0.1,1.1,0.4c0.2,0.3,0.4,0.7,0.4,1.1c0,0.5-0.1,0.9-0.4,1.1
				C60.4,137.7,60,137.9,59.5,137.9z M59.5,136.8c0.2,0,0.3-0.1,0.4-0.2c0.1-0.1,0.1-0.3,0.1-0.4s0-0.3-0.1-0.4
				c-0.1-0.1-0.2-0.2-0.4-0.2c-0.2,0-0.3,0.1-0.4,0.2c-0.1,0.1-0.1,0.3-0.1,0.4s0,0.3,0.1,0.4C59.2,136.8,59.3,136.8,59.5,136.8z"/>
		</g>
		<g class="st2">
		</g>
		<g class="st2">
			<path class="st3" d="M25.5,152.8v-7.5h2.6c1,0,1.7,0.2,2.2,0.5s0.8,0.9,0.8,1.7c0,0.6-0.1,1-0.4,1.4c-0.3,0.4-0.7,0.6-1.3,0.6
				c0.3,0,0.6,0.1,0.8,0.2c0.2,0.2,0.3,0.3,0.3,0.6c0.1,0.2,0.1,0.5,0.1,0.7c0,0.2,0,0.5,0.1,0.7c0,0.2,0.1,0.3,0.2,0.4
				c0.1,0.1,0.3,0.1,0.5,0v0.7c-0.1,0.1-0.3,0.2-0.5,0.2s-0.4,0-0.6,0c-0.2-0.1-0.4-0.2-0.5-0.4c-0.1-0.2-0.2-0.5-0.2-0.9
				c0-0.5,0-0.8-0.1-1.1s-0.2-0.5-0.4-0.6s-0.5-0.2-0.9-0.2c-0.4,0-1,0-1.7,0v3.2H25.5z M26.6,148.8h1.5c0.5,0,0.8,0,1.1-0.1
				c0.3-0.1,0.5-0.2,0.7-0.4c0.1-0.2,0.2-0.4,0.2-0.8c0-0.4-0.1-0.7-0.3-0.9c-0.2-0.2-0.4-0.3-0.8-0.4s-0.8-0.1-1.2-0.1h-1.2V148.8z
				"/>
			<path class="st3" d="M33.7,151.9H38v0.9h-5.3v-7.5h5.2v1h-4.1v2.3h3.2v0.9h-3.2V151.9z"/>
			<path class="st3" d="M42.1,153c-0.5,0-1.1-0.1-1.6-0.3c-0.5-0.2-0.9-0.4-1.2-0.8s-0.5-0.9-0.5-1.5h1.1c0,0,0,0.1,0,0.3
				c0,0.2,0.1,0.3,0.3,0.5s0.4,0.4,0.7,0.5c0.3,0.1,0.7,0.2,1.3,0.2c0.4,0,0.8-0.1,1-0.2c0.3-0.1,0.4-0.3,0.5-0.4
				c0.1-0.2,0.2-0.3,0.2-0.5c0-0.3-0.1-0.5-0.3-0.7c-0.2-0.2-0.4-0.3-0.7-0.4c-0.3-0.1-0.6-0.2-1-0.3c-0.4-0.1-0.7-0.2-1-0.3
				c-0.3-0.1-0.7-0.2-0.9-0.4c-0.3-0.2-0.5-0.4-0.7-0.7c-0.2-0.3-0.2-0.6-0.2-1c0-0.6,0.3-1.1,0.9-1.4c0.6-0.3,1.3-0.5,2.1-0.5
				c0.5,0,1,0.1,1.4,0.3c0.4,0.2,0.8,0.5,1.1,0.8s0.4,0.8,0.4,1.4h-1.1c0-0.3-0.1-0.6-0.2-0.8s-0.3-0.3-0.5-0.4s-0.4-0.2-0.6-0.2
				s-0.4-0.1-0.6-0.1c-0.5,0-0.9,0.1-1.2,0.3c-0.3,0.2-0.5,0.4-0.5,0.8c0,0.3,0.1,0.5,0.3,0.7c0.2,0.2,0.4,0.3,0.7,0.4
				s0.6,0.2,1,0.3c0.3,0.1,0.7,0.2,1,0.3c0.4,0.1,0.7,0.2,1,0.4c0.3,0.2,0.5,0.4,0.7,0.7c0.2,0.3,0.2,0.6,0.2,1.1
				c0,0.4-0.2,0.8-0.4,1.1c-0.3,0.3-0.6,0.5-1.1,0.7C43.1,152.9,42.6,153,42.1,153z"/>
		</g>
		<g class="st2">
			<path class="st3" d="M45.7,146.3v-1h5.7v1h-2.3v6.5H48v-6.5H45.7z"/>
		</g>
		<g class="st2">
			<path class="st3" d="M51.4,152.8l2.5-7.5h1.8l2.6,7.5h-1.2l-0.7-2.2h-3.1l-0.7,2.2H51.4z M54.9,145.8l-1.3,3.9h2.5L54.9,145.8z"
				/>
			<path class="st3" d="M64.5,145.4h1.1v7.5h-2.1l-3.1-7h0v7h-1.1v-7.5h2l3.3,7h0V145.4z"/>
		</g>
		<g class="st2">
			<path class="st3" d="M66.6,146.3v-1h5.7v1H70v6.5h-1.1v-6.5H66.6z"/>
		</g>
		<g class="st2">
			<path class="st3" d="M74.4,151.9h4.2v0.9h-5.3v-7.5h5.2v1h-4.1v2.3h3.2v0.9h-3.2V151.9z"/>
		</g>
		<g class="st2">
			<path class="st3" d="M18.6,164.2c0,1-0.2,1.7-0.6,2.3c-0.4,0.5-0.9,0.9-1.6,1.1c-0.7,0.2-1.5,0.3-2.4,0.3h-2v-7.5h2
				c0.9,0,1.7,0.1,2.4,0.4c0.7,0.3,1.2,0.7,1.6,1.2C18.4,162.7,18.6,163.4,18.6,164.2z M13.1,167h1.2c0.6,0,1.2-0.1,1.6-0.2
				c0.5-0.1,0.8-0.4,1.1-0.8s0.4-1,0.4-1.8c0-0.9-0.3-1.6-0.9-2.1c-0.6-0.5-1.3-0.7-2.3-0.7h-1.2V167z"/>
			<path class="st3" d="M20.8,167h4.2v0.9h-5.3v-7.5h5.2v1h-4.1v2.3H24v0.9h-3.2V167z"/>
			<path class="st3" d="M30.5,167.9h-1.1v-7.5h2.9c0.8,0,1.5,0.2,1.9,0.6c0.5,0.4,0.7,1,0.7,1.8c0,0.7-0.2,1.3-0.7,1.7
				s-1.1,0.6-1.9,0.6h-1.8V167.9z M32.1,161.4h-1.7v3h1.7c0.5,0,0.9-0.1,1.3-0.4c0.3-0.2,0.5-0.6,0.5-1.1c0-0.5-0.2-0.9-0.5-1.1
				C33.1,161.5,32.7,161.4,32.1,161.4z"/>
			<path class="st3" d="M39.1,168.1c-1.2,0-2.1-0.3-2.7-1c-0.6-0.7-0.9-1.6-0.9-2.8c0-0.8,0.1-1.5,0.4-2.1c0.3-0.6,0.7-1,1.2-1.4
				s1.2-0.5,2.1-0.5c1.2,0,2.1,0.4,2.7,1.1c0.6,0.7,0.9,1.6,0.9,2.8c0,0.8-0.1,1.5-0.4,2c-0.3,0.6-0.7,1-1.2,1.4
				C40.5,167.9,39.9,168.1,39.1,168.1z M39,167c0.9,0,1.5-0.3,1.9-0.8s0.7-1.2,0.7-2c0-0.8-0.2-1.5-0.6-2.1
				c-0.4-0.5-1.1-0.8-1.9-0.8c-0.8,0-1.5,0.3-1.9,0.8c-0.4,0.5-0.7,1.2-0.7,2.1c0,0.5,0.1,1,0.3,1.5s0.5,0.8,0.9,1
				C38,166.9,38.5,167,39,167z"/>
			<path class="st3" d="M44,167.9v-7.5h2.8c0.3,0,0.6,0,0.9,0.1c0.3,0,0.7,0.1,0.9,0.3c0.3,0.1,0.5,0.3,0.7,0.6s0.3,0.6,0.3,1.1
				c0,0.3-0.1,0.5-0.2,0.8c-0.1,0.2-0.3,0.4-0.6,0.6c-0.3,0.2-0.7,0.2-1.2,0.3c0.6,0,1.1,0.1,1.5,0.3c0.3,0.2,0.6,0.4,0.7,0.7
				c0.1,0.3,0.2,0.6,0.2,0.9c0,0.5-0.1,0.8-0.3,1.1s-0.5,0.5-0.8,0.6c-0.3,0.1-0.7,0.2-1,0.2c-0.4,0-0.7,0.1-1,0.1H44z M45,163.6
				h1.6c0.4,0,0.7,0,1-0.1c0.3,0,0.5-0.1,0.7-0.3c0.2-0.2,0.3-0.4,0.3-0.7c0-0.4-0.1-0.6-0.3-0.8s-0.4-0.3-0.7-0.3
				c-0.3,0-0.6-0.1-0.9-0.1H45V163.6z M45,167h1.8c0.4,0,0.7,0,1-0.1c0.3,0,0.6-0.2,0.8-0.3c0.2-0.2,0.3-0.4,0.3-0.8
				c0-0.4-0.1-0.7-0.3-0.8s-0.5-0.3-0.8-0.4s-0.7-0.1-1.1-0.1H45V167z"/>
			<path class="st3" d="M51.3,167.9v-7.5h1.1v6.5h3.9v1H51.3z"/>
			<path class="st3" d="M57,167.9l2.5-7.5h1.8l2.6,7.5h-1.2l-0.7-2.2h-3.1l-0.7,2.2H57z M60.4,160.9l-1.3,3.9h2.5L60.4,160.9z"/>
			<path class="st3" d="M68,168.1c-0.7,0-1.3-0.1-1.9-0.4c-0.6-0.3-1-0.7-1.3-1.3s-0.5-1.3-0.5-2.1c0-0.8,0.2-1.6,0.5-2.1
				c0.3-0.6,0.8-1,1.3-1.3c0.6-0.3,1.2-0.4,1.9-0.4c1,0,1.7,0.3,2.3,0.8c0.6,0.5,1,1.2,1.1,2h-1.1c-0.1-0.4-0.2-0.8-0.5-1
				c-0.2-0.3-0.5-0.4-0.8-0.6s-0.7-0.2-1-0.2c-0.8,0-1.5,0.2-2,0.7s-0.7,1.2-0.7,2.1c0,0.9,0.2,1.7,0.7,2.1s1.1,0.7,1.9,0.7
				c0.6,0,1.1-0.1,1.5-0.4c0.5-0.3,0.7-0.7,0.8-1.4h1.2c-0.2,0.8-0.5,1.5-1.1,2S69.1,168.1,68,168.1z"/>
			<path class="st3" d="M75.9,167v1h-3.1v-1h1v-5.6h-1v-1h3.1v1h-1v5.6H75.9z"/>
			<path class="st3" d="M80.7,168.1c-1.2,0-2.1-0.3-2.7-1c-0.6-0.7-0.9-1.6-0.9-2.8c0-0.8,0.1-1.5,0.4-2.1c0.3-0.6,0.7-1,1.2-1.4
				s1.2-0.5,2.1-0.5c1.2,0,2.1,0.4,2.7,1.1c0.6,0.7,0.9,1.6,0.9,2.8c0,0.8-0.1,1.5-0.4,2c-0.3,0.6-0.7,1-1.2,1.4
				C82.2,167.9,81.5,168.1,80.7,168.1z M80.7,167c0.9,0,1.5-0.3,1.9-0.8s0.7-1.2,0.7-2c0-0.8-0.2-1.5-0.6-2.1
				c-0.4-0.5-1.1-0.8-1.9-0.8c-0.8,0-1.5,0.3-1.9,0.8c-0.4,0.5-0.7,1.2-0.7,2.1c0,0.5,0.1,1,0.3,1.5s0.5,0.8,0.9,1
				C79.7,166.9,80.1,167,80.7,167z M81,159.8h-0.5v-0.2l0.6-1.3h1v0.2L81,159.8z"/>
			<path class="st3" d="M90.9,160.5H92v7.5h-2.1l-3.1-7h0v7h-1.1v-7.5h2l3.3,7h0V160.5z"/>
		</g>
		<g class="st2">
			<path class="st3" d="M128.6,184.4c-0.6,0-1.2-0.1-1.6-0.3c-0.4-0.2-0.7-0.5-1-0.8c-0.2-0.3-0.4-0.7-0.4-1l1.6-0.2
				c0,0.1,0.1,0.2,0.2,0.4c0.1,0.2,0.2,0.3,0.5,0.5c0.2,0.1,0.5,0.2,0.8,0.2c0.4,0,0.8-0.1,1-0.4c0.2-0.3,0.4-0.5,0.4-0.8
				c0-0.2,0-0.5-0.1-0.7c-0.1-0.2-0.2-0.4-0.5-0.5c-0.2-0.1-0.5-0.2-0.8-0.2c-0.3,0-0.5,0.1-0.7,0.2c-0.2,0.1-0.3,0.2-0.4,0.3
				c-0.1,0.1-0.1,0.2-0.1,0.2l-1.7-0.3l0.4-4h5v1.4h-3.9l-0.2,2.2c0.1-0.2,0.3-0.4,0.5-0.5c0.2-0.1,0.4-0.3,0.6-0.4
				c0.3-0.1,0.6-0.2,0.9-0.2c0.6,0,1.1,0.1,1.4,0.4c0.4,0.2,0.6,0.6,0.8,0.9c0.2,0.4,0.2,0.8,0.2,1.2c0,0.4-0.2,0.8-0.4,1.2
				c-0.3,0.4-0.6,0.7-1,1C129.7,184.3,129.2,184.4,128.6,184.4z"/>
			<path class="st3" d="M135.9,184.4c-0.6,0-1.2-0.1-1.7-0.3c-0.5-0.2-0.9-0.4-1.2-0.8c-0.3-0.3-0.4-0.7-0.4-1.2
				c0-0.5,0.2-0.9,0.5-1.3c0.3-0.4,0.8-0.6,1.4-0.6c-0.4-0.1-0.7-0.2-1-0.4c-0.2-0.2-0.4-0.4-0.4-0.7s-0.1-0.4-0.1-0.6
				c0-0.4,0.1-0.7,0.4-1c0.2-0.3,0.6-0.5,1-0.7c0.4-0.2,0.9-0.3,1.5-0.3c0.9,0,1.6,0.2,2.1,0.6c0.5,0.4,0.8,0.9,0.8,1.4
				c0,0.2,0,0.3-0.1,0.6s-0.2,0.4-0.4,0.7c-0.2,0.2-0.5,0.3-1,0.4c0.6,0.1,1.1,0.3,1.4,0.6c0.3,0.3,0.5,0.8,0.5,1.3
				c0,0.5-0.1,0.9-0.4,1.2c-0.3,0.3-0.7,0.6-1.2,0.7S136.5,184.4,135.9,184.4z M135.9,183.2c0.5,0,0.9-0.1,1.2-0.3s0.5-0.5,0.5-0.9
				c0-0.4-0.2-0.8-0.5-1c-0.3-0.2-0.7-0.3-1.2-0.3c-0.5,0-0.9,0.1-1.2,0.3c-0.3,0.2-0.5,0.5-0.5,1c0,0.4,0.2,0.7,0.5,0.9
				C135,183.1,135.4,183.2,135.9,183.2z M135.9,180c0.4,0,0.8-0.1,1-0.3c0.3-0.2,0.4-0.4,0.4-0.7c0-0.4-0.1-0.6-0.4-0.8
				c-0.3-0.2-0.6-0.3-1-0.3c-0.4,0-0.8,0.1-1,0.3s-0.4,0.5-0.4,0.8c0,0.3,0.1,0.6,0.4,0.7C135.2,179.9,135.5,180,135.9,180z"/>
			<path class="st3" d="M141.6,179.8c-0.5,0-0.9-0.1-1.1-0.4c-0.2-0.3-0.4-0.7-0.4-1.1c0-0.5,0.1-0.9,0.3-1.2s0.6-0.4,1.1-0.4
				c0.5,0,0.9,0.1,1.1,0.4s0.4,0.7,0.4,1.2c0,0.5-0.1,0.8-0.4,1.1S142.1,179.8,141.6,179.8z M141.6,184.3l-1.1-0.8l3.2-3.3l2.5-3.5
				l1.1,0.8l-3.1,3.1L141.6,184.3z M141.5,178.8c0.2,0,0.3-0.1,0.4-0.2c0.1-0.1,0.1-0.2,0.1-0.4s0-0.3-0.1-0.4
				c-0.1-0.1-0.2-0.2-0.4-0.2c-0.2,0-0.3,0.1-0.4,0.2c-0.1,0.1-0.1,0.3-0.1,0.4s0,0.3,0.1,0.4C141.2,178.8,141.4,178.8,141.5,178.8z
				 M146.2,184.4c-0.5,0-0.9-0.1-1.1-0.4c-0.2-0.3-0.4-0.7-0.4-1.2c0-0.5,0.1-0.8,0.3-1.1c0.2-0.3,0.6-0.4,1.1-0.4s0.9,0.1,1.1,0.4
				c0.2,0.3,0.4,0.7,0.4,1.1c0,0.5-0.1,0.9-0.4,1.1C147.1,184.3,146.7,184.4,146.2,184.4z M146.1,183.4c0.2,0,0.3-0.1,0.4-0.2
				c0.1-0.1,0.1-0.3,0.1-0.4s0-0.3-0.1-0.4c-0.1-0.1-0.2-0.2-0.4-0.2c-0.2,0-0.3,0.1-0.4,0.2c-0.1,0.1-0.1,0.3-0.1,0.4
				s0,0.3,0.1,0.4C145.8,183.4,146,183.4,146.1,183.4z"/>
		</g>
		<g class="st2">
		</g>
		<g class="st2">
			<path class="st3" d="M115.1,191.9h1.2l-2.5,7.5h-1.8l-2.5-7.5h1.2l2.3,7L115.1,191.9z"/>
		</g>
		<g class="st2">
			<path class="st3" d="M120.5,198.5v1h-3.1v-1h1v-5.6h-1v-1h3.1v1h-1v5.6H120.5z M119.1,191.3h-0.5v-0.2l0.6-1.3h1v0.2L119.1,191.3
				z"/>
			<path class="st3" d="M125.3,199.5c-0.7,0-1.3-0.1-1.9-0.4c-0.6-0.3-1-0.7-1.3-1.3s-0.5-1.3-0.5-2.1c0-0.8,0.2-1.6,0.5-2.1
				c0.3-0.6,0.8-1,1.3-1.3c0.6-0.3,1.2-0.4,1.9-0.4c1,0,1.7,0.3,2.3,0.8c0.6,0.5,1,1.2,1.1,2h-1.1c-0.1-0.4-0.2-0.8-0.5-1
				c-0.2-0.3-0.5-0.4-0.8-0.6s-0.7-0.2-1-0.2c-0.8,0-1.5,0.2-2,0.7c-0.5,0.5-0.7,1.2-0.7,2.1c0,0.9,0.2,1.7,0.7,2.1
				c0.5,0.5,1.1,0.7,1.9,0.7c0.6,0,1.1-0.1,1.5-0.4c0.5-0.3,0.7-0.7,0.8-1.4h1.2c-0.2,0.8-0.5,1.5-1.1,2
				C127.2,199.3,126.4,199.5,125.3,199.5z"/>
			<path class="st3" d="M129.4,192.9v-1h5.7v1h-2.3v6.5h-1.1v-6.5H129.4z"/>
			<path class="st3" d="M139.3,198.5v1h-3.1v-1h1v-5.6h-1v-1h3.1v1h-1v5.6H139.3z"/>
			<path class="st3" d="M140.9,199.4v-7.5h1.9l2.1,7h0l2.1-7h1.9v7.5h-1.1l0.1-7h0l-2.1,7h-1.6l-2.1-7h0l0.1,7H140.9z"/>
			<path class="st3" d="M150,199.4l2.5-7.5h1.8l2.6,7.5h-1.2l-0.7-2.2h-3.1l-0.7,2.2H150z M153.4,192.4l-1.3,3.9h2.5L153.4,192.4z"
				/>
			<path class="st3" d="M160.7,199.6c-0.5,0-1.1-0.1-1.6-0.3c-0.5-0.2-0.9-0.4-1.2-0.8s-0.5-0.9-0.5-1.5h1.1c0,0,0,0.1,0,0.3
				c0,0.2,0.1,0.3,0.3,0.5c0.1,0.2,0.4,0.4,0.7,0.5c0.3,0.1,0.7,0.2,1.3,0.2c0.4,0,0.8-0.1,1-0.2c0.3-0.1,0.4-0.3,0.5-0.4
				c0.1-0.2,0.2-0.3,0.2-0.5c0-0.3-0.1-0.5-0.3-0.7c-0.2-0.2-0.4-0.3-0.7-0.4c-0.3-0.1-0.6-0.2-1-0.3s-0.7-0.2-1-0.3
				c-0.3-0.1-0.7-0.2-1-0.4c-0.3-0.2-0.5-0.4-0.7-0.7c-0.2-0.3-0.2-0.6-0.2-1c0-0.6,0.3-1.1,0.9-1.4c0.6-0.3,1.3-0.5,2.1-0.5
				c0.5,0,1,0.1,1.4,0.3c0.4,0.2,0.8,0.5,1.1,0.8s0.4,0.8,0.4,1.4h-1.1c0-0.3-0.1-0.6-0.2-0.8s-0.3-0.3-0.5-0.4
				c-0.2-0.1-0.4-0.2-0.6-0.2c-0.2,0-0.4-0.1-0.6-0.1c-0.5,0-0.9,0.1-1.2,0.3c-0.3,0.2-0.5,0.4-0.5,0.8c0,0.3,0.1,0.5,0.3,0.7
				s0.4,0.3,0.7,0.4s0.6,0.2,1,0.3c0.3,0.1,0.7,0.2,1,0.3s0.7,0.2,1,0.4s0.5,0.4,0.7,0.7c0.2,0.3,0.2,0.6,0.2,1.1
				c0,0.4-0.2,0.8-0.4,1.1s-0.6,0.5-1.1,0.7C161.8,199.5,161.3,199.6,160.7,199.6z"/>
		</g>
		<g class="st2">
			<path class="st3" d="M102.2,210.8c0,1-0.2,1.7-0.6,2.3c-0.4,0.5-0.9,0.9-1.6,1.1c-0.7,0.2-1.5,0.3-2.4,0.3h-2V207h2
				c0.9,0,1.7,0.1,2.4,0.4c0.7,0.3,1.2,0.7,1.6,1.2C102,209.2,102.2,209.9,102.2,210.8z M96.7,213.6h1.2c0.6,0,1.2-0.1,1.6-0.2
				c0.5-0.1,0.8-0.4,1.1-0.8s0.4-1,0.4-1.8c0-0.9-0.3-1.6-0.9-2.1c-0.6-0.5-1.3-0.7-2.3-0.7h-1.2V213.6z"/>
			<path class="st3" d="M104.5,213.6h4.2v0.9h-5.3V207h5.2v1h-4.1v2.3h3.2v0.9h-3.2V213.6z"/>
			<path class="st3" d="M110.1,214.5V207h1.1v6.5h3.9v1H110.1z"/>
			<path class="st3" d="M122.4,214.6c-0.7,0-1.3-0.1-1.9-0.4c-0.6-0.3-1-0.7-1.3-1.3s-0.5-1.3-0.5-2.1c0-0.8,0.2-1.6,0.5-2.1
				s0.8-1,1.3-1.3c0.6-0.3,1.2-0.4,1.9-0.4c1,0,1.7,0.3,2.3,0.8s1,1.2,1.1,2h-1.1c-0.1-0.4-0.2-0.8-0.5-1s-0.5-0.4-0.8-0.6
				s-0.7-0.2-1-0.2c-0.8,0-1.5,0.2-2,0.7c-0.5,0.5-0.7,1.2-0.7,2.1c0,0.9,0.2,1.7,0.7,2.1c0.5,0.5,1.1,0.7,1.9,0.7
				c0.6,0,1.1-0.1,1.5-0.4c0.5-0.3,0.7-0.7,0.8-1.4h1.2c-0.2,0.8-0.5,1.5-1.1,2C124.3,214.4,123.5,214.6,122.4,214.6z"/>
			<path class="st3" d="M130.4,214.7c-1.2,0-2.1-0.3-2.7-1c-0.6-0.7-0.9-1.6-0.9-2.8c0-0.8,0.1-1.5,0.4-2.1c0.3-0.6,0.7-1,1.2-1.4
				c0.5-0.3,1.2-0.5,2.1-0.5c1.2,0,2.1,0.4,2.7,1.1c0.6,0.7,0.9,1.6,0.9,2.8c0,0.8-0.1,1.5-0.4,2s-0.7,1-1.2,1.4
				C131.8,214.5,131.2,214.7,130.4,214.7z M130.3,213.6c0.9,0,1.5-0.3,1.9-0.8s0.7-1.2,0.7-2c0-0.8-0.2-1.5-0.6-2.1
				c-0.4-0.5-1.1-0.8-1.9-0.8c-0.8,0-1.5,0.3-1.9,0.8c-0.4,0.5-0.7,1.2-0.7,2.1c0,0.5,0.1,1,0.3,1.5c0.2,0.4,0.5,0.8,0.9,1
				C129.3,213.5,129.8,213.6,130.3,213.6z"/>
			<path class="st3" d="M140.5,207h1.1v7.5h-2.1l-3.1-7h0v7h-1.1V207h2l3.3,7h0V207z"/>
			<path class="st3" d="M144.4,214.5h-1.1V207h5.2v1h-4.2v2.1h3.2v0.9h-3.2V214.5z"/>
			<path class="st3" d="M149.6,214.5V207h1.1v6.5h3.9v1H149.6z"/>
			<path class="st3" d="M158.8,213.6v1h-3.1v-1h1V208h-1v-1h3.1v1h-1v5.6H158.8z"/>
			<path class="st3" d="M163.7,214.6c-0.7,0-1.3-0.1-1.9-0.4c-0.6-0.3-1-0.7-1.3-1.3s-0.5-1.3-0.5-2.1c0-0.8,0.2-1.6,0.5-2.1
				c0.3-0.6,0.8-1,1.3-1.3c0.6-0.3,1.2-0.4,1.9-0.4c1,0,1.7,0.3,2.3,0.8c0.6,0.5,1,1.2,1.1,2h-1.1c-0.1-0.4-0.2-0.8-0.5-1
				c-0.2-0.3-0.5-0.4-0.8-0.6s-0.7-0.2-1-0.2c-0.8,0-1.5,0.2-2,0.7c-0.5,0.5-0.7,1.2-0.7,2.1c0,0.9,0.2,1.7,0.7,2.1
				c0.5,0.5,1.1,0.7,1.9,0.7c0.6,0,1.1-0.1,1.5-0.4c0.5-0.3,0.7-0.7,0.8-1.4h1.2c-0.2,0.8-0.5,1.5-1.1,2
				C165.5,214.4,164.7,214.6,163.7,214.6z"/>
			<path class="st3" d="M167.8,208v-1h5.7v1h-2.3v6.5h-1.1V208H167.8z"/>
			<path class="st3" d="M177.7,214.7c-1.2,0-2.1-0.3-2.7-1c-0.6-0.7-0.9-1.6-0.9-2.8c0-0.8,0.1-1.5,0.4-2.1c0.3-0.6,0.7-1,1.2-1.4
				c0.5-0.3,1.2-0.5,2.1-0.5c1.2,0,2.1,0.4,2.7,1.1c0.6,0.7,0.9,1.6,0.9,2.8c0,0.8-0.1,1.5-0.4,2s-0.7,1-1.2,1.4
				C179.2,214.5,178.5,214.7,177.7,214.7z M177.7,213.6c0.9,0,1.5-0.3,1.9-0.8s0.7-1.2,0.7-2c0-0.8-0.2-1.5-0.6-2.1
				c-0.4-0.5-1.1-0.8-1.9-0.8c-0.8,0-1.5,0.3-1.9,0.8c-0.4,0.5-0.7,1.2-0.7,2.1c0,0.5,0.1,1,0.3,1.5c0.2,0.4,0.5,0.8,0.9,1
				C176.6,213.5,177.1,213.6,177.7,213.6z"/>
		</g>
		<g class="st2">
			<path class="st0" d="M73.2,36.7V24.6h-2.4V23h0.8v-0.8h0.8v-0.8h0.8v-0.8h2.4v16.2H73.2z"/>
			<path class="st0" d="M81.6,36.7v-0.8h-1.6v-1.6h-0.8v-2.4h-0.8v-6.5h0.8V23h0.8v-1.6h1.6v-0.8h5.7v0.8h1.6V23h0.8v2.4h0.8v6.5
				h-0.8v2.4h-0.8v1.6h-1.6v0.8H81.6z M86.4,34.3v-0.8h0.8v-2.4H88v-4.9h-0.8v-2.4h-0.8V23h-4.1v0.8h-0.8v2.4h-0.8v4.9h0.8v2.4h0.8
				v0.8H86.4z"/>
			<path class="st0" d="M92.4,39.2v-0.8h0.8v-0.8H94v-0.8h-1.6v-2.4h2.4v4.1H94v0.8H92.4z"/>
			<path class="st0" d="M100.7,36.7v-0.8h-1.6v-1.6h-0.8v-2.4h-0.8v-6.5h0.8V23h0.8v-1.6h1.6v-0.8h5.7v0.8h1.6V23h0.8v2.4h0.8v6.5
				h-0.8v2.4H108v1.6h-1.6v0.8H100.7z M105.5,34.3v-0.8h0.8v-2.4h0.8v-4.9h-0.8v-2.4h-0.8V23h-4.1v0.8h-0.8v2.4h-0.8v4.9h0.8v2.4
				h0.8v0.8H105.5z"/>
			<path class="st0" d="M115.2,36.7v-0.8h-1.6v-1.6h-0.8v-2.4H112v-6.5h0.8V23h0.8v-1.6h1.6v-0.8h5.7v0.8h1.6V23h0.8v2.4h0.8v6.5
				h-0.8v2.4h-0.8v1.6h-1.6v0.8H115.2z M120.1,34.3v-0.8h0.8v-2.4h0.8v-4.9h-0.8v-2.4h-0.8V23H116v0.8h-0.8v2.4h-0.8v4.9h0.8v2.4
				h0.8v0.8H120.1z"/>
			<path class="st0" d="M128.6,36.7v-3.2h0.8v-1.6h0.8v-2.4h0.8v-1.6h0.8v-1.6h0.8v-1.6h0.8v-0.8h0.8V23h-8.9v-2.4h12.2V23h-0.8v1.6
				h-0.8v0.8h-0.8V27h-0.8v1.6h-0.8v1.6h-0.8v1.6h-0.8v2.4h-0.8v2.4H128.6z"/>
		</g>
		<g class="st2">
			<path class="st0" d="M74.7,11.3h-1.5V4.5h2.8c0.8,0,1.4,0.2,1.8,0.6s0.6,1,0.6,1.7c0,0.7-0.2,1.2-0.7,1.6S76.8,9,76.1,9h-1.3
				V11.3z M75.9,5.7h-1.1V8h1.1c0.4,0,0.7-0.1,1-0.3c0.3-0.2,0.4-0.5,0.4-0.8c0-0.4-0.1-0.7-0.4-0.9C76.6,5.8,76.2,5.7,75.9,5.7z"/>
			<path class="st0" d="M82.3,11.5c-1.1,0-1.9-0.3-2.5-1S78.9,9,78.9,7.9c0-0.7,0.1-1.3,0.4-1.9s0.6-0.9,1.1-1.2
				c0.5-0.3,1.1-0.4,1.9-0.4c1.1,0,2,0.3,2.5,1c0.6,0.6,0.9,1.5,0.9,2.6c0,0.7-0.1,1.3-0.4,1.8c-0.3,0.5-0.6,0.9-1.1,1.2
				C83.6,11.3,83,11.5,82.3,11.5z M82.3,10.1c0.4,0,0.8-0.1,1.1-0.3C83.7,9.6,83.9,9.3,84,9c0.1-0.3,0.2-0.7,0.2-1.1
				c0-0.4-0.1-0.8-0.2-1.1s-0.4-0.6-0.7-0.8c-0.3-0.2-0.7-0.3-1.1-0.3c-0.6,0-1.1,0.2-1.5,0.6c-0.3,0.4-0.5,0.9-0.5,1.6
				c0,0.4,0.1,0.7,0.2,1.1c0.1,0.3,0.4,0.6,0.7,0.8C81.4,10,81.8,10.1,82.3,10.1z"/>
			<path class="st0" d="M86.7,11.3V4.5h2.8c0.2,0,0.5,0,0.8,0s0.6,0.1,0.9,0.2c0.3,0.1,0.5,0.3,0.7,0.5c0.2,0.2,0.3,0.6,0.3,1
				c0,0.3-0.1,0.5-0.1,0.7c-0.1,0.2-0.3,0.4-0.6,0.5c-0.3,0.1-0.7,0.2-1.2,0.2v0c0.6,0,1,0.1,1.3,0.2c0.3,0.1,0.5,0.3,0.7,0.6
				c0.1,0.2,0.2,0.5,0.2,0.8c0,0.4-0.1,0.7-0.2,0.9c-0.1,0.2-0.3,0.4-0.5,0.5c-0.2,0.1-0.5,0.2-0.7,0.3s-0.5,0.1-0.8,0.1
				c-0.3,0-0.5,0-0.7,0H86.7z M88.1,7.3h1.2c0.2,0,0.5,0,0.7,0c0.2,0,0.4-0.1,0.5-0.2c0.1-0.1,0.2-0.3,0.2-0.5
				c0-0.2-0.1-0.4-0.2-0.5c-0.1-0.1-0.3-0.2-0.5-0.2c-0.2,0-0.5,0-0.7,0h-1.2V7.3z M88.1,10.1h1.3c0.3,0,0.6,0,0.8,0
				s0.4-0.1,0.6-0.2S91,9.5,91,9.2s-0.1-0.5-0.2-0.6c-0.2-0.1-0.4-0.2-0.6-0.2c-0.3,0-0.5,0-0.8,0h-1.2V10.1z"/>
			<path class="st0" d="M93.7,11.3V4.5h1.5v5.5h3.1v1.2H93.7z"/>
			<path class="st0" d="M98.8,11.3l2.1-6.8h2.4l2.1,6.8h-1.5l-0.5-1.8h-2.4l-0.5,1.8H98.8z M102.1,5.1l-0.9,3.2h1.8L102.1,5.1z"/>
			<path class="st0" d="M109.2,11.4c-0.6,0-1.2-0.1-1.7-0.4c-0.5-0.3-0.9-0.6-1.2-1.2c-0.3-0.5-0.5-1.1-0.4-1.9
				c0-0.8,0.2-1.4,0.5-1.9s0.7-0.9,1.2-1.2c0.5-0.3,1.1-0.4,1.8-0.4c0.6,0,1.2,0.1,1.7,0.3c0.5,0.2,0.8,0.5,1.1,0.9
				c0.3,0.4,0.4,0.8,0.5,1.3h-1.5c0-0.3-0.2-0.6-0.4-0.8c-0.2-0.2-0.4-0.3-0.7-0.4c-0.3-0.1-0.5-0.1-0.7-0.1c-0.7,0-1.2,0.2-1.5,0.5
				c-0.3,0.4-0.5,0.9-0.5,1.5c0,0.7,0.2,1.2,0.5,1.6c0.3,0.4,0.8,0.6,1.5,0.6c0.2,0,0.5,0,0.7-0.1c0.3-0.1,0.5-0.2,0.7-0.4
				c0.2-0.2,0.3-0.4,0.4-0.8h1.5c-0.1,0.5-0.3,0.9-0.5,1.3c-0.3,0.4-0.6,0.7-1.1,1S109.8,11.4,109.2,11.4z"/>
			<path class="st0" d="M116.7,10.1v1.2h-3.2v-1.2h0.9V5.8h-0.9V4.5h3.2v1.2h-0.9v4.3H116.7z"/>
			<path class="st0" d="M121.2,11.5c-1.1,0-1.9-0.3-2.5-1s-0.9-1.5-0.9-2.6c0-0.7,0.1-1.3,0.4-1.9s0.6-0.9,1.1-1.2
				c0.5-0.3,1.1-0.4,1.9-0.4c1.1,0,2,0.3,2.5,1c0.6,0.6,0.9,1.5,0.9,2.6c0,0.7-0.1,1.3-0.4,1.8c-0.3,0.5-0.6,0.9-1.1,1.2
				C122.5,11.3,121.9,11.5,121.2,11.5z M121.1,10.1c0.4,0,0.8-0.1,1.1-0.3c0.3-0.2,0.5-0.4,0.7-0.8c0.1-0.3,0.2-0.7,0.2-1.1
				c0-0.4-0.1-0.8-0.2-1.1c-0.1-0.3-0.4-0.6-0.7-0.8c-0.3-0.2-0.7-0.3-1.1-0.3c-0.6,0-1.1,0.2-1.5,0.6s-0.5,0.9-0.5,1.6
				c0,0.4,0.1,0.7,0.2,1.1s0.4,0.6,0.7,0.8C120.3,10,120.7,10.1,121.1,10.1z M121.6,4H121V3.8l0.5-1.2h1.2v0.2L121.6,4z"/>
			<path class="st0" d="M130.2,4.5h1.5v6.8h-2.8l-1.8-6.1h0v6.1h-1.5V4.5h2.6l2,6.1h0V4.5z"/>
			<path class="st0" d="M133.9,8.3c-0.3,0-0.5-0.1-0.7-0.2S133,7.7,133,7.5c0-0.2,0.1-0.4,0.2-0.6s0.3-0.2,0.7-0.2
				c0.3,0,0.5,0.1,0.6,0.2c0.1,0.2,0.2,0.4,0.2,0.6c0,0.2-0.1,0.4-0.2,0.6C134.4,8.2,134.2,8.3,133.9,8.3z M133.9,11
				c-0.3,0-0.6-0.1-0.7-0.2s-0.2-0.4-0.2-0.6c0-0.2,0.1-0.4,0.2-0.6s0.3-0.2,0.7-0.2c0.3,0,0.5,0.1,0.6,0.2c0.1,0.2,0.2,0.3,0.2,0.6
				c0,0.2-0.1,0.4-0.2,0.6C134.4,10.9,134.2,11,133.9,11z"/>
		</g>
		<g>
			<polygon class="st0" points="145,44 141.1,44 141.1,43 144,43 144,41.2 145.8,41.2 145.8,25.7 147.5,25.7 147.5,23.9 149.2,23.9 
				149.2,22.2 151,22.2 151,21.5 149.2,21.5 149.2,19.7 147.5,19.7 147.5,18 145.8,18 145.8,4.1 144,4.1 144,2.4 141.1,2.4 
				141.1,1.4 145,1.4 145,3.1 146.8,3.1 146.8,17 148.5,17 148.5,18.7 150.2,18.7 150.2,20.5 152,20.5 152,23.2 150.2,23.2 
				150.2,24.9 148.5,24.9 148.5,26.7 146.8,26.7 146.8,42.2 145,42.2 			"/>
		</g>
		<g>
			<polygon class="st0" points="66.5,42.5 62.6,42.5 62.6,40.8 60.9,40.8 60.9,27 59.1,27 59.1,25.2 57.4,25.2 57.4,23.5 55.7,23.5 
				55.7,20.8 57.4,20.8 57.4,19 59.1,19 59.1,17.3 60.9,17.3 60.9,1.7 62.6,1.7 62.6,0 66.5,0 66.5,1 63.6,1 63.6,2.7 61.9,2.7 
				61.9,18.3 60.1,18.3 60.1,20 58.4,20 58.4,21.8 56.7,21.8 56.7,22.5 58.4,22.5 58.4,24.2 60.1,24.2 60.1,26 61.9,26 61.9,39.8 
				63.6,39.8 63.6,41.5 66.5,41.5 			"/>
		</g>
	</g>
</g>
</svg>
