<?xml version="1.0" encoding="utf-8"?>
<!-- Generator: Adobe Illustrator 24.1.2, SVG Export Plug-In . SVG Version: 6.00 Build 0)  -->
<svg version="1.1" id="Capa_1" xmlns="http://www.w3.org/2000/svg" xmlns:xlink="http://www.w3.org/1999/xlink" x="0px" y="0px"
	 viewBox="0 0 207.6 277" style="enable-background:new 0 0 207.6 277;" xml:space="preserve">
<style type="text/css">
	.st0{fill:#AE90FF;}
	.st1{fill:#7945FF;}
	.st2{enable-background:new    ;}
	.st3{fill:#FFFFFF;}
</style>
<g id="bc61a0b8-6357-45f7-945c-9ebba1431af1">
	<g id="a619dee2-4408-4412-9539-c4cee15213bd">
		<g>
			<circle class="st0" cx="103.8" cy="173.2" r="103.8"/>
		</g>
		<g>
			<path class="st1" d="M103.8,173.2l-0.3-103.8c56.9-0.2,103.9,46.6,104.1,103.5S161.1,276.9,104.1,277
				c-29,0.1-56.7-11.9-76.4-33.2L103.8,173.2z"/>
		</g>
		<g class="st2">
			<path class="st3" d="M39.3,136.3v-1.4c0.5-0.2,0.9-0.5,1.2-0.8c0.4-0.4,0.7-0.8,0.9-1.2c0.2-0.4,0.4-0.9,0.5-1.4
				c0.1-0.5,0.2-0.9,0.2-1.3h1.7c0,0.5-0.1,1.1-0.4,1.7c-0.2,0.6-0.6,1.1-1,1.7c-0.4,0.5-1,1-1.6,1.4H43v-1h1.6v1h0.9v1.4h-0.9v1.4
				H43v-1.4H39.3z"/>
			<path class="st3" d="M46.6,137.7v-1.3c0,0,0.1-0.1,0.3-0.2c0.2-0.1,0.5-0.2,0.8-0.4s0.7-0.4,1.1-0.6c0.4-0.2,0.7-0.5,1-0.8
				c0.3-0.3,0.6-0.6,0.7-1c0.2-0.4,0.2-0.7,0.2-1s-0.2-0.5-0.5-0.7c-0.2-0.2-0.5-0.2-0.8-0.2c-0.5,0-0.8,0.2-1.1,0.5
				c-0.3,0.3-0.3,0.8-0.2,1.5l-1.5-0.2c-0.1-0.7,0-1.2,0.2-1.7c0.2-0.5,0.6-0.8,1.1-1.1c0.5-0.2,1-0.4,1.6-0.4
				c0.5,0,0.9,0.1,1.3,0.3c0.4,0.2,0.7,0.4,1,0.7c0.2,0.3,0.4,0.7,0.4,1.1s-0.1,0.8-0.3,1.3c-0.2,0.4-0.4,0.7-0.7,1
				c-0.3,0.3-0.6,0.5-0.9,0.8c-0.3,0.2-0.7,0.4-1,0.6c-0.3,0.2-0.6,0.3-0.8,0.4c-0.2,0.1-0.4,0.1-0.5,0.2h4.3v1.4H46.6z"/>
			<path class="st3" d="M54.9,133.3c-0.5,0-0.9-0.1-1.1-0.4c-0.2-0.3-0.4-0.7-0.4-1.1c0-0.5,0.1-0.9,0.3-1.2
				c0.2-0.3,0.6-0.4,1.1-0.4c0.5,0,0.9,0.1,1.1,0.4c0.2,0.3,0.4,0.7,0.4,1.2c0,0.5-0.1,0.8-0.4,1.1
				C55.8,133.1,55.4,133.3,54.9,133.3z M54.9,137.7l-1.1-0.8l3.2-3.3l2.5-3.5l1.1,0.8l-3.1,3.1L54.9,137.7z M54.9,132.2
				c0.2,0,0.3-0.1,0.4-0.2c0.1-0.1,0.1-0.2,0.1-0.4s0-0.3-0.1-0.4s-0.2-0.2-0.4-0.2c-0.2,0-0.3,0.1-0.4,0.2s-0.1,0.3-0.1,0.4
				s0,0.3,0.1,0.4C54.6,132.2,54.7,132.2,54.9,132.2z M59.5,137.9c-0.5,0-0.9-0.1-1.1-0.4c-0.2-0.3-0.4-0.7-0.4-1.2
				c0-0.5,0.1-0.8,0.3-1.1c0.2-0.3,0.6-0.4,1.1-0.4s0.9,0.1,1.1,0.4c0.2,0.3,0.4,0.7,0.4,1.1c0,0.5-0.1,0.9-0.4,1.1
				C60.4,137.7,60,137.9,59.5,137.9z M59.5,136.8c0.2,0,0.3-0.1,0.4-0.2c0.1-0.1,0.1-0.3,0.1-0.4s0-0.3-0.1-0.4
				c-0.1-0.1-0.2-0.2-0.4-0.2c-0.2,0-0.3,0.1-0.4,0.2c-0.1,0.1-0.1,0.3-0.1,0.4s0,0.3,0.1,0.4C59.2,136.8,59.3,136.8,59.5,136.8z"/>
		</g>
		<g class="st2">
		</g>
		<g class="st2">
			<path class="st3" d="M20.6,152.8v-7.5h2.6c1,0,1.7,0.2,2.2,0.5s0.8,0.9,0.8,1.7c0,0.6-0.1,1-0.4,1.4c-0.3,0.4-0.7,0.6-1.3,0.6
				c0.3,0,0.6,0.1,0.8,0.2c0.2,0.2,0.3,0.3,0.3,0.6c0.1,0.2,0.1,0.5,0.1,0.7c0,0.2,0,0.5,0.1,0.7c0,0.2,0.1,0.3,0.2,0.4
				c0.1,0.1,0.3,0.1,0.5,0v0.7c-0.1,0.1-0.3,0.2-0.5,0.2s-0.4,0-0.6,0c-0.2-0.1-0.4-0.2-0.5-0.4c-0.1-0.2-0.2-0.5-0.2-0.9
				c0-0.5,0-0.8-0.1-1.1s-0.2-0.5-0.4-0.6s-0.5-0.2-0.9-0.2c-0.4,0-1,0-1.7,0v3.2H20.6z M21.7,148.8h1.5c0.5,0,0.8,0,1.1-0.1
				c0.3-0.1,0.5-0.2,0.7-0.4c0.1-0.2,0.2-0.4,0.2-0.8c0-0.4-0.1-0.7-0.3-0.9c-0.2-0.2-0.4-0.3-0.8-0.4s-0.8-0.1-1.2-0.1h-1.2V148.8z
				"/>
			<path class="st3" d="M28.9,151.9h4.2v0.9h-5.3v-7.5H33v1h-4.1v2.3h3.2v0.9h-3.2V151.9z"/>
			<path class="st3" d="M34.3,152.8v-7.5h1.9l2.1,7h0l2.1-7h1.9v7.5h-1.1l0.1-7h0l-2.1,7h-1.6l-2.1-7h0l0.1,7H34.3z"/>
			<path class="st3" d="M43.4,152.8l2.5-7.5h1.8l2.6,7.5h-1.2l-0.7-2.2h-3.1l-0.7,2.2H43.4z M46.8,145.8l-1.3,3.9h2.5L46.8,145.8z"
				/>
			<path class="st3" d="M54.4,151.9v1h-3.1v-1h1v-5.6h-1v-1h3.1v1h-1v5.6H54.4z"/>
			<path class="st3" d="M61.2,145.4h1.1v7.5h-2.1l-3.1-7h0v7H56v-7.5h2l3.3,7h0V145.4z"/>
			<path class="st3" d="M67,151.9v1h-3.1v-1h1v-5.6h-1v-1H67v1h-1v5.6H67z"/>
			<path class="st3" d="M73.9,145.4H75v7.5H73l-3.1-7h0v7h-1.1v-7.5h2l3.3,7h0V145.4z"/>
			<path class="st3" d="M79.7,153c-0.7,0-1.4-0.2-1.9-0.5s-0.9-0.7-1.2-1.3c-0.3-0.6-0.4-1.3-0.4-2.1c0-0.8,0.2-1.5,0.5-2.1
				s0.8-1,1.3-1.3s1.2-0.5,2-0.5c1,0,1.7,0.2,2.3,0.7c0.6,0.4,0.9,1.1,1.1,1.9l-1.1,0.1c-0.1-0.6-0.4-1-0.9-1.3
				c-0.4-0.3-0.9-0.4-1.5-0.4c-0.9,0-1.6,0.2-2,0.8c-0.4,0.5-0.7,1.2-0.7,2.1c0,0.9,0.2,1.6,0.7,2.1c0.5,0.5,1.2,0.8,2,0.8
				c0.6,0,1.1-0.2,1.6-0.5c0.4-0.3,0.7-0.8,0.8-1.4h-1.8v-0.8h2.9v3.6h-0.8l-0.3-1.5h0c-0.1,0.2-0.2,0.5-0.5,0.7
				c-0.2,0.3-0.5,0.5-0.9,0.6C80.7,152.9,80.2,153,79.7,153z"/>
		</g>
		<g class="st2">
			<path class="st3" d="M12.7,168.1c-1.2,0-2.1-0.3-2.7-1c-0.6-0.7-0.9-1.6-0.9-2.8c0-0.8,0.1-1.5,0.4-2.1c0.3-0.6,0.7-1,1.2-1.4
				s1.2-0.5,2.1-0.5c1.2,0,2.1,0.4,2.7,1.1c0.6,0.7,0.9,1.6,0.9,2.8c0,0.8-0.1,1.5-0.4,2c-0.3,0.6-0.7,1-1.2,1.4
				C14.2,167.9,13.5,168.1,12.7,168.1z M12.7,167c0.9,0,1.5-0.3,1.9-0.8s0.7-1.2,0.7-2c0-0.8-0.2-1.5-0.6-2.1
				c-0.4-0.5-1.1-0.8-1.9-0.8c-0.8,0-1.5,0.3-1.9,0.8c-0.4,0.5-0.7,1.2-0.7,2.1c0,0.5,0.1,1,0.3,1.5s0.5,0.8,0.9,1
				C11.6,166.9,12.1,167,12.7,167z"/>
			<path class="st3" d="M18.8,167.9h-1.1v-7.5H23v1h-4.2v2.1h3.2v0.9h-3.2V167.9z"/>
			<path class="st3" d="M28.1,167.9H27v-7.5h2.9c0.8,0,1.5,0.2,1.9,0.6c0.5,0.4,0.7,1,0.7,1.8c0,0.7-0.2,1.3-0.7,1.7
				s-1.1,0.6-1.9,0.6h-1.8V167.9z M29.8,161.4h-1.7v3h1.7c0.5,0,0.9-0.1,1.3-0.4c0.3-0.2,0.5-0.6,0.5-1.1c0-0.5-0.2-0.9-0.5-1.1
				C30.8,161.5,30.3,161.4,29.8,161.4z"/>
			<path class="st3" d="M36.7,168.1c-1.2,0-2.1-0.3-2.7-1c-0.6-0.7-0.9-1.6-0.9-2.8c0-0.8,0.1-1.5,0.4-2.1c0.3-0.6,0.7-1,1.2-1.4
				s1.2-0.5,2.1-0.5c1.2,0,2.1,0.4,2.7,1.1c0.6,0.7,0.9,1.6,0.9,2.8c0,0.8-0.1,1.5-0.4,2c-0.3,0.6-0.7,1-1.2,1.4
				C38.2,167.9,37.5,168.1,36.7,168.1z M36.7,167c0.9,0,1.5-0.3,1.9-0.8s0.7-1.2,0.7-2c0-0.8-0.2-1.5-0.6-2.1
				c-0.4-0.5-1.1-0.8-1.9-0.8c-0.8,0-1.5,0.3-1.9,0.8c-0.4,0.5-0.7,1.2-0.7,2.1c0,0.5,0.1,1,0.3,1.5s0.5,0.8,0.9,1
				C35.6,166.9,36.1,167,36.7,167z"/>
			<path class="st3" d="M42.7,167.9h-1.1v-7.5h2.9c0.8,0,1.5,0.2,1.9,0.6c0.5,0.4,0.7,1,0.7,1.8c0,0.7-0.2,1.3-0.7,1.7
				s-1.1,0.6-1.9,0.6h-1.8V167.9z M44.4,161.4h-1.7v3h1.7c0.5,0,0.9-0.1,1.3-0.4c0.3-0.2,0.5-0.6,0.5-1.1c0-0.5-0.2-0.9-0.5-1.1
				C45.4,161.5,45,161.4,44.4,161.4z"/>
			<path class="st3" d="M51.3,168.1c-1,0-1.8-0.3-2.4-0.9c-0.5-0.6-0.8-1.4-0.8-2.5v-4.3h1.2v4.3c0,0.6,0.1,1,0.3,1.4
				s0.4,0.6,0.7,0.7c0.3,0.1,0.6,0.2,1,0.2c0.4,0,0.8-0.1,1.1-0.2c0.3-0.1,0.5-0.4,0.7-0.7c0.2-0.3,0.3-0.8,0.3-1.4v-4.3h1.2v4.3
				c0,1.1-0.3,1.9-0.8,2.5C53.1,167.8,52.3,168.1,51.3,168.1z"/>
			<path class="st3" d="M56,167.9v-7.5h1.1v6.5h3.9v1H56z"/>
		</g>
		<g class="st2">
			<path class="st3" d="M61.7,167.9l2.5-7.5H66l2.6,7.5h-1.2l-0.7-2.2h-3.1l-0.7,2.2H61.7z M65.1,160.9l-1.3,3.9h2.5L65.1,160.9z"/>
		</g>
		<g class="st2">
			<path class="st3" d="M68.4,161.4v-1h5.7v1h-2.3v6.5h-1.1v-6.5H68.4z"/>
			<path class="st3" d="M78.2,167v1h-3.1v-1h1v-5.6h-1v-1h3.1v1h-1v5.6H78.2z"/>
			<path class="st3" d="M83.1,168.1c-1.2,0-2.1-0.3-2.7-1c-0.6-0.7-0.9-1.6-0.9-2.8c0-0.8,0.1-1.5,0.4-2.1c0.3-0.6,0.7-1,1.2-1.4
				s1.2-0.5,2.1-0.5c1.2,0,2.1,0.4,2.7,1.1c0.6,0.7,0.9,1.6,0.9,2.8c0,0.8-0.1,1.5-0.4,2c-0.3,0.6-0.7,1-1.2,1.4
				C84.5,167.9,83.9,168.1,83.1,168.1z M83,167c0.9,0,1.5-0.3,1.9-0.8s0.7-1.2,0.7-2c0-0.8-0.2-1.5-0.6-2.1
				c-0.4-0.5-1.1-0.8-1.9-0.8c-0.8,0-1.5,0.3-1.9,0.8c-0.4,0.5-0.7,1.2-0.7,2.1c0,0.5,0.1,1,0.3,1.5s0.5,0.8,0.9,1
				C82,166.9,82.5,167,83,167z"/>
			<path class="st3" d="M93.2,160.5h1.1v7.5h-2.1l-3.1-7h0v7h-1.1v-7.5h2l3.3,7h0V160.5z"/>
		</g>
		<g class="st2">
			<path class="st3" d="M128.6,184.4c-0.6,0-1.2-0.1-1.6-0.3c-0.4-0.2-0.7-0.5-1-0.8c-0.2-0.3-0.4-0.7-0.4-1l1.6-0.2
				c0,0.1,0.1,0.2,0.2,0.4c0.1,0.2,0.2,0.3,0.5,0.5c0.2,0.1,0.5,0.2,0.8,0.2c0.4,0,0.8-0.1,1-0.4c0.2-0.3,0.4-0.5,0.4-0.8
				c0-0.2,0-0.5-0.1-0.7c-0.1-0.2-0.2-0.4-0.5-0.5c-0.2-0.1-0.5-0.2-0.8-0.2c-0.3,0-0.5,0.1-0.7,0.2c-0.2,0.1-0.3,0.2-0.4,0.3
				c-0.1,0.1-0.1,0.2-0.1,0.2l-1.7-0.3l0.4-4h5v1.4h-3.9l-0.2,2.2c0.1-0.2,0.3-0.4,0.5-0.5c0.2-0.1,0.4-0.3,0.6-0.4
				c0.3-0.1,0.6-0.2,0.9-0.2c0.6,0,1.1,0.1,1.4,0.4c0.4,0.2,0.6,0.6,0.8,0.9c0.2,0.4,0.2,0.8,0.2,1.2c0,0.4-0.2,0.8-0.4,1.2
				c-0.3,0.4-0.6,0.7-1,1C129.7,184.3,129.2,184.4,128.6,184.4z"/>
			<path class="st3" d="M135.9,184.4c-0.6,0-1.2-0.1-1.7-0.3c-0.5-0.2-0.9-0.4-1.2-0.8c-0.3-0.3-0.4-0.7-0.4-1.2
				c0-0.5,0.2-0.9,0.5-1.3c0.3-0.4,0.8-0.6,1.4-0.6c-0.4-0.1-0.7-0.2-1-0.4c-0.2-0.2-0.4-0.4-0.4-0.7s-0.1-0.4-0.1-0.6
				c0-0.4,0.1-0.7,0.4-1c0.2-0.3,0.6-0.5,1-0.7c0.4-0.2,0.9-0.3,1.5-0.3c0.9,0,1.6,0.2,2.1,0.6c0.5,0.4,0.8,0.9,0.8,1.4
				c0,0.2,0,0.3-0.1,0.6s-0.2,0.4-0.4,0.7c-0.2,0.2-0.5,0.3-1,0.4c0.6,0.1,1.1,0.3,1.4,0.6c0.3,0.3,0.5,0.8,0.5,1.3
				c0,0.5-0.1,0.9-0.4,1.2c-0.3,0.3-0.7,0.6-1.2,0.7S136.5,184.4,135.9,184.4z M135.9,183.2c0.5,0,0.9-0.1,1.2-0.3s0.5-0.5,0.5-0.9
				c0-0.4-0.2-0.8-0.5-1c-0.3-0.2-0.7-0.3-1.2-0.3c-0.5,0-0.9,0.1-1.2,0.3c-0.3,0.2-0.5,0.5-0.5,1c0,0.4,0.2,0.7,0.5,0.9
				C135,183.1,135.4,183.2,135.9,183.2z M135.9,180c0.4,0,0.8-0.1,1-0.3c0.3-0.2,0.4-0.4,0.4-0.7c0-0.4-0.1-0.6-0.4-0.8
				c-0.3-0.2-0.6-0.3-1-0.3c-0.4,0-0.8,0.1-1,0.3s-0.4,0.5-0.4,0.8c0,0.3,0.1,0.6,0.4,0.7C135.2,179.9,135.5,180,135.9,180z"/>
			<path class="st3" d="M141.6,179.8c-0.5,0-0.9-0.1-1.1-0.4c-0.2-0.3-0.4-0.7-0.4-1.1c0-0.5,0.1-0.9,0.3-1.2s0.6-0.4,1.1-0.4
				c0.5,0,0.9,0.1,1.1,0.4s0.4,0.7,0.4,1.2c0,0.5-0.1,0.8-0.4,1.1S142.1,179.8,141.6,179.8z M141.6,184.3l-1.1-0.8l3.2-3.3l2.5-3.5
				l1.1,0.8l-3.1,3.1L141.6,184.3z M141.5,178.8c0.2,0,0.3-0.1,0.4-0.2c0.1-0.1,0.1-0.2,0.1-0.4s0-0.3-0.1-0.4
				c-0.1-0.1-0.2-0.2-0.4-0.2c-0.2,0-0.3,0.1-0.4,0.2c-0.1,0.1-0.1,0.3-0.1,0.4s0,0.3,0.1,0.4C141.2,178.8,141.4,178.8,141.5,178.8z
				 M146.2,184.4c-0.5,0-0.9-0.1-1.1-0.4c-0.2-0.3-0.4-0.7-0.4-1.2c0-0.5,0.1-0.8,0.3-1.1c0.2-0.3,0.6-0.4,1.1-0.4s0.9,0.1,1.1,0.4
				c0.2,0.3,0.4,0.7,0.4,1.1c0,0.5-0.1,0.9-0.4,1.1C147.1,184.3,146.7,184.4,146.2,184.4z M146.1,183.4c0.2,0,0.3-0.1,0.4-0.2
				c0.1-0.1,0.1-0.3,0.1-0.4s0-0.3-0.1-0.4c-0.1-0.1-0.2-0.2-0.4-0.2c-0.2,0-0.3,0.1-0.4,0.2c-0.1,0.1-0.1,0.3-0.1,0.4
				s0,0.3,0.1,0.4C145.8,183.4,146,183.4,146.1,183.4z"/>
		</g>
		<g class="st2">
		</g>
		<g class="st2">
			<path class="st3" d="M120.3,191.9h1.2l-2.5,7.5h-1.8l-2.5-7.5h1.2l2.3,7L120.3,191.9z"/>
		</g>
		<g class="st2">
			<path class="st3" d="M125.7,198.5v1h-3.1v-1h1v-5.6h-1v-1h3.1v1h-1v5.6H125.7z"/>
			<path class="st3" d="M130.5,199.5c-0.7,0-1.3-0.1-1.9-0.4c-0.6-0.3-1-0.7-1.3-1.3s-0.5-1.3-0.5-2.1c0-0.8,0.2-1.6,0.5-2.1
				s0.8-1,1.3-1.3c0.6-0.3,1.2-0.4,1.9-0.4c1,0,1.7,0.3,2.3,0.8s1,1.2,1.1,2h-1.1c-0.1-0.4-0.2-0.8-0.5-1s-0.5-0.4-0.8-0.6
				s-0.7-0.2-1-0.2c-0.8,0-1.5,0.2-2,0.7c-0.5,0.5-0.7,1.2-0.7,2.1c0,0.9,0.2,1.7,0.7,2.1c0.5,0.5,1.1,0.7,1.9,0.7
				c0.6,0,1.1-0.1,1.5-0.4c0.5-0.3,0.7-0.7,0.8-1.4h1.2c-0.2,0.8-0.5,1.5-1.1,2C132.4,199.3,131.6,199.5,130.5,199.5z"/>
			<path class="st3" d="M134.6,192.9v-1h5.7v1h-2.3v6.5h-1.1v-6.5H134.6z"/>
			<path class="st3" d="M144.5,198.5v1h-3.1v-1h1v-5.6h-1v-1h3.1v1h-1v5.6H144.5z"/>
			<path class="st3" d="M146.1,199.4v-7.5h1.9l2.1,7h0l2.1-7h1.9v7.5H153l0.1-7h0l-2.1,7h-1.6l-2.1-7h0l0.1,7H146.1z"/>
			<path class="st3" d="M158.5,199.6c-0.5,0-1.1-0.1-1.6-0.3c-0.5-0.2-0.9-0.4-1.2-0.8s-0.5-0.9-0.5-1.5h1.1c0,0,0,0.1,0,0.3
				c0,0.2,0.1,0.3,0.3,0.5c0.1,0.2,0.4,0.4,0.7,0.5c0.3,0.1,0.7,0.2,1.3,0.2c0.4,0,0.8-0.1,1-0.2c0.3-0.1,0.4-0.3,0.5-0.4
				c0.1-0.2,0.2-0.3,0.2-0.5c0-0.3-0.1-0.5-0.3-0.7c-0.2-0.2-0.4-0.3-0.7-0.4c-0.3-0.1-0.6-0.2-1-0.3s-0.7-0.2-1-0.3
				c-0.3-0.1-0.7-0.2-1-0.4c-0.3-0.2-0.5-0.4-0.7-0.7c-0.2-0.3-0.2-0.6-0.2-1c0-0.6,0.3-1.1,0.9-1.4c0.6-0.3,1.3-0.5,2.1-0.5
				c0.5,0,1,0.1,1.4,0.3c0.4,0.2,0.8,0.5,1.1,0.8s0.4,0.8,0.4,1.4h-1.1c0-0.3-0.1-0.6-0.2-0.8s-0.3-0.3-0.5-0.4
				c-0.2-0.1-0.4-0.2-0.6-0.2c-0.2,0-0.4-0.1-0.6-0.1c-0.5,0-0.9,0.1-1.2,0.3c-0.3,0.2-0.5,0.4-0.5,0.8c0,0.3,0.1,0.5,0.3,0.7
				s0.4,0.3,0.7,0.4s0.6,0.2,1,0.3c0.3,0.1,0.7,0.2,1,0.3s0.7,0.2,1,0.4s0.5,0.4,0.7,0.7c0.2,0.3,0.2,0.6,0.2,1.1
				c0,0.4-0.2,0.8-0.4,1.1s-0.6,0.5-1.1,0.7C159.6,199.5,159.1,199.6,158.5,199.6z"/>
		</g>
		<g class="st2">
			<path class="st3" d="M94.2,214.7c-1.2,0-2.1-0.3-2.7-1c-0.6-0.7-0.9-1.6-0.9-2.8c0-0.8,0.1-1.5,0.4-2.1c0.3-0.6,0.7-1,1.2-1.4
				s1.2-0.5,2.1-0.5c1.2,0,2.1,0.4,2.7,1.1c0.6,0.7,0.9,1.6,0.9,2.8c0,0.8-0.1,1.5-0.4,2c-0.3,0.6-0.7,1-1.2,1.4
				C95.7,214.5,95,214.7,94.2,214.7z M94.2,213.6c0.9,0,1.5-0.3,1.9-0.8s0.7-1.2,0.7-2c0-0.8-0.2-1.5-0.6-2.1
				c-0.4-0.5-1.1-0.8-1.9-0.8c-0.8,0-1.5,0.3-1.9,0.8c-0.4,0.5-0.7,1.2-0.7,2.1c0,0.5,0.1,1,0.3,1.5s0.5,0.8,0.9,1
				C93.1,213.5,93.6,213.6,94.2,213.6z"/>
			<path class="st3" d="M100.3,214.5h-1.1V207h5.2v1h-4.2v2.1h3.2v0.9h-3.2V214.5z"/>
			<path class="st3" d="M107.8,208v-1h5.7v1h-2.3v6.5h-1.1V208H107.8z"/>
			<path class="st3" d="M115.7,214.5h-1.1V207h1.1v3.2h3.9V207h1.1v7.5h-1.1v-3.4h-3.9V214.5z"/>
			<path class="st3" d="M123.3,213.6h4.2v0.9h-5.3V207h5.2v1h-4.1v2.3h3.2v0.9h-3.2V213.6z"/>
			<path class="st3" d="M135,214.6c-0.7,0-1.3-0.1-1.9-0.4c-0.6-0.3-1-0.7-1.3-1.3c-0.3-0.6-0.5-1.3-0.5-2.1c0-0.8,0.2-1.6,0.5-2.1
				s0.8-1,1.3-1.3c0.6-0.3,1.2-0.4,1.9-0.4c1,0,1.7,0.3,2.3,0.8c0.6,0.5,1,1.2,1.1,2h-1.1c-0.1-0.4-0.2-0.8-0.5-1
				c-0.2-0.3-0.5-0.4-0.8-0.6c-0.3-0.1-0.7-0.2-1-0.2c-0.8,0-1.5,0.2-2,0.7s-0.7,1.2-0.7,2.1c0,0.9,0.2,1.7,0.7,2.1
				c0.5,0.5,1.1,0.7,1.9,0.7c0.6,0,1.1-0.1,1.5-0.4c0.5-0.3,0.7-0.7,0.8-1.4h1.2c-0.2,0.8-0.5,1.5-1.1,2S136.1,214.6,135,214.6z"/>
			<path class="st3" d="M143,214.7c-1.2,0-2.1-0.3-2.7-1c-0.6-0.7-0.9-1.6-0.9-2.8c0-0.8,0.1-1.5,0.4-2.1c0.3-0.6,0.7-1,1.2-1.4
				c0.5-0.3,1.2-0.5,2.1-0.5c1.2,0,2.1,0.4,2.7,1.1s0.9,1.6,0.9,2.8c0,0.8-0.1,1.5-0.4,2c-0.3,0.6-0.7,1-1.2,1.4
				C144.4,214.5,143.8,214.7,143,214.7z M142.9,213.6c0.9,0,1.5-0.3,1.9-0.8s0.7-1.2,0.7-2c0-0.8-0.2-1.5-0.6-2.1
				c-0.4-0.5-1.1-0.8-1.9-0.8c-0.8,0-1.5,0.3-1.9,0.8c-0.4,0.5-0.7,1.2-0.7,2.1c0,0.5,0.1,1,0.3,1.5c0.2,0.4,0.5,0.8,0.9,1
				S142.4,213.6,142.9,213.6z"/>
			<path class="st3" d="M153.1,207h1.1v7.5h-2.1l-3.1-7h0v7h-1.1V207h2l3.3,7h0V207z"/>
			<path class="st3" d="M157,214.5h-1.1V207h5.2v1H157v2.1h3.2v0.9H157V214.5z"/>
			<path class="st3" d="M162.2,214.5V207h1.1v6.5h3.9v1H162.2z"/>
			<path class="st3" d="M171.4,213.6v1h-3.1v-1h1V208h-1v-1h3.1v1h-1v5.6H171.4z"/>
			<path class="st3" d="M176.3,214.6c-0.7,0-1.3-0.1-1.9-0.4c-0.6-0.3-1-0.7-1.3-1.3s-0.5-1.3-0.5-2.1c0-0.8,0.2-1.6,0.5-2.1
				c0.3-0.6,0.8-1,1.3-1.3c0.6-0.3,1.2-0.4,1.9-0.4c1,0,1.7,0.3,2.3,0.8c0.6,0.5,1,1.2,1.1,2h-1.1c-0.1-0.4-0.2-0.8-0.5-1
				s-0.5-0.4-0.8-0.6s-0.7-0.2-1-0.2c-0.8,0-1.5,0.2-2,0.7c-0.5,0.5-0.7,1.2-0.7,2.1c0,0.9,0.2,1.7,0.7,2.1s1.1,0.7,1.9,0.7
				c0.6,0,1.1-0.1,1.5-0.4c0.5-0.3,0.7-0.7,0.8-1.4h1.2c-0.2,0.8-0.5,1.5-1.1,2C178.1,214.4,177.3,214.6,176.3,214.6z"/>
			<path class="st3" d="M180.4,208v-1h5.7v1h-2.3v6.5h-1.1V208H180.4z"/>
		</g>
		<g class="st2">
			<path class="st0" d="M73.2,36.7V24.6h-2.4V23h0.8v-0.8h0.8v-0.8h0.8v-0.8h2.4v16.2H73.2z"/>
			<path class="st0" d="M81.6,36.7v-0.8h-1.6v-1.6h-0.8v-2.4h-0.8v-6.5h0.8V23h0.8v-1.6h1.6v-0.8h5.7v0.8h1.6V23h0.8v2.4h0.8v6.5
				h-0.8v2.4h-0.8v1.6h-1.6v0.8H81.6z M86.4,34.3v-0.8h0.8v-2.4H88v-4.9h-0.8v-2.4h-0.8V23h-4.1v0.8h-0.8v2.4h-0.8v4.9h0.8v2.4h0.8
				v0.8H86.4z"/>
			<path class="st0" d="M92.4,39.2v-0.8h0.8v-0.8H94v-0.8h-1.6v-2.4h2.4v4.1H94v0.8H92.4z"/>
			<path class="st0" d="M100.7,36.7v-0.8h-1.6v-1.6h-0.8v-2.4h-0.8v-6.5h0.8V23h0.8v-1.6h1.6v-0.8h5.7v0.8h1.6V23h0.8v2.4h0.8v6.5
				h-0.8v2.4H108v1.6h-1.6v0.8H100.7z M105.5,34.3v-0.8h0.8v-2.4h0.8v-4.9h-0.8v-2.4h-0.8V23h-4.1v0.8h-0.8v2.4h-0.8v4.9h0.8v2.4
				h0.8v0.8H105.5z"/>
			<path class="st0" d="M115.2,36.7v-0.8h-1.6v-1.6h-0.8v-2.4H112v-6.5h0.8V23h0.8v-1.6h1.6v-0.8h5.7v0.8h1.6V23h0.8v2.4h0.8v6.5
				h-0.8v2.4h-0.8v1.6h-1.6v0.8H115.2z M120.1,34.3v-0.8h0.8v-2.4h0.8v-4.9h-0.8v-2.4h-0.8V23H116v0.8h-0.8v2.4h-0.8v4.9h0.8v2.4
				h0.8v0.8H120.1z"/>
			<path class="st0" d="M128.6,36.7v-3.2h0.8v-1.6h0.8v-2.4h0.8v-1.6h0.8v-1.6h0.8v-1.6h0.8v-0.8h0.8V23h-8.9v-2.4h12.2V23h-0.8v1.6
				h-0.8v0.8h-0.8V27h-0.8v1.6h-0.8v1.6h-0.8v1.6h-0.8v2.4h-0.8v2.4H128.6z"/>
		</g>
		<g class="st2">
			<path class="st0" d="M72.4,11.3h-1.5V4.5h2.8c0.8,0,1.4,0.2,1.8,0.6s0.6,1,0.6,1.7c0,0.7-0.2,1.2-0.7,1.6S74.4,9,73.7,9h-1.3
				V11.3z M73.5,5.7h-1.1V8h1.1c0.4,0,0.7-0.1,1-0.3c0.3-0.2,0.4-0.5,0.4-0.8c0-0.4-0.1-0.7-0.4-0.9C74.2,5.8,73.9,5.7,73.5,5.7z"/>
			<path class="st0" d="M79.9,11.5c-1.1,0-1.9-0.3-2.5-1S76.5,9,76.5,7.9c0-0.7,0.1-1.3,0.4-1.9s0.6-0.9,1.1-1.2
				c0.5-0.3,1.1-0.4,1.9-0.4c1.1,0,2,0.3,2.5,1C83,6,83.3,6.9,83.3,7.9c0,0.7-0.1,1.3-0.4,1.8c-0.3,0.5-0.6,0.9-1.1,1.2
				C81.3,11.3,80.7,11.5,79.9,11.5z M79.9,10.1c0.4,0,0.8-0.1,1.1-0.3c0.3-0.2,0.5-0.4,0.7-0.8c0.1-0.3,0.2-0.7,0.2-1.1
				c0-0.4-0.1-0.8-0.2-1.1S81.3,6.2,81,6.1c-0.3-0.2-0.7-0.3-1.1-0.3c-0.6,0-1.1,0.2-1.5,0.6c-0.3,0.4-0.5,0.9-0.5,1.6
				c0,0.4,0.1,0.7,0.2,1.1c0.1,0.3,0.4,0.6,0.7,0.8C79.1,10,79.4,10.1,79.9,10.1z"/>
			<path class="st0" d="M85.8,11.3h-1.5V4.5h2.8c0.8,0,1.4,0.2,1.8,0.6s0.6,1,0.6,1.7c0,0.7-0.2,1.2-0.7,1.6S87.8,9,87.1,9h-1.3
				V11.3z M86.9,5.7h-1.1V8h1.1c0.4,0,0.7-0.1,1-0.3c0.3-0.2,0.4-0.5,0.4-0.8c0-0.4-0.1-0.7-0.4-0.9C87.6,5.8,87.3,5.7,86.9,5.7z"/>
			<path class="st0" d="M93.4,11.5c-1,0-1.7-0.3-2.2-0.8c-0.5-0.5-0.8-1.3-0.8-2.2V4.5h1.5v3.9c0,0.5,0.1,0.8,0.2,1.1
				c0.2,0.2,0.3,0.4,0.6,0.5c0.2,0.1,0.4,0.1,0.6,0.1c0.2,0,0.5,0,0.7-0.1c0.2-0.1,0.4-0.2,0.6-0.5s0.2-0.6,0.2-1.1V4.5h1.5v3.9
				c0,1-0.3,1.7-0.8,2.3C95.1,11.2,94.4,11.5,93.4,11.5z"/>
			<path class="st0" d="M97.7,11.3V4.5h1.5v5.5h3.1v1.2H97.7z"/>
		</g>
		<g class="st2">
			<path class="st0" d="M103.1,11.3l2.1-6.8h2.4l2.1,6.8h-1.5l-0.5-1.8h-2.4l-0.5,1.8H103.1z M106.4,5.1l-0.9,3.2h1.8L106.4,5.1z"/>
		</g>
		<g class="st2">
			<path class="st0" d="M110,5.8V4.5h5.3v1.2h-1.9v5.5h-1.5V5.8H110z"/>
			<path class="st0" d="M119.5,10.1v1.2h-3.2v-1.2h0.9V5.8h-0.9V4.5h3.2v1.2h-0.9v4.3H119.5z"/>
			<path class="st0" d="M123.9,11.5c-1.1,0-1.9-0.3-2.5-1s-0.9-1.5-0.9-2.6c0-0.7,0.1-1.3,0.4-1.9s0.6-0.9,1.1-1.2
				c0.5-0.3,1.1-0.4,1.9-0.4c1.1,0,2,0.3,2.5,1c0.6,0.6,0.9,1.5,0.9,2.6c0,0.7-0.1,1.3-0.4,1.8c-0.3,0.5-0.6,0.9-1.1,1.2
				C125.2,11.3,124.6,11.5,123.9,11.5z M123.9,10.1c0.4,0,0.8-0.1,1.1-0.3c0.3-0.2,0.5-0.4,0.7-0.8c0.1-0.3,0.2-0.7,0.2-1.1
				c0-0.4-0.1-0.8-0.2-1.1c-0.1-0.3-0.4-0.6-0.7-0.8c-0.3-0.2-0.7-0.3-1.1-0.3c-0.6,0-1.1,0.2-1.5,0.6s-0.5,0.9-0.5,1.6
				c0,0.4,0.1,0.7,0.2,1.1s0.4,0.6,0.7,0.8C123,10,123.4,10.1,123.9,10.1z"/>
			<path class="st0" d="M132.9,4.5h1.5v6.8h-2.8l-1.8-6.1h0v6.1h-1.5V4.5h2.6l2,6.1h0V4.5z"/>
			<path class="st0" d="M136.6,8.3c-0.3,0-0.5-0.1-0.7-0.2s-0.2-0.4-0.2-0.6c0-0.2,0.1-0.4,0.2-0.6s0.3-0.2,0.7-0.2
				c0.3,0,0.5,0.1,0.6,0.2c0.1,0.2,0.2,0.4,0.2,0.6c0,0.2-0.1,0.4-0.2,0.6C137.1,8.2,136.9,8.3,136.6,8.3z M136.6,11
				c-0.3,0-0.6-0.1-0.7-0.2s-0.2-0.4-0.2-0.6c0-0.2,0.1-0.4,0.2-0.6s0.3-0.2,0.7-0.2c0.3,0,0.5,0.1,0.6,0.2c0.1,0.2,0.2,0.3,0.2,0.6
				c0,0.2-0.1,0.4-0.2,0.6C137.1,10.9,136.9,11,136.6,11z"/>
		</g>
		<g>
			<polygon class="st0" points="145,44 141.1,44 141.1,43 144,43 144,41.2 145.8,41.2 145.8,25.7 147.5,25.7 147.5,23.9 149.2,23.9 
				149.2,22.2 151,22.2 151,21.5 149.2,21.5 149.2,19.7 147.5,19.7 147.5,18 145.8,18 145.8,4.1 144,4.1 144,2.4 141.1,2.4 
				141.1,1.4 145,1.4 145,3.1 146.8,3.1 146.8,17 148.5,17 148.5,18.7 150.2,18.7 150.2,20.5 152,20.5 152,23.2 150.2,23.2 
				150.2,24.9 148.5,24.9 148.5,26.7 146.8,26.7 146.8,42.2 145,42.2 			"/>
		</g>
		<g>
			<polygon class="st0" points="66.5,42.5 62.6,42.5 62.6,40.8 60.9,40.8 60.9,27 59.1,27 59.1,25.2 57.4,25.2 57.4,23.5 55.7,23.5 
				55.7,20.8 57.4,20.8 57.4,19 59.1,19 59.1,17.3 60.9,17.3 60.9,1.7 62.6,1.7 62.6,0 66.5,0 66.5,1 63.6,1 63.6,2.7 61.9,2.7 
				61.9,18.3 60.1,18.3 60.1,20 58.4,20 58.4,21.8 56.7,21.8 56.7,22.5 58.4,22.5 58.4,24.2 60.1,24.2 60.1,26 61.9,26 61.9,39.8 
				63.6,39.8 63.6,41.5 66.5,41.5 			"/>
		</g>
	</g>
</g>
</svg>
