<?xml version="1.0" encoding="utf-8"?>
<!-- Generator: Adobe Illustrator 24.1.2, SVG Export Plug-In . SVG Version: 6.00 Build 0)  -->
<svg version="1.1" id="Capa_1" xmlns="http://www.w3.org/2000/svg" xmlns:xlink="http://www.w3.org/1999/xlink" x="0px" y="0px"
	 viewBox="0 0 289.4 232.8" style="enable-background:new 0 0 289.4 232.8;" xml:space="preserve">
<style type="text/css">
	.st0{fill:none;}
	.st1{fill:#1B0F3B;}
	.st2{fill:#CFBDFF;}
	.st3{fill:#41238A;}
	.st4{fill:#AE90FF;}
	.st5{fill:#7945FF;}
	.st6{enable-background:new    ;}
	.st7{fill:#824AFF;}
</style>
<g id="a39b5695-11d7-4f07-88ac-37d06573fa86">
	<g id="b4528970-3cad-4ba4-b447-84426f163a0b">
		<g>
			<polygon class="st0" points="141.1,113.6 143.3,113.6 145.6,113.6 145.6,111.3 143.3,111.3 141.1,111.3 138.8,111.3 138.8,113.6 
							"/>
		</g>
		<g>
			<path class="st1" d="M271.6,120.3v-2.2h-9v2.2h-4.5v2.3h-4.5v2.2h-4.5v2.2h-4.5v2.3h-4.5v2.2h-2.2v2.2h-4.5v2.3h-4.5v2.2h-2.3
				v2.2h-4.5v2.3h-4.5v2.2h-4.5v2.2h-2.2v2.2h-4.5v2.2h-2.2v2.3h-4.5v2.2h-4.5v2.2h-2.2v2.3h-4.5v2.2h-4.5v2.2h-4.5v2.3h-2.3v2.2
				h-4.5v2.2h-4.5v2.2h-2.3v4.5h-2.2v6.8h2.2v2.2h4.5v-2.2h6.8v-2.3h2.3V181h4.5v-2.2h4.5v-2.3h4.5v-2.2h4.5v-2.2h4.5v-2.2h2.3v-2.2
				h4.5v-2.3h4.5v-2.2h2.2v-2.2h2.3v-2.3h4.5v-2.2h4.5v-2.2h4.5v-2.3h4.5v-2.2h4.5v-2.2h4.5v-2.2h2.2v-2.2h6.8v-2.3h2.2v-2.2h4.5
				v-2.2h4.5v-2.3h4.5v-2.2h4.5v-11.3H271.6z M271.6,124.8v4.5h-4.5V127h-2.3v-6.8h4.5v2.3h2.2V124.8z"/>
		</g>
		<g>
			<polygon class="st1" points="174.8,190 172.6,190 172.6,192.3 172.6,194.6 172.6,196.8 174.8,196.8 177.1,196.8 179.3,196.8 
				179.3,194.6 179.3,192.3 179.3,190 177.1,190 			"/>
		</g>
		<g>
			<polygon class="st1" points="163.6,208 161.3,208 159.1,208 159.1,210.3 159.1,212.6 159.1,214.8 161.3,214.8 163.6,214.8 
				163.6,212.6 165.8,212.6 165.8,210.3 165.8,208 165.8,205.8 163.6,205.8 			"/>
		</g>
		<g>
			<polygon class="st1" points="161.3,73.1 161.3,75.3 163.6,75.3 163.6,73.1 165.8,73.1 165.8,70.8 168.1,70.8 170.3,70.8 
				172.6,70.8 172.6,73.1 172.6,75.3 172.6,77.5 172.6,79.8 172.6,82.1 172.6,84.3 172.6,86.6 172.6,88.8 172.6,91.1 174.8,91.1 
				174.8,88.8 177.1,88.8 177.1,86.6 179.3,86.6 179.3,84.3 179.3,82.1 181.6,82.1 181.6,79.8 181.6,77.5 181.6,75.3 181.6,73.1 
				179.3,73.1 179.3,70.8 177.1,70.8 177.1,68.6 174.8,68.6 172.6,68.6 170.3,68.6 168.1,68.6 165.8,68.6 163.6,68.6 161.3,68.6 
				159.1,68.6 159.1,70.8 161.3,70.8 			"/>
		</g>
		<g>
			<polygon class="st1" points="156.8,201.3 154.6,201.3 152.3,201.3 152.3,203.6 152.3,205.8 152.3,208 154.6,208 156.8,208 
				156.8,205.8 159.1,205.8 159.1,203.6 159.1,201.3 159.1,199.1 156.8,199.1 			"/>
		</g>
		<g>
			<polygon class="st1" points="156.8,214.8 154.6,214.8 154.6,212.6 152.3,212.6 152.3,210.3 150.1,210.3 150.1,208 147.8,208 
				147.8,205.8 147.8,203.6 145.6,203.6 145.6,201.3 143.3,201.3 143.3,199.1 143.3,196.8 143.3,194.6 143.3,192.3 143.3,190 
				141.1,190 141.1,187.8 141.1,185.6 141.1,183.3 138.8,183.3 138.8,185.6 136.6,185.6 136.6,187.8 134.3,187.8 134.3,190 
				134.3,192.3 136.6,192.3 136.6,194.6 136.6,196.8 138.8,196.8 138.8,199.1 138.8,201.3 138.8,203.6 141.1,203.6 141.1,205.8 
				141.1,208 143.3,208 143.3,210.3 143.3,212.6 145.6,212.6 145.6,214.8 147.8,214.8 147.8,217.1 150.1,217.1 150.1,219.3 
				152.3,219.3 154.6,219.3 154.6,221.5 154.6,223.8 156.8,223.8 156.8,221.5 159.1,221.5 159.1,219.3 159.1,217.1 156.8,217.1 			
				"/>
		</g>
		<g>
			<polygon class="st1" points="154.6,192.3 152.3,192.3 150.1,192.3 150.1,194.6 147.8,194.6 147.8,196.8 147.8,199.1 150.1,199.1 
				152.3,199.1 154.6,199.1 154.6,196.8 156.8,196.8 156.8,194.6 156.8,192.3 156.8,190 154.6,190 			"/>
		</g>
		<g>
			<polygon class="st1" points="147.8,183.3 147.8,185.6 145.6,185.6 145.6,187.8 145.6,190 145.6,192.3 147.8,192.3 147.8,190 
				150.1,190 152.3,190 152.3,187.8 154.6,187.8 154.6,185.6 154.6,183.3 154.6,181.1 152.3,181.1 152.3,183.3 150.1,183.3 			"/>
		</g>
		<g>
			<polygon class="st1" points="136.6,104.6 138.8,104.6 138.8,102.3 141.1,102.3 143.3,102.3 145.6,102.3 147.8,102.3 150.1,102.3 
				150.1,100.1 147.8,100.1 147.8,97.8 145.6,97.8 143.3,97.8 141.1,97.8 138.8,97.8 136.6,97.8 136.6,100.1 134.3,100.1 
				132.1,100.1 132.1,102.3 132.1,104.6 134.3,104.6 			"/>
		</g>
		<g>
			<polygon class="st2" points="197.3,203.6 197.3,201.3 195.1,201.3 192.8,201.3 190.6,201.3 188.3,201.3 186.1,201.3 183.8,201.3 
				181.6,201.3 181.6,203.6 179.3,203.6 179.3,205.8 177.1,205.8 177.1,208 174.8,208 174.8,210.3 172.6,210.3 170.3,210.3 
				170.3,212.6 168.1,212.6 168.1,214.8 165.8,214.8 165.8,217.1 163.6,217.1 161.3,217.1 161.3,219.3 163.6,219.3 165.8,219.3 
				168.1,219.3 170.3,219.3 172.6,219.3 174.8,219.3 174.8,217.1 177.1,217.1 177.1,214.8 179.3,214.8 181.6,214.8 181.6,212.6 
				183.8,212.6 186.1,212.6 188.3,212.6 190.6,212.6 192.8,212.6 192.8,210.3 195.1,210.3 197.3,210.3 197.3,208 199.6,208 
				199.6,205.8 199.6,203.6 			"/>
		</g>
		<g>
			<polygon class="st2" points="161.3,138.3 161.3,140.5 163.6,140.5 165.8,140.5 165.8,138.3 165.8,136.1 168.1,136.1 168.1,133.8 
				170.3,133.8 170.3,131.6 170.3,129.3 172.6,129.3 172.6,127 172.6,124.8 174.8,124.8 174.8,122.6 177.1,122.6 177.1,120.3 
				177.1,118.1 179.3,118.1 179.3,115.8 179.3,113.6 181.6,113.6 181.6,111.3 181.6,109 183.8,109 183.8,106.8 183.8,104.6 
				183.8,102.3 181.6,102.3 181.6,100.1 179.3,100.1 179.3,97.8 177.1,97.8 177.1,95.5 177.1,93.3 174.8,93.3 174.8,91.1 
				172.6,91.1 172.6,88.8 172.6,86.6 172.6,84.3 172.6,82.1 172.6,79.8 172.6,77.5 172.6,75.3 172.6,73.1 172.6,70.8 170.3,70.8 
				168.1,70.8 165.8,70.8 165.8,73.1 163.6,73.1 163.6,75.3 161.3,75.3 161.3,73.1 161.3,70.8 159.1,70.8 159.1,68.6 159.1,66.3 
				156.8,66.3 154.6,66.3 152.3,66.3 150.1,66.3 147.8,66.3 147.8,68.6 145.6,68.6 143.3,68.6 141.1,68.6 138.8,68.6 138.8,70.8 
				136.6,70.8 134.3,70.8 132.1,70.8 132.1,73.1 129.8,73.1 127.6,73.1 127.6,75.3 127.6,77.5 129.8,77.5 129.8,79.8 129.8,82.1 
				129.8,84.3 129.8,86.6 129.8,88.8 129.8,91.1 129.8,93.3 132.1,93.3 132.1,95.5 132.1,97.8 132.1,100.1 134.3,100.1 136.6,100.1 
				136.6,97.8 138.8,97.8 141.1,97.8 143.3,97.8 145.6,97.8 147.8,97.8 147.8,100.1 150.1,100.1 150.1,102.3 147.8,102.3 
				145.6,102.3 143.3,102.3 141.1,102.3 138.8,102.3 138.8,104.6 136.6,104.6 136.6,106.8 138.8,106.8 138.8,109 138.8,111.3 
				141.1,111.3 143.3,111.3 145.6,111.3 145.6,109 147.8,109 147.8,111.3 150.1,111.3 150.1,113.6 150.1,115.8 150.1,118.1 
				150.1,120.3 150.1,122.6 152.3,122.6 152.3,124.8 152.3,127 154.6,127 154.6,129.3 154.6,131.6 156.8,131.6 156.8,133.8 
				156.8,136.1 159.1,136.1 159.1,138.3 			"/>
		</g>
		<g>
			<path class="st3" d="M179.3,194.6v2.2h-6.8V190h4.5v-4.5h-6.8v2.2h-4.5v-2.2h-2.2v-6.7h2.2v-6.8h-6.8v2.2h-4.5v2.2h-2.3v2.3h-4.5
				v2.2h-4.5v2.2h-2.2v6.7h2.2v11.2h2.2v2.3h2.3v4.5h2.2v2.3h2.2v2.2h2.3v2.2h2.2v2.3h2.2v2.2h2.3V217h4.5v-2.3h2.3v-2.2h2.2v-2.2
				h4.5V208h2.2v-2.2h2.3v-2.2h2.2v-9H179.3z M154.6,199.1h-6.8v-4.5h2.2v-2.2h4.5V190h2.2v6.8h-2.2V199.1z M145.6,190.1v-4.5h2.3
				v-2.3h4.5v-2.2h2.3v6.8h-2.3v2.2h-4.5v2.3h-2.3V190.1z M152.3,205.8v-4.5h4.5v-2.2h2.2v6.8h-2.2v2.2h-4.5V205.8z M163.6,212.6
				v2.2h-4.5V208h4.5v-2.2h2.2v6.8L163.6,212.6z"/>
		</g>
		<g>
			<polygon class="st3" points="150.1,219.3 150.1,217.1 147.8,217.1 147.8,214.8 145.6,214.8 145.6,212.6 143.3,212.6 143.3,210.3 
				143.3,208 141.1,208 141.1,205.8 141.1,203.6 138.8,203.6 138.8,201.3 138.8,199.1 138.8,196.8 136.6,196.8 136.6,194.6 
				136.6,192.3 134.3,192.3 134.3,190 132.1,190 132.1,192.3 129.8,192.3 129.8,194.6 127.6,194.6 127.6,196.8 125.3,196.8 
				123.1,196.8 123.1,199.1 120.8,199.1 120.8,201.3 118.6,201.3 118.6,203.6 116.3,203.6 114.1,203.6 114.1,205.8 111.8,205.8 
				111.8,208 111.8,210.3 111.8,212.6 114.1,212.6 114.1,214.8 116.3,214.8 116.3,217.1 118.6,217.1 118.6,219.3 120.8,219.3 
				120.8,221.5 123.1,221.5 123.1,223.8 125.3,223.8 125.3,226 127.6,226 129.8,226 129.8,228.3 132.1,228.3 132.1,230.6 
				134.3,230.6 134.3,232.8 136.6,232.8 138.8,232.8 141.1,232.8 143.3,232.8 143.3,230.6 145.6,230.6 145.6,228.3 147.8,228.3 
				150.1,228.3 150.1,226 152.3,226 152.3,223.8 154.6,223.8 154.6,221.5 154.6,219.3 152.3,219.3 			"/>
		</g>
		<g>
			<polygon class="st3" points="125.3,73.1 127.6,73.1 129.8,73.1 132.1,73.1 132.1,70.8 134.3,70.8 136.6,70.8 138.8,70.8 
				138.8,68.6 141.1,68.6 143.3,68.6 145.6,68.6 147.8,68.6 147.8,66.3 150.1,66.3 152.3,66.3 154.6,66.3 156.8,66.3 159.1,66.3 
				159.1,68.6 161.3,68.6 163.6,68.6 165.8,68.6 168.1,68.6 170.3,68.6 172.6,68.6 174.8,68.6 177.1,68.6 177.1,66.3 179.3,66.3 
				179.3,64.1 179.3,61.8 179.3,59.5 179.3,57.3 179.3,55 179.3,52.8 177.1,52.8 177.1,50.5 174.8,50.5 172.6,50.5 172.6,48.3 
				170.3,48.3 168.1,48.3 165.8,48.3 163.6,48.3 161.3,48.3 159.1,48.3 156.8,48.3 154.6,48.3 152.3,48.3 150.1,48.3 147.8,48.3 
				145.6,48.3 145.6,50.5 143.3,50.5 141.1,50.5 138.8,50.5 138.8,52.8 136.6,52.8 136.6,55 134.3,55 134.3,57.3 132.1,57.3 
				132.1,59.5 129.8,59.5 129.8,61.8 127.6,61.8 127.6,64.1 125.3,64.1 125.3,66.3 125.3,68.6 123.1,68.6 123.1,70.8 125.3,70.8 			
				"/>
		</g>
		<g>
			<polygon class="st4" points="240.1,165.3 240.1,163.1 237.8,163.1 237.8,160.8 237.8,158.5 235.6,158.5 235.6,156.3 233.3,156.3 
				233.3,154.1 233.3,151.8 231.1,151.8 231.1,154.1 228.8,154.1 226.6,154.1 226.6,156.3 224.3,156.3 222.1,156.3 222.1,158.5 
				219.8,158.5 217.6,158.5 217.6,160.8 215.3,160.8 215.3,163.1 213.1,163.1 213.1,165.3 210.8,165.3 208.6,165.3 208.6,167.6 
				206.3,167.6 204.1,167.6 204.1,169.8 201.8,169.8 201.8,172.1 199.6,172.1 197.3,172.1 197.3,174.3 195.1,174.3 192.8,174.3 
				192.8,176.5 190.6,176.5 188.3,176.5 188.3,178.8 186.1,178.8 183.8,178.8 183.8,181.1 181.6,181.1 179.3,181.1 179.3,183.3 
				177.1,183.3 177.1,185.6 177.1,187.8 177.1,190 179.3,190 179.3,192.3 179.3,194.6 181.6,194.6 181.6,196.8 181.6,199.1 
				181.6,201.3 183.8,201.3 186.1,201.3 188.3,201.3 190.6,201.3 192.8,201.3 192.8,199.1 195.1,199.1 195.1,196.8 197.3,196.8 
				199.6,196.8 199.6,194.6 201.8,194.6 201.8,192.3 204.1,192.3 204.1,190 201.8,190 201.8,187.8 201.8,185.6 204.1,185.6 
				206.3,185.6 206.3,183.3 206.3,181.1 206.3,178.8 208.6,178.8 210.8,178.8 213.1,178.8 213.1,176.5 210.8,176.5 210.8,174.3 
				210.8,172.1 213.1,172.1 215.3,172.1 215.3,169.8 215.3,167.6 215.3,165.3 217.6,165.3 219.8,165.3 219.8,167.6 219.8,169.8 
				222.1,169.8 222.1,172.1 219.8,172.1 217.6,172.1 215.3,172.1 215.3,174.3 215.3,176.5 217.6,176.5 219.8,176.5 222.1,176.5 
				222.1,178.8 219.8,178.8 217.6,178.8 217.6,181.1 215.3,181.1 213.1,181.1 213.1,183.3 213.1,185.6 215.3,185.6 217.6,185.6 
				217.6,187.8 215.3,187.8 213.1,187.8 210.8,187.8 208.6,187.8 206.3,187.8 206.3,190 208.6,190 208.6,192.3 208.6,194.6 
				210.8,194.6 213.1,194.6 215.3,194.6 217.6,194.6 217.6,192.3 219.8,192.3 219.8,190 222.1,190 222.1,187.8 224.3,187.8 
				224.3,185.6 226.6,185.6 228.8,185.6 228.8,183.3 231.1,183.3 233.3,183.3 233.3,181.1 235.6,181.1 235.6,178.8 237.8,178.8 
				240.1,178.8 240.1,176.5 242.3,176.5 242.3,174.3 242.3,172.1 242.3,169.8 242.3,167.6 242.3,165.3 			"/>
		</g>
		<g>
			<polygon class="st4" points="177.1,167.6 179.3,167.6 179.3,165.3 181.6,165.3 183.8,165.3 183.8,163.1 186.1,163.1 188.3,163.1 
				188.3,160.8 190.6,160.8 192.8,160.8 192.8,158.5 195.1,158.5 195.1,156.3 197.3,156.3 199.6,156.3 199.6,154.1 201.8,154.1 
				204.1,154.1 204.1,151.8 206.3,151.8 206.3,149.6 208.6,149.6 210.8,149.6 210.8,147.3 213.1,147.3 213.1,145 215.3,145 
				217.6,145 217.6,142.8 219.8,142.8 222.1,142.8 222.1,140.5 224.3,140.5 226.6,140.5 226.6,138.3 228.8,138.3 228.8,136.1 
				228.8,133.8 228.8,131.6 226.6,131.6 226.6,129.3 224.3,129.3 224.3,127 224.3,124.8 222.1,124.8 222.1,122.6 219.8,122.6 
				219.8,120.3 217.6,120.3 217.6,118.1 215.3,118.1 213.1,118.1 213.1,115.8 210.8,115.8 210.8,113.6 208.6,113.6 206.3,113.6 
				204.1,113.6 204.1,111.3 201.8,111.3 199.6,111.3 199.6,113.6 197.3,113.6 197.3,115.8 197.3,118.1 195.1,118.1 195.1,120.3 
				195.1,122.6 195.1,124.8 192.8,124.8 192.8,127 192.8,129.3 192.8,131.6 190.6,131.6 190.6,133.8 188.3,133.8 188.3,136.1 
				188.3,138.3 188.3,140.5 186.1,140.5 186.1,142.8 186.1,145 183.8,145 181.6,145 181.6,142.8 179.3,142.8 177.1,142.8 
				174.8,142.8 172.6,142.8 172.6,145 170.3,145 168.1,145 168.1,147.3 165.8,147.3 165.8,145 163.6,145 163.6,147.3 163.6,149.6 
				163.6,151.8 163.6,154.1 163.6,156.3 163.6,158.5 165.8,158.5 165.8,160.8 163.6,160.8 163.6,163.1 163.6,165.3 163.6,167.6 
				163.6,169.8 163.6,172.1 165.8,172.1 165.8,174.3 168.1,174.3 168.1,172.1 170.3,172.1 172.6,172.1 172.6,169.8 174.8,169.8 
				177.1,169.8 			"/>
		</g>
		<g>
			<path class="st4" d="M156.8,138.3h-4.5v2.2h-4.5v2.3h-2.3v2.2h-2.2v-13.5h2.2v-18h-4.5v4.5h-2.3v2.2h-2.2v2.3h-4.5v2.2h-6.8v-2.2
				h-4.5v2.2h-2.2v4.5h-2.2v4.5h-2.3v2.3h2.3v2.2h-2.3v9h-2.2v9h-2.3v6.8h-2.2v6.8h-2.2v24.8h-2.3v4.5h2.3v4.5h2.2v2.2h6.8v-2.2h4.5
				v-2.3h2.2v-2.2h2.3v-2.2h4.5v-2.2h2.3v-2.2h2.2V190h2.2v-2.2h2.3v-2.2h2.2v-2.3h4.5v-2.2h4.5v-2.2h4.5v-2.3h2.3v-2.2h4.5v-6.8
				h-2.2v-4.5h2.2v-22.5h-2.2V138.3z M147.8,158.5v6.8h-2.3v2.3h-2.2v2.2h-9v-2.2h-2.2v-4.5h-2.2v-6.8h6.8v-2.2h13.5v4.5H147.8z"/>
		</g>
		<g>
			<polygon class="st5" points="219.8,172.1 222.1,172.1 222.1,169.8 219.8,169.8 219.8,167.6 219.8,165.3 217.6,165.3 215.3,165.3 
				215.3,167.6 215.3,169.8 215.3,172.1 217.6,172.1 			"/>
		</g>
		<g>
			<polygon class="st5" points="215.3,172.1 213.1,172.1 210.8,172.1 210.8,174.3 210.8,176.5 213.1,176.5 213.1,178.8 210.8,178.8 
				208.6,178.8 206.3,178.8 206.3,181.1 206.3,183.3 206.3,185.6 204.1,185.6 201.8,185.6 201.8,187.8 201.8,190 204.1,190 
				204.1,192.3 201.8,192.3 201.8,194.6 199.6,194.6 199.6,196.8 197.3,196.8 195.1,196.8 195.1,199.1 192.8,199.1 192.8,201.3 
				195.1,201.3 197.3,201.3 197.3,203.6 199.6,203.6 201.8,203.6 201.8,201.3 204.1,201.3 206.3,201.3 206.3,199.1 208.6,199.1 
				208.6,196.8 210.8,196.8 210.8,194.6 208.6,194.6 208.6,192.3 208.6,190 206.3,190 206.3,187.8 208.6,187.8 210.8,187.8 
				213.1,187.8 215.3,187.8 217.6,187.8 217.6,185.6 215.3,185.6 213.1,185.6 213.1,183.3 213.1,181.1 215.3,181.1 217.6,181.1 
				217.6,178.8 219.8,178.8 222.1,178.8 222.1,176.5 219.8,176.5 217.6,176.5 215.3,176.5 215.3,174.3 			"/>
		</g>
		<g>
			<polygon class="st5" points="192.8,129.3 192.8,127 192.8,124.8 195.1,124.8 195.1,122.6 195.1,120.3 195.1,118.1 197.3,118.1 
				197.3,115.8 197.3,113.6 199.6,113.6 199.6,111.3 199.6,109 197.3,109 195.1,109 195.1,106.8 192.8,106.8 192.8,104.6 
				190.6,104.6 190.6,102.3 188.3,102.3 188.3,100.1 186.1,100.1 183.8,100.1 181.6,100.1 181.6,102.3 183.8,102.3 183.8,104.6 
				183.8,106.8 183.8,109 181.6,109 181.6,111.3 181.6,113.6 179.3,113.6 179.3,115.8 179.3,118.1 177.1,118.1 177.1,120.3 
				177.1,122.6 174.8,122.6 174.8,124.8 172.6,124.8 172.6,127 172.6,129.3 170.3,129.3 170.3,131.6 170.3,133.8 168.1,133.8 
				168.1,136.1 165.8,136.1 165.8,138.3 165.8,140.5 163.6,140.5 161.3,140.5 161.3,138.3 159.1,138.3 159.1,136.1 156.8,136.1 
				156.8,133.8 156.8,131.6 154.6,131.6 154.6,129.3 154.6,127 152.3,127 152.3,124.8 152.3,122.6 150.1,122.6 150.1,120.3 
				150.1,118.1 150.1,115.8 150.1,113.6 150.1,111.3 147.8,111.3 147.8,109 145.6,109 145.6,111.3 145.6,113.6 145.6,115.8 
				145.6,118.1 145.6,120.3 145.6,122.6 145.6,124.8 145.6,127 145.6,129.3 145.6,131.6 143.3,131.6 143.3,133.8 143.3,136.1 
				143.3,138.3 143.3,140.5 143.3,142.8 143.3,145 145.6,145 145.6,142.8 147.8,142.8 147.8,140.5 150.1,140.5 152.3,140.5 
				152.3,138.3 154.6,138.3 156.8,138.3 156.8,140.5 159.1,140.5 159.1,142.8 159.1,145 159.1,147.3 159.1,149.6 159.1,151.8 
				159.1,154.1 159.1,156.3 159.1,158.5 159.1,160.8 159.1,163.1 156.8,163.1 156.8,165.3 156.8,167.6 159.1,167.6 159.1,169.8 
				159.1,172.1 161.3,172.1 163.6,172.1 163.6,169.8 163.6,167.6 163.6,165.3 163.6,163.1 163.6,160.8 165.8,160.8 165.8,158.5 
				163.6,158.5 163.6,156.3 163.6,154.1 163.6,151.8 163.6,149.6 163.6,147.3 163.6,145 165.8,145 165.8,147.3 168.1,147.3 
				168.1,145 170.3,145 172.6,145 172.6,142.8 174.8,142.8 177.1,142.8 179.3,142.8 181.6,142.8 181.6,145 183.8,145 186.1,145 
				186.1,142.8 186.1,140.5 188.3,140.5 188.3,138.3 188.3,136.1 188.3,133.8 190.6,133.8 190.6,131.6 192.8,131.6 			"/>
		</g>
		<g>
			<polygon class="st5" points="145.6,154.1 143.3,154.1 141.1,154.1 138.8,154.1 136.6,154.1 136.6,156.3 134.3,156.3 132.1,156.3 
				129.8,156.3 129.8,158.5 129.8,160.8 129.8,163.1 132.1,163.1 132.1,165.3 132.1,167.6 134.3,167.6 134.3,169.8 136.6,169.8 
				138.8,169.8 141.1,169.8 143.3,169.8 143.3,167.6 145.6,167.6 145.6,165.3 147.8,165.3 147.8,163.1 147.8,160.8 147.8,158.5 
				150.1,158.5 150.1,156.3 150.1,154.1 147.8,154.1 			"/>
		</g>
		<g>
			<polygon class="st5" points="132.1,124.8 132.1,122.6 134.3,122.6 136.6,122.6 136.6,120.3 138.8,120.3 138.8,118.1 141.1,118.1 
				141.1,115.8 141.1,113.6 138.8,113.6 138.8,111.3 136.6,111.3 136.6,113.6 134.3,113.6 132.1,113.6 132.1,115.8 129.8,115.8 
				127.6,115.8 127.6,118.1 125.3,118.1 123.1,118.1 123.1,120.3 123.1,122.6 125.3,122.6 125.3,124.8 127.6,124.8 129.8,124.8 			
				"/>
		</g>
		<g>
			<polygon class="st5" points="109.6,147.3 107.3,147.3 105.1,147.3 102.8,147.3 100.6,147.3 100.6,145 98.3,145 96.1,145 
				93.8,145 91.6,145 89.3,145 87.1,145 87.1,147.3 84.8,147.3 82.6,147.3 82.6,149.6 80.3,149.6 78.1,149.6 78.1,151.8 75.8,151.8 
				73.6,151.8 73.6,154.1 71.3,154.1 71.3,151.8 69.1,151.8 69.1,154.1 66.9,154.1 64.6,154.1 62.4,154.1 62.4,156.3 60.1,156.3 
				60.1,158.5 60.1,160.8 60.1,163.1 57.9,163.1 55.6,163.1 55.6,165.3 53.4,165.3 53.4,167.6 53.4,169.8 53.4,172.1 51.1,172.1 
				48.9,172.1 48.9,174.3 46.6,174.3 46.6,176.5 44.4,176.5 44.4,178.8 44.4,181.1 42.1,181.1 42.1,183.3 39.9,183.3 39.9,185.6 
				37.6,185.6 37.6,187.8 35.4,187.8 35.4,190 35.4,192.3 35.4,194.6 37.6,194.6 37.6,196.8 39.9,196.8 39.9,199.1 42.1,199.1 
				42.1,201.3 44.4,201.3 44.4,203.6 46.6,203.6 48.9,203.6 51.1,203.6 53.4,203.6 55.6,203.6 57.9,203.6 60.1,203.6 62.4,203.6 
				64.6,203.6 66.9,203.6 69.1,203.6 69.1,203.6 71.3,203.6 73.6,203.6 75.8,203.6 78.1,203.6 80.3,203.6 82.6,203.6 84.8,203.6 
				87.1,203.6 89.3,203.6 91.6,203.6 93.8,203.6 96.1,203.6 96.1,201.3 98.3,201.3 100.6,201.3 102.8,201.3 105.1,201.3 
				105.1,199.1 102.8,199.1 102.8,196.8 102.8,194.6 105.1,194.6 105.1,192.3 105.1,190 105.1,187.8 105.1,185.6 105.1,183.3 
				105.1,181.1 105.1,178.8 105.1,176.5 105.1,174.3 105.1,172.1 105.1,169.8 107.3,169.8 107.3,167.6 107.3,165.3 107.3,163.1 
				109.6,163.1 109.6,160.8 109.6,158.5 109.6,156.3 111.8,156.3 111.8,154.1 111.8,151.8 111.8,149.6 109.6,149.6 			"/>
		</g>
		<g class="st6">
			<path class="st5" d="M1,14.8V3.4h6.8v1.7H2.7V8h5.1v1.7H2.7v5.1H1z"/>
		</g>
		<g class="st6">
			<path class="st5" d="M9.2,14.8v-1.7h0.6v-1.1h0.6v-1.7h0.6V9.1h0.6V8H12V6.8h0.6V5.7h0.6V4.5h0.6V3.4h1.7v1.1H16v1.1h0.6v1.1h0.6
				V8h0.6v1.1h0.6v1.1h0.6v1.7h0.6v1.1H20v1.7h-1.7v-1.1h-0.6v-1.1h-0.6v-1.1H12v1.1h-0.6v1.1h-0.6v1.1H9.2z M16.6,9.7V9.1H16V8
				h-0.6V6.8h-0.6V5.7h-0.6v1.1h-0.6V8h-0.6v1.1h-0.6v0.6H16.6z"/>
		</g>
		<g class="st6">
			<path class="st5" d="M21.4,14.8V3.4h6.3V4h0.6v0.6h0.6v0.6h0.6V8h-0.6v0.6h-0.6v0.6h-0.6v0.6h-1.7v0.6h0.6v0.6h0.6v0.6h0.6v0.6
				h0.6v0.6h0.6v0.6h0.6v0.6h0.6v0.6h0.6v0.6h-2.3v-0.6h-0.6v-0.6h-0.6v-0.6h-0.6v-0.6h-0.6v-0.6h-0.6v-0.6h-0.6v-0.6h-0.6v-0.6
				h-0.6V9.7h-0.6v5.1H21.4z M27.1,8V7.4h0.6V5.7h-0.6V5.1h-4V8H27.1z"/>
		</g>
		<g class="st6">
			<path class="st5" d="M34.6,14.8v-0.6h-1.7v-0.6h-0.6v-0.6h-0.6v-0.6h-0.6v-1.1h-0.6V6.8h0.6V5.7h0.6V5.1h0.6V4.5h0.6V4h1.7V3.4
				h2.8V4h1.7v0.6h0.6v1.1h0.6v0.6h0.6v0.6h-2.3V6.3H38V5.7h-1.1V5.1h-1.7v0.6H34v0.6h-0.6v0.6h-0.6V8h-0.6v2.3h0.6v1.1h0.6v0.6H34
				v0.6h1.1v0.6h1.7v-0.6H38v-0.6h0.6v-0.6h2.3v0.6h-0.6v0.6h-0.6v1.1h-0.6v0.6h-1.7v0.6H34.6z"/>
			<path class="st5" d="M48.5,10.8h-6.3V9.1h6.3V10.8z"/>
			<path class="st5" d="M50.1,14.8V3.4h6.8v1.7h-5.1V8h5.1v1.7h-5.1v3.4h5.1v1.7H50.1z"/>
			<path class="st5" d="M59,14.8V3.4h6.3V4h0.6v0.6h0.6v0.6h0.6V8h-0.6v0.6h-0.6v0.6h-0.6v0.6h-4.5v5.1H59z M64.7,8V7.4h0.6V5.7
				h-0.6V5.1h-4V8H64.7z"/>
		</g>
		<g>
			<rect x="0.8" y="23.9" class="st7" width="69.1" height="1"/>
		</g>
		<g class="st6">
			<path class="st5" d="M4,44.6c-0.7,0-1.3-0.1-1.8-0.4c-0.5-0.2-0.8-0.6-1.1-1c-0.3-0.4-0.4-0.8-0.5-1.2l1.8-0.3
				c0,0.1,0.1,0.3,0.2,0.5c0.1,0.2,0.3,0.4,0.5,0.5S3.6,43,4,43c0.5,0,0.8-0.1,1.1-0.4s0.4-0.6,0.5-1c0-0.3,0-0.5-0.1-0.8
				s-0.3-0.5-0.5-0.6C4.7,40.1,4.4,40,4,40c-0.3,0-0.6,0.1-0.8,0.2s-0.3,0.2-0.4,0.4c-0.1,0.1-0.1,0.2-0.1,0.2l-1.9-0.3L1.3,36H7
				v1.5H2.6L2.3,40c0.2-0.2,0.3-0.4,0.5-0.6C3,39.3,3.2,39.1,3.5,39s0.7-0.2,1.1-0.2c0.7,0,1.2,0.1,1.6,0.4c0.4,0.3,0.7,0.6,0.9,1.1
				c0.2,0.4,0.3,0.9,0.2,1.4c0,0.5-0.2,0.9-0.5,1.4s-0.7,0.8-1.2,1.1C5.2,44.4,4.7,44.6,4,44.6z"/>
			<path class="st5" d="M11.4,44.4H9.6c0-1.1,0.2-2.2,0.5-3.1c0.4-0.9,0.9-1.7,1.5-2.3c0.6-0.6,1.3-1.1,2.1-1.4h-5V36h6.6v1.5
				c-0.2,0.1-0.5,0.3-0.9,0.5s-0.7,0.5-1,0.8c-0.4,0.3-0.7,0.8-1,1.3c-0.3,0.5-0.6,1.1-0.8,1.8C11.5,42.6,11.4,43.5,11.4,44.4z"/>
			<path class="st5" d="M21.7,44.6c-0.9,0-1.4-0.3-1.8-0.9c-0.3-0.6-0.5-1.3-0.5-2.3c0-1,0.2-1.7,0.5-2.3c0.3-0.6,0.9-0.9,1.8-0.9
				c0.4,0,0.7,0.1,0.9,0.2c0.2,0.1,0.5,0.2,0.6,0.4c0.1,0.2,0.3,0.3,0.3,0.4s0.1,0.2,0.1,0.2h0v-1.2h1.9v6.2H24l-0.3-0.9h0
				c0,0-0.1,0.2-0.2,0.3c-0.1,0.2-0.3,0.3-0.6,0.5C22.6,44.5,22.2,44.6,21.7,44.6z M22.5,43c0.4,0,0.6-0.1,0.8-0.2
				c0.2-0.2,0.3-0.3,0.4-0.6s0.1-0.5,0.1-0.8c0-0.3,0-0.6-0.1-0.8s-0.2-0.4-0.4-0.6c-0.2-0.1-0.5-0.2-0.8-0.2
				c-0.4,0-0.6,0.1-0.8,0.2c-0.2,0.1-0.3,0.3-0.4,0.6s-0.1,0.5-0.1,0.8s0,0.6,0.1,0.8s0.2,0.4,0.4,0.6C21.9,43,22.1,43,22.5,43z"/>
			<path class="st5" d="M26.6,44.4v-6.2h1.6l0.3,1.2h0c0,0,0-0.1,0.1-0.2s0.2-0.3,0.3-0.4c0.1-0.2,0.3-0.3,0.6-0.4
				c0.3-0.1,0.6-0.2,1-0.2c0.6,0,1,0.1,1.3,0.3c0.3,0.2,0.5,0.5,0.6,0.9s0.2,0.7,0.2,1.1s0,0.7,0,0.9v3h-1.8v-3c0-0.3,0-0.5-0.1-0.8
				c0-0.2-0.2-0.4-0.3-0.6s-0.4-0.2-0.8-0.2c-0.4,0-0.6,0.1-0.8,0.2c-0.2,0.2-0.3,0.4-0.3,0.6c-0.1,0.2-0.1,0.5-0.1,0.8v3H26.6z"/>
			<path class="st5" d="M36.3,44.6c-0.9,0-1.6-0.3-1.9-0.8c-0.4-0.6-0.5-1.3-0.5-2.3c0-1,0.2-1.8,0.6-2.4c0.4-0.6,1-0.9,1.9-0.9
				c0.4,0,0.7,0.1,1,0.2s0.5,0.3,0.6,0.4s0.3,0.3,0.3,0.4s0.1,0.2,0.1,0.2h0V36h1.9v8.4h-1.6l-0.3-1h0c0,0,0,0.1-0.1,0.2
				c-0.1,0.1-0.2,0.2-0.3,0.4c-0.2,0.1-0.4,0.3-0.6,0.4C37,44.5,36.7,44.6,36.3,44.6z M37,43c0.5,0,0.9-0.2,1.1-0.5
				c0.2-0.3,0.3-0.7,0.3-1.1c0-0.4-0.1-0.8-0.3-1.1c-0.2-0.3-0.5-0.5-1.1-0.5c-0.4,0-0.7,0.1-0.9,0.2s-0.3,0.4-0.4,0.6
				c-0.1,0.2-0.1,0.5-0.1,0.8c0,0.3,0,0.5,0.1,0.8s0.2,0.4,0.4,0.6C36.3,43,36.6,43,37,43z"/>
			<path class="st5" d="M48.2,44.6c-0.7,0-1.4-0.1-1.9-0.4c-0.5-0.2-1-0.6-1.3-1.1c-0.3-0.5-0.5-1.1-0.4-1.8l1.7-0.3
				c0,0.6,0.2,1.1,0.5,1.4s0.8,0.5,1.4,0.5c0.5,0,0.8-0.1,1.1-0.4c0.3-0.3,0.4-0.6,0.4-0.9c0-0.4-0.2-0.7-0.5-0.9
				c-0.3-0.2-0.7-0.3-1.1-0.3h-0.9v-0.9h0.9c0.2,0,0.5,0,0.7-0.1c0.2-0.1,0.4-0.2,0.5-0.3c0.1-0.1,0.2-0.3,0.2-0.6
				c0-0.4-0.1-0.7-0.4-1s-0.7-0.4-1.2-0.4c-0.4,0-0.7,0.1-1,0.2s-0.4,0.4-0.6,0.6c-0.1,0.2-0.2,0.5-0.2,0.7l-1.6-0.3
				c0-0.2,0.1-0.4,0.2-0.7c0.1-0.3,0.3-0.6,0.5-1s0.6-0.6,1-0.8c0.4-0.2,1-0.3,1.6-0.3c1,0,1.9,0.2,2.4,0.7c0.6,0.4,0.9,1,0.9,1.7
				c0,0.5-0.1,0.9-0.4,1.3c-0.3,0.4-0.7,0.6-1.3,0.6c0.6,0,1,0.3,1.3,0.6c0.3,0.4,0.5,0.8,0.5,1.3c0,0.5-0.1,1-0.4,1.3
				c-0.3,0.4-0.7,0.6-1.2,0.8C49.4,44.5,48.8,44.6,48.2,44.6z"/>
			<path class="st5" d="M52.5,42.8v-1.5c0.5-0.2,1-0.5,1.4-0.9s0.7-0.9,1-1.4s0.5-1,0.6-1.5c0.1-0.5,0.2-1,0.2-1.5h2
				c0,0.6-0.1,1.2-0.4,1.9s-0.6,1.3-1.2,1.9s-1.1,1.1-1.8,1.6h2.4v-1.1h1.8v1.1h1v1.5h-1v1.6h-1.8v-1.6H52.5z"/>
		</g>
		<g class="st6">
			<path class="st5" d="M1.1,62.4v-4.9H0.3v-1.2h0.8v-0.9c0-0.6,0.1-1.1,0.5-1.3c0.3-0.3,0.7-0.4,1.3-0.4h1.5V55H2.9v1.2h1.4v1.2
				H2.9v4.9H1.1z"/>
		</g>
		<g class="st6">
			<path class="st5" d="M5.1,62.4v-6.2h1.7L6.9,58c0.1-0.3,0.2-0.5,0.3-0.8c0.2-0.3,0.4-0.5,0.7-0.7c0.3-0.2,0.7-0.3,1.2-0.3h0.2v2
				H9.2c-0.8,0-1.4,0.1-1.8,0.3s-0.6,0.6-0.6,1.3v2.6H5.1z"/>
		</g>
		<g class="st6">
			<path class="st5" d="M13.3,62.6c-0.7,0-1.3-0.1-1.8-0.4c-0.5-0.3-0.8-0.6-1.1-1.1c-0.2-0.5-0.4-1-0.4-1.6c0-0.9,0.2-1.7,0.8-2.3
				s1.3-0.9,2.4-0.9c1,0,1.8,0.3,2.4,0.9s0.8,1.4,0.8,2.3c0,0.6-0.1,1.1-0.3,1.6s-0.6,0.9-1,1.1C14.6,62.4,14,62.6,13.3,62.6z
				 M13.3,61c0.4,0,0.7-0.1,0.9-0.3s0.3-0.4,0.4-0.7s0.1-0.5,0.1-0.8c0-0.3,0-0.6-0.1-0.8c-0.1-0.3-0.2-0.5-0.4-0.7
				c-0.2-0.2-0.5-0.3-0.9-0.3s-0.7,0.1-0.9,0.3C12.2,58,12,58.3,12,58.5c-0.1,0.3-0.1,0.5-0.1,0.8c0,0.3,0,0.5,0.1,0.8
				s0.2,0.5,0.4,0.7C12.6,61,12.9,61,13.3,61z"/>
			<path class="st5" d="M17.5,62.4v-6.2h1.6l0.3,1.2h0c0,0,0-0.1,0.1-0.2s0.2-0.3,0.3-0.4c0.1-0.2,0.3-0.3,0.6-0.4
				c0.3-0.1,0.6-0.2,1-0.2c0.6,0,1,0.1,1.3,0.3c0.3,0.2,0.5,0.5,0.6,0.9s0.2,0.7,0.2,1.1s0,0.7,0,0.9v3h-1.8v-3c0-0.3,0-0.5-0.1-0.8
				c0-0.2-0.2-0.4-0.3-0.6s-0.4-0.2-0.8-0.2c-0.4,0-0.6,0.1-0.8,0.2c-0.2,0.2-0.3,0.4-0.3,0.6c-0.1,0.2-0.1,0.5-0.1,0.8v3H17.5z"/>
			<path class="st5" d="M26.9,62.4c-0.5,0-1-0.1-1.3-0.4c-0.3-0.3-0.4-0.7-0.4-1.4v-3.2h-0.9v-1.2c0.3,0,0.5,0,0.6-0.1
				s0.3-0.2,0.4-0.4c0.1-0.2,0.1-0.6,0.1-1h1.4v1.6h1.4v1.2h-1.4V61h1.4v1.4H26.9z"/>
			<path class="st5" d="M32.2,62.6c-0.2,0-0.4,0-0.7-0.1c-0.3-0.1-0.6-0.2-1-0.3c-0.3-0.2-0.6-0.4-0.8-0.7c-0.2-0.3-0.3-0.7-0.3-1.2
				H31c0,0,0,0.1,0,0.2c0,0.1,0,0.2,0.1,0.4s0.2,0.2,0.3,0.3c0.2,0.1,0.4,0.1,0.7,0.1c0.4,0,0.6-0.1,0.8-0.2s0.2-0.3,0.2-0.4
				c0-0.2-0.1-0.3-0.3-0.4c-0.2-0.1-0.4-0.2-0.7-0.3c-0.3-0.1-0.6-0.2-0.9-0.3c-0.3-0.1-0.6-0.2-0.9-0.4c-0.3-0.1-0.5-0.3-0.7-0.6
				s-0.3-0.6-0.3-1c0-0.6,0.2-1,0.7-1.3c0.5-0.3,1.1-0.4,1.8-0.4c0.5,0,1,0.1,1.5,0.3c0.4,0.2,0.8,0.4,1.1,0.8
				c0.3,0.4,0.4,0.8,0.4,1.3h-1.7c0-0.3,0-0.5-0.2-0.6c-0.1-0.1-0.3-0.2-0.5-0.3c-0.2-0.1-0.4-0.1-0.6-0.1c-0.3,0-0.6,0.1-0.7,0.2
				c-0.1,0.1-0.2,0.2-0.2,0.4c0,0.2,0.1,0.4,0.3,0.5c0.2,0.1,0.4,0.2,0.7,0.3c0.3,0.1,0.6,0.2,0.9,0.3c0.3,0.1,0.6,0.2,0.9,0.3
				c0.3,0.1,0.5,0.3,0.7,0.6c0.2,0.2,0.3,0.5,0.3,0.9c0,0.6-0.2,1-0.7,1.3C33.6,62.4,33,62.6,32.2,62.6z"/>
			<path class="st5" d="M43,62.6c-0.4,0-0.7-0.1-0.9-0.2c-0.2-0.1-0.4-0.2-0.6-0.4c-0.1-0.1-0.3-0.3-0.3-0.4S41,61.5,41,61.4h0v3.8
				h-1.9v-9h1.6l0.3,1.2h0c0,0,0-0.1,0.1-0.2s0.2-0.3,0.3-0.4s0.3-0.3,0.6-0.4c0.2-0.1,0.6-0.2,1-0.2c0.9,0,1.6,0.3,1.9,0.9
				s0.6,1.4,0.6,2.3c0,1-0.2,1.7-0.6,2.3C44.5,62.3,43.9,62.6,43,62.6z M42.4,61c0.4,0,0.7-0.1,0.9-0.2c0.2-0.2,0.3-0.4,0.4-0.6
				s0.1-0.5,0.1-0.8c0-0.3,0-0.5-0.1-0.8c-0.1-0.2-0.2-0.4-0.4-0.6c-0.2-0.2-0.5-0.2-0.9-0.2c-0.6,0-0.9,0.2-1.1,0.5
				C41.1,58.6,41,59,41,59.4c0,0.5,0.1,0.8,0.3,1.1C41.5,60.9,41.8,61,42.4,61z"/>
		</g>
		<g class="st6">
			<path class="st5" d="M46.5,62.4v-6.2h1.7l0.1,1.7c0.1-0.3,0.2-0.5,0.3-0.8c0.2-0.3,0.4-0.5,0.7-0.7c0.3-0.2,0.7-0.3,1.2-0.3h0.2
				v2h-0.2c-0.8,0-1.4,0.1-1.8,0.3s-0.6,0.6-0.6,1.3v2.6H46.5z"/>
		</g>
		<g class="st6">
			<path class="st5" d="M54.7,62.6c-0.7,0-1.3-0.2-1.8-0.5c-0.5-0.3-0.8-0.7-1-1.2c-0.2-0.5-0.3-1-0.3-1.5c0-0.7,0.1-1.2,0.4-1.7
				c0.2-0.5,0.6-0.9,1.1-1.1c0.5-0.3,1-0.4,1.6-0.4c0.6,0,1.1,0.1,1.5,0.4c0.4,0.2,0.8,0.6,1.1,1c0.3,0.4,0.4,1,0.4,1.6
				c0,0,0,0.1,0,0.2s0,0.2,0,0.2h-4.3c0,0.5,0.1,0.9,0.4,1.1c0.2,0.2,0.6,0.4,1,0.4c0.3,0,0.6-0.1,0.8-0.2c0.2-0.2,0.3-0.4,0.4-0.6
				h1.8c-0.1,0.6-0.3,1.2-0.8,1.7C56.3,62.3,55.6,62.6,54.7,62.6z M53.3,58.8h2.5c0,0,0-0.1,0-0.2c0-0.1-0.1-0.2-0.2-0.4
				c-0.1-0.1-0.2-0.3-0.4-0.4c-0.2-0.1-0.4-0.1-0.7-0.1c-0.4,0-0.7,0.1-0.8,0.2c-0.2,0.2-0.3,0.3-0.3,0.5
				C53.4,58.6,53.3,58.7,53.3,58.8z"/>
			<path class="st5" d="M61.5,62.6c-0.2,0-0.4,0-0.7-0.1c-0.3-0.1-0.6-0.2-1-0.3c-0.3-0.2-0.6-0.4-0.8-0.7c-0.2-0.3-0.3-0.7-0.3-1.2
				h1.7c0,0,0,0.1,0,0.2c0,0.1,0,0.2,0.1,0.4s0.2,0.2,0.3,0.3c0.2,0.1,0.4,0.1,0.7,0.1c0.4,0,0.6-0.1,0.8-0.2s0.2-0.3,0.2-0.4
				c0-0.2-0.1-0.3-0.3-0.4c-0.2-0.1-0.4-0.2-0.7-0.3c-0.3-0.1-0.6-0.2-0.9-0.3c-0.3-0.1-0.6-0.2-0.9-0.4c-0.3-0.1-0.5-0.3-0.7-0.6
				s-0.3-0.6-0.3-1c0-0.6,0.2-1,0.7-1.3c0.5-0.3,1.1-0.4,1.8-0.4c0.5,0,1,0.1,1.5,0.3c0.4,0.2,0.8,0.4,1.1,0.8
				c0.3,0.4,0.4,0.8,0.4,1.3h-1.7c0-0.3,0-0.5-0.2-0.6c-0.1-0.1-0.3-0.2-0.5-0.3c-0.2-0.1-0.4-0.1-0.6-0.1c-0.3,0-0.6,0.1-0.7,0.2
				c-0.1,0.1-0.2,0.2-0.2,0.4c0,0.2,0.1,0.4,0.3,0.5c0.2,0.1,0.4,0.2,0.7,0.3c0.3,0.1,0.6,0.2,0.9,0.3c0.3,0.1,0.6,0.2,0.9,0.3
				c0.3,0.1,0.5,0.3,0.7,0.6c0.2,0.2,0.3,0.5,0.3,0.9c0,0.6-0.2,1-0.7,1.3C62.9,62.4,62.3,62.6,61.5,62.6z"/>
			<path class="st5" d="M68,62.6c-0.7,0-1.3-0.2-1.8-0.5c-0.5-0.3-0.8-0.7-1-1.2c-0.2-0.5-0.3-1-0.3-1.5c0-0.7,0.1-1.2,0.4-1.7
				c0.2-0.5,0.6-0.9,1.1-1.1c0.5-0.3,1-0.4,1.6-0.4c0.6,0,1.1,0.1,1.5,0.4c0.4,0.2,0.8,0.6,1.1,1c0.3,0.4,0.4,1,0.4,1.6
				c0,0,0,0.1,0,0.2s0,0.2,0,0.2h-4.3c0,0.5,0.1,0.9,0.4,1.1c0.2,0.2,0.6,0.4,1,0.4c0.3,0,0.6-0.1,0.8-0.2c0.2-0.2,0.3-0.4,0.4-0.6
				h1.8c-0.1,0.6-0.3,1.2-0.8,1.7C69.6,62.3,68.9,62.6,68,62.6z M66.7,58.8h2.5c0,0,0-0.1,0-0.2c0-0.1-0.1-0.2-0.2-0.4
				c-0.1-0.1-0.2-0.3-0.4-0.4c-0.2-0.1-0.4-0.1-0.7-0.1c-0.4,0-0.7,0.1-0.8,0.2c-0.2,0.2-0.3,0.3-0.3,0.5
				C66.7,58.6,66.7,58.7,66.7,58.8z"/>
			<path class="st5" d="M72.1,62.4v-6.2h1.6l0.3,1.2h0c0,0,0-0.1,0.1-0.2s0.2-0.3,0.3-0.4c0.1-0.2,0.3-0.3,0.6-0.4
				c0.3-0.1,0.6-0.2,1-0.2c0.6,0,1,0.1,1.3,0.3c0.3,0.2,0.5,0.5,0.6,0.9s0.2,0.7,0.2,1.1s0,0.7,0,0.9v3h-1.8v-3c0-0.3,0-0.5-0.1-0.8
				c0-0.2-0.2-0.4-0.3-0.6s-0.4-0.2-0.8-0.2c-0.4,0-0.6,0.1-0.8,0.2c-0.2,0.2-0.3,0.4-0.3,0.6C74,58.9,74,59.2,74,59.4v3H72.1z"/>
			<path class="st5" d="M81.5,62.4c-0.5,0-1-0.1-1.3-0.4c-0.3-0.3-0.4-0.7-0.4-1.4v-3.2h-0.9v-1.2c0.3,0,0.5,0,0.6-0.1
				s0.3-0.2,0.4-0.4c0.1-0.2,0.1-0.6,0.1-1h1.4v1.6h1.4v1.2h-1.4V61h1.4v1.4H81.5z"/>
		</g>
		<g class="st6">
			<path class="st5" d="M1.7,73.5c-0.4,0-0.6-0.1-0.7-0.3c-0.1-0.2-0.2-0.4-0.2-0.7c0-0.2,0.1-0.5,0.2-0.6s0.4-0.3,0.7-0.3
				c0.4,0,0.6,0.1,0.7,0.3c0.1,0.2,0.2,0.4,0.2,0.6c0,0.3-0.1,0.5-0.2,0.7C2.3,73.4,2,73.5,1.7,73.5z M0.8,80.4v-6.2h1.8v6.2H0.8z"
				/>
			<path class="st5" d="M3.9,80.4v-6.2h1.6l0.3,1.2h0c0,0,0-0.1,0.1-0.2S6,75,6.2,74.8c0.1-0.2,0.3-0.3,0.6-0.4
				c0.3-0.1,0.6-0.2,1-0.2c0.6,0,1,0.1,1.3,0.3c0.3,0.2,0.5,0.5,0.6,0.9s0.2,0.7,0.2,1.1s0,0.7,0,0.9v3H8.2v-3c0-0.3,0-0.5-0.1-0.8
				c0-0.2-0.2-0.4-0.3-0.6S7.3,75.8,7,75.8c-0.4,0-0.6,0.1-0.8,0.2c-0.2,0.2-0.3,0.4-0.3,0.6c-0.1,0.2-0.1,0.5-0.1,0.8v3H3.9z"/>
			<path class="st5" d="M16.4,80.4c-0.5,0-1-0.1-1.3-0.4c-0.3-0.3-0.4-0.7-0.4-1.4v-3.2h-0.9v-1.2c0.3,0,0.5,0,0.6-0.1
				s0.3-0.2,0.4-0.4c0.1-0.2,0.1-0.6,0.1-1h1.4v1.6h1.4v1.2h-1.4V79h1.4v1.4H16.4z"/>
			<path class="st5" d="M19.1,80.4V72H21v3.5h0c0,0,0-0.1,0.1-0.2c0.1-0.1,0.2-0.3,0.3-0.4c0.1-0.2,0.3-0.3,0.6-0.4s0.6-0.2,1-0.2
				c0.4,0,0.8,0.1,1.1,0.2c0.3,0.2,0.5,0.4,0.7,0.6c0.2,0.3,0.3,0.5,0.3,0.8c0.1,0.3,0.1,0.6,0.1,0.8c0,0.3,0,0.5,0,0.7v3h-1.8v-3
				c0-0.3,0-0.5-0.1-0.8c-0.1-0.2-0.2-0.4-0.3-0.6c-0.2-0.2-0.4-0.2-0.8-0.2c-0.4,0-0.6,0.1-0.8,0.2c-0.2,0.2-0.3,0.4-0.3,0.6
				c0,0.2-0.1,0.5-0.1,0.8v3H19.1z"/>
			<path class="st5" d="M29.3,80.6c-0.7,0-1.3-0.2-1.8-0.5c-0.5-0.3-0.8-0.7-1-1.2c-0.2-0.5-0.3-1-0.3-1.5c0-0.7,0.1-1.2,0.4-1.7
				c0.2-0.5,0.6-0.9,1.1-1.1c0.5-0.3,1-0.4,1.6-0.4c0.6,0,1.1,0.1,1.5,0.4c0.4,0.2,0.8,0.6,1.1,1c0.3,0.4,0.4,1,0.4,1.6
				c0,0,0,0.1,0,0.2s0,0.2,0,0.2h-4.3c0,0.5,0.1,0.9,0.4,1.1c0.2,0.2,0.6,0.4,1,0.4c0.3,0,0.6-0.1,0.8-0.2c0.2-0.2,0.3-0.4,0.4-0.6
				h1.8c-0.1,0.6-0.3,1.2-0.8,1.7C30.9,80.3,30.2,80.6,29.3,80.6z M27.9,76.8h2.5c0,0,0-0.1,0-0.2c0-0.1-0.1-0.2-0.2-0.4
				c-0.1-0.1-0.2-0.3-0.4-0.4c-0.2-0.1-0.4-0.1-0.7-0.1c-0.4,0-0.7,0.1-0.8,0.2c-0.2,0.2-0.3,0.3-0.3,0.5
				C28,76.6,27.9,76.7,27.9,76.8z"/>
		</g>
		<g class="st6">
			<path class="st5" d="M36.5,80.4v-6.2h1.7l0.1,1.7c0.1-0.3,0.2-0.5,0.3-0.8c0.2-0.3,0.4-0.5,0.7-0.7c0.3-0.2,0.7-0.3,1.2-0.3h0.2
				v2h-0.2c-0.8,0-1.4,0.1-1.8,0.3s-0.6,0.6-0.6,1.3v2.6H36.5z"/>
		</g>
		<g class="st6">
			<path class="st5" d="M44.8,80.6c-0.7,0-1.3-0.2-1.8-0.5c-0.5-0.3-0.8-0.7-1-1.2c-0.2-0.5-0.3-1-0.3-1.5c0-0.7,0.1-1.2,0.4-1.7
				c0.2-0.5,0.6-0.9,1.1-1.1c0.5-0.3,1-0.4,1.6-0.4c0.6,0,1.1,0.1,1.5,0.4c0.4,0.2,0.8,0.6,1.1,1c0.3,0.4,0.4,1,0.4,1.6
				c0,0,0,0.1,0,0.2s0,0.2,0,0.2h-4.3c0,0.5,0.1,0.9,0.4,1.1c0.2,0.2,0.6,0.4,1,0.4c0.3,0,0.6-0.1,0.8-0.2c0.2-0.2,0.3-0.4,0.4-0.6
				h1.8c-0.1,0.6-0.3,1.2-0.8,1.7C46.4,80.3,45.7,80.6,44.8,80.6z M43.4,76.8h2.5c0,0,0-0.1,0-0.2c0-0.1-0.1-0.2-0.2-0.4
				c-0.1-0.1-0.2-0.3-0.4-0.4c-0.2-0.1-0.4-0.1-0.7-0.1c-0.4,0-0.7,0.1-0.8,0.2c-0.2,0.2-0.3,0.3-0.3,0.5
				C43.4,76.6,43.4,76.7,43.4,76.8z"/>
			<path class="st5" d="M50.7,83.3v-1.7h2.5v-2.1h0c0,0,0,0.1-0.1,0.2c-0.1,0.1-0.2,0.2-0.3,0.4c-0.2,0.1-0.4,0.3-0.6,0.4
				c-0.2,0.1-0.6,0.2-0.9,0.2c-0.9,0-1.6-0.3-1.9-0.9s-0.6-1.3-0.6-2.3c0-1,0.2-1.8,0.6-2.3c0.4-0.6,1-0.8,1.9-0.8
				c0.4,0,0.7,0.1,1,0.2c0.2,0.1,0.4,0.3,0.6,0.4s0.2,0.3,0.3,0.4s0.1,0.2,0.1,0.2h0v-1.2h1.9v6.4c0,1-0.2,1.7-0.6,2
				c-0.4,0.4-1,0.6-1.8,0.6H50.7z M51.8,79c0.6,0,0.9-0.2,1.1-0.5c0.2-0.3,0.3-0.7,0.3-1.1c0-0.4-0.1-0.8-0.3-1.1
				c-0.2-0.3-0.5-0.5-1.1-0.5c-0.4,0-0.7,0.1-0.9,0.2c-0.2,0.2-0.3,0.4-0.4,0.6c-0.1,0.2-0.1,0.5-0.1,0.8c0,0.3,0,0.5,0.1,0.8
				s0.2,0.4,0.4,0.6C51.1,79,51.4,79,51.8,79z"/>
			<path class="st5" d="M57.3,73.5c-0.4,0-0.6-0.1-0.7-0.3c-0.1-0.2-0.2-0.4-0.2-0.7c0-0.2,0.1-0.5,0.2-0.6s0.4-0.3,0.7-0.3
				c0.4,0,0.6,0.1,0.7,0.3c0.1,0.2,0.2,0.4,0.2,0.6c0,0.3-0.1,0.5-0.2,0.7C57.9,73.4,57.6,73.5,57.3,73.5z M56.4,80.4v-6.2h1.8v6.2
				H56.4z"/>
			<path class="st5" d="M62.5,80.6c-0.7,0-1.3-0.1-1.8-0.4c-0.5-0.3-0.8-0.6-1.1-1.1c-0.2-0.5-0.4-1-0.4-1.6c0-0.9,0.2-1.7,0.8-2.3
				s1.3-0.9,2.4-0.9c1,0,1.8,0.3,2.4,0.9s0.8,1.4,0.8,2.3c0,0.6-0.1,1.1-0.3,1.6s-0.6,0.9-1,1.1C63.8,80.4,63.2,80.6,62.5,80.6z
				 M62.5,79c0.4,0,0.7-0.1,0.9-0.3s0.3-0.4,0.4-0.7s0.1-0.5,0.1-0.8c0-0.3,0-0.6-0.1-0.8c-0.1-0.3-0.2-0.5-0.4-0.7
				c-0.2-0.2-0.5-0.3-0.9-0.3s-0.7,0.1-0.9,0.3c-0.2,0.2-0.4,0.4-0.4,0.7C61,76.8,61,77.1,61,77.3c0,0.3,0,0.5,0.1,0.8
				s0.2,0.5,0.4,0.7C61.7,79,62,79,62.5,79z"/>
			<path class="st5" d="M66.7,80.4v-6.2h1.6l0.3,1.2h0c0,0,0-0.1,0.1-0.2s0.2-0.3,0.3-0.4c0.1-0.2,0.3-0.3,0.6-0.4
				c0.3-0.1,0.6-0.2,1-0.2c0.6,0,1,0.1,1.3,0.3c0.3,0.2,0.5,0.5,0.6,0.9s0.2,0.7,0.2,1.1s0,0.7,0,0.9v3H71v-3c0-0.3,0-0.5-0.1-0.8
				c0-0.2-0.2-0.4-0.3-0.6s-0.4-0.2-0.8-0.2c-0.4,0-0.6,0.1-0.8,0.2c-0.2,0.2-0.3,0.4-0.3,0.6c-0.1,0.2-0.1,0.5-0.1,0.8v3H66.7z"/>
		</g>
		<g class="st6">
			<path class="st5" d="M3.2,98.6c-0.2,0-0.4,0-0.7-0.1c-0.3-0.1-0.6-0.2-1-0.3c-0.3-0.2-0.6-0.4-0.8-0.7c-0.2-0.3-0.3-0.7-0.3-1.2
				H2c0,0,0,0.1,0,0.2c0,0.1,0,0.2,0.1,0.4s0.2,0.2,0.3,0.3c0.2,0.1,0.4,0.1,0.7,0.1c0.4,0,0.6-0.1,0.8-0.2s0.2-0.3,0.2-0.4
				c0-0.2-0.1-0.3-0.3-0.4C3.7,96.1,3.5,96,3.2,96c-0.3-0.1-0.6-0.2-0.9-0.3c-0.3-0.1-0.6-0.2-0.9-0.4c-0.3-0.1-0.5-0.3-0.7-0.6
				s-0.3-0.6-0.3-1c0-0.6,0.2-1,0.7-1.3C1.7,92.2,2.2,92,3,92c0.5,0,1,0.1,1.5,0.3c0.4,0.2,0.8,0.4,1.1,0.8c0.3,0.4,0.4,0.8,0.4,1.3
				H4.3c0-0.3,0-0.5-0.2-0.6c-0.1-0.1-0.3-0.2-0.5-0.3c-0.2-0.1-0.4-0.1-0.6-0.1c-0.3,0-0.6,0.1-0.7,0.2c-0.1,0.1-0.2,0.2-0.2,0.4
				c0,0.2,0.1,0.4,0.3,0.5c0.2,0.1,0.4,0.2,0.7,0.3C3.4,94.8,3.7,94.9,4,95c0.3,0.1,0.6,0.2,0.9,0.3c0.3,0.1,0.5,0.3,0.7,0.6
				c0.2,0.2,0.3,0.5,0.3,0.9c0,0.6-0.2,1-0.7,1.3C4.7,98.4,4,98.6,3.2,98.6z"/>
			<path class="st5" d="M8,91.5c-0.4,0-0.6-0.1-0.7-0.3c-0.1-0.2-0.2-0.4-0.2-0.7c0-0.2,0.1-0.5,0.2-0.6s0.4-0.3,0.7-0.3
				c0.4,0,0.6,0.1,0.7,0.3c0.1,0.2,0.2,0.4,0.2,0.6c0,0.3-0.1,0.5-0.2,0.7C8.6,91.4,8.4,91.5,8,91.5z M7.1,98.4v-6.2h1.8v6.2H7.1z"
				/>
			<path class="st5" d="M10.2,98.4v-6.2h1.6l0.3,1.2h0c0,0,0-0.1,0.1-0.2s0.2-0.3,0.3-0.4c0.1-0.2,0.3-0.3,0.6-0.4
				c0.3-0.1,0.6-0.2,1-0.2c0.6,0,1,0.1,1.3,0.3c0.3,0.2,0.5,0.5,0.6,0.9s0.2,0.7,0.2,1.1s0,0.7,0,0.9v3h-1.8v-3c0-0.3,0-0.5-0.1-0.8
				c0-0.2-0.2-0.4-0.3-0.6s-0.4-0.2-0.8-0.2c-0.4,0-0.6,0.1-0.8,0.2c-0.2,0.2-0.3,0.4-0.3,0.6c-0.1,0.2-0.1,0.5-0.1,0.8v3H10.2z"/>
			<path class="st5" d="M20.4,98.6c-0.6,0-1.1-0.1-1.6-0.4c-0.5-0.2-0.9-0.6-1.2-1.1c-0.3-0.5-0.4-1-0.4-1.7c0-0.7,0.2-1.2,0.4-1.7
				c0.3-0.5,0.7-0.9,1.1-1.1s1-0.4,1.6-0.4c0.7,0,1.2,0.1,1.7,0.4c0.5,0.2,0.8,0.6,1,1c0.2,0.4,0.4,0.8,0.4,1.2h-1.6
				c-0.1-0.7-0.6-1-1.4-1c-0.5,0-0.9,0.1-1.1,0.4S19,94.8,19,95.3c0,0.5,0.1,1,0.4,1.3c0.2,0.3,0.6,0.5,1.2,0.5
				c0.3,0,0.6-0.1,0.9-0.3c0.2-0.2,0.4-0.4,0.5-0.8h1.6c0,0.4-0.1,0.8-0.4,1.3c-0.2,0.4-0.6,0.7-1,1S21.1,98.6,20.4,98.6z"/>
			<path class="st5" d="M27.4,98.6c-0.7,0-1.3-0.2-1.8-0.5c-0.5-0.3-0.8-0.7-1-1.2c-0.2-0.5-0.3-1-0.3-1.5c0-0.7,0.1-1.2,0.4-1.7
				c0.2-0.5,0.6-0.9,1.1-1.1c0.5-0.3,1-0.4,1.6-0.4c0.6,0,1.1,0.1,1.5,0.4c0.4,0.2,0.8,0.6,1.1,1c0.3,0.4,0.4,1,0.4,1.6
				c0,0,0,0.1,0,0.2s0,0.2,0,0.2h-4.3c0,0.5,0.1,0.9,0.4,1.1c0.2,0.2,0.6,0.4,1,0.4c0.3,0,0.6-0.1,0.8-0.2c0.2-0.2,0.3-0.4,0.4-0.6
				h1.8c-0.1,0.6-0.3,1.2-0.8,1.7C29,98.3,28.3,98.6,27.4,98.6z M26.1,94.8h2.5c0,0,0-0.1,0-0.2c0-0.1-0.1-0.2-0.2-0.4
				c-0.1-0.1-0.2-0.3-0.4-0.4c-0.2-0.1-0.4-0.1-0.7-0.1c-0.4,0-0.7,0.1-0.8,0.2c-0.2,0.2-0.3,0.3-0.3,0.5
				C26.1,94.6,26.1,94.7,26.1,94.8z"/>
			<path class="st5" d="M36.9,98.4c-0.5,0-1-0.1-1.3-0.4c-0.3-0.3-0.4-0.7-0.4-1.4v-3.2h-0.9v-1.2c0.3,0,0.5,0,0.6-0.1
				s0.3-0.2,0.4-0.4c0.1-0.2,0.1-0.6,0.1-1h1.4v1.6h1.4v1.2h-1.4V97h1.4v1.4H36.9z"/>
			<path class="st5" d="M39.6,98.4V90h1.9v3.5h0c0,0,0-0.1,0.1-0.2c0.1-0.1,0.2-0.3,0.3-0.4c0.1-0.2,0.3-0.3,0.6-0.4s0.6-0.2,1-0.2
				c0.4,0,0.8,0.1,1.1,0.2c0.3,0.2,0.5,0.4,0.7,0.6c0.2,0.3,0.3,0.5,0.3,0.8c0.1,0.3,0.1,0.6,0.1,0.8c0,0.3,0,0.5,0,0.7v3h-1.8v-3
				c0-0.3,0-0.5-0.1-0.8c-0.1-0.2-0.2-0.4-0.3-0.6c-0.2-0.2-0.4-0.2-0.8-0.2c-0.4,0-0.6,0.1-0.8,0.2c-0.2,0.2-0.3,0.4-0.3,0.6
				c0,0.2-0.1,0.5-0.1,0.8v3H39.6z"/>
			<path class="st5" d="M49.8,98.6c-0.7,0-1.3-0.2-1.8-0.5c-0.5-0.3-0.8-0.7-1-1.2c-0.2-0.5-0.3-1-0.3-1.5c0-0.7,0.1-1.2,0.4-1.7
				c0.2-0.5,0.6-0.9,1.1-1.1c0.5-0.3,1-0.4,1.6-0.4c0.6,0,1.1,0.1,1.5,0.4c0.4,0.2,0.8,0.6,1.1,1c0.3,0.4,0.4,1,0.4,1.6
				c0,0,0,0.1,0,0.2s0,0.2,0,0.2h-4.3c0,0.5,0.1,0.9,0.4,1.1c0.2,0.2,0.6,0.4,1,0.4c0.3,0,0.6-0.1,0.8-0.2c0.2-0.2,0.3-0.4,0.4-0.6
				h1.8c-0.1,0.6-0.3,1.2-0.8,1.7C51.4,98.3,50.7,98.6,49.8,98.6z M48.4,94.8h2.5c0,0,0-0.1,0-0.2c0-0.1-0.1-0.2-0.2-0.4
				c-0.1-0.1-0.2-0.3-0.4-0.4c-0.2-0.1-0.4-0.1-0.7-0.1c-0.4,0-0.7,0.1-0.8,0.2c-0.2,0.2-0.3,0.3-0.3,0.5
				C48.5,94.6,48.4,94.7,48.4,94.8z"/>
		</g>
		<g class="st6">
			<path class="st5" d="M5.4,114.9v1.5H1v-1.5h1.4V110c-0.1,0.4-0.2,0.7-0.4,0.9c-0.2,0.2-0.4,0.3-0.6,0.4c-0.2,0.1-0.4,0.1-0.6,0.1
				c-0.2,0-0.3,0-0.3,0v-2c0.1,0,0.2,0,0.4,0c0.2,0,0.4-0.1,0.7-0.1s0.4-0.2,0.6-0.5c0.2-0.2,0.3-0.5,0.3-0.9h1.6v6.9H5.4z"/>
			<path class="st5" d="M10,116.6c-0.6,0-1-0.1-1.4-0.2s-0.7-0.3-0.9-0.5s-0.4-0.4-0.6-0.6s-0.2-0.4-0.3-0.7l1.8-0.4
				c0,0,0,0.1,0.1,0.2c0.1,0.1,0.2,0.3,0.4,0.4c0.2,0.1,0.5,0.2,0.9,0.2c0.2,0,0.4,0,0.7-0.1c0.2-0.1,0.4-0.3,0.6-0.5
				c0.2-0.2,0.3-0.6,0.5-1c0.1-0.4,0.2-0.9,0.1-1.6c0,0-0.1,0.2-0.1,0.3s-0.2,0.4-0.4,0.6c-0.2,0.2-0.4,0.4-0.7,0.5
				c-0.3,0.1-0.7,0.2-1.1,0.2c-0.7,0-1.2-0.1-1.6-0.4c-0.4-0.3-0.7-0.6-0.9-1s-0.3-0.9-0.2-1.3c0-0.5,0.2-0.9,0.5-1.3
				c0.3-0.4,0.6-0.8,1.1-1c0.5-0.3,1.1-0.4,1.8-0.4c0.7,0,1.3,0.1,1.7,0.4c0.5,0.2,0.8,0.6,1.1,1c0.3,0.4,0.5,0.9,0.6,1.4
				c0.1,0.5,0.2,1.1,0.2,1.6c0,0.8-0.1,1.5-0.4,2.2s-0.6,1.2-1.2,1.6C11.5,116.4,10.8,116.6,10,116.6z M9.8,112.3
				c0.5,0,1-0.2,1.3-0.5c0.3-0.3,0.5-0.7,0.5-1.2c-0.1-0.5-0.3-0.8-0.6-1s-0.7-0.3-1-0.3c-0.4,0-0.7,0.1-1,0.3
				c-0.3,0.2-0.4,0.4-0.5,0.8c-0.1,0.3-0.1,0.6,0,0.9c0.1,0.3,0.2,0.5,0.5,0.8C9.1,112.2,9.4,112.3,9.8,112.3z"/>
			<path class="st5" d="M17.7,116.4h-1.8c0-1.1,0.2-2.2,0.5-3.1c0.4-0.9,0.9-1.7,1.5-2.3c0.6-0.6,1.3-1.1,2.1-1.4h-5V108h6.6v1.5
				c-0.2,0.1-0.5,0.3-0.9,0.5s-0.7,0.5-1,0.8c-0.4,0.3-0.7,0.8-1,1.3c-0.3,0.5-0.6,1.1-0.8,1.8C17.8,114.6,17.7,115.5,17.7,116.4z"
				/>
			<path class="st5" d="M26.5,116.6c-1.3,0-2.2-0.4-2.8-1.2c-0.6-0.8-0.9-1.9-0.9-3.2c0-0.9,0.1-1.7,0.4-2.3
				c0.3-0.7,0.7-1.2,1.2-1.5c0.6-0.4,1.3-0.5,2.1-0.5c1.3,0,2.2,0.4,2.8,1.2s0.9,1.9,0.9,3.2c0,0.9-0.1,1.6-0.4,2.3
				s-0.7,1.2-1.2,1.6C28.1,116.4,27.4,116.6,26.5,116.6z M26.5,115.1c0.7,0,1.2-0.2,1.6-0.7c0.3-0.5,0.5-1.2,0.5-2.2
				c0-1-0.2-1.7-0.5-2.2c-0.3-0.5-0.9-0.7-1.6-0.7c-0.7,0-1.2,0.2-1.6,0.7s-0.5,1.2-0.5,2.2c0,1,0.2,1.7,0.5,2.2
				C25.3,114.9,25.8,115.1,26.5,115.1z"/>
			<path class="st5" d="M34,116.6c-0.2,0-0.4,0-0.7-0.1c-0.3-0.1-0.6-0.2-1-0.3c-0.3-0.2-0.6-0.4-0.8-0.7c-0.2-0.3-0.3-0.7-0.3-1.2
				h1.7c0,0,0,0.1,0,0.2c0,0.1,0,0.2,0.1,0.4s0.2,0.2,0.3,0.3c0.2,0.1,0.4,0.1,0.7,0.1c0.4,0,0.6-0.1,0.8-0.2s0.2-0.3,0.2-0.4
				c0-0.2-0.1-0.3-0.3-0.4c-0.2-0.1-0.4-0.2-0.7-0.3c-0.3-0.1-0.6-0.2-0.9-0.3c-0.3-0.1-0.6-0.2-0.9-0.4c-0.3-0.1-0.5-0.3-0.7-0.6
				s-0.3-0.6-0.3-1c0-0.6,0.2-1,0.7-1.3c0.5-0.3,1.1-0.4,1.8-0.4c0.5,0,1,0.1,1.5,0.3c0.4,0.2,0.8,0.4,1.1,0.8
				c0.3,0.4,0.4,0.8,0.4,1.3H35c0-0.3,0-0.5-0.2-0.6c-0.1-0.1-0.3-0.2-0.5-0.3c-0.2-0.1-0.4-0.1-0.6-0.1c-0.3,0-0.6,0.1-0.7,0.2
				c-0.1,0.1-0.2,0.2-0.2,0.4c0,0.2,0.1,0.4,0.3,0.5c0.2,0.1,0.4,0.2,0.7,0.3c0.3,0.1,0.6,0.2,0.9,0.3c0.3,0.1,0.6,0.2,0.9,0.3
				c0.3,0.1,0.5,0.3,0.7,0.6c0.2,0.2,0.3,0.5,0.3,0.9c0,0.6-0.2,1-0.7,1.3C35.4,116.4,34.8,116.6,34,116.6z"/>
			<path class="st5" d="M38.6,116.4c-0.4,0-0.7-0.1-0.8-0.3s-0.2-0.5-0.2-0.7c0-0.3,0.1-0.5,0.2-0.7c0.1-0.2,0.4-0.3,0.8-0.3
				c0.4,0,0.7,0.1,0.8,0.3s0.2,0.4,0.2,0.7c0,0.3-0.1,0.5-0.2,0.8S39,116.4,38.6,116.4z"/>
		</g>
	</g>
</g>
</svg>
