<svg xmlns="http://www.w3.org/2000/svg" viewBox="0 0 207.62 277.04"><defs><style>.a121cff3-ca51-4692-bfab-85f9d7932c65,.a4825b9e-b7d9-4402-b224-3aa16a6c4014,.b0eb6c36-4d56-4c66-a486-ad25b13f91d8{fill:#ae90ff;}.e715caff-0ee7-489a-917f-8939f6541ee3{fill:#7945ff;}.fb7da16a-f754-4517-a63d-aac466d5a455{font-size:13.28px;fill:#fff;}.a4825b9e-b7d9-4402-b224-3aa16a6c4014,.fb7da16a-f754-4517-a63d-aac466d5a455{font-family:DarkerGrotesque-Black, Darker Grotesque;font-weight:800;}.a2a4ab34-5805-4475-a1a8-2e138b609d21,.f2817321-1704-4e0b-bbd6-6404499ed7ef{font-family:DarkerGrotesque-SemiBold, Darker Grotesque;font-weight:600;}.a2a4ab34-5805-4475-a1a8-2e138b609d21,.b22feec8-1008-4b84-b466-fe8cb6a79483{letter-spacing:0em;}.aa35a7d8-9841-4bd1-803d-6a1236b6eb1f{letter-spacing:-0.04em;}.a6cb40f5-c1fc-4c8c-97b6-4c754946d75d{letter-spacing:0.01em;}.b0eb6c36-4d56-4c66-a486-ad25b13f91d8{font-size:25.93px;font-family:Terminal-Grotesque, Terminal Grotesque;}.a4825b9e-b7d9-4402-b224-3aa16a6c4014{font-size:12px;}.b6df3e5f-1e36-483f-b8ee-db239b83a820{letter-spacing:-0.02em;}.b09c51e1-d576-444b-a173-9a9c73c24819{fill:none;stroke:#ae90ff;stroke-miterlimit:10;}</style></defs><g id="bc61a0b8-6357-45f7-945c-9ebba1431af1" data-name="Capa 2"><g id="a619dee2-4408-4412-9539-c4cee15213bd" data-name="Layer 1"><circle class="a121cff3-ca51-4692-bfab-85f9d7932c65" cx="103.81" cy="173.23" r="103.8"/><path class="e715caff-0ee7-489a-917f-8939f6541ee3" d="M103.81,173.23l-.3-103.8c56.94-.17,103.94,46.55,104.1,103.5S161.06,276.87,104.11,277a103.82,103.82,0,0,1-76.38-33.18Z"/><text class="fb7da16a-f754-4517-a63d-aac466d5a455" transform="translate(38.85 137.72)">42%<tspan class="a2a4ab34-5805-4475-a1a8-2e138b609d21" x="23.12" y="0"> </tspan><tspan class="f2817321-1704-4e0b-bbd6-6404499ed7ef"><tspan x="-19" y="15.11">REMAINING</tspan><tspan x="-30.08" y="30.21">OF POPUL</tspan><tspan class="aa35a7d8-9841-4bd1-803d-6a1236b6eb1f" x="22.56" y="30.21">A</tspan><tspan class="b22feec8-1008-4b84-b466-fe8cb6a79483" x="29.42" y="30.21">TION</tspan></tspan></text><text class="fb7da16a-f754-4517-a63d-aac466d5a455" transform="translate(125.07 184.3)">58%<tspan class="a2a4ab34-5805-4475-a1a8-2e138b609d21" x="23.43" y="0"> </tspan><tspan class="f2817321-1704-4e0b-bbd6-6404499ed7ef"><tspan class="a6cb40f5-c1fc-4c8c-97b6-4c754946d75d" x="-10.55" y="15.11">V</tspan><tspan x="-3.3" y="15.11">ICTIMS</tspan><tspan x="-34.82" y="30.21">OF THE CONFLICT</tspan></tspan></text><text class="b0eb6c36-4d56-4c66-a486-ad25b13f91d8" transform="translate(70.01 36.73)">10,007</text><text class="a4825b9e-b7d9-4402-b224-3aa16a6c4014" transform="translate(70.27 11.29)">POPUL<tspan class="b6df3e5f-1e36-483f-b8ee-db239b83a820" x="32.66" y="0">A</tspan><tspan x="39.58" y="0">TION:</tspan></text><path class="b09c51e1-d576-444b-a173-9a9c73c24819" d="M141.07,43.47h3.46V41.74h1.74V26.16H148V24.43h1.73V22.69h1.73V21h-1.73V19.23H148V17.5h-1.73V3.65h-1.74V1.92h-3.46"/><path class="b09c51e1-d576-444b-a173-9a9c73c24819" d="M66.55.5H63.08V2.23H61.35V17.81H59.62v1.74H57.89v1.73H56.16V23h1.73v1.73h1.73v1.73h1.73V40.32h1.73v1.73h3.47"/></g></g></svg>