<svg xmlns="http://www.w3.org/2000/svg" viewBox="0 0 1028.48 14.35"><defs><style>.cls-1{fill:#ff6656;}</style></defs><g id="Capa_2" data-name="Capa 2"><g id="Layer_1" data-name="Layer 1"><rect class="cls-1" x="55.31" y="4.78" width="5.02" height="4.78"/><rect class="cls-1" x="50.28" width="5.03" height="4.78"/><rect class="cls-1" x="45.25" y="4.78" width="5.03" height="4.78"/><rect class="cls-1" x="40.22" y="9.57" width="5.03" height="4.78"/><rect class="cls-1" x="35.19" y="4.78" width="5.03" height="4.78"/><rect class="cls-1" x="30.17" width="5.02" height="4.78"/><rect class="cls-1" x="25.14" y="4.78" width="5.03" height="4.78"/><rect class="cls-1" x="20.11" y="9.57" width="5.03" height="4.78"/><rect class="cls-1" x="15.08" y="4.78" width="5.03" height="4.78"/><rect class="cls-1" x="10.05" width="5.03" height="4.78"/><rect class="cls-1" x="5.03" y="4.78" width="5.02" height="4.78"/><rect class="cls-1" y="9.57" width="5.03" height="4.78"/><rect class="cls-1" x="115.64" y="4.78" width="5.02" height="4.78"/><rect class="cls-1" x="110.61" width="5.03" height="4.78"/><rect class="cls-1" x="105.58" y="4.78" width="5.03" height="4.78"/><rect class="cls-1" x="100.55" y="9.57" width="5.03" height="4.78"/><rect class="cls-1" x="95.53" y="4.78" width="5.03" height="4.78"/><rect class="cls-1" x="90.5" width="5.02" height="4.78"/><rect class="cls-1" x="85.47" y="4.78" width="5.03" height="4.78"/><rect class="cls-1" x="80.44" y="9.57" width="5.03" height="4.78"/><rect class="cls-1" x="75.41" y="4.78" width="5.03" height="4.78"/><rect class="cls-1" x="70.39" width="5.03" height="4.78"/><rect class="cls-1" x="65.36" y="4.78" width="5.02" height="4.78"/><rect class="cls-1" x="60.33" y="9.57" width="5.03" height="4.78"/><rect class="cls-1" x="175.97" y="4.78" width="5.02" height="4.78"/><rect class="cls-1" x="170.94" width="5.03" height="4.78"/><rect class="cls-1" x="165.92" y="4.78" width="5.03" height="4.78"/><rect class="cls-1" x="160.89" y="9.57" width="5.03" height="4.78"/><rect class="cls-1" x="155.86" y="4.78" width="5.03" height="4.78"/><rect class="cls-1" x="150.83" width="5.02" height="4.78"/><rect class="cls-1" x="145.8" y="4.78" width="5.03" height="4.78"/><rect class="cls-1" x="140.78" y="9.57" width="5.03" height="4.78"/><rect class="cls-1" x="135.75" y="4.78" width="5.03" height="4.78"/><rect class="cls-1" x="130.72" width="5.03" height="4.78"/><rect class="cls-1" x="125.69" y="4.78" width="5.02" height="4.78"/><rect class="cls-1" x="120.66" y="9.57" width="5.03" height="4.78"/><rect class="cls-1" x="236.31" y="4.78" width="5.02" height="4.78"/><rect class="cls-1" x="231.28" width="5.03" height="4.78"/><rect class="cls-1" x="226.25" y="4.78" width="5.03" height="4.78"/><rect class="cls-1" x="221.22" y="9.57" width="5.03" height="4.78"/><rect class="cls-1" x="216.19" y="4.78" width="5.03" height="4.78"/><rect class="cls-1" x="211.17" width="5.02" height="4.78"/><rect class="cls-1" x="206.14" y="4.78" width="5.03" height="4.78"/><rect class="cls-1" x="201.11" y="9.57" width="5.03" height="4.78"/><rect class="cls-1" x="196.08" y="4.78" width="5.03" height="4.78"/><rect class="cls-1" x="191.05" width="5.03" height="4.78"/><rect class="cls-1" x="186.03" y="4.78" width="5.02" height="4.78"/><rect class="cls-1" x="181" y="9.57" width="5.03" height="4.78"/><rect class="cls-1" x="296.64" y="4.78" width="5.02" height="4.78"/><rect class="cls-1" x="291.61" width="5.03" height="4.78"/><rect class="cls-1" x="286.58" y="4.78" width="5.03" height="4.78"/><rect class="cls-1" x="281.55" y="9.57" width="5.03" height="4.78"/><rect class="cls-1" x="276.52" y="4.78" width="5.03" height="4.78"/><rect class="cls-1" x="271.5" width="5.02" height="4.78"/><rect class="cls-1" x="266.47" y="4.78" width="5.03" height="4.78"/><rect class="cls-1" x="261.44" y="9.57" width="5.03" height="4.78"/><rect class="cls-1" x="256.41" y="4.78" width="5.03" height="4.78"/><rect class="cls-1" x="251.38" width="5.03" height="4.78"/><rect class="cls-1" x="246.36" y="4.78" width="5.02" height="4.78"/><rect class="cls-1" x="241.33" y="9.57" width="5.03" height="4.78"/><rect class="cls-1" x="356.97" y="4.78" width="5.02" height="4.78"/><rect class="cls-1" x="351.94" width="5.03" height="4.78"/><rect class="cls-1" x="346.91" y="4.78" width="5.03" height="4.78"/><rect class="cls-1" x="341.88" y="9.57" width="5.03" height="4.78"/><rect class="cls-1" x="336.86" y="4.78" width="5.03" height="4.78"/><rect class="cls-1" x="331.83" width="5.02" height="4.78"/><rect class="cls-1" x="326.8" y="4.78" width="5.03" height="4.78"/><rect class="cls-1" x="321.77" y="9.57" width="5.03" height="4.78"/><rect class="cls-1" x="316.74" y="4.78" width="5.03" height="4.78"/><rect class="cls-1" x="311.72" width="5.03" height="4.78"/><rect class="cls-1" x="306.69" y="4.78" width="5.02" height="4.78"/><rect class="cls-1" x="301.66" y="9.57" width="5.03" height="4.78"/><rect class="cls-1" x="417.3" y="4.78" width="5.02" height="4.78"/><rect class="cls-1" x="412.27" width="5.03" height="4.78"/><rect class="cls-1" x="407.25" y="4.78" width="5.03" height="4.78"/><rect class="cls-1" x="402.22" y="9.57" width="5.03" height="4.78"/><rect class="cls-1" x="397.19" y="4.78" width="5.03" height="4.78"/><rect class="cls-1" x="392.16" width="5.02" height="4.78"/><rect class="cls-1" x="387.13" y="4.78" width="5.03" height="4.78"/><rect class="cls-1" x="382.11" y="9.57" width="5.03" height="4.78"/><rect class="cls-1" x="377.08" y="4.78" width="5.03" height="4.78"/><rect class="cls-1" x="372.05" width="5.03" height="4.78"/><rect class="cls-1" x="367.02" y="4.78" width="5.02" height="4.78"/><rect class="cls-1" x="361.99" y="9.57" width="5.03" height="4.78"/><rect class="cls-1" x="477.64" y="4.78" width="5.02" height="4.78"/><rect class="cls-1" x="472.61" width="5.03" height="4.78"/><rect class="cls-1" x="467.58" y="4.78" width="5.03" height="4.78"/><rect class="cls-1" x="462.55" y="9.57" width="5.03" height="4.78"/><rect class="cls-1" x="457.52" y="4.78" width="5.03" height="4.78"/><rect class="cls-1" x="452.5" width="5.02" height="4.78"/><rect class="cls-1" x="447.47" y="4.78" width="5.03" height="4.78"/><rect class="cls-1" x="442.44" y="9.57" width="5.03" height="4.78"/><rect class="cls-1" x="437.41" y="4.78" width="5.03" height="4.78"/><rect class="cls-1" x="432.38" width="5.03" height="4.78"/><rect class="cls-1" x="427.36" y="4.78" width="5.02" height="4.78"/><rect class="cls-1" x="422.33" y="9.57" width="5.03" height="4.78"/><rect class="cls-1" x="537.97" y="4.78" width="5.02" height="4.78"/><rect class="cls-1" x="532.94" width="5.03" height="4.78"/><rect class="cls-1" x="527.91" y="4.78" width="5.03" height="4.78"/><rect class="cls-1" x="522.88" y="9.57" width="5.03" height="4.78"/><rect class="cls-1" x="517.85" y="4.78" width="5.03" height="4.78"/><rect class="cls-1" x="512.83" width="5.02" height="4.78"/><rect class="cls-1" x="507.8" y="4.78" width="5.03" height="4.78"/><rect class="cls-1" x="502.77" y="9.57" width="5.03" height="4.78"/><rect class="cls-1" x="497.74" y="4.78" width="5.03" height="4.78"/><rect class="cls-1" x="492.71" width="5.03" height="4.78"/><rect class="cls-1" x="487.69" y="4.78" width="5.02" height="4.78"/><rect class="cls-1" x="482.66" y="9.57" width="5.03" height="4.78"/><rect class="cls-1" x="598.3" y="4.78" width="5.02" height="4.78"/><rect class="cls-1" x="593.27" width="5.03" height="4.78"/><rect class="cls-1" x="588.24" y="4.78" width="5.03" height="4.78"/><rect class="cls-1" x="583.21" y="9.57" width="5.03" height="4.78"/><rect class="cls-1" x="578.18" y="4.78" width="5.03" height="4.78"/><rect class="cls-1" x="573.16" width="5.02" height="4.78"/><rect class="cls-1" x="568.13" y="4.78" width="5.03" height="4.78"/><rect class="cls-1" x="563.1" y="9.57" width="5.03" height="4.78"/><rect class="cls-1" x="558.07" y="4.78" width="5.03" height="4.78"/><rect class="cls-1" x="553.05" width="5.03" height="4.78"/><rect class="cls-1" x="548.02" y="4.78" width="5.02" height="4.78"/><rect class="cls-1" x="542.99" y="9.57" width="5.03" height="4.78"/><rect class="cls-1" x="658.63" y="4.78" width="5.02" height="4.78"/><rect class="cls-1" x="653.6" width="5.03" height="4.78"/><rect class="cls-1" x="648.57" y="4.78" width="5.03" height="4.78"/><rect class="cls-1" x="643.55" y="9.57" width="5.03" height="4.78"/><rect class="cls-1" x="638.52" y="4.78" width="5.03" height="4.78"/><rect class="cls-1" x="633.49" width="5.02" height="4.78"/><rect class="cls-1" x="628.46" y="4.78" width="5.03" height="4.78"/><rect class="cls-1" x="623.44" y="9.57" width="5.03" height="4.78"/><rect class="cls-1" x="618.41" y="4.78" width="5.03" height="4.78"/><rect class="cls-1" x="613.38" width="5.03" height="4.78"/><rect class="cls-1" x="608.35" y="4.78" width="5.02" height="4.78"/><rect class="cls-1" x="603.32" y="9.57" width="5.03" height="4.78"/><rect class="cls-1" x="718.96" y="4.78" width="5.02" height="4.78"/><rect class="cls-1" x="713.94" width="5.03" height="4.78"/><rect class="cls-1" x="708.91" y="4.78" width="5.03" height="4.78"/><rect class="cls-1" x="703.88" y="9.57" width="5.03" height="4.78"/><rect class="cls-1" x="698.85" y="4.78" width="5.03" height="4.78"/><rect class="cls-1" x="693.83" width="5.02" height="4.78"/><rect class="cls-1" x="688.8" y="4.78" width="5.03" height="4.78"/><rect class="cls-1" x="683.77" y="9.57" width="5.03" height="4.78"/><rect class="cls-1" x="678.74" y="4.78" width="5.03" height="4.78"/><rect class="cls-1" x="673.71" width="5.03" height="4.78"/><rect class="cls-1" x="668.69" y="4.78" width="5.02" height="4.78"/><rect class="cls-1" x="663.66" y="9.57" width="5.03" height="4.78"/><rect class="cls-1" x="779.3" y="4.78" width="5.02" height="4.78"/><rect class="cls-1" x="774.27" width="5.03" height="4.78"/><rect class="cls-1" x="769.24" y="4.78" width="5.03" height="4.78"/><rect class="cls-1" x="764.21" y="9.57" width="5.03" height="4.78"/><rect class="cls-1" x="759.18" y="4.78" width="5.03" height="4.78"/><rect class="cls-1" x="754.16" width="5.02" height="4.78"/><rect class="cls-1" x="749.13" y="4.78" width="5.03" height="4.78"/><rect class="cls-1" x="744.1" y="9.57" width="5.03" height="4.78"/><rect class="cls-1" x="739.07" y="4.78" width="5.03" height="4.78"/><rect class="cls-1" x="734.04" width="5.03" height="4.78"/><rect class="cls-1" x="729.02" y="4.78" width="5.02" height="4.78"/><rect class="cls-1" x="723.99" y="9.57" width="5.03" height="4.78"/><rect class="cls-1" x="839.63" y="4.78" width="5.02" height="4.78"/><rect class="cls-1" x="834.6" width="5.03" height="4.78"/><rect class="cls-1" x="829.57" y="4.78" width="5.03" height="4.78"/><rect class="cls-1" x="824.54" y="9.57" width="5.03" height="4.78"/><rect class="cls-1" x="819.51" y="4.78" width="5.03" height="4.78"/><rect class="cls-1" x="814.49" width="5.02" height="4.78"/><rect class="cls-1" x="809.46" y="4.78" width="5.03" height="4.78"/><rect class="cls-1" x="804.43" y="9.57" width="5.03" height="4.78"/><rect class="cls-1" x="799.4" y="4.78" width="5.03" height="4.78"/><rect class="cls-1" x="794.37" width="5.03" height="4.78"/><rect class="cls-1" x="789.35" y="4.78" width="5.02" height="4.78"/><rect class="cls-1" x="784.32" y="9.57" width="5.03" height="4.78"/><rect class="cls-1" x="899.96" y="4.78" width="5.02" height="4.78"/><rect class="cls-1" x="894.93" width="5.03" height="4.78"/><rect class="cls-1" x="889.9" y="4.78" width="5.03" height="4.78"/><rect class="cls-1" x="884.88" y="9.57" width="5.03" height="4.78"/><rect class="cls-1" x="879.85" y="4.78" width="5.03" height="4.78"/><rect class="cls-1" x="874.82" width="5.02" height="4.78"/><rect class="cls-1" x="869.79" y="4.78" width="5.03" height="4.78"/><rect class="cls-1" x="864.76" y="9.57" width="5.03" height="4.78"/><rect class="cls-1" x="859.74" y="4.78" width="5.03" height="4.78"/><rect class="cls-1" x="854.71" width="5.03" height="4.78"/><rect class="cls-1" x="849.68" y="4.78" width="5.02" height="4.78"/><rect class="cls-1" x="844.65" y="9.57" width="5.03" height="4.78"/><polygon class="cls-1" points="965.32 4.78 960.29 4.78 960.29 9.57 963.12 9.57 963.12 14.35 968.14 14.35 968.14 9.57 965.32 9.57 965.32 4.78"/><rect class="cls-1" x="955.27" width="5.03" height="4.78"/><rect class="cls-1" x="950.24" y="4.78" width="5.03" height="4.78"/><rect class="cls-1" x="945.21" y="9.57" width="5.03" height="4.78"/><rect class="cls-1" x="940.18" y="4.78" width="5.03" height="4.78"/><rect class="cls-1" x="935.15" width="5.02" height="4.78"/><rect class="cls-1" x="930.13" y="4.78" width="5.03" height="4.78"/><rect class="cls-1" x="925.1" y="9.57" width="5.03" height="4.78"/><rect class="cls-1" x="920.07" y="4.78" width="5.03" height="4.78"/><rect class="cls-1" x="915.04" width="5.03" height="4.78"/><rect class="cls-1" x="910.02" y="4.78" width="5.02" height="4.78"/><rect class="cls-1" x="904.99" y="9.57" width="5.03" height="4.78"/><rect class="cls-1" x="1018.42" y="4.78" width="5.02" height="4.78"/><rect class="cls-1" x="1013.39" width="5.03" height="4.78"/><rect class="cls-1" x="1008.37" y="4.78" width="5.03" height="4.78"/><rect class="cls-1" x="1003.34" y="9.57" width="5.03" height="4.78"/><rect class="cls-1" x="998.31" y="4.78" width="5.03" height="4.78"/><rect class="cls-1" x="993.28" width="5.02" height="4.78"/><rect class="cls-1" x="988.26" y="4.78" width="5.03" height="4.78"/><rect class="cls-1" x="983.23" y="9.57" width="5.03" height="4.78"/><rect class="cls-1" x="978.2" y="4.78" width="5.03" height="4.78"/><rect class="cls-1" x="973.17" width="5.03" height="4.78"/><rect class="cls-1" x="968.14" y="4.78" width="5.02" height="4.78"/><rect class="cls-1" x="1023.45" y="9.57" width="5.03" height="4.78"/></g></g></svg>