<svg xmlns="http://www.w3.org/2000/svg" viewBox="0 0 194.25 150.29"><defs><style>.cls-1{fill:none;}.cls-2{fill:#a83356;}.cls-3{fill:#ff9193;}.cls-4{fill:#d13828;}.cls-5{fill:#ff6656;}.cls-6{fill:#ff9166;}</style></defs><g id="Capa_2" data-name="Capa 2"><g id="Layer_1" data-name="Layer 1"><polygon class="cls-1" points="86.11 53.15 87.94 53.15 89.77 53.15 89.77 51.32 87.94 51.32 86.11 51.32 84.27 51.32 84.27 53.15 86.11 53.15"/><polygon class="cls-1" points="190.58 58.65 188.75 58.65 186.91 58.65 186.91 60.48 186.91 62.31 186.91 64.14 188.75 64.14 188.75 65.98 190.58 65.98 192.41 65.98 192.41 64.14 192.41 62.31 192.41 60.48 190.58 60.48 190.58 58.65"/><path class="cls-2" d="M192.41,58.65V56.82h-7.33v1.83h-3.67v1.84h-3.65v1.82h-3.67v1.83h-3.67V66h-3.67v1.83h-1.83v1.83h-3.67v1.84h-3.66v1.83h-1.84v1.83H152.1V77h-3.67v1.83h-3.67v1.84h-1.83v1.83h-3.67V84.3h-1.83v1.84h-3.67V88H130.1V89.8h-1.83v1.84H124.6v1.83h-3.67V95.3h-3.66v1.84h-1.84V99h-3.66v1.84H108.1v1.83h-1.84v3.67h-1.82v5.49h1.82v1.83h3.67V111.8h5.5V110h1.84v-1.82h3.66v-1.83h3.67v-1.84h3.67v-1.83h3.66v-1.83h3.66V99h1.84V97.14h3.66V95.3h3.67V93.47h1.83V91.64h1.84V89.8h3.67V88h3.65V86.14h3.67V84.3h3.67V82.48h3.66V80.65h3.67V78.81h1.83V77h5.51V75.14h1.82V73.31h3.67V71.48h3.66V69.64h3.67V67.81h3.67V58.65Zm0,3.66V66h-3.66V64.14h-1.84V58.65h3.67v1.84h1.83Z"/><polygon class="cls-2" points="113.6 115.46 111.77 115.46 111.77 117.3 111.77 119.13 111.77 120.97 113.6 120.97 115.43 120.97 117.27 120.97 117.27 119.13 117.27 117.3 117.27 115.46 115.43 115.46 113.6 115.46"/><polygon class="cls-2" points="104.44 130.13 102.61 130.13 100.77 130.13 100.77 131.97 100.77 133.79 100.77 135.62 102.61 135.62 104.44 135.62 104.44 133.79 106.27 133.79 106.27 131.97 106.27 130.13 106.27 128.3 104.44 128.3 104.44 130.13"/><polygon class="cls-2" points="102.61 20.16 102.61 21.99 104.44 21.99 104.44 20.16 106.27 20.16 106.27 18.32 108.1 18.32 109.93 18.32 111.77 18.32 111.77 20.16 111.77 21.99 111.77 23.82 111.77 25.66 111.77 27.49 111.77 29.32 111.77 31.16 111.77 32.99 111.77 34.83 113.6 34.83 113.6 32.99 115.43 32.99 115.43 31.16 117.27 31.16 117.27 29.32 117.27 27.49 119.1 27.49 119.1 25.66 119.1 23.82 119.1 21.99 119.1 20.16 117.27 20.16 117.27 18.32 115.43 18.32 115.43 16.49 113.6 16.49 111.77 16.49 109.93 16.49 108.1 16.49 106.27 16.49 104.44 16.49 102.61 16.49 100.77 16.49 100.77 18.32 102.61 18.32 102.61 20.16"/><polygon class="cls-2" points="98.94 124.63 97.11 124.63 95.27 124.63 95.27 126.47 95.27 128.3 95.27 130.13 97.11 130.13 98.94 130.13 98.94 128.3 100.77 128.3 100.77 126.47 100.77 124.63 100.77 122.8 98.94 122.8 98.94 124.63"/><polygon class="cls-2" points="98.94 135.62 97.11 135.62 97.11 133.79 95.27 133.79 95.27 131.97 93.44 131.97 93.44 130.13 91.61 130.13 91.61 128.3 91.61 126.47 89.77 126.47 89.77 124.63 87.94 124.63 87.94 122.8 87.94 120.97 87.94 119.13 87.94 117.3 87.94 115.46 86.11 115.46 86.11 113.63 86.11 111.8 86.11 109.96 84.27 109.96 84.27 111.8 82.44 111.8 82.44 113.63 80.61 113.63 80.61 115.46 80.61 117.3 82.44 117.3 82.44 119.13 82.44 120.97 84.27 120.97 84.27 122.8 84.27 124.63 84.27 126.47 86.11 126.47 86.11 128.3 86.11 130.13 87.94 130.13 87.94 131.97 87.94 133.79 89.77 133.79 89.77 135.62 91.61 135.62 91.61 137.46 93.44 137.46 93.44 139.29 95.27 139.29 97.11 139.29 97.11 141.12 97.11 142.96 98.94 142.96 98.94 141.12 100.77 141.12 100.77 139.29 100.77 137.46 98.94 137.46 98.94 135.62"/><polygon class="cls-2" points="97.11 117.3 95.27 117.3 93.44 117.3 93.44 119.13 91.61 119.13 91.61 120.97 91.61 122.8 93.44 122.8 95.27 122.8 97.11 122.8 97.11 120.97 98.94 120.97 98.94 119.13 98.94 117.3 98.94 115.46 97.11 115.46 97.11 117.3"/><polygon class="cls-2" points="91.61 109.96 91.61 111.8 89.77 111.8 89.77 113.63 89.77 115.46 89.77 117.3 91.61 117.3 91.61 115.46 93.44 115.46 95.27 115.46 95.27 113.63 97.11 113.63 97.11 111.8 97.11 109.96 97.11 108.14 95.27 108.14 95.27 109.96 93.44 109.96 91.61 109.96"/><polygon class="cls-2" points="82.44 45.82 84.27 45.82 84.27 43.98 86.11 43.98 87.94 43.98 89.77 43.98 91.61 43.98 93.44 43.98 93.44 42.15 91.61 42.15 91.61 40.32 89.77 40.32 87.94 40.32 86.11 40.32 84.27 40.32 82.44 40.32 82.44 42.15 80.61 42.15 78.78 42.15 78.78 43.98 78.78 45.82 80.61 45.82 82.44 45.82"/><polygon class="cls-3" points="131.94 126.47 131.94 124.63 130.09 124.63 128.27 124.63 126.43 124.63 124.6 124.63 122.77 124.63 120.93 124.63 119.1 124.63 119.1 126.47 117.27 126.47 117.27 128.3 115.43 128.3 115.43 130.13 113.6 130.13 113.6 131.97 111.77 131.97 109.93 131.97 109.93 133.79 108.1 133.79 108.1 135.62 106.27 135.62 106.27 137.46 104.44 137.46 102.61 137.46 102.61 139.29 104.44 139.29 106.27 139.29 108.1 139.29 109.93 139.29 111.77 139.29 113.6 139.29 113.6 137.46 115.43 137.46 115.43 135.62 117.27 135.62 119.1 135.62 119.1 133.79 120.93 133.79 122.77 133.79 124.6 133.79 126.43 133.79 128.27 133.79 128.27 131.97 130.09 131.97 131.94 131.97 131.94 130.13 133.76 130.13 133.76 128.3 133.76 126.47 131.94 126.47"/><polygon class="cls-3" points="102.61 73.31 102.61 75.14 104.44 75.14 106.27 75.14 106.27 73.31 106.27 71.48 108.1 71.48 108.1 69.64 109.93 69.64 109.93 67.81 109.93 65.98 111.77 65.98 111.77 64.14 111.77 62.31 113.6 62.31 113.6 60.48 115.43 60.48 115.43 58.65 115.43 56.82 117.27 56.82 117.27 54.99 117.27 53.15 119.1 53.15 119.1 51.32 119.1 49.48 120.93 49.48 120.93 47.65 120.93 45.82 120.93 43.98 119.1 43.98 119.1 42.15 117.27 42.15 117.27 40.32 115.43 40.32 115.43 38.48 115.43 36.66 113.6 36.66 113.6 34.83 111.77 34.83 111.77 32.99 111.77 31.16 111.77 29.32 111.77 27.49 111.77 25.66 111.77 23.82 111.77 21.99 111.77 20.16 111.77 18.32 109.93 18.32 108.1 18.32 106.27 18.32 106.27 20.16 104.44 20.16 104.44 21.99 102.61 21.99 102.61 20.16 102.61 18.32 100.77 18.32 100.77 16.49 100.77 14.66 98.94 14.66 97.11 14.66 95.27 14.66 93.44 14.66 91.61 14.66 91.61 16.49 89.77 16.49 87.94 16.49 86.11 16.49 84.27 16.49 84.27 18.32 82.44 18.32 80.61 18.32 78.78 18.32 78.78 20.16 76.95 20.16 75.11 20.16 75.11 21.99 75.11 23.82 76.95 23.82 76.95 25.66 76.95 27.49 76.95 29.32 76.95 31.16 76.95 32.99 76.95 34.83 76.95 36.66 78.78 36.66 78.78 38.48 78.78 40.32 78.78 42.15 80.61 42.15 82.44 42.15 82.44 40.32 84.27 40.32 86.11 40.32 87.94 40.32 89.77 40.32 91.61 40.32 91.61 42.15 93.44 42.15 93.44 43.98 91.61 43.98 89.77 43.98 87.94 43.98 86.11 43.98 84.27 43.98 84.27 45.82 82.44 45.82 82.44 47.65 84.27 47.65 84.27 49.48 84.27 51.32 86.11 51.32 87.94 51.32 89.77 51.32 89.77 49.48 91.61 49.48 91.61 51.32 93.44 51.32 93.44 53.15 93.44 54.99 93.44 56.82 93.44 58.65 93.44 60.48 95.27 60.48 95.27 62.31 95.27 64.14 97.11 64.14 97.11 65.98 97.11 67.81 98.94 67.81 98.94 69.64 98.94 71.48 100.77 71.48 100.77 73.31 102.61 73.31"/><path class="cls-4" d="M117.27,119.13V121h-5.5v-5.51h3.66V111.8h-5.5v1.83h-3.67V111.8h-1.82v-5.49h1.82v-5.5h-5.49v1.83H97.11v1.83H95.27v1.84H91.61v1.83H87.94V110H86.11v5.5h1.83v9.17h1.83v1.84h1.84v3.66h1.83V132h1.83v1.82h1.84v1.83h1.83v1.84h1.83v1.83h1.84v-1.83h3.65v-1.84h1.84v-1.83h1.83V132h3.67v-1.84h1.83V128.3h1.84v-1.83h1.83v-7.34ZM97.11,122.8h-5.5v-3.67h1.83V117.3h3.67v-1.84h1.83V121H97.11Zm-7.34-7.34V111.8h1.84V110h3.66v-1.82h1.84v5.49H95.27v1.83H91.61v1.84H89.77Zm5.5,12.84v-3.67h3.67V122.8h1.83v5.5H98.94v1.83H95.27Zm9.17,5.49v1.83h-3.67v-5.49h3.67V128.3h1.82v5.49Z"/><polygon class="cls-4" points="93.44 139.29 93.44 137.46 91.61 137.46 91.61 135.62 89.77 135.62 89.77 133.79 87.94 133.79 87.94 131.97 87.94 130.13 86.11 130.13 86.11 128.3 86.11 126.47 84.27 126.47 84.27 124.63 84.27 122.8 84.27 120.97 82.44 120.97 82.44 119.13 82.44 117.3 80.61 117.3 80.61 115.46 78.78 115.46 78.78 117.3 76.95 117.3 76.95 119.13 75.11 119.13 75.11 120.97 73.28 120.97 71.45 120.97 71.45 122.8 69.61 122.8 69.61 124.63 67.78 124.63 67.78 126.47 65.95 126.47 64.11 126.47 64.11 128.3 62.28 128.3 62.28 130.13 62.28 131.97 62.28 133.79 64.11 133.79 64.11 135.62 65.95 135.62 65.95 137.46 67.78 137.46 67.78 139.29 69.61 139.29 69.61 141.12 71.45 141.12 71.45 142.96 73.28 142.96 73.28 144.79 75.11 144.79 76.95 144.79 76.95 146.63 78.78 146.63 78.78 148.46 80.61 148.46 80.61 150.29 82.44 150.29 84.27 150.29 86.11 150.29 87.94 150.29 87.94 148.46 89.77 148.46 89.77 146.63 91.61 146.63 93.44 146.63 93.44 144.79 95.27 144.79 95.27 142.96 97.11 142.96 97.11 141.12 97.11 139.29 95.27 139.29 93.44 139.29"/><polygon class="cls-4" points="73.28 20.16 75.11 20.16 76.95 20.16 78.78 20.16 78.78 18.32 80.61 18.32 82.44 18.32 84.27 18.32 84.27 16.49 86.11 16.49 87.94 16.49 89.77 16.49 91.61 16.49 91.61 14.66 93.44 14.66 95.27 14.66 97.11 14.66 98.94 14.66 100.77 14.66 100.77 16.49 102.61 16.49 104.44 16.49 106.27 16.49 108.1 16.49 109.93 16.49 111.77 16.49 113.6 16.49 115.43 16.49 115.43 14.66 117.27 14.66 117.27 12.82 117.27 10.99 117.27 9.16 117.27 7.33 117.27 5.5 117.27 3.66 115.43 3.66 115.43 1.83 113.6 1.83 111.77 1.83 111.77 0 109.93 0 108.1 0 106.27 0 104.44 0 102.61 0 100.77 0 98.94 0 97.11 0 95.27 0 93.44 0 91.61 0 89.77 0 89.77 1.83 87.94 1.83 86.11 1.83 84.27 1.83 84.27 3.66 82.44 3.66 82.44 5.5 80.61 5.5 80.61 7.33 78.78 7.33 78.78 9.16 76.95 9.16 76.95 10.99 75.11 10.99 75.11 12.82 73.28 12.82 73.28 14.66 73.28 16.49 71.45 16.49 71.45 18.32 73.28 18.32 73.28 20.16"/><polygon class="cls-5" points="150.26 100.81 152.1 100.81 152.1 98.97 150.26 98.97 150.26 97.14 150.26 95.3 148.43 95.3 146.59 95.3 146.59 97.14 146.59 98.97 146.59 100.81 148.43 100.81 150.26 100.81"/><polygon class="cls-5" points="146.59 100.81 144.76 100.81 142.93 100.81 142.93 102.64 142.93 104.47 144.76 104.47 144.76 106.31 142.93 106.31 141.09 106.31 139.26 106.31 139.26 108.14 139.26 109.96 139.26 111.8 137.43 111.8 135.59 111.8 135.59 113.63 135.59 115.46 137.43 115.46 137.43 117.3 135.59 117.3 135.59 119.13 133.76 119.13 133.76 120.97 131.94 120.97 130.09 120.97 130.09 122.8 128.27 122.8 128.27 124.63 130.09 124.63 131.94 124.63 131.94 126.47 133.76 126.47 135.59 126.47 135.59 124.63 137.43 124.63 139.26 124.63 139.26 122.8 141.09 122.8 141.09 120.97 142.93 120.97 142.93 119.13 141.09 119.13 141.09 117.3 141.09 115.46 139.26 115.46 139.26 113.63 141.09 113.63 142.93 113.63 144.76 113.63 146.59 113.63 148.43 113.63 148.43 111.8 146.59 111.8 144.76 111.8 144.76 109.96 144.76 108.14 146.59 108.14 148.43 108.14 148.43 106.31 150.26 106.31 152.1 106.31 152.1 104.47 150.26 104.47 148.43 104.47 146.59 104.47 146.59 102.64 146.59 100.81"/><polygon class="cls-5" points="128.27 65.98 128.27 64.14 128.27 62.31 130.09 62.31 130.09 60.48 130.09 58.65 130.09 56.82 131.94 56.82 131.94 54.99 131.94 53.15 133.76 53.15 133.76 51.32 133.76 49.48 131.94 49.48 130.09 49.48 130.09 47.65 128.27 47.65 128.27 45.82 126.43 45.82 126.43 43.98 124.6 43.98 124.6 42.15 122.77 42.15 120.93 42.15 119.1 42.15 119.1 43.98 120.93 43.98 120.93 45.82 120.93 47.65 120.93 49.48 119.1 49.48 119.1 51.32 119.1 53.15 117.27 53.15 117.27 54.99 117.27 56.82 115.43 56.82 115.43 58.65 115.43 60.48 113.6 60.48 113.6 62.31 111.77 62.31 111.77 64.14 111.77 65.98 109.93 65.98 109.93 67.81 109.93 69.64 108.1 69.64 108.1 71.48 106.27 71.48 106.27 73.31 106.27 75.14 104.44 75.14 102.61 75.14 102.61 73.31 100.77 73.31 100.77 71.48 98.94 71.48 98.94 69.64 98.94 67.81 97.11 67.81 97.11 65.98 97.11 64.14 95.27 64.14 95.27 62.31 95.27 60.48 93.44 60.48 93.44 58.65 93.44 56.82 93.44 54.99 93.44 53.15 93.44 51.32 91.61 51.32 91.61 49.48 89.77 49.48 89.77 51.32 89.77 53.15 89.77 54.99 89.77 56.82 89.77 58.65 89.77 60.48 89.77 62.31 89.77 64.14 89.77 65.98 89.77 67.81 87.94 67.81 87.94 69.64 87.94 71.48 87.94 73.31 87.94 75.14 87.94 76.98 87.94 78.81 89.77 78.81 89.77 76.98 91.61 76.98 91.61 75.14 93.44 75.14 95.27 75.14 95.27 73.31 97.11 73.31 98.94 73.31 98.94 75.14 100.77 75.14 100.77 76.98 100.77 78.81 100.77 80.65 100.77 82.48 100.77 84.31 100.77 86.14 100.77 87.97 100.77 89.8 100.77 91.64 100.77 93.47 98.94 93.47 98.94 95.3 98.94 97.14 100.77 97.14 100.77 98.97 100.77 100.81 102.61 100.81 104.44 100.81 104.44 98.97 104.44 97.14 104.44 95.3 104.44 93.47 104.44 91.64 106.27 91.64 106.27 89.8 104.44 89.8 104.44 87.97 104.44 86.14 104.44 84.31 104.44 82.48 104.44 80.65 104.44 78.81 106.27 78.81 106.27 80.65 108.1 80.65 108.1 78.81 109.93 78.81 111.77 78.81 111.77 76.98 113.6 76.98 115.43 76.98 117.27 76.98 119.1 76.98 119.1 78.81 120.93 78.81 122.77 78.81 122.77 76.98 122.77 75.14 124.6 75.14 124.6 73.31 124.6 71.48 124.6 69.64 126.43 69.64 126.43 67.81 128.27 67.81 128.27 65.98"/><polygon class="cls-5" points="89.77 86.14 87.94 86.14 86.11 86.14 84.27 86.14 82.44 86.14 82.44 87.97 80.61 87.97 78.78 87.97 76.95 87.97 76.95 89.8 76.95 91.64 76.95 93.47 78.78 93.47 78.78 95.3 78.78 97.14 80.61 97.14 80.61 98.97 82.44 98.97 84.27 98.97 86.11 98.97 87.94 98.97 87.94 97.14 89.77 97.14 89.77 95.3 91.61 95.3 91.61 93.47 91.61 91.64 91.61 89.8 93.44 89.8 93.44 87.97 93.44 86.14 91.61 86.14 89.77 86.14"/><polygon class="cls-5" points="78.78 62.31 78.78 60.48 80.61 60.48 82.44 60.48 82.44 58.65 84.27 58.65 84.27 56.82 86.11 56.82 86.11 54.99 86.11 53.15 84.27 53.15 84.27 51.32 82.44 51.32 82.44 53.15 80.61 53.15 78.78 53.15 78.78 54.99 76.95 54.99 75.11 54.99 75.11 56.82 73.28 56.82 71.45 56.82 71.45 58.65 71.45 60.48 73.28 60.48 73.28 62.31 75.11 62.31 76.95 62.31 78.78 62.31"/><polygon class="cls-5" points="60.44 80.65 58.61 80.65 56.78 80.65 54.95 80.65 53.12 80.65 53.12 78.81 51.29 78.81 49.45 78.81 47.62 78.81 45.79 78.81 43.95 78.81 42.12 78.81 42.12 80.65 40.28 80.65 38.45 80.65 38.45 82.48 36.62 82.48 34.78 82.48 34.78 84.31 32.95 84.31 31.13 84.31 31.13 86.14 29.29 86.14 29.29 84.31 27.46 84.31 27.46 86.14 25.66 86.14 23.83 86.14 21.99 86.14 21.99 87.97 20.16 87.97 20.16 89.8 20.16 91.64 20.16 93.47 18.33 93.47 16.49 93.47 16.49 95.3 14.66 95.3 14.66 97.14 14.66 98.97 14.66 100.81 12.84 100.81 10.99 100.81 10.99 102.64 9.17 102.64 9.17 104.47 7.33 104.47 7.33 106.31 7.33 108.14 5.5 108.14 5.5 109.96 3.67 109.96 3.67 111.8 1.83 111.8 1.83 113.63 0 113.63 0 115.46 0 117.3 0 119.13 1.83 119.13 1.83 120.97 3.67 120.97 3.67 122.8 5.5 122.8 5.5 124.63 7.33 124.63 7.33 126.47 9.17 126.47 10.99 126.47 12.84 126.47 14.66 126.47 16.49 126.47 18.33 126.47 20.16 126.47 21.99 126.47 23.83 126.47 25.66 126.47 27.46 126.47 27.49 126.47 29.29 126.47 31.13 126.47 32.95 126.47 34.78 126.47 36.62 126.47 38.45 126.47 40.28 126.47 42.12 126.47 43.95 126.47 45.79 126.47 47.62 126.47 49.45 126.47 49.45 124.63 51.29 124.63 53.12 124.63 54.95 124.63 56.78 124.63 56.78 122.8 54.95 122.8 54.95 120.97 54.95 119.13 56.78 119.13 56.78 117.3 56.78 115.46 56.78 113.63 56.78 111.8 56.78 109.96 56.78 108.14 56.78 106.31 56.78 104.47 56.78 102.64 56.78 100.81 56.78 98.97 58.61 98.97 58.61 97.14 58.61 95.3 58.61 93.47 60.44 93.47 60.44 91.64 60.44 89.8 60.44 87.97 62.28 87.97 62.28 86.14 62.28 84.31 62.28 82.48 60.44 82.48 60.44 80.65"/><polygon class="cls-6" points="166.75 93.47 164.92 93.47 164.92 91.64 164.92 89.8 163.09 89.8 163.09 87.97 161.25 87.97 161.25 86.14 161.25 84.31 159.42 84.31 159.42 86.14 157.59 86.14 155.75 86.14 155.75 87.97 153.93 87.97 152.1 87.97 152.1 89.8 150.26 89.8 148.43 89.8 148.43 91.64 146.59 91.64 146.59 93.47 144.76 93.47 144.76 95.3 142.93 95.3 141.09 95.3 141.09 97.14 139.26 97.14 137.43 97.14 137.43 98.97 135.59 98.97 135.59 100.81 133.76 100.81 131.94 100.81 131.94 102.64 130.09 102.64 128.27 102.64 128.27 104.47 126.43 104.47 124.6 104.47 124.6 106.31 122.77 106.31 120.93 106.31 120.93 108.14 119.1 108.14 117.27 108.14 117.27 109.96 115.43 109.96 115.43 111.8 115.43 113.63 115.43 115.46 117.27 115.46 117.27 117.3 117.27 119.13 119.1 119.13 119.1 120.97 119.1 122.8 119.1 124.63 120.93 124.63 122.77 124.63 124.6 124.63 126.43 124.63 128.27 124.63 128.27 122.8 130.09 122.8 130.09 120.97 131.94 120.97 133.76 120.97 133.76 119.13 135.59 119.13 135.59 117.3 137.43 117.3 137.43 115.46 135.59 115.46 135.59 113.63 135.59 111.8 137.43 111.8 139.26 111.8 139.26 109.96 139.26 108.14 139.26 106.31 141.09 106.31 142.93 106.31 144.76 106.31 144.76 104.47 142.93 104.47 142.93 102.64 142.93 100.81 144.76 100.81 146.59 100.81 146.59 98.97 146.59 97.14 146.59 95.3 148.43 95.3 150.26 95.3 150.26 97.14 150.26 98.97 152.1 98.97 152.1 100.81 150.26 100.81 148.43 100.81 146.59 100.81 146.59 102.64 146.59 104.47 148.43 104.47 150.26 104.47 152.1 104.47 152.1 106.31 150.26 106.31 148.43 106.31 148.43 108.14 146.59 108.14 144.76 108.14 144.76 109.96 144.76 111.8 146.59 111.8 148.43 111.8 148.43 113.63 146.59 113.63 144.76 113.63 142.93 113.63 141.09 113.63 139.26 113.63 139.26 115.46 141.09 115.46 141.09 117.3 141.09 119.13 142.93 119.13 144.76 119.13 146.59 119.13 148.43 119.13 148.43 117.3 150.26 117.3 150.26 115.46 152.1 115.46 152.1 113.63 153.93 113.63 153.93 111.8 155.75 111.8 157.59 111.8 157.59 109.96 159.42 109.96 161.25 109.96 161.25 108.14 163.09 108.14 163.09 106.31 164.92 106.31 166.75 106.31 166.75 104.47 168.59 104.47 168.59 102.64 168.59 100.81 168.59 98.97 168.59 97.14 168.59 95.3 166.75 95.3 166.75 93.47"/><polygon class="cls-6" points="115.43 97.14 117.27 97.14 117.27 95.3 119.1 95.3 120.93 95.3 120.93 93.47 122.77 93.47 124.6 93.47 124.6 91.64 126.43 91.64 128.27 91.64 128.27 89.8 130.09 89.8 130.09 87.97 131.94 87.97 133.76 87.97 133.76 86.14 135.59 86.14 137.43 86.14 137.43 84.31 139.26 84.31 139.26 82.48 141.09 82.48 142.93 82.48 142.93 80.65 144.76 80.65 144.76 78.81 146.59 78.81 148.43 78.81 148.43 76.98 150.26 76.98 152.1 76.98 152.1 75.14 153.93 75.14 155.75 75.14 155.75 73.31 157.59 73.31 157.59 71.48 157.59 69.64 157.59 67.81 155.75 67.81 155.75 65.98 153.93 65.98 153.93 64.14 153.93 62.31 152.1 62.31 152.1 60.48 150.26 60.48 150.26 58.65 148.43 58.65 148.43 56.82 146.59 56.82 144.76 56.82 144.76 54.99 142.93 54.99 142.93 53.15 141.09 53.15 139.26 53.15 137.43 53.15 137.43 51.32 135.59 51.32 133.76 51.32 133.76 53.15 131.94 53.15 131.94 54.99 131.94 56.82 130.09 56.82 130.09 58.65 130.09 60.48 130.09 62.31 128.27 62.31 128.27 64.14 128.27 65.98 128.27 67.81 126.43 67.81 126.43 69.64 124.6 69.64 124.6 71.48 124.6 73.31 124.6 75.14 122.77 75.14 122.77 76.98 122.77 78.81 120.93 78.81 119.1 78.81 119.1 76.98 117.27 76.98 115.43 76.98 113.6 76.98 111.77 76.98 111.77 78.81 109.93 78.81 108.1 78.81 108.1 80.65 106.27 80.65 106.27 78.81 104.44 78.81 104.44 80.65 104.44 82.48 104.44 84.31 104.44 86.14 104.44 87.97 104.44 89.8 106.27 89.8 106.27 91.64 104.44 91.64 104.44 93.47 104.44 95.3 104.44 97.14 104.44 98.97 104.44 100.81 106.27 100.81 106.27 102.64 108.1 102.64 108.1 100.81 109.93 100.81 111.77 100.81 111.77 98.97 113.6 98.97 115.43 98.97 115.43 97.14"/><path class="cls-6" d="M98.94,73.31H95.27v1.83H91.61V77H89.77v1.83H87.94v-11h1.83V53.15H86.11v3.67H84.27v1.83H82.45v1.84H78.78v1.82h-5.5V60.49H69.61v1.82H67.78V66H66v3.66H64.11v1.84H66v1.83H64.11v7.34H62.28V88H60.44v5.5H58.61V99H56.79v20.16H55v3.67h1.84v3.67h1.82v1.83h5.5v-1.83h3.67v-1.84h1.83V122.8h1.84V121h3.66v-1.84H77V117.3h1.83v-1.84h1.83v-1.83h1.84V111.8h1.82V110h3.67v-1.82h3.67v-1.83h3.66v-1.84h1.84v-1.83h3.66v-5.5H98.94V93.47h1.83V75.14H98.94ZM93.44,88V89.8H91.61v5.5H89.77v1.84H87.94V99H80.61V97.14H78.78V93.47H77V88h5.5V86.14h11Z"/></g></g></svg>