<svg xmlns="http://www.w3.org/2000/svg" viewBox="0 0 214.33 165.83"><defs><style>.cls-1{fill:none;}.cls-2{fill:#043a42;}.cls-3{fill:#5be2ca;}.cls-4{fill:#0c6186;}.cls-5{fill:#0db1cb;}.cls-6{fill:#66e3eb;}</style></defs><g id="Capa_2" data-name="Capa 2"><g id="Layer_1" data-name="Layer 1"><polygon class="cls-1" points="95.02 58.64 97.03 58.64 99.05 58.64 99.05 56.63 97.03 56.63 95.02 56.63 92.99 56.63 92.99 58.64 95.02 58.64"/><polygon class="cls-1" points="210.28 64.71 208.26 64.71 206.24 64.71 206.24 66.74 206.24 68.76 206.24 70.78 208.26 70.78 208.26 72.8 210.28 72.8 212.3 72.8 212.3 70.78 212.3 68.76 212.3 66.74 210.28 66.74 210.28 64.71"/><path class="cls-2" d="M212.3,64.71v-2h-8.08v2h-4.05v2h-4v2h-4v2h-4v2h-4v2h-2v2h-4.05v2h-4v2h-2v2h-4v2h-4v2h-4.05v2h-2v2h-4.05v2h-2v2h-4v2h-4.05v2h-2v2h-4.05v2h-4v2h-4v2h-2v2h-4v2h-4v2h-2v4h-2v6.06h2v2h4v-2h6.07v-2h2v-2h4v-2h4v-2h4.05v-2h4v-2h4v-2h2v-2h4v-2h4v-2h2v-2h2v-2h4v-2h4v-2h4V93h4V91h4V89h4V87h2v-2h6.07v-2h2v-2h4v-2h4v-2h4v-2h4.05V64.71Zm0,4.05v4h-4v-2h-2V64.71h4v2h2Z"/><polygon class="cls-2" points="125.35 127.4 123.33 127.4 123.33 129.43 123.33 131.45 123.33 133.48 125.35 133.48 127.36 133.48 129.4 133.48 129.4 131.45 129.4 129.43 129.4 127.4 127.36 127.4 125.35 127.4"/><polygon class="cls-2" points="115.23 143.58 113.22 143.58 111.19 143.58 111.19 145.61 111.19 147.63 111.19 149.65 113.22 149.65 115.23 149.65 115.23 147.63 117.25 147.63 117.25 145.61 117.25 143.58 117.25 141.56 115.23 141.56 115.23 143.58"/><polygon class="cls-2" points="113.22 22.25 113.22 24.26 115.23 24.26 115.23 22.25 117.25 22.25 117.25 20.22 119.28 20.22 121.3 20.22 123.33 20.22 123.33 22.25 123.33 24.26 123.33 26.28 123.33 28.31 123.33 30.33 123.33 32.35 123.33 34.38 123.33 36.4 123.33 38.43 125.35 38.43 125.35 36.4 127.36 36.4 127.36 34.38 129.4 34.38 129.4 32.35 129.4 30.33 131.41 30.33 131.41 28.31 131.41 26.28 131.41 24.26 131.41 22.25 129.4 22.25 129.4 20.22 127.36 20.22 127.36 18.2 125.35 18.2 123.33 18.2 121.3 18.2 119.28 18.2 117.25 18.2 115.23 18.2 113.22 18.2 111.19 18.2 111.19 20.22 113.22 20.22 113.22 22.25"/><polygon class="cls-2" points="109.17 137.51 107.15 137.51 105.12 137.51 105.12 139.54 105.12 141.56 105.12 143.58 107.15 143.58 109.17 143.58 109.17 141.56 111.19 141.56 111.19 139.54 111.19 137.51 111.19 135.5 109.17 135.5 109.17 137.51"/><polygon class="cls-2" points="109.17 149.65 107.15 149.65 107.15 147.63 105.12 147.63 105.12 145.61 103.1 145.61 103.1 143.58 101.08 143.58 101.08 141.56 101.08 139.54 99.05 139.54 99.05 137.51 97.03 137.51 97.03 135.5 97.03 133.48 97.03 131.45 97.03 129.43 97.03 127.4 95.02 127.4 95.02 125.38 95.02 123.36 95.02 121.33 92.99 121.33 92.99 123.36 90.97 123.36 90.97 125.38 88.94 125.38 88.94 127.4 88.94 129.43 90.97 129.43 90.97 131.45 90.97 133.48 92.99 133.48 92.99 135.5 92.99 137.51 92.99 139.54 95.02 139.54 95.02 141.56 95.02 143.58 97.03 143.58 97.03 145.61 97.03 147.63 99.05 147.63 99.05 149.65 101.08 149.65 101.08 151.68 103.1 151.68 103.1 153.69 105.12 153.69 107.15 153.69 107.15 155.71 107.15 157.74 109.17 157.74 109.17 155.71 111.19 155.71 111.19 153.69 111.19 151.68 109.17 151.68 109.17 149.65"/><polygon class="cls-2" points="107.15 129.43 105.12 129.43 103.1 129.43 103.1 131.45 101.08 131.45 101.08 133.48 101.08 135.5 103.1 135.5 105.12 135.5 107.15 135.5 107.15 133.48 109.17 133.48 109.17 131.45 109.17 129.43 109.17 127.4 107.15 127.4 107.15 129.43"/><polygon class="cls-2" points="101.08 121.33 101.08 123.36 99.05 123.36 99.05 125.38 99.05 127.4 99.05 129.43 101.08 129.43 101.08 127.4 103.1 127.4 105.12 127.4 105.12 125.38 107.15 125.38 107.15 123.36 107.15 121.33 107.15 119.31 105.12 119.31 105.12 121.33 103.1 121.33 101.08 121.33"/><polygon class="cls-2" points="90.97 50.56 92.99 50.56 92.99 48.53 95.02 48.53 97.03 48.53 99.05 48.53 101.08 48.53 103.1 48.53 103.1 46.51 101.08 46.51 101.08 44.49 99.05 44.49 97.03 44.49 95.02 44.49 92.99 44.49 90.97 44.49 90.97 46.51 88.94 46.51 86.92 46.51 86.92 48.53 86.92 50.56 88.94 50.56 90.97 50.56"/><polygon class="cls-3" points="145.57 139.54 145.57 137.51 143.54 137.51 141.53 137.51 139.5 137.51 137.48 137.51 135.46 137.51 133.43 137.51 131.41 137.51 131.41 139.54 129.4 139.54 129.4 141.56 127.36 141.56 127.36 143.58 125.35 143.58 125.35 145.61 123.33 145.61 121.3 145.61 121.3 147.63 119.28 147.63 119.28 149.65 117.25 149.65 117.25 151.68 115.23 151.68 113.22 151.68 113.22 153.69 115.23 153.69 117.25 153.69 119.28 153.69 121.3 153.69 123.33 153.69 125.35 153.69 125.35 151.68 127.36 151.68 127.36 149.65 129.4 149.65 131.41 149.65 131.41 147.63 133.43 147.63 135.46 147.63 137.48 147.63 139.5 147.63 141.53 147.63 141.53 145.61 143.54 145.61 145.57 145.61 145.57 143.58 147.59 143.58 147.59 141.56 147.59 139.54 145.57 139.54"/><polygon class="cls-3" points="113.22 80.89 113.22 82.91 115.23 82.91 117.25 82.91 117.25 80.89 117.25 78.87 119.28 78.87 119.28 76.84 121.3 76.84 121.3 74.82 121.3 72.8 123.33 72.8 123.33 70.78 123.33 68.76 125.35 68.76 125.35 66.74 127.36 66.74 127.36 64.71 127.36 62.69 129.4 62.69 129.4 60.67 129.4 58.64 131.41 58.64 131.41 56.63 131.41 54.59 133.43 54.59 133.43 52.58 133.43 50.56 133.43 48.53 131.41 48.53 131.41 46.51 129.4 46.51 129.4 44.49 127.36 44.49 127.36 42.46 127.36 40.44 125.35 40.44 125.35 38.43 123.33 38.43 123.33 36.4 123.33 34.38 123.33 32.35 123.33 30.33 123.33 28.31 123.33 26.28 123.33 24.26 123.33 22.25 123.33 20.22 121.3 20.22 119.28 20.22 117.25 20.22 117.25 22.25 115.23 22.25 115.23 24.26 113.22 24.26 113.22 22.25 113.22 20.22 111.19 20.22 111.19 18.2 111.19 16.18 109.17 16.18 107.15 16.18 105.12 16.18 103.1 16.18 101.08 16.18 101.08 18.2 99.05 18.2 97.03 18.2 95.02 18.2 92.99 18.2 92.99 20.22 90.97 20.22 88.94 20.22 86.92 20.22 86.92 22.25 84.9 22.25 82.87 22.25 82.87 24.26 82.87 26.28 84.9 26.28 84.9 28.31 84.9 30.33 84.9 32.35 84.9 34.38 84.9 36.4 84.9 38.43 84.9 40.44 86.92 40.44 86.92 42.46 86.92 44.49 86.92 46.51 88.94 46.51 90.97 46.51 90.97 44.49 92.99 44.49 95.02 44.49 97.03 44.49 99.05 44.49 101.08 44.49 101.08 46.51 103.1 46.51 103.1 48.53 101.08 48.53 99.05 48.53 97.03 48.53 95.02 48.53 92.99 48.53 92.99 50.56 90.97 50.56 90.97 52.58 92.99 52.58 92.99 54.59 92.99 56.63 95.02 56.63 97.03 56.63 99.05 56.63 99.05 54.59 101.08 54.59 101.08 56.63 103.1 56.63 103.1 58.64 103.1 60.67 103.1 62.69 103.1 64.71 103.1 66.74 105.12 66.74 105.12 68.76 105.12 70.78 107.15 70.78 107.15 72.8 107.15 74.82 109.17 74.82 109.17 76.84 109.17 78.87 111.19 78.87 111.19 80.89 113.22 80.89"/><path class="cls-4" d="M129.39,131.45v2h-6.06V127.4h4v-4H121.3v2h-4v-2h-2V117.3h2v-6.07h-6.07v2h-4v2h-2v2h-4v2H97v2H95v6.07h2v10.11h2v2h2v4h2v2h2v2h2v2h2v2h2v2h2v-2h4v-2h2v-2h2v-2h4v-2h2v-2h2v-2h2v-8.09Zm-22.24,4h-6.07v-4h2v-2h4.05v-2h2v6.08h-2Zm-8.1-8.09v-4h2v-2h4v-2h2v6.07h-2v2h-4v2h-2Zm6.07,14.16v-4.05h4v-2h2v6.07h-2v2h-4Zm10.11,6.07v2h-4v-6.07h4v-2h2v6.07Z"/><polygon class="cls-4" points="103.1 153.69 103.1 151.68 101.08 151.68 101.08 149.65 99.05 149.65 99.05 147.63 97.03 147.63 97.03 145.61 97.03 143.58 95.02 143.58 95.02 141.56 95.02 139.54 92.99 139.54 92.99 137.51 92.99 135.5 92.99 133.48 90.97 133.48 90.97 131.45 90.97 129.43 88.94 129.43 88.94 127.4 86.92 127.4 86.92 129.43 84.9 129.43 84.9 131.45 82.87 131.45 82.87 133.48 80.86 133.48 78.84 133.48 78.84 135.5 76.81 135.5 76.81 137.51 74.79 137.51 74.79 139.54 72.77 139.54 70.74 139.54 70.74 141.56 68.72 141.56 68.72 143.58 68.72 145.61 68.72 147.63 70.74 147.63 70.74 149.65 72.77 149.65 72.77 151.68 74.79 151.68 74.79 153.69 76.81 153.69 76.81 155.71 78.84 155.71 78.84 157.74 80.86 157.74 80.86 159.76 82.87 159.76 84.9 159.76 84.9 161.79 86.92 161.79 86.92 163.81 88.94 163.81 88.94 165.82 90.97 165.82 92.99 165.82 95.02 165.82 97.03 165.82 97.03 163.81 99.05 163.81 99.05 161.79 101.08 161.79 103.1 161.79 103.1 159.76 105.12 159.76 105.12 157.74 107.15 157.74 107.15 155.71 107.15 153.69 105.12 153.69 103.1 153.69"/><polygon class="cls-4" points="80.86 22.25 82.87 22.25 84.9 22.25 86.92 22.25 86.92 20.22 88.94 20.22 90.97 20.22 92.99 20.22 92.99 18.2 95.02 18.2 97.03 18.2 99.05 18.2 101.08 18.2 101.08 16.18 103.1 16.18 105.12 16.18 107.15 16.18 109.17 16.18 111.19 16.18 111.19 18.2 113.22 18.2 115.23 18.2 117.25 18.2 119.28 18.2 121.3 18.2 123.33 18.2 125.35 18.2 127.36 18.2 127.36 16.18 129.4 16.18 129.4 14.15 129.4 12.13 129.4 10.1 129.4 8.08 129.4 6.07 129.4 4.04 127.36 4.04 127.36 2.02 125.35 2.02 123.33 2.02 123.33 0 121.3 0 119.28 0 117.25 0 115.23 0 113.22 0 111.19 0 109.17 0 107.15 0 105.12 0 103.1 0 101.08 0 99.05 0 99.05 2.02 97.03 2.02 95.02 2.02 92.99 2.02 92.99 4.04 90.97 4.04 90.97 6.07 88.94 6.07 88.94 8.08 86.92 8.08 86.92 10.1 84.9 10.1 84.9 12.13 82.87 12.13 82.87 14.15 80.86 14.15 80.86 16.18 80.86 18.2 78.84 18.2 78.84 20.22 80.86 20.22 80.86 22.25"/><polygon class="cls-5" points="183.99 105.15 183.99 103.14 181.97 103.14 181.97 101.12 181.97 99.09 179.95 99.09 179.95 97.07 177.92 97.07 177.92 95.05 177.92 93.02 175.91 93.02 175.91 95.05 173.89 95.05 171.86 95.05 171.86 97.07 169.84 97.07 167.82 97.07 167.82 99.09 165.79 99.09 163.77 99.09 163.77 101.12 161.74 101.12 161.74 103.14 159.72 103.14 159.72 105.15 157.71 105.15 155.68 105.15 155.68 107.18 153.66 107.18 151.64 107.18 151.64 109.2 149.61 109.2 149.61 111.23 147.59 111.23 145.57 111.23 145.57 113.25 143.54 113.25 141.53 113.25 141.53 115.27 139.5 115.27 137.48 115.27 137.48 117.3 135.46 117.3 133.43 117.3 133.43 119.31 131.41 119.31 129.4 119.31 129.4 121.33 127.36 121.33 127.36 123.36 127.36 125.38 127.36 127.4 129.4 127.4 129.4 129.43 129.4 131.45 131.41 131.45 131.41 133.48 131.41 135.5 131.41 137.51 133.43 137.51 135.46 137.51 137.48 137.51 139.5 137.51 141.53 137.51 141.53 135.5 143.54 135.5 143.54 133.48 145.57 133.48 147.59 133.48 147.59 131.45 149.61 131.45 149.61 129.43 151.64 129.43 151.64 127.4 149.61 127.4 149.61 125.38 149.61 123.36 151.64 123.36 153.66 123.36 153.66 121.33 153.66 119.31 153.66 117.3 155.68 117.3 157.71 117.3 159.72 117.3 159.72 115.27 157.71 115.27 157.71 113.25 157.71 111.23 159.72 111.23 161.74 111.23 161.74 109.2 161.74 107.18 161.74 105.15 163.77 105.15 165.79 105.15 165.79 107.18 165.79 109.2 167.82 109.2 167.82 111.23 165.79 111.23 163.77 111.23 161.74 111.23 161.74 113.25 161.74 115.27 163.77 115.27 165.79 115.27 167.82 115.27 167.82 117.3 165.79 117.3 163.77 117.3 163.77 119.31 161.74 119.31 159.72 119.31 159.72 121.33 159.72 123.36 161.74 123.36 163.77 123.36 163.77 125.38 161.74 125.38 159.72 125.38 157.71 125.38 155.68 125.38 153.66 125.38 153.66 127.4 155.68 127.4 155.68 129.43 155.68 131.45 157.71 131.45 159.72 131.45 161.74 131.45 163.77 131.45 163.77 129.43 165.79 129.43 165.79 127.4 167.82 127.4 167.82 125.38 169.84 125.38 169.84 123.36 171.86 123.36 173.89 123.36 173.89 121.33 175.91 121.33 177.92 121.33 177.92 119.31 179.95 119.31 179.95 117.3 181.97 117.3 183.99 117.3 183.99 115.27 186.02 115.27 186.02 113.25 186.02 111.23 186.02 109.2 186.02 107.18 186.02 105.15 183.99 105.15"/><polygon class="cls-5" points="127.36 107.18 129.4 107.18 129.4 105.15 131.41 105.15 133.43 105.15 133.43 103.14 135.46 103.14 137.48 103.14 137.48 101.12 139.5 101.12 141.53 101.12 141.53 99.09 143.54 99.09 143.54 97.07 145.57 97.07 147.59 97.07 147.59 95.05 149.61 95.05 151.64 95.05 151.64 93.02 153.66 93.02 153.66 91 155.68 91 157.71 91 157.71 88.98 159.72 88.98 159.72 86.95 161.74 86.95 163.77 86.95 163.77 84.94 165.79 84.94 167.82 84.94 167.82 82.91 169.84 82.91 171.86 82.91 171.86 80.89 173.89 80.89 173.89 78.87 173.89 76.84 173.89 74.82 171.86 74.82 171.86 72.8 169.84 72.8 169.84 70.78 169.84 68.76 167.82 68.76 167.82 66.74 165.79 66.74 165.79 64.71 163.77 64.71 163.77 62.69 161.74 62.69 159.72 62.69 159.72 60.67 157.71 60.67 157.71 58.64 155.68 58.64 153.66 58.64 151.64 58.64 151.64 56.63 149.61 56.63 147.59 56.63 147.59 58.64 145.57 58.64 145.57 60.67 145.57 62.69 143.54 62.69 143.54 64.71 143.54 66.74 143.54 68.76 141.53 68.76 141.53 70.78 141.53 72.8 141.53 74.82 139.5 74.82 139.5 76.84 137.48 76.84 137.48 78.87 137.48 80.89 137.48 82.91 135.46 82.91 135.46 84.94 135.46 86.95 133.43 86.95 131.41 86.95 131.41 84.94 129.4 84.94 127.36 84.94 125.35 84.94 123.33 84.94 123.33 86.95 121.3 86.95 119.28 86.95 119.28 88.98 117.25 88.98 117.25 86.95 115.23 86.95 115.23 88.98 115.23 91 115.23 93.02 115.23 95.05 115.23 97.07 115.23 99.09 117.25 99.09 117.25 101.12 115.23 101.12 115.23 103.14 115.23 105.15 115.23 107.18 115.23 109.2 115.23 111.23 117.25 111.23 117.25 113.25 119.28 113.25 119.28 111.23 121.3 111.23 123.33 111.23 123.33 109.2 125.35 109.2 127.36 109.2 127.36 107.18"/><path class="cls-5" d="M109.17,80.89h-4v2h-4v2h-2v2H97V74.82h2V58.64H95v4H93v2H91v2h-4v2H80.85v-2h-4v2h-2v4h-2v4h-2v2h2v2h-2V89h-2v8.09h-2v6.06h-2v6.07h-2v22.25h-2v4h2v4h2v2h6.07v-2h4.05v-2h2v-2h2v-2h4v-2h2v-2h2v-2h2v-2h2v-2h2v-2h4v-2h4v-2h4v-2h2v-2h4v-6.07h-2v-4.05h2V82.91h-2Zm-8.09,18.2v6.06h-2v2H97v2H88.94v-2h-2v-4.05h-2V97.07H91v-2H103.1v4Z"/><polygon class="cls-6" points="165.79 111.23 167.82 111.23 167.82 109.2 165.79 109.2 165.79 107.18 165.79 105.15 163.77 105.15 161.74 105.15 161.74 107.18 161.74 109.2 161.74 111.23 163.77 111.23 165.79 111.23"/><polygon class="cls-6" points="161.74 111.23 159.72 111.23 157.71 111.23 157.71 113.25 157.71 115.27 159.72 115.27 159.72 117.3 157.71 117.3 155.68 117.3 153.66 117.3 153.66 119.31 153.66 121.33 153.66 123.36 151.64 123.36 149.61 123.36 149.61 125.38 149.61 127.4 151.64 127.4 151.64 129.43 149.61 129.43 149.61 131.45 147.59 131.45 147.59 133.48 145.57 133.48 143.54 133.48 143.54 135.5 141.53 135.5 141.53 137.51 143.54 137.51 145.57 137.51 145.57 139.54 147.59 139.54 149.61 139.54 149.61 137.51 151.64 137.51 153.66 137.51 153.66 135.5 155.68 135.5 155.68 133.48 157.71 133.48 157.71 131.45 155.68 131.45 155.68 129.43 155.68 127.4 153.66 127.4 153.66 125.38 155.68 125.38 157.71 125.38 159.72 125.38 161.74 125.38 163.77 125.38 163.77 123.36 161.74 123.36 159.72 123.36 159.72 121.33 159.72 119.31 161.74 119.31 163.77 119.31 163.77 117.3 165.79 117.3 167.82 117.3 167.82 115.27 165.79 115.27 163.77 115.27 161.74 115.27 161.74 113.25 161.74 111.23"/><polygon class="cls-6" points="141.53 72.8 141.53 70.78 141.53 68.76 143.54 68.76 143.54 66.74 143.54 64.71 143.54 62.69 145.57 62.69 145.57 60.67 145.57 58.64 147.59 58.64 147.59 56.63 147.59 54.59 145.57 54.59 143.54 54.59 143.54 52.58 141.53 52.58 141.53 50.56 139.5 50.56 139.5 48.53 137.48 48.53 137.48 46.51 135.46 46.51 133.43 46.51 131.41 46.51 131.41 48.53 133.43 48.53 133.43 50.56 133.43 52.58 133.43 54.59 131.41 54.59 131.41 56.63 131.41 58.64 129.4 58.64 129.4 60.67 129.4 62.69 127.36 62.69 127.36 64.71 127.36 66.74 125.35 66.74 125.35 68.76 123.33 68.76 123.33 70.78 123.33 72.8 121.3 72.8 121.3 74.82 121.3 76.84 119.28 76.84 119.28 78.87 117.25 78.87 117.25 80.89 117.25 82.91 115.23 82.91 113.22 82.91 113.22 80.89 111.19 80.89 111.19 78.87 109.17 78.87 109.17 76.84 109.17 74.82 107.15 74.82 107.15 72.8 107.15 70.78 105.12 70.78 105.12 68.76 105.12 66.74 103.1 66.74 103.1 64.71 103.1 62.69 103.1 60.67 103.1 58.64 103.1 56.63 101.08 56.63 101.08 54.59 99.05 54.59 99.05 56.63 99.05 58.64 99.05 60.67 99.05 62.69 99.05 64.71 99.05 66.74 99.05 68.76 99.05 70.78 99.05 72.8 99.05 74.82 97.03 74.82 97.03 76.84 97.03 78.87 97.03 80.89 97.03 82.91 97.03 84.94 97.03 86.95 99.05 86.95 99.05 84.94 101.08 84.94 101.08 82.91 103.1 82.91 105.12 82.91 105.12 80.89 107.15 80.89 109.17 80.89 109.17 82.91 111.19 82.91 111.19 84.94 111.19 86.95 111.19 88.98 111.19 91 111.19 93.02 111.19 95.05 111.19 97.07 111.19 99.09 111.19 101.12 111.19 103.14 109.17 103.14 109.17 105.15 109.17 107.18 111.19 107.18 111.19 109.2 111.19 111.23 113.22 111.23 115.23 111.23 115.23 109.2 115.23 107.18 115.23 105.15 115.23 103.14 115.23 101.12 117.25 101.12 117.25 99.09 115.23 99.09 115.23 97.07 115.23 95.05 115.23 93.02 115.23 91 115.23 88.98 115.23 86.95 117.25 86.95 117.25 88.98 119.28 88.98 119.28 86.95 121.3 86.95 123.33 86.95 123.33 84.94 125.35 84.94 127.36 84.94 129.4 84.94 131.41 84.94 131.41 86.95 133.43 86.95 135.46 86.95 135.46 84.94 135.46 82.91 137.48 82.91 137.48 80.89 137.48 78.87 137.48 76.84 139.5 76.84 139.5 74.82 141.53 74.82 141.53 72.8"/><polygon class="cls-6" points="99.05 95.05 97.03 95.05 95.02 95.05 92.99 95.05 90.97 95.05 90.97 97.07 88.94 97.07 86.92 97.07 84.9 97.07 84.9 99.09 84.9 101.12 84.9 103.14 86.92 103.14 86.92 105.15 86.92 107.18 88.94 107.18 88.94 109.2 90.97 109.2 92.99 109.2 95.02 109.2 97.03 109.2 97.03 107.18 99.05 107.18 99.05 105.15 101.08 105.15 101.08 103.14 101.08 101.12 101.08 99.09 103.1 99.09 103.1 97.07 103.1 95.05 101.08 95.05 99.05 95.05"/><polygon class="cls-6" points="86.92 68.76 86.92 66.74 88.94 66.74 90.97 66.74 90.97 64.71 92.99 64.71 92.99 62.69 95.02 62.69 95.02 60.67 95.02 58.64 92.99 58.64 92.99 56.63 90.97 56.63 90.97 58.64 88.94 58.64 86.92 58.64 86.92 60.67 84.9 60.67 82.87 60.67 82.87 62.69 80.86 62.69 78.84 62.69 78.84 64.71 78.84 66.74 80.86 66.74 80.86 68.76 82.87 68.76 84.9 68.76 86.92 68.76"/><polygon class="cls-6" points="66.69 88.98 64.67 88.98 62.66 88.98 60.63 88.98 58.61 88.98 58.61 86.95 56.59 86.95 54.56 86.95 52.54 86.95 50.52 86.95 48.49 86.95 46.48 86.95 46.48 88.98 44.45 88.98 42.43 88.98 42.43 91 40.41 91 38.38 91 38.38 93.02 36.36 93.02 34.34 93.02 34.34 95.05 32.31 95.05 32.31 93.02 30.3 93.02 30.3 95.05 28.31 95.05 26.29 95.05 24.26 95.05 24.26 97.07 22.25 97.07 22.25 99.09 22.25 101.12 22.25 103.14 20.23 103.14 18.2 103.14 18.2 105.15 16.18 105.15 16.18 107.18 16.18 109.2 16.18 111.23 14.16 111.23 12.13 111.23 12.13 113.25 10.11 113.25 10.11 115.27 8.09 115.27 8.09 117.3 8.09 119.31 6.07 119.31 6.07 121.33 4.05 121.33 4.05 123.36 2.02 123.36 2.02 125.38 0 125.38 0 127.4 0 129.43 0 131.45 2.02 131.45 2.02 133.48 4.05 133.48 4.05 135.5 6.07 135.5 6.07 137.51 8.09 137.51 8.09 139.54 10.11 139.54 12.13 139.54 14.16 139.54 16.18 139.54 18.2 139.54 20.23 139.54 22.25 139.54 24.26 139.54 26.29 139.54 28.31 139.54 30.3 139.54 30.33 139.54 32.31 139.54 34.34 139.54 36.36 139.54 38.38 139.54 40.41 139.54 42.43 139.54 44.45 139.54 46.48 139.54 48.49 139.54 50.52 139.54 52.54 139.54 54.56 139.54 54.56 137.51 56.59 137.51 58.61 137.51 60.63 137.51 62.66 137.51 62.66 135.5 60.63 135.5 60.63 133.48 60.63 131.45 62.66 131.45 62.66 129.43 62.66 127.4 62.66 125.38 62.66 123.36 62.66 121.33 62.66 119.31 62.66 117.3 62.66 115.27 62.66 113.25 62.66 111.23 62.66 109.2 64.67 109.2 64.67 107.18 64.67 105.15 64.67 103.14 66.69 103.14 66.69 101.12 66.69 99.09 66.69 97.07 68.72 97.07 68.72 95.05 68.72 93.02 68.72 91 66.69 91 66.69 88.98"/></g></g></svg>