<?xml version="1.0" encoding="utf-8"?>
<!-- Generator: Adobe Illustrator 24.1.2, SVG Export Plug-In . SVG Version: 6.00 Build 0)  -->
<svg version="1.1" id="Capa_1" xmlns="http://www.w3.org/2000/svg" xmlns:xlink="http://www.w3.org/1999/xlink" x="0px" y="0px"
	 viewBox="0 0 291.8 258.4" style="enable-background:new 0 0 291.8 258.4;" xml:space="preserve">
<style type="text/css">
	.st0{enable-background:new    ;}
	.st1{fill:#F58B1E;}
	.st2{fill:#FF930A;}
	.st3{fill:none;}
	.st4{fill:#FFE255;}
	.st5{fill:#CC3A00;}
	.st6{fill:#FFC133;}
	.st7{fill:#F06723;}
</style>
<g id="bc418151-cc9e-4578-a0f7-237bb717ef4c">
	<g id="f55cb5ad-4ac4-40aa-a18f-82f54dfb93aa">
		<g class="st0">
			<path class="st1" d="M0.8,11.4V2.6H3v0.9h0.4v0.9h0.4v0.9h0.4v0.9h0.4V7h0.4v0.9h0.4v0.9H6v0.9h0.4v-7h1.3v8.8H5.6v-0.9H5.2V9.6
				H4.7V8.8H4.3V7.9H3.8V7H3.4V6.1H3V5.3H2.5V4.4H2.1v7H0.8z"/>
		</g>
		<g class="st0">
			<path class="st1" d="M8.8,11.4v-1.3h0.4V9.2h0.4V7.9h0.4V7h0.4V6.1H11V5.3h0.4V4.4h0.4V3.5h0.4V2.6h1.3v0.9h0.4v0.9h0.4v0.9H15
				v0.9h0.4V7h0.4v0.9h0.4v1.3h0.4v0.9h0.4v1.3h-1.3v-0.9h-0.4V9.6H15V8.8H11v0.9h-0.4v0.9h-0.4v0.9H8.8z M14.5,7.4V7h-0.4V6.1h-0.4
				V5.3h-0.4V4.4h-0.4v0.9h-0.4v0.9h-0.4V7h-0.4v0.4H14.5z"/>
		</g>
		<g class="st0">
			<path class="st1" d="M18.6,11.4V3.9h-3.1V2.6H23v1.3h-3.1v7.4H18.6z"/>
			<path class="st1" d="M23.9,11.4V2.6h1.3v8.8H23.9z"/>
		</g>
		<g class="st0">
			<path class="st1" d="M29.6,11.4v-0.4h-1.3v-0.4h-0.4v-0.4h-0.4V9.6H27V8.8h-0.4V5.3H27V4.4h0.4V3.9h0.4V3.5h0.4V3.1h1.3V2.6h2.2
				v0.4h1.3v0.4h0.4v0.4H34v0.4h0.4v0.9h0.4v3.5h-0.4v0.9H34v0.4h-0.4v0.4h-0.4v0.4h-1.3v0.4H29.6z M31.4,10.1V9.6h0.9V9.2h0.4V8.8
				h0.4V7.9h0.4V6.1h-0.4V5.3h-0.4V4.8h-0.4V4.4h-0.9V3.9h-1.3v0.4h-0.9v0.4h-0.4v0.4h-0.4v0.9h-0.4v1.8h0.4v0.9h0.4v0.4h0.4v0.4
				h0.9v0.4H31.4z"/>
		</g>
		<g class="st0">
			<path class="st1" d="M36.1,11.4V2.6h2.2v0.9h0.4v0.9h0.4v0.9h0.4v0.9H40V7h0.4v0.9h0.4v0.9h0.4v0.9h0.4v-7h1.3v8.8h-2.2v-0.9
				h-0.4V9.6H40V8.8h-0.4V7.9h-0.4V7h-0.4V6.1h-0.4V5.3h-0.4V4.4h-0.4v7H36.1z"/>
		</g>
		<g class="st0">
			<path class="st1" d="M44.2,11.4v-1.3h0.4V9.2H45V7.9h0.4V7h0.4V6.1h0.4V5.3h0.4V4.4h0.4V3.5h0.4V2.6H49v0.9h0.4v0.9h0.4v0.9h0.4
				v0.9h0.4V7h0.4v0.9h0.4v1.3H52v0.9h0.4v1.3h-1.3v-0.9h-0.4V9.6h-0.4V8.8h-3.9v0.9h-0.4v0.9h-0.4v0.9H44.2z M49.8,7.4V7h-0.4V6.1
				H49V5.3h-0.4V4.4h-0.4v0.9h-0.4v0.9h-0.4V7h-0.4v0.4H49.8z"/>
		</g>
		<g class="st0">
			<path class="st1" d="M53.5,11.4V2.6h1.3v7.4h4.4v1.3H53.5z"/>
		</g>
		<g class="st0">
			<path class="st1" d="M64.6,11.4V2.6h1.3v7.4h4.4v1.3H64.6z"/>
		</g>
		<g class="st0">
			<path class="st1" d="M71.6,11.4V2.6h1.3v8.8H71.6z"/>
			<path class="st1" d="M74.5,11.4V2.6h4.4v0.4h0.4v0.4h0.4v0.4h0.4v2.2h-0.4V7h0.4v0.4h0.4v2.6h-0.4v0.4h-0.4v0.4h-0.4v0.4H74.5z
				 M78.4,6.1V5.7h0.4V4.4h-0.4V3.9h-2.6v2.2H78.4z M78.8,10.1V9.6h0.4V7.9h-0.4V7.4h-3.1v2.6H78.8z"/>
			<path class="st1" d="M82,11.4V2.6h5.2v1.3h-3.9v2.2h3.9v1.3h-3.9v2.6h3.9v1.3H82z"/>
			<path class="st1" d="M88.8,11.4V2.6h4.8v0.4h0.4v0.4h0.4v0.4H95v2.2h-0.4v0.4h-0.4V7h-0.4v0.4h-1.3v0.4h0.4v0.4h0.4v0.4h0.4v0.4
				h0.4v0.4h0.4v0.4H95v0.4h0.4v0.4h0.4v0.4h-1.8v-0.4h-0.4v-0.4h-0.4v-0.4h-0.4V9.6h-0.4V9.2h-0.4V8.8h-0.4V8.3H91V7.9h-0.4V7.4
				h-0.4v3.9H88.8z M93.2,6.1V5.7h0.4V4.4h-0.4V3.9h-3.1v2.2H93.2z"/>
		</g>
		<g class="st0">
			<path class="st1" d="M96.7,11.4v-1.3h0.4V9.2h0.4V7.9h0.4V7h0.4V6.1h0.4V5.3h0.4V4.4h0.4V3.5h0.4V2.6h1.3v0.9h0.4v0.9h0.4v0.9
				h0.4v0.9h0.4V7h0.4v0.9h0.4v1.3h0.4v0.9h0.4v1.3h-1.3v-0.9h-0.4V9.6h-0.4V8.8h-3.9v0.9h-0.4v0.9h-0.4v0.9H96.7z M102.4,7.4V7H102
				V6.1h-0.4V5.3h-0.4V4.4h-0.4v0.9h-0.4v0.9h-0.4V7h-0.4v0.4H102.4z"/>
		</g>
		<g class="st0">
			<path class="st1" d="M106.5,11.4V3.9h-3.1V2.6h7.4v1.3h-3.1v7.4H106.5z"/>
			<path class="st1" d="M111.8,11.4V2.6h1.3v8.8H111.8z"/>
		</g>
		<g class="st0">
			<path class="st1" d="M117.6,11.4v-0.4h-1.3v-0.4h-0.4v-0.4h-0.4V9.6h-0.4V8.8h-0.4V5.3h0.4V4.4h0.4V3.9h0.4V3.5h0.4V3.1h1.3V2.6
				h2.2v0.4h1.3v0.4h0.4v0.4h0.4v0.4h0.4v0.9h0.4v3.5h-0.4v0.9h-0.4v0.4h-0.4v0.4h-0.4v0.4h-1.3v0.4H117.6z M119.3,10.1V9.6h0.9V9.2
				h0.4V8.8h0.4V7.9h0.4V6.1h-0.4V5.3h-0.4V4.8h-0.4V4.4h-0.9V3.9H118v0.4h-0.9v0.4h-0.4v0.4h-0.4v0.9h-0.4v1.8h0.4v0.9h0.4v0.4h0.4
				v0.4h0.9v0.4H119.3z"/>
		</g>
		<g class="st0">
			<path class="st1" d="M124,11.4V2.6h2.2v0.9h0.4v0.9h0.4v0.9h0.4v0.9h0.4V7h0.4v0.9h0.4v0.9h0.4v0.9h0.4v-7h1.3v8.8h-2.2v-0.9
				h-0.4V9.6H128V8.8h-0.4V7.9h-0.4V7h-0.4V6.1h-0.4V5.3h-0.4V4.4h-0.4v7H124z"/>
		</g>
		<g class="st0">
			<path class="st1" d="M136,11.4v-1.3h0.4V9.2h0.4V7.9h0.4V7h0.4V6.1h0.4V5.3h0.4V4.4h0.4V3.5h0.4V2.6h1.3v0.9h0.4v0.9h0.4v0.9h0.4
				v0.9h0.4V7h0.4v0.9h0.4v1.3h0.4v0.9h0.4v1.3H143v-0.9h-0.4V9.6h-0.4V8.8h-3.9v0.9h-0.4v0.9h-0.4v0.9H136z M141.7,7.4V7h-0.4V6.1
				h-0.4V5.3h-0.4V4.4H140v0.9h-0.4v0.9h-0.4V7h-0.4v0.4H141.7z"/>
		</g>
		<g class="st0">
			<path class="st1" d="M145.4,11.4V2.6h4.8v0.4h0.4v0.4h0.4v0.4h0.4v2.2h-0.4v0.4h-0.4V7h-0.4v0.4h-1.3v0.4h0.4v0.4h0.4v0.4h0.4
				v0.4h0.4v0.4h0.4v0.4h0.4v0.4h0.4v0.4h0.4v0.4h-1.8v-0.4h-0.4v-0.4h-0.4v-0.4h-0.4V9.6h-0.4V9.2h-0.4V8.8H148V8.3h-0.4V7.9h-0.4
				V7.4h-0.4v3.9H145.4z M149.8,6.1V5.7h0.4V4.4h-0.4V3.9h-3.1v2.2H149.8z"/>
		</g>
		<g class="st0">
			<path class="st1" d="M153.7,11.4V2.6h2.2v1.3h0.4v0.9h0.4v1.3h0.4v1.3h0.4v1.8h0.4V7.4h0.4V6.1h0.4V4.8h0.4V3.9h0.4V2.6h2.2v8.8
				h-1.3V4.8h-0.4v0.9h-0.4v1.8h-0.4v1.8h-0.4v1.3h-0.4v0.9h-1.3v-0.9h-0.4V9.2h-0.4V7.4h-0.4V5.7h-0.4V4.8H155v6.6H153.7z"/>
			<path class="st1" d="M165.8,11.4V8.3h-0.4V7.4h-0.4V6.6h-0.4V5.7h-0.4V4.8h-0.4V3.9h-0.4V3.1h-0.4V2.6h1.8v0.9h0.4v0.9h0.4v0.9
				h0.4v0.9h0.4V7h0.4V6.1h0.4V5.3h0.4V4.4h0.4V3.5h0.4V2.6h1.8v0.4h-0.4v0.9h-0.4v0.9h-0.4v0.9h-0.4v0.9H168v0.9h-0.4v0.9h-0.4v3.1
				H165.8z"/>
			<path class="st1" d="M177.3,11.4v-0.4h-0.4v-0.4h-0.4v-0.4H176V8.8h-0.4V5.3h0.4V3.9h0.4V3.5h0.4V3.1h0.4V2.6h1.3v0.4h-0.4v0.4
				h-0.4v0.9h-0.4v1.3h-0.4v2.6h0.4v1.3h0.4v0.9h0.4v0.4h0.4v0.4H177.3z"/>
			<path class="st1" d="M180.2,11.4V2.6h5.2v1.3h-3.9v2.2h3.9v1.3h-3.9v2.6h3.9v1.3H180.2z"/>
		</g>
		<g class="st0">
			<path class="st1" d="M187.1,11.4V2.6h1.3v7.4h4.4v1.3H187.1z"/>
		</g>
		<g class="st0">
			<path class="st1" d="M194,11.4V2.6h2.2v0.9h0.4v0.9h0.4v0.9h0.4v0.9h0.4V7h0.4v0.9h0.4v0.9h0.4v0.9h0.4v-7h1.3v8.8h-2.2v-0.9
				h-0.4V9.6h-0.4V8.8h-0.4V7.9h-0.4V7h-0.4V6.1h-0.4V5.3h-0.4V4.4h-0.4v7H194z"/>
			<path class="st1" d="M202.3,11.4v-0.4h0.4v-0.4h0.4V9.6h0.4V8.3h0.4V5.7h-0.4V4.4h-0.4V3.5h-0.4V3.1h-0.4V2.6h1.3v0.4h0.4v0.4
				h0.4v0.4h0.4v1.3h0.4v3.5h-0.4v1.3h-0.4v0.4H204v0.4h-0.4v0.4H202.3z"/>
		</g>
		<g>
			<rect x="0.8" y="23.1" class="st2" width="267.4" height="1"/>
		</g>
		<g class="st0">
			<path class="st1" d="M2.6,43.6H0.8v-8.4h3.5c1,0,1.7,0.2,2.2,0.7c0.5,0.5,0.8,1.2,0.8,2.2c0,0.8-0.3,1.5-0.8,2
				c-0.6,0.5-1.3,0.7-2.2,0.7H2.6V43.6z M4,36.7H2.6v2.8H4c0.5,0,0.9-0.1,1.2-0.4c0.3-0.2,0.5-0.6,0.5-1.1c0-0.5-0.2-0.8-0.5-1.1
				C4.9,36.8,4.5,36.7,4,36.7z"/>
		</g>
		<g class="st0">
			<path class="st1" d="M8.1,43.6v-6.2h1.7l0.1,1.7c0.1-0.3,0.2-0.5,0.3-0.8c0.2-0.3,0.4-0.5,0.7-0.7c0.3-0.2,0.7-0.3,1.2-0.3h0.2v2
				h-0.2c-0.8,0-1.4,0.1-1.8,0.3s-0.6,0.6-0.6,1.3v2.6H8.1z"/>
		</g>
		<g class="st0">
			<path class="st1" d="M16.3,43.8c-0.7,0-1.3-0.2-1.8-0.5c-0.5-0.3-0.8-0.7-1-1.2c-0.2-0.5-0.3-1-0.3-1.5c0-0.7,0.1-1.2,0.4-1.7
				c0.2-0.5,0.6-0.9,1.1-1.1c0.5-0.3,1-0.4,1.6-0.4c0.6,0,1.1,0.1,1.5,0.4c0.4,0.2,0.8,0.6,1.1,1c0.3,0.4,0.4,1,0.4,1.6
				c0,0,0,0.1,0,0.2s0,0.2,0,0.2h-4.3c0,0.5,0.1,0.9,0.4,1.1c0.2,0.2,0.6,0.4,1,0.4c0.3,0,0.6-0.1,0.8-0.2c0.2-0.2,0.3-0.4,0.4-0.6
				h1.8c-0.1,0.6-0.3,1.2-0.8,1.7C17.9,43.5,17.2,43.8,16.3,43.8z M15,40h2.5c0,0,0-0.1,0-0.2c0-0.1-0.1-0.2-0.2-0.4
				c-0.1-0.1-0.2-0.3-0.4-0.4c-0.2-0.1-0.4-0.1-0.7-0.1c-0.4,0-0.7,0.1-0.8,0.2c-0.2,0.2-0.3,0.3-0.3,0.5C15,39.8,15,39.9,15,40z"/>
			<path class="st1" d="M23.1,43.8c-0.2,0-0.4,0-0.7-0.1c-0.3-0.1-0.6-0.2-1-0.3c-0.3-0.2-0.6-0.4-0.8-0.7c-0.2-0.3-0.3-0.7-0.3-1.2
				h1.7c0,0,0,0.1,0,0.2c0,0.1,0,0.2,0.1,0.4s0.2,0.2,0.3,0.3c0.2,0.1,0.4,0.1,0.7,0.1c0.4,0,0.6-0.1,0.8-0.2S24,42,24,41.9
				c0-0.2-0.1-0.3-0.3-0.4c-0.2-0.1-0.4-0.2-0.7-0.3c-0.3-0.1-0.6-0.2-0.9-0.3c-0.3-0.1-0.6-0.2-0.9-0.4c-0.3-0.1-0.5-0.3-0.7-0.6
				s-0.3-0.6-0.3-1c0-0.6,0.2-1,0.7-1.3c0.5-0.3,1.1-0.4,1.8-0.4c0.5,0,1,0.1,1.5,0.3c0.4,0.2,0.8,0.4,1.1,0.8
				c0.3,0.4,0.4,0.8,0.4,1.3h-1.7c0-0.3,0-0.5-0.2-0.6c-0.1-0.1-0.3-0.2-0.5-0.3c-0.2-0.1-0.4-0.1-0.6-0.1c-0.3,0-0.6,0.1-0.7,0.2
				C22.1,38.9,22,39,22,39.1c0,0.2,0.1,0.4,0.3,0.5c0.2,0.1,0.4,0.2,0.7,0.3c0.3,0.1,0.6,0.2,0.9,0.3c0.3,0.1,0.6,0.2,0.9,0.3
				c0.3,0.1,0.5,0.3,0.7,0.6c0.2,0.2,0.3,0.5,0.3,0.9c0,0.6-0.2,1-0.7,1.3C24.6,43.6,23.9,43.8,23.1,43.8z"/>
			<path class="st1" d="M29.7,43.8c-0.7,0-1.3-0.2-1.8-0.5c-0.5-0.3-0.8-0.7-1-1.2c-0.2-0.5-0.3-1-0.3-1.5c0-0.7,0.1-1.2,0.4-1.7
				c0.2-0.5,0.6-0.9,1.1-1.1c0.5-0.3,1-0.4,1.6-0.4c0.6,0,1.1,0.1,1.5,0.4c0.4,0.2,0.8,0.6,1.1,1c0.3,0.4,0.4,1,0.4,1.6
				c0,0,0,0.1,0,0.2s0,0.2,0,0.2h-4.3c0,0.5,0.1,0.9,0.4,1.1c0.2,0.2,0.6,0.4,1,0.4c0.3,0,0.6-0.1,0.8-0.2c0.2-0.2,0.3-0.4,0.4-0.6
				h1.8c-0.1,0.6-0.3,1.2-0.8,1.7C31.3,43.5,30.6,43.8,29.7,43.8z M28.3,40h2.5c0,0,0-0.1,0-0.2c0-0.1-0.1-0.2-0.2-0.4
				c-0.1-0.1-0.2-0.3-0.4-0.4c-0.2-0.1-0.4-0.1-0.7-0.1c-0.4,0-0.7,0.1-0.8,0.2c-0.2,0.2-0.3,0.3-0.3,0.5
				C28.3,39.8,28.3,39.9,28.3,40z"/>
			<path class="st1" d="M33.7,43.6v-6.2h1.6l0.3,1.2h0c0,0,0-0.1,0.1-0.2s0.2-0.3,0.3-0.4c0.1-0.2,0.3-0.3,0.6-0.4
				c0.3-0.1,0.6-0.2,1-0.2c0.6,0,1,0.1,1.3,0.3c0.3,0.2,0.5,0.5,0.6,0.9s0.2,0.7,0.2,1.1s0,0.7,0,0.9v3H38v-3c0-0.3,0-0.5-0.1-0.8
				c0-0.2-0.2-0.4-0.3-0.6S37.2,39,36.8,39c-0.4,0-0.6,0.1-0.8,0.2c-0.2,0.2-0.3,0.4-0.3,0.6c-0.1,0.2-0.1,0.5-0.1,0.8v3H33.7z"/>
			<path class="st1" d="M43.1,43.6c-0.5,0-1-0.1-1.3-0.4c-0.3-0.3-0.4-0.7-0.4-1.4v-3.2h-0.9v-1.2c0.3,0,0.5,0,0.6-0.1
				s0.3-0.2,0.4-0.4c0.1-0.2,0.1-0.6,0.1-1h1.4v1.6h1.4v1.2h-1.4v3.5h1.4v1.4H43.1z"/>
			<path class="st1" d="M50,36.7c-0.4,0-0.6-0.1-0.7-0.3c-0.1-0.2-0.2-0.4-0.2-0.7c0-0.2,0.1-0.5,0.2-0.6s0.4-0.3,0.7-0.3
				c0.4,0,0.6,0.1,0.7,0.3c0.1,0.2,0.2,0.4,0.2,0.6c0,0.3-0.1,0.5-0.2,0.7C50.6,36.7,50.3,36.7,50,36.7z M49.1,43.6v-6.2h1.8v6.2
				H49.1z"/>
			<path class="st1" d="M52.2,43.6v-6.2h1.6l0.3,1.2h0c0,0,0-0.1,0.1-0.2s0.2-0.3,0.3-0.4c0.1-0.2,0.3-0.3,0.6-0.4
				c0.3-0.1,0.6-0.2,1-0.2c0.6,0,1,0.1,1.3,0.3c0.3,0.2,0.5,0.5,0.6,0.9s0.2,0.7,0.2,1.1s0,0.7,0,0.9v3h-1.8v-3c0-0.3,0-0.5-0.1-0.8
				c0-0.2-0.2-0.4-0.3-0.6S55.6,39,55.3,39c-0.4,0-0.6,0.1-0.8,0.2c-0.2,0.2-0.3,0.4-0.3,0.6c-0.1,0.2-0.1,0.5-0.1,0.8v3H52.2z"/>
			<path class="st1" d="M64.7,43.6c-0.5,0-1-0.1-1.3-0.4C63.1,43,63,42.5,63,41.9v-3.2h-0.9v-1.2c0.3,0,0.5,0,0.6-0.1
				s0.3-0.2,0.4-0.4c0.1-0.2,0.1-0.6,0.1-1h1.4v1.6h1.4v1.2h-1.4v3.5h1.4v1.4H64.7z"/>
			<path class="st1" d="M67.4,43.6v-8.4h1.9v3.5h0c0,0,0-0.1,0.1-0.2c0.1-0.1,0.2-0.3,0.3-0.4c0.1-0.2,0.3-0.3,0.6-0.4
				s0.6-0.2,1-0.2c0.4,0,0.8,0.1,1.1,0.2c0.3,0.2,0.5,0.4,0.7,0.6c0.2,0.3,0.3,0.5,0.3,0.8c0.1,0.3,0.1,0.6,0.1,0.8
				c0,0.3,0,0.5,0,0.7v3h-1.8v-3c0-0.3,0-0.5-0.1-0.8c-0.1-0.2-0.2-0.4-0.3-0.6c-0.2-0.2-0.4-0.2-0.8-0.2c-0.4,0-0.6,0.1-0.8,0.2
				c-0.2,0.2-0.3,0.4-0.3,0.6c0,0.2-0.1,0.5-0.1,0.8v3H67.4z"/>
			<path class="st1" d="M77.6,43.8c-0.7,0-1.3-0.2-1.8-0.5c-0.5-0.3-0.8-0.7-1-1.2c-0.2-0.5-0.3-1-0.3-1.5c0-0.7,0.1-1.2,0.4-1.7
				c0.2-0.5,0.6-0.9,1.1-1.1c0.5-0.3,1-0.4,1.6-0.4c0.6,0,1.1,0.1,1.5,0.4c0.4,0.2,0.8,0.6,1.1,1c0.3,0.4,0.4,1,0.4,1.6
				c0,0,0,0.1,0,0.2s0,0.2,0,0.2h-4.3c0,0.5,0.1,0.9,0.4,1.1c0.2,0.2,0.6,0.4,1,0.4c0.3,0,0.6-0.1,0.8-0.2c0.2-0.2,0.3-0.4,0.4-0.6
				h1.8c-0.1,0.6-0.3,1.2-0.8,1.7C79.2,43.5,78.5,43.8,77.6,43.8z M76.2,40h2.5c0,0,0-0.1,0-0.2c0-0.1-0.1-0.2-0.2-0.4
				c-0.1-0.1-0.2-0.3-0.4-0.4c-0.2-0.1-0.4-0.1-0.7-0.1c-0.4,0-0.7,0.1-0.8,0.2c-0.2,0.2-0.3,0.3-0.3,0.5
				C76.2,39.8,76.2,39.9,76.2,40z"/>
		</g>
		<g class="st0">
			<path class="st1" d="M0.6,61.6v-6.2h1.7l0.1,1.7c0.1-0.3,0.2-0.5,0.3-0.8c0.2-0.3,0.4-0.5,0.7-0.7c0.3-0.2,0.7-0.3,1.2-0.3h0.2v2
				H4.7c-0.8,0-1.4,0.1-1.8,0.3s-0.6,0.6-0.6,1.3v2.6H0.6z"/>
		</g>
		<g class="st0">
			<path class="st1" d="M8.8,61.8c-0.7,0-1.3-0.2-1.8-0.5c-0.5-0.3-0.8-0.7-1-1.2c-0.2-0.5-0.3-1-0.3-1.5C5.7,58,5.8,57.4,6,57
				c0.2-0.5,0.6-0.9,1.1-1.1c0.5-0.3,1-0.4,1.6-0.4c0.6,0,1.1,0.1,1.5,0.4c0.4,0.2,0.8,0.6,1.1,1c0.3,0.4,0.4,1,0.4,1.6
				c0,0,0,0.1,0,0.2s0,0.2,0,0.2H7.4c0,0.5,0.1,0.9,0.4,1.1c0.2,0.2,0.6,0.4,1,0.4c0.3,0,0.6-0.1,0.8-0.2c0.2-0.2,0.3-0.4,0.4-0.6
				h1.8c-0.1,0.6-0.3,1.2-0.8,1.7C10.4,61.5,9.7,61.8,8.8,61.8z M7.4,58h2.5c0,0,0-0.1,0-0.2c0-0.1-0.1-0.2-0.2-0.4
				c-0.1-0.1-0.2-0.3-0.4-0.4c-0.2-0.1-0.4-0.1-0.7-0.1c-0.4,0-0.7,0.1-0.8,0.2c-0.2,0.2-0.3,0.3-0.3,0.5C7.5,57.8,7.4,57.9,7.4,58z
				"/>
			<path class="st1" d="M14.7,64.5v-1.7h2.5v-2.1h0c0,0,0,0.1-0.1,0.2c-0.1,0.1-0.2,0.2-0.3,0.4c-0.2,0.1-0.4,0.3-0.6,0.4
				c-0.2,0.1-0.6,0.2-0.9,0.2c-0.9,0-1.6-0.3-1.9-0.9s-0.6-1.3-0.6-2.3c0-1,0.2-1.8,0.6-2.3c0.4-0.6,1-0.8,1.9-0.8
				c0.4,0,0.7,0.1,1,0.2c0.2,0.1,0.4,0.3,0.6,0.4s0.2,0.3,0.3,0.4s0.1,0.2,0.1,0.2h0v-1.2h1.9v6.4c0,1-0.2,1.7-0.6,2
				c-0.4,0.4-1,0.6-1.8,0.6H14.7z M15.8,60.3c0.6,0,0.9-0.2,1.1-0.5c0.2-0.3,0.3-0.7,0.3-1.1c0-0.4-0.1-0.8-0.3-1.1
				c-0.2-0.3-0.5-0.5-1.1-0.5c-0.4,0-0.7,0.1-0.9,0.2c-0.2,0.2-0.3,0.4-0.4,0.6c-0.1,0.2-0.1,0.5-0.1,0.8c0,0.3,0,0.5,0.1,0.8
				s0.2,0.4,0.4,0.6C15.2,60.2,15.5,60.3,15.8,60.3z"/>
			<path class="st1" d="M21.3,54.7c-0.4,0-0.6-0.1-0.7-0.3c-0.1-0.2-0.2-0.4-0.2-0.7c0-0.2,0.1-0.5,0.2-0.6s0.4-0.3,0.7-0.3
				c0.4,0,0.6,0.1,0.7,0.3c0.1,0.2,0.2,0.4,0.2,0.6c0,0.3-0.1,0.5-0.2,0.7C21.9,54.7,21.7,54.7,21.3,54.7z M20.4,61.6v-6.2h1.8v6.2
				H20.4z"/>
			<path class="st1" d="M26.5,61.8c-0.7,0-1.3-0.1-1.8-0.4c-0.5-0.3-0.8-0.6-1.1-1.1c-0.2-0.5-0.4-1-0.4-1.6c0-0.9,0.2-1.7,0.8-2.3
				s1.3-0.9,2.4-0.9c1,0,1.8,0.3,2.4,0.9s0.8,1.4,0.8,2.3c0,0.6-0.1,1.1-0.3,1.6s-0.6,0.9-1,1.1C27.8,61.6,27.2,61.8,26.5,61.8z
				 M26.5,60.3c0.4,0,0.7-0.1,0.9-0.3s0.3-0.4,0.4-0.7s0.1-0.5,0.1-0.8c0-0.3,0-0.6-0.1-0.8c-0.1-0.3-0.2-0.5-0.4-0.7
				c-0.2-0.2-0.5-0.3-0.9-0.3s-0.7,0.1-0.9,0.3c-0.2,0.2-0.4,0.4-0.4,0.7C25.1,58,25,58.3,25,58.6c0,0.3,0,0.5,0.1,0.8
				s0.2,0.5,0.4,0.7C25.8,60.2,26.1,60.3,26.5,60.3z"/>
			<path class="st1" d="M30.7,61.6v-6.2h1.6l0.3,1.2h0c0,0,0-0.1,0.1-0.2s0.2-0.3,0.3-0.4c0.1-0.2,0.3-0.3,0.6-0.4
				c0.3-0.1,0.6-0.2,1-0.2c0.6,0,1,0.1,1.3,0.3c0.3,0.2,0.5,0.5,0.6,0.9s0.2,0.7,0.2,1.1s0,0.7,0,0.9v3H35v-3c0-0.3,0-0.5-0.1-0.8
				c0-0.2-0.2-0.4-0.3-0.6S34.2,57,33.8,57c-0.4,0-0.6,0.1-0.8,0.2c-0.2,0.2-0.3,0.4-0.3,0.6c-0.1,0.2-0.1,0.5-0.1,0.8v3H30.7z"/>
			<path class="st1" d="M43.7,61.8c-0.2,0-0.4,0-0.7-0.1c-0.3-0.1-0.6-0.2-1-0.3c-0.3-0.2-0.6-0.4-0.8-0.7c-0.2-0.3-0.3-0.7-0.3-1.2
				h1.7c0,0,0,0.1,0,0.2c0,0.1,0,0.2,0.1,0.4s0.2,0.2,0.3,0.3c0.2,0.1,0.4,0.1,0.7,0.1c0.4,0,0.6-0.1,0.8-0.2s0.2-0.3,0.2-0.4
				c0-0.2-0.1-0.3-0.3-0.4c-0.2-0.1-0.4-0.2-0.7-0.3c-0.3-0.1-0.6-0.2-0.9-0.3c-0.3-0.1-0.6-0.2-0.9-0.4c-0.3-0.1-0.5-0.3-0.7-0.6
				s-0.3-0.6-0.3-1c0-0.6,0.2-1,0.7-1.3c0.5-0.3,1.1-0.4,1.8-0.4c0.5,0,1,0.1,1.5,0.3c0.4,0.2,0.8,0.4,1.1,0.8
				c0.3,0.4,0.4,0.8,0.4,1.3h-1.7c0-0.3,0-0.5-0.2-0.6c-0.1-0.1-0.3-0.2-0.5-0.3c-0.2-0.1-0.4-0.1-0.6-0.1c-0.3,0-0.6,0.1-0.7,0.2
				c-0.1,0.1-0.2,0.2-0.2,0.4c0,0.2,0.1,0.4,0.3,0.5c0.2,0.1,0.4,0.2,0.7,0.3c0.3,0.1,0.6,0.2,0.9,0.3c0.3,0.1,0.6,0.2,0.9,0.3
				c0.3,0.1,0.5,0.3,0.7,0.6c0.2,0.2,0.3,0.5,0.3,0.9c0,0.6-0.2,1-0.7,1.3C45.1,61.6,44.5,61.8,43.7,61.8z"/>
			<path class="st1" d="M48.4,54.7c-0.4,0-0.6-0.1-0.7-0.3c-0.1-0.2-0.2-0.4-0.2-0.7c0-0.2,0.1-0.5,0.2-0.6s0.4-0.3,0.7-0.3
				c0.4,0,0.6,0.1,0.7,0.3c0.1,0.2,0.2,0.4,0.2,0.6c0,0.3-0.1,0.5-0.2,0.7C49,54.7,48.8,54.7,48.4,54.7z M47.5,61.6v-6.2h1.8v6.2
				H47.5z"/>
			<path class="st1" d="M50.6,61.6v-6.2h1.6l0.3,1.2h0c0,0,0-0.1,0.1-0.2s0.2-0.3,0.3-0.4c0.1-0.2,0.3-0.3,0.6-0.4
				c0.3-0.1,0.6-0.2,1-0.2c0.6,0,1,0.1,1.3,0.3c0.3,0.2,0.5,0.5,0.6,0.9s0.2,0.7,0.2,1.1s0,0.7,0,0.9v3h-1.8v-3c0-0.3,0-0.5-0.1-0.8
				c0-0.2-0.2-0.4-0.3-0.6S54.1,57,53.7,57c-0.4,0-0.6,0.1-0.8,0.2c-0.2,0.2-0.3,0.4-0.3,0.6c-0.1,0.2-0.1,0.5-0.1,0.8v3H50.6z"/>
			<path class="st1" d="M60.8,61.8c-0.6,0-1.1-0.1-1.6-0.4c-0.5-0.2-0.9-0.6-1.2-1.1c-0.3-0.5-0.4-1-0.4-1.7c0-0.7,0.2-1.2,0.4-1.7
				c0.3-0.5,0.7-0.9,1.1-1.1s1-0.4,1.6-0.4c0.7,0,1.2,0.1,1.7,0.4c0.5,0.2,0.8,0.6,1,1c0.2,0.4,0.4,0.8,0.4,1.2h-1.6
				c-0.1-0.7-0.6-1-1.4-1c-0.5,0-0.9,0.1-1.1,0.4s-0.4,0.7-0.4,1.1c0,0.5,0.1,1,0.4,1.3c0.2,0.3,0.6,0.5,1.2,0.5
				c0.3,0,0.6-0.1,0.9-0.3c0.2-0.2,0.4-0.4,0.5-0.8h1.6c0,0.4-0.1,0.8-0.4,1.3c-0.2,0.4-0.6,0.7-1,1S61.5,61.8,60.8,61.8z"/>
			<path class="st1" d="M67.9,61.8c-0.7,0-1.3-0.2-1.8-0.5c-0.5-0.3-0.8-0.7-1-1.2c-0.2-0.5-0.3-1-0.3-1.5c0-0.7,0.1-1.2,0.4-1.7
				c0.2-0.5,0.6-0.9,1.1-1.1c0.5-0.3,1-0.4,1.6-0.4c0.6,0,1.1,0.1,1.5,0.4c0.4,0.2,0.8,0.6,1.1,1c0.3,0.4,0.4,1,0.4,1.6
				c0,0,0,0.1,0,0.2s0,0.2,0,0.2h-4.3c0,0.5,0.1,0.9,0.4,1.1c0.2,0.2,0.6,0.4,1,0.4c0.3,0,0.6-0.1,0.8-0.2c0.2-0.2,0.3-0.4,0.4-0.6
				h1.8c-0.1,0.6-0.3,1.2-0.8,1.7C69.5,61.5,68.8,61.8,67.9,61.8z M66.5,58H69c0,0,0-0.1,0-0.2c0-0.1-0.1-0.2-0.2-0.4
				c-0.1-0.1-0.2-0.3-0.4-0.4c-0.2-0.1-0.4-0.1-0.7-0.1c-0.4,0-0.7,0.1-0.8,0.2c-0.2,0.2-0.3,0.3-0.3,0.5
				C66.6,57.8,66.5,57.9,66.5,58z"/>
			<path class="st1" d="M77.4,61.6c-0.5,0-1-0.1-1.3-0.4c-0.3-0.3-0.4-0.7-0.4-1.4v-3.2h-0.9v-1.2c0.3,0,0.5,0,0.6-0.1
				s0.3-0.2,0.4-0.4c0.1-0.2,0.1-0.6,0.1-1h1.4v1.6h1.4v1.2h-1.4v3.5h1.4v1.4H77.4z"/>
			<path class="st1" d="M80,61.6v-8.4h1.9v3.5h0c0,0,0-0.1,0.1-0.2c0.1-0.1,0.2-0.3,0.3-0.4c0.1-0.2,0.3-0.3,0.6-0.4s0.6-0.2,1-0.2
				c0.4,0,0.8,0.1,1.1,0.2c0.3,0.2,0.5,0.4,0.7,0.6c0.2,0.3,0.3,0.5,0.3,0.8c0.1,0.3,0.1,0.6,0.1,0.8c0,0.3,0,0.5,0,0.7v3h-1.8v-3
				c0-0.3,0-0.5-0.1-0.8c-0.1-0.2-0.2-0.4-0.3-0.6c-0.2-0.2-0.4-0.2-0.8-0.2c-0.4,0-0.6,0.1-0.8,0.2c-0.2,0.2-0.3,0.4-0.3,0.6
				c0,0.2-0.1,0.5-0.1,0.8v3H80z"/>
			<path class="st1" d="M90.2,61.8c-0.7,0-1.3-0.2-1.8-0.5c-0.5-0.3-0.8-0.7-1-1.2c-0.2-0.5-0.3-1-0.3-1.5c0-0.7,0.1-1.2,0.4-1.7
				c0.2-0.5,0.6-0.9,1.1-1.1c0.5-0.3,1-0.4,1.6-0.4c0.6,0,1.1,0.1,1.5,0.4c0.4,0.2,0.8,0.6,1.1,1c0.3,0.4,0.4,1,0.4,1.6
				c0,0,0,0.1,0,0.2s0,0.2,0,0.2h-4.3c0,0.5,0.1,0.9,0.4,1.1c0.2,0.2,0.6,0.4,1,0.4c0.3,0,0.6-0.1,0.8-0.2c0.2-0.2,0.3-0.4,0.4-0.6
				h1.8c-0.1,0.6-0.3,1.2-0.8,1.7C91.8,61.5,91.1,61.8,90.2,61.8z M88.9,58h2.5c0,0,0-0.1,0-0.2c0-0.1-0.1-0.2-0.2-0.4
				c-0.1-0.1-0.2-0.3-0.4-0.4c-0.2-0.1-0.4-0.1-0.7-0.1c-0.4,0-0.7,0.1-0.8,0.2c-0.2,0.2-0.3,0.3-0.3,0.5
				C88.9,57.8,88.9,57.9,88.9,58z"/>
		</g>
		<g class="st0">
			<path class="st1" d="M5.4,78.1v1.5H1v-1.5h1.4v-4.9c-0.1,0.4-0.2,0.7-0.4,0.9c-0.2,0.2-0.4,0.3-0.6,0.4c-0.2,0.1-0.4,0.1-0.6,0.1
				c-0.2,0-0.3,0-0.3,0v-2c0.1,0,0.2,0,0.4,0c0.2,0,0.4-0.1,0.7-0.1s0.4-0.2,0.6-0.5c0.2-0.2,0.3-0.5,0.3-0.9h1.6v6.9H5.4z"/>
			<path class="st1" d="M10,79.8c-0.6,0-1-0.1-1.4-0.2s-0.7-0.3-0.9-0.5S7.2,78.7,7,78.5S6.8,78,6.7,77.7l1.8-0.4c0,0,0,0.1,0.1,0.2
				C8.7,77.7,8.8,77.8,9,78c0.2,0.1,0.5,0.2,0.9,0.2c0.2,0,0.4,0,0.7-0.1c0.2-0.1,0.4-0.3,0.6-0.5c0.2-0.2,0.3-0.6,0.5-1
				c0.1-0.4,0.2-0.9,0.1-1.6c0,0-0.1,0.2-0.1,0.3s-0.2,0.4-0.4,0.6c-0.2,0.2-0.4,0.4-0.7,0.5c-0.3,0.1-0.7,0.2-1.1,0.2
				c-0.7,0-1.2-0.1-1.6-0.4c-0.4-0.3-0.7-0.6-0.9-1s-0.3-0.9-0.2-1.3c0-0.5,0.2-0.9,0.5-1.3c0.3-0.4,0.6-0.8,1.1-1
				c0.5-0.3,1.1-0.4,1.8-0.4c0.7,0,1.3,0.1,1.7,0.4c0.5,0.2,0.8,0.6,1.1,1c0.3,0.4,0.5,0.9,0.6,1.4c0.1,0.5,0.2,1.1,0.2,1.6
				c0,0.8-0.1,1.5-0.4,2.2s-0.6,1.2-1.2,1.6C11.5,79.6,10.8,79.8,10,79.8z M9.8,75.5c0.5,0,1-0.2,1.3-0.5c0.3-0.3,0.5-0.7,0.5-1.2
				c-0.1-0.5-0.3-0.8-0.6-1s-0.7-0.3-1-0.3c-0.4,0-0.7,0.1-1,0.3c-0.3,0.2-0.4,0.4-0.5,0.8c-0.1,0.3-0.1,0.6,0,0.9
				c0.1,0.3,0.2,0.5,0.5,0.8C9.1,75.4,9.4,75.5,9.8,75.5z"/>
			<path class="st1" d="M18.6,79.8c-0.7,0-1.3-0.1-1.9-0.3c-0.5-0.2-1-0.5-1.3-0.8c-0.3-0.4-0.5-0.8-0.5-1.4c0-0.5,0.2-1,0.6-1.4
				c0.4-0.4,0.9-0.6,1.6-0.7c-0.5-0.1-0.8-0.2-1.1-0.5c-0.2-0.2-0.4-0.5-0.5-0.7c-0.1-0.3-0.1-0.5-0.1-0.6c0-0.5,0.1-0.8,0.4-1.2
				c0.3-0.3,0.6-0.6,1.1-0.8c0.5-0.2,1-0.3,1.7-0.3c1,0,1.8,0.2,2.3,0.6c0.6,0.4,0.9,1,0.9,1.6c0,0.2,0,0.4-0.1,0.6
				c-0.1,0.3-0.2,0.5-0.5,0.7c-0.2,0.2-0.6,0.4-1.1,0.5c0.7,0.1,1.2,0.3,1.6,0.7c0.4,0.4,0.6,0.9,0.6,1.4c0,0.5-0.2,1-0.5,1.4
				c-0.3,0.4-0.8,0.7-1.3,0.8C19.9,79.7,19.3,79.8,18.6,79.8z M18.6,78.4c0.6,0,1.1-0.1,1.4-0.4c0.3-0.3,0.5-0.6,0.5-1
				c0-0.5-0.2-0.8-0.5-1.1c-0.3-0.2-0.8-0.3-1.4-0.3c-0.6,0-1,0.1-1.4,0.3c-0.3,0.2-0.5,0.6-0.5,1.1c0,0.4,0.2,0.8,0.5,1
				C17.6,78.3,18,78.4,18.6,78.4z M18.6,74.7c0.5,0,0.9-0.1,1.2-0.3c0.3-0.2,0.4-0.5,0.4-0.8c0-0.4-0.1-0.7-0.4-0.9
				c-0.3-0.2-0.7-0.3-1.1-0.3c-0.5,0-0.9,0.1-1.1,0.3c-0.3,0.2-0.4,0.5-0.4,0.9c0,0.4,0.1,0.6,0.4,0.8
				C17.8,74.6,18.1,74.7,18.6,74.7z"/>
			<path class="st1" d="M27.1,79.8c-1.3,0-2.2-0.4-2.8-1.2c-0.6-0.8-0.9-1.9-0.9-3.2c0-0.9,0.1-1.7,0.4-2.3c0.3-0.7,0.7-1.2,1.2-1.5
				c0.6-0.4,1.3-0.5,2.1-0.5c1.3,0,2.2,0.4,2.8,1.2s0.9,1.9,0.9,3.2c0,0.9-0.1,1.6-0.4,2.3s-0.7,1.2-1.2,1.6
				C28.7,79.7,28,79.8,27.1,79.8z M27.1,78.3c0.7,0,1.2-0.2,1.6-0.7c0.3-0.5,0.5-1.2,0.5-2.2c0-1-0.2-1.7-0.5-2.2
				c-0.3-0.5-0.9-0.7-1.6-0.7c-0.7,0-1.2,0.2-1.6,0.7S25,74.4,25,75.4c0,1,0.2,1.7,0.5,2.2C25.8,78.1,26.4,78.3,27.1,78.3z"/>
			<path class="st1" d="M34.5,79.8c-0.2,0-0.4,0-0.7-0.1c-0.3-0.1-0.6-0.2-1-0.3c-0.3-0.2-0.6-0.4-0.8-0.7c-0.2-0.3-0.3-0.7-0.3-1.2
				h1.7c0,0,0,0.1,0,0.2c0,0.1,0,0.2,0.1,0.4s0.2,0.2,0.3,0.3c0.2,0.1,0.4,0.1,0.7,0.1c0.4,0,0.6-0.1,0.8-0.2s0.2-0.3,0.2-0.4
				c0-0.2-0.1-0.3-0.3-0.4c-0.2-0.1-0.4-0.2-0.7-0.3c-0.3-0.1-0.6-0.2-0.9-0.3c-0.3-0.1-0.6-0.2-0.9-0.4c-0.3-0.1-0.5-0.3-0.7-0.6
				s-0.3-0.6-0.3-1c0-0.6,0.2-1,0.7-1.3c0.5-0.3,1.1-0.4,1.8-0.4c0.5,0,1,0.1,1.5,0.3c0.4,0.2,0.8,0.4,1.1,0.8
				c0.3,0.4,0.4,0.8,0.4,1.3h-1.7c0-0.3,0-0.5-0.2-0.6c-0.1-0.1-0.3-0.2-0.5-0.3c-0.2-0.1-0.4-0.1-0.6-0.1c-0.3,0-0.6,0.1-0.7,0.2
				c-0.1,0.1-0.2,0.2-0.2,0.4c0,0.2,0.1,0.4,0.3,0.5c0.2,0.1,0.4,0.2,0.7,0.3c0.3,0.1,0.6,0.2,0.9,0.3c0.3,0.1,0.6,0.2,0.9,0.3
				c0.3,0.1,0.5,0.3,0.7,0.6c0.2,0.2,0.3,0.5,0.3,0.9c0,0.6-0.2,1-0.7,1.3C36,79.6,35.4,79.8,34.5,79.8z"/>
			<path class="st1" d="M39.2,79.6c-0.4,0-0.7-0.1-0.8-0.3s-0.2-0.5-0.2-0.7c0-0.3,0.1-0.5,0.2-0.7c0.1-0.2,0.4-0.3,0.8-0.3
				c0.4,0,0.7,0.1,0.8,0.3s0.2,0.4,0.2,0.7c0,0.3-0.1,0.5-0.2,0.8S39.6,79.6,39.2,79.6z"/>
		</g>
		<g class="st0">
			<path class="st1" d="M0.8,97.6v-8.4h3.3c1.1,0,2,0.2,2.6,0.6s0.9,1,0.9,2c0,0.7-0.2,1.3-0.5,1.7S6.3,94,5.7,94
				c0.3,0,0.5,0.1,0.7,0.2c0.2,0.1,0.3,0.3,0.3,0.5c0.1,0.2,0.1,0.4,0.1,0.7C6.9,95.7,7,95.9,7,96c0.1,0.2,0.2,0.3,0.3,0.4
				c0.1,0.1,0.4,0,0.7-0.1v1c-0.2,0.2-0.5,0.3-0.8,0.4c-0.3,0.1-0.6,0-0.9-0.1c-0.3-0.1-0.5-0.3-0.7-0.6c-0.2-0.3-0.3-0.7-0.3-1.2
				c0-0.3,0-0.6-0.1-0.9c0-0.2-0.2-0.4-0.3-0.5s-0.4-0.2-0.8-0.3c-0.4,0-0.9,0-1.5,0v3.4H0.8z M2.6,92.9h1.3c0.5,0,0.9,0,1.2,0
				c0.3,0,0.5-0.1,0.7-0.3C5.9,92.5,6,92.2,6,91.9c0-0.4-0.1-0.7-0.3-0.9c-0.2-0.2-0.4-0.3-0.8-0.3c-0.4,0-0.8,0-1.3,0h-1V92.9z"/>
			<path class="st1" d="M12,97.8c-0.7,0-1.3-0.2-1.8-0.5c-0.5-0.3-0.8-0.7-1-1.2c-0.2-0.5-0.3-1-0.3-1.5C8.8,94,9,93.4,9.2,93
				c0.2-0.5,0.6-0.9,1.1-1.1c0.5-0.3,1-0.4,1.6-0.4c0.6,0,1.1,0.1,1.5,0.4c0.4,0.2,0.8,0.6,1.1,1c0.3,0.4,0.4,1,0.4,1.6
				c0,0,0,0.1,0,0.2s0,0.2,0,0.2h-4.3c0,0.5,0.1,0.9,0.4,1.1c0.2,0.2,0.6,0.4,1,0.4c0.3,0,0.6-0.1,0.8-0.2c0.2-0.2,0.3-0.4,0.4-0.6
				h1.8c-0.1,0.6-0.3,1.2-0.8,1.7C13.6,97.5,12.9,97.8,12,97.8z M10.6,94h2.5c0,0,0-0.1,0-0.2c0-0.1-0.1-0.2-0.2-0.4
				c-0.1-0.1-0.2-0.3-0.4-0.4c-0.2-0.1-0.4-0.1-0.7-0.1c-0.4,0-0.7,0.1-0.8,0.2c-0.2,0.2-0.3,0.3-0.3,0.5
				C10.6,93.8,10.6,93.9,10.6,94z"/>
		</g>
		<g class="st0">
			<path class="st1" d="M20.3,91.5H22v0.3l-2,5.9h-2.5l-2-5.9v-0.3h1.8l1.5,4.7h0L20.3,91.5z"/>
		</g>
		<g class="st0">
			<path class="st1" d="M25.7,97.8c-0.7,0-1.3-0.1-1.8-0.4c-0.5-0.3-0.8-0.6-1.1-1.1c-0.2-0.5-0.4-1-0.4-1.6c0-0.9,0.2-1.7,0.8-2.3
				s1.3-0.9,2.4-0.9c1,0,1.8,0.3,2.4,0.9s0.8,1.4,0.8,2.3c0,0.6-0.1,1.1-0.3,1.6s-0.6,0.9-1,1.1C27,97.6,26.4,97.8,25.7,97.8z
				 M25.7,96.3c0.4,0,0.7-0.1,0.9-0.3s0.3-0.4,0.4-0.7s0.1-0.5,0.1-0.8c0-0.3,0-0.6-0.1-0.8c-0.1-0.3-0.2-0.5-0.4-0.7
				c-0.2-0.2-0.5-0.3-0.9-0.3s-0.7,0.1-0.9,0.3c-0.2,0.2-0.4,0.4-0.4,0.7c-0.1,0.3-0.1,0.5-0.1,0.8c0,0.3,0,0.5,0.1,0.8
				s0.2,0.5,0.4,0.7C25,96.2,25.3,96.3,25.7,96.3z"/>
			<path class="st1" d="M30.1,97.6v-8.4h1.8v8.4H30.1z"/>
			<path class="st1" d="M35.1,97.8c-0.6,0-1-0.1-1.3-0.3c-0.3-0.2-0.5-0.5-0.6-0.9c-0.1-0.3-0.2-0.7-0.2-1.1s0-0.7,0-1v-3.1h1.8v3.1
				c0,0.3,0,0.5,0.1,0.8c0,0.2,0.2,0.5,0.3,0.6c0.2,0.2,0.4,0.2,0.8,0.2c0.4,0,0.6-0.1,0.8-0.2s0.3-0.4,0.3-0.6
				c0-0.2,0.1-0.5,0.1-0.8v-3.1H39v6.2h-1.6l-0.3-1.1h0c0,0,0,0.1-0.1,0.2s-0.2,0.3-0.3,0.4s-0.4,0.3-0.6,0.4
				C35.8,97.7,35.5,97.8,35.1,97.8z"/>
			<path class="st1" d="M42.4,97.6c-0.5,0-1-0.1-1.3-0.4c-0.3-0.3-0.4-0.7-0.4-1.4v-3.2h-0.9v-1.2c0.3,0,0.5,0,0.6-0.1
				s0.3-0.2,0.4-0.4c0.1-0.2,0.1-0.6,0.1-1h1.4v1.6h1.4v1.2h-1.4v3.5h1.4v1.4H42.4z"/>
			<path class="st1" d="M46,90.7c-0.4,0-0.6-0.1-0.7-0.3c-0.1-0.2-0.2-0.4-0.2-0.7c0-0.2,0.1-0.5,0.2-0.6s0.4-0.3,0.7-0.3
				c0.4,0,0.6,0.1,0.7,0.3c0.1,0.2,0.2,0.4,0.2,0.6c0,0.3-0.1,0.5-0.2,0.7C46.6,90.7,46.4,90.7,46,90.7z M45.1,97.6v-6.2h1.8v6.2
				H45.1z"/>
			<path class="st1" d="M51.2,97.8c-0.7,0-1.3-0.1-1.8-0.4c-0.5-0.3-0.8-0.6-1.1-1.1c-0.2-0.5-0.4-1-0.4-1.6c0-0.9,0.2-1.7,0.8-2.3
				s1.3-0.9,2.4-0.9c1,0,1.8,0.3,2.4,0.9s0.8,1.4,0.8,2.3c0,0.6-0.1,1.1-0.3,1.6s-0.6,0.9-1,1.1C52.5,97.6,51.9,97.8,51.2,97.8z
				 M51.2,96.3c0.4,0,0.7-0.1,0.9-0.3s0.3-0.4,0.4-0.7s0.1-0.5,0.1-0.8c0-0.3,0-0.6-0.1-0.8c-0.1-0.3-0.2-0.5-0.4-0.7
				c-0.2-0.2-0.5-0.3-0.9-0.3s-0.7,0.1-0.9,0.3c-0.2,0.2-0.4,0.4-0.4,0.7c-0.1,0.3-0.1,0.5-0.1,0.8c0,0.3,0,0.5,0.1,0.8
				s0.2,0.5,0.4,0.7C50.5,96.2,50.8,96.3,51.2,96.3z"/>
			<path class="st1" d="M55.4,97.6v-6.2H57l0.3,1.2h0c0,0,0-0.1,0.1-0.2s0.2-0.3,0.3-0.4c0.1-0.2,0.3-0.3,0.6-0.4
				c0.3-0.1,0.6-0.2,1-0.2c0.6,0,1,0.1,1.3,0.3c0.3,0.2,0.5,0.5,0.6,0.9s0.2,0.7,0.2,1.1s0,0.7,0,0.9v3h-1.8v-3c0-0.3,0-0.5-0.1-0.8
				c0-0.2-0.2-0.4-0.3-0.6S58.9,93,58.5,93c-0.4,0-0.6,0.1-0.8,0.2c-0.2,0.2-0.3,0.4-0.3,0.6c-0.1,0.2-0.1,0.5-0.1,0.8v3H55.4z"/>
			<path class="st1" d="M64.7,97.8c-0.9,0-1.4-0.3-1.8-0.9c-0.3-0.6-0.5-1.3-0.5-2.3c0-1,0.2-1.7,0.5-2.3c0.3-0.6,0.9-0.9,1.8-0.9
				c0.4,0,0.7,0.1,0.9,0.2c0.2,0.1,0.5,0.2,0.6,0.4c0.1,0.2,0.3,0.3,0.3,0.4s0.1,0.2,0.1,0.2h0v-1.2h1.9v6.2H67l-0.3-0.9h0
				c0,0-0.1,0.2-0.2,0.3c-0.1,0.2-0.3,0.3-0.6,0.5C65.5,97.7,65.2,97.8,64.7,97.8z M65.4,96.3c0.4,0,0.6-0.1,0.8-0.2
				c0.2-0.2,0.3-0.3,0.4-0.6s0.1-0.5,0.1-0.8c0-0.3,0-0.6-0.1-0.8s-0.2-0.4-0.4-0.6C66,93.1,65.8,93,65.4,93c-0.4,0-0.6,0.1-0.8,0.2
				c-0.2,0.1-0.3,0.3-0.4,0.6s-0.1,0.5-0.1,0.8s0,0.6,0.1,0.8s0.2,0.4,0.4,0.6C64.8,96.2,65.1,96.3,65.4,96.3z"/>
		</g>
		<g class="st0">
			<path class="st1" d="M69.6,97.6v-6.2h1.7l0.1,1.7c0.1-0.3,0.2-0.5,0.3-0.8c0.2-0.3,0.4-0.5,0.7-0.7c0.3-0.2,0.7-0.3,1.2-0.3h0.2
				v2h-0.2c-0.8,0-1.4,0.1-1.8,0.3s-0.6,0.6-0.6,1.3v2.6H69.6z"/>
		</g>
		<g class="st0">
			<path class="st1" d="M74.5,100.6v-1.4h1c0.1,0,0.3,0,0.4,0c0.1,0,0.2-0.1,0.4-0.2c0.1-0.1,0.2-0.3,0.4-0.6l0.3-0.7l-2.4-6.2h1.9
				l1.4,4.3l1.5-4.3h1.9l-2.9,7c-0.3,0.6-0.5,1.1-0.7,1.4c-0.2,0.3-0.5,0.5-0.7,0.6s-0.6,0.1-1.1,0.1H74.5z"/>
		</g>
		<g class="st0">
			<path class="st1" d="M0.3,115.6l2.6-8.4h3l2.6,8.4H6.5l-0.6-2.2H2.8l-0.6,2.2H0.3z M4.4,107.9L3.2,112h2.3L4.4,107.9z"/>
			<path class="st1" d="M9.3,115.6v-6.2H11l0.1,1.7c0.1-0.3,0.2-0.5,0.3-0.8c0.2-0.3,0.4-0.5,0.7-0.7c0.3-0.2,0.7-0.3,1.2-0.3h0.2v2
				h-0.2c-0.8,0-1.4,0.1-1.8,0.3s-0.6,0.6-0.6,1.3v2.6H9.3z"/>
			<path class="st1" d="M14.6,115.6v-6.2h1.6l0,1.2h0c0,0,0-0.1,0.1-0.2c0.1-0.1,0.2-0.3,0.3-0.4c0.1-0.2,0.3-0.3,0.5-0.4
				c0.2-0.1,0.5-0.2,0.8-0.2c0.5,0,0.8,0.1,1.1,0.4c0.2,0.2,0.4,0.5,0.5,0.9h0c0,0,0-0.1,0.1-0.2c0.1-0.1,0.2-0.3,0.3-0.4
				c0.2-0.2,0.3-0.3,0.6-0.4c0.2-0.1,0.5-0.2,0.9-0.2c0.4,0,0.7,0.1,0.9,0.2c0.2,0.2,0.4,0.4,0.6,0.6c0.1,0.3,0.2,0.5,0.3,0.8
				c0,0.3,0.1,0.6,0.1,0.8c0,0.3,0,0.5,0,0.7v3h-1.5v-3c0-0.2,0-0.4,0-0.7c0-0.2-0.1-0.5-0.3-0.7c-0.1-0.2-0.4-0.3-0.7-0.3
				c-0.3,0-0.6,0.1-0.7,0.2s-0.2,0.4-0.3,0.6s-0.1,0.5-0.1,0.8v3h-1.5v-3c0-0.2,0-0.4,0-0.7c0-0.2-0.1-0.5-0.3-0.7
				c-0.1-0.2-0.4-0.3-0.7-0.3c-0.3,0-0.6,0.1-0.7,0.2s-0.2,0.4-0.3,0.6s-0.1,0.5-0.1,0.8v3H14.6z"/>
			<path class="st1" d="M27.4,115.8c-0.7,0-1.3-0.2-1.8-0.5c-0.5-0.3-0.8-0.7-1-1.2c-0.2-0.5-0.3-1-0.3-1.5c0-0.7,0.1-1.2,0.4-1.7
				c0.2-0.5,0.6-0.9,1.1-1.1c0.5-0.3,1-0.4,1.6-0.4c0.6,0,1.1,0.1,1.5,0.4c0.4,0.2,0.8,0.6,1.1,1c0.3,0.4,0.4,1,0.4,1.6
				c0,0,0,0.1,0,0.2s0,0.2,0,0.2H26c0,0.5,0.1,0.9,0.4,1.1c0.2,0.2,0.6,0.4,1,0.4c0.3,0,0.6-0.1,0.8-0.2c0.2-0.2,0.3-0.4,0.4-0.6
				h1.8c-0.1,0.6-0.3,1.2-0.8,1.7C29,115.5,28.3,115.8,27.4,115.8z M26,112h2.5c0,0,0-0.1,0-0.2c0-0.1-0.1-0.2-0.2-0.4
				c-0.1-0.1-0.2-0.3-0.4-0.4c-0.2-0.1-0.4-0.1-0.7-0.1c-0.4,0-0.7,0.1-0.8,0.2c-0.2,0.2-0.3,0.3-0.3,0.5
				C26.1,111.8,26,111.9,26,112z"/>
			<path class="st1" d="M34,115.8c-0.9,0-1.6-0.3-1.9-0.8c-0.4-0.6-0.5-1.3-0.5-2.3c0-1,0.2-1.8,0.6-2.4c0.4-0.6,1-0.9,1.9-0.9
				c0.4,0,0.7,0.1,1,0.2s0.5,0.3,0.6,0.4s0.3,0.3,0.3,0.4s0.1,0.2,0.1,0.2h0v-3.5h1.9v8.4h-1.6l-0.3-1h0c0,0,0,0.1-0.1,0.2
				c-0.1,0.1-0.2,0.2-0.3,0.4c-0.2,0.1-0.4,0.3-0.6,0.4C34.7,115.7,34.4,115.8,34,115.8z M34.7,114.3c0.5,0,0.9-0.2,1.1-0.5
				c0.2-0.3,0.3-0.7,0.3-1.1c0-0.4-0.1-0.8-0.3-1.1c-0.2-0.3-0.5-0.5-1.1-0.5c-0.4,0-0.7,0.1-0.9,0.2s-0.3,0.4-0.4,0.6
				c-0.1,0.2-0.1,0.5-0.1,0.8c0,0.3,0,0.5,0.1,0.8s0.2,0.4,0.4,0.6C34,114.2,34.3,114.3,34.7,114.3z"/>
		</g>
		<g class="st0">
			<path class="st1" d="M44.5,115.6h-1.8v-8.4h6.1v1.5h-4.3v1.8h3.3v1.5h-3.3V115.6z"/>
		</g>
		<g class="st0">
			<path class="st1" d="M51.8,115.8c-0.7,0-1.3-0.1-1.8-0.4c-0.5-0.3-0.8-0.6-1.1-1.1c-0.2-0.5-0.4-1-0.4-1.6c0-0.9,0.2-1.7,0.8-2.3
				s1.3-0.9,2.4-0.9c1,0,1.8,0.3,2.4,0.9s0.8,1.4,0.8,2.3c0,0.6-0.1,1.1-0.3,1.6s-0.6,0.9-1,1.1C53.1,115.6,52.5,115.8,51.8,115.8z
				 M51.8,114.3c0.4,0,0.7-0.1,0.9-0.3s0.3-0.4,0.4-0.7s0.1-0.5,0.1-0.8c0-0.3,0-0.6-0.1-0.8c-0.1-0.3-0.2-0.5-0.4-0.7
				c-0.2-0.2-0.5-0.3-0.9-0.3s-0.7,0.1-0.9,0.3c-0.2,0.2-0.4,0.4-0.4,0.7c-0.1,0.3-0.1,0.5-0.1,0.8c0,0.3,0,0.5,0.1,0.8
				s0.2,0.5,0.4,0.7C51.1,114.2,51.4,114.3,51.8,114.3z"/>
		</g>
		<g class="st0">
			<path class="st1" d="M56.1,115.6v-6.2h1.7l0.1,1.7c0.1-0.3,0.2-0.5,0.3-0.8c0.2-0.3,0.4-0.5,0.7-0.7c0.3-0.2,0.7-0.3,1.2-0.3h0.2
				v2h-0.2c-0.8,0-1.4,0.1-1.8,0.3s-0.6,0.6-0.6,1.3v2.6H56.1z"/>
		</g>
		<g class="st0">
			<path class="st1" d="M64.4,115.8c-0.6,0-1.1-0.1-1.6-0.4c-0.5-0.2-0.9-0.6-1.2-1.1c-0.3-0.5-0.4-1-0.4-1.7c0-0.7,0.2-1.2,0.4-1.7
				c0.3-0.5,0.7-0.9,1.1-1.1s1-0.4,1.6-0.4c0.7,0,1.2,0.1,1.7,0.4c0.5,0.2,0.8,0.6,1,1c0.2,0.4,0.4,0.8,0.4,1.2h-1.6
				c-0.1-0.7-0.6-1-1.4-1c-0.5,0-0.9,0.1-1.1,0.4S63,112,63,112.5c0,0.5,0.1,1,0.4,1.3c0.2,0.3,0.6,0.5,1.2,0.5
				c0.3,0,0.6-0.1,0.9-0.3c0.2-0.2,0.4-0.4,0.5-0.8h1.6c0,0.4-0.1,0.8-0.4,1.3c-0.2,0.4-0.6,0.7-1,1S65.1,115.8,64.4,115.8z"/>
			<path class="st1" d="M71.5,115.8c-0.7,0-1.3-0.2-1.8-0.5c-0.5-0.3-0.8-0.7-1-1.2c-0.2-0.5-0.3-1-0.3-1.5c0-0.7,0.1-1.2,0.4-1.7
				c0.2-0.5,0.6-0.9,1.1-1.1c0.5-0.3,1-0.4,1.6-0.4c0.6,0,1.1,0.1,1.5,0.4c0.4,0.2,0.8,0.6,1.1,1c0.3,0.4,0.4,1,0.4,1.6
				c0,0,0,0.1,0,0.2s0,0.2,0,0.2h-4.3c0,0.5,0.1,0.9,0.4,1.1c0.2,0.2,0.6,0.4,1,0.4c0.3,0,0.6-0.1,0.8-0.2c0.2-0.2,0.3-0.4,0.4-0.6
				h1.8c-0.1,0.6-0.3,1.2-0.8,1.7C73.1,115.5,72.4,115.8,71.5,115.8z M70.1,112h2.5c0,0,0-0.1,0-0.2c0-0.1-0.1-0.2-0.2-0.4
				c-0.1-0.1-0.2-0.3-0.4-0.4c-0.2-0.1-0.4-0.1-0.7-0.1c-0.4,0-0.7,0.1-0.8,0.2c-0.2,0.2-0.3,0.3-0.3,0.5
				C70.1,111.8,70.1,111.9,70.1,112z"/>
			<path class="st1" d="M78.2,115.8c-0.2,0-0.4,0-0.7-0.1c-0.3-0.1-0.6-0.2-1-0.3c-0.3-0.2-0.6-0.4-0.8-0.7
				c-0.2-0.3-0.3-0.7-0.3-1.2H77c0,0,0,0.1,0,0.2c0,0.1,0,0.2,0.1,0.4s0.2,0.2,0.3,0.3c0.2,0.1,0.4,0.1,0.7,0.1
				c0.4,0,0.6-0.1,0.8-0.2s0.2-0.3,0.2-0.4c0-0.2-0.1-0.3-0.3-0.4c-0.2-0.1-0.4-0.2-0.7-0.3c-0.3-0.1-0.6-0.2-0.9-0.3
				c-0.3-0.1-0.6-0.2-0.9-0.4c-0.3-0.1-0.5-0.3-0.7-0.6s-0.3-0.6-0.3-1c0-0.6,0.2-1,0.7-1.3c0.5-0.3,1.1-0.4,1.8-0.4
				c0.5,0,1,0.1,1.5,0.3c0.4,0.2,0.8,0.4,1.1,0.8c0.3,0.4,0.4,0.8,0.4,1.3h-1.7c0-0.3,0-0.5-0.2-0.6c-0.1-0.1-0.3-0.2-0.5-0.3
				c-0.2-0.1-0.4-0.1-0.6-0.1c-0.3,0-0.6,0.1-0.7,0.2c-0.1,0.1-0.2,0.2-0.2,0.4c0,0.2,0.1,0.4,0.3,0.5c0.2,0.1,0.4,0.2,0.7,0.3
				c0.3,0.1,0.6,0.2,0.9,0.3c0.3,0.1,0.6,0.2,0.9,0.3c0.3,0.1,0.5,0.3,0.7,0.6c0.2,0.2,0.3,0.5,0.3,0.9c0,0.6-0.2,1-0.7,1.3
				C79.7,115.6,79,115.8,78.2,115.8z"/>
			<path class="st1" d="M88,115.8c-0.7,0-1.3-0.1-1.8-0.4c-0.5-0.3-0.8-0.6-1.1-1.1c-0.2-0.5-0.4-1-0.4-1.6c0-0.9,0.2-1.7,0.8-2.3
				s1.3-0.9,2.4-0.9c1,0,1.8,0.3,2.4,0.9s0.8,1.4,0.8,2.3c0,0.6-0.1,1.1-0.3,1.6s-0.6,0.9-1,1.1C89.3,115.6,88.7,115.8,88,115.8z
				 M88,114.3c0.4,0,0.7-0.1,0.9-0.3s0.3-0.4,0.4-0.7s0.1-0.5,0.1-0.8c0-0.3,0-0.6-0.1-0.8c-0.1-0.3-0.2-0.5-0.4-0.7
				c-0.2-0.2-0.5-0.3-0.9-0.3s-0.7,0.1-0.9,0.3c-0.2,0.2-0.4,0.4-0.4,0.7c-0.1,0.3-0.1,0.5-0.1,0.8c0,0.3,0,0.5,0.1,0.8
				s0.2,0.5,0.4,0.7C87.3,114.2,87.6,114.3,88,114.3z"/>
			<path class="st1" d="M92.7,115.6v-4.9h-0.8v-1.2h0.8v-0.9c0-0.6,0.1-1.1,0.5-1.3c0.3-0.3,0.7-0.4,1.3-0.4H96v1.4h-1.4v1.2h1.4
				v1.2h-1.4v4.9H92.7z"/>
		</g>
		<g class="st0">
			<path class="st1" d="M4.5,133.8c-0.8,0-1.5-0.2-2.2-0.5c-0.6-0.3-1.2-0.8-1.5-1.4c-0.4-0.6-0.6-1.4-0.6-2.4
				c0-0.9,0.2-1.7,0.6-2.4c0.4-0.7,0.9-1.2,1.5-1.5c0.6-0.3,1.4-0.5,2.2-0.5c0.8,0,1.5,0.1,2.1,0.4s1,0.7,1.3,1.2
				c0.3,0.5,0.5,1,0.6,1.6H6.8c-0.1-0.4-0.2-0.7-0.5-1c-0.2-0.2-0.5-0.4-0.8-0.4c-0.3-0.1-0.6-0.1-0.9-0.1c-0.8,0-1.5,0.2-1.9,0.7
				c-0.4,0.5-0.6,1.1-0.6,1.9c0,0.9,0.2,1.6,0.6,2c0.4,0.5,1,0.7,1.9,0.7c0.3,0,0.6,0,0.9-0.1c0.3-0.1,0.6-0.3,0.8-0.5
				c0.2-0.2,0.4-0.6,0.5-1h1.9c-0.1,0.6-0.3,1.2-0.7,1.7c-0.3,0.5-0.8,0.9-1.4,1.2C6.1,133.6,5.4,133.8,4.5,133.8z"/>
			<path class="st1" d="M12.6,133.8c-0.7,0-1.3-0.1-1.8-0.4c-0.5-0.3-0.8-0.6-1.1-1.1c-0.2-0.5-0.4-1-0.4-1.6c0-0.9,0.2-1.7,0.8-2.3
				s1.3-0.9,2.4-0.9c1,0,1.8,0.3,2.4,0.9s0.8,1.4,0.8,2.3c0,0.6-0.1,1.1-0.3,1.6s-0.6,0.9-1,1.1C13.9,133.6,13.3,133.8,12.6,133.8z
				 M12.6,132.3c0.4,0,0.7-0.1,0.9-0.3s0.3-0.4,0.4-0.7s0.1-0.5,0.1-0.8c0-0.3,0-0.6-0.1-0.8c-0.1-0.3-0.2-0.5-0.4-0.7
				c-0.2-0.2-0.5-0.3-0.9-0.3s-0.7,0.1-0.9,0.3c-0.2,0.2-0.4,0.4-0.4,0.7c-0.1,0.3-0.1,0.5-0.1,0.8c0,0.3,0,0.5,0.1,0.8
				s0.2,0.5,0.4,0.7C11.9,132.2,12.2,132.3,12.6,132.3z"/>
			<path class="st1" d="M17,133.6v-8.4h1.8v8.4H17z"/>
			<path class="st1" d="M23,133.8c-0.7,0-1.3-0.1-1.8-0.4c-0.5-0.3-0.8-0.6-1.1-1.1c-0.2-0.5-0.4-1-0.4-1.6c0-0.9,0.2-1.7,0.8-2.3
				s1.3-0.9,2.4-0.9c1,0,1.8,0.3,2.4,0.9s0.8,1.4,0.8,2.3c0,0.6-0.1,1.1-0.3,1.6s-0.6,0.9-1,1.1C24.3,133.6,23.7,133.8,23,133.8z
				 M23,132.3c0.4,0,0.7-0.1,0.9-0.3s0.3-0.4,0.4-0.7s0.1-0.5,0.1-0.8c0-0.3,0-0.6-0.1-0.8c-0.1-0.3-0.2-0.5-0.4-0.7
				c-0.2-0.2-0.5-0.3-0.9-0.3s-0.7,0.1-0.9,0.3c-0.2,0.2-0.4,0.4-0.4,0.7c-0.1,0.3-0.1,0.5-0.1,0.8c0,0.3,0,0.5,0.1,0.8
				s0.2,0.5,0.4,0.7C22.2,132.2,22.6,132.3,23,132.3z"/>
			<path class="st1" d="M27.2,133.6v-6.2h1.6l0,1.2h0c0,0,0-0.1,0.1-0.2c0.1-0.1,0.2-0.3,0.3-0.4c0.1-0.2,0.3-0.3,0.5-0.4
				c0.2-0.1,0.5-0.2,0.8-0.2c0.5,0,0.8,0.1,1.1,0.4c0.2,0.2,0.4,0.5,0.5,0.9h0c0,0,0-0.1,0.1-0.2c0.1-0.1,0.2-0.3,0.3-0.4
				c0.2-0.2,0.3-0.3,0.6-0.4c0.2-0.1,0.5-0.2,0.9-0.2c0.4,0,0.7,0.1,0.9,0.2c0.2,0.2,0.4,0.4,0.6,0.6c0.1,0.3,0.2,0.5,0.3,0.8
				c0,0.3,0.1,0.6,0.1,0.8c0,0.3,0,0.5,0,0.7v3h-1.5v-3c0-0.2,0-0.4,0-0.7c0-0.2-0.1-0.5-0.3-0.7c-0.1-0.2-0.4-0.3-0.7-0.3
				c-0.3,0-0.6,0.1-0.7,0.2s-0.2,0.4-0.3,0.6s-0.1,0.5-0.1,0.8v3h-1.5v-3c0-0.2,0-0.4,0-0.7c0-0.2-0.1-0.5-0.3-0.7
				c-0.1-0.2-0.4-0.3-0.7-0.3c-0.3,0-0.6,0.1-0.7,0.2s-0.2,0.4-0.3,0.6s-0.1,0.5-0.1,0.8v3H27.2z"/>
			<path class="st1" d="M41,133.8c-0.4,0-0.7-0.1-0.9-0.2c-0.2-0.1-0.5-0.2-0.6-0.4c-0.2-0.1-0.3-0.3-0.3-0.4
				c-0.1-0.1-0.1-0.2-0.1-0.2h0l-0.3,1h-1.6v-8.4H39l0,3.5h0c0,0,0-0.1,0.1-0.2c0.1-0.1,0.2-0.3,0.3-0.4s0.4-0.3,0.6-0.4
				c0.3-0.1,0.6-0.2,1-0.2c0.9,0,1.6,0.3,1.9,0.9c0.4,0.6,0.6,1.4,0.6,2.4c0,1-0.2,1.7-0.6,2.3C42.6,133.5,42,133.8,41,133.8z
				 M40.4,132.3c0.4,0,0.7-0.1,0.9-0.2c0.2-0.2,0.3-0.4,0.4-0.6s0.1-0.5,0.1-0.8c0-0.3,0-0.5-0.1-0.8c-0.1-0.2-0.2-0.4-0.4-0.6
				c-0.2-0.2-0.5-0.2-0.9-0.2c-0.6,0-0.9,0.2-1.1,0.5c-0.2,0.3-0.3,0.7-0.3,1.1c0,0.5,0.1,0.8,0.3,1.1
				C39.5,132.1,39.8,132.3,40.4,132.3z"/>
			<path class="st1" d="M45.8,126.7c-0.4,0-0.6-0.1-0.7-0.3c-0.1-0.2-0.2-0.4-0.2-0.7c0-0.2,0.1-0.5,0.2-0.6s0.4-0.3,0.7-0.3
				c0.4,0,0.6,0.1,0.7,0.3c0.1,0.2,0.2,0.4,0.2,0.6c0,0.3-0.1,0.5-0.2,0.7C46.4,126.7,46.1,126.7,45.8,126.7z M44.9,133.6v-6.2h1.8
				v6.2H44.9z"/>
			<path class="st1" d="M50.1,133.8c-0.9,0-1.4-0.3-1.8-0.9c-0.3-0.6-0.5-1.3-0.5-2.3c0-1,0.2-1.7,0.5-2.3c0.3-0.6,0.9-0.9,1.8-0.9
				c0.4,0,0.7,0.1,0.9,0.2c0.2,0.1,0.5,0.2,0.6,0.4c0.1,0.2,0.3,0.3,0.3,0.4s0.1,0.2,0.1,0.2h0v-1.2H54v6.2h-1.6l-0.3-0.9h0
				c0,0-0.1,0.2-0.2,0.3c-0.1,0.2-0.3,0.3-0.6,0.5C50.9,133.7,50.6,133.8,50.1,133.8z M50.8,132.3c0.4,0,0.6-0.1,0.8-0.2
				c0.2-0.2,0.3-0.3,0.4-0.6s0.1-0.5,0.1-0.8c0-0.3,0-0.6-0.1-0.8s-0.2-0.4-0.4-0.6c-0.2-0.1-0.5-0.2-0.8-0.2
				c-0.4,0-0.6,0.1-0.8,0.2c-0.2,0.1-0.3,0.3-0.4,0.6s-0.1,0.5-0.1,0.8s0,0.6,0.1,0.8s0.2,0.4,0.4,0.6
				C50.2,132.2,50.5,132.3,50.8,132.3z"/>
		</g>
		<g class="st0">
			<path class="st1" d="M61.1,136.6c-0.4-0.3-0.7-0.6-1-1c-0.3-0.3-0.6-0.7-0.9-1.2c-0.3-0.5-0.5-1-0.7-1.7
				c-0.2-0.6-0.3-1.4-0.3-2.2s0.1-1.5,0.3-2.2c0.2-0.6,0.4-1.2,0.7-1.7s0.6-0.9,0.9-1.2s0.6-0.6,1-1l1.4,1.4c0,0-0.2,0.1-0.4,0.2
				c-0.2,0.1-0.5,0.3-0.8,0.6c-0.3,0.2-0.6,0.5-0.9,0.9s-0.5,0.8-0.7,1.3c-0.2,0.5-0.3,1-0.3,1.7c0,0.6,0.1,1.2,0.3,1.7
				c0.2,0.5,0.5,0.9,0.8,1.3c0.3,0.4,0.6,0.7,0.9,0.9c0.3,0.2,0.7,0.5,1.1,0.7L61.1,136.6z"/>
		</g>
		<g class="st0">
			<path class="st1" d="M65.7,133.6h-1.8v-8.4H70v1.5h-4.3v1.8H69v1.5h-3.3V133.6z"/>
		</g>
		<g class="st0">
			<path class="st1" d="M69.9,133.6l2.6-8.4h3l2.6,8.4h-1.9l-0.6-2.2h-3.1l-0.6,2.2H69.9z M74,125.9l-1.1,4.1h2.3L74,125.9z"/>
			<path class="st1" d="M79.1,133.6v-8.4h3.3c1.1,0,2,0.2,2.6,0.6s0.9,1,0.9,2c0,0.7-0.2,1.3-0.5,1.7S84.6,130,84,130
				c0.3,0,0.5,0.1,0.7,0.2c0.2,0.1,0.3,0.3,0.3,0.5c0.1,0.2,0.1,0.4,0.1,0.7c0,0.2,0.1,0.4,0.1,0.6c0.1,0.2,0.2,0.3,0.3,0.4
				c0.1,0.1,0.4,0,0.7-0.1v1c-0.2,0.2-0.5,0.3-0.8,0.4c-0.3,0.1-0.6,0-0.9-0.1c-0.3-0.1-0.5-0.3-0.7-0.6c-0.2-0.3-0.3-0.7-0.3-1.2
				c0-0.3,0-0.6-0.1-0.9c0-0.2-0.2-0.4-0.3-0.5s-0.4-0.2-0.8-0.3c-0.4,0-0.9,0-1.5,0v3.4H79.1z M80.9,128.9h1.3c0.5,0,0.9,0,1.2,0
				c0.3,0,0.5-0.1,0.7-0.3c0.1-0.1,0.2-0.4,0.2-0.8c0-0.4-0.1-0.7-0.3-0.9c-0.2-0.2-0.4-0.3-0.8-0.3c-0.4,0-0.8,0-1.3,0h-1V128.9z"
				/>
			<path class="st1" d="M91.3,133.8c-0.8,0-1.5-0.2-2.2-0.5c-0.6-0.3-1.2-0.8-1.5-1.4c-0.4-0.6-0.6-1.4-0.6-2.4
				c0-0.9,0.2-1.7,0.6-2.4c0.4-0.7,0.9-1.2,1.5-1.5c0.6-0.3,1.4-0.5,2.2-0.5c0.8,0,1.5,0.1,2.1,0.4s1,0.7,1.3,1.2
				c0.3,0.5,0.5,1,0.6,1.6h-1.9c-0.1-0.4-0.2-0.7-0.5-1c-0.2-0.2-0.5-0.4-0.8-0.4c-0.3-0.1-0.6-0.1-0.9-0.1c-0.8,0-1.5,0.2-1.9,0.7
				c-0.4,0.5-0.6,1.1-0.6,1.9c0,0.9,0.2,1.6,0.6,2c0.4,0.5,1,0.7,1.9,0.7c0.3,0,0.6,0,0.9-0.1c0.3-0.1,0.6-0.3,0.8-0.5
				c0.2-0.2,0.4-0.6,0.5-1h1.9c-0.1,0.6-0.3,1.2-0.7,1.7c-0.3,0.5-0.8,0.9-1.4,1.2C92.8,133.6,92.1,133.8,91.3,133.8z"/>
			<path class="st1" d="M96,135.2c0,0,0.1-0.1,0.3-0.2s0.5-0.3,0.8-0.5c0.3-0.2,0.6-0.5,0.9-0.9c0.3-0.4,0.6-0.8,0.8-1.3
				s0.3-1.1,0.3-1.7c0-0.6-0.1-1.2-0.3-1.7s-0.4-0.9-0.7-1.3c-0.3-0.4-0.6-0.7-0.9-0.9c-0.3-0.2-0.6-0.4-0.8-0.6
				c-0.2-0.1-0.3-0.2-0.4-0.2l1.4-1.4c0.4,0.3,0.7,0.6,1,1s0.6,0.7,0.9,1.2s0.5,1,0.7,1.7c0.2,0.6,0.3,1.4,0.3,2.2s-0.1,1.5-0.3,2.2
				c-0.2,0.6-0.4,1.2-0.7,1.7c-0.3,0.5-0.6,0.9-0.9,1.2c-0.3,0.3-0.6,0.6-1,1L96,135.2z"/>
			<path class="st1" d="M102.5,133.6c-0.4,0-0.7-0.1-0.8-0.3s-0.2-0.5-0.2-0.7c0-0.3,0.1-0.5,0.2-0.7c0.1-0.2,0.4-0.3,0.8-0.3
				c0.4,0,0.7,0.1,0.8,0.3s0.2,0.4,0.2,0.7c0,0.3-0.1,0.5-0.2,0.8S102.9,133.6,102.5,133.6z"/>
		</g>
		<g class="st0">
			<path class="st1" d="M4.4,151.8c-0.8,0-1.6-0.2-2.2-0.5s-1.1-0.8-1.4-1.5c-0.3-0.6-0.5-1.4-0.5-2.4c0-1,0.2-1.8,0.6-2.4
				c0.4-0.7,0.9-1.2,1.5-1.5s1.4-0.5,2.2-0.5c1.2,0,2.1,0.2,2.7,0.8c0.6,0.5,1.1,1.2,1.3,2.2l-1.8,0.3c-0.1-0.4-0.3-0.7-0.5-0.9
				s-0.5-0.4-0.8-0.5c-0.3-0.1-0.6-0.1-0.9-0.1c-0.9,0-1.6,0.2-2,0.7c-0.4,0.5-0.6,1.1-0.6,1.9c0,0.9,0.2,1.5,0.7,2
				c0.5,0.5,1.2,0.7,2.1,0.7c0.5,0,0.9-0.1,1.4-0.3c0.4-0.2,0.7-0.6,0.9-1.1H5.5v-1.3h3.3v4.3H7.6l-0.4-1.3h0c-0.2,0.4-0.5,0.7-1,1
				S5.1,151.8,4.4,151.8z"/>
			<path class="st1" d="M12.1,151.8c-0.6,0-1-0.1-1.3-0.3c-0.3-0.2-0.5-0.5-0.6-0.9c-0.1-0.3-0.2-0.7-0.2-1.1s0-0.7,0-1v-3.1h1.8
				v3.1c0,0.3,0,0.5,0.1,0.8c0,0.2,0.2,0.5,0.3,0.6c0.2,0.2,0.4,0.2,0.8,0.2c0.4,0,0.6-0.1,0.8-0.2s0.3-0.4,0.3-0.6
				c0-0.2,0.1-0.5,0.1-0.8v-3.1h1.9v6.2h-1.6l-0.3-1.1h0c0,0,0,0.1-0.1,0.2s-0.2,0.3-0.3,0.4s-0.4,0.3-0.6,0.4
				C12.8,151.7,12.4,151.8,12.1,151.8z"/>
			<path class="st1" d="M19.9,151.8c-0.7,0-1.3-0.2-1.8-0.5c-0.5-0.3-0.8-0.7-1-1.2c-0.2-0.5-0.3-1-0.3-1.5c0-0.7,0.1-1.2,0.4-1.7
				c0.2-0.5,0.6-0.9,1.1-1.1c0.5-0.3,1-0.4,1.6-0.4c0.6,0,1.1,0.1,1.5,0.4c0.4,0.2,0.8,0.6,1.1,1c0.3,0.4,0.4,1,0.4,1.6
				c0,0,0,0.1,0,0.2s0,0.2,0,0.2h-4.3c0,0.5,0.1,0.9,0.4,1.1c0.2,0.2,0.6,0.4,1,0.4c0.3,0,0.6-0.1,0.8-0.2c0.2-0.2,0.3-0.4,0.4-0.6
				h1.8c-0.1,0.6-0.3,1.2-0.8,1.7C21.5,151.5,20.8,151.8,19.9,151.8z M18.6,148h2.5c0,0,0-0.1,0-0.2c0-0.1-0.1-0.2-0.2-0.4
				c-0.1-0.1-0.2-0.3-0.4-0.4c-0.2-0.1-0.4-0.1-0.7-0.1c-0.4,0-0.7,0.1-0.8,0.2c-0.2,0.2-0.3,0.3-0.3,0.5
				C18.6,147.8,18.6,147.9,18.6,148z"/>
		</g>
		<g class="st0">
			<path class="st1" d="M24,151.6v-6.2h1.7l0.1,1.7c0.1-0.3,0.2-0.5,0.3-0.8c0.2-0.3,0.4-0.5,0.7-0.7c0.3-0.2,0.7-0.3,1.2-0.3h0.2v2
				h-0.2c-0.8,0-1.4,0.1-1.8,0.3s-0.6,0.6-0.6,1.3v2.6H24z"/>
		</g>
		<g class="st0">
			<path class="st1" d="M29.4,151.6v-6.2h1.7l0.1,1.7c0.1-0.3,0.2-0.5,0.3-0.8c0.2-0.3,0.4-0.5,0.7-0.7c0.3-0.2,0.7-0.3,1.2-0.3h0.2
				v2h-0.2c-0.8,0-1.4,0.1-1.8,0.3s-0.6,0.6-0.6,1.3v2.6H29.4z"/>
			<path class="st1" d="M35.9,144.7c-0.4,0-0.6-0.1-0.7-0.3c-0.1-0.2-0.2-0.4-0.2-0.7c0-0.2,0.1-0.5,0.2-0.6s0.4-0.3,0.7-0.3
				c0.4,0,0.6,0.1,0.7,0.3c0.1,0.2,0.2,0.4,0.2,0.6c0,0.3-0.1,0.5-0.2,0.7C36.5,144.7,36.2,144.7,35.9,144.7z M34.9,151.6v-6.2h1.8
				v6.2H34.9z"/>
			<path class="st1" d="M38.2,151.6v-8.4H40v8.4H38.2z"/>
			<path class="st1" d="M41.4,151.6v-8.4h1.8v8.4H41.4z"/>
			<path class="st1" d="M46.5,151.8c-0.9,0-1.4-0.3-1.8-0.9c-0.3-0.6-0.5-1.3-0.5-2.3c0-1,0.2-1.7,0.5-2.3c0.3-0.6,0.9-0.9,1.8-0.9
				c0.4,0,0.7,0.1,0.9,0.2c0.2,0.1,0.5,0.2,0.6,0.4c0.1,0.2,0.3,0.3,0.3,0.4s0.1,0.2,0.1,0.2h0v-1.2h1.9v6.2h-1.6l-0.3-0.9h0
				c0,0-0.1,0.2-0.2,0.3c-0.1,0.2-0.3,0.3-0.6,0.5C47.4,151.7,47,151.8,46.5,151.8z M47.2,150.3c0.4,0,0.6-0.1,0.8-0.2
				c0.2-0.2,0.3-0.3,0.4-0.6s0.1-0.5,0.1-0.8c0-0.3,0-0.6-0.1-0.8s-0.2-0.4-0.4-0.6c-0.2-0.1-0.5-0.2-0.8-0.2
				c-0.4,0-0.6,0.1-0.8,0.2c-0.2,0.1-0.3,0.3-0.4,0.6s-0.1,0.5-0.1,0.8s0,0.6,0.1,0.8s0.2,0.4,0.4,0.6
				C46.6,150.2,46.9,150.3,47.2,150.3z"/>
			<path class="st1" d="M56.4,154.5v-1.7h2.5v-2.1h0c0,0,0,0.1-0.1,0.2c-0.1,0.1-0.2,0.2-0.3,0.4c-0.2,0.1-0.4,0.3-0.6,0.4
				c-0.2,0.1-0.6,0.2-0.9,0.2c-0.9,0-1.6-0.3-1.9-0.9s-0.6-1.3-0.6-2.3c0-1,0.2-1.8,0.6-2.3c0.4-0.6,1-0.8,1.9-0.8
				c0.4,0,0.7,0.1,1,0.2c0.2,0.1,0.4,0.3,0.6,0.4s0.2,0.3,0.3,0.4s0.1,0.2,0.1,0.2h0v-1.2h1.9v6.4c0,1-0.2,1.7-0.6,2
				c-0.4,0.4-1,0.6-1.8,0.6H56.4z M57.5,150.3c0.6,0,0.9-0.2,1.1-0.5c0.2-0.3,0.3-0.7,0.3-1.1c0-0.4-0.1-0.8-0.3-1.1
				c-0.2-0.3-0.5-0.5-1.1-0.5c-0.4,0-0.7,0.1-0.9,0.2c-0.2,0.2-0.3,0.4-0.4,0.6c-0.1,0.2-0.1,0.5-0.1,0.8c0,0.3,0,0.5,0.1,0.8
				s0.2,0.4,0.4,0.6C56.8,150.2,57.1,150.3,57.5,150.3z"/>
		</g>
		<g class="st0">
			<path class="st1" d="M61.8,151.6v-6.2h1.7l0.1,1.7c0.1-0.3,0.2-0.5,0.3-0.8c0.2-0.3,0.4-0.5,0.7-0.7c0.3-0.2,0.7-0.3,1.2-0.3h0.2
				v2H66c-0.8,0-1.4,0.1-1.8,0.3s-0.6,0.6-0.6,1.3v2.6H61.8z"/>
		</g>
		<g class="st0">
			<path class="st1" d="M70.1,151.8c-0.7,0-1.3-0.1-1.8-0.4c-0.5-0.3-0.8-0.6-1.1-1.1c-0.2-0.5-0.4-1-0.4-1.6c0-0.9,0.2-1.7,0.8-2.3
				s1.3-0.9,2.4-0.9c1,0,1.8,0.3,2.4,0.9s0.8,1.4,0.8,2.3c0,0.6-0.1,1.1-0.3,1.6s-0.6,0.9-1,1.1C71.4,151.6,70.8,151.8,70.1,151.8z
				 M70.1,150.3c0.4,0,0.7-0.1,0.9-0.3s0.3-0.4,0.4-0.7s0.1-0.5,0.1-0.8c0-0.3,0-0.6-0.1-0.8c-0.1-0.3-0.2-0.5-0.4-0.7
				c-0.2-0.2-0.5-0.3-0.9-0.3s-0.7,0.1-0.9,0.3c-0.2,0.2-0.4,0.4-0.4,0.7c-0.1,0.3-0.1,0.5-0.1,0.8c0,0.3,0,0.5,0.1,0.8
				s0.2,0.5,0.4,0.7C69.4,150.2,69.7,150.3,70.1,150.3z"/>
			<path class="st1" d="M76.4,151.8c-0.6,0-1-0.1-1.3-0.3c-0.3-0.2-0.5-0.5-0.6-0.9c-0.1-0.3-0.2-0.7-0.2-1.1s0-0.7,0-1v-3.1H76v3.1
				c0,0.3,0,0.5,0.1,0.8c0,0.2,0.2,0.5,0.3,0.6c0.2,0.2,0.4,0.2,0.8,0.2c0.4,0,0.6-0.1,0.8-0.2s0.3-0.4,0.3-0.6
				c0-0.2,0.1-0.5,0.1-0.8v-3.1h1.9v6.2h-1.6l-0.3-1.1h0c0,0,0,0.1-0.1,0.2s-0.2,0.3-0.3,0.4s-0.4,0.3-0.6,0.4
				C77.1,151.7,76.8,151.8,76.4,151.8z"/>
			<path class="st1" d="M85.4,151.8c-0.4,0-0.7-0.1-0.9-0.2c-0.2-0.1-0.4-0.2-0.6-0.4c-0.1-0.1-0.3-0.3-0.3-0.4s-0.1-0.2-0.1-0.2h0
				v3.8h-1.9v-9h1.6l0.3,1.2h0c0,0,0-0.1,0.1-0.2s0.2-0.3,0.3-0.4s0.3-0.3,0.6-0.4c0.2-0.1,0.6-0.2,1-0.2c0.9,0,1.6,0.3,1.9,0.9
				s0.6,1.4,0.6,2.3c0,1-0.2,1.7-0.6,2.3C86.9,151.5,86.3,151.8,85.4,151.8z M84.8,150.3c0.4,0,0.7-0.1,0.9-0.2
				c0.2-0.2,0.3-0.4,0.4-0.6s0.1-0.5,0.1-0.8c0-0.3,0-0.5-0.1-0.8c-0.1-0.2-0.2-0.4-0.4-0.6c-0.2-0.2-0.5-0.2-0.9-0.2
				c-0.6,0-0.9,0.2-1.1,0.5c-0.2,0.3-0.3,0.7-0.3,1.1c0,0.5,0.1,0.8,0.3,1.1C83.9,150.1,84.2,150.3,84.8,150.3z"/>
			<path class="st1" d="M92.9,151.6l-1.3-5.9v-0.3h1.8l0.8,4.7h0l1.2-4.7H97l1.2,4.7h0l0.8-4.7h1.8v0.3l-1.4,5.9H97l-0.8-3.1h0
				l-0.7,3.1H92.9z"/>
		</g>
		<g class="st0">
			<path class="st1" d="M102.9,144.7c-0.4,0-0.6-0.1-0.7-0.3c-0.1-0.2-0.2-0.4-0.2-0.7c0-0.2,0.1-0.5,0.2-0.6s0.4-0.3,0.7-0.3
				c0.4,0,0.6,0.1,0.7,0.3c0.1,0.2,0.2,0.4,0.2,0.6c0,0.3-0.1,0.5-0.2,0.7C103.5,144.7,103.3,144.7,102.9,144.7z M102,151.6v-6.2
				h1.8v6.2H102z"/>
		</g>
		<g class="st0">
			<path class="st1" d="M107.4,151.6c-0.5,0-1-0.1-1.3-0.4c-0.3-0.3-0.4-0.7-0.4-1.4v-3.2h-0.9v-1.2c0.3,0,0.5,0,0.6-0.1
				s0.3-0.2,0.4-0.4c0.1-0.2,0.1-0.6,0.1-1h1.4v1.6h1.4v1.2h-1.4v3.5h1.4v1.4H107.4z"/>
			<path class="st1" d="M110.1,151.6v-8.4h1.9v3.5h0c0,0,0-0.1,0.1-0.2c0.1-0.1,0.2-0.3,0.3-0.4c0.1-0.2,0.3-0.3,0.6-0.4
				s0.6-0.2,1-0.2c0.4,0,0.8,0.1,1.1,0.2c0.3,0.2,0.5,0.4,0.7,0.6c0.2,0.3,0.3,0.5,0.3,0.8c0.1,0.3,0.1,0.6,0.1,0.8
				c0,0.3,0,0.5,0,0.7v3h-1.8v-3c0-0.3,0-0.5-0.1-0.8c-0.1-0.2-0.2-0.4-0.3-0.6c-0.2-0.2-0.4-0.2-0.8-0.2c-0.4,0-0.6,0.1-0.8,0.2
				c-0.2,0.2-0.3,0.4-0.3,0.6c0,0.2-0.1,0.5-0.1,0.8v3H110.1z"/>
		</g>
		<g class="st0">
			<path class="st1" d="M2.4,172.5v-1.7h2.5v-2.1h0c0,0,0,0.1-0.1,0.2c-0.1,0.1-0.2,0.2-0.3,0.4c-0.2,0.1-0.4,0.3-0.6,0.4
				c-0.2,0.1-0.6,0.2-0.9,0.2c-0.9,0-1.6-0.3-1.9-0.9s-0.6-1.3-0.6-2.3c0-1,0.2-1.8,0.6-2.3c0.4-0.6,1-0.8,1.9-0.8
				c0.4,0,0.7,0.1,1,0.2c0.2,0.1,0.4,0.3,0.6,0.4s0.2,0.3,0.3,0.4s0.1,0.2,0.1,0.2h0v-1.2h1.9v6.4c0,1-0.2,1.7-0.6,2
				c-0.4,0.4-1,0.6-1.8,0.6H2.4z M3.5,168.3c0.6,0,0.9-0.2,1.1-0.5c0.2-0.3,0.3-0.7,0.3-1.1c0-0.4-0.1-0.8-0.3-1.1
				c-0.2-0.3-0.5-0.5-1.1-0.5c-0.4,0-0.7,0.1-0.9,0.2c-0.2,0.2-0.3,0.4-0.4,0.6c-0.1,0.2-0.1,0.5-0.1,0.8c0,0.3,0,0.5,0.1,0.8
				s0.2,0.4,0.4,0.6C2.8,168.2,3.1,168.3,3.5,168.3z"/>
		</g>
		<g class="st0">
			<path class="st1" d="M7.9,169.6v-6.2h1.7l0.1,1.7c0.1-0.3,0.2-0.5,0.3-0.8c0.2-0.3,0.4-0.5,0.7-0.7c0.3-0.2,0.7-0.3,1.2-0.3h0.2
				v2H12c-0.8,0-1.4,0.1-1.8,0.3s-0.6,0.6-0.6,1.3v2.6H7.9z"/>
		</g>
		<g class="st0">
			<path class="st1" d="M16.1,169.8c-0.7,0-1.3-0.2-1.8-0.5c-0.5-0.3-0.8-0.7-1-1.2c-0.2-0.5-0.3-1-0.3-1.5c0-0.7,0.1-1.2,0.4-1.7
				c0.2-0.5,0.6-0.9,1.1-1.1c0.5-0.3,1-0.4,1.6-0.4c0.6,0,1.1,0.1,1.5,0.4c0.4,0.2,0.8,0.6,1.1,1c0.3,0.4,0.4,1,0.4,1.6
				c0,0,0,0.1,0,0.2s0,0.2,0,0.2h-4.3c0,0.5,0.1,0.9,0.4,1.1c0.2,0.2,0.6,0.4,1,0.4c0.3,0,0.6-0.1,0.8-0.2c0.2-0.2,0.3-0.4,0.4-0.6
				H19c-0.1,0.6-0.3,1.2-0.8,1.7C17.7,169.5,17,169.8,16.1,169.8z M14.7,166h2.5c0,0,0-0.1,0-0.2c0-0.1-0.1-0.2-0.2-0.4
				c-0.1-0.1-0.2-0.3-0.4-0.4c-0.2-0.1-0.4-0.1-0.7-0.1c-0.4,0-0.7,0.1-0.8,0.2c-0.2,0.2-0.3,0.3-0.3,0.5
				C14.8,165.8,14.7,165.9,14.7,166z"/>
			<path class="st1" d="M22.3,169.8c-0.9,0-1.4-0.3-1.8-0.9c-0.3-0.6-0.5-1.3-0.5-2.3c0-1,0.2-1.7,0.5-2.3c0.3-0.6,0.9-0.9,1.8-0.9
				c0.4,0,0.7,0.1,0.9,0.2c0.2,0.1,0.5,0.2,0.6,0.4c0.1,0.2,0.3,0.3,0.3,0.4s0.1,0.2,0.1,0.2h0v-1.2h1.9v6.2h-1.6l-0.3-0.9h0
				c0,0-0.1,0.2-0.2,0.3c-0.1,0.2-0.3,0.3-0.6,0.5C23.1,169.7,22.8,169.8,22.3,169.8z M23,168.3c0.4,0,0.6-0.1,0.8-0.2
				c0.2-0.2,0.3-0.3,0.4-0.6s0.1-0.5,0.1-0.8c0-0.3,0-0.6-0.1-0.8s-0.2-0.4-0.4-0.6c-0.2-0.1-0.5-0.2-0.8-0.2
				c-0.4,0-0.6,0.1-0.8,0.2c-0.2,0.1-0.3,0.3-0.4,0.6s-0.1,0.5-0.1,0.8s0,0.6,0.1,0.8s0.2,0.4,0.4,0.6
				C22.4,168.2,22.6,168.3,23,168.3z"/>
		</g>
		<g class="st0">
			<path class="st1" d="M29.4,169.6c-0.5,0-1-0.1-1.3-0.4c-0.3-0.3-0.4-0.7-0.4-1.4v-3.2h-0.9v-1.2c0.3,0,0.5,0,0.6-0.1
				s0.3-0.2,0.4-0.4c0.1-0.2,0.1-0.6,0.1-1h1.4v1.6h1.4v1.2h-1.4v3.5h1.4v1.4H29.4z"/>
		</g>
		<g class="st0">
			<path class="st1" d="M34.9,169.8c-0.7,0-1.3-0.2-1.8-0.5c-0.5-0.3-0.8-0.7-1-1.2c-0.2-0.5-0.3-1-0.3-1.5c0-0.7,0.1-1.2,0.4-1.7
				c0.2-0.5,0.6-0.9,1.1-1.1c0.5-0.3,1-0.4,1.6-0.4c0.6,0,1.1,0.1,1.5,0.4c0.4,0.2,0.8,0.6,1.1,1c0.3,0.4,0.4,1,0.4,1.6
				c0,0,0,0.1,0,0.2s0,0.2,0,0.2h-4.3c0,0.5,0.1,0.9,0.4,1.1c0.2,0.2,0.6,0.4,1,0.4c0.3,0,0.6-0.1,0.8-0.2c0.2-0.2,0.3-0.4,0.4-0.6
				h1.8c-0.1,0.6-0.3,1.2-0.8,1.7C36.5,169.5,35.8,169.8,34.9,169.8z M33.5,166H36c0,0,0-0.1,0-0.2c0-0.1-0.1-0.2-0.2-0.4
				c-0.1-0.1-0.2-0.3-0.4-0.4c-0.2-0.1-0.4-0.1-0.7-0.1c-0.4,0-0.7,0.1-0.8,0.2c-0.2,0.2-0.3,0.3-0.3,0.5
				C33.5,165.8,33.5,165.9,33.5,166z"/>
			<path class="st1" d="M39,169.6v-6.2h1.7l0.1,1.7c0.1-0.3,0.2-0.5,0.3-0.8c0.2-0.3,0.4-0.5,0.7-0.7c0.3-0.2,0.7-0.3,1.2-0.3h0.2v2
				h-0.2c-0.8,0-1.4,0.1-1.8,0.3s-0.6,0.6-0.6,1.3v2.6H39z"/>
			<path class="st1" d="M51.4,169.8c-0.4,0-0.7-0.1-0.9-0.2c-0.2-0.1-0.4-0.2-0.6-0.4c-0.1-0.1-0.3-0.3-0.3-0.4s-0.1-0.2-0.1-0.2h0
				v3.8h-1.9v-9h1.6l0.3,1.2h0c0,0,0-0.1,0.1-0.2s0.2-0.3,0.3-0.4s0.3-0.3,0.6-0.4c0.2-0.1,0.6-0.2,1-0.2c0.9,0,1.6,0.3,1.9,0.9
				s0.6,1.4,0.6,2.3c0,1-0.2,1.7-0.6,2.3C53,169.5,52.4,169.8,51.4,169.8z M50.9,168.3c0.4,0,0.7-0.1,0.9-0.2
				c0.2-0.2,0.3-0.4,0.4-0.6s0.1-0.5,0.1-0.8c0-0.3,0-0.5-0.1-0.8c-0.1-0.2-0.2-0.4-0.4-0.6c-0.2-0.2-0.5-0.2-0.9-0.2
				c-0.6,0-0.9,0.2-1.1,0.5c-0.2,0.3-0.3,0.7-0.3,1.1c0,0.5,0.1,0.8,0.3,1.1C49.9,168.1,50.3,168.3,50.9,168.3z"/>
			<path class="st1" d="M57.9,169.8c-0.7,0-1.3-0.1-1.8-0.4c-0.5-0.3-0.8-0.6-1.1-1.1c-0.2-0.5-0.4-1-0.4-1.6c0-0.9,0.2-1.7,0.8-2.3
				s1.3-0.9,2.4-0.9c1,0,1.8,0.3,2.4,0.9s0.8,1.4,0.8,2.3c0,0.6-0.1,1.1-0.3,1.6s-0.6,0.9-1,1.1C59.2,169.6,58.6,169.8,57.9,169.8z
				 M57.9,168.3c0.4,0,0.7-0.1,0.9-0.3s0.3-0.4,0.4-0.7s0.1-0.5,0.1-0.8c0-0.3,0-0.6-0.1-0.8c-0.1-0.3-0.2-0.5-0.4-0.7
				c-0.2-0.2-0.5-0.3-0.9-0.3s-0.7,0.1-0.9,0.3c-0.2,0.2-0.4,0.4-0.4,0.7c-0.1,0.3-0.1,0.5-0.1,0.8c0,0.3,0,0.5,0.1,0.8
				s0.2,0.5,0.4,0.7C57.2,168.2,57.5,168.3,57.9,168.3z"/>
			<path class="st1" d="M62.3,169.6v-8.4h1.8v8.4H62.3z"/>
		</g>
		<g class="st0">
			<path class="st1" d="M66.4,162.7c-0.4,0-0.6-0.1-0.7-0.3c-0.1-0.2-0.2-0.4-0.2-0.7c0-0.2,0.1-0.5,0.2-0.6s0.4-0.3,0.7-0.3
				c0.4,0,0.6,0.1,0.7,0.3c0.1,0.2,0.2,0.4,0.2,0.6c0,0.3-0.1,0.5-0.2,0.7C67,162.7,66.8,162.7,66.4,162.7z M65.5,169.6v-6.2h1.8
				v6.2H65.5z"/>
		</g>
		<g class="st0">
			<path class="st1" d="M70.9,169.6c-0.5,0-1-0.1-1.3-0.4c-0.3-0.3-0.4-0.7-0.4-1.4v-3.2h-0.9v-1.2c0.3,0,0.5,0,0.6-0.1
				s0.3-0.2,0.4-0.4c0.1-0.2,0.1-0.6,0.1-1h1.4v1.6h1.4v1.2h-1.4v3.5h1.4v1.4H70.9z"/>
			<path class="st1" d="M74.6,162.7c-0.4,0-0.6-0.1-0.7-0.3c-0.1-0.2-0.2-0.4-0.2-0.7c0-0.2,0.1-0.5,0.2-0.6s0.4-0.3,0.7-0.3
				c0.4,0,0.6,0.1,0.7,0.3c0.1,0.2,0.2,0.4,0.2,0.6c0,0.3-0.1,0.5-0.2,0.7C75.2,162.7,75,162.7,74.6,162.7z M73.7,169.6v-6.2h1.8
				v6.2H73.7z"/>
			<path class="st1" d="M79.9,169.8c-0.6,0-1.1-0.1-1.6-0.4c-0.5-0.2-0.9-0.6-1.2-1.1c-0.3-0.5-0.4-1-0.4-1.7c0-0.7,0.2-1.2,0.4-1.7
				c0.3-0.5,0.7-0.9,1.1-1.1s1-0.4,1.6-0.4c0.7,0,1.2,0.1,1.7,0.4c0.5,0.2,0.8,0.6,1,1c0.2,0.4,0.4,0.8,0.4,1.2h-1.6
				c-0.1-0.7-0.6-1-1.4-1c-0.5,0-0.9,0.1-1.1,0.4s-0.4,0.7-0.4,1.1c0,0.5,0.1,1,0.4,1.3c0.2,0.3,0.6,0.5,1.2,0.5
				c0.3,0,0.6-0.1,0.9-0.3c0.2-0.2,0.4-0.4,0.5-0.8H83c0,0.4-0.1,0.8-0.4,1.3c-0.2,0.4-0.6,0.7-1,1S80.5,169.8,79.9,169.8z"/>
			<path class="st1" d="M86.1,169.8c-0.9,0-1.4-0.3-1.8-0.9c-0.3-0.6-0.5-1.3-0.5-2.3c0-1,0.2-1.7,0.5-2.3c0.3-0.6,0.9-0.9,1.8-0.9
				c0.4,0,0.7,0.1,0.9,0.2c0.2,0.1,0.5,0.2,0.6,0.4c0.1,0.2,0.3,0.3,0.3,0.4s0.1,0.2,0.1,0.2h0v-1.2H90v6.2h-1.6l-0.3-0.9h0
				c0,0-0.1,0.2-0.2,0.3c-0.1,0.2-0.3,0.3-0.6,0.5C87,169.7,86.6,169.8,86.1,169.8z M86.8,168.3c0.4,0,0.6-0.1,0.8-0.2
				c0.2-0.2,0.3-0.3,0.4-0.6s0.1-0.5,0.1-0.8c0-0.3,0-0.6-0.1-0.8s-0.2-0.4-0.4-0.6c-0.2-0.1-0.5-0.2-0.8-0.2
				c-0.4,0-0.6,0.1-0.8,0.2c-0.2,0.1-0.3,0.3-0.4,0.6s-0.1,0.5-0.1,0.8s0,0.6,0.1,0.8s0.2,0.4,0.4,0.6
				C86.2,168.2,86.5,168.3,86.8,168.3z"/>
			<path class="st1" d="M91.2,169.6v-8.4h1.8v8.4H91.2z"/>
		</g>
		<g class="st0">
			<path class="st1" d="M2.6,187.8c-0.9,0-1.4-0.3-1.8-0.9c-0.3-0.6-0.5-1.3-0.5-2.3c0-1,0.2-1.7,0.5-2.3c0.3-0.6,0.9-0.9,1.8-0.9
				c0.4,0,0.7,0.1,0.9,0.2c0.2,0.1,0.5,0.2,0.6,0.4c0.1,0.2,0.3,0.3,0.3,0.4s0.1,0.2,0.1,0.2h0v-1.2h1.9v6.2H5l-0.3-0.9h0
				c0,0-0.1,0.2-0.2,0.3c-0.1,0.2-0.3,0.3-0.6,0.5C3.5,187.7,3.1,187.8,2.6,187.8z M3.4,186.3c0.4,0,0.6-0.1,0.8-0.2
				c0.2-0.2,0.3-0.3,0.4-0.6s0.1-0.5,0.1-0.8c0-0.3,0-0.6-0.1-0.8s-0.2-0.4-0.4-0.6C4,183.1,3.8,183,3.4,183c-0.4,0-0.6,0.1-0.8,0.2
				c-0.2,0.1-0.3,0.3-0.4,0.6s-0.1,0.5-0.1,0.8s0,0.6,0.1,0.8s0.2,0.4,0.4,0.6C2.8,186.2,3,186.3,3.4,186.3z"/>
			<path class="st1" d="M7.5,187.6v-6.2h1.6l0.3,1.2h0c0,0,0-0.1,0.1-0.2s0.2-0.3,0.3-0.4c0.1-0.2,0.3-0.3,0.6-0.4
				c0.3-0.1,0.6-0.2,1-0.2c0.6,0,1,0.1,1.3,0.3c0.3,0.2,0.5,0.5,0.6,0.9s0.2,0.7,0.2,1.1s0,0.7,0,0.9v3h-1.8v-3c0-0.3,0-0.5-0.1-0.8
				c0-0.2-0.2-0.4-0.3-0.6S11,183,10.6,183c-0.4,0-0.6,0.1-0.8,0.2c-0.2,0.2-0.3,0.4-0.3,0.6c-0.1,0.2-0.1,0.5-0.1,0.8v3H7.5z"/>
			<path class="st1" d="M17.2,187.8c-0.9,0-1.6-0.3-1.9-0.8c-0.4-0.6-0.5-1.3-0.5-2.3c0-1,0.2-1.8,0.6-2.4c0.4-0.6,1-0.9,1.9-0.9
				c0.4,0,0.7,0.1,1,0.2s0.5,0.3,0.6,0.4s0.3,0.3,0.3,0.4s0.1,0.2,0.1,0.2h0v-3.5h1.9v8.4h-1.6l-0.3-1h0c0,0,0,0.1-0.1,0.2
				c-0.1,0.1-0.2,0.2-0.3,0.4c-0.2,0.1-0.4,0.3-0.6,0.4C17.9,187.7,17.6,187.8,17.2,187.8z M17.9,186.3c0.5,0,0.9-0.2,1.1-0.5
				c0.2-0.3,0.3-0.7,0.3-1.1c0-0.4-0.1-0.8-0.3-1.1c-0.2-0.3-0.5-0.5-1.1-0.5c-0.4,0-0.7,0.1-0.9,0.2s-0.3,0.4-0.4,0.6
				c-0.1,0.2-0.1,0.5-0.1,0.8c0,0.3,0,0.5,0.1,0.8s0.2,0.4,0.4,0.6C17.2,186.2,17.5,186.3,17.9,186.3z"/>
			<path class="st1" d="M25.5,187.6v-6.2h1.6l0,1.2h0c0,0,0-0.1,0.1-0.2c0.1-0.1,0.2-0.3,0.3-0.4c0.1-0.2,0.3-0.3,0.5-0.4
				c0.2-0.1,0.5-0.2,0.8-0.2c0.5,0,0.8,0.1,1.1,0.4c0.2,0.2,0.4,0.5,0.5,0.9h0c0,0,0-0.1,0.1-0.2c0.1-0.1,0.2-0.3,0.3-0.4
				c0.2-0.2,0.3-0.3,0.6-0.4c0.2-0.1,0.5-0.2,0.9-0.2c0.4,0,0.7,0.1,0.9,0.2c0.2,0.2,0.4,0.4,0.6,0.6c0.1,0.3,0.2,0.5,0.3,0.8
				c0,0.3,0.1,0.6,0.1,0.8c0,0.3,0,0.5,0,0.7v3h-1.5v-3c0-0.2,0-0.4,0-0.7c0-0.2-0.1-0.5-0.3-0.7c-0.1-0.2-0.4-0.3-0.7-0.3
				c-0.3,0-0.6,0.1-0.7,0.2s-0.2,0.4-0.3,0.6s-0.1,0.5-0.1,0.8v3h-1.5v-3c0-0.2,0-0.4,0-0.7c0-0.2-0.1-0.5-0.3-0.7
				c-0.1-0.2-0.4-0.3-0.7-0.3c-0.3,0-0.6,0.1-0.7,0.2s-0.2,0.4-0.3,0.6s-0.1,0.5-0.1,0.8v3H25.5z"/>
			<path class="st1" d="M36.6,180.7c-0.4,0-0.6-0.1-0.7-0.3c-0.1-0.2-0.2-0.4-0.2-0.7c0-0.2,0.1-0.5,0.2-0.6s0.4-0.3,0.7-0.3
				c0.4,0,0.6,0.1,0.7,0.3c0.1,0.2,0.2,0.4,0.2,0.6c0,0.3-0.1,0.5-0.2,0.7C37.2,180.7,36.9,180.7,36.6,180.7z M35.7,187.6v-6.2h1.8
				v6.2H35.7z"/>
			<path class="st1" d="M38.9,187.6v-8.4h1.8v8.4H38.9z"/>
		</g>
		<g class="st0">
			<path class="st1" d="M43.1,180.7c-0.4,0-0.6-0.1-0.7-0.3c-0.1-0.2-0.2-0.4-0.2-0.7c0-0.2,0.1-0.5,0.2-0.6s0.4-0.3,0.7-0.3
				c0.4,0,0.6,0.1,0.7,0.3c0.1,0.2,0.2,0.4,0.2,0.6c0,0.3-0.1,0.5-0.2,0.7C43.7,180.7,43.4,180.7,43.1,180.7z M42.2,187.6v-6.2H44
				v6.2H42.2z"/>
		</g>
		<g class="st0">
			<path class="st1" d="M47.6,187.6c-0.5,0-1-0.1-1.3-0.4c-0.3-0.3-0.4-0.7-0.4-1.4v-3.2H45v-1.2c0.3,0,0.5,0,0.6-0.1
				s0.3-0.2,0.4-0.4c0.1-0.2,0.1-0.6,0.1-1h1.4v1.6H49v1.2h-1.4v3.5H49v1.4H47.6z"/>
			<path class="st1" d="M52.2,187.8c-0.9,0-1.4-0.3-1.8-0.9c-0.3-0.6-0.5-1.3-0.5-2.3c0-1,0.2-1.7,0.5-2.3c0.3-0.6,0.9-0.9,1.8-0.9
				c0.4,0,0.7,0.1,0.9,0.2c0.2,0.1,0.5,0.2,0.6,0.4c0.1,0.2,0.3,0.3,0.3,0.4s0.1,0.2,0.1,0.2h0v-1.2h1.9v6.2h-1.6l-0.3-0.9h0
				c0,0-0.1,0.2-0.2,0.3c-0.1,0.2-0.3,0.3-0.6,0.5C53.1,187.7,52.7,187.8,52.2,187.8z M53,186.3c0.4,0,0.6-0.1,0.8-0.2
				c0.2-0.2,0.3-0.3,0.4-0.6s0.1-0.5,0.1-0.8c0-0.3,0-0.6-0.1-0.8s-0.2-0.4-0.4-0.6c-0.2-0.1-0.5-0.2-0.8-0.2
				c-0.4,0-0.6,0.1-0.8,0.2c-0.2,0.1-0.3,0.3-0.4,0.6s-0.1,0.5-0.1,0.8s0,0.6,0.1,0.8s0.2,0.4,0.4,0.6
				C52.3,186.2,52.6,186.3,53,186.3z"/>
		</g>
		<g class="st0">
			<path class="st1" d="M57.1,187.6v-6.2h1.7l0.1,1.7c0.1-0.3,0.2-0.5,0.3-0.8c0.2-0.3,0.4-0.5,0.7-0.7c0.3-0.2,0.7-0.3,1.2-0.3h0.2
				v2h-0.2c-0.8,0-1.4,0.1-1.8,0.3s-0.6,0.6-0.6,1.3v2.6H57.1z"/>
		</g>
		<g class="st0">
			<path class="st1" d="M62.1,190.6v-1.4h1c0.1,0,0.3,0,0.4,0c0.1,0,0.2-0.1,0.4-0.2c0.1-0.1,0.2-0.3,0.4-0.6l0.3-0.7l-2.4-6.2h1.9
				l1.4,4.3l1.5-4.3h1.9l-2.9,7c-0.3,0.6-0.5,1.1-0.7,1.4c-0.2,0.3-0.5,0.5-0.7,0.6s-0.6,0.1-1.1,0.1H62.1z"/>
			<path class="st1" d="M73.1,187.6v-4.9h-0.8v-1.2h0.8v-0.9c0-0.6,0.1-1.1,0.5-1.3c0.3-0.3,0.7-0.4,1.3-0.4h1.5v1.4h-1.4v1.2h1.4
				v1.2h-1.4v4.9H73.1z"/>
			<path class="st1" d="M80.1,187.8c-0.7,0-1.3-0.1-1.8-0.4c-0.5-0.3-0.8-0.6-1.1-1.1c-0.2-0.5-0.4-1-0.4-1.6c0-0.9,0.2-1.7,0.8-2.3
				s1.3-0.9,2.4-0.9c1,0,1.8,0.3,2.4,0.9s0.8,1.4,0.8,2.3c0,0.6-0.1,1.1-0.3,1.6s-0.6,0.9-1,1.1C81.4,187.6,80.8,187.8,80.1,187.8z
				 M80.1,186.3c0.4,0,0.7-0.1,0.9-0.3s0.3-0.4,0.4-0.7s0.1-0.5,0.1-0.8c0-0.3,0-0.6-0.1-0.8c-0.1-0.3-0.2-0.5-0.4-0.7
				c-0.2-0.2-0.5-0.3-0.9-0.3s-0.7,0.1-0.9,0.3c-0.2,0.2-0.4,0.4-0.4,0.7c-0.1,0.3-0.1,0.5-0.1,0.8c0,0.3,0,0.5,0.1,0.8
				s0.2,0.5,0.4,0.7C79.3,186.2,79.7,186.3,80.1,186.3z"/>
		</g>
		<g class="st0">
			<path class="st1" d="M84.3,187.6v-6.2H86l0.1,1.7c0.1-0.3,0.2-0.5,0.3-0.8c0.2-0.3,0.4-0.5,0.7-0.7s0.7-0.3,1.2-0.3h0.2v2h-0.2
				c-0.8,0-1.4,0.1-1.8,0.3s-0.6,0.6-0.6,1.3v2.6H84.3z"/>
		</g>
		<g class="st0">
			<path class="st1" d="M92.6,187.8c-0.6,0-1.1-0.1-1.6-0.4c-0.5-0.2-0.9-0.6-1.2-1.1c-0.3-0.5-0.4-1-0.4-1.7c0-0.7,0.2-1.2,0.4-1.7
				c0.3-0.5,0.7-0.9,1.1-1.1s1-0.4,1.6-0.4c0.7,0,1.2,0.1,1.7,0.4c0.5,0.2,0.8,0.6,1,1c0.2,0.4,0.4,0.8,0.4,1.2h-1.6
				c-0.1-0.7-0.6-1-1.4-1c-0.5,0-0.9,0.1-1.1,0.4s-0.4,0.7-0.4,1.1c0,0.5,0.1,1,0.4,1.3c0.2,0.3,0.6,0.5,1.2,0.5
				c0.3,0,0.6-0.1,0.9-0.3c0.2-0.2,0.4-0.4,0.5-0.8h1.6c0,0.4-0.1,0.8-0.4,1.3c-0.2,0.4-0.6,0.7-1,1S93.3,187.8,92.6,187.8z"/>
			<path class="st1" d="M99.7,187.8c-0.7,0-1.3-0.2-1.8-0.5c-0.5-0.3-0.8-0.7-1-1.2c-0.2-0.5-0.3-1-0.3-1.5c0-0.7,0.1-1.2,0.4-1.7
				c0.2-0.5,0.6-0.9,1.1-1.1c0.5-0.3,1-0.4,1.6-0.4c0.6,0,1.1,0.1,1.5,0.4c0.4,0.2,0.8,0.6,1.1,1c0.3,0.4,0.4,1,0.4,1.6
				c0,0,0,0.1,0,0.2s0,0.2,0,0.2h-4.3c0,0.5,0.1,0.9,0.4,1.1c0.2,0.2,0.6,0.4,1,0.4c0.3,0,0.6-0.1,0.8-0.2c0.2-0.2,0.3-0.4,0.4-0.6
				h1.8c-0.1,0.6-0.3,1.2-0.8,1.7C101.3,187.5,100.6,187.8,99.7,187.8z M98.3,184h2.5c0,0,0-0.1,0-0.2c0-0.1-0.1-0.2-0.2-0.4
				c-0.1-0.1-0.2-0.3-0.4-0.4c-0.2-0.1-0.4-0.1-0.7-0.1c-0.4,0-0.7,0.1-0.8,0.2c-0.2,0.2-0.3,0.3-0.3,0.5
				C98.4,183.8,98.3,183.9,98.3,184z"/>
			<path class="st1" d="M108.1,180.7c-0.4,0-0.6-0.1-0.7-0.3c-0.1-0.2-0.2-0.4-0.2-0.7c0-0.2,0.1-0.5,0.2-0.6s0.4-0.3,0.7-0.3
				c0.4,0,0.6,0.1,0.7,0.3c0.1,0.2,0.2,0.4,0.2,0.6c0,0.3-0.1,0.5-0.2,0.7C108.7,180.7,108.4,180.7,108.1,180.7z M107.2,187.6v-6.2
				h1.8v6.2H107.2z"/>
			<path class="st1" d="M110.3,187.6v-6.2h1.6l0.3,1.2h0c0,0,0-0.1,0.1-0.2s0.2-0.3,0.3-0.4c0.1-0.2,0.3-0.3,0.6-0.4
				c0.3-0.1,0.6-0.2,1-0.2c0.6,0,1,0.1,1.3,0.3c0.3,0.2,0.5,0.5,0.6,0.9s0.2,0.7,0.2,1.1s0,0.7,0,0.9v3h-1.8v-3c0-0.3,0-0.5-0.1-0.8
				c0-0.2-0.2-0.4-0.3-0.6s-0.4-0.2-0.8-0.2c-0.4,0-0.6,0.1-0.8,0.2c-0.2,0.2-0.3,0.4-0.3,0.6c-0.1,0.2-0.1,0.5-0.1,0.8v3H110.3z"/>
		</g>
		<g class="st0">
			<path class="st1" d="M2.8,205.6c-0.5,0-1-0.1-1.3-0.4c-0.3-0.3-0.4-0.7-0.4-1.4v-3.2H0.2v-1.2c0.3,0,0.5,0,0.6-0.1
				s0.3-0.2,0.4-0.4c0.1-0.2,0.1-0.6,0.1-1h1.4v1.6h1.4v1.2H2.8v3.5h1.4v1.4H2.8z"/>
			<path class="st1" d="M5.5,205.6v-8.4h1.9v3.5h0c0,0,0-0.1,0.1-0.2c0.1-0.1,0.2-0.3,0.3-0.4c0.1-0.2,0.3-0.3,0.6-0.4
				s0.6-0.2,1-0.2c0.4,0,0.8,0.1,1.1,0.2c0.3,0.2,0.5,0.4,0.7,0.6c0.2,0.3,0.3,0.5,0.3,0.8c0.1,0.3,0.1,0.6,0.1,0.8
				c0,0.3,0,0.5,0,0.7v3H9.8v-3c0-0.3,0-0.5-0.1-0.8c-0.1-0.2-0.2-0.4-0.3-0.6c-0.2-0.2-0.4-0.2-0.8-0.2c-0.4,0-0.6,0.1-0.8,0.2
				c-0.2,0.2-0.3,0.4-0.3,0.6c0,0.2-0.1,0.5-0.1,0.8v3H5.5z"/>
			<path class="st1" d="M15.7,205.8c-0.7,0-1.3-0.2-1.8-0.5c-0.5-0.3-0.8-0.7-1-1.2c-0.2-0.5-0.3-1-0.3-1.5c0-0.7,0.1-1.2,0.4-1.7
				c0.2-0.5,0.6-0.9,1.1-1.1c0.5-0.3,1-0.4,1.6-0.4c0.6,0,1.1,0.1,1.5,0.4c0.4,0.2,0.8,0.6,1.1,1c0.3,0.4,0.4,1,0.4,1.6
				c0,0,0,0.1,0,0.2s0,0.2,0,0.2h-4.3c0,0.5,0.1,0.9,0.4,1.1c0.2,0.2,0.6,0.4,1,0.4c0.3,0,0.6-0.1,0.8-0.2c0.2-0.2,0.3-0.4,0.4-0.6
				h1.8c-0.1,0.6-0.3,1.2-0.8,1.7C17.3,205.5,16.6,205.8,15.7,205.8z M14.3,202h2.5c0,0,0-0.1,0-0.2c0-0.1-0.1-0.2-0.2-0.4
				c-0.1-0.1-0.2-0.3-0.4-0.4c-0.2-0.1-0.4-0.1-0.7-0.1c-0.4,0-0.7,0.1-0.8,0.2c-0.2,0.2-0.3,0.3-0.3,0.5
				C14.3,201.8,14.3,201.9,14.3,202z"/>
			<path class="st1" d="M25,205.8c-0.9,0-1.4-0.3-1.8-0.9c-0.3-0.6-0.5-1.3-0.5-2.3c0-1,0.2-1.7,0.5-2.3c0.3-0.6,0.9-0.9,1.8-0.9
				c0.4,0,0.7,0.1,0.9,0.2c0.2,0.1,0.5,0.2,0.6,0.4c0.1,0.2,0.3,0.3,0.3,0.4s0.1,0.2,0.1,0.2h0v-1.2h1.9v6.2h-1.6l-0.3-0.9h0
				c0,0-0.1,0.2-0.2,0.3c-0.1,0.2-0.3,0.3-0.6,0.5C25.9,205.7,25.5,205.8,25,205.8z M25.7,204.3c0.4,0,0.6-0.1,0.8-0.2
				c0.2-0.2,0.3-0.3,0.4-0.6s0.1-0.5,0.1-0.8c0-0.3,0-0.6-0.1-0.8s-0.2-0.4-0.4-0.6c-0.2-0.1-0.5-0.2-0.8-0.2
				c-0.4,0-0.6,0.1-0.8,0.2c-0.2,0.1-0.3,0.3-0.4,0.6s-0.1,0.5-0.1,0.8s0,0.6,0.1,0.8s0.2,0.4,0.4,0.6
				C25.1,204.2,25.4,204.3,25.7,204.3z"/>
		</g>
		<g class="st0">
			<path class="st1" d="M29.9,205.6v-6.2h1.7l0.1,1.7c0.1-0.3,0.2-0.5,0.3-0.8c0.2-0.3,0.4-0.5,0.7-0.7c0.3-0.2,0.7-0.3,1.2-0.3h0.2
				v2h-0.2c-0.8,0-1.4,0.1-1.8,0.3s-0.6,0.6-0.6,1.3v2.6H29.9z"/>
		</g>
		<g class="st0">
			<path class="st1" d="M38.1,205.8c-0.7,0-1.3-0.2-1.8-0.5c-0.5-0.3-0.8-0.7-1-1.2c-0.2-0.5-0.3-1-0.3-1.5c0-0.7,0.1-1.2,0.4-1.7
				c0.2-0.5,0.6-0.9,1.1-1.1c0.5-0.3,1-0.4,1.6-0.4c0.6,0,1.1,0.1,1.5,0.4c0.4,0.2,0.8,0.6,1.1,1c0.3,0.4,0.4,1,0.4,1.6
				c0,0,0,0.1,0,0.2s0,0.2,0,0.2h-4.3c0,0.5,0.1,0.9,0.4,1.1c0.2,0.2,0.6,0.4,1,0.4c0.3,0,0.6-0.1,0.8-0.2c0.2-0.2,0.3-0.4,0.4-0.6
				h1.8c-0.1,0.6-0.3,1.2-0.8,1.7C39.7,205.5,39,205.8,38.1,205.8z M36.8,202h2.5c0,0,0-0.1,0-0.2c0-0.1-0.1-0.2-0.2-0.4
				c-0.1-0.1-0.2-0.3-0.4-0.4c-0.2-0.1-0.4-0.1-0.7-0.1c-0.4,0-0.7,0.1-0.8,0.2c-0.2,0.2-0.3,0.3-0.3,0.5
				C36.8,201.8,36.8,201.9,36.8,202z"/>
			<path class="st1" d="M44.3,205.8c-0.9,0-1.4-0.3-1.8-0.9c-0.3-0.6-0.5-1.3-0.5-2.3c0-1,0.2-1.7,0.5-2.3c0.3-0.6,0.9-0.9,1.8-0.9
				c0.4,0,0.7,0.1,0.9,0.2c0.2,0.1,0.5,0.2,0.6,0.4c0.1,0.2,0.3,0.3,0.3,0.4s0.1,0.2,0.1,0.2h0v-1.2h1.9v6.2h-1.6l-0.3-0.9h0
				c0,0-0.1,0.2-0.2,0.3c-0.1,0.2-0.3,0.3-0.6,0.5C45.2,205.7,44.8,205.8,44.3,205.8z M45.1,204.3c0.4,0,0.6-0.1,0.8-0.2
				c0.2-0.2,0.3-0.3,0.4-0.6s0.1-0.5,0.1-0.8c0-0.3,0-0.6-0.1-0.8s-0.2-0.4-0.4-0.6c-0.2-0.1-0.5-0.2-0.8-0.2
				c-0.4,0-0.6,0.1-0.8,0.2c-0.2,0.1-0.3,0.3-0.4,0.6s-0.1,0.5-0.1,0.8s0,0.6,0.1,0.8s0.2,0.4,0.4,0.6
				C44.4,204.2,44.7,204.3,45.1,204.3z"/>
			<path class="st1" d="M50.3,205.6c-0.4,0-0.7-0.1-0.8-0.3s-0.2-0.5-0.2-0.7c0-0.3,0.1-0.5,0.2-0.7c0.1-0.2,0.4-0.3,0.8-0.3
				c0.4,0,0.7,0.1,0.8,0.3s0.2,0.4,0.2,0.7c0,0.3-0.1,0.5-0.2,0.8S50.7,205.6,50.3,205.6z"/>
			<path class="st1" d="M55.4,198.7v-1.5H62v1.5h-2.4v6.9h-1.8v-6.9H55.4z"/>
			<path class="st1" d="M63,205.6v-8.4h1.9v3.5h0c0,0,0-0.1,0.1-0.2c0.1-0.1,0.2-0.3,0.3-0.4c0.1-0.2,0.3-0.3,0.6-0.4s0.6-0.2,1-0.2
				c0.4,0,0.8,0.1,1.1,0.2c0.3,0.2,0.5,0.4,0.7,0.6c0.2,0.3,0.3,0.5,0.3,0.8c0.1,0.3,0.1,0.6,0.1,0.8c0,0.3,0,0.5,0,0.7v3h-1.8v-3
				c0-0.3,0-0.5-0.1-0.8c-0.1-0.2-0.2-0.4-0.3-0.6c-0.2-0.2-0.4-0.2-0.8-0.2c-0.4,0-0.6,0.1-0.8,0.2c-0.2,0.2-0.3,0.4-0.3,0.6
				c0,0.2-0.1,0.5-0.1,0.8v3H63z"/>
			<path class="st1" d="M73.2,205.8c-0.7,0-1.3-0.2-1.8-0.5c-0.5-0.3-0.8-0.7-1-1.2c-0.2-0.5-0.3-1-0.3-1.5c0-0.7,0.1-1.2,0.4-1.7
				c0.2-0.5,0.6-0.9,1.1-1.1c0.5-0.3,1-0.4,1.6-0.4c0.6,0,1.1,0.1,1.5,0.4c0.4,0.2,0.8,0.6,1.1,1c0.3,0.4,0.4,1,0.4,1.6
				c0,0,0,0.1,0,0.2s0,0.2,0,0.2h-4.3c0,0.5,0.1,0.9,0.4,1.1c0.2,0.2,0.6,0.4,1,0.4c0.3,0,0.6-0.1,0.8-0.2c0.2-0.2,0.3-0.4,0.4-0.6
				h1.8c-0.1,0.6-0.3,1.2-0.8,1.7C74.8,205.5,74.1,205.8,73.2,205.8z M71.8,202h2.5c0,0,0-0.1,0-0.2c0-0.1-0.1-0.2-0.2-0.4
				c-0.1-0.1-0.2-0.3-0.4-0.4c-0.2-0.1-0.4-0.1-0.7-0.1c-0.4,0-0.7,0.1-0.8,0.2c-0.2,0.2-0.3,0.3-0.3,0.5
				C71.9,201.8,71.8,201.9,71.8,202z"/>
			<path class="st1" d="M76.7,208.6v-1.4h1c0.1,0,0.3,0,0.4,0c0.1,0,0.2-0.1,0.4-0.2c0.1-0.1,0.2-0.3,0.4-0.6l0.3-0.7l-2.4-6.2h1.9
				l1.4,4.3l1.5-4.3h1.9l-2.9,7c-0.3,0.6-0.5,1.1-0.7,1.4c-0.2,0.3-0.5,0.5-0.7,0.6s-0.6,0.1-1.1,0.1H76.7z"/>
		</g>
		<g class="st0">
			<path class="st1" d="M88.2,205.6l-1.3-5.9v-0.3h1.8l0.8,4.7h0l1.2-4.7h1.6l1.2,4.7h0l0.8-4.7h1.8v0.3l-1.4,5.9h-2.5l-0.8-3.1h0
				l-0.7,3.1H88.2z"/>
		</g>
		<g class="st0">
			<path class="st1" d="M99.8,205.8c-0.7,0-1.3-0.2-1.8-0.5c-0.5-0.3-0.8-0.7-1-1.2c-0.2-0.5-0.3-1-0.3-1.5c0-0.7,0.1-1.2,0.4-1.7
				c0.2-0.5,0.6-0.9,1.1-1.1c0.5-0.3,1-0.4,1.6-0.4c0.6,0,1.1,0.1,1.5,0.4c0.4,0.2,0.8,0.6,1.1,1c0.3,0.4,0.4,1,0.4,1.6
				c0,0,0,0.1,0,0.2s0,0.2,0,0.2h-4.3c0,0.5,0.1,0.9,0.4,1.1c0.2,0.2,0.6,0.4,1,0.4c0.3,0,0.6-0.1,0.8-0.2c0.2-0.2,0.3-0.4,0.4-0.6
				h1.8c-0.1,0.6-0.3,1.2-0.8,1.7C101.4,205.5,100.7,205.8,99.8,205.8z M98.5,202h2.5c0,0,0-0.1,0-0.2c0-0.1-0.1-0.2-0.2-0.4
				c-0.1-0.1-0.2-0.3-0.4-0.4c-0.2-0.1-0.4-0.1-0.7-0.1c-0.4,0-0.7,0.1-0.8,0.2c-0.2,0.2-0.3,0.3-0.3,0.5
				C98.5,201.8,98.5,201.9,98.5,202z"/>
		</g>
		<g class="st0">
			<path class="st1" d="M103.9,205.6v-6.2h1.7l0.1,1.7c0.1-0.3,0.2-0.5,0.3-0.8c0.2-0.3,0.4-0.5,0.7-0.7c0.3-0.2,0.7-0.3,1.2-0.3
				h0.2v2h-0.2c-0.8,0-1.4,0.1-1.8,0.3s-0.6,0.6-0.6,1.3v2.6H103.9z"/>
		</g>
		<g class="st0">
			<path class="st1" d="M112.1,205.8c-0.7,0-1.3-0.2-1.8-0.5c-0.5-0.3-0.8-0.7-1-1.2c-0.2-0.5-0.3-1-0.3-1.5c0-0.7,0.1-1.2,0.4-1.7
				c0.2-0.5,0.6-0.9,1.1-1.1c0.5-0.3,1-0.4,1.6-0.4c0.6,0,1.1,0.1,1.5,0.4c0.4,0.2,0.8,0.6,1.1,1c0.3,0.4,0.4,1,0.4,1.6
				c0,0,0,0.1,0,0.2s0,0.2,0,0.2h-4.3c0,0.5,0.1,0.9,0.4,1.1c0.2,0.2,0.6,0.4,1,0.4c0.3,0,0.6-0.1,0.8-0.2c0.2-0.2,0.3-0.4,0.4-0.6
				h1.8c-0.1,0.6-0.3,1.2-0.8,1.7C113.7,205.5,113,205.8,112.1,205.8z M110.8,202h2.5c0,0,0-0.1,0-0.2c0-0.1-0.1-0.2-0.2-0.4
				c-0.1-0.1-0.2-0.3-0.4-0.4c-0.2-0.1-0.4-0.1-0.7-0.1c-0.4,0-0.7,0.1-0.8,0.2c-0.2,0.2-0.3,0.3-0.3,0.5
				C110.8,201.8,110.8,201.9,110.8,202z"/>
		</g>
		<g class="st0">
			<path class="st1" d="M4.6,223.8c-0.4,0-0.7-0.1-0.9-0.2c-0.2-0.1-0.4-0.2-0.6-0.4c-0.1-0.1-0.3-0.3-0.3-0.4s-0.1-0.2-0.1-0.2h0
				v3.8H0.7v-9h1.6l0.3,1.2h0c0,0,0-0.1,0.1-0.2s0.2-0.3,0.3-0.4s0.3-0.3,0.6-0.4c0.2-0.1,0.6-0.2,1-0.2c0.9,0,1.6,0.3,1.9,0.9
				s0.6,1.4,0.6,2.3c0,1-0.2,1.7-0.6,2.3C6.1,223.5,5.5,223.8,4.6,223.8z M4,222.3c0.4,0,0.7-0.1,0.9-0.2c0.2-0.2,0.3-0.4,0.4-0.6
				s0.1-0.5,0.1-0.8c0-0.3,0-0.5-0.1-0.8c-0.1-0.2-0.2-0.4-0.4-0.6C4.6,219.1,4.4,219,4,219c-0.6,0-0.9,0.2-1.1,0.5
				c-0.2,0.3-0.3,0.7-0.3,1.1c0,0.5,0.1,0.8,0.3,1.1C3.1,222.1,3.4,222.3,4,222.3z"/>
		</g>
		<g class="st0">
			<path class="st1" d="M8.1,223.6v-6.2h1.7l0.1,1.7c0.1-0.3,0.2-0.5,0.3-0.8c0.2-0.3,0.4-0.5,0.7-0.7c0.3-0.2,0.7-0.3,1.2-0.3h0.2
				v2h-0.2c-0.8,0-1.4,0.1-1.8,0.3s-0.6,0.6-0.6,1.3v2.6H8.1z"/>
		</g>
		<g class="st0">
			<path class="st1" d="M16.3,223.8c-0.7,0-1.3-0.2-1.8-0.5c-0.5-0.3-0.8-0.7-1-1.2c-0.2-0.5-0.3-1-0.3-1.5c0-0.7,0.1-1.2,0.4-1.7
				c0.2-0.5,0.6-0.9,1.1-1.1c0.5-0.3,1-0.4,1.6-0.4c0.6,0,1.1,0.1,1.5,0.4c0.4,0.2,0.8,0.6,1.1,1c0.3,0.4,0.4,1,0.4,1.6
				c0,0,0,0.1,0,0.2s0,0.2,0,0.2h-4.3c0,0.5,0.1,0.9,0.4,1.1c0.2,0.2,0.6,0.4,1,0.4c0.3,0,0.6-0.1,0.8-0.2c0.2-0.2,0.3-0.4,0.4-0.6
				h1.8c-0.1,0.6-0.3,1.2-0.8,1.7C17.9,223.5,17.2,223.8,16.3,223.8z M14.9,220h2.5c0,0,0-0.1,0-0.2c0-0.1-0.1-0.2-0.2-0.4
				c-0.1-0.1-0.2-0.3-0.4-0.4c-0.2-0.1-0.4-0.1-0.7-0.1c-0.4,0-0.7,0.1-0.8,0.2c-0.2,0.2-0.3,0.3-0.3,0.5
				C15,219.8,14.9,219.9,14.9,220z"/>
			<path class="st1" d="M23.1,223.8c-0.2,0-0.4,0-0.7-0.1c-0.3-0.1-0.6-0.2-1-0.3c-0.3-0.2-0.6-0.4-0.8-0.7
				c-0.2-0.3-0.3-0.7-0.3-1.2h1.7c0,0,0,0.1,0,0.2c0,0.1,0,0.2,0.1,0.4s0.2,0.2,0.3,0.3c0.2,0.1,0.4,0.1,0.7,0.1
				c0.4,0,0.6-0.1,0.8-0.2s0.2-0.3,0.2-0.4c0-0.2-0.1-0.3-0.3-0.4c-0.2-0.1-0.4-0.2-0.7-0.3c-0.3-0.1-0.6-0.2-0.9-0.3
				c-0.3-0.1-0.6-0.2-0.9-0.4c-0.3-0.1-0.5-0.3-0.7-0.6s-0.3-0.6-0.3-1c0-0.6,0.2-1,0.7-1.3c0.5-0.3,1.1-0.4,1.8-0.4
				c0.5,0,1,0.1,1.5,0.3c0.4,0.2,0.8,0.4,1.1,0.8c0.3,0.4,0.4,0.8,0.4,1.3h-1.7c0-0.3,0-0.5-0.2-0.6c-0.1-0.1-0.3-0.2-0.5-0.3
				c-0.2-0.1-0.4-0.1-0.6-0.1c-0.3,0-0.6,0.1-0.7,0.2c-0.1,0.1-0.2,0.2-0.2,0.4c0,0.2,0.1,0.4,0.3,0.5c0.2,0.1,0.4,0.2,0.7,0.3
				c0.3,0.1,0.6,0.2,0.9,0.3c0.3,0.1,0.6,0.2,0.9,0.3c0.3,0.1,0.5,0.3,0.7,0.6c0.2,0.2,0.3,0.5,0.3,0.9c0,0.6-0.2,1-0.7,1.3
				C24.5,223.6,23.9,223.8,23.1,223.8z"/>
			<path class="st1" d="M29.6,223.8c-0.7,0-1.3-0.2-1.8-0.5c-0.5-0.3-0.8-0.7-1-1.2c-0.2-0.5-0.3-1-0.3-1.5c0-0.7,0.1-1.2,0.4-1.7
				c0.2-0.5,0.6-0.9,1.1-1.1c0.5-0.3,1-0.4,1.6-0.4c0.6,0,1.1,0.1,1.5,0.4c0.4,0.2,0.8,0.6,1.1,1c0.3,0.4,0.4,1,0.4,1.6
				c0,0,0,0.1,0,0.2s0,0.2,0,0.2h-4.3c0,0.5,0.1,0.9,0.4,1.1c0.2,0.2,0.6,0.4,1,0.4c0.3,0,0.6-0.1,0.8-0.2c0.2-0.2,0.3-0.4,0.4-0.6
				h1.8c-0.1,0.6-0.3,1.2-0.8,1.7C31.2,223.5,30.5,223.8,29.6,223.8z M28.3,220h2.5c0,0,0-0.1,0-0.2c0-0.1-0.1-0.2-0.2-0.4
				c-0.1-0.1-0.2-0.3-0.4-0.4c-0.2-0.1-0.4-0.1-0.7-0.1c-0.4,0-0.7,0.1-0.8,0.2c-0.2,0.2-0.3,0.3-0.3,0.5
				C28.3,219.8,28.3,219.9,28.3,220z"/>
			<path class="st1" d="M33.7,223.6v-6.2h1.6l0.3,1.2h0c0,0,0-0.1,0.1-0.2s0.2-0.3,0.3-0.4c0.1-0.2,0.3-0.3,0.6-0.4
				c0.3-0.1,0.6-0.2,1-0.2c0.6,0,1,0.1,1.3,0.3c0.3,0.2,0.5,0.5,0.6,0.9s0.2,0.7,0.2,1.1s0,0.7,0,0.9v3H38v-3c0-0.3,0-0.5-0.1-0.8
				c0-0.2-0.2-0.4-0.3-0.6s-0.4-0.2-0.8-0.2c-0.4,0-0.6,0.1-0.8,0.2c-0.2,0.2-0.3,0.4-0.3,0.6c-0.1,0.2-0.1,0.5-0.1,0.8v3H33.7z"/>
			<path class="st1" d="M43.1,223.6c-0.5,0-1-0.1-1.3-0.4c-0.3-0.3-0.4-0.7-0.4-1.4v-3.2h-0.9v-1.2c0.3,0,0.5,0,0.6-0.1
				s0.3-0.2,0.4-0.4c0.1-0.2,0.1-0.6,0.1-1h1.4v1.6h1.4v1.2h-1.4v3.5h1.4v1.4H43.1z"/>
			<path class="st1" d="M49.9,216.7c-0.4,0-0.6-0.1-0.7-0.3c-0.1-0.2-0.2-0.4-0.2-0.7c0-0.2,0.1-0.5,0.2-0.6s0.4-0.3,0.7-0.3
				c0.4,0,0.6,0.1,0.7,0.3c0.1,0.2,0.2,0.4,0.2,0.6c0,0.3-0.1,0.5-0.2,0.7C50.5,216.7,50.3,216.7,49.9,216.7z M49,223.6v-6.2h1.8
				v6.2H49z"/>
			<path class="st1" d="M52.1,223.6v-6.2h1.6l0.3,1.2h0c0,0,0-0.1,0.1-0.2s0.2-0.3,0.3-0.4c0.1-0.2,0.3-0.3,0.6-0.4
				c0.3-0.1,0.6-0.2,1-0.2c0.6,0,1,0.1,1.3,0.3c0.3,0.2,0.5,0.5,0.6,0.9s0.2,0.7,0.2,1.1s0,0.7,0,0.9v3h-1.8v-3c0-0.3,0-0.5-0.1-0.8
				c0-0.2-0.2-0.4-0.3-0.6s-0.4-0.2-0.8-0.2c-0.4,0-0.6,0.1-0.8,0.2c-0.2,0.2-0.3,0.4-0.3,0.6c-0.1,0.2-0.1,0.5-0.1,0.8v3H52.1z"/>
			<path class="st1" d="M64.7,223.6c-0.5,0-1-0.1-1.3-0.4c-0.3-0.3-0.4-0.7-0.4-1.4v-3.2h-0.9v-1.2c0.3,0,0.5,0,0.6-0.1
				s0.3-0.2,0.4-0.4c0.1-0.2,0.1-0.6,0.1-1h1.4v1.6h1.4v1.2h-1.4v3.5h1.4v1.4H64.7z"/>
			<path class="st1" d="M67.3,223.6v-8.4h1.9v3.5h0c0,0,0-0.1,0.1-0.2c0.1-0.1,0.2-0.3,0.3-0.4c0.1-0.2,0.3-0.3,0.6-0.4
				s0.6-0.2,1-0.2c0.4,0,0.8,0.1,1.1,0.2c0.3,0.2,0.5,0.4,0.7,0.6c0.2,0.3,0.3,0.5,0.3,0.8c0.1,0.3,0.1,0.6,0.1,0.8
				c0,0.3,0,0.5,0,0.7v3h-1.8v-3c0-0.3,0-0.5-0.1-0.8c-0.1-0.2-0.2-0.4-0.3-0.6c-0.2-0.2-0.4-0.2-0.8-0.2c-0.4,0-0.6,0.1-0.8,0.2
				c-0.2,0.2-0.3,0.4-0.3,0.6c0,0.2-0.1,0.5-0.1,0.8v3H67.3z"/>
			<path class="st1" d="M77.5,223.8c-0.7,0-1.3-0.2-1.8-0.5c-0.5-0.3-0.8-0.7-1-1.2c-0.2-0.5-0.3-1-0.3-1.5c0-0.7,0.1-1.2,0.4-1.7
				c0.2-0.5,0.6-0.9,1.1-1.1c0.5-0.3,1-0.4,1.6-0.4c0.6,0,1.1,0.1,1.5,0.4c0.4,0.2,0.8,0.6,1.1,1c0.3,0.4,0.4,1,0.4,1.6
				c0,0,0,0.1,0,0.2s0,0.2,0,0.2h-4.3c0,0.5,0.1,0.9,0.4,1.1c0.2,0.2,0.6,0.4,1,0.4c0.3,0,0.6-0.1,0.8-0.2c0.2-0.2,0.3-0.4,0.4-0.6
				h1.8c-0.1,0.6-0.3,1.2-0.8,1.7C79.1,223.5,78.4,223.8,77.5,223.8z M76.2,220h2.5c0,0,0-0.1,0-0.2c0-0.1-0.1-0.2-0.2-0.4
				c-0.1-0.1-0.2-0.3-0.4-0.4c-0.2-0.1-0.4-0.1-0.7-0.1c-0.4,0-0.7,0.1-0.8,0.2c-0.2,0.2-0.3,0.3-0.3,0.5
				C76.2,219.8,76.2,219.9,76.2,220z"/>
		</g>
		<g class="st0">
			<path class="st1" d="M0.6,241.6v-6.2h1.7l0.1,1.7c0.1-0.3,0.2-0.5,0.3-0.8c0.2-0.3,0.4-0.5,0.7-0.7c0.3-0.2,0.7-0.3,1.2-0.3h0.2
				v2H4.7c-0.8,0-1.4,0.1-1.8,0.3s-0.6,0.6-0.6,1.3v2.6H0.6z"/>
		</g>
		<g class="st0">
			<path class="st1" d="M8.8,241.8c-0.7,0-1.3-0.2-1.8-0.5c-0.5-0.3-0.8-0.7-1-1.2c-0.2-0.5-0.3-1-0.3-1.5c0-0.7,0.1-1.2,0.4-1.7
				c0.2-0.5,0.6-0.9,1.1-1.1c0.5-0.3,1-0.4,1.6-0.4c0.6,0,1.1,0.1,1.5,0.4c0.4,0.2,0.8,0.6,1.1,1c0.3,0.4,0.4,1,0.4,1.6
				c0,0,0,0.1,0,0.2s0,0.2,0,0.2H7.4c0,0.5,0.1,0.9,0.4,1.1c0.2,0.2,0.6,0.4,1,0.4c0.3,0,0.6-0.1,0.8-0.2c0.2-0.2,0.3-0.4,0.4-0.6
				h1.8c-0.1,0.6-0.3,1.2-0.8,1.7C10.4,241.5,9.7,241.8,8.8,241.8z M7.4,238h2.5c0,0,0-0.1,0-0.2c0-0.1-0.1-0.2-0.2-0.4
				c-0.1-0.1-0.2-0.3-0.4-0.4c-0.2-0.1-0.4-0.1-0.7-0.1c-0.4,0-0.7,0.1-0.8,0.2c-0.2,0.2-0.3,0.3-0.3,0.5
				C7.5,237.8,7.4,237.9,7.4,238z"/>
			<path class="st1" d="M14.7,244.5v-1.7h2.5v-2.1h0c0,0,0,0.1-0.1,0.2c-0.1,0.1-0.2,0.2-0.3,0.4c-0.2,0.1-0.4,0.3-0.6,0.4
				c-0.2,0.1-0.6,0.2-0.9,0.2c-0.9,0-1.6-0.3-1.9-0.9s-0.6-1.3-0.6-2.3c0-1,0.2-1.8,0.6-2.3c0.4-0.6,1-0.8,1.9-0.8
				c0.4,0,0.7,0.1,1,0.2c0.2,0.1,0.4,0.3,0.6,0.4s0.2,0.3,0.3,0.4s0.1,0.2,0.1,0.2h0v-1.2h1.9v6.4c0,1-0.2,1.7-0.6,2
				c-0.4,0.4-1,0.6-1.8,0.6H14.7z M15.8,240.3c0.6,0,0.9-0.2,1.1-0.5c0.2-0.3,0.3-0.7,0.3-1.1c0-0.4-0.1-0.8-0.3-1.1
				c-0.2-0.3-0.5-0.5-1.1-0.5c-0.4,0-0.7,0.1-0.9,0.2c-0.2,0.2-0.3,0.4-0.4,0.6c-0.1,0.2-0.1,0.5-0.1,0.8c0,0.3,0,0.5,0.1,0.8
				s0.2,0.4,0.4,0.6C15.2,240.2,15.5,240.3,15.8,240.3z"/>
			<path class="st1" d="M21.3,234.7c-0.4,0-0.6-0.1-0.7-0.3c-0.1-0.2-0.2-0.4-0.2-0.7c0-0.2,0.1-0.5,0.2-0.6s0.4-0.3,0.7-0.3
				c0.4,0,0.6,0.1,0.7,0.3c0.1,0.2,0.2,0.4,0.2,0.6c0,0.3-0.1,0.5-0.2,0.7C21.9,234.7,21.7,234.7,21.3,234.7z M20.4,241.6v-6.2h1.8
				v6.2H20.4z"/>
			<path class="st1" d="M26.5,241.8c-0.7,0-1.3-0.1-1.8-0.4c-0.5-0.3-0.8-0.6-1.1-1.1c-0.2-0.5-0.4-1-0.4-1.6c0-0.9,0.2-1.7,0.8-2.3
				s1.3-0.9,2.4-0.9c1,0,1.8,0.3,2.4,0.9s0.8,1.4,0.8,2.3c0,0.6-0.1,1.1-0.3,1.6s-0.6,0.9-1,1.1C27.8,241.6,27.2,241.8,26.5,241.8z
				 M26.5,240.3c0.4,0,0.7-0.1,0.9-0.3s0.3-0.4,0.4-0.7s0.1-0.5,0.1-0.8c0-0.3,0-0.6-0.1-0.8c-0.1-0.3-0.2-0.5-0.4-0.7
				c-0.2-0.2-0.5-0.3-0.9-0.3s-0.7,0.1-0.9,0.3c-0.2,0.2-0.4,0.4-0.4,0.7c-0.1,0.3-0.1,0.5-0.1,0.8c0,0.3,0,0.5,0.1,0.8
				s0.2,0.5,0.4,0.7C25.8,240.2,26.1,240.3,26.5,240.3z"/>
			<path class="st1" d="M30.7,241.6v-6.2h1.6l0.3,1.2h0c0,0,0-0.1,0.1-0.2s0.2-0.3,0.3-0.4c0.1-0.2,0.3-0.3,0.6-0.4
				c0.3-0.1,0.6-0.2,1-0.2c0.6,0,1,0.1,1.3,0.3c0.3,0.2,0.5,0.5,0.6,0.9s0.2,0.7,0.2,1.1s0,0.7,0,0.9v3H35v-3c0-0.3,0-0.5-0.1-0.8
				c0-0.2-0.2-0.4-0.3-0.6s-0.4-0.2-0.8-0.2c-0.4,0-0.6,0.1-0.8,0.2c-0.2,0.2-0.3,0.4-0.3,0.6c-0.1,0.2-0.1,0.5-0.1,0.8v3H30.7z"/>
			<path class="st1" d="M42.1,234.7c-0.4,0-0.6-0.1-0.7-0.3c-0.1-0.2-0.2-0.4-0.2-0.7c0-0.2,0.1-0.5,0.2-0.6s0.4-0.3,0.7-0.3
				c0.4,0,0.6,0.1,0.7,0.3c0.1,0.2,0.2,0.4,0.2,0.6c0,0.3-0.1,0.5-0.2,0.7C42.7,234.7,42.5,234.7,42.1,234.7z M41.2,241.6v-6.2H43
				v6.2H41.2z"/>
			<path class="st1" d="M44.3,241.6v-6.2h1.6l0.3,1.2h0c0,0,0-0.1,0.1-0.2s0.2-0.3,0.3-0.4c0.1-0.2,0.3-0.3,0.6-0.4
				c0.3-0.1,0.6-0.2,1-0.2c0.6,0,1,0.1,1.3,0.3c0.3,0.2,0.5,0.5,0.6,0.9s0.2,0.7,0.2,1.1s0,0.7,0,0.9v3h-1.8v-3c0-0.3,0-0.5-0.1-0.8
				c0-0.2-0.2-0.4-0.3-0.6s-0.4-0.2-0.8-0.2c-0.4,0-0.6,0.1-0.8,0.2c-0.2,0.2-0.3,0.4-0.3,0.6c-0.1,0.2-0.1,0.5-0.1,0.8v3H44.3z"/>
			<path class="st1" d="M54.7,241.6v-1.5c0,0,0.1-0.1,0.4-0.2c0.2-0.1,0.6-0.3,0.9-0.5c0.4-0.2,0.8-0.4,1.2-0.7
				c0.4-0.3,0.8-0.6,1.2-0.9s0.6-0.7,0.8-1.1c0.2-0.4,0.3-0.8,0.2-1.2c-0.1-0.3-0.2-0.6-0.5-0.8c-0.3-0.2-0.6-0.3-0.9-0.3
				c-0.5,0-0.9,0.2-1.2,0.5c-0.3,0.4-0.4,0.9-0.3,1.7l-1.7-0.2c-0.1-0.7,0-1.4,0.3-1.9c0.3-0.5,0.7-0.9,1.2-1.2
				c0.5-0.3,1.2-0.4,1.9-0.4c0.5,0,1,0.1,1.5,0.3c0.4,0.2,0.8,0.5,1.1,0.8c0.3,0.4,0.4,0.8,0.5,1.2c0,0.5-0.1,1-0.3,1.5
				c-0.2,0.4-0.5,0.8-0.8,1.1c-0.3,0.3-0.7,0.6-1,0.9c-0.4,0.2-0.7,0.5-1.1,0.6s-0.7,0.3-0.9,0.4c-0.3,0.1-0.4,0.2-0.5,0.2h4.9v1.5
				H54.7z"/>
			<path class="st1" d="M66.3,241.8c-1.3,0-2.2-0.4-2.8-1.2c-0.6-0.8-0.9-1.9-0.9-3.2c0-0.9,0.1-1.7,0.4-2.3
				c0.3-0.7,0.7-1.2,1.2-1.5c0.6-0.4,1.3-0.5,2.1-0.5c1.3,0,2.2,0.4,2.8,1.2s0.9,1.9,0.9,3.2c0,0.9-0.1,1.6-0.4,2.3
				s-0.7,1.2-1.2,1.6C67.8,241.7,67.1,241.8,66.3,241.8z M66.2,240.3c0.7,0,1.2-0.2,1.6-0.7c0.3-0.5,0.5-1.2,0.5-2.2
				c0-1-0.2-1.7-0.5-2.2c-0.3-0.5-0.9-0.7-1.6-0.7c-0.7,0-1.2,0.2-1.6,0.7s-0.5,1.2-0.5,2.2c0,1,0.2,1.7,0.5,2.2
				C65,240.1,65.5,240.3,66.2,240.3z"/>
			<path class="st1" d="M74.7,241.8c-1.3,0-2.2-0.4-2.8-1.2c-0.6-0.8-0.9-1.9-0.9-3.2c0-0.9,0.1-1.7,0.4-2.3
				c0.3-0.7,0.7-1.2,1.2-1.5c0.6-0.4,1.3-0.5,2.1-0.5c1.3,0,2.2,0.4,2.8,1.2s0.9,1.9,0.9,3.2c0,0.9-0.1,1.6-0.4,2.3
				s-0.7,1.2-1.2,1.6C76.2,241.7,75.5,241.8,74.7,241.8z M74.6,240.3c0.7,0,1.2-0.2,1.6-0.7c0.3-0.5,0.5-1.2,0.5-2.2
				c0-1-0.2-1.7-0.5-2.2c-0.3-0.5-0.9-0.7-1.6-0.7c-0.7,0-1.2,0.2-1.6,0.7s-0.5,1.2-0.5,2.2c0,1,0.2,1.7,0.5,2.2
				C73.4,240.1,73.9,240.3,74.6,240.3z"/>
			<path class="st1" d="M84.2,240.1v1.5h-4.3v-1.5h1.4v-4.9c-0.1,0.4-0.2,0.7-0.4,0.9c-0.2,0.2-0.4,0.3-0.6,0.4
				c-0.2,0.1-0.4,0.1-0.6,0.1c-0.2,0-0.3,0-0.3,0v-2c0.1,0,0.2,0,0.4,0c0.2,0,0.4-0.1,0.7-0.1s0.4-0.2,0.6-0.5
				c0.2-0.2,0.3-0.5,0.3-0.9h1.6v6.9H84.2z"/>
			<path class="st1" d="M86.4,241.6c-0.4,0-0.7-0.1-0.8-0.3s-0.2-0.5-0.2-0.7c0-0.3,0.1-0.5,0.2-0.7c0.1-0.2,0.4-0.3,0.8-0.3
				c0.4,0,0.7,0.1,0.8,0.3s0.2,0.4,0.2,0.7c0,0.3-0.1,0.5-0.2,0.8S86.8,241.6,86.4,241.6z"/>
		</g>
		<g>
			<polygon class="st3" points="160.5,112.1 162.8,112.1 165,112.1 165,109.8 162.8,109.8 160.5,109.8 158.3,109.8 158.3,112.1 			
				"/>
		</g>
		<g>
			<polygon class="st3" points="287.4,118.7 285.1,118.7 282.9,118.7 282.9,121 282.9,123.2 282.9,125.4 285.1,125.4 285.1,127.6 
				287.4,127.6 289.6,127.6 289.6,125.4 289.6,123.2 289.6,121 287.4,121 			"/>
		</g>
		<g>
			<polygon class="st4" points="216.2,201.1 216.2,198.8 213.9,198.8 211.7,198.8 209.5,198.8 207.2,198.8 205,198.8 202.8,198.8 
				200.6,198.8 200.6,201.1 198.4,201.1 198.4,203.3 196.1,203.3 196.1,205.5 193.9,205.5 193.9,207.8 191.7,207.8 189.4,207.8 
				189.4,210 187.2,210 187.2,212.2 185,212.2 185,214.4 182.8,214.4 180.6,214.4 180.6,216.6 182.8,216.6 185,216.6 187.2,216.6 
				189.4,216.6 191.7,216.6 193.9,216.6 193.9,214.4 196.1,214.4 196.1,212.2 198.4,212.2 200.6,212.2 200.6,210 202.8,210 205,210 
				207.2,210 209.5,210 211.7,210 211.7,207.8 213.9,207.8 216.2,207.8 216.2,205.5 218.4,205.5 218.4,203.3 218.4,201.1 			"/>
		</g>
		<g>
			<polygon class="st4" points="180.6,136.5 180.6,138.8 182.8,138.8 185,138.8 185,136.5 185,134.3 187.2,134.3 187.2,132.1 
				189.4,132.1 189.4,129.9 189.4,127.6 191.7,127.6 191.7,125.4 191.7,123.2 193.9,123.2 193.9,121 196.1,121 196.1,118.7 
				196.1,116.5 198.4,116.5 198.4,114.3 198.4,112.1 200.6,112.1 200.6,109.8 200.6,107.6 202.8,107.6 202.8,105.4 202.8,103.2 
				202.8,100.9 200.6,100.9 200.6,98.7 198.4,98.7 198.4,96.5 196.1,96.5 196.1,94.2 196.1,92 193.9,92 193.9,89.8 191.7,89.8 
				191.7,87.6 191.7,85.3 191.7,83.1 191.7,80.9 191.7,78.7 191.7,76.4 191.7,74.2 191.7,72 191.7,69.8 189.4,69.8 187.2,69.8 
				185,69.8 185,72 182.8,72 182.8,74.2 180.6,74.2 180.6,72 180.6,69.8 178.3,69.8 178.3,67.5 178.3,65.3 176.1,65.3 173.9,65.3 
				171.6,65.3 169.4,65.3 167.2,65.3 167.2,67.5 165,67.5 162.8,67.5 160.5,67.5 158.3,67.5 158.3,69.8 156.1,69.8 153.8,69.8 
				151.6,69.8 151.6,72 149.4,72 147.2,72 147.2,74.2 147.2,76.4 149.4,76.4 149.4,78.7 149.4,80.9 149.4,83.1 149.4,85.3 
				149.4,87.6 149.4,89.8 149.4,92 151.6,92 151.6,94.2 151.6,96.5 151.6,98.7 153.8,98.7 156.1,98.7 156.1,96.5 158.3,96.5 
				160.5,96.5 162.8,96.5 165,96.5 167.2,96.5 167.2,98.7 169.4,98.7 169.4,100.9 167.2,100.9 165,100.9 162.8,100.9 160.5,100.9 
				158.3,100.9 158.3,103.2 156.1,103.2 156.1,105.4 158.3,105.4 158.3,107.6 158.3,109.8 160.5,109.8 162.8,109.8 165,109.8 
				165,107.6 167.2,107.6 167.2,109.8 169.4,109.8 169.4,112.1 169.4,114.3 169.4,116.5 169.4,118.7 169.4,121 171.6,121 
				171.6,123.2 171.6,125.4 173.9,125.4 173.9,127.6 173.9,129.9 176.1,129.9 176.1,132.1 176.1,134.3 178.3,134.3 178.3,136.5 			
				"/>
		</g>
		<g>
			<path class="st5" d="M198.4,192.2v2.2h-6.7v-6.7h4.4v-4.4h-6.7v2.2H185v-2.2h-2.2v-6.7h2.2v-6.7h-6.7v2.2h-4.4v2.2h-2.2v2.2h-4.4
				v2.2h-4.4v2.2h-2.2v6.7h2.2v11.1h2.2v2.2h2.2v4.4h2.2v2.2h2.2v2.3h2.2v2.2h2.2v2.2h2.2v2.2h2.2v-2.2h4.4v-2.2h2.2V210h2.2v-2.2
				h4.4v-2.2h2.2v-2.2h2.2v-2.2h2.2v-8.9L198.4,192.2z M173.9,196.6h-6.7v-4.4h2.2v-2.2h4.5v-2.2h2.2v6.7h-2.2V196.6z M165,187.7
				v-4.4h2.2V181h4.4v-2.2h2.2v6.7h-2.2v2.2h-4.5v2.2H165V187.7z M171.7,203.3v-4.5h4.5v-2.2h2.2v6.7h-2.2v2.2h-4.5L171.7,203.3z
				 M182.8,210v2.2h-4.4v-6.7h4.4v-2.2h2.2v6.7H182.8z"/>
		</g>
		<g>
			<polygon class="st5" points="169.4,216.6 169.4,214.4 167.2,214.4 167.2,212.2 165,212.2 165,210 162.8,210 162.8,207.8 
				162.8,205.5 160.5,205.5 160.5,203.3 160.5,201.1 158.3,201.1 158.3,198.8 158.3,196.6 158.3,194.4 156.1,194.4 156.1,192.2 
				156.1,189.9 153.8,189.9 153.8,187.7 151.6,187.7 151.6,189.9 149.4,189.9 149.4,192.2 147.2,192.2 147.2,194.4 144.9,194.4 
				142.7,194.4 142.7,196.6 140.5,196.6 140.5,198.8 138.3,198.8 138.3,201.1 136.1,201.1 133.8,201.1 133.8,203.3 131.6,203.3 
				131.6,205.5 131.6,207.8 131.6,210 133.8,210 133.8,212.2 136.1,212.2 136.1,214.4 138.3,214.4 138.3,216.6 140.5,216.6 
				140.5,218.9 142.7,218.9 142.7,221.1 144.9,221.1 144.9,223.3 147.2,223.3 149.4,223.3 149.4,225.6 151.6,225.6 151.6,227.8 
				153.8,227.8 153.8,230 156.1,230 158.3,230 160.5,230 162.8,230 162.8,227.8 165,227.8 165,225.6 167.2,225.6 169.4,225.6 
				169.4,223.3 171.6,223.3 171.6,221.1 173.9,221.1 173.9,218.9 173.9,216.6 171.6,216.6 			"/>
		</g>
		<g>
			<polygon class="st5" points="144.9,72 147.2,72 149.4,72 151.6,72 151.6,69.8 153.8,69.8 156.1,69.8 158.3,69.8 158.3,67.5 
				160.5,67.5 162.8,67.5 165,67.5 167.2,67.5 167.2,65.3 169.4,65.3 171.6,65.3 173.9,65.3 176.1,65.3 178.3,65.3 178.3,67.5 
				180.6,67.5 182.8,67.5 185,67.5 187.2,67.5 189.4,67.5 191.7,67.5 193.9,67.5 196.1,67.5 196.1,65.3 198.4,65.3 198.4,63.1 
				198.4,60.9 198.4,58.6 198.4,56.4 198.4,54.2 198.4,52 196.1,52 196.1,49.7 193.9,49.7 191.7,49.7 191.7,47.5 189.4,47.5 
				187.2,47.5 185,47.5 182.8,47.5 180.6,47.5 178.3,47.5 176.1,47.5 173.9,47.5 171.6,47.5 169.4,47.5 167.2,47.5 165,47.5 
				165,49.7 162.8,49.7 160.5,49.7 158.3,49.7 158.3,52 156.1,52 156.1,54.2 153.8,54.2 153.8,56.4 151.6,56.4 151.6,58.6 
				149.4,58.6 149.4,60.9 147.2,60.9 147.2,63.1 144.9,63.1 144.9,65.3 144.9,67.5 142.7,67.5 142.7,69.8 144.9,69.8 			"/>
		</g>
		<g>
			<polygon class="st1" points="258.4,161 256.2,161 256.2,158.8 256.2,156.6 254,156.6 254,154.3 251.8,154.3 251.8,152.1 
				251.8,149.9 249.5,149.9 249.5,152.1 247.3,152.1 245.1,152.1 245.1,154.3 242.9,154.3 240.6,154.3 240.6,156.6 238.4,156.6 
				236.2,156.6 236.2,158.8 234,158.8 234,161 231.7,161 231.7,163.2 229.5,163.2 227.3,163.2 227.3,165.5 225.1,165.5 222.8,165.5 
				222.8,167.7 220.6,167.7 220.6,169.9 218.4,169.9 216.2,169.9 216.2,172.1 213.9,172.1 211.7,172.1 211.7,174.4 209.5,174.4 
				207.2,174.4 207.2,176.6 205,176.6 202.8,176.6 202.8,178.8 200.6,178.8 198.4,178.8 198.4,181 196.1,181 196.1,183.3 
				196.1,185.5 196.1,187.7 198.4,187.7 198.4,189.9 198.4,192.2 200.6,192.2 200.6,194.4 200.6,196.6 200.6,198.8 202.8,198.8 
				205,198.8 207.2,198.8 209.5,198.8 211.7,198.8 211.7,196.6 213.9,196.6 213.9,194.4 216.2,194.4 218.4,194.4 218.4,192.2 
				220.6,192.2 220.6,189.9 222.8,189.9 222.8,187.7 220.6,187.7 220.6,185.5 220.6,183.3 222.8,183.3 225.1,183.3 225.1,181 
				225.1,178.8 225.1,176.6 227.3,176.6 229.5,176.6 231.7,176.6 231.7,174.4 229.5,174.4 229.5,172.1 229.5,169.9 231.7,169.9 
				234,169.9 234,167.7 234,165.5 234,163.2 236.2,163.2 238.4,163.2 238.4,165.5 238.4,167.7 240.6,167.7 240.6,169.9 238.4,169.9 
				236.2,169.9 234,169.9 234,172.1 234,174.4 236.2,174.4 238.4,174.4 240.6,174.4 240.6,176.6 238.4,176.6 236.2,176.6 
				236.2,178.8 234,178.8 231.7,178.8 231.7,181 231.7,183.3 234,183.3 236.2,183.3 236.2,185.5 234,185.5 231.7,185.5 229.5,185.5 
				227.3,185.5 225.1,185.5 225.1,187.7 227.3,187.7 227.3,189.9 227.3,192.2 229.5,192.2 231.7,192.2 234,192.2 236.2,192.2 
				236.2,189.9 238.4,189.9 238.4,187.7 240.6,187.7 240.6,185.5 242.9,185.5 242.9,183.3 245.1,183.3 247.3,183.3 247.3,181 
				249.5,181 251.8,181 251.8,178.8 254,178.8 254,176.6 256.2,176.6 258.4,176.6 258.4,174.4 260.7,174.4 260.7,172.1 260.7,169.9 
				260.7,167.7 260.7,165.5 260.7,163.2 258.4,163.2 			"/>
		</g>
		<g>
			<polygon class="st1" points="196.1,165.5 198.4,165.5 198.4,163.2 200.6,163.2 202.8,163.2 202.8,161 205,161 207.2,161 
				207.2,158.8 209.5,158.8 211.7,158.8 211.7,156.6 213.9,156.6 213.9,154.3 216.2,154.3 218.4,154.3 218.4,152.1 220.6,152.1 
				222.8,152.1 222.8,149.9 225.1,149.9 225.1,147.7 227.3,147.7 229.5,147.7 229.5,145.4 231.7,145.4 231.7,143.2 234,143.2 
				236.2,143.2 236.2,141 238.4,141 240.6,141 240.6,138.8 242.9,138.8 245.1,138.8 245.1,136.5 247.3,136.5 247.3,134.3 
				247.3,132.1 247.3,129.9 245.1,129.9 245.1,127.6 242.9,127.6 242.9,125.4 242.9,123.2 240.6,123.2 240.6,121 238.4,121 
				238.4,118.7 236.2,118.7 236.2,116.5 234,116.5 231.7,116.5 231.7,114.3 229.5,114.3 229.5,112.1 227.3,112.1 225.1,112.1 
				222.8,112.1 222.8,109.8 220.6,109.8 218.4,109.8 218.4,112.1 216.2,112.1 216.2,114.3 216.2,116.5 213.9,116.5 213.9,118.7 
				213.9,121 213.9,123.2 211.7,123.2 211.7,125.4 211.7,127.6 211.7,129.9 209.5,129.9 209.5,132.1 207.2,132.1 207.2,134.3 
				207.2,136.5 207.2,138.8 205,138.8 205,141 205,143.2 202.8,143.2 200.6,143.2 200.6,141 198.4,141 196.1,141 193.9,141 
				191.7,141 191.7,143.2 189.4,143.2 187.2,143.2 187.2,145.4 185,145.4 185,143.2 182.8,143.2 182.8,145.4 182.8,147.7 
				182.8,149.9 182.8,152.1 182.8,154.3 182.8,156.6 185,156.6 185,158.8 182.8,158.8 182.8,161 182.8,163.2 182.8,165.5 
				182.8,167.7 182.8,169.9 185,169.9 185,172.1 187.2,172.1 187.2,169.9 189.4,169.9 191.7,169.9 191.7,167.7 193.9,167.7 
				196.1,167.7 			"/>
		</g>
		<g>
			<path class="st1" d="M176.1,136.5h-4.5v2.2h-4.4v2.2H165v2.2h-2.2v-13.4h2.2v-17.8h-4.4v4.4h-2.2v2.2h-2.2v2.3h-4.4v2.2H145V121
				h-4.4v2.2h-2.2v4.4h-2.2v4.4h-2.2v2.2h2.2v2.2h-2.2v8.9h-2.2v8.9h-2.2v6.6h-2.2v6.7h-2.2v24.5h-2.2v4.4h2.2v4.4h2.2v2.2h6.7v-2.2
				h4.5v-2.2h2.2v-2.2h2.2v-2.2h4.4v-2.2h2.2v-2.2h2.2v-2.2h2.2v-2.2h2.2v-2.2h2.2V181h4.5v-2.2h4.4v-2.2h4.4v-2.2h2.2v-2.2h4.4
				v-6.7h-2.3V161h2.2v-22.2h-2.2V136.5z M169.4,154.3v2.2h-2.2v6.7H165v2.2h-2.2v2.2h-8.9v-2.2h-2.2V161h-2.2v-6.7h6.7v-2.2h13.4
				L169.4,154.3z"/>
		</g>
		<g>
			<polygon class="st6" points="238.4,165.5 238.4,163.2 236.2,163.2 234,163.2 234,165.5 234,167.7 234,169.9 236.2,169.9 
				238.4,169.9 240.6,169.9 240.6,167.7 238.4,167.7 			"/>
		</g>
		<g>
			<polygon class="st6" points="229.5,169.9 229.5,172.1 229.5,174.4 231.7,174.4 231.7,176.6 229.5,176.6 227.3,176.6 225.1,176.6 
				225.1,178.8 225.1,181 225.1,183.3 222.8,183.3 220.6,183.3 220.6,185.5 220.6,187.7 222.8,187.7 222.8,189.9 220.6,189.9 
				220.6,192.2 218.4,192.2 218.4,194.4 216.2,194.4 213.9,194.4 213.9,196.6 211.7,196.6 211.7,198.8 213.9,198.8 216.2,198.8 
				216.2,201.1 218.4,201.1 220.6,201.1 220.6,198.8 222.8,198.8 225.1,198.8 225.1,196.6 227.3,196.6 227.3,194.4 229.5,194.4 
				229.5,192.2 227.3,192.2 227.3,189.9 227.3,187.7 225.1,187.7 225.1,185.5 227.3,185.5 229.5,185.5 231.7,185.5 234,185.5 
				236.2,185.5 236.2,183.3 234,183.3 231.7,183.3 231.7,181 231.7,178.8 234,178.8 236.2,178.8 236.2,176.6 238.4,176.6 
				240.6,176.6 240.6,174.4 238.4,174.4 236.2,174.4 234,174.4 234,172.1 234,169.9 231.7,169.9 			"/>
		</g>
		<g>
			<polygon class="st6" points="211.7,127.6 211.7,125.4 211.7,123.2 213.9,123.2 213.9,121 213.9,118.7 213.9,116.5 216.2,116.5 
				216.2,114.3 216.2,112.1 218.4,112.1 218.4,109.8 218.4,107.6 216.2,107.6 213.9,107.6 213.9,105.4 211.7,105.4 211.7,103.2 
				209.5,103.2 209.5,100.9 207.2,100.9 207.2,98.7 205,98.7 202.8,98.7 200.6,98.7 200.6,100.9 202.8,100.9 202.8,103.2 
				202.8,105.4 202.8,107.6 200.6,107.6 200.6,109.8 200.6,112.1 198.4,112.1 198.4,114.3 198.4,116.5 196.1,116.5 196.1,118.7 
				196.1,121 193.9,121 193.9,123.2 191.7,123.2 191.7,125.4 191.7,127.6 189.4,127.6 189.4,129.9 189.4,132.1 187.2,132.1 
				187.2,134.3 185,134.3 185,136.5 185,138.8 182.8,138.8 180.6,138.8 180.6,136.5 178.3,136.5 178.3,134.3 176.1,134.3 
				176.1,132.1 176.1,129.9 173.9,129.9 173.9,127.6 173.9,125.4 171.6,125.4 171.6,123.2 171.6,121 169.4,121 169.4,118.7 
				169.4,116.5 169.4,114.3 169.4,112.1 169.4,109.8 167.2,109.8 167.2,107.6 165,107.6 165,109.8 165,112.1 165,114.3 165,116.5 
				165,118.7 165,121 165,123.2 165,125.4 165,127.6 165,129.9 162.8,129.9 162.8,132.1 162.8,134.3 162.8,136.5 162.8,138.8 
				162.8,141 162.8,143.2 165,143.2 165,141 167.2,141 167.2,138.8 169.4,138.8 171.6,138.8 171.6,136.5 173.9,136.5 176.1,136.5 
				176.1,138.8 178.3,138.8 178.3,141 178.3,143.2 178.3,145.4 178.3,147.7 178.3,149.9 178.3,152.1 178.3,154.3 178.3,156.6 
				178.3,158.8 178.3,161 176.1,161 176.1,163.2 176.1,165.5 178.3,165.5 178.3,167.7 178.3,169.9 180.6,169.9 182.8,169.9 
				182.8,167.7 182.8,165.5 182.8,163.2 182.8,161 182.8,158.8 185,158.8 185,156.6 182.8,156.6 182.8,154.3 182.8,152.1 
				182.8,149.9 182.8,147.7 182.8,145.4 182.8,143.2 185,143.2 185,145.4 187.2,145.4 187.2,143.2 189.4,143.2 191.7,143.2 
				191.7,141 193.9,141 196.1,141 198.4,141 200.6,141 200.6,143.2 202.8,143.2 205,143.2 205,141 205,138.8 207.2,138.8 
				207.2,136.5 207.2,134.3 207.2,132.1 209.5,132.1 209.5,129.9 211.7,129.9 			"/>
		</g>
		<g>
			<polygon class="st6" points="165,152.1 162.8,152.1 160.5,152.1 158.3,152.1 156.1,152.1 156.1,154.3 153.8,154.3 151.6,154.3 
				149.4,154.3 149.4,156.6 149.4,158.8 149.4,161 151.6,161 151.6,163.2 151.6,165.5 153.8,165.5 153.8,167.7 156.1,167.7 
				158.3,167.7 160.5,167.7 162.8,167.7 162.8,165.5 165,165.5 165,163.2 167.2,163.2 167.2,161 167.2,158.8 167.2,156.6 
				169.4,156.6 169.4,154.3 169.4,152.1 167.2,152.1 			"/>
		</g>
		<g>
			<polygon class="st6" points="151.6,123.2 151.6,121 153.8,121 156.1,121 156.1,118.7 158.3,118.7 158.3,116.5 160.5,116.5 
				160.5,114.3 160.5,112.1 158.3,112.1 158.3,109.8 156.1,109.8 156.1,112.1 153.8,112.1 151.6,112.1 151.6,114.3 149.4,114.3 
				147.2,114.3 147.2,116.5 144.9,116.5 142.7,116.5 142.7,118.7 142.7,121 144.9,121 144.9,123.2 147.2,123.2 149.4,123.2 			"/>
		</g>
		<g>
			<path class="st7" d="M289.6,116.5h-8.9v2.2h-4.5v2.3h-4.4v2.2h-4.5v2.2h-4.5v2.2h-4.5v2.2h-2.2v2.2h-4.5v2.2h-4.4v2.2h-2.2v2.2
				h-4.4v2.2h-4.4v2.2h-4.5v2.2h-2.2v2.2h-4.4v2.2h-2.2v2.2h-4.5v2.2h-4.4v2.2h-2.2v2.2h-4.5v2.2h-4.4v2.2h-4.4v2.2h-2.2v2.2h-4.4
				v2.2h-4.4v2.2H185v4.4h-2.2v6.7h2.2v2.2h4.4v-2.2h6.7V181h2.2v-2.2h4.4v-2.2h4.4v-2.2h4.5v-2.2h4.4v-2.2h4.4v-2.2h2.2v-2.2h4.4
				v-2.2h4.4V161h2.3v-2.2h2.2v-2.2h4.4v-2.2h4.4v-2.2h4.4v-2.2h4.4v-2.2h4.5v-2.2h4.5v-2.2h2.2V141h6.7v-2.2h2.2v-2.2h4.5v-2.2h4.5
				v-2.2h4.5v-2.2h4.5v-11.2h-2.2L289.6,116.5z M289.6,123.2v4.4h-4.4v-2.2h-2.2v-6.7h4.5v2.3h2.2V123.2z"/>
		</g>
		<g>
			<polygon class="st7" points="193.9,187.7 191.7,187.7 191.7,189.9 191.7,192.2 191.7,194.4 193.9,194.4 196.1,194.4 198.4,194.4 
				198.4,192.2 198.4,189.9 198.4,187.7 196.1,187.7 			"/>
		</g>
		<g>
			<polygon class="st7" points="182.8,205.5 180.6,205.5 178.3,205.5 178.3,207.8 178.3,210 178.3,212.2 180.6,212.2 182.8,212.2 
				182.8,210 185,210 185,207.8 185,205.5 185,203.3 182.8,203.3 			"/>
		</g>
		<g>
			<polygon class="st7" points="180.6,72 180.6,74.2 182.8,74.2 182.8,72 185,72 185,69.8 187.2,69.8 189.4,69.8 191.7,69.8 
				191.7,72 191.7,74.2 191.7,76.4 191.7,78.7 191.7,80.9 191.7,83.1 191.7,85.3 191.7,87.6 191.7,89.8 193.9,89.8 193.9,87.6 
				196.1,87.6 196.1,85.3 198.4,85.3 198.4,83.1 198.4,80.9 200.6,80.9 200.6,78.7 200.6,76.4 200.6,74.2 200.6,72 198.4,72 
				198.4,69.8 196.1,69.8 196.1,67.5 193.9,67.5 191.7,67.5 189.4,67.5 187.2,67.5 185,67.5 182.8,67.5 180.6,67.5 178.3,67.5 
				178.3,69.8 180.6,69.8 			"/>
		</g>
		<g>
			<polygon class="st7" points="176.1,198.8 173.9,198.8 171.6,198.8 171.6,201.1 171.6,203.3 171.6,205.5 173.9,205.5 176.1,205.5 
				176.1,203.3 178.3,203.3 178.3,201.1 178.3,198.8 178.3,196.6 176.1,196.6 			"/>
		</g>
		<g>
			<polygon class="st7" points="176.1,212.2 173.9,212.2 173.9,210 171.6,210 171.6,207.8 169.4,207.8 169.4,205.5 167.2,205.5 
				167.2,203.3 167.2,201.1 165,201.1 165,198.8 162.8,198.8 162.8,196.6 162.8,194.4 162.8,192.2 162.8,189.9 162.8,187.7 
				160.5,187.7 160.5,185.5 160.5,183.3 160.5,181 158.3,181 158.3,183.3 156.1,183.3 156.1,185.5 153.8,185.5 153.8,187.7 
				153.8,189.9 156.1,189.9 156.1,192.2 156.1,194.4 158.3,194.4 158.3,196.6 158.3,198.8 158.3,201.1 160.5,201.1 160.5,203.3 
				160.5,205.5 162.8,205.5 162.8,207.8 162.8,210 165,210 165,212.2 167.2,212.2 167.2,214.4 169.4,214.4 169.4,216.6 171.6,216.6 
				173.9,216.6 173.9,218.9 173.9,221.1 176.1,221.1 176.1,218.9 178.3,218.9 178.3,216.6 178.3,214.4 176.1,214.4 			"/>
		</g>
		<g>
			<polygon class="st7" points="173.9,189.9 171.6,189.9 169.4,189.9 169.4,192.2 167.2,192.2 167.2,194.4 167.2,196.6 169.4,196.6 
				171.6,196.6 173.9,196.6 173.9,194.4 176.1,194.4 176.1,192.2 176.1,189.9 176.1,187.7 173.9,187.7 			"/>
		</g>
		<g>
			<polygon class="st7" points="167.2,181 167.2,183.3 165,183.3 165,185.5 165,187.7 165,189.9 167.2,189.9 167.2,187.7 
				169.4,187.7 171.6,187.7 171.6,185.5 173.9,185.5 173.9,183.3 173.9,181 173.9,178.8 171.6,178.8 171.6,181 169.4,181 			"/>
		</g>
		<g>
			<polygon class="st7" points="156.1,103.2 158.3,103.2 158.3,100.9 160.5,100.9 162.8,100.9 165,100.9 167.2,100.9 169.4,100.9 
				169.4,98.7 167.2,98.7 167.2,96.5 165,96.5 162.8,96.5 160.5,96.5 158.3,96.5 156.1,96.5 156.1,98.7 153.8,98.7 151.6,98.7 
				151.6,100.9 151.6,103.2 153.8,103.2 			"/>
		</g>
		<g>
			<path class="st7" d="M289.6,116.5h-8.9v2.2h-4.5v2.3h-4.4v2.2h-4.5v2.2h-4.5v2.2h-4.5v2.2h-2.2v2.2h-4.5v2.2h-4.4v2.2h-2.2v2.2
				h-4.4v2.2h-4.4v2.2h-4.5v2.2h-2.2v2.2h-4.4v2.2h-2.2v2.2h-4.5v2.2h-4.4v2.2h-2.2v2.2h-4.5v2.2h-4.4v2.2h-4.4v2.2h-2.2v2.2h-4.4
				v2.2h-4.4v2.2H185v4.4h-2.2v6.7h2.2v2.2h4.4v-2.2h6.7V181h2.2v-2.2h4.4v-2.2h4.4v-2.2h4.5v-2.2h4.4v-2.2h4.4v-2.2h2.2v-2.2h4.4
				v-2.2h4.4V161h2.3v-2.2h2.2v-2.2h4.4v-2.2h4.4v-2.2h4.4v-2.2h4.4v-2.2h4.5v-2.2h4.5v-2.2h2.2V141h6.7v-2.2h2.2v-2.2h4.5v-2.2h4.5
				v-2.2h4.5v-2.2h4.5v-11.2h-2.2L289.6,116.5z M289.6,123.2v4.4h-4.4v-2.2h-2.2v-6.7h4.5v2.3h2.2V123.2z"/>
		</g>
		<g>
			<polygon class="st7" points="193.9,187.7 191.7,187.7 191.7,189.9 191.7,192.2 191.7,194.4 193.9,194.4 196.1,194.4 198.4,194.4 
				198.4,192.2 198.4,189.9 198.4,187.7 196.1,187.7 			"/>
		</g>
		<g>
			<polygon class="st7" points="182.8,205.5 180.6,205.5 178.3,205.5 178.3,207.8 178.3,210 178.3,212.2 180.6,212.2 182.8,212.2 
				182.8,210 185,210 185,207.8 185,205.5 185,203.3 182.8,203.3 			"/>
		</g>
		<g>
			<polygon class="st7" points="180.6,72 180.6,74.2 182.8,74.2 182.8,72 185,72 185,69.8 187.2,69.8 189.4,69.8 191.7,69.8 
				191.7,72 191.7,74.2 191.7,76.4 191.7,78.7 191.7,80.9 191.7,83.1 191.7,85.3 191.7,87.6 191.7,89.8 193.9,89.8 193.9,87.6 
				196.1,87.6 196.1,85.3 198.4,85.3 198.4,83.1 198.4,80.9 200.6,80.9 200.6,78.7 200.6,76.4 200.6,74.2 200.6,72 198.4,72 
				198.4,69.8 196.1,69.8 196.1,67.5 193.9,67.5 191.7,67.5 189.4,67.5 187.2,67.5 185,67.5 182.8,67.5 180.6,67.5 178.3,67.5 
				178.3,69.8 180.6,69.8 			"/>
		</g>
		<g>
			<polygon class="st7" points="176.1,198.8 173.9,198.8 171.6,198.8 171.6,201.1 171.6,203.3 171.6,205.5 173.9,205.5 176.1,205.5 
				176.1,203.3 178.3,203.3 178.3,201.1 178.3,198.8 178.3,196.6 176.1,196.6 			"/>
		</g>
		<g>
			<polygon class="st7" points="176.1,212.2 173.9,212.2 173.9,210 171.6,210 171.6,207.8 169.4,207.8 169.4,205.5 167.2,205.5 
				167.2,203.3 167.2,201.1 165,201.1 165,198.8 162.8,198.8 162.8,196.6 162.8,194.4 162.8,192.2 162.8,189.9 162.8,187.7 
				160.5,187.7 160.5,185.5 160.5,183.3 160.5,181 158.3,181 158.3,183.3 156.1,183.3 156.1,185.5 153.8,185.5 153.8,187.7 
				153.8,189.9 156.1,189.9 156.1,192.2 156.1,194.4 158.3,194.4 158.3,196.6 158.3,198.8 158.3,201.1 160.5,201.1 160.5,203.3 
				160.5,205.5 162.8,205.5 162.8,207.8 162.8,210 165,210 165,212.2 167.2,212.2 167.2,214.4 169.4,214.4 169.4,216.6 171.6,216.6 
				173.9,216.6 173.9,218.9 173.9,221.1 176.1,221.1 176.1,218.9 178.3,218.9 178.3,216.6 178.3,214.4 176.1,214.4 			"/>
		</g>
		<g>
			<polygon class="st7" points="173.9,189.9 171.6,189.9 169.4,189.9 169.4,192.2 167.2,192.2 167.2,194.4 167.2,196.6 169.4,196.6 
				171.6,196.6 173.9,196.6 173.9,194.4 176.1,194.4 176.1,192.2 176.1,189.9 176.1,187.7 173.9,187.7 			"/>
		</g>
		<g>
			<polygon class="st7" points="167.2,181 167.2,183.3 165,183.3 165,185.5 165,187.7 165,189.9 167.2,189.9 167.2,187.7 
				169.4,187.7 171.6,187.7 171.6,185.5 173.9,185.5 173.9,183.3 173.9,181 173.9,178.8 171.6,178.8 171.6,181 169.4,181 			"/>
		</g>
		<g>
			<polygon class="st7" points="156.1,103.2 158.3,103.2 158.3,100.9 160.5,100.9 162.8,100.9 165,100.9 167.2,100.9 169.4,100.9 
				169.4,98.7 167.2,98.7 167.2,96.5 165,96.5 162.8,96.5 160.5,96.5 158.3,96.5 156.1,96.5 156.1,98.7 153.8,98.7 151.6,98.7 
				151.6,100.9 151.6,103.2 153.8,103.2 			"/>
		</g>
	</g>
</g>
</svg>
