<svg xmlns="http://www.w3.org/2000/svg" viewBox="0 0 291.83 258.4"><defs><style>.cls-1,.cls-10{fill:none;}.cls-2{fill:#ffe255;}.cls-3{fill:#cc3a00;}.cls-4{font-size:14px;font-family:Terminal-Grotesque, Terminal Grotesque;}.cls-11,.cls-22,.cls-4{fill:#f58b1e;}.cls-5{letter-spacing:-0.08em;}.cls-6{letter-spacing:-0.01em;}.cls-7{letter-spacing:-0.04em;}.cls-8{letter-spacing:-0.07em;}.cls-9{letter-spacing:-0.03em;}.cls-10{stroke:#ff930a;stroke-miterlimit:10;}.cls-11{font-size:15px;font-family:DarkerGrotesque-ExtraBold, Darker Grotesque;font-weight:800;}.cls-12{letter-spacing:0em;}.cls-13{letter-spacing:0em;}.cls-14{letter-spacing:-0.01em;}.cls-15{letter-spacing:-0.02em;}.cls-16{letter-spacing:0em;}.cls-17{letter-spacing:-0.03em;}.cls-18{letter-spacing:0em;}.cls-19{letter-spacing:0em;}.cls-20{letter-spacing:-0.01em;}.cls-21{letter-spacing:0em;}.cls-23{fill:#ffc133;}.cls-24{fill:#f06723;}</style></defs><g id="Capa_2" data-name="Capa 2"><g id="Layer_1" data-name="Layer 1"><polygon class="cls-1" points="160.53 112.05 162.75 112.05 164.97 112.05 164.97 109.83 162.75 109.83 160.53 109.83 158.29 109.83 158.29 112.05 160.53 112.05"/><polygon class="cls-1" points="287.37 118.72 285.15 118.72 282.92 118.72 282.92 120.96 282.92 123.18 282.92 125.4 285.15 125.4 285.15 127.63 287.37 127.63 289.59 127.63 289.59 125.4 289.59 123.18 289.59 120.96 287.37 120.96 287.37 118.72"/><polygon class="cls-2" points="216.16 201.07 216.16 198.84 213.93 198.84 211.71 198.84 209.48 198.84 207.25 198.84 205.03 198.84 202.8 198.84 200.58 198.84 200.58 201.07 198.36 201.07 198.36 203.29 196.13 203.29 196.13 205.51 193.9 205.51 193.9 207.75 191.68 207.75 189.45 207.75 189.45 209.97 187.23 209.97 187.23 212.19 185 212.19 185 214.42 182.77 214.42 180.55 214.42 180.55 216.65 182.77 216.65 185 216.65 187.23 216.65 189.45 216.65 191.68 216.65 193.9 216.65 193.9 214.42 196.13 214.42 196.13 212.19 198.36 212.19 200.58 212.19 200.58 209.97 202.8 209.97 205.03 209.97 207.25 209.97 209.48 209.97 211.71 209.97 211.71 207.75 213.93 207.75 216.16 207.75 216.16 205.51 218.38 205.51 218.38 203.29 218.38 201.07 216.16 201.07"/><polygon class="cls-2" points="180.55 136.53 180.55 138.75 182.77 138.75 185 138.75 185 136.53 185 134.31 187.23 134.31 187.23 132.07 189.45 132.07 189.45 129.85 189.45 127.63 191.68 127.63 191.68 125.4 191.68 123.18 193.9 123.18 193.9 120.96 196.13 120.96 196.13 118.72 196.13 116.5 198.36 116.5 198.36 114.28 198.36 112.05 200.58 112.05 200.58 109.83 200.58 107.59 202.8 107.59 202.8 105.37 202.8 103.15 202.8 100.92 200.58 100.92 200.58 98.7 198.36 98.7 198.36 96.48 196.13 96.48 196.13 94.24 196.13 92.02 193.9 92.02 193.9 89.8 191.68 89.8 191.68 87.57 191.68 85.35 191.68 83.11 191.68 80.89 191.68 78.67 191.68 76.44 191.68 74.22 191.68 72 191.68 69.76 189.45 69.76 187.23 69.76 185 69.76 185 72 182.77 72 182.77 74.22 180.55 74.22 180.55 72 180.55 69.76 178.32 69.76 178.32 67.54 178.32 65.32 176.1 65.32 173.88 65.32 171.65 65.32 169.42 65.32 167.2 65.32 167.2 67.54 164.97 67.54 162.75 67.54 160.53 67.54 158.29 67.54 158.29 69.76 156.07 69.76 153.84 69.76 151.62 69.76 151.62 72 149.4 72 147.16 72 147.16 74.22 147.16 76.44 149.4 76.44 149.4 78.67 149.4 80.89 149.4 83.11 149.4 85.35 149.4 87.57 149.4 89.8 149.4 92.02 151.62 92.02 151.62 94.24 151.62 96.48 151.62 98.7 153.84 98.7 156.07 98.7 156.07 96.48 158.29 96.48 160.53 96.48 162.75 96.48 164.97 96.48 167.2 96.48 167.2 98.7 169.42 98.7 169.42 100.92 167.2 100.92 164.97 100.92 162.75 100.92 160.53 100.92 158.29 100.92 158.29 103.15 156.07 103.15 156.07 105.37 158.29 105.37 158.29 107.59 158.29 109.83 160.53 109.83 162.75 109.83 164.97 109.83 164.97 107.59 167.2 107.59 167.2 109.83 169.42 109.83 169.42 112.05 169.42 114.28 169.42 116.5 169.42 118.72 169.42 120.96 171.65 120.96 171.65 123.18 171.65 125.4 173.88 125.4 173.88 127.63 173.88 129.85 176.1 129.85 176.1 132.07 176.1 134.31 178.32 134.31 178.32 136.53 180.55 136.53"/><path class="cls-3" d="M198.36,192.16v2.24h-6.68v-6.69h4.45v-4.44h-6.68v2.22H185v-2.22h-2.23v-6.68H185v-6.67h-6.68v2.22h-4.44v2.22h-2.24v2.23H167.2v2.22h-4.45V181h-2.22v6.68h2.22v11.13H165v2.23h2.23v4.45h2.22v2.23h2.22V210h2.24v2.22h2.22v2.23h2.22v2.23h2.23v-2.23H185v-2.23h2.23V210h2.22v-2.22h4.45v-2.23h2.23v-2.23h2.23v-2.22h2.22v-8.91Zm-24.48,4.46H167.2v-4.46h2.22v-2.22h4.46v-2.23h2.22v6.69h-2.22ZM165,187.71v-4.44h2.23V181h4.44v-2.22h2.24v6.68h-2.24v2.22H167.2v2.23H165Zm6.67,15.58v-4.45h4.46v-2.22h2.22v6.67H176.1v2.23h-4.46ZM182.77,210v2.22h-4.45v-6.67h4.45v-2.23H185V210Z"/><polygon class="cls-3" points="169.42 216.65 169.42 214.42 167.2 214.42 167.2 212.19 164.97 212.19 164.97 209.97 162.75 209.97 162.75 207.75 162.75 205.51 160.53 205.51 160.53 203.29 160.53 201.07 158.29 201.07 158.29 198.84 158.29 196.62 158.29 194.4 156.07 194.4 156.07 192.16 156.07 189.94 153.84 189.94 153.84 187.71 151.62 187.71 151.62 189.94 149.4 189.94 149.4 192.16 147.16 192.16 147.16 194.4 144.94 194.4 142.72 194.4 142.72 196.62 140.49 196.62 140.49 198.84 138.27 198.84 138.27 201.07 136.05 201.07 133.81 201.07 133.81 203.29 131.59 203.29 131.59 205.51 131.59 207.75 131.59 209.97 133.81 209.97 133.81 212.19 136.05 212.19 136.05 214.42 138.27 214.42 138.27 216.65 140.49 216.65 140.49 218.87 142.72 218.87 142.72 221.1 144.94 221.1 144.94 223.32 147.16 223.32 149.4 223.32 149.4 225.55 151.62 225.55 151.62 227.78 153.84 227.78 153.84 230 156.07 230 158.29 230 160.53 230 162.75 230 162.75 227.78 164.97 227.78 164.97 225.55 167.2 225.55 169.42 225.55 169.42 223.32 171.65 223.32 171.65 221.1 173.88 221.1 173.88 218.87 173.88 216.65 171.65 216.65 169.42 216.65"/><polygon class="cls-3" points="144.94 72 147.16 72 149.4 72 151.62 72 151.62 69.76 153.84 69.76 156.07 69.76 158.29 69.76 158.29 67.54 160.53 67.54 162.75 67.54 164.97 67.54 167.2 67.54 167.2 65.32 169.42 65.32 171.65 65.32 173.88 65.32 176.1 65.32 178.32 65.32 178.32 67.54 180.55 67.54 182.77 67.54 185 67.54 187.23 67.54 189.45 67.54 191.68 67.54 193.9 67.54 196.13 67.54 196.13 65.32 198.36 65.32 198.36 63.09 198.36 60.87 198.36 58.63 198.36 56.41 198.36 54.19 198.36 51.96 196.13 51.96 196.13 49.74 193.9 49.74 191.68 49.74 191.68 47.52 189.45 47.52 187.23 47.52 185 47.52 182.77 47.52 180.55 47.52 178.32 47.52 176.1 47.52 173.88 47.52 171.65 47.52 169.42 47.52 167.2 47.52 164.97 47.52 164.97 49.74 162.75 49.74 160.53 49.74 158.29 49.74 158.29 51.96 156.07 51.96 156.07 54.19 153.84 54.19 153.84 56.41 151.62 56.41 151.62 58.63 149.4 58.63 149.4 60.87 147.16 60.87 147.16 63.09 144.94 63.09 144.94 65.32 144.94 67.54 142.72 67.54 142.72 69.76 144.94 69.76 144.94 72"/><text class="cls-4" transform="translate(0 11.37)">EL EJÉ<tspan class="cls-5" x="37.41" y="0">R</tspan><tspan class="cls-6" x="44.69" y="0">C</tspan><tspan x="53.54" y="0">I</tspan><tspan class="cls-7" x="56.44" y="0">T</tspan><tspan x="63.4" y="0">O DE </tspan><tspan class="cls-6" x="96.11" y="0">L</tspan><tspan x="103.04" y="0">IBER</tspan><tspan class="cls-8" x="128.76" y="0">A</tspan><tspan class="cls-6" x="137.03" y="0">C</tspan><tspan x="145.88" y="0">IÓN N</tspan><tspan class="cls-8" x="179.43" y="0">A</tspan><tspan class="cls-6" x="187.7" y="0">C</tspan><tspan x="196.55" y="0">I</tspan><tspan class="cls-6" x="199.45" y="0">O</tspan><tspan x="208.8" y="0">N</tspan><tspan class="cls-9" x="217.38" y="0">A</tspan><tspan x="226.23" y="0">L - E</tspan><tspan class="cls-6" x="253.89" y="0">L</tspan><tspan x="260.82" y="0">N</tspan></text><line class="cls-10" x1="268.19" y1="23.58" x2="0.83" y2="23.58"/><text class="cls-11" transform="translate(0 43.63)">P<tspan class="cls-12" x="7.54" y="0">r</tspan><tspan x="12.85" y="0">esen</tspan><tspan class="cls-13" x="40.35" y="0">t</tspan><tspan x="45.1" y="0">e en la </tspan><tspan class="cls-12" x="0" y="18">r</tspan><tspan x="5.31" y="18">egión desde la </tspan><tspan x="0" y="36">década de los 80. </tspan><tspan class="cls-14" x="0" y="54">F</tspan><tspan x="6.98" y="54">uerzas Armadas </tspan><tspan x="0" y="72">Re</tspan><tspan class="cls-15" x="15.51" y="72">v</tspan><tspan class="cls-16" x="22.16" y="72">olucionarias de </tspan><tspan x="0" y="90">Colombia - </tspan><tspan class="cls-17" x="65.46" y="90">F</tspan><tspan x="72.07" y="90">ARC. </tspan><tspan x="0" y="108">Grupo gue</tspan><tspan class="cls-18" x="60.97" y="108">r</tspan><tspan x="66.33" y="108">rille</tspan><tspan class="cls-19" x="88.36" y="108">r</tspan><tspan x="93.67" y="108">o </tspan><tspan x="0" y="126">con ma</tspan><tspan class="cls-20" x="41.53" y="126">y</tspan><tspan x="48.21" y="126">or fuerza </tspan><tspan x="0" y="144">política y mil</tspan><tspan class="cls-21" x="73.02" y="144">i</tspan><tspan x="76.41" y="144">tar en </tspan><tspan x="0" y="162">la zona. Hacen </tspan><tspan x="0" y="180">p</tspan><tspan class="cls-12" x="7.51" y="180">r</tspan><tspan x="12.82" y="180">esencia en la </tspan><tspan class="cls-12" x="0" y="198">r</tspan><tspan x="5.31" y="198">egión en el 2001.</tspan></text><polygon class="cls-22" points="258.44 161.01 256.21 161.01 256.21 158.79 256.21 156.56 253.99 156.56 253.99 154.33 251.76 154.33 251.76 152.11 251.76 149.88 249.54 149.88 249.54 152.11 247.32 152.11 245.09 152.11 245.09 154.33 242.87 154.33 240.64 154.33 240.64 156.56 238.41 156.56 236.19 156.56 236.19 158.79 233.96 158.79 233.96 161.01 231.74 161.01 231.74 163.23 229.51 163.23 227.28 163.23 227.28 165.46 225.06 165.46 222.84 165.46 222.84 167.68 220.6 167.68 220.6 169.92 218.38 169.92 216.16 169.92 216.16 172.14 213.93 172.14 211.71 172.14 211.71 174.36 209.48 174.36 207.25 174.36 207.25 176.59 205.03 176.59 202.8 176.59 202.8 178.81 200.58 178.81 198.36 178.81 198.36 181.03 196.13 181.03 196.13 183.27 196.13 185.49 196.13 187.71 198.36 187.71 198.36 189.94 198.36 192.16 200.58 192.16 200.58 194.4 200.58 196.62 200.58 198.84 202.8 198.84 205.03 198.84 207.25 198.84 209.48 198.84 211.71 198.84 211.71 196.62 213.93 196.62 213.93 194.4 216.16 194.4 218.38 194.4 218.38 192.16 220.6 192.16 220.6 189.94 222.84 189.94 222.84 187.71 220.6 187.71 220.6 185.49 220.6 183.27 222.84 183.27 225.06 183.27 225.06 181.03 225.06 178.81 225.06 176.59 227.28 176.59 229.51 176.59 231.74 176.59 231.74 174.36 229.51 174.36 229.51 172.14 229.51 169.92 231.74 169.92 233.96 169.92 233.96 167.68 233.96 165.46 233.96 163.23 236.19 163.23 238.41 163.23 238.41 165.46 238.41 167.68 240.64 167.68 240.64 169.92 238.41 169.92 236.19 169.92 233.96 169.92 233.96 172.14 233.96 174.36 236.19 174.36 238.41 174.36 240.64 174.36 240.64 176.59 238.41 176.59 236.19 176.59 236.19 178.81 233.96 178.81 231.74 178.81 231.74 181.03 231.74 183.27 233.96 183.27 236.19 183.27 236.19 185.49 233.96 185.49 231.74 185.49 229.51 185.49 227.28 185.49 225.06 185.49 225.06 187.71 227.28 187.71 227.28 189.94 227.28 192.16 229.51 192.16 231.74 192.16 233.96 192.16 236.19 192.16 236.19 189.94 238.41 189.94 238.41 187.71 240.64 187.71 240.64 185.49 242.87 185.49 242.87 183.27 245.09 183.27 247.32 183.27 247.32 181.03 249.54 181.03 251.76 181.03 251.76 178.81 253.99 178.81 253.99 176.59 256.21 176.59 258.44 176.59 258.44 174.36 260.67 174.36 260.67 172.14 260.67 169.92 260.67 167.68 260.67 165.46 260.67 163.23 258.44 163.23 258.44 161.01"/><polygon class="cls-22" points="196.13 165.46 198.36 165.46 198.36 163.23 200.58 163.23 202.8 163.23 202.8 161.01 205.03 161.01 207.25 161.01 207.25 158.79 209.48 158.79 211.71 158.79 211.71 156.56 213.93 156.56 213.93 154.33 216.16 154.33 218.38 154.33 218.38 152.11 220.6 152.11 222.84 152.11 222.84 149.88 225.06 149.88 225.06 147.66 227.28 147.66 229.51 147.66 229.51 145.44 231.74 145.44 231.74 143.2 233.96 143.2 236.19 143.2 236.19 140.98 238.41 140.98 240.64 140.98 240.64 138.75 242.87 138.75 245.09 138.75 245.09 136.53 247.32 136.53 247.32 134.31 247.32 132.07 247.32 129.85 245.09 129.85 245.09 127.63 242.87 127.63 242.87 125.4 242.87 123.18 240.64 123.18 240.64 120.96 238.41 120.96 238.41 118.72 236.19 118.72 236.19 116.5 233.96 116.5 231.74 116.5 231.74 114.28 229.51 114.28 229.51 112.05 227.28 112.05 225.06 112.05 222.84 112.05 222.84 109.83 220.6 109.83 218.38 109.83 218.38 112.05 216.16 112.05 216.16 114.28 216.16 116.5 213.93 116.5 213.93 118.72 213.93 120.96 213.93 123.18 211.71 123.18 211.71 125.4 211.71 127.63 211.71 129.85 209.48 129.85 209.48 132.07 207.25 132.07 207.25 134.31 207.25 136.53 207.25 138.75 205.03 138.75 205.03 140.98 205.03 143.2 202.8 143.2 200.58 143.2 200.58 140.98 198.36 140.98 196.13 140.98 193.9 140.98 191.68 140.98 191.68 143.2 189.45 143.2 187.23 143.2 187.23 145.44 185 145.44 185 143.2 182.77 143.2 182.77 145.44 182.77 147.66 182.77 149.88 182.77 152.11 182.77 154.33 182.77 156.56 185 156.56 185 158.79 182.77 158.79 182.77 161.01 182.77 163.23 182.77 165.46 182.77 167.68 182.77 169.92 185 169.92 185 172.14 187.23 172.14 187.23 169.92 189.45 169.92 191.68 169.92 191.68 167.68 193.9 167.68 196.13 167.68 196.13 165.46"/><path class="cls-22" d="M176.1,136.53h-4.46v2.22H167.2V141H165v2.22h-2.22V129.85H165v-17.8h-4.44v4.45h-2.24v2.22h-2.22V121h-4.45v2.22h-6.68V121h-4.45v2.22h-2.22v4.45h-2.22v4.44h-2.24v2.24h2.24v2.22h-2.24v8.91h-2.22v8.89h-2.23V161h-2.22v6.67h-2.22v24.48h-2.24v4.46h2.24v4.45h2.22v2.22h6.67v-2.22h4.46v-2.23h2.22v-2.22h2.23V194.4h4.44v-2.24h2.24v-2.22h2.22v-2.23h2.22v-2.22h2.23v-2.22h2.22V181h4.46v-2.22h4.45v-2.22h4.44v-2.23h2.24v-2.22h4.44v-6.68H176.1V161h2.22V138.75H176.1Zm-6.68,17.8v2.22H167.2v6.68H165v2.23h-2.22v2.22h-8.91v-2.22h-2.22V161H149.4v-6.68h6.67v-2.22h13.35Z"/><polygon class="cls-23" points="238.41 165.46 238.41 163.23 236.19 163.23 233.96 163.23 233.96 165.46 233.96 167.68 233.96 169.92 236.19 169.92 238.41 169.92 240.64 169.92 240.64 167.68 238.41 167.68 238.41 165.46"/><polygon class="cls-23" points="229.51 169.92 229.51 172.14 229.51 174.36 231.74 174.36 231.74 176.59 229.51 176.59 227.28 176.59 225.06 176.59 225.06 178.81 225.06 181.03 225.06 183.27 222.84 183.27 220.6 183.27 220.6 185.49 220.6 187.71 222.84 187.71 222.84 189.94 220.6 189.94 220.6 192.16 218.38 192.16 218.38 194.4 216.16 194.4 213.93 194.4 213.93 196.62 211.71 196.62 211.71 198.84 213.93 198.84 216.16 198.84 216.16 201.07 218.38 201.07 220.6 201.07 220.6 198.84 222.84 198.84 225.06 198.84 225.06 196.62 227.28 196.62 227.28 194.4 229.51 194.4 229.51 192.16 227.28 192.16 227.28 189.94 227.28 187.71 225.06 187.71 225.06 185.49 227.28 185.49 229.51 185.49 231.74 185.49 233.96 185.49 236.19 185.49 236.19 183.27 233.96 183.27 231.74 183.27 231.74 181.03 231.74 178.81 233.96 178.81 236.19 178.81 236.19 176.59 238.41 176.59 240.64 176.59 240.64 174.36 238.41 174.36 236.19 174.36 233.96 174.36 233.96 172.14 233.96 169.92 231.74 169.92 229.51 169.92"/><polygon class="cls-23" points="211.71 127.63 211.71 125.4 211.71 123.18 213.93 123.18 213.93 120.96 213.93 118.72 213.93 116.5 216.16 116.5 216.16 114.28 216.16 112.05 218.38 112.05 218.38 109.83 218.38 107.59 216.16 107.59 213.93 107.59 213.93 105.37 211.71 105.37 211.71 103.15 209.48 103.15 209.48 100.92 207.25 100.92 207.25 98.7 205.03 98.7 202.8 98.7 200.58 98.7 200.58 100.92 202.8 100.92 202.8 103.15 202.8 105.37 202.8 107.59 200.58 107.59 200.58 109.83 200.58 112.05 198.36 112.05 198.36 114.28 198.36 116.5 196.13 116.5 196.13 118.72 196.13 120.96 193.9 120.96 193.9 123.18 191.68 123.18 191.68 125.4 191.68 127.63 189.45 127.63 189.45 129.85 189.45 132.07 187.23 132.07 187.23 134.31 185 134.31 185 136.53 185 138.75 182.77 138.75 180.55 138.75 180.55 136.53 178.32 136.53 178.32 134.31 176.1 134.31 176.1 132.07 176.1 129.85 173.88 129.85 173.88 127.63 173.88 125.4 171.65 125.4 171.65 123.18 171.65 120.96 169.42 120.96 169.42 118.72 169.42 116.5 169.42 114.28 169.42 112.05 169.42 109.83 167.2 109.83 167.2 107.59 164.97 107.59 164.97 109.83 164.97 112.05 164.97 114.28 164.97 116.5 164.97 118.72 164.97 120.96 164.97 123.18 164.97 125.4 164.97 127.63 164.97 129.85 162.75 129.85 162.75 132.07 162.75 134.31 162.75 136.53 162.75 138.75 162.75 140.98 162.75 143.2 164.97 143.2 164.97 140.98 167.2 140.98 167.2 138.75 169.42 138.75 171.65 138.75 171.65 136.53 173.88 136.53 176.1 136.53 176.1 138.75 178.32 138.75 178.32 140.98 178.32 143.2 178.32 145.44 178.32 147.66 178.32 149.88 178.32 152.11 178.32 154.33 178.32 156.56 178.32 158.79 178.32 161.01 176.1 161.01 176.1 163.23 176.1 165.46 178.32 165.46 178.32 167.68 178.32 169.92 180.55 169.92 182.77 169.92 182.77 167.68 182.77 165.46 182.77 163.23 182.77 161.01 182.77 158.79 185 158.79 185 156.56 182.77 156.56 182.77 154.33 182.77 152.11 182.77 149.88 182.77 147.66 182.77 145.44 182.77 143.2 185 143.2 185 145.44 187.23 145.44 187.23 143.2 189.45 143.2 191.68 143.2 191.68 140.98 193.9 140.98 196.13 140.98 198.36 140.98 200.58 140.98 200.58 143.2 202.8 143.2 205.03 143.2 205.03 140.98 205.03 138.75 207.25 138.75 207.25 136.53 207.25 134.31 207.25 132.07 209.48 132.07 209.48 129.85 211.71 129.85 211.71 127.63"/><polygon class="cls-23" points="164.97 152.11 162.75 152.11 160.53 152.11 158.29 152.11 156.07 152.11 156.07 154.33 153.84 154.33 151.62 154.33 149.4 154.33 149.4 156.56 149.4 158.79 149.4 161.01 151.62 161.01 151.62 163.23 151.62 165.46 153.84 165.46 153.84 167.68 156.07 167.68 158.29 167.68 160.53 167.68 162.75 167.68 162.75 165.46 164.97 165.46 164.97 163.23 167.2 163.23 167.2 161.01 167.2 158.79 167.2 156.56 169.42 156.56 169.42 154.33 169.42 152.11 167.2 152.11 164.97 152.11"/><polygon class="cls-23" points="151.62 123.18 151.62 120.96 153.84 120.96 156.07 120.96 156.07 118.72 158.29 118.72 158.29 116.5 160.53 116.5 160.53 114.28 160.53 112.05 158.29 112.05 158.29 109.83 156.07 109.83 156.07 112.05 153.84 112.05 151.62 112.05 151.62 114.28 149.4 114.28 147.16 114.28 147.16 116.5 144.94 116.5 142.72 116.5 142.72 118.72 142.72 120.96 144.94 120.96 144.94 123.18 147.16 123.18 149.4 123.18 151.62 123.18"/><path class="cls-24" d="M289.59,116.5H280.7v2.22h-4.46V121H271.8v2.22h-4.46v2.22h-4.45v2.23h-4.45v2.22h-2.22v2.22h-4.46v2.24h-4.44v2.22h-2.23v2.22h-4.45V141h-4.45v2.22h-4.46v2.24h-2.22v2.22h-4.45v2.22h-2.22v2.23h-4.46v2.22h-4.45v2.22h-2.22v2.24h-4.46V161H202.8v2.22h-4.44v2.23h-2.23v2.22h-4.45v2.24h-4.45v2.22H185v4.45h-2.23v6.68H185v2.22h4.45v-2.22h6.68V181h2.23v-2.22h4.44v-2.22h4.45v-2.23h4.46v-2.22h4.45v-2.22h4.45v-2.24h2.23v-2.22h4.44v-2.23h4.45V161H234v-2.22h2.23v-2.24h4.45v-2.22h4.45v-2.22h4.45v-2.23H254v-2.22h4.45v-2.22h4.45V143.2h2.22V141h6.69v-2.23H274v-2.22h4.45v-2.22h4.45v-2.24h4.45v-2.22h4.46V118.72h-2.24Zm0,6.68v4.45h-4.44V125.4h-2.23v-6.68h4.45V121h2.22Z"/><polygon class="cls-24" points="193.9 187.71 191.68 187.71 191.68 189.94 191.68 192.16 191.68 194.4 193.9 194.4 196.13 194.4 198.36 194.4 198.36 192.16 198.36 189.94 198.36 187.71 196.13 187.71 193.9 187.71"/><polygon class="cls-24" points="182.77 205.51 180.55 205.51 178.32 205.51 178.32 207.75 178.32 209.97 178.32 212.19 180.55 212.19 182.77 212.19 182.77 209.97 185 209.97 185 207.75 185 205.51 185 203.29 182.77 203.29 182.77 205.51"/><polygon class="cls-24" points="180.55 72 180.55 74.22 182.77 74.22 182.77 72 185 72 185 69.76 187.23 69.76 189.45 69.76 191.68 69.76 191.68 72 191.68 74.22 191.68 76.44 191.68 78.67 191.68 80.89 191.68 83.11 191.68 85.35 191.68 87.57 191.68 89.8 193.9 89.8 193.9 87.57 196.13 87.57 196.13 85.35 198.36 85.35 198.36 83.11 198.36 80.89 200.58 80.89 200.58 78.67 200.58 76.44 200.58 74.22 200.58 72 198.36 72 198.36 69.76 196.13 69.76 196.13 67.54 193.9 67.54 191.68 67.54 189.45 67.54 187.23 67.54 185 67.54 182.77 67.54 180.55 67.54 178.32 67.54 178.32 69.76 180.55 69.76 180.55 72"/><polygon class="cls-24" points="176.1 198.84 173.88 198.84 171.65 198.84 171.65 201.07 171.65 203.29 171.65 205.51 173.88 205.51 176.1 205.51 176.1 203.29 178.32 203.29 178.32 201.07 178.32 198.84 178.32 196.62 176.1 196.62 176.1 198.84"/><polygon class="cls-24" points="176.1 212.19 173.88 212.19 173.88 209.97 171.65 209.97 171.65 207.75 169.42 207.75 169.42 205.51 167.2 205.51 167.2 203.29 167.2 201.07 164.97 201.07 164.97 198.84 162.75 198.84 162.75 196.62 162.75 194.4 162.75 192.16 162.75 189.94 162.75 187.71 160.53 187.71 160.53 185.49 160.53 183.27 160.53 181.03 158.29 181.03 158.29 183.27 156.07 183.27 156.07 185.49 153.84 185.49 153.84 187.71 153.84 189.94 156.07 189.94 156.07 192.16 156.07 194.4 158.29 194.4 158.29 196.62 158.29 198.84 158.29 201.07 160.53 201.07 160.53 203.29 160.53 205.51 162.75 205.51 162.75 207.75 162.75 209.97 164.97 209.97 164.97 212.19 167.2 212.19 167.2 214.42 169.42 214.42 169.42 216.65 171.65 216.65 173.88 216.65 173.88 218.87 173.88 221.1 176.1 221.1 176.1 218.87 178.32 218.87 178.32 216.65 178.32 214.42 176.1 214.42 176.1 212.19"/><polygon class="cls-24" points="173.88 189.94 171.65 189.94 169.42 189.94 169.42 192.16 167.2 192.16 167.2 194.4 167.2 196.62 169.42 196.62 171.65 196.62 173.88 196.62 173.88 194.4 176.1 194.4 176.1 192.16 176.1 189.94 176.1 187.71 173.88 187.71 173.88 189.94"/><polygon class="cls-24" points="167.2 181.03 167.2 183.27 164.97 183.27 164.97 185.49 164.97 187.71 164.97 189.94 167.2 189.94 167.2 187.71 169.42 187.71 171.65 187.71 171.65 185.49 173.88 185.49 173.88 183.27 173.88 181.03 173.88 178.81 171.65 178.81 171.65 181.03 169.42 181.03 167.2 181.03"/><polygon class="cls-24" points="156.07 103.15 158.29 103.15 158.29 100.92 160.53 100.92 162.75 100.92 164.97 100.92 167.2 100.92 169.42 100.92 169.42 98.7 167.2 98.7 167.2 96.48 164.97 96.48 162.75 96.48 160.53 96.48 158.29 96.48 156.07 96.48 156.07 98.7 153.84 98.7 151.62 98.7 151.62 100.92 151.62 103.15 153.84 103.15 156.07 103.15"/></g></g></svg>