<svg xmlns="http://www.w3.org/2000/svg" viewBox="0 0 105.22 66.96"><defs><style>.cls-1{fill:#1b0f3b;}.cls-2{fill:#41238a;}.cls-3{fill:#8d66ff;}.cls-4{fill:#ae90ff;}.cls-5{fill:#cfbdff;}</style></defs><g id="Capa_2" data-name="Capa 2"><g id="Layer_1" data-name="Layer 1"><polygon class="cls-1" points="66.97 36.66 65.36 36.66 65.36 38.27 65.36 39.85 66.97 39.85 68.56 39.85 68.56 38.27 68.56 36.66 66.97 36.66"/><polygon class="cls-1" points="55.8 35.07 54.21 35.07 54.21 33.48 52.61 33.48 51.02 33.48 51.02 35.07 52.61 35.07 52.61 36.66 54.21 36.66 54.21 38.27 55.8 38.27 55.8 39.85 55.8 41.45 55.8 43.05 55.8 44.64 55.8 46.23 55.8 47.83 55.8 49.42 55.8 51.02 55.8 52.61 57.39 52.61 57.39 51.02 57.39 49.42 57.39 47.83 57.39 46.23 57.39 44.64 57.39 43.05 57.39 41.45 57.39 39.85 57.39 38.27 57.39 36.66 55.8 36.66 55.8 35.07"/><polygon class="cls-1" points="52.61 23.91 52.61 22.32 51.02 22.32 51.02 23.91 51.02 25.51 52.61 25.51 52.61 23.91"/><polygon class="cls-1" points="35.07 39.85 35.07 41.45 35.07 43.05 36.67 43.05 36.67 41.45 36.67 39.85 36.67 38.27 35.07 38.27 35.07 39.85"/><polygon class="cls-2" points="68.56 35.07 68.56 33.48 66.97 33.48 66.97 35.07 65.36 35.07 65.36 36.66 66.97 36.66 68.56 36.66 68.56 38.27 68.56 39.85 66.97 39.85 65.36 39.85 65.36 38.27 65.36 36.66 63.77 36.66 63.77 38.27 63.77 39.85 63.77 41.45 65.36 41.45 66.97 41.45 68.56 41.45 70.15 41.45 70.15 39.85 70.15 38.27 70.15 36.66 70.15 35.07 68.56 35.07"/><polygon class="cls-2" points="54.21 36.66 52.61 36.66 52.61 35.07 51.02 35.07 51.02 33.48 49.43 33.48 49.43 35.07 47.83 35.07 47.83 36.66 46.24 36.66 46.24 38.27 46.24 39.85 46.24 41.45 46.24 43.05 46.24 44.64 46.24 46.23 46.24 47.83 46.24 49.42 46.24 51.02 46.24 52.61 47.83 52.61 49.43 52.61 51.02 52.61 52.61 52.61 54.21 52.61 55.8 52.61 55.8 51.02 55.8 49.42 55.8 47.83 55.8 46.23 55.8 44.64 55.8 43.05 55.8 41.45 55.8 39.85 55.8 38.27 54.21 38.27 54.21 36.66"/><rect class="cls-2" x="51.02" y="25.51" width="1.59" height="1.59"/><rect class="cls-2" x="51.02" y="20.73" width="1.59" height="1.59"/><polygon class="cls-2" points="35.07 44.64 35.07 46.23 36.67 46.23 36.67 44.64 36.67 43.05 35.07 43.05 35.07 44.64"/><polygon class="cls-2" points="36.67 33.48 35.07 33.48 35.07 35.07 33.48 35.07 33.48 36.66 33.48 38.27 33.48 39.85 33.48 41.45 35.07 41.45 35.07 39.85 35.07 38.27 36.67 38.27 36.67 39.85 36.67 41.45 38.26 41.45 38.26 39.85 38.26 38.27 38.26 36.66 38.26 35.07 36.67 35.07 36.67 33.48"/><path class="cls-3" d="M81.31,8V6.37H79.72V4.78h-1.6V6.37H76.53V8h-1.6v8H71.75v-1.6h-1.6v-1.6H65.36V11.16H62.18V9.56H57.39V6.37H47.83V8H44.65V9.56H39.86v1.6H36.67v1.59H33.48v1.6H28.7V9.56H27.11V8h-1.6V6.37H22.33V8h-1.6V9.56H19.14V52.61h1.59V31.88H43.05V52.61h3.19v-16h1.59V35.07h1.6V33.48h4.78v1.59H55.8v1.59h1.59v16h3.19V31.88H81.31V44.64H79.72v4.78h1.59v3.19H82.9V47.83H81.31v-1.6H82.9V8Zm-1.59,3.19V28.7H76.53V17.54h1.59v-8h1.6ZM31.89,16h3.18v-1.6h3.19v-1.6h3.2V11.16h4.78V9.56h3.19V8H55.8v3.19h4.78v1.59h3.19v1.6H67V16h3.18v1.59h4.78V28.7H28.7V17.54h1.59V16ZM22.33,27.1V11.16h1.59v1.59h1.59v16H22.33Z"/><polygon class="cls-4" points="98.85 62.17 97.25 62.17 97.25 63.77 98.85 63.77 100.44 63.77 100.44 62.17 98.85 62.17"/><polygon class="cls-4" points="92.47 62.17 92.47 63.77 90.88 63.77 89.28 63.77 87.68 63.77 86.09 63.77 84.5 63.77 82.9 63.77 82.9 65.36 81.31 65.36 81.31 66.96 82.9 66.96 84.5 66.96 84.5 65.36 86.09 65.36 87.68 65.36 89.28 65.36 90.88 65.36 92.47 65.36 94.07 65.36 94.07 63.77 95.66 63.77 95.66 62.17 94.07 62.17 92.47 62.17"/><polygon class="cls-4" points="92.47 58.98 90.88 58.98 89.28 58.98 87.68 58.98 86.09 58.98 86.09 60.58 84.5 60.58 82.9 60.58 82.9 62.17 84.5 62.17 86.09 62.17 87.68 62.17 87.68 60.58 89.28 60.58 90.88 60.58 92.47 60.58 94.07 60.58 95.66 60.58 95.66 58.98 94.07 58.98 92.47 58.98"/><polygon class="cls-4" points="84.5 57.39 84.5 55.8 82.9 55.8 82.9 57.39 81.31 57.39 79.72 57.39 78.12 57.39 76.53 57.39 76.53 58.98 78.12 58.98 78.12 60.58 79.72 60.58 81.31 60.58 81.31 58.98 82.9 58.98 84.5 58.98 86.09 58.98 86.09 57.39 84.5 57.39"/><rect class="cls-4" x="81.31" y="52.61" width="1.59" height="1.59"/><polygon class="cls-4" points="79.72 28.7 79.72 27.1 79.72 25.51 79.72 23.91 79.72 22.32 79.72 20.73 79.72 19.13 79.72 17.54 78.12 17.54 76.53 17.54 76.53 19.13 76.53 20.73 76.53 22.32 76.53 23.91 76.53 25.51 76.53 27.1 76.53 28.7 78.12 28.7 79.72 28.7"/><polygon class="cls-4" points="76.53 60.58 74.93 60.58 73.34 60.58 73.34 62.17 73.34 63.77 71.75 63.77 70.15 63.77 70.15 65.36 68.56 65.36 66.97 65.36 65.36 65.36 65.36 63.77 65.36 62.17 66.97 62.17 66.97 60.58 66.97 58.98 65.36 58.98 65.36 57.39 63.77 57.39 63.77 58.98 63.77 60.58 62.18 60.58 60.58 60.58 58.99 60.58 57.39 60.58 57.39 58.98 55.8 58.98 55.8 60.58 54.21 60.58 52.61 60.58 52.61 62.17 51.02 62.17 49.43 62.17 49.43 63.77 51.02 63.77 52.61 63.77 54.21 63.77 54.21 62.17 55.8 62.17 57.39 62.17 57.39 63.77 58.99 63.77 60.58 63.77 62.18 63.77 62.18 65.36 63.77 65.36 63.77 66.96 65.36 66.96 66.97 66.96 68.56 66.96 70.15 66.96 71.75 66.96 71.75 65.36 73.34 65.36 74.93 65.36 74.93 63.77 76.53 63.77 78.12 63.77 78.12 62.17 76.53 62.17 76.53 60.58"/><path class="cls-4" d="M73.34,31.88H60.58V52.61H81.31V49.42H79.72V44.64h1.59V31.88h-8Zm-4.78,1.6v1.59h1.59v6.38H63.77V36.66h1.59V35.07H67V33.48Z"/><polygon class="cls-4" points="71.75 54.2 71.75 55.8 73.34 55.8 74.93 55.8 74.93 54.2 73.34 54.2 71.75 54.2"/><polygon class="cls-4" points="71.75 62.17 71.75 60.58 71.75 58.98 70.15 58.98 68.56 58.98 68.56 60.58 70.15 60.58 70.15 62.17 71.75 62.17"/><rect class="cls-4" x="66.97" y="54.2" width="1.59" height="1.6"/><rect class="cls-4" x="62.18" y="54.2" width="1.59" height="1.6"/><polygon class="cls-4" points="60.58 58.98 62.18 58.98 62.18 57.39 60.58 57.39 58.99 57.39 57.39 57.39 57.39 58.98 58.99 58.98 60.58 58.98"/><polygon class="cls-4" points="55.8 65.36 54.21 65.36 52.61 65.36 51.02 65.36 51.02 66.96 52.61 66.96 54.21 66.96 55.8 66.96 57.39 66.96 58.99 66.96 58.99 65.36 57.39 65.36 55.8 65.36"/><rect class="cls-4" x="52.61" y="57.39" width="1.6" height="1.59"/><polygon class="cls-4" points="51.02 4.78 51.02 6.37 52.61 6.37 52.61 4.78 52.61 3.19 54.21 3.19 54.21 1.59 52.61 1.59 52.61 0 51.02 0 51.02 1.59 49.43 1.59 49.43 3.19 51.02 3.19 51.02 4.78"/><polygon class="cls-4" points="47.83 58.98 47.83 60.58 49.43 60.58 51.02 60.58 51.02 58.98 49.43 58.98 47.83 58.98"/><polygon class="cls-4" points="46.24 63.77 44.65 63.77 44.65 62.17 46.24 62.17 46.24 60.58 44.65 60.58 43.05 60.58 43.05 62.17 41.46 62.17 39.85 62.17 39.85 63.77 41.46 63.77 43.05 63.77 43.05 65.36 44.65 65.36 46.24 65.36 47.83 65.36 49.43 65.36 49.43 63.77 47.83 63.77 46.24 63.77"/><rect class="cls-4" x="41.46" y="57.39" width="1.59" height="1.59"/><polygon class="cls-4" points="41.46 57.39 41.46 55.8 43.05 55.8 44.65 55.8 44.65 54.2 43.05 54.2 41.46 54.2 39.85 54.2 38.26 54.2 36.67 54.2 36.67 55.8 36.67 57.39 38.26 57.39 39.85 57.39 41.46 57.39"/><path class="cls-4" d="M38.26,52.61h4.79V31.88H20.73V52.61H38.26ZM36.67,33.48v1.59h1.59v6.38H36.67v4.78h-1.6V41.45H33.48V35.07h1.59V33.48Z"/><polygon class="cls-4" points="31.89 58.98 30.29 58.98 28.7 58.98 27.11 58.98 27.11 60.58 28.7 60.58 30.29 60.58 31.89 60.58 33.48 60.58 33.48 62.17 31.89 62.17 30.29 62.17 28.7 62.17 27.11 62.17 25.51 62.17 25.51 63.77 23.92 63.77 22.33 63.77 20.73 63.77 20.73 65.36 22.33 65.36 23.92 65.36 25.51 65.36 27.11 65.36 28.7 65.36 28.7 63.77 30.29 63.77 31.89 63.77 33.48 63.77 35.07 63.77 35.07 62.17 35.07 60.58 35.07 58.98 33.48 58.98 31.89 58.98"/><path class="cls-4" d="M31.89,28.7h43V17.54H70.15V16H67v-1.6h-3.2v-1.6H60.58V11.16H55.8V8H49.43V9.56H46.24v1.6H41.46v1.59h-3.2v1.6H35.07V16H30.29v1.59H28.7V28.7h3.19ZM51,27.1V20.73h1.59V27.1Z"/><rect class="cls-4" x="27.11" y="54.2" width="1.59" height="1.6"/><rect class="cls-4" x="23.92" y="57.39" width="1.59" height="1.59"/><polygon class="cls-4" points="25.51 28.7 25.51 27.1 25.51 25.51 25.51 23.91 25.51 22.32 25.51 20.73 25.51 19.13 25.51 17.54 23.92 17.54 22.33 17.54 22.33 19.13 22.33 20.73 22.33 22.32 22.33 23.91 22.33 25.51 22.33 27.1 22.33 28.7 23.92 28.7 25.51 28.7"/><rect class="cls-4" x="22.33" y="54.2" width="1.59" height="1.6"/><polygon class="cls-4" points="20.73 62.17 22.33 62.17 22.33 60.58 22.33 58.98 20.73 58.98 20.73 57.39 19.14 57.39 17.54 57.39 17.54 58.98 17.54 60.58 17.54 62.17 19.14 62.17 20.73 62.17"/><rect class="cls-4" x="19.14" y="52.61" width="1.59" height="1.59"/><polygon class="cls-4" points="19.14 63.77 17.54 63.77 15.95 63.77 15.95 62.17 14.36 62.17 12.76 62.17 11.16 62.17 11.16 63.77 9.57 63.77 7.97 63.77 6.38 63.77 6.38 65.36 7.97 65.36 9.57 65.36 11.16 65.36 12.76 65.36 12.76 63.77 14.36 63.77 14.36 65.36 15.95 65.36 17.54 65.36 17.54 66.96 19.14 66.96 20.73 66.96 20.73 65.36 19.14 65.36 19.14 63.77"/><polygon class="cls-4" points="9.57 58.98 9.57 57.39 7.97 57.39 6.38 57.39 6.38 58.98 7.97 58.98 9.57 58.98"/><path class="cls-5" d="M103.63,63.77H102v1.6h-1.6v-1.6H97.25v-1.6h1.6V59h-1.6V55.8H95.66V54.2H94.07V51H82.9V54.2H81.31V52.61H20.73V54.2H19.14V51h-8V55.8h-8V59H1.6v4.79H0v1.6H3.19V67H17.54V65.37H14.35v-1.6h-1.6v1.6H6.38v-1.6h4.78v-1.6H16v1.6h3.19v1.6h1.59v-1.6h4.78v-1.6h8V60.58H27.11V59h8v4.79H28.7v1.6h-8V67H51V65.37h8V67h4.78V65.37H62.18v-1.6H57.39v-1.6H54.21v1.6H49.43v1.6H43.05v-1.6H39.86v-1.6h3.19V60.58h3.19v1.59H44.65v1.6h4.78v-1.6h3.18V60.58H55.8V59h1.59V57.39h4.79V59H57.39v1.6h6.38V57.39h1.59V59H67v3.19H65.36v3.2h4.79v-1.6h3.19V60.58h3.19v1.59h1.59v1.6H74.93v1.6H71.75V67h9.56V65.37H82.9v-1.6h9.57v-1.6h3.19v1.6H94.07v1.6H84.5V67h20.72V63.77ZM73.34,54.2h1.59v1.6H71.75V54.2Zm-4.78,0v1.6H67V54.2Zm-39.86,0v1.6H27.11V54.2Zm-4.78,0v1.6H22.33V54.2ZM8,57.39h1.6V59H6.38V57.39Zm12.76,4.78H17.54V57.39h3.19V59h1.6v3.19ZM23.92,59V57.39h1.59V59Zm17.54,0V57.39H36.67V54.2h8v1.6H41.46v1.59h1.59V59Zm8,1.6h-1.6V59H51v1.6ZM52.61,59V57.39h1.6V59Zm9.57-3.18V54.2h1.59v1.6Zm9.57,6.37h-1.6V60.58H68.56V59h3.19v3.19Zm22.32-1.59H87.68v1.59H82.9V60.58h3.19V59H81.31v1.6H78.12V59H76.53V57.39H82.9V55.8h1.6v1.59h1.59V59h9.57v1.6Z"/></g></g></svg>