<?xml version="1.0" encoding="utf-8"?>
<!-- Generator: Adobe Illustrator 24.1.2, SVG Export Plug-In . SVG Version: 6.00 Build 0)  -->
<svg version="1.1" id="Capa_1" xmlns="http://www.w3.org/2000/svg" xmlns:xlink="http://www.w3.org/1999/xlink" x="0px" y="0px"
	 viewBox="0 0 197.8 220.3" style="enable-background:new 0 0 197.8 220.3;" xml:space="preserve">
<style type="text/css">
	.st0{fill:#FFC133;}
	.st1{fill:#DE9100;}
	.st2{fill:#FF930A;}
	.st3{fill:#F7A23E;}
	.st4{fill:#FFFFFF;}
	.st5{enable-background:new    ;}
</style>
<g id="Capa_2_1_">
	<g id="Layer_1">
		<g>
			<path class="st0" d="M65.7,10.7c-2.6,0-4.8,2.1-4.8,4.8s2.1,4.8,4.8,4.8c2.6,0,4.8-2.1,4.8-4.8C70.5,12.9,68.3,10.7,65.7,10.7
				C65.7,10.7,65.7,10.7,65.7,10.7z"/>
		</g>
		<g>
			<path class="st1" d="M157.7,220.3l-2-2l-1.4-2.4h-4.5l-1.5-1.2l7.5-12.4l-0.7-0.5L155,201l-0.8-0.7l-1.5-0.5l-1.1-0.9h-1.9
				l-0.9-0.8l-0.4-0.7l-1.7-1l-0.8-0.5H143v1.6h-1.2l-1.6-0.2l-0.9,0.3V197l-1.2-1v1.2l-0.5-0.8V196l-2.6-0.5v-0.8l-0.9,0.6
				l-1.2,1.2l-0.6,1.2l-0.7,0.1l-1.2,0.2c0,0-0.6,0.5-0.9,0.5s-2.6,0.3-2.6,0.3l-0.5-0.1l-1.7-0.3l-1-0.2v-0.2l-0.9,0.2l-0.5,0.7
				l-1-0.2l-1.9,0.7l-0.6-1.1l-1.3-0.3c0,0-1.3-0.2-1.2-0.8s-0.7-1.3,0-1.8c0.4-0.2,0.8-0.6,1-1l-1.3-2.6l-1.3-0.8h-2.6l-0.7-0.6
				v-2.9l-0.9-1.2l-0.5-1.4L109,184h-1.9v-0.6l-0.8-1h-1.2l-0.6-0.8v-0.3h-1.3l-1.7-0.4v-2.2l-0.9-0.6l-0.4-1.2v-1.1l-1.7-1.2
				l-1.6-1.3l-1.3-0.5v-1.2l-1-0.8h-0.9v0.6l-1.4-0.6l-1.7-1.3l-0.9-0.5l-1.7,0.9l-1.5-0.9l-1.6-0.5l-0.9-0.7h-2l-1.8-1.2l-1.3-1.1
				l-1-1.2l-0.9-0.5l-1.9-0.4l-1.4,0.4v1.2l-1.3,0.8h-1.2l-1.3-0.7l-2.7,0.4l-2.7-0.8l-1.6-0.3c0,0-2.8-1-2.8-1
				c-0.2-0.5-0.3-1.1-0.4-1.6v-1c0,0-1.5-0.5-1.6-0.8c0-0.3,0-0.7,0-1l-0.8-0.8l-1.9,0.5l-2-0.5l-2.8-1.2l-0.7-0.9l-2-1l-1.4-1.2
				l-1.8-0.7l-2.4-2.3l-1.5-1.6l-0.9-0.8l0.9-1.8l1.6-0.7h3.2l-0.1-1.5l-0.9-1.3l-0.5-1.6l0.5-2L46,138l1.6-2l2.8-0.7h5.4l1-1.9
				l1.8-3l1.7-3.1l1.3-0.9c0,0,1.3-1.3,1.4-1.5s1-1.9,1-1.9s0.8-1.7,1-1.9s0.1-0.9-0.3-0.7c-0.5,0.2-0.9,0.4-1.4,0.6l-1.6-0.6
				l0.5-0.5l-0.5-0.8l-1.1-1.1c-0.3-0.5-0.5-1-0.6-1.5c0.2-0.5,0.5-0.9,0.8-1.3l1.3-3.7v-1.9l-0.7-1.6l-0.2-2.6v-2.8l-0.8-1.4h-1.7
				l0.5-0.8l0.9-0.6h1.6l0.7-1c0.3-0.3,0.4-0.7,0.5-1.1c0-0.4-0.1-0.7-0.2-1.1L62,95l-0.3-1.2l-1.5-1.3L60,91.3h0.6l0.5-0.8l0.5-1.9
				l-0.1-1l-0.3-0.7l-0.3-0.8H59l-0.4-1c0,0-1.2-1.5-1.4-1.4s0-1.1,0-1.1L57,81.9l-0.7-0.8l-1.4-1.3l-0.5-0.5l0.8-1.8
				c0.1-0.3,0.4-0.6,0.6-0.8c0.3-0.1,0.7-0.1,1,0c0,0-0.1-1.4-0.1-1.7c0.1-0.2,0.2-0.5,0.3-0.7l1.4,0.8l1,0.8l0.7-0.7l1-1.8l1.3-1.3
				l1-1.1l0.5-1.7l-2-2.8v-1.3l-1-1.4l0.6-1.6l1.1,0.9l1.4,1.4l2.2,1.7c0.3,0.5,0.6,1,1,1.4s0.7,0.9,1,1.4l-1.2,1.1l0.3,0.8l2.5-0.2
				l-0.1-3.3L69,65.2l-1.2-1.8l-0.7-0.3l0.5-0.7l2.8-0.7l2.8-1.6l1.6-1.7l2.4-3.1l1.9-2.2l3-0.7h2l0.2-0.8l0.2-2.3L83.5,49l0.6-1.3
				c0.2-0.4,0.4-0.8,0.7-1.2c0.4-0.5,0.9-1.1,0.6-1.6s-0.6-0.5-0.6-0.9c0.1-0.7,0.3-1.3,0.6-1.9c0.1-0.6,0-1.2-0.1-1.8
				c0.1-0.5,0.2-1.1,0.3-1.6c0.6-0.5,1.2-1,1.8-1.5l1.3-1.3h1.7l0.9-1.5l2.1-1.4l0.9-0.8l2,0.6l2.6,0.5h1.7l1.7-0.4l-0.5-1.5
				l0.4-1.3l1.1-0.5l1.9-0.4h2.7l2.6,0.8l2-0.2l2.5-1.3l2.1-1.3l1.5-1.1l2.1-1.7l3.4-0.7l2.9-1.2l1-1.4l0.4-2.3v-1.1h1.8
				c0,0,0.4,0.7,0.6,0.7s1.5-0.1,1.5-0.1l-0.8-1.1l1-0.8l0.9,0.5l0.4-1.2h1.3l2.3,0.4l1.6,0.7l1.6,1.3l1,2l-1.7,1.4l-1.7,1.3
				l-2.2,0.8l-2.8,1.1l-3.1,1.4l-2.4,5.4l-2.8,0.8l-2.3,3.7l-1.3,2.7l-1.6,2.8l-1.2,2.7l-0.2,2.1l-0.5,3l-1.7,1.1l-0.6,1.3l-1.2,1.6
				l-1.2,2.1l1.2,0.5l1.7-0.8l1.4-0.9l0.3,1.1l0.8,1.3l1-0.3l0.7,0.1l0.6,3.1l0.8,2.8l1.7,1.6l1.5,1.3l0.4,2.7l0.3,2.3l-1.1,0.6
				l-0.3,1.7l0.2,1.6l0.2,2.9l1.4,0.8l1.7-0.3l0.5,1.6l1.2,1.9l1.4,0.8h2.4l1.9,0.1l2.8-0.1l1.9,0.2l1.5-0.2l2.2,0.6l0.9-0.3
				l1.7-0.8l3.5,0.2l1.2,1l1.2,0.1l0.9,0.1l1.6-0.2l0.5-0.2l9.1,11l0.7-0.3l1,0.3l0.5,0.1l1.6-0.8l0.7-0.8l2.7,0.4l2.4,0.3l1.7-0.1
				l1.4-0.2l1.8-0.2l1.6-0.5c0,0,0.8-0.1,1-0.1c0.4,0,0.7,0.1,1.1,0.2l1.7-0.4l1.7-0.8l2.4,0.5l1.1,0.7l0.6,1.4l0.6,1.4l-2,1.1
				l-0.7,1.8l0.5,1.6l-0.5,1.8l-2.4,1.4l-0.2,2.5l0.5,1.9l-0.2,1.7l-0.2,1.8l-0.9,2.1l1.2,1.4l0.9,1.5l-0.3,1.9l0.6,1l0.7,2.3
				l0.4,1.8l0.9,0.4l1-0.3l0.4,1l0.9,2.2l0.7,0.7l0.9,1l-1.1,0.8l-1.6,0.8l-2.4,2.8l-2.8,2l0.5,0.5l2.1-0.3l1.5,0.8l1.1,1.3l0.7,0.5
				l0.9,0.8l1.1,1.2l1,1.2v1.9l0.4,0.8l1,0.6v1.9l1.3,2.3l0.5,1.8l0.7,2.4l0.6,1.3v1.6l-2.8,0.4l0.2-2.9l-1.7-4.6l-1-0.4l-1.7-4.7
				l-0.8,0.2l-1.7,1.8l-3.5,1.5v1.6l-1.3,0.2l-1.9-2.2l-1.3-0.3l-0.8,0.3v1.5l1,0.8l-0.4,0.3l-6.8,0.2l-3.4,0.1l-4.6-0.3l-2.4-0.8
				l-2.3,0.7l-1.6,0.3l-0.1,3.3L159,155h0.8l0.6-0.1h1.1l1.2,0.2l2.4-0.1l1.6,0.6l0.8,2l0.2,1.9l-0.8,1.5l-1.8-0.7l-1.7-1.2
				l-1.9,1.4l-2.2,0.7l-2.4,0.2l-0.5,0.7l0.1,7.8l0.3,0.6l1.3,1.6l1,0.5l1.7,1.2l1.3,0.5l0.2,1.3l-0.5,1.4l0.8,1.2l0.9,1.5l1,1.3
				v2.2l0.1,1.6l-1,3.8l-2.3,12.8l-1.8,9.4L157.7,220.3z"/>
		</g>
		<g>
			<path class="st2" d="M99.8,62.6c0.3-0.2,0.5-0.5,0.5-0.8c0,0.3-0.2,0.5-0.3,0.7C99.9,62.5,99.9,62.5,99.8,62.6z"/>
		</g>
		<g>
			<path class="st2" d="M100.2,61.5C100.2,61.5,100.2,61.6,100.2,61.5C100.2,61.6,100.2,61.5,100.2,61.5z"/>
		</g>
		<g>
			<path class="st2" d="M99,63.1l0.3-0.2L99,63.1z"/>
		</g>
		<g>
			<path class="st2" d="M110.4,63.1C111.7,59,111,59,111,59v-2.7l-3.2-2.4c-1.3-0.3-2.6-0.4-3.9-0.5c-2.3-0.1-0.8,0.6-3.3-1.3
				s-2.1-0.8-1-4.2s0.2-2.7-0.9-5s-6-8.7-6.4-9.3l-1.1,0.7l-0.9,1.5h-1.6l-1.3,1.3c0,0-0.6,0.4-1.1,0.9c0.2,1,1.1,1,3,1.9
				c2.2,1.2,0.9,1.1,1.5,2.1s0.3,1,0,2.2c-0.3,7.2,1.1,0.5,2,1.6s-0.6,0.6,2.6,4.3s1.3,2.1,3.6,4.6s0.4,2.1,1.2,3.3
				s-0.5,3.2-0.2,3.4l0,0c0,0,0.1,0.1,0.1,0.1c0,0,0.1,0.1,0.1,0.2c0,0.3-0.2,0.5-0.5,0.8c-0.2,0.1-0.4,0.3-0.6,0.4L99,63.1l1.5,1.3
				c0.5,1.1,1.2,2.2,1.9,3.2c1.3,1.8,0.4,2.2,1.2,3.4s0,1.9-0.7,4.9s0.4,2.3,0.4,2.3s0.6,0,2.1-1.3s0.4-0.8,2.5-2.3s1.3-2,1.3-2v-3
				C109.1,67.3,109.1,67.2,110.4,63.1z"/>
		</g>
		<g>
			<path class="st2" d="M100.2,61.6c0,0.1,0.1,0.1,0.1,0.2C100.3,61.7,100.3,61.7,100.2,61.6z"/>
		</g>
		<g>
			<path class="st3" d="M85.7,38.7c-0.2,0.5-0.3,1.1-0.3,1.6c0.1,0.6,0.1,1.2,0.1,1.8c-0.2,0.6-0.4,1.2-0.5,1.9
				c-0.1,0.4,0.2,0.4,0.6,0.9s-0.2,1.1-0.6,1.6l0.8,2c0.8,2,1.6,1.9,1.6,1.9c0.8,0.6,1.7,1.1,2.6,1.5c1.6,0.7,3.2,1.4,4.7,2.3
				c2.2,1.2,0,0.5-0.4,1.2c-0.5,0.6-1.2,1.2-1.9,1.6v1.7l1.8,2.5l2-0.8c1.1,0.1,2.1,0.3,3.2,0.6c0.3,0.1,0.6,0.2,0.8,0.4l0,0
				c-0.3-0.2,1-2.1,0.2-3.4s1.1-0.8-1.2-3.3s-0.4-0.9-3.6-4.6s-1.8-3.2-2.7-4.3s-2.2,5.6-2-1.6c0.3-1.2,0.6-1.2,0-2.2
				s0.8-0.9-1.5-2.1c-1.8-1-2.7-1-3-1.9C86.2,38.2,86,38.4,85.7,38.7z"/>
		</g>
		<g>
			<path class="st2" d="M99.8,62.6c-0.2,0.1-0.4,0.3-0.6,0.4C99.5,62.8,99.6,62.7,99.8,62.6z"/>
		</g>
		<g>
			<path class="st4" d="M86.8,39.7v-0.4H87V39h-0.2v-0.2h-0.2v-0.2h0.7v-0.4h0.2v0.4h0.7v0.2h-0.2V39h-0.2v0.2h0.2v0.4h-0.2v-0.2
				h-0.2v-0.2h-0.2v0.2H87v0.2H86.8z M87.5,38.8h-0.2V39h0.2V38.8z"/>
		</g>
		<g>
			<path class="st4" d="M63.5,18.6v-1.8h0.9V16h-0.9v-0.9h-0.9v-0.9h2.6v-1.8h0.9v1.8h2.6v0.9h-0.9V16H67v0.9h0.9v1.8H67v-0.9h-0.9
				v-0.9h-0.9v0.9h-0.9v0.9H63.5z M66.1,15.1h-0.9V16h0.9V15.1z"/>
		</g>
		<g>
			<rect x="89.5" y="13.5" class="st2" width="0.5" height="20.2"/>
		</g>
		<g class="st5">
			<path class="st2" d="M89.2,9.4V2.6h2.6c0.3,0,0.5,0,0.9,0.1c0.3,0,0.6,0.1,0.9,0.2C93.8,3,94,3.2,94.1,3.4c0.2,0.2,0.3,0.6,0.3,1
				c0,0.3,0,0.5-0.1,0.7S94,5.5,93.7,5.7c-0.3,0.1-0.6,0.2-1.1,0.3c0.6,0,1,0.1,1.3,0.2c0.3,0.2,0.5,0.4,0.6,0.6
				c0.1,0.2,0.2,0.5,0.2,0.8c0,0.4-0.1,0.8-0.3,1C94.2,8.8,94,9,93.7,9.1c-0.3,0.1-0.6,0.2-0.9,0.2c-0.3,0-0.6,0-0.9,0H89.2z
				 M90.2,5.5h1.5c0.3,0,0.6,0,0.9-0.1c0.3,0,0.5-0.1,0.6-0.3c0.2-0.1,0.2-0.4,0.2-0.7c0-0.3-0.1-0.6-0.2-0.7
				c-0.2-0.1-0.4-0.2-0.6-0.3c-0.3,0-0.5-0.1-0.8-0.1h-1.5V5.5z M90.2,8.6h1.6c0.3,0,0.7,0,0.9-0.1c0.3,0,0.5-0.1,0.7-0.3
				c0.2-0.2,0.3-0.4,0.3-0.7c0-0.3-0.1-0.6-0.3-0.8c-0.2-0.2-0.4-0.3-0.7-0.3c-0.3-0.1-0.6-0.1-1-0.1h-1.5V8.6z"/>
			<path class="st2" d="M98.7,9.5c-1.1,0-1.9-0.3-2.5-0.9C95.6,8,95.4,7.1,95.4,6c0-0.7,0.1-1.3,0.4-1.9s0.6-0.9,1.1-1.2
				c0.5-0.3,1.1-0.4,1.9-0.4c1.1,0,1.9,0.3,2.5,1c0.6,0.6,0.8,1.5,0.8,2.6c0,0.7-0.1,1.3-0.4,1.8c-0.3,0.5-0.6,0.9-1.1,1.2
				S99.4,9.5,98.7,9.5z M98.7,8.6c0.8,0,1.4-0.2,1.8-0.7c0.4-0.5,0.6-1.1,0.6-1.8s-0.2-1.4-0.6-1.9s-1-0.7-1.8-0.7
				c-0.8,0-1.3,0.2-1.7,0.7S96.3,5.2,96.3,6c0,0.5,0.1,0.9,0.3,1.3C96.7,7.7,97,8,97.4,8.2C97.7,8.5,98.1,8.6,98.7,8.6z"/>
			<path class="st2" d="M103.2,9.4V2.6h1v5.9h3.5v0.9H103.2z"/>
		</g>
		<g class="st5">
			<path class="st2" d="M111.6,8.5v0.9h-2.8V8.5h0.9v-5h-0.9V2.6h2.8v0.9h-0.9v5H111.6z M110.3,2.1h-0.5V1.9l0.6-1.2h0.9v0.2
				L110.3,2.1z"/>
		</g>
		<g class="st5">
			<path class="st2" d="M117.7,2.6h1.1l-2.3,6.8h-1.7l-2.3-6.8h1.1l2.1,6.3L117.7,2.6z"/>
		</g>
		<g class="st5">
			<path class="st2" d="M118.5,9.4l2.3-6.8h1.6l2.3,6.8h-1.1l-0.6-2h-2.8l-0.6,2H118.5z M121.6,3l-1.1,3.5h2.3L121.6,3z"/>
			<path class="st2" d="M125.6,9.4V2.6h2.4c0.9,0,1.5,0.1,2,0.4c0.5,0.3,0.7,0.8,0.7,1.5c0,0.5-0.1,0.9-0.4,1.3
				c-0.3,0.3-0.7,0.5-1.2,0.5c0.3,0,0.5,0.1,0.7,0.2c0.2,0.1,0.3,0.3,0.3,0.5s0.1,0.4,0.1,0.6c0,0.2,0,0.4,0.1,0.6
				c0,0.2,0.1,0.3,0.2,0.4c0.1,0.1,0.3,0.1,0.5,0v0.6c-0.1,0.1-0.3,0.2-0.4,0.2c-0.2,0-0.4,0-0.5,0c-0.2-0.1-0.3-0.2-0.5-0.4
				c-0.1-0.2-0.2-0.5-0.2-0.8c0-0.4,0-0.8-0.1-1c0-0.2-0.2-0.4-0.3-0.5c-0.2-0.1-0.5-0.2-0.8-0.2c-0.4,0-0.9,0-1.5,0v2.9H125.6z
				 M126.7,5.8h1.4c0.4,0,0.7,0,1-0.1s0.5-0.2,0.6-0.3s0.2-0.4,0.2-0.7c0-0.4-0.1-0.6-0.2-0.8s-0.4-0.3-0.7-0.3
				c-0.3,0-0.7-0.1-1.1-0.1h-1.1V5.8z"/>
		</g>
		<g class="st5">
			<path class="st0" d="M0.7,18.8V12h1.7l1.9,6.3h0L6.2,12h1.7v6.8h-1L7,12.5h0l-1.9,6.3H3.6l-1.9-6.3h0l0,6.3H0.7z"/>
			<path class="st0" d="M8.9,18.8l2.3-6.8h1.6l2.3,6.8H14l-0.6-2h-2.8l-0.6,2H8.9z M12,12.5L10.8,16h2.3L12,12.5z"/>
			<path class="st0" d="M16,18.8V12h1.7l1.9,6.3h0l1.9-6.3h1.7v6.8h-1l0.1-6.3h0l-1.9,6.3h-1.5L17,12.5h0l0,6.3H16z"/>
			<path class="st0" d="M25.6,18.8h-1V12h2.6c0.7,0,1.3,0.2,1.7,0.6c0.4,0.4,0.6,0.9,0.6,1.7c0,0.7-0.2,1.2-0.6,1.5
				c-0.4,0.4-1,0.6-1.7,0.6h-1.6V18.8z M27.1,12.9h-1.5v2.7h1.5c0.5,0,0.9-0.1,1.1-0.3s0.4-0.6,0.4-1c0-0.5-0.1-0.8-0.4-1
				C28,13,27.6,12.9,27.1,12.9z"/>
			<path class="st0" d="M33.3,18.9c-0.9,0-1.6-0.3-2.1-0.8c-0.5-0.5-0.7-1.3-0.7-2.2V12h1v3.9c0,0.5,0.1,0.9,0.3,1.2
				c0.2,0.3,0.4,0.5,0.7,0.7c0.3,0.1,0.6,0.2,0.9,0.2c0.4,0,0.7-0.1,1-0.2c0.3-0.1,0.5-0.3,0.6-0.6c0.2-0.3,0.2-0.7,0.2-1.3V12h1
				v3.9c0,1-0.2,1.7-0.7,2.2C35,18.7,34.3,18.9,33.3,18.9z"/>
			<path class="st0" d="M39.4,18.9c-0.4,0-0.7-0.1-1-0.2s-0.6-0.4-0.8-0.7c-0.2-0.3-0.3-0.7-0.3-1.2h0.9c0,0.2,0,0.4,0.1,0.5
				c0.1,0.2,0.2,0.3,0.3,0.5s0.4,0.2,0.7,0.2c0.4,0,0.7-0.1,0.8-0.3s0.3-0.6,0.3-1.1v-3.8h-1.4V12h2.4v4.4c0,0.5-0.1,1-0.2,1.3
				s-0.3,0.6-0.6,0.8C40.4,18.8,40,18.9,39.4,18.9z"/>
			<path class="st0" d="M42.5,18.8l2.3-6.8h1.6l2.3,6.8h-1.1l-0.6-2h-2.8l-0.6,2H42.5z M45.6,12.5L44.5,16h2.3L45.6,12.5z
				 M45.8,11.5h-0.5v-0.1l0.6-1.2h0.9v0.2L45.8,11.5z"/>
			<path class="st0" d="M54.3,12h1v6.8h-1.9l-2.8-6.3h0v6.3h-1V12h1.8l3,6.3h0V12z"/>
		</g>
		<g>
			<rect x="60.9" y="44.9" class="st3" width="22.5" height="0.5"/>
		</g>
		<g class="st5">
			<path class="st3" d="M25.7,47.7c-0.5,0-1-0.1-1.4-0.2c-0.4-0.2-0.8-0.4-1.1-0.7s-0.4-0.8-0.4-1.3h1c0,0,0,0.1,0,0.3
				c0,0.1,0.1,0.3,0.2,0.5s0.3,0.3,0.6,0.5s0.7,0.2,1.1,0.2c0.4,0,0.7-0.1,0.9-0.2s0.4-0.2,0.5-0.4c0.1-0.2,0.1-0.3,0.2-0.4
				c0-0.2-0.1-0.4-0.2-0.6c-0.2-0.2-0.4-0.3-0.6-0.4s-0.6-0.2-0.9-0.3s-0.6-0.2-0.9-0.3S24,44.1,23.8,44c-0.3-0.2-0.5-0.3-0.6-0.6
				c-0.1-0.2-0.2-0.6-0.2-0.9c0-0.6,0.3-1,0.8-1.3c0.5-0.3,1.1-0.5,1.9-0.5c0.5,0,0.9,0.1,1.3,0.3c0.4,0.2,0.7,0.4,1,0.8
				c0.2,0.3,0.4,0.8,0.4,1.3h-1c0-0.3-0.1-0.5-0.2-0.7c-0.1-0.2-0.3-0.3-0.5-0.4c-0.2-0.1-0.4-0.2-0.6-0.2c-0.2,0-0.4-0.1-0.5-0.1
				c-0.5,0-0.8,0.1-1.1,0.3C24.2,42,24,42.2,24,42.5c0,0.3,0.1,0.5,0.2,0.6c0.2,0.2,0.4,0.3,0.6,0.4c0.3,0.1,0.6,0.2,0.9,0.2
				c0.3,0.1,0.6,0.2,0.9,0.2s0.6,0.2,0.9,0.4c0.3,0.1,0.5,0.3,0.6,0.6s0.2,0.6,0.2,1c0,0.4-0.2,0.7-0.4,1c-0.2,0.3-0.6,0.5-1,0.6
				C26.6,47.6,26.2,47.7,25.7,47.7z"/>
			<path class="st3" d="M32.4,47.7c-0.9,0-1.6-0.3-2.1-0.8c-0.5-0.5-0.7-1.3-0.7-2.2v-3.9h1v3.9c0,0.5,0.1,0.9,0.3,1.2
				c0.2,0.3,0.4,0.5,0.7,0.7c0.3,0.1,0.6,0.2,0.9,0.2c0.4,0,0.7-0.1,1-0.2c0.3-0.1,0.5-0.3,0.6-0.6c0.2-0.3,0.2-0.7,0.2-1.3v-3.9h1
				v3.9c0,1-0.2,1.7-0.7,2.2C34,47.4,33.3,47.7,32.4,47.7z"/>
			<path class="st3" d="M39.5,47.6c-0.6,0-1.2-0.1-1.7-0.4c-0.5-0.3-0.9-0.6-1.2-1.2c-0.3-0.5-0.4-1.2-0.4-1.9
				c0-0.8,0.2-1.4,0.4-1.9c0.3-0.5,0.7-0.9,1.2-1.2c0.5-0.3,1.1-0.4,1.7-0.4c0.9,0,1.6,0.2,2.1,0.7c0.5,0.5,0.9,1.1,1,1.8h-1
				c-0.1-0.4-0.2-0.7-0.4-0.9c-0.2-0.2-0.5-0.4-0.8-0.5c-0.3-0.1-0.6-0.2-0.9-0.2c-0.8,0-1.3,0.2-1.8,0.7c-0.4,0.4-0.6,1.1-0.6,1.9
				c0,0.8,0.2,1.5,0.6,1.9c0.4,0.4,1,0.7,1.7,0.7c0.5,0,1-0.1,1.4-0.4c0.4-0.3,0.7-0.7,0.8-1.2h1c-0.1,0.8-0.5,1.4-1,1.8
				S40.4,47.6,39.5,47.6z"/>
			<path class="st3" d="M43.8,47.5v-6.8h2.4c0.9,0,1.5,0.1,2,0.4s0.7,0.8,0.7,1.5c0,0.5-0.1,0.9-0.4,1.3c-0.3,0.3-0.6,0.5-1.2,0.5
				c0.3,0,0.5,0.1,0.7,0.2c0.2,0.1,0.3,0.3,0.3,0.5c0.1,0.2,0.1,0.4,0.1,0.6s0,0.4,0.1,0.6c0,0.2,0.1,0.3,0.2,0.4
				c0.1,0.1,0.3,0.1,0.5,0v0.6c-0.1,0.1-0.3,0.2-0.4,0.2c-0.2,0-0.4,0-0.5,0c-0.2-0.1-0.3-0.2-0.5-0.4c-0.1-0.2-0.2-0.5-0.2-0.8
				c0-0.4,0-0.8-0.1-1c0-0.2-0.2-0.4-0.3-0.5c-0.2-0.1-0.5-0.2-0.8-0.2c-0.4,0-0.9,0-1.5,0v2.9H43.8z M44.8,43.9h1.4
				c0.4,0,0.7,0,1-0.1c0.3-0.1,0.5-0.2,0.6-0.3s0.2-0.4,0.2-0.7c0-0.4-0.1-0.6-0.2-0.8s-0.4-0.3-0.7-0.3s-0.7-0.1-1.1-0.1h-1.1V43.9
				z"/>
			<path class="st3" d="M51.2,46.7h3.8v0.8h-4.8v-6.8h4.7v0.9h-3.7v2.1h2.9v0.8h-2.9V46.7z"/>
		</g>
		<g class="st5">
			<path class="st4" d="M93.6,125.7c-0.8,0-1.5-0.2-2.1-0.5c-0.6-0.3-1.1-0.8-1.5-1.4c-0.4-0.6-0.5-1.4-0.5-2.4
				c0-0.9,0.2-1.7,0.6-2.4c0.4-0.7,0.9-1.1,1.5-1.5c0.6-0.3,1.4-0.5,2.2-0.5c1.1,0,2,0.3,2.6,0.9c0.7,0.6,1.1,1.3,1.2,2.3h-1.3
				c-0.1-0.5-0.3-0.9-0.5-1.2s-0.6-0.5-0.9-0.6c-0.4-0.1-0.7-0.2-1.1-0.2c-0.9,0-1.7,0.3-2.2,0.8c-0.5,0.5-0.8,1.3-0.8,2.3
				c0,1.1,0.3,1.9,0.8,2.4s1.2,0.8,2.2,0.8c0.6,0,1.2-0.2,1.7-0.5s0.8-0.8,0.9-1.5h1.3c-0.2,0.9-0.6,1.7-1.3,2.3
				C95.7,125.4,94.8,125.7,93.6,125.7z"/>
			<path class="st4" d="M102.5,125.8c-1.3,0-2.4-0.4-3.1-1.2c-0.7-0.8-1.1-1.8-1.1-3.2c0-0.9,0.2-1.7,0.5-2.3s0.8-1.2,1.4-1.5
				c0.6-0.4,1.4-0.5,2.3-0.5c1.3,0,2.4,0.4,3.1,1.2s1.1,1.9,1.1,3.2c0,0.9-0.2,1.6-0.5,2.3c-0.3,0.7-0.8,1.2-1.4,1.5
				C104.2,125.6,103.4,125.8,102.5,125.8z M102.5,124.6c1,0,1.7-0.3,2.2-0.9s0.7-1.3,0.7-2.3c0-0.9-0.2-1.7-0.7-2.3
				c-0.5-0.6-1.2-0.9-2.2-0.9c-1,0-1.7,0.3-2.2,0.9c-0.5,0.6-0.7,1.4-0.7,2.3c0,0.6,0.1,1.2,0.3,1.7c0.2,0.5,0.5,0.9,1,1.1
				C101.3,124.4,101.9,124.6,102.5,124.6z"/>
		</g>
		<g class="st5">
			<path class="st4" d="M108.2,125.6v-8.4h1.2v7.3h4.4v1.1H108.2z"/>
		</g>
		<g class="st5">
			<path class="st4" d="M118.5,125.8c-1.3,0-2.4-0.4-3.1-1.2c-0.7-0.8-1.1-1.8-1.1-3.2c0-0.9,0.2-1.7,0.5-2.3s0.8-1.2,1.4-1.5
				c0.6-0.4,1.4-0.5,2.3-0.5c1.3,0,2.4,0.4,3.1,1.2s1.1,1.9,1.1,3.2c0,0.9-0.2,1.6-0.5,2.3s-0.8,1.2-1.4,1.5
				S119.4,125.8,118.5,125.8z M118.5,124.6c1,0,1.7-0.3,2.2-0.9c0.5-0.6,0.7-1.3,0.7-2.3c0-0.9-0.2-1.7-0.7-2.3
				c-0.5-0.6-1.2-0.9-2.2-0.9c-1,0-1.7,0.3-2.2,0.9c-0.5,0.6-0.7,1.4-0.7,2.3c0,0.6,0.1,1.2,0.3,1.7s0.5,0.9,1,1.1
				C117.3,124.4,117.9,124.6,118.5,124.6z"/>
			<path class="st4" d="M124.1,125.6v-8.4h2.2l2.4,7.9h0l2.3-7.9h2.2v8.4h-1.3l0.1-7.8h0l-2.4,7.8h-1.8l-2.3-7.8h0l0.1,7.8H124.1z"
				/>
			<path class="st4" d="M134.8,125.6v-8.4h3.2c0.3,0,0.7,0,1.1,0.1c0.4,0,0.7,0.1,1.1,0.3c0.3,0.1,0.6,0.4,0.8,0.7s0.3,0.7,0.3,1.2
				c0,0.3-0.1,0.6-0.2,0.9c-0.1,0.3-0.4,0.5-0.7,0.7c-0.3,0.2-0.8,0.3-1.4,0.3c0.7,0,1.3,0.1,1.6,0.3c0.4,0.2,0.7,0.5,0.8,0.8
				s0.2,0.6,0.2,1c0,0.5-0.1,0.9-0.3,1.2c-0.2,0.3-0.5,0.5-0.9,0.7s-0.7,0.2-1.1,0.3s-0.8,0.1-1.1,0.1H134.8z M136,120.8h1.8
				c0.4,0,0.8,0,1.1-0.1s0.6-0.2,0.8-0.3c0.2-0.2,0.3-0.5,0.3-0.8c0-0.4-0.1-0.7-0.3-0.9c-0.2-0.2-0.5-0.3-0.8-0.4
				c-0.3,0-0.7-0.1-1-0.1H136V120.8z M136,124.6h2c0.4,0,0.8,0,1.2-0.1s0.6-0.2,0.8-0.4c0.2-0.2,0.3-0.5,0.3-0.9
				c0-0.4-0.1-0.7-0.3-1c-0.2-0.2-0.5-0.3-0.9-0.4c-0.4-0.1-0.8-0.1-1.2-0.1H136V124.6z"/>
			<path class="st4" d="M146.5,124.5v1.1H143v-1.1h1.2v-6.3H143v-1.1h3.5v1.1h-1.1v6.3H146.5z"/>
			<path class="st4" d="M147.8,125.6l2.8-8.4h2l2.9,8.4h-1.3l-0.8-2.5h-3.5l-0.8,2.5H147.8z M151.7,117.7l-1.4,4.4h2.8L151.7,117.7z
				"/>
		</g>
		<g>
			<polygon class="st0" points="83.4,39.1 65.4,39.1 65.4,23.6 65.9,23.6 65.9,38.6 83.4,38.6 			"/>
		</g>
		<g>
			<path class="st0" d="M87.3,37.8c-0.7,0-1.2,0.5-1.2,1.2s0.5,1.2,1.2,1.2s1.2-0.5,1.2-1.2c0,0,0,0,0,0
				C88.5,38.3,88,37.8,87.3,37.8L87.3,37.8z"/>
		</g>
	</g>
</g>
</svg>
