<svg xmlns="http://www.w3.org/2000/svg" viewBox="0 0 207.62 277.04"><defs><style>.cls-1,.cls-10,.cls-9{fill:#ff930a;}.cls-2{fill:#ffc133;}.cls-3{font-size:13.28px;fill:#fff;}.cls-10,.cls-3{font-family:DarkerGrotesque-Black, Darker Grotesque;font-weight:800;}.cls-4,.cls-5{font-family:DarkerGrotesque-SemiBold, Darker Grotesque;font-weight:600;}.cls-4{letter-spacing:0em;}.cls-6{letter-spacing:-0.04em;}.cls-7{letter-spacing:0.01em;}.cls-8{letter-spacing:0.01em;}.cls-9{font-size:25.93px;font-family:Terminal-Grotesque, Terminal Grotesque;}.cls-10{font-size:12px;}.cls-11{fill:none;stroke:#ff930a;stroke-miterlimit:10;}</style></defs><g id="Capa_2" data-name="Capa 2"><g id="Layer_1" data-name="Layer 1"><circle class="cls-1" cx="103.81" cy="173.23" r="103.8"/><path class="cls-2" d="M103.81,69.43h-.3l.3,103.8L5,205a104,104,0,0,0,98.81,72c56.94,0,103.8-46.86,103.8-103.81S160.75,69.43,103.81,69.43Z"/><text class="cls-3" transform="translate(38.91 125.03)">32%<tspan class="cls-4" x="22.99" y="0"> </tspan><tspan class="cls-5"><tspan x="-14.2" y="15.11">RES</tspan><tspan class="cls-6" x="6.69" y="15.11">T</tspan><tspan x="12.26" y="15.11">AN</tspan><tspan class="cls-7" x="27.51" y="15.11">T</tspan><tspan x="33.71" y="15.11">E</tspan><tspan x="-27.83" y="30.21">DE POBLACIÓN</tspan></tspan></text><text class="cls-3" transform="translate(124.9 184.29)">68%<tspan class="cls-5" x="23.77" y="0"> </tspan><tspan class="cls-5"><tspan class="cls-8" x="-15.57" y="15.11">V</tspan><tspan x="-8.32" y="15.11">ÍCTIMAS </tspan><tspan x="-30.13" y="30.21">DEL CONFLICTO</tspan></tspan></text><text class="cls-9" transform="translate(68.05 36.73)">45.262</text><text class="cls-10" transform="translate(72.64 11.29)">POBLACIÓN:</text><path class="cls-11" d="M141.07,43.47h3.46V41.74h1.74V26.16H148V24.43h1.73V22.69h1.73V21h-1.73V19.23H148V17.5h-1.73V3.65h-1.74V1.92h-3.46"/><path class="cls-11" d="M66.55.5H63.08V2.23H61.35V17.81H59.62v1.74H57.89v1.73H56.16V23h1.73v1.73h1.73v1.73h1.73V40.32h1.73v1.73h3.47"/></g></g></svg>