<svg xmlns="http://www.w3.org/2000/svg" viewBox="0 0 207.62 277.04"><defs><style>.a5f2e5bb-3b9b-4302-bee6-a26e5c68899f,.b96c734d-4fc9-483b-a7e6-205f6b9adc45,.bc4861e1-eecd-4572-a167-d89211ca6391{fill:#ff930a;}.ac9a31bd-e3de-4a60-aeab-37c124137a2b{fill:#ffc133;}.a0ae53d4-2813-49b7-a44a-d47855950dbb{font-size:13.28px;fill:#fff;}.a0ae53d4-2813-49b7-a44a-d47855950dbb,.b96c734d-4fc9-483b-a7e6-205f6b9adc45{font-family:DarkerGrotesque-Black, Darker Grotesque;font-weight:800;}.b79d0432-cd6d-4f76-8295-fc71982e5e1e,.fb0199cb-9595-4e5c-bd68-3cf8de66c737{font-family:DarkerGrotesque-SemiBold, Darker Grotesque;font-weight:600;}.b79d0432-cd6d-4f76-8295-fc71982e5e1e,.f411390b-6111-4d70-8c06-f6cbc46d3e0e{letter-spacing:0em;}.b5e823d2-20d0-4653-9efe-e08db64da7af{letter-spacing:-0.04em;}.f55685da-032e-419d-af1a-0a9461785c07{letter-spacing:0.01em;}.a5f2e5bb-3b9b-4302-bee6-a26e5c68899f{font-size:25.93px;font-family:Terminal-Grotesque, Terminal Grotesque;}.b96c734d-4fc9-483b-a7e6-205f6b9adc45{font-size:12px;}.a5e19039-2ab5-4dcf-a3f3-cb752aedac2a{letter-spacing:-0.02em;}.b669f674-44dc-4468-9d38-610c499adf53{fill:none;stroke:#ff930a;stroke-miterlimit:10;}</style></defs><g id="a610e444-6f08-46f6-b076-440e9160d5b8" data-name="Capa 2"><g id="f4b2a9f6-e6a5-4c78-a445-6f8714b93a8b" data-name="Layer 1"><circle class="bc4861e1-eecd-4572-a167-d89211ca6391" cx="103.81" cy="173.23" r="103.8"/><path class="ac9a31bd-e3de-4a60-aeab-37c124137a2b" d="M103.81,69.43h-.3l.3,103.8L5,205a104,104,0,0,0,98.81,72c56.94,0,103.8-46.86,103.8-103.81S160.75,69.43,103.81,69.43Z"/><text class="a0ae53d4-2813-49b7-a44a-d47855950dbb" transform="translate(38.91 125.03)">32%<tspan class="b79d0432-cd6d-4f76-8295-fc71982e5e1e" x="22.99" y="0"> </tspan><tspan class="fb0199cb-9595-4e5c-bd68-3cf8de66c737"><tspan x="-19.06" y="15.11">REMAINING</tspan><tspan x="-30.15" y="30.21">OF POPUL</tspan><tspan class="b5e823d2-20d0-4653-9efe-e08db64da7af" x="22.49" y="30.21">A</tspan><tspan class="f411390b-6111-4d70-8c06-f6cbc46d3e0e" x="29.36" y="30.21">TION</tspan></tspan></text><text class="a0ae53d4-2813-49b7-a44a-d47855950dbb" transform="translate(124.9 184.29)">68%<tspan class="fb0199cb-9595-4e5c-bd68-3cf8de66c737" x="23.77" y="0"> </tspan><tspan class="fb0199cb-9595-4e5c-bd68-3cf8de66c737"><tspan class="f55685da-032e-419d-af1a-0a9461785c07" x="-10.38" y="15.11">V</tspan><tspan x="-3.13" y="15.11">ICTIMS</tspan><tspan x="-34.65" y="30.21">OF THE CONFLICT</tspan></tspan></text><text class="a5f2e5bb-3b9b-4302-bee6-a26e5c68899f" transform="translate(68.05 36.73)">45.262</text><text class="b96c734d-4fc9-483b-a7e6-205f6b9adc45" transform="translate(70.27 11.29)">POPUL<tspan class="a5e19039-2ab5-4dcf-a3f3-cb752aedac2a" x="32.66" y="0">A</tspan><tspan x="39.58" y="0">TION:</tspan></text><path class="b669f674-44dc-4468-9d38-610c499adf53" d="M141.07,43.47h3.46V41.74h1.74V26.16H148V24.43h1.73V22.69h1.73V21h-1.73V19.23H148V17.5h-1.73V3.65h-1.74V1.92h-3.46"/><path class="b669f674-44dc-4468-9d38-610c499adf53" d="M66.55.5H63.08V2.23H61.35V17.81H59.62v1.74H57.89v1.73H56.16V23h1.73v1.73h1.73v1.73h1.73V40.32h1.73v1.73h3.47"/></g></g></svg>