<svg xmlns="http://www.w3.org/2000/svg" viewBox="0 0 197.75 220.3"><defs><style>.cls-1,.cls-11{fill:#ffc133;}.cls-2{fill:#de9100;}.cls-3,.cls-7{fill:#ff930a;}.cls-13,.cls-4{fill:#f7a23e;}.cls-14,.cls-5{fill:#fff;}.cls-12,.cls-17,.cls-6{fill:none;stroke-miterlimit:10;stroke-width:0.5px;}.cls-6{stroke:#ff930a;}.cls-11,.cls-13,.cls-7{font-size:12px;}.cls-11,.cls-13,.cls-14,.cls-7{font-family:DarkerGrotesque-SemiBold, Darker Grotesque;font-weight:600;}.cls-8{letter-spacing:0.01em;}.cls-9{letter-spacing:-0.05em;}.cls-10{letter-spacing:0em;}.cls-12{stroke:#f7a23e;}.cls-14{font-size:14.94px;}.cls-15{letter-spacing:0em;}.cls-16{letter-spacing:0em;}.cls-17{stroke:#ffc133;}</style></defs><g id="Capa_2" data-name="Capa 2"><g id="Layer_1" data-name="Layer 1"><path class="cls-1" d="M65.69,10.74a4.77,4.77,0,1,0,4.78,4.77A4.77,4.77,0,0,0,65.69,10.74Z"/><path class="cls-2" d="M157.73,220.3l-2-2-1.42-2.43h-4.49l-1.5-1.17,7.49-12.38-.72-.51L155,201l-.8-.67-1.49-.5-1.1-.92H149.7l-.95-.76-.39-.66-1.74-1-.78-.5H143v1.59h-1.19l-1.65-.17-.94.34V197L138,196v1.25l-.54-.83V196l-2.6-.5v-.84l-.87.59-1.18,1.17-.55,1.17-.71.08-1.18.17s-.55.5-.87.5-2.6.34-2.6.34l-.54-.08-1.66-.34-1-.17v-.25l-.94.25-.47.67-1-.25-1.89.67-.55-1.09-1.34-.33s-1.26-.25-1.18-.84-.72-1.34,0-1.76a2.89,2.89,0,0,0,1-1L116,191.53l-1.27-.84h-2.61l-.7-.58v-2.85l-.87-1.17-.47-1.42L109,184H107.1v-.59l-.79-1h-1.19l-.62-.76v-.33h-1.26l-1.66-.42v-2.25l-.86-.59-.4-1.17V175.8l-1.73-1.17L97,173.37l-1.27-.5V171.7l-1-.84h-.87v.59l-1.41-.59-1.74-1.34-.86-.5-1.74.92L86.62,169l-1.58-.5-.87-.67h-2l-1.81-1.17-1.33-1.09-1-1.25-.94-.51-1.89-.41-1.42.41V165l-1.34.76H71.26l-1.34-.67-2.68.42-2.67-.75L63,164.42s-2.76-1-2.84-1a13.15,13.15,0,0,1-.39-1.59v-1s-1.5-.5-1.57-.75a4,4,0,0,1,0-1l-.79-.76-1.89.51-2-.51-2.76-1.25-.71-.92-2-1L46.68,154l-1.81-.66L42.51,151,41,149.45l-.86-.76.94-1.84,1.58-.67h3.15l-.09-1.5-.87-1.26-.55-1.59.55-2L46,138l1.57-2,2.83-.67h5.36l1-1.93,1.81-3,1.65-3.09,1.34-.92s1.26-1.26,1.42-1.51,1-1.92,1-1.92.79-1.68,1-1.92.08-.93-.31-.67a9.29,9.29,0,0,1-1.42.58l-1.58-.64.55-.53-.55-.81-1.1-1.11a9.18,9.18,0,0,1-.63-1.51,6.31,6.31,0,0,1,.79-1.34L62,111.3v-1.93l-.72-1.58-.23-2.6v-2.84L60.3,101H58.64l.48-.75.94-.59h1.58l.71-1a2.14,2.14,0,0,0,.48-1.08,3.47,3.47,0,0,0-.24-1.09L62,95l-.32-1.18-1.5-1.33L60,91.31h.64l.55-.84.47-1.93-.08-1-.31-.67-.32-.75H59l-.39-1s-1.19-1.5-1.42-1.42,0-1.08,0-1.08L57,81.94l-.72-.84-1.41-1.26-.55-.49.78-1.85a2.08,2.08,0,0,1,.63-.83,1.35,1.35,0,0,1,1,0s-.08-1.42-.08-1.68a1.64,1.64,0,0,1,.32-.67l1.41.84,1,.84.7-.67,1-1.84,1.26-1.34.95-1.09.47-1.67-2.05-2.76V65.37L60.7,64l.63-1.59,1.1.92,1.42,1.43L66,66.46a7.24,7.24,0,0,0,1,1.42,7.24,7.24,0,0,1,1,1.42l-1.25,1.09.31.83L69.6,71l-.08-3.34-.47-2.43-1.19-1.76-.7-.33.47-.67,2.76-.67,2.75-1.59,1.57-1.67,2.45-3.1,1.89-2.17L82,52.57H84l.23-.75.23-2.26L83.54,49l.63-1.26a7.08,7.08,0,0,1,.71-1.17c.39-.5.94-1.08.63-1.58s-.63-.51-.55-.92a13.59,13.59,0,0,1,.55-1.93,6.8,6.8,0,0,0-.08-1.84,8.68,8.68,0,0,1,.31-1.59,20.51,20.51,0,0,1,1.82-1.51l1.26-1.33h1.65l.86-1.51,2.13-1.42.87-.75,2,.58,2.64.5h1.69l1.65-.41-.47-1.51.4-1.34,1.1-.5,1.89-.42h2.68l2.6.76,2-.17L115,28.4l2.13-1.34,1.5-1.09,2.12-1.68,3.39-.67L127,22.37,128,21l.4-2.26V17.6h1.81s.39.67.62.67,1.5-.08,1.5-.08l-.78-1.09,1-.84.86.5.4-1.25h1.34l2.28.42,1.58.67,1.65,1.34,1,2L140,21.37l-1.74,1.33-2.2.84-2.77,1.09-3.14,1.42-2.37,5.44-2.84.83L122.6,36l-1.26,2.68-1.57,2.85-1.18,2.67-.16,2.09-.54,3-1.67,1.09-.55,1.34-1.18,1.59-1.18,2.09,1.18.5,1.66-.75,1.41-.92.34,1.09.84,1.34,1-.34.71.09.63,3.09.79,2.85,1.65,1.58,1.5,1.26.39,2.68.32,2.26-1.11.58-.31,1.68L124.5,74l.15,2.93,1.42.84,1.66-.34.55,1.59,1.18,1.92,1.41.84h2.45l1.89.09,2.84-.09,1.88.25,1.5-.16,2.21.58.94-.33,1.73-.84,3.47.17,1.18,1,1.19.09.93.08,1.58-.25.47-.17,9.07,11,.7-.34,1,.34.47.08,1.58-.75.7-.76,2.68.42,2.36.33,1.74-.08,1.42-.25,1.81-.17,1.57-.5s.79-.09,1-.09a11,11,0,0,1,1.1.17l1.73-.42,1.66-.84,2.36.51,1.1.67.55,1.42.63,1.42-2,1.09-.71,1.84.47,1.59-.54,1.75-2.37,1.43L185,104.6l.48,1.92-.24,1.67-.16,1.76-.86,2.09,1.18,1.42.87,1.51-.33,1.93.64,1,.7,2.34.4,1.76.86.42,1-.33.39,1,.86,2.18.72.67.86,1-1.1.75-1.58.75-2.44,2.77-2.83,2,.46.5,2.14-.33,1.49.84,1.1,1.33.72.51.94.75,1.1,1.17,1,1.17V141l.39.76,1,.58v1.92l1.26,2.34.47,1.76.71,2.43.55,1.34v1.59l-2.76.42.24-2.93-1.73-4.6-1-.42-1.66-4.68-.78.16-1.66,1.76-3.54,1.5v1.59l-1.26.17-1.89-2.18-1.26-.33-.79.33V146l1,.84-.39.33-6.77.17-3.39.09-4.57-.26-2.36-.83-2.29.67-1.64.33-.09,3.26L159,155h.79l.55-.09h1.1l1.18.25,2.45-.08,1.58.58.78,2,.24,1.93-.79,1.5-1.81-.67-1.73-1.17-1.9,1.43-2.19.66-2.45.25-.47.67.15,7.78.32.59,1.26,1.59,1,.5,1.74,1.17,1.34.5.23,1.34-.47,1.42.79,1.18.94,1.5,1,1.26v2.25l.15,1.6-1,3.84-2.29,12.81-1.8,9.45Z"/><path class="cls-3" d="M99.81,62.56c.29-.24.53-.52.49-.78a1.22,1.22,0,0,1-.35.66A.87.87,0,0,1,99.81,62.56Z"/><path class="cls-3" d="M100.17,61.51s0,.07.07.1A.61.61,0,0,0,100.17,61.51Z"/><path class="cls-3" d="M99,63.1l.3-.17Z"/><path class="cls-3" d="M110.4,63.1C111.66,59,111,59,111,59v-2.7l-3.15-2.43a22.41,22.41,0,0,0-3.88-.45c-2.34-.09-.76.63-3.28-1.27s-2.12-.81-1-4.23.18-2.7-.9-5-6-8.73-6.44-9.32l-1.1.73-.86,1.51H88.82l-1.26,1.33s-.58.44-1.09.86c.25,1,1.12,1,3,1.93,2.24,1.17.9,1.08,1.49,2.07s.3,1,0,2.24c-.27,7.2,1.07.54,2,1.62s-.63.63,2.61,4.32,1.35,2.07,3.6,4.59.36,2.07,1.17,3.33-.5,3.16-.16,3.38h0a.61.61,0,0,1,.07.1.32.32,0,0,1,.06.17c0,.26-.2.54-.49.78a3.78,3.78,0,0,1-.55.37l-.3.17,1.53,1.35a23.35,23.35,0,0,0,1.89,3.15c1.26,1.8.45,2.25,1.17,3.42s0,1.9-.72,4.87.45,2.34.45,2.34.63,0,2.07-1.35.45-.81,2.53-2.34,1.26-2,1.26-2V69.49C109.14,67.33,109.14,67.15,110.4,63.1Z"/><path class="cls-3" d="M100.24,61.61a.49.49,0,0,1,.06.17A.32.32,0,0,0,100.24,61.61Z"/><path class="cls-4" d="M85.74,38.68a8.68,8.68,0,0,0-.31,1.59,6.8,6.8,0,0,1,.08,1.84A13.84,13.84,0,0,0,85,44c-.08.42.23.42.55.93s-.24,1.08-.63,1.58l.83,2.05c.84,2,1.63,1.89,1.63,1.89A10.11,10.11,0,0,0,90,51.92a32,32,0,0,1,4.68,2.35c2.17,1.17,0,.54-.36,1.17a8.15,8.15,0,0,1-1.89,1.62v1.71l1.8,2.52,2-.81a16.07,16.07,0,0,1,3.15.63,1.91,1.91,0,0,1,.85.4h0c-.34-.22,1-2.12.16-3.38s1.08-.81-1.17-3.33-.36-.9-3.6-4.59S93.84,47,92.94,45.89s-2.24,5.58-2-1.62c.26-1.25.55-1.25,0-2.24s.75-.9-1.49-2.07c-1.85-1-2.72-1-3-1.93A5.77,5.77,0,0,0,85.74,38.68Z"/><path class="cls-3" d="M99.81,62.56a4.42,4.42,0,0,1-.55.37A3.78,3.78,0,0,0,99.81,62.56Z"/><path class="cls-5" d="M86.79,39.71v-.44H87v-.22h-.22v-.22h-.22v-.21h.66v-.44h.22v.44h.66v.21h-.22v.22h-.22v.22h.22v.44h-.22v-.22h-.22v-.22h-.22v.22H87v.22Zm.66-.88h-.22v.22h.22Z"/><path class="cls-5" d="M63.5,18.58V16.83h.88V16H63.5v-.88h-.88v-.88h2.64V12.44h.87v1.75h2.63v.88h-.87V16H67v.88h.88v1.75H67V17.7h-.88v-.87h-.87v.87h-.88v.88Zm2.63-3.51h-.87V16h.87Z"/><line class="cls-6" x1="89.7" y1="13.47" x2="89.7" y2="33.68"/><text class="cls-7" transform="translate(88.53 9.38)">BOL<tspan class="cls-8" x="19.51" y="0">Í</tspan><tspan class="cls-9" x="23.95" y="0">V</tspan><tspan class="cls-10" x="29.76" y="0">AR</tspan></text><text class="cls-11" transform="translate(0 18.79)">MAMPUJÁN</text><line class="cls-12" x1="83.42" y1="45.16" x2="60.92" y2="45.16"/><text class="cls-13" transform="translate(22.38 47.53)">SUCRE</text><text class="cls-14" transform="translate(89.14 125.59)">CO<tspan class="cls-15" x="18.04" y="0">L</tspan><tspan class="cls-16" x="24.97" y="0">OMBIA</tspan></text><polyline class="cls-17" points="83.42 38.84 65.69 38.84 65.69 23.58"/><path class="cls-1" d="M87.34,37.75a1.2,1.2,0,1,0,1.19,1.19A1.19,1.19,0,0,0,87.34,37.75Z"/></g></g></svg>