<?xml version="1.0" encoding="utf-8"?>
<!-- Generator: Adobe Illustrator 24.1.2, SVG Export Plug-In . SVG Version: 6.00 Build 0)  -->
<svg version="1.1" id="Capa_1" xmlns="http://www.w3.org/2000/svg" xmlns:xlink="http://www.w3.org/1999/xlink" x="0px" y="0px"
	 viewBox="0 0 210.5 203.8" style="enable-background:new 0 0 210.5 203.8;" xml:space="preserve">
<style type="text/css">
	.st0{fill:#0DB1CB;}
	.st1{fill:#0C6186;}
	.st2{fill:#5BE2CA;}
	.st3{fill:#FFFFFF;}
	.st4{enable-background:new    ;}
</style>
<g id="Capa_2_1_">
	<g id="Layer_1">
		<g>
			<path class="st0" d="M170.6,203.8l-2-2l-1.4-2.4h-4.5l-1.5-1.2l7.4-12.3l-0.7-0.5l-0.2-0.8l-0.8-0.7l-1.5-0.5l-1.1-0.9h-1.9
				l-0.9-0.7l-0.4-0.7l-1.7-1l-0.8-0.5H156v1.6h-1.2l-1.6-0.2l-0.9,0.3v-0.8l-1.3-1v1.2l-0.5-0.8v-0.4l-2.6-0.5v-0.8l-0.9,0.6
				l-1.2,1.2l-0.6,1.2l-0.7,0.1l-1.2,0.2c0,0-0.6,0.5-0.9,0.5s-2.6,0.3-2.6,0.3l-0.6-0.1l-1.6-0.3l-1-0.2v-0.2l-0.9,0.2l-0.5,0.7
				l-0.9-0.2l-1.9,0.7l-0.6-1.1l-1.3-0.3c0,0-1.3-0.2-1.2-0.8s-0.7-1.3,0-1.8c0.4-0.2,0.8-0.6,1-1l-1.3-2.6l-1.3-0.8h-2.6l-0.7-0.6
				v-2.8l-0.9-1.2l-0.5-1.4l-1.1-0.7h-1.9v-0.6l-0.8-1h-1.2l-0.6-0.8V165h-1.2l-1.7-0.4v-2.2l-0.9-0.6l-0.4-1.2v-1.1l-1.7-1.2
				l-1.6-1.2l-1.2-0.5v-1.2l-1-0.8h-0.9v0.6l-1.4-0.6l-1.7-1.3l-0.9-0.5l-1.7,0.9l-1.5-0.9l-1.6-0.5l-0.9-0.7h-2l-1.8-1.2l-1.3-1.1
				l-1-1.2l-0.9-0.5l-1.9-0.4l-1.4,0.4v1.2l-1.3,0.8h-1.2l-1.3-0.7l-2.7,0.4l-2.7-0.8l-1.6-0.3c0,0-2.7-1-2.8-1
				c-0.2-0.5-0.3-1.1-0.4-1.6v-1c0,0-1.5-0.5-1.6-0.8c0-0.3,0-0.7,0-1l-0.8-0.8l-1.9,0.5l-2-0.5l-2.8-1.2l-0.7-0.9l-2-1l-1.3-1.2
				l-1.8-0.7l-2.3-2.2l-1.5-1.6l-0.9-0.8l0.9-1.8l1.6-0.7h3.1l-0.1-1.5l-0.9-1.2l-0.6-1.6l0.6-2l1.1-1.8l1.6-2l2.8-0.7h5.3l0.9-1.9
				l1.8-3l1.7-3.1l1.3-0.9c0,0,1.3-1.2,1.4-1.5s1-1.9,1-1.9s0.8-1.7,0.9-1.9s0.1-0.9-0.3-0.7c-0.5,0.2-0.9,0.4-1.4,0.6l-1.5-0.6
				l0.6-0.5l-0.6-0.8l-1.1-1.1c-0.3-0.5-0.5-1-0.6-1.5c0.2-0.5,0.4-0.9,0.7-1.3l1.3-3.7v-1.9l-0.7-1.6l-0.2-2.6v-2.8l-0.7-1.3h-1.6
				l0.5-0.8l0.9-0.6H75l0.7-1c0.3-0.3,0.4-0.7,0.5-1.1c0-0.4-0.1-0.7-0.2-1.1l-0.6-1.5L75,77.9l-1.5-1.3l-0.2-1.2H74l0.6-0.8
				l0.4-1.9l-0.1-1L74.6,71l-0.3-0.8h-1.9l-0.4-1c0,0-1.2-1.5-1.4-1.4s0-1.1,0-1.1l-0.2-0.7l-0.7-0.8L68.3,64l-0.6-0.5l0.8-1.8
				c0.1-0.3,0.4-0.6,0.6-0.8c0.3-0.1,0.7-0.1,1,0c0,0-0.1-1.4-0.1-1.7c0.1-0.2,0.2-0.5,0.3-0.7l1.4,0.8l0.9,0.8l0.7-0.7l1-1.8
				l1.2-1.3l1-1.1l0.5-1.7l-2-2.8v-1.2l-1-1.3l0.6-1.6l1.1,0.9l1.4,1.4l2.1,1.7c0.3,0.5,0.6,1,1,1.4c0.4,0.4,0.7,0.9,1,1.4l-1.2,1.1
				l0.3,0.8l2.6-0.2l-0.1-3.3l-0.5-2.4l-1.2-1.8l-0.7-0.3l0.5-0.7l2.7-0.7l2.8-1.6l1.5-1.6l2.4-3.1l1.9-2.2l2.9-0.7h2l0.2-0.8
				l0.2-2.2l-0.9-0.6l0.6-1.2c0.2-0.4,0.4-0.8,0.7-1.2c0.4-0.5,0.9-1.1,0.6-1.6s-0.6-0.5-0.5-0.9c0.1-0.7,0.3-1.3,0.5-1.9
				c0.1-0.6,0-1.2-0.1-1.8c0.1-0.5,0.2-1.1,0.4-1.6c0.6-0.5,1.2-1,1.8-1.5l1.2-1.3h1.7l0.9-1.5l2.1-1.4l0.9-0.8l2,0.6l2.6,0.5h1.7
				l1.7-0.4l-0.5-1.5l0.4-1.3l1.1-0.5l1.9-0.4h2.6l2.6,0.8l2-0.2l2.5-1.2l2.1-1.3l1.5-1.1l2.1-1.7l3.4-0.7l2.8-1.2l1-1.4l0.4-2.2
				V2.1h1.8c0,0,0.4,0.7,0.6,0.7s1.5-0.1,1.5-0.1l-0.8-1.1l1-0.8l0.9,0.5l0.4-1.2h1.3l2.3,0.4l1.6,0.7l1.6,1.3l1,2L153,5.8l-1.7,1.3
				L149.1,8l-2.7,1.1l-3.1,1.4l-2.4,5.4l-2.8,0.8l-2.4,3.7l-1.2,2.7l-1.6,2.8l-1.2,2.7l-0.2,2.1l-0.5,3l-1.7,1.1l-0.5,1.3l-1.2,1.6
				l-1.2,2.1l1.2,0.5l1.6-0.8l1.4-0.9l0.3,1.1l0.9,1.3l1-0.3l0.7,0.1l0.6,3.1l0.8,2.8l1.6,1.6l1.5,1.2l0.4,2.7l0.3,2.2l-1.1,0.6
				l-0.3,1.7l0.1,1.6l0.1,2.9l1.4,0.8l1.6-0.3l0.5,1.6l1.2,1.9l1.4,0.8h2.4l1.9,0.1l2.8-0.1l1.9,0.2l1.5-0.2l2.2,0.6l0.9-0.3
				l1.7-0.8l3.4,0.2l1.2,1l1.2,0.1l0.9,0.1l1.6-0.2l0.5-0.2l9,11l0.7-0.3l1,0.3l0.5,0.1l1.6-0.8l0.7-0.8l2.7,0.4l2.4,0.3l1.7-0.1
				l1.4-0.2l1.8-0.2l1.6-0.5c0,0,0.8-0.1,1-0.1s1.1,0.2,1.1,0.2l1.7-0.4l1.6-0.8l2.4,0.5l1.1,0.7l0.6,1.4l0.6,1.4l-2,1.1l-0.7,1.8
				l0.5,1.6l-0.6,1.8l-2.3,1.4l-0.2,2.5l0.5,1.9l-0.2,1.7l-0.1,1.8l-0.9,2.1l1.2,1.4L199,99l-0.3,1.9l0.6,1l0.7,2.3l0.4,1.8l0.9,0.4
				l1-0.3l0.4,1l0.9,2.2l0.7,0.7l0.9,1l-1.1,0.8l-1.6,0.7l-2.4,2.7l-2.8,2l0.5,0.5l2.1-0.3l1.5,0.8l1.1,1.3l0.7,0.5l0.9,0.8l1.1,1.2
				l0.9,1.2v1.8l0.4,0.8l1,0.6v1.9l1.3,2.3l0.5,1.8l0.7,2.4l0.6,1.3v1.6l-2.7,0.4l0.3-2.9l-1.7-4.6l-1-0.4l-1.6-4.7l-0.8,0.2
				l-1.6,1.8l-3.5,1.5v1.6l-1.3,0.2l-1.9-2.2l-1.3-0.3l-0.8,0.3v1.5l1,0.8l-0.4,0.3l-6.8,0.2l-3.4,0.1l-4.5-0.2l-2.4-0.8l-2.3,0.7
				l-1.6,0.3l-0.1,3.2l-0.2,4.3h0.8l0.5-0.1h1.1l1.2,0.2l2.4-0.1l1.6,0.6l0.8,2l0.2,1.9l-0.8,1.5l-1.8-0.7l-1.8-1.2l-1.9,1.4
				l-2.2,0.7l-2.4,0.2l-0.5,0.7l0.1,7.7l0.3,0.6l1.3,1.6l1,0.5l1.7,1.2l1.3,0.5l0.2,1.3l-0.5,1.4l0.8,1.2l0.9,1.5l0.9,1.2v2.3
				l0.1,1.6l-1,3.8l-2.3,12.7l-1.8,9.4L170.6,203.8z"/>
		</g>
		<g>
			<path class="st1" d="M87.3,43.5c0,0,3.8,2,2,7.8c-0.5,1.3-5.7,8.1-0.7,9.3c1.1,0.1,5.8,3.2,8.6-3.1c0.1-0.6,2.5-7,8.7-5
				c0.6,0.4,4.8,0.7,4.3,6.3c-0.1,1.6-0.3,5.9,1.8,6.3c0.6,0.2,3.2,1.7,4.8-1.8c0.5-0.5,2.2-0.1,1.3,2.4c-1,2.3-3.2,6.4-5.8,5.4
				c-0.1-0.3-1.2-0.1-0.7,1.3c-0.2,0.6,0.5,3-1.8,4.2c-0.3,0.1-2.4-3.6-1.5,2c0.1,0.4,0.1,0.8,0.2,1.3c0.4,2.3-2.3,0.5-3.8,0.9
				c-0.5,0.2-3.2,0.2-3.2,2.5c0,1.9-5-2.8-4.8-2.2c0.2,0.7,1.8,4.6,1.1,5.4c-0.3,0.4-1.9-0.7-3.3-0.5s-2.9,1.5-3.4,0.4
				c-0.9-2-0.1-4.4-1.2-5.8s-1-3.1-3.4-2.7s-5.1-0.8-5.2-3.4c0-0.7-0.6-0.7-1.5-2.7s-0.5-1.6,0-3s-0.8-2.6,0.3-3.3s5.7,0.1,3.7-2.1
				S78,58.6,79.2,57l1.2-1.6l2.6-0.2c0,0-0.1-6.9-2.4-7.8l0.4-0.7C81,46.7,84,46.6,87.3,43.5z"/>
		</g>
		<g>
			<path class="st2" d="M108.2,78.5c0,0,0.2-0.7-0.8-0.8s-1.3-0.7-1.7,0s-0.2,1.2-0.7,1.1s-0.4-0.6-0.7,0c-0.1,0.3-0.3,0.6-0.6,0.8
				c0,0-1.1,1.2-0.7,0s1.4-1,0.3-1.2s0.8-1.4-0.6-0.6s0.4,0.3-1,0.6s-0.1,0-0.9,0s-0.2,0.3-0.7,0.4s-0.1-1.5-0.6-0.3s1.5,0.1,0,0.9
				s-1,0.3-1,0.3s-0.8,0.8-0.8,1.1s-0.4,0.7,0,1s1.8,1.3,2,1.4s0.9,0.1,0.5-0.8s-0.8-1.9-0.1-1.6s0.9,0.5,0.8-0.1
				c0-0.3,0.1-0.7,0.4-0.9c0,0,0.8,0.8,1.5,0.7s1-0.6,1.7-0.4s0.5,0.4,1.5,0.6s1.9,0.4,2.2,0.1S108.7,80.9,108.2,78.5z"/>
		</g>
		<g>
			<path class="st3" d="M105.6,80v-0.8h0.4v-0.4h-0.4v-0.4h-0.4v-0.4h1.2v-0.8h0.4v0.8h1.2v0.4h-0.4v0.4h-0.4v0.4h0.4V80h-0.4v-0.4
				h-0.4v-0.4h-0.4v0.4h-0.4V80H105.6z M106.7,78.5h-0.4v0.4h0.4V78.5z"/>
		</g>
		<g>
			<rect x="58.2" y="59.3" class="st1" width="6" height="0.5"/>
		</g>
		<g class="st4">
			<path class="st1" d="M0.2,61.9l2.3-6.8h1.6l2.3,6.8H5.4l-0.6-2H1.9l-0.6,2H0.2z M3.3,55.6l-1.1,3.5h2.3L3.3,55.6z"/>
			<path class="st1" d="M12.1,55.2h1v6.8h-1.9l-2.8-6.3h0v6.3h-1v-6.8h1.8l3,6.3h0V55.2z"/>
			<path class="st1" d="M13.9,56v-0.9h5.2V56H17v5.9h-1V56H13.9z"/>
			<path class="st1" d="M22.8,61v0.9H20V61h0.9v-5H20v-0.9h2.8V56h-0.9v5H22.8z"/>
			<path class="st1" d="M27.1,62.1c-1.1,0-1.9-0.3-2.5-0.9c-0.6-0.6-0.9-1.5-0.9-2.6c0-0.7,0.1-1.3,0.4-1.9s0.6-0.9,1.1-1.2
				c0.5-0.3,1.1-0.4,1.9-0.4c1.1,0,1.9,0.3,2.5,1c0.6,0.6,0.8,1.5,0.8,2.6c0,0.7-0.1,1.3-0.4,1.8c-0.3,0.5-0.6,0.9-1.1,1.2
				C28.5,61.9,27.9,62.1,27.1,62.1z M27.1,61.1c0.8,0,1.4-0.2,1.8-0.7c0.4-0.5,0.6-1.1,0.6-1.8s-0.2-1.4-0.6-1.9
				c-0.4-0.5-1-0.7-1.8-0.7c-0.8,0-1.3,0.2-1.7,0.7s-0.6,1.1-0.6,1.9c0,0.5,0.1,0.9,0.3,1.3c0.2,0.4,0.4,0.7,0.8,0.9
				C26.2,61,26.6,61.1,27.1,61.1z"/>
			<path class="st1" d="M35.4,63.4c-0.2,0-0.4,0-0.5-0.1c-0.2,0-0.3-0.2-0.5-0.3c-0.1-0.2-0.2-0.5-0.2-0.9c-1-0.1-1.7-0.4-2.2-1.1
				c-0.5-0.6-0.8-1.4-0.8-2.4c0-0.7,0.1-1.3,0.4-1.8s0.6-0.9,1.1-1.2c0.5-0.3,1.1-0.4,1.9-0.4c0.7,0,1.3,0.1,1.8,0.4
				s0.9,0.7,1.1,1.2c0.3,0.5,0.4,1.1,0.4,1.8c0,1-0.2,1.8-0.7,2.4c-0.5,0.6-1.2,1-2.1,1.1c0,0.2,0,0.3,0.1,0.4s0.2,0.1,0.4,0.1
				c0.1,0,0.2,0,0.3-0.1c0.1,0,0.2-0.1,0.3-0.1l0,0.8c0,0-0.1,0-0.2,0c-0.1,0-0.2,0.1-0.4,0.1C35.6,63.3,35.5,63.4,35.4,63.4z
				 M34.6,61.1c0.8,0,1.3-0.2,1.7-0.7s0.6-1.1,0.6-1.9c0-0.8-0.2-1.4-0.6-1.9c-0.4-0.5-1-0.7-1.7-0.7c-0.8,0-1.3,0.2-1.7,0.7
				s-0.6,1.1-0.6,1.9c0,0.8,0.2,1.4,0.6,1.9S33.8,61.1,34.6,61.1z"/>
			<path class="st1" d="M41.8,62.1c-0.9,0-1.6-0.3-2.1-0.8c-0.5-0.5-0.7-1.3-0.7-2.2v-3.9h1V59c0,0.5,0.1,0.9,0.3,1.2
				c0.2,0.3,0.4,0.5,0.7,0.7c0.3,0.1,0.6,0.2,0.9,0.2c0.4,0,0.7-0.1,1-0.2c0.3-0.1,0.5-0.3,0.6-0.6c0.2-0.3,0.2-0.7,0.2-1.3v-3.9h1
				V59c0,1-0.2,1.7-0.7,2.2C43.5,61.8,42.8,62.1,41.8,62.1z"/>
			<path class="st1" d="M48.9,61v0.9H46V61H47v-5H46v-0.9h2.8V56H48v5H48.9z"/>
			<path class="st1" d="M49.9,61.9l2.3-6.8h1.6l2.3,6.8H55l-0.6-2h-2.8l-0.6,2H49.9z M53,55.6l-1.1,3.5h2.3L53,55.6z"/>
		</g>
		<g>
			<rect x="62.4" y="82.2" class="st2" width="11.4" height="0.5"/>
		</g>
		<g class="st4">
			<path class="st2" d="M21.7,85c-0.5,0-1-0.1-1.4-0.2c-0.4-0.2-0.8-0.4-1.1-0.7s-0.4-0.8-0.4-1.3h1c0,0,0,0.1,0,0.3
				c0,0.1,0.1,0.3,0.2,0.5s0.3,0.3,0.6,0.5s0.7,0.2,1.1,0.2c0.4,0,0.7-0.1,0.9-0.2s0.4-0.2,0.5-0.4c0.1-0.2,0.1-0.3,0.2-0.4
				c0-0.2-0.1-0.4-0.2-0.6c-0.2-0.2-0.4-0.3-0.6-0.4s-0.6-0.2-0.9-0.3s-0.6-0.2-0.9-0.3s-0.6-0.2-0.9-0.4c-0.3-0.2-0.5-0.3-0.6-0.6
				c-0.1-0.2-0.2-0.6-0.2-0.9c0-0.6,0.3-1,0.8-1.3c0.5-0.3,1.1-0.5,1.9-0.5c0.5,0,0.9,0.1,1.3,0.3c0.4,0.2,0.7,0.4,1,0.8
				c0.2,0.3,0.4,0.8,0.4,1.3h-1c0-0.3-0.1-0.5-0.2-0.7c-0.1-0.2-0.3-0.3-0.5-0.4c-0.2-0.1-0.4-0.2-0.6-0.2c-0.2,0-0.4-0.1-0.5-0.1
				c-0.5,0-0.8,0.1-1.1,0.3c-0.3,0.2-0.4,0.4-0.4,0.7c0,0.3,0.1,0.5,0.2,0.6c0.2,0.2,0.4,0.3,0.6,0.4c0.3,0.1,0.6,0.2,0.9,0.2
				c0.3,0.1,0.6,0.2,0.9,0.2s0.6,0.2,0.9,0.4c0.3,0.1,0.5,0.3,0.6,0.6s0.2,0.6,0.2,1c0,0.4-0.2,0.7-0.4,1c-0.2,0.3-0.6,0.5-1,0.6
				C22.6,84.9,22.2,85,21.7,85z"/>
			<path class="st2" d="M28.4,85c-1.1,0-1.9-0.3-2.5-0.9c-0.6-0.6-0.9-1.5-0.9-2.6c0-0.7,0.1-1.3,0.4-1.9s0.6-0.9,1.1-1.2
				c0.5-0.3,1.1-0.4,1.9-0.4c1.1,0,1.9,0.3,2.5,1c0.6,0.6,0.8,1.5,0.8,2.6c0,0.7-0.1,1.3-0.4,1.8c-0.3,0.5-0.6,0.9-1.1,1.2
				C29.8,84.9,29.2,85,28.4,85z M28.4,84c0.8,0,1.4-0.2,1.8-0.7c0.4-0.5,0.6-1.1,0.6-1.8s-0.2-1.4-0.6-1.9c-0.4-0.5-1-0.7-1.8-0.7
				c-0.8,0-1.3,0.2-1.7,0.7s-0.6,1.1-0.6,1.9c0,0.5,0.1,0.9,0.3,1.3c0.2,0.4,0.4,0.7,0.8,0.9C27.5,83.9,27.9,84,28.4,84z"/>
			<path class="st2" d="M37.6,78.1h1v6.8h-1.9l-2.8-6.3h0v6.3h-1v-6.8h1.8l3,6.3h0V78.1z"/>
			<path class="st2" d="M42.6,85c-0.5,0-1-0.1-1.4-0.2c-0.4-0.2-0.8-0.4-1.1-0.7s-0.4-0.8-0.4-1.3h1c0,0,0,0.1,0,0.3
				c0,0.1,0.1,0.3,0.2,0.5s0.3,0.3,0.6,0.5s0.7,0.2,1.1,0.2c0.4,0,0.7-0.1,0.9-0.2s0.4-0.2,0.5-0.4c0.1-0.2,0.1-0.3,0.2-0.4
				c0-0.2-0.1-0.4-0.2-0.6c-0.2-0.2-0.4-0.3-0.6-0.4s-0.6-0.2-0.9-0.3s-0.6-0.2-0.9-0.3s-0.6-0.2-0.9-0.4c-0.3-0.2-0.5-0.3-0.6-0.6
				c-0.1-0.2-0.2-0.6-0.2-0.9c0-0.6,0.3-1,0.8-1.3c0.5-0.3,1.1-0.5,1.9-0.5c0.5,0,0.9,0.1,1.3,0.3c0.4,0.2,0.7,0.4,1,0.8
				c0.2,0.3,0.4,0.8,0.4,1.3h-1c0-0.3-0.1-0.5-0.2-0.7c-0.1-0.2-0.3-0.3-0.5-0.4C43.4,79.1,43.2,79,43,79c-0.2,0-0.4-0.1-0.5-0.1
				c-0.5,0-0.8,0.1-1.1,0.3c-0.3,0.2-0.4,0.4-0.4,0.7c0,0.3,0.1,0.5,0.2,0.6c0.2,0.2,0.4,0.3,0.6,0.4c0.3,0.1,0.6,0.2,0.9,0.2
				c0.3,0.1,0.6,0.2,0.9,0.2s0.6,0.2,0.9,0.4c0.3,0.1,0.5,0.3,0.6,0.6s0.2,0.6,0.2,1c0,0.4-0.2,0.7-0.4,1c-0.2,0.3-0.6,0.5-1,0.6
				C43.5,84.9,43.1,85,42.6,85z"/>
			<path class="st2" d="M49.3,85c-1.1,0-1.9-0.3-2.5-0.9c-0.6-0.6-0.9-1.5-0.9-2.6c0-0.7,0.1-1.3,0.4-1.9s0.6-0.9,1.1-1.2
				c0.5-0.3,1.1-0.4,1.9-0.4c1.1,0,1.9,0.3,2.5,1c0.6,0.6,0.8,1.5,0.8,2.6c0,0.7-0.1,1.3-0.4,1.8c-0.3,0.5-0.6,0.9-1.1,1.2
				C50.7,84.9,50.1,85,49.3,85z M49.3,84c0.8,0,1.4-0.2,1.8-0.7c0.4-0.5,0.6-1.1,0.6-1.8s-0.2-1.4-0.6-1.9c-0.4-0.5-1-0.7-1.8-0.7
				c-0.8,0-1.3,0.2-1.7,0.7S47,80.7,47,81.5c0,0.5,0.1,0.9,0.3,1.3c0.2,0.4,0.4,0.7,0.8,0.9C48.4,83.9,48.8,84,49.3,84z M49.6,77.5
				h-0.5v-0.1l0.6-1.2h0.9v0.2L49.6,77.5z"/>
			<path class="st2" d="M58.5,78.1h1v6.8h-1.9l-2.8-6.3h0v6.3h-1v-6.8h1.8l3,6.3h0V78.1z"/>
		</g>
		<g class="st4">
			<path class="st3" d="M106.7,107.3c-0.8,0-1.5-0.2-2.1-0.5c-0.6-0.3-1.1-0.8-1.5-1.4c-0.4-0.6-0.5-1.4-0.5-2.4
				c0-0.9,0.2-1.7,0.6-2.4c0.4-0.7,0.9-1.1,1.5-1.5c0.6-0.3,1.4-0.5,2.2-0.5c1.1,0,2,0.3,2.6,0.9c0.7,0.6,1.1,1.3,1.2,2.3h-1.3
				c-0.1-0.5-0.3-0.9-0.5-1.2s-0.6-0.5-0.9-0.6s-0.7-0.2-1.1-0.2c-0.9,0-1.7,0.3-2.2,0.8c-0.5,0.5-0.8,1.3-0.8,2.3
				c0,1.1,0.3,1.9,0.8,2.4s1.2,0.8,2.2,0.8c0.6,0,1.2-0.2,1.7-0.5s0.8-0.8,0.9-1.5h1.3c-0.2,0.9-0.6,1.7-1.3,2.3
				C108.8,107,107.9,107.3,106.7,107.3z"/>
			<path class="st3" d="M115.6,107.3c-1.3,0-2.4-0.4-3.1-1.2c-0.7-0.8-1.1-1.8-1.1-3.2c0-0.9,0.2-1.7,0.5-2.3
				c0.3-0.7,0.8-1.2,1.4-1.5c0.6-0.4,1.4-0.5,2.3-0.5c1.3,0,2.4,0.4,3.1,1.2c0.7,0.8,1.1,1.9,1.1,3.2c0,0.9-0.2,1.6-0.5,2.3
				c-0.3,0.7-0.8,1.2-1.4,1.5C117.3,107.1,116.5,107.3,115.6,107.3z M115.6,106.1c1,0,1.7-0.3,2.2-0.9s0.7-1.3,0.7-2.3
				c0-0.9-0.2-1.7-0.7-2.3c-0.5-0.6-1.2-0.9-2.2-0.9c-1,0-1.7,0.3-2.2,0.9c-0.5,0.6-0.7,1.4-0.7,2.3c0,0.6,0.1,1.2,0.3,1.7
				s0.5,0.9,1,1.1C114.4,106,115,106.1,115.6,106.1z"/>
		</g>
		<g class="st4">
			<path class="st3" d="M121.3,107.1v-8.4h1.2v7.3h4.4v1.1H121.3z"/>
		</g>
		<g class="st4">
			<path class="st3" d="M131.7,107.3c-1.3,0-2.4-0.4-3.1-1.2c-0.7-0.8-1.1-1.8-1.1-3.2c0-0.9,0.2-1.7,0.5-2.3s0.8-1.2,1.4-1.5
				c0.6-0.4,1.4-0.5,2.3-0.5c1.3,0,2.4,0.4,3.1,1.2s1.1,1.9,1.1,3.2c0,0.9-0.2,1.6-0.5,2.3c-0.3,0.7-0.8,1.2-1.4,1.5
				C133.3,107.1,132.6,107.3,131.7,107.3z M131.6,106.1c1,0,1.7-0.3,2.2-0.9s0.7-1.3,0.7-2.3c0-0.9-0.2-1.7-0.7-2.3
				c-0.5-0.6-1.2-0.9-2.2-0.9c-1,0-1.7,0.3-2.2,0.9c-0.5,0.6-0.7,1.4-0.7,2.3c0,0.6,0.1,1.2,0.3,1.7c0.2,0.5,0.5,0.9,1,1.1
				C130.4,106,131,106.1,131.6,106.1z"/>
			<path class="st3" d="M137.2,107.1v-8.4h2.2l2.4,7.9h0l2.3-7.9h2.2v8.4h-1.3l0.1-7.8h0l-2.4,7.8h-1.8l-2.3-7.8h0l0.1,7.8H137.2z"
				/>
			<path class="st3" d="M147.9,107.1v-8.4h3.2c0.3,0,0.7,0,1.1,0.1c0.4,0,0.7,0.1,1.1,0.3c0.3,0.1,0.6,0.4,0.8,0.7
				c0.2,0.3,0.3,0.7,0.3,1.2c0,0.3-0.1,0.6-0.2,0.9c-0.1,0.3-0.4,0.5-0.7,0.7c-0.3,0.2-0.8,0.3-1.4,0.3c0.7,0,1.3,0.1,1.6,0.3
				c0.4,0.2,0.6,0.5,0.8,0.8s0.2,0.6,0.2,1c0,0.5-0.1,0.9-0.3,1.2c-0.2,0.3-0.5,0.5-0.9,0.7s-0.7,0.2-1.1,0.3s-0.8,0.1-1.1,0.1
				H147.9z M149.1,102.3h1.8c0.4,0,0.8,0,1.1-0.1c0.3,0,0.6-0.2,0.8-0.3c0.2-0.2,0.3-0.5,0.3-0.8c0-0.4-0.1-0.7-0.3-0.9
				c-0.2-0.2-0.5-0.3-0.8-0.4c-0.3,0-0.7-0.1-1-0.1h-1.8V102.3z M149.1,106.1h2c0.4,0,0.8,0,1.2-0.1s0.6-0.2,0.8-0.4
				s0.3-0.5,0.3-0.9c0-0.4-0.1-0.7-0.3-1c-0.2-0.2-0.5-0.3-0.9-0.4c-0.4-0.1-0.8-0.1-1.2-0.1h-1.9V106.1z"/>
			<path class="st3" d="M159.6,106v1.1h-3.5V106h1.2v-6.3h-1.2v-1.1h3.5v1.1h-1.1v6.3H159.6z"/>
			<path class="st3" d="M160.9,107.1l2.8-8.4h2l2.9,8.4h-1.3l-0.8-2.5H163l-0.8,2.5H160.9z M164.8,99.2l-1.4,4.4h2.8L164.8,99.2z"/>
		</g>
	</g>
</g>
</svg>
