<?xml version="1.0" encoding="utf-8"?>
<!-- Generator: Adobe Illustrator 24.1.2, SVG Export Plug-In . SVG Version: 6.00 Build 0)  -->
<svg version="1.1" id="Capa_1" xmlns="http://www.w3.org/2000/svg" xmlns:xlink="http://www.w3.org/1999/xlink" x="0px" y="0px"
	 viewBox="0 0 253.9 202.9" style="enable-background:new 0 0 253.9 202.9;" xml:space="preserve">
<style type="text/css">
	.st0{fill:#D13828;}
	.st1{enable-background:new    ;}
	.st2{fill:#FFFFFF;}
	.st3{fill:#FF9193;}
	.st4{fill:#A83356;}
</style>
<g id="Capa_2_1_">
	<g id="Layer_1">
		<g>
			<path class="st0" d="M214.3,202.9l-1.9-2l-1.4-2.4h-4.4l-1.5-1.2l7.4-12.3l-0.7-0.5l-0.2-0.8l-0.8-0.7l-1.5-0.5l-1.1-0.9h-1.9
				l-0.9-0.8l-0.4-0.7l-1.7-1l-0.8-0.5h-2.8v1.6h-1.2l-1.6-0.2l-0.9,0.3v-0.8l-1.2-1v1.2l-0.6-0.8v-0.4l-2.6-0.5v-0.8l-0.9,0.6
				l-1.2,1.2l-0.6,1.2l-0.7,0.1l-1.2,0.2c0,0-0.6,0.5-0.9,0.5s-2.6,0.3-2.6,0.3l-0.5-0.1l-1.7-0.3l-1-0.2v-0.2l-0.9,0.2l-0.5,0.7
				l-0.9-0.2l-1.9,0.7l-0.5-1.1l-1.3-0.3c0,0-1.2-0.2-1.2-0.8s-0.7-1.3,0-1.7c0.4-0.2,0.8-0.6,1-1l-1.3-2.6l-1.3-0.8h-2.6l-0.7-0.6
				v-2.8l-0.9-1.2l-0.5-1.4L166,167h-1.9v-0.6l-0.8-1h-1.2l-0.6-0.8v-0.3h-1.2l-1.6-0.4v-2.2l-0.9-0.6l-0.4-1.2v-1.1l-1.7-1.2
				l-1.6-1.2l-1.2-0.5v-1.2l-1-0.8H151v0.6l-1.4-0.6l-1.7-1.3l-0.9-0.5l-1.7,0.9l-1.5-0.9l-1.6-0.5l-0.9-0.7h-2l-1.8-1.2l-1.3-1.1
				l-1-1.2l-0.9-0.5l-1.9-0.4l-1.4,0.4v1.2l-1.3,0.8h-1.2l-1.3-0.7l-2.7,0.4l-2.7-0.8l-1.6-0.3c0,0-2.7-1-2.8-1
				c-0.2-0.5-0.3-1-0.4-1.6v-1c0,0-1.5-0.5-1.6-0.7c0-0.3,0-0.7,0-1l-0.8-0.7L113,142l-2-0.5l-2.7-1.2l-0.7-0.9l-2-1l-1.3-1.2
				l-1.8-0.7l-2.3-2.2l-1.5-1.6l-0.9-0.7l0.9-1.8l1.6-0.7h3.1l-0.1-1.5l-0.9-1.2l-0.6-1.6l0.6-2l1.1-1.8l1.6-2l2.8-0.7h5.3l0.9-1.9
				l1.8-3l1.6-3.1l1.3-0.9c0,0,1.2-1.2,1.4-1.5s1-1.9,1-1.9s0.8-1.7,0.9-1.9s0.1-0.9-0.3-0.7c-0.5,0.2-0.9,0.4-1.4,0.6l-1.6-0.6
				l0.6-0.5l-0.6-0.8l-1.1-1.1c-0.3-0.5-0.5-1-0.6-1.5c0.2-0.5,0.5-0.9,0.8-1.3l1.3-3.6V93l-0.7-1.6l-0.2-2.6V86l-0.7-1.3h-1.7
				l0.5-0.8l0.9-0.6h1.6l0.7-1c0.3-0.3,0.4-0.7,0.5-1.1c0-0.4-0.1-0.7-0.2-1.1l-0.6-1.5l-0.3-1.2l-1.5-1.3l-0.2-1.2h0.6l0.5-0.8
				l0.5-1.9l-0.1-1l-0.3-0.7l-0.3-0.8h-1.9l-0.4-1c0,0-1.2-1.5-1.4-1.4s0-1.1,0-1.1l-0.2-0.7l-0.7-0.8l-1.4-1.2l-0.6-0.5l0.8-1.8
				c0.1-0.3,0.4-0.6,0.6-0.8c0.3-0.1,0.7-0.1,1,0c0,0-0.1-1.4-0.1-1.7c0.1-0.2,0.2-0.5,0.3-0.7l1.4,0.8l0.9,0.8l0.7-0.7l1-1.8
				l1.2-1.3l1-1.1l0.5-1.7l-2-2.7v-1.2l-1-1.3l0.6-1.6l1.1,0.9l1.4,1.4l2.1,1.7c0.3,0.5,0.6,1,1,1.4c0.4,0.4,0.7,0.9,1,1.4l-1.2,1.1
				l0.3,0.8L127,55l-0.1-3.3l-0.5-2.4l-1.2-1.7l-0.7-0.3l0.5-0.7l2.7-0.7l2.7-1.6l1.5-1.6l2.4-3.1l1.9-2.2l2.9-0.7h2l0.2-0.8
				l0.2-2.2l-0.9-0.6l0.6-1.2c0.2-0.4,0.4-0.8,0.7-1.2c0.4-0.5,0.9-1.1,0.6-1.6s-0.6-0.5-0.5-0.9c0.1-0.6,0.3-1.3,0.5-1.9
				c0.1-0.6,0-1.2-0.1-1.8c0.1-0.5,0.2-1.1,0.3-1.6c0.6-0.5,1.2-1,1.8-1.5l1.3-1.3h1.6l0.9-1.5l2.1-1.4l0.9-0.7l2,0.6l2.6,0.5h1.7
				l1.6-0.4l-0.5-1.5l0.4-1.3l1.1-0.5l1.9-0.4h2.6l2.6,0.8l2-0.2l2.5-1.2l2.1-1.3l1.5-1.1l2.1-1.7L181,8l2.8-1.2l1-1.4l0.4-2.2v-1
				h1.8c0,0,0.4,0.7,0.6,0.7s1.5-0.1,1.5-0.1l-0.8-1.1l1-0.8l0.9,0.5l0.4-1.2h1.4l2.3,0.4l1.6,0.7l1.6,1.3l1,2l-1.8,1.4L195,7.1
				L192.8,8l-2.7,1l-3.1,1.4l-2.3,5.4l-2.8,0.8l-2.3,3.6l-1.3,2.7l-1.6,2.8l-1.2,2.6l-0.2,2.1l-0.5,3l-1.7,1.1l-0.5,1.3l-1.2,1.6
				l-1.2,2.1l1.2,0.5l1.6-0.7l1.4-0.9l0.3,1.1l0.8,1.3l1-0.3l0.7,0.1l0.7,3l0.8,2.8l1.6,1.6l1.5,1.2l0.4,2.7l0.3,2.2l-1.1,0.6
				l-0.3,1.7l0.1,1.6l0.1,2.9l1.4,0.8l1.6-0.3l0.6,1.6l1.2,1.9l1.4,0.8h2.4l1.9,0.1l2.8-0.1l1.9,0.2l1.5-0.2l2.2,0.6l0.9-0.3
				l1.7-0.8l3.4,0.2l1.2,1l1.2,0.1l0.9,0.1l1.6-0.2l0.5-0.2l9,10.9l0.7-0.3l1,0.3l0.5,0.1l1.6-0.8l0.7-0.8l2.7,0.4l2.3,0.3l1.7-0.1
				l1.4-0.2l1.8-0.2l1.6-0.5c0,0,0.8-0.1,1-0.1s1.1,0.2,1.1,0.2l1.7-0.4l1.6-0.8l2.3,0.5l1.1,0.7l0.5,1.4l0.6,1.4l-2,1.1l-0.7,1.8
				l0.5,1.6l-0.5,1.8l-2.3,1.4l-0.2,2.5l0.5,1.9l-0.2,1.7l-0.1,1.7l-0.9,2.1l1.2,1.4l0.9,1.5l-0.3,1.9l0.6,1l0.7,2.3l0.4,1.7
				l0.9,0.4l1-0.3l0.4,1l0.9,2.2l0.7,0.7l0.9,1l-1.1,0.8l-1.6,0.7l-2.4,2.7l-2.8,2l0.5,0.5l2.1-0.3l1.5,0.8l1.1,1.3l0.7,0.5l0.9,0.8
				l1.1,1.2l0.9,1.2v1.8l0.4,0.8l1,0.6v1.9l1.2,2.3l0.5,1.7l0.7,2.4l0.5,1.3v1.6l-2.7,0.4l0.2-2.9l-1.7-4.6l-1-0.4l-1.6-4.6
				l-0.8,0.2l-1.6,1.7l-3.5,1.5v1.6l-1.2,0.2l-1.9-2.2l-1.2-0.3l-0.8,0.3v1.5l1,0.8l-0.4,0.3l-6.7,0.2l-3.4,0.1l-4.5-0.2l-2.3-0.8
				l-2.3,0.7l-1.6,0.3l-0.1,3.2l-0.2,4.3h0.8l0.5-0.1h1.1l1.2,0.3l2.4-0.1l1.6,0.6l0.8,2l0.2,1.9l-0.8,1.5l-1.8-0.7l-1.7-1.2
				l-1.9,1.4l-2.2,0.7l-2.4,0.2l-0.5,0.7l0.2,7.7l0.3,0.6l1.2,1.6l1,0.5l1.7,1.2l1.3,0.5l0.2,1.3l-0.5,1.4l0.8,1.2l0.9,1.5l0.9,1.2
				v2.2l0.2,1.6l-1,3.8l-2.3,12.7l-1.8,9.4L214.3,202.9z"/>
		</g>
		<g>
			<rect x="104.2" y="96.3" class="st0" width="11.4" height="0.5"/>
		</g>
		<g class="st1">
			<path class="st0" d="M67.6,99c-0.6,0-1.2-0.1-1.7-0.4c-0.5-0.3-0.9-0.6-1.2-1.2c-0.3-0.5-0.4-1.2-0.4-1.9c0-0.8,0.2-1.4,0.4-1.9
				c0.3-0.5,0.7-0.9,1.2-1.2c0.5-0.3,1.1-0.4,1.7-0.4c0.9,0,1.6,0.2,2.1,0.7c0.5,0.5,0.9,1.1,1,1.8h-1c-0.1-0.4-0.2-0.7-0.4-0.9
				c-0.2-0.2-0.5-0.4-0.8-0.5C68.2,93,67.9,93,67.6,93c-0.8,0-1.3,0.2-1.8,0.7c-0.4,0.4-0.6,1.1-0.6,1.9c0,0.8,0.2,1.5,0.6,1.9
				c0.4,0.4,1,0.7,1.7,0.7c0.5,0,1-0.1,1.4-0.4c0.4-0.3,0.7-0.7,0.8-1.2h1c-0.1,0.8-0.5,1.4-1,1.8S68.5,99,67.6,99z"/>
			<path class="st0" d="M72.9,98.9h-1v-6.8h1v2.9h3.5v-2.9h1v6.8h-1v-3.1h-3.5V98.9z"/>
		</g>
		<g class="st1">
			<path class="st0" d="M81.7,99.1c-1.1,0-1.9-0.3-2.5-0.9c-0.6-0.6-0.9-1.5-0.9-2.6c0-0.7,0.1-1.3,0.4-1.9s0.6-0.9,1.1-1.2
				c0.5-0.3,1.1-0.4,1.9-0.4c1.1,0,1.9,0.3,2.5,1c0.6,0.6,0.8,1.5,0.8,2.6c0,0.7-0.1,1.3-0.4,1.8c-0.3,0.5-0.6,0.9-1.1,1.2
				C83.1,98.9,82.5,99.1,81.7,99.1z M81.7,98.1c0.8,0,1.4-0.2,1.8-0.7c0.4-0.5,0.6-1.1,0.6-1.8s-0.2-1.4-0.6-1.9
				c-0.4-0.5-1-0.7-1.8-0.7c-0.8,0-1.3,0.2-1.7,0.7s-0.6,1.1-0.6,1.9c0,0.5,0.1,0.9,0.3,1.3c0.2,0.4,0.4,0.7,0.8,0.9
				C80.8,98,81.2,98.1,81.7,98.1z"/>
		</g>
		<g class="st1">
			<path class="st0" d="M89.3,99c-0.6,0-1.2-0.1-1.7-0.4c-0.5-0.3-0.9-0.6-1.2-1.2C86.1,97,86,96.3,86,95.6c0-0.8,0.2-1.4,0.4-1.9
				c0.3-0.5,0.7-0.9,1.2-1.2c0.5-0.3,1.1-0.4,1.7-0.4c0.9,0,1.6,0.2,2.1,0.7c0.5,0.5,0.9,1.1,1,1.8h-1c-0.1-0.4-0.2-0.7-0.4-0.9
				c-0.2-0.2-0.5-0.4-0.8-0.5C90,93,89.7,93,89.3,93c-0.8,0-1.3,0.2-1.8,0.7c-0.4,0.4-0.6,1.1-0.6,1.9c0,0.8,0.2,1.5,0.6,1.9
				c0.4,0.4,1,0.7,1.7,0.7c0.5,0,1-0.1,1.4-0.4c0.4-0.3,0.7-0.7,0.8-1.2h1c-0.1,0.8-0.5,1.4-1,1.8S90.2,99,89.3,99z"/>
			<path class="st0" d="M96.5,99.1c-1.1,0-1.9-0.3-2.5-0.9c-0.6-0.6-0.9-1.5-0.9-2.6c0-0.7,0.1-1.3,0.4-1.9s0.6-0.9,1.1-1.2
				c0.5-0.3,1.1-0.4,1.9-0.4c1.1,0,1.9,0.3,2.5,1c0.6,0.6,0.8,1.5,0.8,2.6c0,0.7-0.1,1.3-0.4,1.8c-0.3,0.5-0.6,0.9-1.1,1.2
				C97.8,98.9,97.2,99.1,96.5,99.1z M96.4,98.1c0.8,0,1.4-0.2,1.8-0.7c0.4-0.5,0.6-1.1,0.6-1.8s-0.2-1.4-0.6-1.9
				c-0.4-0.5-1-0.7-1.8-0.7c-0.8,0-1.3,0.2-1.7,0.7s-0.6,1.1-0.6,1.9c0,0.5,0.1,0.9,0.3,1.3c0.2,0.4,0.4,0.7,0.8,0.9
				C95.5,98,95.9,98.1,96.4,98.1z M96.7,91.6h-0.5v-0.1l0.6-1.2h0.9v0.2L96.7,91.6z"/>
		</g>
		<g class="st1">
			<path class="st2" d="M150.5,106.8c-0.8,0-1.5-0.2-2.1-0.5c-0.6-0.3-1.1-0.8-1.5-1.4c-0.4-0.6-0.5-1.4-0.5-2.4
				c0-0.9,0.2-1.7,0.6-2.4c0.4-0.7,0.9-1.1,1.5-1.5c0.6-0.3,1.4-0.5,2.2-0.5c1.1,0,2,0.3,2.6,0.9c0.7,0.6,1.1,1.3,1.2,2.3h-1.3
				c-0.1-0.5-0.3-0.9-0.5-1.2s-0.6-0.5-0.9-0.6c-0.4-0.1-0.7-0.2-1.1-0.2c-0.9,0-1.7,0.3-2.2,0.8c-0.5,0.5-0.8,1.3-0.8,2.3
				c0,1.1,0.3,1.9,0.8,2.4s1.2,0.8,2.2,0.8c0.6,0,1.2-0.2,1.7-0.5s0.8-0.8,0.9-1.5h1.3c-0.2,0.9-0.6,1.7-1.3,2.3
				C152.6,106.5,151.7,106.8,150.5,106.8z"/>
			<path class="st2" d="M159.4,106.9c-1.3,0-2.4-0.4-3.1-1.2c-0.7-0.8-1.1-1.8-1.1-3.2c0-0.9,0.2-1.7,0.5-2.3s0.8-1.2,1.4-1.5
				c0.6-0.4,1.4-0.5,2.3-0.5c1.3,0,2.4,0.4,3.1,1.2s1.1,1.9,1.1,3.2c0,0.9-0.2,1.6-0.5,2.3s-0.8,1.2-1.4,1.5
				S160.3,106.9,159.4,106.9z M159.4,105.7c1,0,1.7-0.3,2.2-0.9c0.5-0.6,0.7-1.3,0.7-2.3c0-0.9-0.2-1.7-0.7-2.3
				c-0.5-0.6-1.2-0.9-2.2-0.9c-1,0-1.7,0.3-2.2,0.9c-0.5,0.6-0.7,1.4-0.7,2.3c0,0.6,0.1,1.2,0.3,1.7s0.5,0.9,1,1.1
				C158.2,105.5,158.7,105.7,159.4,105.7z"/>
		</g>
		<g class="st1">
			<path class="st2" d="M165,106.7v-8.4h1.2v7.3h4.4v1.1H165z"/>
		</g>
		<g class="st1">
			<path class="st2" d="M175.4,106.9c-1.3,0-2.4-0.4-3.1-1.2c-0.7-0.8-1.1-1.8-1.1-3.2c0-0.9,0.2-1.7,0.5-2.3
				c0.3-0.7,0.8-1.2,1.4-1.5c0.6-0.4,1.4-0.5,2.3-0.5c1.3,0,2.4,0.4,3.1,1.2c0.7,0.8,1.1,1.9,1.1,3.2c0,0.9-0.2,1.6-0.5,2.3
				c-0.3,0.7-0.8,1.2-1.4,1.5C177.1,106.7,176.3,106.9,175.4,106.9z M175.4,105.7c1,0,1.7-0.3,2.2-0.9s0.7-1.3,0.7-2.3
				c0-0.9-0.2-1.7-0.7-2.3c-0.5-0.6-1.2-0.9-2.2-0.9c-1,0-1.7,0.3-2.2,0.9c-0.5,0.6-0.7,1.4-0.7,2.3c0,0.6,0.1,1.2,0.3,1.7
				s0.5,0.9,1,1.1C174.2,105.5,174.8,105.7,175.4,105.7z"/>
			<path class="st2" d="M181,106.7v-8.4h2.2l2.4,7.9h0l2.3-7.9h2.2v8.4h-1.3l0.1-7.8h0l-2.4,7.8h-1.8l-2.3-7.8h0l0.1,7.8H181z"/>
			<path class="st2" d="M191.7,106.7v-8.4h3.2c0.3,0,0.7,0,1.1,0.1s0.7,0.1,1.1,0.3c0.3,0.1,0.6,0.4,0.8,0.7
				c0.2,0.3,0.3,0.7,0.3,1.2c0,0.3-0.1,0.6-0.2,0.9c-0.1,0.3-0.4,0.5-0.7,0.7c-0.3,0.2-0.8,0.3-1.4,0.3c0.7,0,1.3,0.1,1.6,0.3
				c0.4,0.2,0.7,0.5,0.8,0.8s0.2,0.6,0.2,1c0,0.5-0.1,0.9-0.3,1.2c-0.2,0.3-0.5,0.5-0.9,0.7s-0.7,0.2-1.1,0.3
				c-0.4,0-0.8,0.1-1.1,0.1H191.7z M192.9,101.9h1.8c0.4,0,0.8,0,1.1-0.1c0.3,0,0.6-0.2,0.8-0.3c0.2-0.2,0.3-0.5,0.3-0.8
				c0-0.4-0.1-0.7-0.3-0.9c-0.2-0.2-0.5-0.3-0.8-0.4s-0.7-0.1-1-0.1h-1.8V101.9z M192.9,105.7h2c0.4,0,0.8,0,1.2-0.1
				c0.3-0.1,0.6-0.2,0.8-0.4c0.2-0.2,0.3-0.5,0.3-0.9c0-0.4-0.1-0.7-0.3-1c-0.2-0.2-0.5-0.3-0.9-0.4c-0.4-0.1-0.8-0.1-1.2-0.1h-1.9
				V105.7z"/>
			<path class="st2" d="M203.4,105.6v1.1h-3.5v-1.1h1.2v-6.3h-1.2v-1.1h3.5v1.1h-1.1v6.3H203.4z"/>
			<path class="st2" d="M204.7,106.7l2.8-8.4h2l2.9,8.4h-1.3l-0.8-2.5h-3.5l-0.8,2.5H204.7z M208.6,98.8l-1.4,4.4h2.8L208.6,98.8z"
				/>
		</g>
		<g>
			<path class="st3" d="M124.1,54.4l1.2-1.1c-0.3-0.5-0.6-1-1-1.4c-0.4-0.4-0.7-0.9-1-1.4l-2.1-1.7l-1.4-1.4l-1.1-0.9l-0.6,1.6
				l1,1.3v1.2l2,2.7l-0.5,1.7l-0.9,1.1l-1.2,1.3l-1,1.8l-0.7,0.7l-0.9-0.8l-1.4-0.8c-0.2,0.2-0.3,0.4-0.3,0.7c0,0.2,0.1,1.7,0.1,1.7
				c-0.3-0.1-0.7-0.1-1,0c-0.3,0.2-0.5,0.5-0.6,0.8l-0.8,1.8l0.5,0.5l1.4,1.2l0.7,0.8l0.2,0.7c0,0-0.2,1.2,0,1.1s1.4,1.4,1.4,1.4
				l0.4,1h1.9l0.3,0.8l0.3,0.7l0.1,1l-0.5,1.9l-0.5,0.8h-0.6l0.2,1.2l1.5,1.3l0.3,1.2l0.6,1.5c0.1,0.3,0.2,0.7,0.2,1.1
				c-0.1,0.4-0.2,0.8-0.5,1.1l-0.7,1h-1.6l-0.9,0.6l-0.5,0.7h1.6l0.7,1.3v2.8l0.2,2.6l0.7,1.6v1.9l-1.3,3.6
				c-0.3,0.4-0.6,0.9-0.8,1.3c0.2,0.5,0.4,1,0.6,1.5l1.1,1.1l0.6,0.8l-0.6,0.5l1.6,0.6c0.5-0.2,0.9-0.3,1.4-0.6
				c0.4-0.2,0.5,0.4,0.3,0.7c0.4-0.9,1.2,0.2,3.8,1.4c2.6,1.3,0.6,0.6,3.7,0c3.1-0.6,0.7-0.6,1.6-1.6s0.6-1.3,1.3-2.9
				s0.3-1.3,1.2-3.7s0.7-0.9,2.4-3c0.8-0.9,1.5-1.9,1.9-3c0.9-1.8-0.8-3.2-0.7-4.3c0.2-1.2,0.5-2.3,0.9-3.5c0.5-2.2,0-2.8,0-2.8
				c-0.6-0.9-1.4-1.7-2.2-2.5c-1.5-1.3-2.5-0.2-3.1-0.3s-1.1,0-2.4-0.2s-0.9,0.5-2,0s-0.4-1.4-0.9-3.2s0.1-0.5-0.9-1.3
				s-0.3-0.1-1.1-0.4s-0.5-0.3-0.1-1.4s0.6-0.2,2.2-1.4c0,0-0.2-0.4,0.7-1.4s0.8,0.1,1.4,0s0.8-0.6,1.2-2.7s-0.4-0.4-0.7-1.4
				s-1-1.2-1.4-1.8c-0.6-0.7-1.3-1.3-2.1-1.8c-0.5-0.3-2.4-1.5-2.5-2.1s0.3-0.8,0.7-1.2s0.7-1.6,1.2-2.2c0.2-0.3,0.3-0.6,0.2-0.9
				l-1.8,0.2L124.1,54.4z"/>
		</g>
		<g>
			<path class="st4" d="M119.2,70.5l-0.5,0.2l0.3,0.7l0.1,1c0,0,0.5-0.3,0.4,0s-0.4,0.4-0.4,0.9s-0.5,1.5-0.1,1.7s0.2,0.7,0.8,0.9
				s-0.5,0.7,0.2,1.4s0.2-0.2,1.1,0.2c0.1,0,0.2,0.1,0.2,0.1c0.2,0,0.3,0,0.5,0c0.5,0,0.3,0.3,0.3,0.7c-0.1,0.7-0.4,0.7-0.4,1.2
				s-0.2,0.6,0,1s0.2,1,0.7,0.9c0.5,0,1-0.1,1.4-0.5c0.7-0.6,1.3-0.3,1.2-1.3s-0.2-1,0-1.6c0.1-0.3,0-0.6-0.3-0.7
				c-0.1-0.1,0.1-0.2,0.1-0.3s-0.1-0.3,0-0.4c0.3,0,0.4-0.4,0.7,0c0.5,0.6,0.2,0.4,0.6,0.5s1,0.2,1-0.4s0.3,0,0.5-0.2
				c0-0.5-0.1-1.1-0.2-1.6c-0.5-1.8,0.1-0.5-0.9-1.3s-0.3-0.1-1.2-0.4s-0.5-0.3-0.1-1.5c0.3-1,0.5-0.4,1.6-1
				c-0.2-0.2-0.5-0.3-0.7-0.4c-1.1-0.6-1.7,0-2.6,0s-0.7-0.7-1.2-1.1c-0.2-0.1-0.3-0.2-0.4-0.1c-0.1,0.4-0.5,0.8-0.9,0.9
				c-0.6,0.2-0.5-0.2-1.1-0.2h-0.2c0,0-0.1,0-0.1,0c0,0-0.1,0-0.1,0c0,0,0,0.1,0,0.2l0,0l0,0l0,0l0,0c0,0,0-0.1,0-0.1c0,0,0,0-0.1,0
				h0.1c0,0,0,0,0,0.1l0,0c0,0,0,0.1,0,0h-0.1c0,0,0,0-0.1,0s0,0,0,0c0.1,0,0.1,0.2,0.1,0.2S119.3,70.5,119.2,70.5z"/>
		</g>
		<g>
			<path class="st2" d="M120.4,75.3v-0.8h0.4v-0.4h-0.4v-0.4h-0.4v-0.4h1.2v-0.8h0.4v0.8h1.2v0.4h-0.4v0.4H122v0.4h0.4v0.8H122v-0.4
				h-0.4v-0.4h-0.4v0.4h-0.4v0.4H120.4z M121.6,73.8h-0.4v0.4h0.4V73.8z"/>
		</g>
		<g>
			<rect x="66.8" y="72.2" class="st4" width="50.4" height="0.5"/>
		</g>
		<g class="st1">
			<path class="st4" d="M4.5,76.5c-0.2,0-0.4,0-0.5-0.1c-0.2,0-0.3-0.2-0.5-0.3c-0.1-0.2-0.2-0.5-0.2-0.9c-1-0.1-1.7-0.4-2.2-1.1
				c-0.5-0.6-0.8-1.4-0.8-2.4c0-0.7,0.1-1.3,0.4-1.8s0.6-0.9,1.1-1.2c0.5-0.3,1.1-0.4,1.9-0.4c0.7,0,1.3,0.1,1.8,0.4
				s0.9,0.7,1.1,1.2c0.3,0.5,0.4,1.1,0.4,1.8c0,1-0.2,1.8-0.7,2.4c-0.5,0.6-1.2,1-2.1,1.1c0,0.2,0,0.3,0.1,0.4s0.2,0.1,0.4,0.1
				c0.1,0,0.2,0,0.3-0.1c0.1,0,0.2-0.1,0.3-0.1l0,0.8c0,0-0.1,0-0.2,0c-0.1,0-0.2,0.1-0.4,0.1C4.7,76.4,4.6,76.5,4.5,76.5z
				 M3.7,74.2c0.8,0,1.3-0.2,1.7-0.7S6,72.4,6,71.6c0-0.8-0.2-1.4-0.6-1.9c-0.4-0.5-1-0.7-1.7-0.7C3,69,2.4,69.2,2,69.7
				s-0.6,1.1-0.6,1.9c0,0.8,0.2,1.4,0.6,1.9S2.9,74.2,3.7,74.2z"/>
			<path class="st4" d="M10.9,75.1c-0.9,0-1.6-0.3-2.1-0.8c-0.5-0.5-0.7-1.3-0.7-2.2v-3.9h1v3.9c0,0.5,0.1,0.9,0.3,1.2
				c0.2,0.3,0.4,0.5,0.7,0.7c0.3,0.1,0.6,0.2,0.9,0.2c0.4,0,0.7-0.1,1-0.2c0.3-0.1,0.5-0.3,0.6-0.6c0.2-0.3,0.2-0.7,0.2-1.3v-3.9h1
				v3.9c0,1-0.2,1.7-0.7,2.2C12.6,74.9,11.9,75.1,10.9,75.1z"/>
			<path class="st4" d="M18,74.1V75h-2.8v-0.9h0.9v-5h-0.9v-0.9H18v0.9h-0.9v5H18z"/>
			<path class="st4" d="M19.5,75v-6.8H22c0.3,0,0.5,0,0.9,0.1c0.3,0,0.6,0.1,0.9,0.2c0.3,0.1,0.5,0.3,0.6,0.5c0.2,0.2,0.3,0.6,0.3,1
				c0,0.3,0,0.5-0.1,0.7s-0.3,0.4-0.5,0.5c-0.3,0.1-0.6,0.2-1.1,0.3c0.6,0,1,0.1,1.3,0.2c0.3,0.2,0.5,0.4,0.6,0.6
				c0.1,0.2,0.2,0.5,0.2,0.8c0,0.4-0.1,0.8-0.3,1c-0.2,0.2-0.4,0.4-0.7,0.5c-0.3,0.1-0.6,0.2-0.9,0.2c-0.3,0-0.6,0-0.9,0H19.5z
				 M20.5,71.1h1.5c0.3,0,0.6,0,0.9-0.1c0.3,0,0.5-0.1,0.6-0.3c0.2-0.1,0.2-0.4,0.2-0.7c0-0.3-0.1-0.6-0.2-0.7
				c-0.2-0.1-0.4-0.2-0.6-0.3c-0.3,0-0.5-0.1-0.8-0.1h-1.5V71.1z M20.5,74.2H22c0.3,0,0.7,0,0.9-0.1c0.3,0,0.5-0.1,0.7-0.3
				c0.2-0.2,0.3-0.4,0.3-0.7c0-0.3-0.1-0.6-0.3-0.8c-0.2-0.2-0.4-0.3-0.7-0.3c-0.3-0.1-0.6-0.1-1-0.1h-1.5V74.2z"/>
		</g>
		<g class="st1">
			<path class="st4" d="M32.1,71.6c0,0.9-0.2,1.6-0.5,2.1c-0.3,0.5-0.8,0.8-1.4,1C29.5,74.9,28.8,75,28,75h-1.8v-6.8H28
				c0.8,0,1.6,0.1,2.2,0.4c0.6,0.3,1.1,0.6,1.4,1.1C31.9,70.2,32.1,70.9,32.1,71.6z M27.1,74.2h1.1c0.6,0,1.1-0.1,1.5-0.2
				c0.4-0.1,0.8-0.4,1-0.8s0.3-0.9,0.3-1.6c0-0.8-0.3-1.5-0.8-1.9c-0.5-0.4-1.2-0.6-2.1-0.6h-1.1V74.2z"/>
		</g>
		<g class="st1">
			<path class="st4" d="M36.2,75.1c-1.1,0-1.9-0.3-2.5-0.9c-0.6-0.6-0.9-1.5-0.9-2.6c0-0.7,0.1-1.3,0.4-1.9s0.6-0.9,1.1-1.2
				c0.5-0.3,1.1-0.4,1.9-0.4c1.1,0,1.9,0.3,2.5,1c0.6,0.6,0.8,1.5,0.8,2.6c0,0.7-0.1,1.3-0.4,1.8c-0.3,0.5-0.6,0.9-1.1,1.2
				C37.5,75,36.9,75.1,36.2,75.1z M36.2,74.2c0.8,0,1.4-0.2,1.8-0.7c0.4-0.5,0.6-1.1,0.6-1.8s-0.2-1.4-0.6-1.9
				c-0.4-0.5-1-0.7-1.8-0.7c-0.8,0-1.3,0.2-1.7,0.7s-0.6,1.1-0.6,1.9c0,0.5,0.1,0.9,0.3,1.3c0.2,0.4,0.4,0.7,0.8,0.9
				C35.2,74.1,35.7,74.2,36.2,74.2z M36.5,67.7H36v-0.1l0.6-1.2h0.9v0.2L36.5,67.7z"/>
		</g>
		<g>
			<path class="st4" d="M43.7,59.7c-0.2,0.1-0.5,0.3-1.1,0.5l0.7,1.5l0.2,2.3c0,0,1.2-0.7,0.9,0s-0.8,0.9-1,2.1s-1.1,3.4-0.3,3.7
				s0.5,1.5,1.9,1.9c1.2,0.4-1,1.5,0.5,3s0.5-0.4,2.4,0.5c0.2,0.1,0.4,0.1,0.6,0.2c0.4,0.1,0.8,0.1,1.1,0.1c1-0.1,0.8,0.6,0.6,1.6
				c-0.3,1.5-1,1.7-1,2.8s-0.4,1.2,0,2.3s0.5,2.2,1.7,2.1c1.1,0.1,2.2-0.3,3-1.1c1.5-1.2,2.9-0.7,2.7-2.9s-0.5-2.2,0-3.6
				c0.1-0.6-0.1-1.3-0.6-1.6c-0.2-0.1,0.3-0.5,0.2-0.6c-0.2-0.5-0.3-0.8,0-0.8c0.7,0,0.8-0.9,1.7,0.1c1.1,1.4,0.4,0.8,1.4,1.1
				s2.3,0.5,2.2-0.9s0.7,0,1.1-0.3c0-1.2-0.2-2.4-0.5-3.6c-1.2-3.9,0.2-1.2-2.1-2.9s-0.8-0.3-2.6-0.9s-1-0.7-0.3-3.3
				c0.7-2.2,1.2-1,3.5-2.2c-0.5-0.4-1-0.7-1.6-1c-2.4-1.2-3.9,0-5.8,0s-1.5-1.6-2.7-2.4c-0.4-0.2-0.8-0.4-0.9-0.1
				c-0.3,0.9-1.1,1.7-2,2c-1.4,0.4-1.2-0.5-2.4-0.4c-0.1,0-0.3,0-0.4,0c-0.1,0-0.2,0-0.2,0c0,0-0.2-0.1-0.2,0c0,0.1,0,0.2,0,0.3
				c0,0.1,0.1,0,0,0.1s0,0.1-0.1,0s-0.1,0-0.1-0.1s0-0.1,0-0.1s0-0.2-0.1-0.2c-0.1,0-0.1,0.1-0.1,0.1l0.1,0.1c0,0,0,0.1,0,0.2
				c0,0.1,0,0.1,0,0.1s0,0.1-0.1,0.1c0,0-0.1-0.1-0.1-0.1c0,0-0.1,0-0.1,0s-0.1,0.1-0.1,0.1C43.6,59.5,43.7,59.6,43.7,59.7z"/>
		</g>
	</g>
</g>
</svg>
