<svg xmlns="http://www.w3.org/2000/svg" viewBox="0 0 210.48 203.8"><defs><style>.cls-1{fill:#0db1cb;}.cls-2,.cls-6{fill:#0c6186;}.cls-3,.cls-7,.cls-8{fill:#5be2ca;}.cls-4,.cls-9{fill:#fff;}.cls-5{fill:none;stroke:#0c6186;}.cls-5,.cls-7{stroke-miterlimit:10;stroke-width:0.5px;}.cls-6,.cls-8{font-size:12px;}.cls-6,.cls-8,.cls-9{font-family:DarkerGrotesque-SemiBold, Darker Grotesque;font-weight:600;}.cls-7{stroke:#5be2ca;}.cls-9{font-size:14.94px;}.cls-10{letter-spacing:0em;}.cls-11{letter-spacing:0em;}</style></defs><g id="Capa_2" data-name="Capa 2"><g id="Layer_1" data-name="Layer 1"><path class="cls-1" d="M170.65,203.8l-2-2-1.41-2.41h-4.47l-1.49-1.17,7.45-12.32-.71-.5-.16-.84-.79-.66-1.48-.5-1.1-.92h-1.88l-.94-.74-.39-.67-1.73-1-.78-.5H156v1.58h-1.18l-1.64-.16-.94.33v-.75l-1.26-1v1.25l-.54-.83v-.42l-2.59-.5v-.83l-.86.58L145.82,180l-.56,1.17-.7.08-1.18.17s-.55.49-.86.49-2.58.34-2.58.34l-.55-.08-1.65-.34-1-.16v-.25l-.94.25-.47.66-.94-.25-1.88.67-.55-1.09-1.33-.33s-1.26-.25-1.17-.83-.72-1.34,0-1.75a2.8,2.8,0,0,0,1-1l-1.32-2.58-1.26-.83h-2.59l-.7-.58v-2.83l-.87-1.17-.47-1.42-1.1-.66h-1.87v-.59l-.79-1H118.3l-.62-.75V165h-1.25l-1.65-.41v-2.25l-.86-.58-.4-1.17v-1.08l-1.72-1.17-1.57-1.25-1.25-.5v-1.16l-1-.84h-.86v.59l-1.41-.59L104,153.26l-.86-.5-1.73.92-1.49-.92-1.56-.5-.87-.66h-2l-1.8-1.17-1.33-1.08-1-1.25-.94-.5-1.88-.41-1.41.41v1.17l-1.33.75H84.6l-1.33-.67-2.67.42-2.66-.75-1.57-.33s-2.74-1-2.82-1a11.51,11.51,0,0,1-.39-1.59v-1s-1.49-.5-1.56-.75a4,4,0,0,1,0-1l-.79-.75-1.88.5-2-.5-2.75-1.25-.7-.91-2-1-1.34-1.17-1.79-.66L56,134.87l-1.49-1.58-.86-.75.94-1.83,1.57-.67h3.14l-.09-1.5-.86-1.25-.56-1.58.56-2,1.09-1.83,1.57-2,2.82-.66h5.33l.94-1.92,1.8-3,1.65-3.08,1.33-.91s1.26-1.25,1.42-1.5,1-1.92,1-1.92.79-1.66.94-1.91.08-.91-.31-.66a10,10,0,0,1-1.41.58L75,104.26l.55-.53-.55-.8-1.09-1.11a9,9,0,0,1-.63-1.5A6.33,6.33,0,0,1,74,99l1.33-3.65V93.41l-.7-1.58-.24-2.58V86.42l-.7-1.34H72.05l.47-.75.94-.58H75l.71-1a2.16,2.16,0,0,0,.47-1.08A3.38,3.38,0,0,0,76,80.59l-.62-1.5L75,77.92l-1.49-1.33-.16-1.16H74l.55-.83L75,72.68l-.08-1L74.64,71l-.31-.75H72.45l-.4-1s-1.17-1.49-1.41-1.41,0-1.08,0-1.08l-.23-.67-.71-.83L68.29,64l-.55-.49.78-1.84a2.08,2.08,0,0,1,.63-.83,1.33,1.33,0,0,1,1,0s-.08-1.41-.08-1.67a1.58,1.58,0,0,1,.32-.66l1.41.83.94.83.7-.66,1-1.83,1.25-1.34,1-1.08.47-1.66-2-2.75V49.62l-1-1.33.62-1.59,1.1.92L77.23,49l2.12,1.66a7.45,7.45,0,0,0,1,1.42,6.82,6.82,0,0,1,1,1.41l-1.25,1.08.31.83L83,55.19l-.08-3.33-.47-2.41L81.22,47.7l-.7-.33L81,46.7,83.73,46l2.75-1.58L88,42.79l2.43-3.08,1.89-2.17,2.89-.66h2l.23-.75.23-2.25-.94-.58.63-1.25a6.67,6.67,0,0,1,.71-1.17c.39-.49.93-1.08.62-1.58s-.62-.5-.54-.91a13.45,13.45,0,0,1,.54-1.92,6.34,6.34,0,0,0-.08-1.83A8,8,0,0,1,99,23.06a18.93,18.93,0,0,1,1.8-1.5l1.25-1.33h1.65l.86-1.5,2.12-1.41.86-.75,2,.58,2.63.5h1.68l1.65-.42-.47-1.5.39-1.33,1.1-.5,1.88-.41H121l2.59.75,2-.17,2.51-1.25,2.12-1.33,1.49-1.08,2.12-1.67,3.37-.66,2.82-1.25,1-1.42.39-2.25V2.08h1.81s.39.67.62.67,1.49-.09,1.49-.09l-.78-1.08,1-.83.85.5.4-1.25h1.33l2.28.41,1.56.67,1.64,1.33,1,2L153,5.83l-1.73,1.33L149.1,8l-2.74,1.08-3.14,1.42-2.35,5.41-2.82.83-2.36,3.66-1.25,2.67-1.56,2.83-1.18,2.66-.16,2.08-.53,3-1.67,1.08L128.8,36l-1.17,1.59-1.18,2.08,1.18.5,1.64-.75,1.41-.92.33,1.09.85,1.33,1-.34.7.09.63,3.08.78,2.83,1.65,1.58,1.49,1.25.39,2.66.31,2.25-1.1.58-.3,1.67.15,1.58.15,2.91,1.42.83,1.65-.33.54,1.59,1.18,1.91,1.41.83h2.43l1.88.08,2.82-.08,1.88.25,1.49-.17,2.2.59.94-.34,1.72-.83,3.45.17,1.18,1,1.18.08.93.08,1.57-.25.47-.16,9,11,.7-.34,1,.34.47.08,1.57-.75.7-.75,2.67.42,2.35.33,1.73-.09,1.41-.25,1.8-.17,1.57-.49s.78-.09,1-.09,1.09.17,1.09.17l1.73-.42,1.64-.83,2.36.5,1.09.67.55,1.41.63,1.42-2,1.08-.7,1.83.47,1.58-.55,1.75L198,86.15l-.24,2.5.47,1.92L198,92.23,197.86,94,197,96.06l1.18,1.42L199,99l-.32,1.92.63,1,.7,2.33.4,1.75.85.42,1-.33.4,1,.85,2.16.72.67.86,1-1.1.75-1.57.74L200,115.13l-2.81,2,.47.5,2.12-.34,1.48.84,1.1,1.33.71.5.94.75,1.1,1.16.94,1.17v1.83l.39.75,1,.58v1.92l1.26,2.33.46,1.75.71,2.41.55,1.33v1.59l-2.74.41L208,135l-1.72-4.58-1-.42-1.65-4.65-.78.16-1.65,1.75-3.53,1.5v1.58l-1.26.16-1.87-2.16-1.26-.34-.78.34v1.5l1,.83-.39.33-6.75.17-3.37.08-4.54-.25-2.35-.83-2.28.67-1.64.33-.08,3.25-.16,4.33h.79l.54-.09h1.1l1.17.25,2.44-.08,1.57.58.78,2,.23,1.92-.78,1.49-1.8-.66L176.22,143l-1.88,1.42-2.19.66-2.44.25-.46.67.15,7.74.31.58,1.27,1.59,1,.5,1.73,1.16,1.33.5.23,1.33-.47,1.42.79,1.17.94,1.49.94,1.25V167l.15,1.58-1,3.83-2.28,12.74-1.8,9.41Z"/><path class="cls-2" d="M87.34,43.52s3.8,2,2,7.85c-.46,1.26-5.72,8.07-.73,9.33,1.07.12,5.8,3.23,8.57-3.11.11-.58,2.54-7,8.65-5,.57.43,4.84.66,4.26,6.31-.11,1.61-.34,5.88,1.85,6.34.57.23,3.23,1.73,4.84-1.84.46-.46,2.19-.14,1.27,2.35-1,2.26-3.23,6.41-5.77,5.37-.11-.34-1.15-.11-.69,1.27-.23.58.46,3-1.84,4.15-.33.11-2.37-3.63-1.49,2,.06.38.13.8.22,1.27.43,2.28-2.32.47-3.85.94-.54.16-3.24.2-3.24,2.48,0,1.94-5-2.79-4.83-2.21.23.74,1.77,4.55,1.08,5.36-.34.39-1.9-.69-3.29-.53S91.5,87.31,91,86.3c-.92-2-.12-4.38-1.16-5.76s-1-3.12-3.44-2.66-5.09-.8-5.2-3.45c0-.7-.58-.7-1.5-2.66s-.46-1.61,0-3-.81-2.61.34-3.33,5.65.1,3.69-2.09S78,58.59,79.2,57l1.24-1.57L83,55.19s-.14-6.86-2.43-7.82L81,46.7S84,46.58,87.34,43.52Z"/><path class="cls-3" d="M108.22,78.46s.17-.69-.8-.78-1.29-.69-1.7,0-.23,1.24-.69,1.06-.37-.58-.65,0a1.69,1.69,0,0,1-.59.79s-1.06,1.25-.74,0,1.38-1,.32-1.24.78-1.38-.6-.64.37.32-1,.64-.14,0-.88,0-.18.32-.73.41-.14-1.47-.56-.32,1.52.14,0,.92-1,.33-1,.33-.85.78-.81,1.1-.45.67,0,1,1.85,1.31,2,1.4.9.12.53-.85-.82-1.88-.13-1.56.92.46.82-.09a1,1,0,0,1,.37-.88s.85.79,1.53.69,1-.59,1.65-.41.52.43,1.51.61,1.94.39,2.15.1S108.65,80.86,108.22,78.46Z"/><path class="cls-4" d="M105.56,80v-.77h.38v-.38h-.38V78.5h-.39v-.38h1.15v-.77h.39v.77h1.15v.38h-.38v.39h-.39v.38h.39V80h-.39v-.39h-.38v-.38h-.39v.38h-.38V80Zm1.15-1.54h-.39v.39h.39Z"/><line class="cls-5" x1="64.18" y1="59.59" x2="58.22" y2="59.59"/><text class="cls-6" transform="translate(0 61.91)">ANTIOQUIA</text><line class="cls-7" x1="73.85" y1="82.49" x2="62.41" y2="82.49"/><text class="cls-8" transform="translate(18.39 84.86)">SONSÓN</text><text class="cls-9" transform="translate(102.25 107.12)">CO<tspan class="cls-10" x="18.04" y="0">L</tspan><tspan class="cls-11" x="24.97" y="0">OMBIA</tspan></text></g></g></svg>