<svg xmlns="http://www.w3.org/2000/svg" viewBox="0 0 253.92 202.92"><defs><style>.cls-1,.cls-3{fill:#d13828;}.cls-2{fill:#824aff;stroke:#d13828;}.cls-11,.cls-2{stroke-miterlimit:10;stroke-width:0.5px;}.cls-12,.cls-3{font-size:12px;}.cls-12,.cls-3,.cls-5{font-family:DarkerGrotesque-SemiBold, Darker Grotesque;font-weight:600;}.cls-4{letter-spacing:0.02em;}.cls-5{font-size:14.94px;}.cls-10,.cls-5{fill:#fff;}.cls-6{letter-spacing:0em;}.cls-7{letter-spacing:0em;}.cls-8{fill:#ff9193;}.cls-12,.cls-9{fill:#a83356;}.cls-11{fill:none;stroke:#a83356;}.cls-13{letter-spacing:0.01em;}</style></defs><g id="Capa_2" data-name="Capa 2"><g id="Layer_1" data-name="Layer 1"><path class="cls-1" d="M214.27,202.92l-1.94-2-1.41-2.4h-4.45L205,197.36l7.41-12.26-.7-.5-.16-.83-.78-.66-1.48-.5-1.09-.91h-1.88l-.93-.75-.39-.66-1.72-1-.78-.5h-2.81v1.57h-1.17l-1.64-.16-.93.33v-.75l-1.25-1V180l-.55-.82v-.42l-2.57-.5v-.82l-.86.57-1.17,1.17-.55,1.16-.7.08-1.17.17s-.55.49-.86.49-2.57.33-2.57.33l-.54-.08L181.5,181l-1-.17v-.24l-.94.24-.47.67-.94-.25-1.87.66-.54-1.08-1.33-.33s-1.25-.25-1.17-.83-.71-1.33,0-1.74a2.93,2.93,0,0,0,1-1l-1.32-2.57-1.26-.83h-2.58l-.7-.58v-2.82l-.86-1.16-.47-1.41L166,167H164.1v-.59l-.78-1h-1.17l-.63-.75v-.33h-1.24l-1.64-.41v-2.24l-.86-.58-.39-1.16v-1.08l-1.72-1.16-1.56-1.24-1.25-.5v-1.16l-1-.83H151v.58l-1.4-.58-1.73-1.33-.85-.49-1.72.91-1.48-.91-1.56-.5-.86-.66h-2l-1.79-1.16-1.32-1.08-1-1.24-.94-.5-1.86-.41-1.41.41v1.16l-1.33.75h-1.17l-1.33-.67-2.65.42-2.65-.75-1.56-.33s-2.74-1-2.81-1a11.38,11.38,0,0,1-.39-1.58v-1s-1.48-.49-1.56-.74a4,4,0,0,1,0-1l-.78-.74L113,142l-2-.5-2.73-1.24-.7-.92-2-1-1.33-1.16-1.79-.66-2.34-2.24-1.49-1.58-.86-.74.94-1.83,1.56-.66h3.12l-.08-1.5-.86-1.24-.55-1.57.55-2,1.09-1.83,1.56-2,2.81-.67h5.31l.93-1.91,1.8-3,1.64-3.06,1.32-.92s1.25-1.24,1.41-1.49,1-1.91,1-1.91.78-1.66.94-1.9.08-.91-.31-.66a10,10,0,0,1-1.41.58l-1.56-.64.55-.53-.55-.79-1.09-1.11a8.88,8.88,0,0,1-.63-1.49,6.2,6.2,0,0,1,.79-1.33l1.32-3.64V93l-.7-1.58-.24-2.57V86l-.69-1.32h-1.65l.48-.75.93-.58h1.56l.7-1a2.09,2.09,0,0,0,.48-1.07,3.38,3.38,0,0,0-.24-1.08l-.63-1.49-.31-1.16-1.48-1.33-.16-1.16h.63l.54-.82.47-1.91-.07-1-.32-.66-.31-.75h-1.87l-.4-1s-1.17-1.49-1.4-1.41,0-1.08,0-1.08l-.23-.66-.71-.83-1.4-1.24-.55-.5.78-1.83a2,2,0,0,1,.63-.82,1.3,1.3,0,0,1,1,0s-.07-1.41-.07-1.66a1.6,1.6,0,0,1,.31-.66l1.4.82.94.83.7-.66,1-1.82,1.25-1.33L120.7,55l.47-1.66-2-2.73V49.41l-1-1.33.62-1.58,1.09.92,1.41,1.41,2.11,1.65a7.12,7.12,0,0,0,1,1.41,7.42,7.42,0,0,1,1,1.41l-1.24,1.08.31.82,2.49-.24-.07-3.32-.47-2.4-1.17-1.74-.7-.34.47-.66,2.73-.66,2.73-1.58L132,42.61l2.43-3.07,1.87-2.16,2.88-.66h2l.23-.75.23-2.23-.93-.59.62-1.24a6.77,6.77,0,0,1,.71-1.16c.39-.5.93-1.08.62-1.57s-.62-.5-.54-.92a12,12,0,0,1,.54-1.9,6.72,6.72,0,0,0-.08-1.83,8.52,8.52,0,0,1,.31-1.57,20,20,0,0,1,1.8-1.49L146,20.14h1.64l.85-1.49,2.11-1.41.86-.74,2,.57,2.62.5h1.67l1.64-.41-.46-1.49.39-1.33,1.09-.5,1.87-.41h2.65l2.58.75,2-.17L172,12.77l2.11-1.33,1.48-1.08,2.11-1.66L181,8l2.81-1.24,1-1.41.39-2.24V2.07H187s.39.67.62.67,1.49-.09,1.49-.09l-.78-1.08,1-.82.86.49L190.63,0H192l2.27.41,1.56.67,1.64,1.32,1,2L196.72,5.8,195,7.13,192.82,8,190.08,9,187,10.44l-2.34,5.39-2.82.83-2.34,3.65L178.21,23l-1.55,2.82-1.17,2.65-.16,2.07-.53,3-1.66,1.08-.54,1.33-1.17,1.58-1.17,2.07,1.17.49,1.64-.74,1.4-.91.33,1.08.84,1.32,1-.33.7.08L178,43.6l.78,2.82L180.41,48l1.48,1.25.39,2.65.31,2.24-1.1.58-.3,1.66.15,1.57.15,2.9,1.41.83,1.64-.33.55,1.57,1.17,1.91,1.4.83h2.42l1.88.08,2.81-.08,1.87.25,1.48-.17,2.19.58.93-.33,1.72-.83,3.43.17,1.17,1,1.18.08.93.09,1.56-.25.47-.17,9,10.94.7-.33,1,.33.47.09,1.56-.75.7-.75,2.66.42,2.34.33,1.72-.09,1.4-.24,1.79-.17,1.57-.5s.78-.08,1-.08,1.08.16,1.08.16l1.72-.41,1.64-.83,2.34.5,1.1.66.54,1.41.63,1.41-2,1.08-.7,1.82.46,1.57-.54,1.75-2.34,1.4-.24,2.49.47,1.91-.23,1.66-.15,1.74-.87,2.07,1.18,1.41.86,1.49-.32,1.91.63,1,.69,2.32.4,1.74.85.43,1-.34.39,1,.85,2.15.71.67.85,1-1.09.75-1.56.74-2.42,2.74-2.81,2,.47.49,2.11-.33,1.48.83,1.09,1.33.71.49.94.75,1.09,1.16.93,1.16v1.82l.4.75,1,.58v1.91l1.25,2.32.47,1.74.7,2.4.54,1.33v1.58l-2.73.41.24-2.9-1.72-4.56-1-.42-1.65-4.63-.77.16-1.65,1.74-3.51,1.49v1.58l-1.25.16L238,127.81l-1.25-.33-.78.33v1.5l1,.83-.39.33-6.71.16-3.36.09-4.53-.25-2.34-.83-2.26.66-1.64.34-.08,3.23-.16,4.31h.79l.54-.09h1.09l1.17.26,2.42-.09,1.57.58.78,2,.23,1.91-.78,1.49-1.8-.66-1.71-1.16-1.88,1.41-2.18.66-2.42.25-.47.66.16,7.71.31.58,1.25,1.58,1,.49,1.72,1.16,1.33.5.23,1.33-.47,1.4.78,1.17.94,1.49.93,1.24v2.24l.16,1.58-1,3.81-2.27,12.68-1.79,9.37Z"/><line class="cls-2" x1="115.63" y1="96.54" x2="104.19" y2="96.54"/><text class="cls-3" transform="translate(63.96 98.92)">CH<tspan class="cls-4" x="14.21" y="0">O</tspan><tspan x="21.74" y="0">CÓ</tspan></text><text class="cls-5" transform="translate(146.03 106.68)">CO<tspan class="cls-6" x="18.04" y="0">L</tspan><tspan class="cls-7" x="24.97" y="0">OMBIA</tspan></text><path class="cls-8" d="M124.14,54.42l1.24-1.08a7.08,7.08,0,0,0-1-1.4,7.42,7.42,0,0,1-1-1.41l-2.11-1.65-1.4-1.41-1.09-.91-.62,1.57,1,1.33V50.7l2,2.73-.46,1.65-.94,1.08-1.24,1.32-1,1.82-.69.67-.94-.83-1.4-.83a1.6,1.6,0,0,0-.31.66c0,.25.07,1.66.07,1.66a1.3,1.3,0,0,0-1,0,2.08,2.08,0,0,0-.63.82l-.77,1.83.54.49,1.4,1.24.71.83.23.66s-.23,1.16,0,1.08,1.4,1.4,1.4,1.4l.39,1h1.87l.31.75.32.66.07,1-.47,1.91-.54.82h-.63l.16,1.16,1.48,1.33.31,1.16.63,1.48a3.58,3.58,0,0,1,.23,1.08,2.11,2.11,0,0,1-.47,1.07l-.7,1h-1.56l-.93.58-.47.74h1.64l.7,1.33v2.81l.23,2.56.7,1.58v1.9l-1.32,3.64a6.38,6.38,0,0,0-.78,1.32,8.88,8.88,0,0,0,.63,1.49l1.08,1.11.55.8-.55.52,1.56.63a9.63,9.63,0,0,0,1.4-.57c.39-.25.47.41.31.66.45-.88,1.19.15,3.77,1.41s.57.63,3.67,0,.7-.63,1.56-1.6.56-1.26,1.3-2.88.34-1.3,1.2-3.65.69-.86,2.35-3a8.67,8.67,0,0,0,1.89-3c.92-1.83-.8-3.15-.68-4.3a29.57,29.57,0,0,1,.86-3.49c.51-2.23,0-2.81,0-2.81a11.86,11.86,0,0,0-2.24-2.46c-1.49-1.26-2.46-.23-3.15-.29s-1.15,0-2.39-.17-.88.46-2,0-.4-1.43-.93-3.15.08-.52-.9-1.26-.34-.12-1.14-.4-.46-.29-.12-1.44.57-.17,2.16-1.37c0,0-.15-.4.65-1.43s.8.11,1.43,0,.82-.58,1.2-2.7-.38-.45-.68-1.37-1-1.15-1.38-1.78a7.34,7.34,0,0,0-2.06-1.77c-.52-.29-2.41-1.55-2.52-2.12s.34-.81.68-1.21.69-1.6,1.21-2.23a1.47,1.47,0,0,0,.22-.93l-1.8.18Z"/><path class="cls-9" d="M119.2,70.49l-.48.22.32.68.08,1s.53-.33.41,0-.37.39-.43.95-.49,1.5-.13,1.66.2.66.84.87-.47.68.21,1.36.21-.17,1.07.2a.9.9,0,0,0,.25.08,1.3,1.3,0,0,0,.51,0c.46,0,.35.28.27.74-.12.68-.43.74-.43,1.23s-.19.56,0,1,.25,1,.74.93a1.76,1.76,0,0,0,1.36-.5c.68-.55,1.3-.31,1.2-1.29s-.21-1,0-1.61a.67.67,0,0,0-.26-.72c-.08-.06.11-.21.08-.27s-.14-.35,0-.36c.33,0,.37-.4.73,0,.51.62.19.37.63.5s1,.21,1-.39.3,0,.48-.15a6.34,6.34,0,0,0-.24-1.62c-.54-1.75.07-.52-.92-1.28s-.35-.12-1.17-.41-.47-.29-.12-1.46c.3-1,.51-.44,1.55-1a6,6,0,0,0-.71-.42c-1.08-.55-1.73,0-2.59,0s-.67-.72-1.21-1.09c-.17-.11-.35-.17-.39-.06a1.52,1.52,0,0,1-.89.91c-.62.19-.54-.25-1.08-.17l-.17,0a.28.28,0,0,1-.11,0s-.08,0-.1,0a.26.26,0,0,0,0,.15s0,0,0,0,0,0,0,0,0,0,0,0,0,0,0,0,0-.08,0-.07a.07.07,0,0,0-.05,0l.05,0a.1.1,0,0,1,0,.07s0,0,0,0,0,.06,0,0l-.06,0s0,0-.06,0,0,0,0,0A.12.12,0,0,1,119.2,70.49Z"/><path class="cls-10" d="M120.44,75.29v-.77h.39v-.39h-.39v-.38h-.38v-.38h1.15V72.6h.39v.77h1.15v.38h-.39v.38H122v.39h.38v.77H122V74.9h-.38v-.38h-.39v.38h-.38v.39Zm1.16-1.54h-.39v.38h.39Z"/><line class="cls-11" x1="117.16" y1="72.45" x2="66.78" y2="72.45"/><text class="cls-12" transform="translate(0 75)">QUIB<tspan class="cls-13" x="25.37" y="0">D</tspan><tspan x="32.63" y="0">Ó</tspan></text><path class="cls-9" d="M43.68,59.67c-.21.1-.55.26-1.08.49l.72,1.51.18,2.27s1.2-.74.92,0-.83.88-1,2.13-1.08,3.36-.28,3.74.45,1.48,1.87,1.94c1.23.39-1,1.52.49,3s.45-.36,2.39.47a3.71,3.71,0,0,0,.57.18,4.13,4.13,0,0,0,1.14.07c1-.09.79.61.61,1.64-.28,1.52-1,1.66-1,2.77s-.42,1.24,0,2.35.55,2.22,1.66,2.08a4,4,0,0,0,3-1.11c1.52-1.25,2.91-.69,2.7-2.91s-.48-2.21,0-3.6a1.59,1.59,0,0,0-.6-1.63c-.17-.11.26-.46.2-.6-.21-.46-.32-.78,0-.8.74,0,.83-.89,1.65.11,1.14,1.4.43.84,1.4,1.12s2.3.48,2.22-.87.69,0,1.08-.34a13,13,0,0,0-.55-3.62c-1.21-3.93.17-1.18-2.06-2.88s-.78-.27-2.62-.92-1-.65-.26-3.27c.66-2.21,1.15-1,3.47-2.19a12.88,12.88,0,0,0-1.59-1c-2.42-1.22-3.87,0-5.81,0s-1.51-1.61-2.72-2.44c-.38-.25-.77-.37-.86-.13a3.38,3.38,0,0,1-2,2c-1.41.44-1.22-.55-2.44-.38a2.63,2.63,0,0,0-.38,0,.37.37,0,0,1-.25,0s-.17-.07-.21,0a.72.72,0,0,0,0,.33c0,.08.07.05,0,.08s0,.09-.06,0-.07,0-.07-.06,0-.06,0-.12,0-.18-.1-.16a.17.17,0,0,0-.11.1l.11.06a.26.26,0,0,1,0,.15c0,.06,0,.06,0,.1s0,.14-.11.08a.42.42,0,0,0-.14-.11s-.09,0-.12,0-.06.07-.06.1A.55.55,0,0,1,43.68,59.67Z"/></g></g></svg>