<svg xmlns="http://www.w3.org/2000/svg" viewBox="0 0 75.45 81"><defs><style>.cls-1{fill:#0c6186;}.cls-2{fill:#0db1cb;}.cls-3{fill:#aae2ca;}.cls-4{fill:#66e3eb;}.cls-5{fill:#043a42;}</style></defs><g id="Capa_2" data-name="Capa 2"><g id="Layer_1" data-name="Layer 1"><polygon class="cls-1" points="74.34 38.83 74.34 37.73 74.34 36.62 73.23 36.62 73.23 35.5 73.23 34.4 72.12 34.4 72.12 33.29 72.12 32.17 71.01 32.17 69.91 32.17 69.91 31.07 68.79 31.07 68.79 29.95 67.69 29.95 67.69 28.85 66.57 28.85 65.47 28.85 65.47 27.74 64.36 27.74 63.24 27.74 63.24 26.63 62.14 26.63 61.03 26.63 59.91 26.63 58.81 26.63 57.7 26.63 56.59 26.63 55.48 26.63 54.37 26.63 53.26 26.63 52.15 26.63 51.04 26.63 51.04 25.52 49.93 25.52 49.93 24.41 48.82 24.41 48.82 23.3 47.71 23.3 47.71 22.19 46.6 22.19 46.6 21.08 45.49 21.08 44.38 21.08 43.27 21.08 42.17 21.08 41.05 21.08 41.05 19.97 41.05 18.86 41.05 17.75 39.95 17.75 39.95 16.64 39.95 15.53 39.95 14.42 38.83 14.42 38.83 13.31 37.73 13.31 37.73 12.21 37.73 11.09 36.62 11.09 36.62 9.98 36.62 8.88 35.5 8.88 35.5 7.76 34.4 7.76 34.4 6.66 33.29 6.66 32.18 6.66 32.18 5.54 31.07 5.54 31.07 4.44 29.96 4.44 29.96 3.33 28.85 3.33 27.74 3.33 27.74 2.21 26.63 2.21 25.52 2.21 24.41 2.21 23.3 2.21 22.19 2.21 22.19 1.11 22.19 0 21.08 0 19.97 0 18.86 0 18.86 1.11 18.86 2.21 18.86 3.33 19.97 3.33 19.97 4.44 19.97 5.54 21.08 5.54 22.19 5.54 22.19 6.66 23.3 6.66 24.41 6.66 24.41 7.76 25.52 7.76 25.52 8.88 26.63 8.88 26.63 9.98 27.74 9.98 27.74 11.09 28.85 11.09 29.96 11.09 29.96 12.21 31.07 12.21 31.07 13.31 32.18 13.31 33.29 13.31 33.29 14.42 34.4 14.42 35.5 14.42 35.5 15.53 35.5 16.64 36.62 16.64 36.62 17.75 37.73 17.75 37.73 18.86 37.73 19.97 38.83 19.97 38.83 21.08 38.83 22.19 38.83 23.3 37.73 23.3 37.73 24.41 37.73 25.52 36.62 25.52 36.62 26.63 36.62 27.74 36.62 28.85 36.62 29.95 37.73 29.95 37.73 31.07 38.83 31.07 38.83 32.17 39.95 32.17 39.95 33.29 41.05 33.29 42.17 33.29 42.17 34.4 43.27 34.4 43.27 35.5 44.38 35.5 45.49 35.5 46.6 35.5 47.71 35.5 47.71 34.4 48.82 34.4 48.82 33.29 49.93 33.29 49.93 32.17 49.93 31.07 51.04 31.07 51.04 29.95 52.15 29.95 53.26 29.95 54.37 29.95 55.48 29.95 56.59 29.95 57.7 29.95 58.81 29.95 58.81 31.07 59.91 31.07 61.03 31.07 62.14 31.07 62.14 32.17 63.24 32.17 63.24 33.29 64.36 33.29 65.47 33.29 65.47 34.4 66.57 34.4 66.57 35.5 67.69 35.5 67.69 36.62 67.69 37.73 68.79 37.73 68.79 38.83 69.91 38.83 71.01 38.83 71.01 39.95 72.12 39.95 72.12 41.05 72.12 42.16 73.23 42.16 74.34 42.16 75.45 42.16 75.45 41.05 75.45 39.95 75.45 38.83 74.34 38.83"/><polygon class="cls-2" points="52.15 18.86 52.15 17.75 51.04 17.75 51.04 16.64 49.93 16.64 48.82 16.64 47.71 16.64 47.71 17.75 46.6 17.75 46.6 18.86 45.49 18.86 45.49 19.97 45.49 21.08 46.6 21.08 46.6 22.19 47.71 22.19 47.71 23.3 48.82 23.3 48.82 24.41 49.93 24.41 51.04 24.41 51.04 23.3 52.15 23.3 52.15 22.19 53.26 22.19 53.26 21.08 53.26 19.97 53.26 18.86 52.15 18.86"/><polygon class="cls-2" points="44.38 35.5 43.27 35.5 43.27 34.4 42.17 34.4 42.17 33.29 41.05 33.29 39.95 33.29 39.95 32.17 38.83 32.17 38.83 31.07 37.73 31.07 37.73 29.95 36.62 29.95 36.62 28.85 36.62 27.74 36.62 26.63 35.5 26.63 34.4 26.63 33.29 26.63 32.18 26.63 32.18 27.74 31.07 27.74 29.96 27.74 28.85 27.74 27.74 27.74 26.63 27.74 26.63 28.85 25.52 28.85 24.41 28.85 23.3 28.85 23.3 29.95 22.19 29.95 21.08 29.95 21.08 31.07 22.19 31.07 22.19 32.17 23.3 32.17 23.3 33.29 24.41 33.29 25.52 33.29 26.63 33.29 27.74 33.29 28.85 33.29 29.96 33.29 31.07 33.29 31.07 34.4 32.18 34.4 32.18 35.5 33.29 35.5 33.29 36.62 33.29 37.73 34.4 37.73 34.4 38.83 34.4 39.95 35.5 39.95 35.5 41.05 36.62 41.05 37.73 41.05 38.83 41.05 39.95 41.05 41.05 41.05 42.17 41.05 42.17 42.16 42.17 43.27 43.27 43.27 43.27 44.38 43.27 45.49 43.27 46.6 44.38 46.6 44.38 47.71 44.38 48.82 45.49 48.82 45.49 49.93 46.6 49.93 46.6 48.82 46.6 47.71 46.6 46.6 46.6 45.49 46.6 44.38 46.6 43.27 46.6 42.16 46.6 41.05 46.6 39.95 46.6 38.83 46.6 37.73 46.6 36.62 46.6 35.5 45.49 35.5 44.38 35.5"/><polygon class="cls-2" points="38.83 54.37 38.83 53.26 37.73 53.26 37.73 52.15 36.62 52.15 36.62 51.04 35.5 51.04 35.5 49.93 35.5 48.82 34.4 48.82 34.4 47.71 33.29 47.71 33.29 48.82 32.18 48.82 32.18 49.93 31.07 49.93 31.07 51.04 29.96 51.04 29.96 52.15 29.96 53.26 29.96 54.37 31.07 54.37 31.07 55.48 32.18 55.48 32.18 56.59 33.29 56.59 34.4 56.59 34.4 57.7 35.5 57.7 36.62 57.7 37.73 57.7 38.83 57.7 39.95 57.7 39.95 56.59 39.95 55.48 38.83 55.48 38.83 54.37"/><polygon class="cls-2" points="29.96 46.6 29.96 45.49 31.07 45.49 31.07 44.38 29.96 44.38 29.96 43.27 28.85 43.27 28.85 42.16 27.74 42.16 27.74 43.27 26.63 43.27 26.63 44.38 25.52 44.38 25.52 45.49 25.52 46.6 24.41 46.6 24.41 47.71 23.3 47.71 23.3 48.82 23.3 49.93 24.41 49.93 25.52 49.93 25.52 51.04 26.63 51.04 26.63 49.93 27.74 49.93 27.74 48.82 28.85 48.82 28.85 47.71 29.96 47.71 29.96 46.6"/><polygon class="cls-2" points="23.3 42.16 24.41 42.16 24.41 41.05 24.41 39.95 23.3 39.95 23.3 38.83 22.19 38.83 22.19 37.73 21.08 37.73 19.97 37.73 18.86 37.73 18.86 36.62 17.75 36.62 17.75 35.5 16.64 35.5 15.53 35.5 14.43 35.5 14.43 36.62 14.43 37.73 14.43 38.83 14.43 39.95 15.53 39.95 15.53 41.05 16.64 41.05 16.64 42.16 17.75 42.16 17.75 43.27 18.86 43.27 18.86 44.38 19.97 44.38 19.97 45.49 21.08 45.49 21.08 44.38 22.19 44.38 22.19 43.27 23.3 43.27 23.3 42.16"/><polygon class="cls-3" points="45.49 49.93 45.49 48.82 44.38 48.82 44.38 47.71 44.38 46.6 43.27 46.6 43.27 45.49 43.27 44.38 43.27 43.27 42.17 43.27 42.17 42.16 42.17 41.05 41.05 41.05 39.95 41.05 38.83 41.05 37.73 41.05 36.62 41.05 35.5 41.05 35.5 39.95 34.4 39.95 34.4 38.83 34.4 37.73 33.29 37.73 33.29 36.62 33.29 35.5 32.18 35.5 32.18 34.4 31.07 34.4 31.07 33.29 29.96 33.29 28.85 33.29 27.74 33.29 26.63 33.29 25.52 33.29 24.41 33.29 23.3 33.29 23.3 32.17 22.19 32.17 22.19 31.07 21.08 31.07 19.97 31.07 18.86 31.07 18.86 32.17 17.75 32.17 16.64 32.17 16.64 33.29 15.53 33.29 15.53 34.4 14.43 34.4 13.31 34.4 12.21 34.4 12.21 35.5 12.21 36.62 13.31 36.62 14.43 36.62 14.43 35.5 15.53 35.5 16.64 35.5 17.75 35.5 17.75 36.62 18.86 36.62 18.86 37.73 19.97 37.73 21.08 37.73 22.19 37.73 22.19 38.83 23.3 38.83 23.3 39.95 24.41 39.95 24.41 41.05 25.52 41.05 25.52 39.95 26.63 39.95 26.63 41.05 26.63 42.16 27.74 42.16 28.85 42.16 28.85 43.27 29.96 43.27 29.96 44.38 31.07 44.38 31.07 45.49 32.18 45.49 32.18 46.6 33.29 46.6 33.29 47.71 34.4 47.71 34.4 48.82 35.5 48.82 35.5 49.93 35.5 51.04 36.62 51.04 36.62 52.15 37.73 52.15 37.73 53.26 38.83 53.26 38.83 54.37 38.83 55.48 39.95 55.48 39.95 56.59 39.95 57.7 38.83 57.7 38.83 58.81 38.83 59.91 38.83 61.03 38.83 62.14 39.95 62.14 41.05 62.14 41.05 61.03 41.05 59.91 42.17 59.91 42.17 58.81 43.27 58.81 43.27 57.7 44.38 57.7 44.38 56.59 44.38 55.48 45.49 55.48 45.49 54.37 46.6 54.37 46.6 53.26 46.6 52.15 46.6 51.04 46.6 49.93 45.49 49.93"/><polygon class="cls-4" points="37.73 57.7 36.62 57.7 35.5 57.7 34.4 57.7 34.4 56.59 33.29 56.59 32.18 56.59 32.18 55.48 31.07 55.48 31.07 54.37 29.96 54.37 29.96 53.26 28.85 53.26 28.85 54.37 27.74 54.37 27.74 55.48 27.74 56.59 26.63 56.59 26.63 57.7 26.63 58.81 26.63 59.91 25.52 59.91 25.52 61.03 25.52 62.14 24.41 62.14 24.41 63.24 25.52 63.24 26.63 63.24 27.74 63.24 27.74 64.36 28.85 64.36 29.96 64.36 31.07 64.36 32.18 64.36 33.29 64.36 34.4 64.36 35.5 64.36 36.62 64.36 36.62 63.24 37.73 63.24 38.83 63.24 38.83 62.14 38.83 61.03 38.83 59.91 38.83 58.81 38.83 57.7 37.73 57.7"/><polygon class="cls-4" points="24.41 53.26 25.52 53.26 25.52 52.15 26.63 52.15 26.63 51.04 25.52 51.04 25.52 49.93 24.41 49.93 23.3 49.93 23.3 48.82 22.19 48.82 22.19 49.93 21.08 49.93 21.08 51.04 21.08 52.15 19.97 52.15 19.97 53.26 18.86 53.26 18.86 54.37 17.75 54.37 17.75 55.48 16.64 55.48 16.64 56.59 16.64 57.7 17.75 57.7 18.86 57.7 18.86 58.81 19.97 58.81 19.97 59.91 21.08 59.91 21.08 58.81 22.19 58.81 22.19 57.7 22.19 56.59 23.3 56.59 23.3 55.48 23.3 54.37 24.41 54.37 24.41 53.26"/><polygon class="cls-4" points="16.64 49.93 16.64 48.82 17.75 48.82 17.75 47.71 18.86 47.71 18.86 46.6 19.97 46.6 19.97 45.49 19.97 44.38 18.86 44.38 18.86 43.27 17.75 43.27 17.75 42.16 16.64 42.16 16.64 41.05 15.53 41.05 15.53 39.95 14.43 39.95 14.43 38.83 14.43 37.73 14.43 36.62 13.31 36.62 12.21 36.62 11.09 36.62 11.09 37.73 11.09 38.83 9.98 38.83 9.98 39.95 9.98 41.05 9.98 42.16 9.98 43.27 9.98 44.38 9.98 45.49 9.98 46.6 11.09 46.6 11.09 47.71 11.09 48.82 12.21 48.82 12.21 49.93 12.21 51.04 12.21 52.15 13.31 52.15 14.43 52.15 14.43 51.04 15.53 51.04 16.64 51.04 16.64 49.93"/><polygon class="cls-5" points="32.18 46.6 32.18 45.49 31.07 45.49 29.96 45.49 29.96 46.6 29.96 47.71 28.85 47.71 28.85 48.82 27.74 48.82 27.74 49.93 26.63 49.93 26.63 51.04 26.63 52.15 25.52 52.15 25.52 53.26 24.41 53.26 24.41 54.37 23.3 54.37 23.3 55.48 23.3 56.59 22.19 56.59 22.19 57.7 22.19 58.81 21.08 58.81 21.08 59.91 21.08 61.03 19.97 61.03 19.97 62.14 19.97 63.24 19.97 64.36 18.86 64.36 18.86 65.47 18.86 66.57 18.86 67.69 18.86 68.79 17.75 68.79 17.75 69.9 17.75 71.01 17.75 72.12 16.64 72.12 16.64 73.23 16.64 74.34 16.64 75.45 16.64 76.56 16.64 77.67 16.64 78.78 17.75 78.78 17.75 79.89 17.75 81 18.86 81 19.97 81 21.08 81 21.08 79.89 21.08 78.78 21.08 77.67 21.08 76.56 21.08 75.45 21.08 74.34 21.08 73.23 21.08 72.12 21.08 71.01 21.08 69.9 22.19 69.9 22.19 68.79 22.19 67.69 22.19 66.57 23.3 66.57 23.3 65.47 23.3 64.36 24.41 64.36 24.41 63.24 24.41 62.14 25.52 62.14 25.52 61.03 25.52 59.91 26.63 59.91 26.63 58.81 26.63 57.7 26.63 56.59 27.74 56.59 27.74 55.48 27.74 54.37 28.85 54.37 28.85 53.26 29.96 53.26 29.96 52.15 29.96 51.04 31.07 51.04 31.07 49.93 32.18 49.93 32.18 48.82 33.29 48.82 33.29 47.71 33.29 46.6 32.18 46.6"/><polygon class="cls-5" points="16.64 56.59 16.64 55.48 17.75 55.48 17.75 54.37 18.86 54.37 18.86 53.26 19.97 53.26 19.97 52.15 21.08 52.15 21.08 51.04 21.08 49.93 22.19 49.93 22.19 48.82 23.3 48.82 23.3 47.71 24.41 47.71 24.41 46.6 25.52 46.6 25.52 45.49 25.52 44.38 26.63 44.38 26.63 43.27 27.74 43.27 27.74 42.16 26.63 42.16 26.63 41.05 26.63 39.95 25.52 39.95 25.52 41.05 24.41 41.05 24.41 42.16 23.3 42.16 23.3 43.27 22.19 43.27 22.19 44.38 21.08 44.38 21.08 45.49 19.97 45.49 19.97 46.6 18.86 46.6 18.86 47.71 17.75 47.71 17.75 48.82 16.64 48.82 16.64 49.93 16.64 51.04 15.53 51.04 14.43 51.04 14.43 52.15 13.31 52.15 13.31 53.26 13.31 54.37 12.21 54.37 12.21 55.48 11.09 55.48 11.09 56.59 9.98 56.59 9.98 57.7 8.88 57.7 8.88 58.81 7.76 58.81 7.76 59.91 6.66 59.91 6.66 61.03 5.55 61.03 5.55 62.14 4.44 62.14 4.44 63.24 3.33 63.24 3.33 64.36 2.22 64.36 2.22 65.47 1.11 65.47 1.11 66.57 0 66.57 0 67.69 0 68.79 0 69.9 1.11 69.9 2.22 69.9 3.33 69.9 4.44 69.9 5.55 69.9 5.55 68.79 6.66 68.79 6.66 67.69 6.66 66.57 7.76 66.57 8.88 66.57 8.88 65.47 9.98 65.47 9.98 64.36 11.09 64.36 11.09 63.24 11.09 62.14 12.21 62.14 13.31 62.14 13.31 61.03 13.31 59.91 14.43 59.91 14.43 58.81 15.53 58.81 15.53 57.7 16.64 57.7 16.64 56.59"/></g></g></svg>