<svg xmlns="http://www.w3.org/2000/svg" viewBox="0 0 96.84 95.86"><defs><style>.cls-1{fill:#ff9193;}.cls-2{fill:#ff9166;}.cls-3{fill:#d13828;}.cls-4{fill:#ff6656;}.cls-5{fill:#a83356;}</style></defs><g id="Capa_2" data-name="Capa 2"><g id="Layer_1" data-name="Layer 1"><polygon class="cls-1" points="80.04 54.35 79.06 54.35 79.06 55.34 80.04 55.34 81.03 55.34 81.03 54.35 80.04 54.35"/><polygon class="cls-1" points="77.08 55.34 77.08 56.33 76.09 56.33 75.1 56.33 75.1 57.32 74.11 57.32 73.12 57.32 72.14 57.32 71.15 57.32 71.15 58.31 70.16 58.31 69.17 58.31 68.19 58.31 67.19 58.31 66.21 58.31 65.22 58.31 65.22 57.32 64.23 57.32 63.24 57.32 62.25 57.32 61.27 57.32 60.28 57.32 59.29 57.32 59.29 56.33 58.3 56.33 57.32 56.33 56.33 56.33 55.34 56.33 55.34 55.34 54.35 55.34 53.36 55.34 53.36 56.33 52.37 56.33 51.38 56.33 50.4 56.33 49.41 56.33 49.41 55.34 48.42 55.34 47.43 55.34 46.45 55.34 45.45 55.34 45.45 56.33 46.45 56.33 46.45 57.32 47.43 57.32 48.42 57.32 49.41 57.32 50.4 57.32 51.38 57.32 52.37 57.32 53.36 57.32 54.35 57.32 55.34 57.32 56.33 57.32 57.32 57.32 57.32 58.31 58.3 58.31 59.29 58.31 60.28 58.31 61.27 58.31 61.27 59.29 62.25 59.29 63.24 59.29 64.23 59.29 65.22 59.29 66.21 59.29 67.19 59.29 67.19 60.28 68.19 60.28 69.17 60.28 70.16 60.28 70.16 59.29 71.15 59.29 72.14 59.29 72.14 58.31 73.12 58.31 74.11 58.31 75.1 58.31 76.09 58.31 76.09 57.32 77.08 57.32 78.07 57.32 78.07 56.33 79.06 56.33 79.06 55.34 78.07 55.34 77.08 55.34"/><path class="cls-1" d="M67.2,12.85v3h3v-4h-3Zm2,0v2h-1v-2Z"/><polygon class="cls-1" points="66.21 20.75 66.21 19.76 66.21 18.78 67.19 18.78 67.19 17.79 66.21 17.79 65.22 17.79 64.23 17.79 64.23 18.78 64.23 19.76 65.22 19.76 65.22 20.75 66.21 20.75"/><polygon class="cls-1" points="66.21 1.98 67.19 1.98 67.19 0.99 66.21 0.99 65.22 0.99 65.22 1.98 65.22 2.96 66.21 2.96 66.21 1.98"/><polygon class="cls-1" points="65.22 3.96 65.22 2.96 64.23 2.96 63.24 2.96 63.24 3.96 64.23 3.96 65.22 3.96"/><polygon class="cls-1" points="62.25 12.85 62.25 11.86 63.24 11.86 63.24 12.85 63.24 13.84 62.25 13.84 62.25 14.83 63.24 14.83 64.23 14.83 64.23 13.84 65.22 13.84 65.22 12.85 65.22 11.86 64.23 11.86 64.23 10.87 63.24 10.87 62.25 10.87 61.27 10.87 61.27 11.86 61.27 12.85 61.27 13.84 62.25 13.84 62.25 12.85"/><polygon class="cls-1" points="37.55 48.42 37.55 47.44 36.56 47.44 36.56 46.45 36.56 45.46 35.58 45.46 35.58 44.47 35.58 43.48 34.58 43.48 34.58 42.5 34.58 41.5 33.6 41.5 33.6 40.52 33.6 39.53 32.61 39.53 32.61 38.54 31.62 38.54 30.63 38.54 30.63 37.55 29.65 37.55 28.66 37.55 28.66 38.54 28.66 39.53 28.66 40.52 27.67 40.52 26.68 40.52 25.69 40.52 25.69 39.53 25.69 38.54 25.69 37.55 24.7 37.55 24.7 36.57 23.71 36.57 22.73 36.57 21.74 36.57 20.75 36.57 20.75 37.55 20.75 38.54 20.75 39.53 20.75 40.52 20.75 41.5 20.75 42.5 20.75 43.48 20.75 44.47 20.75 45.46 20.75 46.45 20.75 47.44 20.75 48.42 20.75 49.41 19.76 49.41 19.76 50.4 19.76 51.39 19.76 52.37 19.76 53.37 18.78 53.37 18.78 54.35 18.78 55.34 18.78 56.33 19.76 56.33 20.75 56.33 20.75 57.32 21.74 57.32 21.74 56.33 22.73 56.33 22.73 55.34 23.71 55.34 23.71 54.35 24.7 54.35 25.69 54.35 26.68 54.35 27.67 54.35 28.66 54.35 28.66 53.37 29.65 53.37 30.63 53.37 31.62 53.37 32.61 53.37 33.6 53.37 33.6 52.37 34.58 52.37 35.58 52.37 36.56 52.37 36.56 51.39 37.55 51.39 38.54 51.39 38.54 50.4 38.54 49.41 37.55 49.41 37.55 48.42"/><rect class="cls-1" x="33.6" y="53.37" width="0.99" height="0.99"/><path class="cls-1" d="M28.66,25.7h1v-4h-3v4h2Zm-1-2h1v1h-1Z"/><polygon class="cls-1" points="24.7 29.65 24.7 30.63 25.69 30.63 25.69 31.63 26.68 31.63 27.67 31.63 27.67 30.63 27.67 29.65 28.66 29.65 28.66 28.66 27.67 28.66 26.68 28.66 25.69 28.66 24.7 28.66 24.7 29.65"/><path class="cls-1" d="M22.73,26.68h1v-1h1v-4h-3v4h1Zm0-3h1v1h-1Z"/><polygon class="cls-2" points="80.04 51.39 80.04 50.4 79.06 50.4 79.06 49.41 78.07 49.41 78.07 48.42 77.08 48.42 77.08 47.44 77.08 46.45 76.09 46.45 76.09 45.46 75.1 45.46 75.1 44.47 75.1 43.48 74.11 43.48 74.11 42.5 73.12 42.5 73.12 41.5 72.14 41.5 72.14 40.52 71.15 40.52 71.15 39.53 70.16 39.53 70.16 38.54 69.17 38.54 68.19 38.54 67.19 38.54 66.21 38.54 65.22 38.54 64.23 38.54 63.24 38.54 62.25 38.54 61.27 38.54 60.28 38.54 59.29 38.54 58.3 38.54 57.32 38.54 56.33 38.54 55.34 38.54 55.34 39.53 54.35 39.53 54.35 40.52 53.36 40.52 53.36 41.5 52.37 41.5 52.37 42.5 51.38 42.5 51.38 43.48 51.38 44.47 50.4 44.47 50.4 45.46 50.4 46.45 49.41 46.45 49.41 47.44 48.42 47.44 48.42 48.42 48.42 49.41 47.43 49.41 47.43 50.4 46.45 50.4 46.45 51.39 45.45 51.39 45.45 52.37 45.45 53.37 45.45 54.35 46.45 54.35 47.43 54.35 48.42 54.35 49.41 54.35 50.4 54.35 50.4 55.34 51.38 55.34 52.37 55.34 52.37 54.35 53.36 54.35 54.35 54.35 55.34 54.35 56.33 54.35 56.33 55.34 57.32 55.34 58.3 55.34 59.29 55.34 60.28 55.34 60.28 56.33 61.27 56.33 62.25 56.33 63.24 56.33 64.23 56.33 65.22 56.33 66.21 56.33 66.21 57.32 67.19 57.32 68.19 57.32 69.17 57.32 70.16 57.32 70.16 56.33 71.15 56.33 72.14 56.33 73.12 56.33 74.11 56.33 74.11 55.34 75.1 55.34 76.09 55.34 76.09 54.35 77.08 54.35 78.07 54.35 78.07 53.37 79.06 53.37 80.04 53.37 81.03 53.37 81.03 52.37 81.03 51.39 80.04 51.39"/><polygon class="cls-2" points="65.22 0.99 66.21 0.99 66.21 0 65.22 0 64.23 0 63.24 0 63.24 0.99 63.24 1.98 63.24 2.96 64.23 2.96 65.22 2.96 65.22 1.98 65.22 0.99"/><polygon class="cls-2" points="58.3 15.81 59.29 15.81 60.28 15.81 60.28 14.83 60.28 13.84 60.28 12.85 60.28 11.86 60.28 10.87 60.28 9.88 61.27 9.88 62.25 9.88 62.25 8.9 62.25 7.91 63.24 7.91 64.23 7.91 65.22 7.91 65.22 6.92 66.21 6.92 67.19 6.92 68.19 6.92 68.19 7.91 69.17 7.91 69.17 8.9 70.16 8.9 71.15 8.9 71.15 9.88 71.15 10.87 72.14 10.87 72.14 11.86 73.12 11.86 74.11 11.86 74.11 10.87 74.11 9.88 75.1 9.88 75.1 8.9 75.1 7.91 74.11 7.91 74.11 6.92 73.12 6.92 73.12 5.93 72.14 5.93 72.14 4.94 71.15 4.94 71.15 3.96 71.15 2.96 72.14 2.96 73.12 2.96 73.12 1.98 73.12 0.99 72.14 0.99 71.15 0.99 70.16 0.99 70.16 1.98 69.17 1.98 68.19 1.98 67.19 1.98 66.21 1.98 66.21 2.96 65.22 2.96 65.22 3.96 64.23 3.96 63.24 3.96 62.25 3.96 62.25 4.94 61.27 4.94 60.28 4.94 60.28 5.93 59.29 5.93 58.3 5.93 58.3 6.92 57.32 6.92 57.32 7.91 57.32 8.9 57.32 9.88 57.32 10.87 57.32 11.86 57.32 12.85 57.32 13.84 57.32 14.83 58.3 14.83 58.3 15.81"/><polygon class="cls-2" points="58.3 37.55 59.29 37.55 60.28 37.55 61.27 37.55 62.25 37.55 63.24 37.55 64.23 37.55 65.22 37.55 66.21 37.55 67.19 37.55 68.19 37.55 69.17 37.55 70.16 37.55 70.16 36.57 70.16 35.58 70.16 34.59 70.16 33.6 70.16 32.61 70.16 31.63 70.16 30.63 70.16 29.65 70.16 28.66 70.16 27.67 69.17 27.67 68.19 27.67 67.19 27.67 67.19 28.66 66.21 28.66 66.21 29.65 65.22 29.65 65.22 30.63 64.23 30.63 63.24 30.63 62.25 30.63 61.27 30.63 61.27 29.65 61.27 28.66 60.28 28.66 60.28 27.67 60.28 26.68 60.28 25.7 59.29 25.7 58.3 25.7 57.32 25.7 56.33 25.7 56.33 26.68 56.33 27.67 56.33 28.66 56.33 29.65 56.33 30.63 56.33 31.63 56.33 32.61 56.33 33.6 56.33 34.59 56.33 35.58 56.33 36.57 56.33 37.55 57.32 37.55 58.3 37.55"/><polygon class="cls-2" points="43.48 57.32 42.49 57.32 42.49 56.33 41.5 56.33 41.5 55.34 41.5 54.35 41.5 53.37 40.51 53.37 40.51 52.37 39.53 52.37 38.54 52.37 37.55 52.37 37.55 53.37 36.56 53.37 35.58 53.37 34.58 53.37 34.58 54.35 33.6 54.35 32.61 54.35 31.62 54.35 30.63 54.35 29.65 54.35 29.65 55.34 28.66 55.34 27.67 55.34 26.68 55.34 25.69 55.34 24.7 55.34 24.7 56.33 23.71 56.33 23.71 57.32 22.73 57.32 22.73 58.31 21.74 58.31 20.75 58.31 19.76 58.31 18.78 58.31 18.78 59.29 17.79 59.29 17.79 60.28 17.79 61.27 17.79 62.26 17.79 63.24 17.79 64.24 18.78 64.24 19.76 64.24 20.75 64.24 21.74 64.24 21.74 63.24 22.73 63.24 23.71 63.24 24.7 63.24 25.69 63.24 26.68 63.24 27.67 63.24 28.66 63.24 29.65 63.24 30.63 63.24 30.63 62.26 31.62 62.26 32.61 62.26 33.6 62.26 34.58 62.26 34.58 61.27 35.58 61.27 36.56 61.27 37.55 61.27 37.55 60.28 38.54 60.28 39.53 60.28 40.51 60.28 41.5 60.28 42.49 60.28 42.49 59.29 43.48 59.29 44.47 59.29 44.47 58.31 43.48 58.31 43.48 57.32"/><polygon class="cls-3" points="95.86 32.61 95.86 31.63 94.86 31.63 93.88 31.63 93.88 30.63 92.89 30.63 92.89 29.65 91.9 29.65 91.9 28.66 90.91 28.66 89.93 28.66 88.94 28.66 87.95 28.66 86.96 28.66 85.97 28.66 84.99 28.66 84.99 27.67 83.99 27.67 83.01 27.67 82.02 27.67 81.03 27.67 80.04 27.67 79.06 27.67 78.07 27.67 77.08 27.67 76.09 27.67 75.1 27.67 74.11 27.67 73.12 27.67 72.14 27.67 71.15 27.67 71.15 28.66 70.16 28.66 70.16 29.65 70.16 30.63 70.16 31.63 71.15 31.63 71.15 32.61 72.14 32.61 73.12 32.61 74.11 32.61 75.1 32.61 76.09 32.61 77.08 32.61 77.08 33.6 78.07 33.6 79.06 33.6 80.04 33.6 81.03 33.6 82.02 33.6 82.02 34.59 83.01 34.59 83.99 34.59 84.99 34.59 84.99 35.58 85.97 35.58 86.96 35.58 87.95 35.58 87.95 36.57 88.94 36.57 89.93 36.57 90.91 36.57 91.9 36.57 92.89 36.57 93.88 36.57 94.86 36.57 95.86 36.57 95.86 35.58 96.84 35.58 96.84 34.59 96.84 33.6 96.84 32.61 95.86 32.61"/><polygon class="cls-3" points="70.16 88.94 70.16 87.95 70.16 86.96 69.17 86.96 69.17 85.98 69.17 84.99 69.17 84 69.17 83.01 68.19 83.01 68.19 82.02 68.19 81.03 68.19 80.05 68.19 79.06 68.19 78.07 68.19 77.08 68.19 76.09 68.19 75.11 68.19 74.11 68.19 73.13 68.19 72.14 68.19 71.15 68.19 70.17 68.19 69.18 68.19 68.19 68.19 67.2 68.19 66.21 68.19 65.22 68.19 64.24 68.19 63.24 69.17 63.24 69.17 62.26 69.17 61.27 69.17 60.28 68.19 60.28 67.19 60.28 67.19 59.29 66.21 59.29 65.22 59.29 64.23 59.29 63.24 59.29 63.24 60.28 63.24 61.27 63.24 62.26 63.24 63.24 63.24 64.24 63.24 65.22 63.24 66.21 63.24 67.2 63.24 68.19 63.24 69.18 63.24 70.17 63.24 71.15 63.24 72.14 63.24 73.13 63.24 74.11 63.24 75.11 63.24 76.09 63.24 77.08 62.25 77.08 62.25 78.07 62.25 79.06 62.25 80.05 62.25 81.03 62.25 82.02 62.25 83.01 62.25 84 61.27 84 61.27 84.99 61.27 85.98 61.27 86.96 61.27 87.95 61.27 88.94 61.27 89.93 61.27 90.91 61.27 91.91 61.27 92.89 62.25 92.89 62.25 93.88 63.24 93.88 64.23 93.88 65.22 93.88 65.22 94.87 66.21 94.87 67.19 94.87 68.19 94.87 68.19 93.88 69.17 93.88 70.16 93.88 70.16 92.89 70.16 91.91 71.15 91.91 71.15 90.91 71.15 89.93 70.16 89.93 70.16 88.94"/><path class="cls-3" d="M60.28,24.71v3.95h1v2h3.95v-1h1v-1h1V24.71H61.27v-1h4.94v-1h3v-1h1v-1h1v-2h1v-1h1V11.86h-1v-1h-1v-1H66.21v-1h-2v1h-2v1h2v1h1v2h-1v1h-2v-1h-1v-3h-1v4.94h-1v6.92h1v2ZM67.2,13.83v-2h3v4h-3v-2Zm-3,5.93v-2h3v1h-1v2h-1v-1Z"/><polygon class="cls-3" points="57.32 57.32 56.33 57.32 55.34 57.32 54.35 57.32 53.36 57.32 53.36 58.31 53.36 59.29 53.36 60.28 53.36 61.27 53.36 62.26 53.36 63.24 52.37 63.24 52.37 64.24 52.37 65.22 52.37 66.21 52.37 67.2 52.37 68.19 51.38 68.19 51.38 69.18 51.38 70.17 51.38 71.15 51.38 72.14 51.38 73.13 51.38 74.11 50.4 74.11 50.4 75.11 50.4 76.09 50.4 77.08 50.4 78.07 50.4 79.06 50.4 80.05 50.4 81.03 50.4 82.02 50.4 83.01 50.4 84 50.4 84.99 50.4 85.98 49.41 85.98 49.41 86.96 49.41 87.95 48.42 87.95 48.42 88.94 48.42 89.93 47.43 89.93 47.43 90.91 47.43 91.91 47.43 92.89 48.42 92.89 48.42 93.88 49.41 93.88 50.4 93.88 51.38 93.88 52.37 93.88 53.36 93.88 53.36 92.89 53.36 91.91 54.35 91.91 54.35 90.91 54.35 89.93 54.35 88.94 55.34 88.94 55.34 87.95 55.34 86.96 55.34 85.98 55.34 84.99 55.34 84 55.34 83.01 55.34 82.02 55.34 81.03 55.34 80.05 56.33 80.05 56.33 79.06 56.33 78.07 56.33 77.08 56.33 76.09 56.33 75.11 56.33 74.11 56.33 73.13 56.33 72.14 56.33 71.15 57.32 71.15 57.32 70.17 57.32 69.18 57.32 68.19 57.32 67.2 57.32 66.21 57.32 65.22 57.32 64.24 57.32 63.24 58.3 63.24 58.3 62.26 58.3 61.27 58.3 60.28 58.3 59.29 58.3 58.31 57.32 58.31 57.32 57.32"/><polygon class="cls-3" points="48.42 38.54 49.41 38.54 50.4 38.54 51.38 38.54 52.37 38.54 53.36 38.54 54.35 38.54 54.35 37.55 55.34 37.55 55.34 36.57 55.34 35.58 55.34 34.59 54.35 34.59 54.35 33.6 53.36 33.6 52.37 33.6 52.37 32.61 51.38 32.61 50.4 32.61 49.41 32.61 48.42 32.61 47.43 32.61 46.45 32.61 45.45 32.61 45.45 33.6 44.47 33.6 43.48 33.6 42.49 33.6 41.5 33.6 41.5 34.59 40.51 34.59 39.53 34.59 38.54 34.59 37.55 34.59 36.56 34.59 35.58 34.59 34.58 34.59 34.58 35.58 33.6 35.58 32.61 35.58 32.61 36.57 32.61 37.55 32.61 38.54 33.6 38.54 34.58 38.54 34.58 39.53 35.58 39.53 36.56 39.53 37.55 39.53 38.54 39.53 39.53 39.53 40.51 39.53 40.51 38.54 41.5 38.54 42.49 38.54 43.48 38.54 44.47 38.54 45.45 38.54 46.45 38.54 47.43 38.54 48.42 38.54"/><polygon class="cls-3" points="45.45 87.95 45.45 86.96 45.45 85.98 44.47 85.98 44.47 84.99 44.47 84 43.48 84 43.48 83.01 43.48 82.02 42.49 82.02 42.49 81.03 42.49 80.05 42.49 79.06 42.49 78.07 42.49 77.08 41.5 77.08 41.5 76.09 41.5 75.11 41.5 74.11 41.5 73.13 40.51 73.13 40.51 72.14 40.51 71.15 39.53 71.15 39.53 70.17 39.53 69.18 39.53 68.19 39.53 67.2 39.53 66.21 39.53 65.22 38.54 65.22 38.54 64.24 38.54 63.24 38.54 62.26 37.55 62.26 36.56 62.26 35.58 62.26 35.58 63.24 34.58 63.24 33.6 63.24 33.6 64.24 34.58 64.24 34.58 65.22 34.58 66.21 34.58 67.2 34.58 68.19 34.58 69.18 35.58 69.18 35.58 70.17 35.58 71.15 36.56 71.15 36.56 72.14 36.56 73.13 36.56 74.11 36.56 75.11 36.56 76.09 36.56 77.08 37.55 77.08 37.55 78.07 37.55 79.06 37.55 80.05 37.55 81.03 37.55 82.02 37.55 83.01 37.55 84 38.54 84 38.54 84.99 38.54 85.98 38.54 86.96 38.54 87.95 38.54 88.94 39.53 88.94 39.53 89.93 39.53 90.91 39.53 91.91 39.53 92.89 40.51 92.89 41.5 92.89 42.49 92.89 43.48 92.89 44.47 92.89 44.47 91.91 45.45 91.91 45.45 90.91 46.45 90.91 46.45 89.93 46.45 88.94 45.45 88.94 45.45 87.95"/><polygon class="cls-3" points="42.49 27.67 42.49 28.66 42.49 29.65 43.48 29.65 43.48 30.63 44.47 30.63 45.45 30.63 46.45 30.63 47.43 30.63 48.42 30.63 49.41 30.63 49.41 31.63 50.4 31.63 51.38 31.63 52.37 31.63 53.36 31.63 54.35 31.63 55.34 31.63 56.33 31.63 56.33 30.63 56.33 29.65 56.33 28.66 56.33 27.67 56.33 26.68 55.34 26.68 54.35 26.68 53.36 26.68 52.37 26.68 51.38 26.68 50.4 26.68 49.41 26.68 49.41 27.67 50.4 27.67 50.4 28.66 50.4 29.65 49.41 29.65 48.42 29.65 47.43 29.65 46.45 29.65 46.45 28.66 46.45 27.67 45.45 27.67 44.47 27.67 44.47 26.68 43.48 26.68 43.48 25.7 42.49 25.7 41.5 25.7 40.51 25.7 40.51 26.68 40.51 27.67 41.5 27.67 42.49 27.67"/><polygon class="cls-3" points="32.61 86.96 32.61 85.98 32.61 84.99 32.61 84 31.62 84 31.62 83.01 31.62 82.02 31.62 81.03 31.62 80.05 31.62 79.06 31.62 78.07 31.62 77.08 31.62 76.09 31.62 75.11 30.63 75.11 30.63 74.11 30.63 73.13 30.63 72.14 30.63 71.15 30.63 70.17 30.63 69.18 29.65 69.18 29.65 68.19 29.65 67.2 29.65 66.21 29.65 65.22 29.65 64.24 28.66 64.24 27.67 64.24 26.68 64.24 25.69 64.24 25.69 65.22 25.69 66.21 25.69 67.2 25.69 68.19 25.69 69.18 25.69 70.17 25.69 71.15 25.69 72.14 25.69 73.13 25.69 74.11 25.69 75.11 25.69 76.09 25.69 77.08 26.68 77.08 26.68 78.07 26.68 79.06 26.68 80.05 26.68 81.03 26.68 82.02 26.68 83.01 26.68 84 26.68 84.99 26.68 85.98 26.68 86.96 26.68 87.95 27.67 87.95 27.67 88.94 27.67 89.93 27.67 90.91 27.67 91.91 27.67 92.89 27.67 93.88 27.67 94.87 27.67 95.86 28.66 95.86 29.65 95.86 30.63 95.86 31.62 95.86 31.62 94.87 32.61 94.87 33.6 94.87 33.6 93.88 33.6 92.89 33.6 91.91 33.6 90.91 33.6 89.93 33.6 88.94 33.6 87.95 32.61 87.95 32.61 86.96"/><path class="cls-3" d="M25.69,37.55v3h3v-3h1v-3h1v-4h1V21.74h-1v-1h-1v-1h-8.9V30.63h1v2h1v1h2v1h3.95v1H23.71v1h1v1Zm2-7.9v2h-2v-1h-1v-2h3.95v1Zm2-6.92v3h-3v-4h3Zm-7.91,2v-3h3v4h-1v1h-1v-1h-1Z"/><polygon class="cls-3" points="18.78 37.55 18.78 38.54 17.79 38.54 16.8 38.54 15.81 38.54 14.82 38.54 13.84 38.54 12.84 38.54 11.86 38.54 10.87 38.54 10.87 39.53 9.88 39.53 8.89 39.53 7.91 39.53 6.91 39.53 6.91 40.52 5.93 40.52 4.94 40.52 4.94 41.5 3.95 41.5 2.96 41.5 2.96 42.5 2.96 43.48 2.96 44.47 1.97 44.47 1.97 45.46 1.97 46.45 1.97 47.44 2.96 47.44 2.96 48.42 3.95 48.42 4.94 48.42 4.94 47.44 5.93 47.44 6.91 47.44 6.91 46.45 7.91 46.45 8.89 46.45 8.89 45.46 9.88 45.46 10.87 45.46 10.87 44.47 11.86 44.47 12.84 44.47 12.84 43.48 13.84 43.48 14.82 43.48 15.81 43.48 16.8 43.48 16.8 42.5 17.79 42.5 18.78 42.5 18.78 41.5 19.76 41.5 20.75 41.5 20.75 40.52 20.75 39.53 20.75 38.54 20.75 37.55 19.76 37.55 18.78 37.55"/><polygon class="cls-4" points="80.04 53.37 79.06 53.37 78.07 53.37 78.07 54.35 77.08 54.35 76.09 54.35 76.09 55.34 75.1 55.34 74.11 55.34 74.11 56.33 73.12 56.33 72.14 56.33 71.15 56.33 70.16 56.33 70.16 57.32 69.17 57.32 68.19 57.32 67.19 57.32 66.21 57.32 66.21 56.33 65.22 56.33 64.23 56.33 63.24 56.33 62.25 56.33 61.27 56.33 60.28 56.33 60.28 55.34 59.29 55.34 58.3 55.34 57.32 55.34 56.33 55.34 56.33 54.35 55.34 54.35 54.35 54.35 53.36 54.35 52.37 54.35 52.37 55.34 51.38 55.34 50.4 55.34 50.4 54.35 49.41 54.35 48.42 54.35 47.43 54.35 46.45 54.35 45.45 54.35 45.45 55.34 46.45 55.34 47.43 55.34 48.42 55.34 49.41 55.34 49.41 56.33 50.4 56.33 51.38 56.33 52.37 56.33 53.36 56.33 53.36 55.34 54.35 55.34 55.34 55.34 55.34 56.33 56.33 56.33 57.32 56.33 58.3 56.33 59.29 56.33 59.29 57.32 60.28 57.32 61.27 57.32 62.25 57.32 63.24 57.32 64.23 57.32 65.22 57.32 65.22 58.31 66.21 58.31 67.19 58.31 68.19 58.31 69.17 58.31 70.16 58.31 71.15 58.31 71.15 57.32 72.14 57.32 73.12 57.32 74.11 57.32 75.1 57.32 75.1 56.33 76.09 56.33 77.08 56.33 77.08 55.34 78.07 55.34 79.06 55.34 79.06 54.35 80.04 54.35 81.03 54.35 81.03 53.37 80.04 53.37"/><polygon class="cls-4" points="58.3 38.54 59.29 38.54 60.28 38.54 61.27 38.54 62.25 38.54 63.24 38.54 64.23 38.54 65.22 38.54 66.21 38.54 67.19 38.54 68.19 38.54 69.17 38.54 70.16 38.54 70.16 37.55 69.17 37.55 68.19 37.55 67.19 37.55 66.21 37.55 65.22 37.55 64.23 37.55 63.24 37.55 62.25 37.55 61.27 37.55 60.28 37.55 59.29 37.55 58.3 37.55 57.32 37.55 56.33 37.55 56.33 38.54 57.32 38.54 58.3 38.54"/><polygon class="cls-4" points="45.45 16.8 45.45 17.79 45.45 18.78 45.45 19.76 46.45 19.76 47.43 19.76 48.42 19.76 48.42 18.78 49.41 18.78 49.41 17.79 49.41 16.8 49.41 15.81 48.42 15.81 47.43 15.81 46.45 15.81 45.45 15.81 45.45 16.8"/><polygon class="cls-4" points="45.45 27.67 46.45 27.67 47.43 27.67 47.43 26.68 48.42 26.68 48.42 25.7 48.42 24.7 48.42 23.72 48.42 22.73 47.43 22.73 47.43 23.72 46.45 23.72 45.45 23.72 44.47 23.72 44.47 24.7 43.48 24.7 43.48 25.7 43.48 26.68 44.47 26.68 44.47 27.67 45.45 27.67"/><polygon class="cls-4" points="44.47 5.93 44.47 4.94 45.45 4.94 45.45 3.96 45.45 2.96 45.45 1.98 44.47 1.98 43.48 1.98 42.49 1.98 41.5 1.98 41.5 2.96 40.51 2.96 40.51 3.96 40.51 4.94 41.5 4.94 41.5 5.93 42.49 5.93 43.48 5.93 44.47 5.93"/><polygon class="cls-4" points="37.55 51.39 36.56 51.39 36.56 52.37 35.58 52.37 34.58 52.37 33.6 52.37 33.6 53.37 34.58 53.37 35.58 53.37 36.56 53.37 37.55 53.37 37.55 52.37 38.54 52.37 39.53 52.37 39.53 51.39 38.54 51.39 37.55 51.39"/><polygon class="cls-4" points="38.54 24.7 37.55 24.7 36.56 24.7 36.56 25.7 35.58 25.7 35.58 26.68 34.58 26.68 34.58 27.67 35.58 27.67 36.56 27.67 36.56 28.66 37.55 28.66 38.54 28.66 38.54 27.67 38.54 26.68 39.53 26.68 39.53 25.7 38.54 25.7 38.54 24.7"/><polygon class="cls-4" points="33.6 34.59 34.58 34.59 35.58 34.59 36.56 34.59 37.55 34.59 37.55 33.6 37.55 32.61 37.55 31.63 36.56 31.63 35.58 31.63 34.58 31.63 34.58 32.61 33.6 32.61 32.61 32.61 32.61 33.6 33.6 33.6 33.6 34.59"/><polygon class="cls-4" points="33.6 9.88 34.58 9.88 34.58 8.9 35.58 8.9 36.56 8.9 36.56 7.91 37.55 7.91 37.55 6.92 37.55 5.93 36.56 5.93 35.58 5.93 35.58 4.94 34.58 4.94 33.6 4.94 33.6 5.93 32.61 5.93 32.61 6.92 32.61 7.91 32.61 8.9 32.61 9.88 32.61 10.87 33.6 10.87 33.6 9.88"/><polygon class="cls-4" points="31.62 53.37 30.63 53.37 29.65 53.37 28.66 53.37 28.66 54.35 27.67 54.35 26.68 54.35 25.69 54.35 24.7 54.35 23.71 54.35 23.71 55.34 22.73 55.34 22.73 56.33 21.74 56.33 21.74 57.32 20.75 57.32 20.75 56.33 19.76 56.33 18.78 56.33 18.78 57.32 18.78 58.31 19.76 58.31 20.75 58.31 21.74 58.31 22.73 58.31 22.73 57.32 23.71 57.32 23.71 56.33 24.7 56.33 24.7 55.34 25.69 55.34 26.68 55.34 27.67 55.34 28.66 55.34 29.65 55.34 29.65 54.35 30.63 54.35 31.62 54.35 32.61 54.35 33.6 54.35 33.6 53.37 32.61 53.37 31.62 53.37"/><polygon class="cls-4" points="13.84 13.84 12.84 13.84 11.86 13.84 10.87 13.84 10.87 14.83 10.87 15.81 10.87 16.8 10.87 17.79 11.86 17.79 12.84 17.79 13.84 17.79 14.82 17.79 14.82 16.8 14.82 15.81 15.81 15.81 15.81 14.83 15.81 13.84 14.82 13.84 13.84 13.84"/><polygon class="cls-4" points="13.84 6.92 13.84 7.91 13.84 8.9 12.84 8.9 12.84 9.88 12.84 10.87 13.84 10.87 14.82 10.87 15.81 10.87 15.81 9.88 15.81 8.9 15.81 7.91 15.81 6.92 14.82 6.92 13.84 6.92"/><polygon class="cls-4" points="10.87 31.63 9.88 31.63 8.89 31.63 8.89 32.61 7.91 32.61 7.91 33.6 7.91 34.59 8.89 34.59 9.88 34.59 9.88 35.58 10.87 35.58 11.86 35.58 12.84 35.58 12.84 34.59 12.84 33.6 12.84 32.61 12.84 31.63 11.86 31.63 10.87 31.63"/><polygon class="cls-4" points="8.89 23.72 8.89 24.7 9.88 24.7 10.87 24.7 11.86 24.7 11.86 23.72 11.86 22.73 10.87 22.73 10.87 21.74 10.87 20.75 9.88 20.75 8.89 20.75 7.91 20.75 7.91 21.74 6.91 21.74 6.91 22.73 6.91 23.72 7.91 23.72 8.89 23.72"/><polygon class="cls-4" points="4.94 30.63 3.95 30.63 2.96 30.63 1.97 30.63 1.97 31.63 0.99 31.63 0.99 32.61 0.99 33.6 1.97 33.6 2.96 33.6 3.95 33.6 4.94 33.6 5.93 33.6 5.93 32.61 5.93 31.63 6.91 31.63 6.91 30.63 5.93 30.63 4.94 30.63"/><polygon class="cls-4" points="3.95 9.88 3.95 10.87 4.94 10.87 4.94 9.88 5.93 9.88 5.93 8.9 6.91 8.9 6.91 7.91 6.91 6.92 6.91 5.93 6.91 4.94 5.93 4.94 4.94 4.94 3.95 4.94 3.95 5.93 3.95 6.92 2.96 6.92 2.96 7.91 2.96 8.9 3.95 8.9 3.95 9.88"/><polygon class="cls-5" points="83.01 8.9 83.01 7.91 82.02 7.91 82.02 6.92 81.03 6.92 81.03 5.93 80.04 5.93 80.04 4.94 79.06 4.94 79.06 3.96 78.07 3.96 78.07 2.96 77.08 2.96 76.09 2.96 75.1 2.96 74.11 2.96 74.11 3.96 73.12 3.96 72.14 3.96 71.15 3.96 71.15 4.94 72.14 4.94 72.14 5.93 73.12 5.93 73.12 6.92 74.11 6.92 74.11 7.91 75.1 7.91 75.1 8.9 76.09 8.9 77.08 8.9 77.08 9.88 78.07 9.88 78.07 10.87 79.06 10.87 79.06 11.86 80.04 11.86 81.03 11.86 82.02 11.86 83.01 11.86 83.01 10.87 83.99 10.87 83.99 9.88 83.99 8.9 83.01 8.9"/><polygon class="cls-5" points="77.08 12.85 76.09 12.85 76.09 11.86 76.09 10.87 76.09 9.88 75.1 9.88 74.11 9.88 74.11 10.87 74.11 11.86 74.11 12.85 74.11 13.84 75.1 13.84 75.1 14.83 75.1 15.81 75.1 16.8 75.1 17.79 76.09 17.79 76.09 18.78 76.09 19.76 76.09 20.75 77.08 20.75 78.07 20.75 78.07 19.76 78.07 18.78 78.07 17.79 78.07 16.8 78.07 15.81 78.07 14.83 78.07 13.84 77.08 13.84 77.08 12.85"/><polygon class="cls-5" points="73.12 15.81 73.12 16.8 73.12 17.79 72.14 17.79 72.14 18.78 71.15 18.78 71.15 19.76 71.15 20.75 71.15 21.74 71.15 22.73 72.14 22.73 72.14 23.72 73.12 23.72 74.11 23.72 74.11 22.73 74.11 21.74 74.11 20.75 74.11 19.76 74.11 18.78 74.11 17.79 74.11 16.8 74.11 15.81 74.11 14.83 73.12 14.83 73.12 15.81"/><polygon class="cls-5" points="71.15 8.9 70.16 8.9 69.17 8.9 69.17 7.91 68.19 7.91 68.19 6.92 67.19 6.92 66.21 6.92 65.22 6.92 65.22 7.91 64.23 7.91 63.24 7.91 62.25 7.91 62.25 8.9 62.25 9.88 63.24 9.88 64.23 9.88 64.23 8.9 65.22 8.9 66.21 8.9 66.21 9.88 67.19 9.88 68.19 9.88 69.17 9.88 70.16 9.88 71.15 9.88 71.15 8.9"/><polygon class="cls-5" points="68.19 13.84 68.19 14.83 69.17 14.83 69.17 13.84 69.17 12.85 68.19 12.85 68.19 13.84"/><polygon class="cls-5" points="66.21 22.73 66.21 23.72 65.22 23.72 64.23 23.72 63.24 23.72 62.25 23.72 61.27 23.72 61.27 24.7 62.25 24.7 63.24 24.7 64.23 24.7 65.22 24.7 66.21 24.7 67.19 24.7 67.19 23.72 68.19 23.72 68.19 22.73 67.19 22.73 66.21 22.73"/><polygon class="cls-5" points="63.24 12.85 63.24 11.86 62.25 11.86 62.25 12.85 62.25 13.84 63.24 13.84 63.24 12.85"/><polygon class="cls-5" points="60.28 9.88 60.28 10.87 61.27 10.87 62.25 10.87 62.25 9.88 61.27 9.88 60.28 9.88"/><polygon class="cls-5" points="60.28 4.94 61.27 4.94 62.25 4.94 62.25 3.96 63.24 3.96 63.24 2.96 63.24 1.98 62.25 1.98 61.27 1.98 60.28 1.98 59.29 1.98 58.3 1.98 57.32 1.98 56.33 1.98 56.33 2.96 55.34 2.96 54.35 2.96 54.35 3.96 53.36 3.96 53.36 4.94 52.37 4.94 52.37 5.93 51.38 5.93 51.38 6.92 51.38 7.91 50.4 7.91 50.4 8.9 50.4 9.88 51.38 9.88 51.38 10.87 52.37 10.87 53.36 10.87 53.36 9.88 54.35 9.88 54.35 8.9 55.34 8.9 56.33 8.9 56.33 7.91 57.32 7.91 57.32 6.92 58.3 6.92 58.3 5.93 59.29 5.93 60.28 5.93 60.28 4.94"/><polygon class="cls-5" points="57.32 15.81 57.32 16.8 57.32 17.79 56.33 17.79 56.33 18.78 56.33 19.76 55.34 19.76 55.34 20.75 55.34 21.74 55.34 22.73 56.33 22.73 57.32 22.73 58.3 22.73 58.3 21.74 59.29 21.74 59.29 20.75 59.29 19.76 59.29 18.78 59.29 17.79 59.29 16.8 59.29 15.81 58.3 15.81 57.32 15.81"/><polygon class="cls-5" points="55.34 16.8 56.33 16.8 56.33 15.81 56.33 14.83 57.32 14.83 57.32 13.84 57.32 12.85 57.32 11.86 57.32 10.87 57.32 9.88 56.33 9.88 55.34 9.88 55.34 10.87 54.35 10.87 54.35 11.86 54.35 12.85 53.36 12.85 53.36 13.84 53.36 14.83 53.36 15.81 52.37 15.81 52.37 16.8 52.37 17.79 52.37 18.78 53.36 18.78 54.35 18.78 54.35 17.79 55.34 17.79 55.34 16.8"/><polygon class="cls-5" points="49.41 26.68 49.41 25.7 48.42 25.7 48.42 26.68 47.43 26.68 47.43 27.67 46.45 27.67 46.45 28.66 46.45 29.65 47.43 29.65 48.42 29.65 49.41 29.65 50.4 29.65 50.4 28.66 50.4 27.67 49.41 27.67 49.41 26.68"/><path class="cls-5" d="M48.42,18.78v1h-1v1h-1v1h-1v-1h-1v-1h-2v-1h-2v-1h4.94v-2h2v-2H42.49v-1h-2v1h-2v-1h-2v-1h-3v1h-1V6.92h-3v2h-1v1h-1v1h-1v1h-2v1h-1v-1h-1v-2h-1v-1h-1v-1h-2v-1h-3v3.95h2v1h1v1h1v1h-4v2h-1v2h3v1H11.86v1h-2v1h1v2H16.8v1h-1v1h-1v1h-1v1h-1v1h-1v1h-1v1h-1v2h4.94v-1h1v4.95h-1v2h1v1h3v-1h1v-1h-1V31.63h1v-1h1V19.76h8.9v1h1v1h1V32.61h3v-1h1v-1h-1v-1h-1v-3h2v-1h1v-1h-1v-1h-1v-1h1v-1h4.93v1h1v1h1v1h2v-1h2v-1h3v-1h1v-3h-2Zm-9.88-1h-4v1h-1v-2h4.94Z"/><polygon class="cls-5" points="46.45 5.93 46.45 4.94 47.43 4.94 47.43 3.96 48.42 3.96 48.42 2.96 49.41 2.96 50.4 2.96 50.4 1.98 50.4 0.99 49.41 0.99 49.41 0 48.42 0 47.43 0 46.45 0 46.45 0.99 45.45 0.99 45.45 1.98 45.45 2.96 45.45 3.96 45.45 4.94 44.47 4.94 44.47 5.93 45.45 5.93 46.45 5.93"/><polygon class="cls-5" points="44.47 30.63 43.48 30.63 43.48 29.65 42.49 29.65 42.49 28.66 42.49 27.67 41.5 27.67 40.51 27.67 40.51 26.68 39.53 26.68 38.54 26.68 38.54 27.67 38.54 28.66 38.54 29.65 39.53 29.65 39.53 30.63 40.51 30.63 40.51 31.63 41.5 31.63 41.5 32.61 42.49 32.61 43.48 32.61 44.47 32.61 45.45 32.61 45.45 31.63 44.47 31.63 44.47 30.63"/><polygon class="cls-5" points="42.49 59.29 42.49 60.28 41.5 60.28 40.51 60.28 39.53 60.28 38.54 60.28 37.55 60.28 37.55 61.27 36.56 61.27 35.58 61.27 34.58 61.27 34.58 62.26 33.6 62.26 32.61 62.26 31.62 62.26 30.63 62.26 30.63 63.24 29.65 63.24 28.66 63.24 27.67 63.24 26.68 63.24 25.69 63.24 24.7 63.24 23.71 63.24 22.73 63.24 21.74 63.24 21.74 64.24 20.75 64.24 19.76 64.24 18.78 64.24 17.79 64.24 17.79 65.22 18.78 65.22 19.76 65.22 20.75 65.22 21.74 65.22 22.73 65.22 22.73 64.24 23.71 64.24 24.7 64.24 25.69 64.24 26.68 64.24 27.67 64.24 28.66 64.24 29.65 64.24 30.63 64.24 31.62 64.24 31.62 63.24 32.61 63.24 33.6 63.24 34.58 63.24 35.58 63.24 35.58 62.26 36.56 62.26 37.55 62.26 38.54 62.26 39.53 62.26 40.51 62.26 41.5 62.26 42.49 62.26 42.49 61.27 43.48 61.27 43.48 60.28 44.47 60.28 44.47 59.29 43.48 59.29 42.49 59.29"/><polygon class="cls-5" points="38.54 40.52 39.53 40.52 39.53 39.53 38.54 39.53 37.55 39.53 36.56 39.53 36.56 40.52 37.55 40.52 38.54 40.52"/><polygon class="cls-5" points="37.55 5.93 37.55 6.92 38.54 6.92 38.54 5.93 39.53 5.93 39.53 4.94 40.51 4.94 40.51 3.96 40.51 2.96 41.5 2.96 41.5 1.98 40.51 1.98 40.51 0.99 39.53 0.99 38.54 0.99 37.55 0.99 37.55 1.98 36.56 1.98 36.56 2.96 35.58 2.96 35.58 3.96 35.58 4.94 35.58 5.93 36.56 5.93 37.55 5.93"/><rect class="cls-5" x="27.67" y="23.72" width="0.99" height="0.99"/><polygon class="cls-5" points="23.71 33.6 23.71 34.59 23.71 35.58 24.7 35.58 25.69 35.58 26.68 35.58 27.67 35.58 28.66 35.58 28.66 34.59 27.67 34.59 26.68 34.59 25.69 34.59 24.7 34.59 24.7 33.6 23.71 33.6"/><rect class="cls-5" x="22.73" y="23.72" width="0.99" height="0.99"/><polygon class="cls-5" points="17.79 45.46 18.78 45.46 19.76 45.46 19.76 44.47 19.76 43.48 20.75 43.48 20.75 42.5 20.75 41.5 19.76 41.5 18.78 41.5 18.78 42.5 17.79 42.5 16.8 42.5 16.8 43.48 15.81 43.48 15.81 44.47 14.82 44.47 14.82 45.46 14.82 46.45 15.81 46.45 16.8 46.45 17.79 46.45 17.79 45.46"/><polygon class="cls-5" points="10.87 35.58 9.88 35.58 9.88 34.59 8.89 34.59 7.91 34.59 7.91 35.58 7.91 36.57 7.91 37.55 7.91 38.54 7.91 39.53 8.89 39.53 9.88 39.53 10.87 39.53 10.87 38.54 11.86 38.54 11.86 37.55 11.86 36.57 12.84 36.57 12.84 35.58 11.86 35.58 10.87 35.58"/><polygon class="cls-5" points="8.89 27.67 8.89 26.68 9.88 26.68 9.88 25.7 9.88 24.7 8.89 24.7 8.89 23.72 7.91 23.72 6.91 23.72 5.93 23.72 4.94 23.72 4.94 24.7 3.95 24.7 3.95 25.7 3.95 26.68 2.96 26.68 2.96 27.67 2.96 28.66 2.96 29.65 2.96 30.63 3.95 30.63 4.94 30.63 5.93 30.63 6.91 30.63 6.91 29.65 6.91 28.66 6.91 27.67 7.91 27.67 8.89 27.67"/><polygon class="cls-5" points="8.89 8.9 8.89 9.88 9.88 9.88 9.88 10.87 10.87 10.87 11.86 10.87 12.84 10.87 12.84 9.88 12.84 8.9 13.84 8.9 13.84 7.91 13.84 6.92 13.84 5.93 12.84 5.93 11.86 5.93 10.87 5.93 10.87 4.94 9.88 4.94 9.88 3.96 8.89 3.96 7.91 3.96 6.91 3.96 6.91 4.94 6.91 5.93 6.91 6.92 6.91 7.91 6.91 8.9 7.91 8.9 8.89 8.9"/><polygon class="cls-5" points="1.97 33.6 0.99 33.6 0 33.6 0 34.59 0 35.58 0 36.57 0.99 36.57 1.97 36.57 2.96 36.57 2.96 35.58 3.95 35.58 3.95 34.59 3.95 33.6 2.96 33.6 1.97 33.6"/><polygon class="cls-5" points="2.96 10.87 3.95 10.87 3.95 9.88 3.95 8.9 2.96 8.9 2.96 7.91 2.96 6.92 3.95 6.92 3.95 5.93 2.96 5.93 1.97 5.93 0.99 5.93 0.99 6.92 0.99 7.91 0.99 8.9 0.99 9.88 0.99 10.87 1.97 10.87 2.96 10.87"/><polygon class="cls-5" points="1.97 20.75 2.96 20.75 3.95 20.75 4.94 20.75 4.94 19.76 5.93 19.76 5.93 18.78 6.91 18.78 6.91 17.79 7.91 17.79 8.89 17.79 9.88 17.79 9.88 16.8 10.87 16.8 10.87 15.81 10.87 14.83 10.87 13.84 9.88 13.84 8.89 13.84 7.91 13.84 6.91 13.84 6.91 14.83 5.93 14.83 5.93 15.81 4.94 15.81 4.94 16.8 3.95 16.8 2.96 16.8 1.97 16.8 0.99 16.8 0 16.8 0 17.79 0 18.78 0 19.76 0 20.75 0.99 20.75 1.97 20.75"/></g></g></svg>