<svg xmlns="http://www.w3.org/2000/svg" viewBox="0 0 62.06 73.58"><defs><style>.cls-1{fill:#de9100;}.cls-2{fill:#ffe255;}.cls-3{fill:#cc3a00;}.cls-4{fill:#f58b1e;}.cls-5{fill:#ffc133;}.cls-6{fill:#f06723;}</style></defs><g id="Capa_2" data-name="Capa 2"><g id="Layer_1" data-name="Layer 1"><polygon class="cls-1" points="48.76 46.09 48.76 46.98 48.76 47.87 47.87 47.87 47.87 48.75 48.76 48.75 48.76 49.64 49.65 49.64 49.65 48.75 49.65 47.87 49.65 46.98 49.65 46.09 48.76 46.09"/><rect class="cls-1" x="47.87" y="50.52" width="0.88" height="0.89"/><rect class="cls-1" x="46.99" y="51.41" width="0.88" height="0.88"/><rect class="cls-1" x="46.1" y="52.3" width="0.89" height="0.88"/><rect class="cls-1" x="45.21" y="53.18" width="0.88" height="0.89"/><rect class="cls-1" x="45.21" y="42.55" width="0.88" height="0.88"/><polygon class="cls-1" points="43.44 54.07 43.44 54.96 44.32 54.96 45.21 54.96 45.21 54.07 44.32 54.07 43.44 54.07"/><rect class="cls-1" x="42.55" y="54.96" width="0.88" height="0.88"/><path class="cls-1" d="M43.44,51.41h.88v-.89h.89v-.88h.89V46.09h-.89V43.43h-.89v2.66h-.88v1.78h-.89v.88h-.89v.89h-.88v.88H39v-.88h-.88V47.87h-.88V46.09h-.89v-.88h-.89v-.89h.89v-.89h-.89v-.88h-.89v.88h-.88v2.66H32.8v1.78H31V47h-.89V44.32h-.89v-.89h-.88v-.88h-.89v2.66h-.89v.88h-.88v2.66h-.89v.89h-.88v-.89h-.89V46.09h-.89V44.32h-.88v-.89h-.89V47H19.5v3.54h-.88v-.88h-.89v-.89h-.89v-.88H16V47H14.18v-.89H12.41v2.66h.89V52.3h.88v1.77h.89V55H16v.88h.88v.89h.89v.89h.89v-.89h.88v-.89h-.88V54.07h.88V55h.89v-.89h.89V55h.88V53.18h.89v.89h.89V55h.88v.88h.89v.89h1.77V54.07h.89V52.3H31v1.77H32.8v-.89h.89V55h.88V53.18h.89V52.3h.89v1.77H39V52.3h2.66v-.89h1.78Zm-17.73,0v-.89h.88v.89Zm10.64-.89h.89v.89h-.89Z"/><rect class="cls-1" x="42.55" y="22.16" width="0.88" height="0.88"/><polygon class="cls-1" points="43.44 18.61 43.44 19.5 43.44 20.39 43.44 21.27 43.44 22.16 44.32 22.16 44.32 21.27 44.32 20.39 44.32 19.5 44.32 18.61 44.32 17.73 43.44 17.73 42.55 17.73 42.55 18.61 43.44 18.61"/><polygon class="cls-1" points="39.89 55.84 39 55.84 39 56.73 38.12 56.73 37.23 56.73 37.23 57.62 36.34 57.62 35.46 57.62 34.57 57.62 34.57 58.5 33.69 58.5 32.8 58.5 31.91 58.5 31.03 58.5 30.14 58.5 29.25 58.5 28.37 58.5 27.48 58.5 27.48 59.39 28.37 59.39 29.25 59.39 30.14 59.39 31.03 59.39 31.91 59.39 32.8 59.39 33.69 59.39 34.57 59.39 35.46 59.39 35.46 58.5 36.34 58.5 37.23 58.5 38.12 58.5 38.12 57.62 39 57.62 39.89 57.62 39.89 56.73 40.78 56.73 41.66 56.73 41.66 55.84 40.78 55.84 39.89 55.84"/><polygon class="cls-1" points="38.12 23.05 37.23 23.05 37.23 23.93 37.23 24.82 38.12 24.82 39 24.82 39.89 24.82 39.89 23.93 40.78 23.93 41.66 23.93 41.66 23.05 41.66 22.16 40.78 22.16 40.78 21.27 40.78 20.39 40.78 19.5 40.78 18.61 40.78 17.73 41.66 17.73 42.55 17.73 42.55 16.84 41.66 16.84 40.78 16.84 39.89 16.84 39 16.84 39 15.95 38.12 15.95 37.23 15.95 37.23 16.84 38.12 16.84 38.12 17.73 39 17.73 39 18.61 39 19.5 39 20.39 39.89 20.39 39.89 21.27 39.89 22.16 39.89 23.05 39 23.05 39 22.16 39 21.27 39 20.39 38.12 20.39 37.23 20.39 37.23 21.27 37.23 22.16 38.12 22.16 38.12 23.05"/><rect class="cls-1" x="36.35" y="24.82" width="0.89" height="0.88"/><polygon class="cls-1" points="35.46 16.84 34.57 16.84 33.69 16.84 32.8 16.84 31.91 16.84 31.91 17.73 31.03 17.73 31.03 16.84 30.14 16.84 29.25 16.84 29.25 17.73 30.14 17.73 30.14 18.61 31.03 18.61 31.91 18.61 32.8 18.61 32.8 17.73 33.69 17.73 34.57 17.73 34.57 18.61 35.46 18.61 36.34 18.61 36.34 17.73 37.23 17.73 37.23 16.84 36.34 16.84 35.46 16.84"/><polygon class="cls-1" points="27.48 17.73 26.59 17.73 26.59 18.61 27.48 18.61 28.37 18.61 29.25 18.61 29.25 17.73 28.37 17.73 27.48 17.73"/><polygon class="cls-1" points="23.93 58.5 23.05 58.5 23.05 59.39 23.93 59.39 24.82 59.39 25.71 59.39 25.71 58.5 24.82 58.5 23.93 58.5"/><polygon class="cls-1" points="24.82 25.7 25.71 25.7 25.71 24.82 26.59 24.82 26.59 25.7 26.59 26.59 27.48 26.59 28.37 26.59 28.37 25.7 27.48 25.7 27.48 24.82 28.37 24.82 29.25 24.82 30.14 24.82 30.14 23.93 31.03 23.93 31.03 24.82 31.03 25.7 31.91 25.7 31.91 26.59 32.8 26.59 33.69 26.59 34.57 26.59 34.57 25.7 34.57 24.82 33.69 24.82 33.69 25.7 32.8 25.7 32.8 24.82 31.91 24.82 31.91 23.93 32.8 23.93 32.8 23.05 31.91 23.05 31.91 22.16 31.91 21.27 32.8 21.27 33.69 21.27 33.69 22.16 32.8 22.16 32.8 23.05 33.69 23.05 34.57 23.05 34.57 23.93 34.57 24.82 35.46 24.82 36.34 24.82 36.34 23.93 36.34 23.05 37.23 23.05 37.23 22.16 36.34 22.16 35.46 22.16 35.46 21.27 35.46 20.39 34.57 20.39 33.69 20.39 32.8 20.39 31.91 20.39 31.91 19.5 31.03 19.5 31.03 20.39 31.03 21.27 31.03 22.16 30.14 22.16 30.14 23.05 29.25 23.05 28.37 23.05 27.48 23.05 27.48 22.16 27.48 21.27 27.48 20.39 28.37 20.39 28.37 19.5 27.48 19.5 26.59 19.5 26.59 20.39 25.71 20.39 24.82 20.39 24.82 21.27 24.82 22.16 24.82 23.05 24.82 23.93 24.82 24.82 23.93 24.82 23.93 25.7 24.82 25.7"/><polygon class="cls-1" points="19.5 23.05 20.39 23.05 21.28 23.05 21.28 23.93 22.16 23.93 23.05 23.93 23.05 24.82 23.93 24.82 23.93 23.93 23.93 23.05 23.05 23.05 22.16 23.05 22.16 22.16 21.28 22.16 20.39 22.16 19.5 22.16 18.62 22.16 18.62 21.27 18.62 20.39 17.73 20.39 17.73 21.27 17.73 22.16 17.73 23.05 18.62 23.05 19.5 23.05"/><polygon class="cls-2" points="49.65 24.82 49.65 23.93 49.65 23.05 49.65 22.16 49.65 21.27 49.65 20.39 48.76 20.39 48.76 19.5 47.87 19.5 47.87 18.61 46.99 18.61 46.99 17.73 46.1 17.73 45.21 17.73 45.21 16.84 44.32 16.84 43.44 16.84 43.44 15.95 42.55 15.95 41.66 15.95 40.78 15.95 39.89 15.95 39 15.95 39 16.84 39.89 16.84 40.78 16.84 41.66 16.84 42.55 16.84 42.55 17.73 43.44 17.73 44.32 17.73 44.32 18.61 45.21 18.61 46.1 18.61 46.1 19.5 46.99 19.5 46.99 20.39 47.87 20.39 47.87 21.27 46.99 21.27 46.99 22.16 46.1 22.16 46.1 23.05 45.21 23.05 45.21 23.93 44.32 23.93 43.44 23.93 42.55 23.93 42.55 24.82 41.66 24.82 40.78 24.82 40.78 25.7 39.89 25.7 39 25.7 39 26.59 38.12 26.59 37.23 26.59 36.34 26.59 36.34 27.48 35.46 27.48 34.57 27.48 33.69 27.48 32.8 27.48 31.91 27.48 31.03 27.48 30.14 27.48 29.25 27.48 28.37 27.48 27.48 27.48 26.59 27.48 25.71 27.48 24.82 27.48 24.82 26.59 23.93 26.59 23.05 26.59 22.16 26.59 21.28 26.59 20.39 26.59 20.39 25.7 19.5 25.7 18.62 25.7 18.62 24.82 17.73 24.82 16.84 24.82 16.84 25.7 15.96 25.7 15.96 24.82 15.96 23.93 15.07 23.93 14.18 23.93 14.18 23.05 14.18 22.16 15.07 22.16 15.96 22.16 15.96 21.27 16.84 21.27 17.73 21.27 17.73 20.39 18.62 20.39 19.5 20.39 19.5 19.5 20.39 19.5 21.28 19.5 21.28 18.61 22.16 18.61 23.05 18.61 23.93 18.61 24.82 18.61 24.82 17.73 25.71 17.73 26.59 17.73 27.48 17.73 28.37 17.73 29.25 17.73 29.25 16.84 30.14 16.84 31.03 16.84 31.91 16.84 32.8 16.84 33.69 16.84 33.69 15.95 34.57 15.95 34.57 16.84 35.46 16.84 36.34 16.84 37.23 16.84 37.23 15.95 38.12 15.95 39 15.95 39 15.07 38.12 15.07 37.23 15.07 36.34 15.07 36.34 14.18 35.46 14.18 34.57 14.18 33.69 14.18 32.8 14.18 32.8 15.07 31.91 15.07 31.03 15.07 30.14 15.07 29.25 15.07 28.37 15.07 27.48 15.07 27.48 15.95 26.59 15.95 25.71 15.95 24.82 15.95 24.82 16.84 23.93 16.84 23.05 16.84 22.16 16.84 21.28 16.84 21.28 17.73 20.39 17.73 19.5 17.73 19.5 18.61 18.62 18.61 17.73 18.61 17.73 19.5 16.84 19.5 15.96 19.5 15.96 20.39 15.07 20.39 14.18 20.39 14.18 21.27 13.3 21.27 13.3 22.16 12.41 22.16 12.41 23.05 12.41 23.93 12.41 24.82 12.41 25.7 12.41 26.59 12.41 27.48 12.41 28.36 12.41 29.25 12.41 30.14 12.41 31.02 12.41 31.91 12.41 32.8 12.41 33.68 11.53 33.68 11.53 34.57 11.53 35.46 11.53 36.34 11.53 37.23 11.53 38.12 11.53 39 11.53 39.89 11.53 40.77 11.53 41.66 11.53 42.55 11.53 43.43 11.53 44.32 11.53 45.21 11.53 46.09 11.53 46.98 11.53 47.87 12.41 47.87 12.41 46.98 12.41 46.09 13.3 46.09 14.18 46.09 14.18 46.98 15.07 46.98 15.96 46.98 15.96 47.87 16.84 47.87 16.84 48.75 17.73 48.75 17.73 49.64 18.62 49.64 18.62 50.52 19.5 50.52 19.5 49.64 19.5 48.75 19.5 47.87 19.5 46.98 20.39 46.98 20.39 46.09 20.39 45.21 20.39 44.32 20.39 43.43 21.28 43.43 21.28 44.32 22.16 44.32 22.16 45.21 22.16 46.09 23.05 46.09 23.05 46.98 23.05 47.87 23.05 48.75 23.93 48.75 23.93 49.64 24.82 49.64 24.82 48.75 25.71 48.75 25.71 47.87 25.71 46.98 25.71 46.09 26.59 46.09 26.59 45.21 27.48 45.21 27.48 44.32 27.48 43.43 27.48 42.55 28.37 42.55 29.25 42.55 30.14 42.55 30.14 43.43 31.03 43.43 31.03 44.32 31.03 45.21 31.91 45.21 31.91 46.09 31.91 46.98 31.91 47.87 32.8 47.87 32.8 46.98 32.8 46.09 33.69 46.09 33.69 45.21 33.69 44.32 33.69 43.43 34.57 43.43 34.57 42.55 35.46 42.55 35.46 43.43 36.34 43.43 36.34 44.32 37.23 44.32 37.23 45.21 38.12 45.21 38.12 46.09 38.12 46.98 39 46.98 39 47.87 39 48.75 39.89 48.75 39.89 49.64 39.89 50.52 40.78 50.52 40.78 49.64 41.66 49.64 41.66 48.75 42.55 48.75 42.55 47.87 43.44 47.87 43.44 46.98 43.44 46.09 44.32 46.09 44.32 45.21 44.32 44.32 44.32 43.43 45.21 43.43 45.21 42.55 46.1 42.55 46.1 43.43 46.1 44.32 46.99 44.32 46.99 45.21 46.99 46.09 46.99 46.98 46.99 47.87 46.99 48.75 47.87 48.75 47.87 47.87 48.76 47.87 48.76 46.98 48.76 46.09 49.65 46.09 49.65 45.21 49.65 44.32 49.65 43.43 49.65 42.55 49.65 41.66 49.65 40.77 49.65 39.89 49.65 39 49.65 38.12 49.65 37.23 49.65 36.34 49.65 35.46 49.65 34.57 49.65 33.68 49.65 32.8 50.53 32.8 50.53 31.91 50.53 31.02 50.53 30.14 50.53 29.25 50.53 28.36 50.53 27.48 50.53 26.59 50.53 25.7 50.53 24.82 49.65 24.82"/><polygon class="cls-2" points="46.1 12.41 46.99 12.41 46.99 11.52 47.87 11.52 47.87 10.64 47.87 9.75 46.99 9.75 46.99 8.86 46.99 7.98 46.1 7.98 46.1 7.09 45.21 7.09 45.21 7.98 45.21 8.86 46.1 8.86 46.1 9.75 46.1 10.64 46.1 11.52 45.21 11.52 45.21 12.41 45.21 13.29 46.1 13.29 46.1 12.41"/><polygon class="cls-2" points="39 7.09 39.89 7.09 40.78 7.09 40.78 7.98 40.78 8.86 39.89 8.86 39.89 9.75 39.89 10.64 40.78 10.64 40.78 9.75 41.66 9.75 41.66 8.86 42.55 8.86 42.55 7.98 42.55 7.09 41.66 7.09 41.66 6.2 40.78 6.2 39.89 6.2 39.89 5.32 39.89 4.43 40.78 4.43 40.78 3.54 40.78 2.66 40.78 1.77 39.89 1.77 39.89 0.89 39 0.89 39 1.77 39 2.66 39.89 2.66 39.89 3.54 39 3.54 39 4.43 38.12 4.43 38.12 5.32 38.12 6.2 39 6.2 39 7.09"/><rect class="cls-2" x="38.12" width="0.88" height="0.88"/><polygon class="cls-2" points="35.46 11.52 36.34 11.52 36.34 10.64 36.34 9.75 36.34 8.86 37.23 8.86 37.23 7.98 37.23 7.09 36.34 7.09 36.34 6.2 35.46 6.2 35.46 7.09 35.46 7.98 35.46 8.86 34.57 8.86 34.57 9.75 34.57 10.64 35.46 10.64 35.46 11.52"/><rect class="cls-2" x="34.57" y="5.32" width="0.89" height="0.88"/><polygon class="cls-2" points="31.91 5.32 31.91 4.43 31.03 4.43 31.03 3.54 31.03 2.66 31.03 1.77 31.03 0.89 31.03 0 30.14 0 30.14 0.89 30.14 1.77 30.14 2.66 29.25 2.66 29.25 3.54 29.25 4.43 30.14 4.43 30.14 5.32 31.03 5.32 31.03 6.2 31.91 6.2 31.91 5.32"/><polygon class="cls-2" points="31.03 7.98 31.03 7.09 31.03 6.2 30.14 6.2 30.14 7.09 29.25 7.09 29.25 7.98 30.14 7.98 31.03 7.98"/><polygon class="cls-2" points="24.82 10.64 24.82 11.52 24.82 12.41 25.71 12.41 25.71 11.52 26.59 11.52 26.59 10.64 26.59 9.75 25.71 9.75 25.71 10.64 24.82 10.64"/><rect class="cls-2" x="24.82" y="8.86" width="0.89" height="0.89"/><polygon class="cls-2" points="23.93 8.86 24.82 8.86 24.82 7.98 24.82 7.09 25.71 7.09 25.71 6.2 25.71 5.32 24.82 5.32 24.82 4.43 24.82 3.54 23.93 3.54 23.93 4.43 23.93 5.32 23.93 6.2 23.93 7.09 23.05 7.09 23.05 7.98 23.93 7.98 23.93 8.86"/><polygon class="cls-2" points="18.62 12.41 18.62 13.29 18.62 14.18 19.5 14.18 19.5 13.29 19.5 12.41 19.5 11.52 19.5 10.64 18.62 10.64 18.62 9.75 19.5 9.75 19.5 8.86 20.39 8.86 20.39 7.98 20.39 7.09 20.39 6.2 20.39 5.32 19.5 5.32 19.5 4.43 19.5 3.54 20.39 3.54 21.28 3.54 21.28 2.66 21.28 1.77 21.28 0.89 21.28 0 20.39 0 19.5 0 19.5 0.89 20.39 0.89 20.39 1.77 20.39 2.66 19.5 2.66 18.62 2.66 18.62 3.54 17.73 3.54 17.73 4.43 17.73 5.32 18.62 5.32 18.62 6.2 19.5 6.2 19.5 7.09 19.5 7.98 18.62 7.98 18.62 8.86 17.73 8.86 17.73 9.75 17.73 10.64 17.73 11.52 18.62 11.52 18.62 12.41"/><polygon class="cls-2" points="12.41 49.64 12.41 50.52 13.3 50.52 13.3 49.64 13.3 48.75 12.41 48.75 12.41 49.64"/><polygon class="cls-3" points="61.17 60.28 60.28 60.28 59.4 60.28 59.4 59.39 58.51 59.39 57.62 59.39 56.73 59.39 55.85 59.39 55.85 58.5 54.96 58.5 54.07 58.5 53.19 58.5 52.3 58.5 51.41 58.5 50.53 58.5 50.53 57.62 49.65 57.62 48.76 57.62 48.76 56.73 47.87 56.73 46.99 56.73 46.1 56.73 45.21 56.73 45.21 55.84 44.32 55.84 44.32 54.96 43.44 54.96 43.44 55.84 42.55 55.84 41.66 55.84 41.66 56.73 40.78 56.73 39.89 56.73 39.89 57.62 39 57.62 38.12 57.62 38.12 58.5 37.23 58.5 36.34 58.5 35.46 58.5 35.46 59.39 34.57 59.39 33.69 59.39 33.69 60.28 34.57 60.28 34.57 61.17 34.57 62.05 35.46 62.05 36.34 62.05 37.23 62.05 38.12 62.05 39 62.05 39 62.94 39.89 62.94 40.78 62.94 41.66 62.94 41.66 63.83 42.55 63.83 43.44 63.83 44.32 63.83 44.32 64.71 45.21 64.71 46.1 64.71 46.1 65.59 46.99 65.59 47.87 65.59 48.76 65.59 49.65 65.59 49.65 66.48 50.53 66.48 51.41 66.48 52.3 66.48 53.19 66.48 54.07 66.48 54.07 67.37 54.96 67.37 55.85 67.37 56.73 67.37 57.62 67.37 57.62 66.48 58.51 66.48 58.51 65.59 59.4 65.59 59.4 64.71 60.28 64.71 60.28 63.83 60.28 62.94 61.17 62.94 61.17 62.05 62.05 62.05 62.05 61.17 62.05 60.28 61.17 60.28"/><polygon class="cls-3" points="47.87 54.07 47.87 54.96 48.76 54.96 49.65 54.96 49.65 55.84 50.53 55.84 51.41 55.84 52.3 55.84 53.19 55.84 54.07 55.84 54.96 55.84 55.85 55.84 56.73 55.84 57.62 55.84 58.51 55.84 58.51 54.96 58.51 54.07 58.51 53.18 58.51 52.3 57.62 52.3 56.73 52.3 55.85 52.3 55.85 51.41 54.96 51.41 54.07 51.41 53.19 51.41 53.19 50.52 52.3 50.52 51.41 50.52 50.53 50.52 49.65 50.52 48.76 50.52 48.76 51.41 47.87 51.41 47.87 52.3 46.99 52.3 46.99 53.18 46.1 53.18 46.1 54.07 46.99 54.07 47.87 54.07"/><polygon class="cls-3" points="27.48 59.39 26.59 59.39 25.71 59.39 24.82 59.39 23.93 59.39 23.05 59.39 22.16 59.39 21.28 59.39 21.28 58.5 20.39 58.5 19.5 58.5 18.62 58.5 17.73 58.5 17.73 59.39 16.84 59.39 15.96 59.39 15.96 60.28 15.07 60.28 14.18 60.28 14.18 61.17 13.3 61.17 12.41 61.17 11.53 61.17 11.53 62.05 10.64 62.05 10.64 62.94 9.75 62.94 8.87 62.94 8.87 63.83 7.98 63.83 7.09 63.83 7.09 64.71 6.21 64.71 5.32 64.71 5.32 65.59 4.43 65.59 3.55 65.59 2.66 65.59 2.66 66.48 1.77 66.48 0.89 66.48 0.89 67.37 0 67.37 0 68.25 0 69.14 0 70.03 0.89 70.03 0.89 70.92 1.77 70.92 1.77 71.8 1.77 72.69 2.66 72.69 2.66 73.58 3.55 73.58 4.43 73.58 5.32 73.58 6.21 73.58 6.21 72.69 7.09 72.69 7.09 71.8 7.98 71.8 8.87 71.8 9.75 71.8 9.75 70.92 10.64 70.92 11.53 70.92 11.53 70.03 12.41 70.03 12.41 69.14 13.3 69.14 14.18 69.14 14.18 68.25 15.07 68.25 15.96 68.25 15.96 67.37 16.84 67.37 17.73 67.37 17.73 66.48 18.62 66.48 19.5 66.48 19.5 65.59 20.39 65.59 21.28 65.59 21.28 64.71 22.16 64.71 23.05 64.71 23.05 63.83 23.93 63.83 23.93 62.94 24.82 62.94 25.71 62.94 25.71 62.05 26.59 62.05 26.59 61.17 27.48 61.17 28.37 61.17 28.37 60.28 29.25 60.28 29.25 59.39 28.37 59.39 27.48 59.39"/><polygon class="cls-3" points="0.89 60.28 1.77 60.28 2.66 60.28 2.66 59.39 3.55 59.39 4.43 59.39 5.32 59.39 6.21 59.39 6.21 58.5 7.09 58.5 7.98 58.5 8.87 58.5 9.75 58.5 9.75 57.62 10.64 57.62 11.53 57.62 12.41 57.62 12.41 56.73 13.3 56.73 14.18 56.73 15.07 56.73 15.96 56.73 16.84 56.73 16.84 55.84 15.96 55.84 15.96 54.96 15.07 54.96 15.07 54.07 14.18 54.07 14.18 53.18 14.18 52.3 13.3 52.3 13.3 51.41 12.41 51.41 12.41 52.3 11.53 52.3 10.64 52.3 9.75 52.3 8.87 52.3 8.87 53.18 7.98 53.18 7.09 53.18 6.21 53.18 5.32 53.18 4.43 53.18 4.43 54.07 3.55 54.07 2.66 54.07 1.77 54.07 0.89 54.07 0.89 54.96 0 54.96 0 55.84 0 56.73 0 57.62 0 58.5 0 59.39 0.89 59.39 0.89 60.28"/><polygon class="cls-4" points="46.1 44.32 46.1 43.43 45.21 43.43 45.21 44.32 45.21 45.21 45.21 46.09 46.1 46.09 46.1 46.98 46.1 47.87 46.1 48.75 46.99 48.75 46.99 47.87 46.99 46.98 46.99 46.09 46.99 45.21 46.99 44.32 46.1 44.32"/><rect class="cls-4" x="39" y="52.3" width="0.89" height="0.88"/><polygon class="cls-4" points="39 47.87 39 46.98 38.12 46.98 38.12 46.09 38.12 45.21 37.23 45.21 37.23 44.32 36.34 44.32 35.46 44.32 35.46 45.21 36.34 45.21 36.34 46.09 37.23 46.09 37.23 46.98 37.23 47.87 38.12 47.87 38.12 48.75 38.12 49.64 39 49.64 39 50.52 39.89 50.52 39.89 49.64 39.89 48.75 39 48.75 39 47.87"/><rect class="cls-4" x="36.35" y="50.52" width="0.89" height="0.89"/><polygon class="cls-4" points="31.03 44.32 31.03 43.43 30.14 43.43 30.14 42.55 29.25 42.55 28.37 42.55 28.37 43.43 29.25 43.43 29.25 44.32 30.14 44.32 30.14 45.21 30.14 46.09 30.14 46.98 31.03 46.98 31.03 47.87 31.91 47.87 31.91 46.98 31.91 46.09 31.91 45.21 31.03 45.21 31.03 44.32"/><rect class="cls-4" x="25.71" y="50.52" width="0.88" height="0.89"/><polygon class="cls-5" points="46.99 20.39 46.99 19.5 46.1 19.5 46.1 18.61 45.21 18.61 44.32 18.61 44.32 19.5 44.32 20.39 44.32 21.27 44.32 22.16 43.44 22.16 43.44 23.05 42.55 23.05 42.55 22.16 43.44 22.16 43.44 21.27 43.44 20.39 43.44 19.5 43.44 18.61 42.55 18.61 42.55 17.73 41.66 17.73 40.78 17.73 40.78 18.61 40.78 19.5 40.78 20.39 40.78 21.27 40.78 22.16 41.66 22.16 41.66 23.05 41.66 23.93 40.78 23.93 39.89 23.93 39.89 24.82 39 24.82 38.12 24.82 37.23 24.82 37.23 25.7 36.34 25.7 36.34 24.82 35.46 24.82 34.57 24.82 34.57 25.7 34.57 26.59 33.69 26.59 32.8 26.59 31.91 26.59 31.91 25.7 31.03 25.7 31.03 24.82 31.03 23.93 30.14 23.93 30.14 24.82 29.25 24.82 28.37 24.82 27.48 24.82 27.48 25.7 28.37 25.7 28.37 26.59 27.48 26.59 26.59 26.59 26.59 25.7 26.59 24.82 25.71 24.82 25.71 25.7 24.82 25.7 23.93 25.7 23.93 24.82 23.05 24.82 23.05 23.93 22.16 23.93 21.28 23.93 21.28 23.05 20.39 23.05 19.5 23.05 18.62 23.05 17.73 23.05 17.73 22.16 17.73 21.27 16.84 21.27 15.96 21.27 15.96 22.16 15.07 22.16 14.18 22.16 14.18 23.05 14.18 23.93 15.07 23.93 15.96 23.93 15.96 24.82 15.96 25.7 16.84 25.7 16.84 24.82 17.73 24.82 18.62 24.82 18.62 25.7 19.5 25.7 20.39 25.7 20.39 26.59 21.28 26.59 22.16 26.59 23.05 26.59 23.93 26.59 24.82 26.59 24.82 27.48 25.71 27.48 26.59 27.48 27.48 27.48 28.37 27.48 29.25 27.48 30.14 27.48 31.03 27.48 31.91 27.48 32.8 27.48 33.69 27.48 34.57 27.48 35.46 27.48 36.34 27.48 36.34 26.59 37.23 26.59 38.12 26.59 39 26.59 39 25.7 39.89 25.7 40.78 25.7 40.78 24.82 41.66 24.82 42.55 24.82 42.55 23.93 43.44 23.93 44.32 23.93 45.21 23.93 45.21 23.05 46.1 23.05 46.1 22.16 46.99 22.16 46.99 21.27 47.87 21.27 47.87 20.39 46.99 20.39"/><polygon class="cls-5" points="39 22.16 39 23.05 39.89 23.05 39.89 22.16 39.89 21.27 39.89 20.39 39 20.39 39 21.27 39 22.16"/><rect class="cls-5" x="37.24" y="22.16" width="0.88" height="0.88"/><polygon class="cls-5" points="36.34 23.93 36.34 24.82 37.23 24.82 37.23 23.93 37.23 23.05 36.34 23.05 36.34 23.93"/><polygon class="cls-5" points="34.57 23.05 33.69 23.05 32.8 23.05 32.8 23.93 31.91 23.93 31.91 24.82 32.8 24.82 32.8 25.7 33.69 25.7 33.69 24.82 34.57 24.82 34.57 23.93 34.57 23.05"/><rect class="cls-5" x="33.69" y="15.95" width="0.88" height="0.88"/><polygon class="cls-5" points="33.69 22.16 33.69 21.27 32.8 21.27 31.91 21.27 31.91 22.16 31.91 23.05 32.8 23.05 32.8 22.16 33.69 22.16"/><rect class="cls-5" x="31.03" y="16.84" width="0.88" height="0.89"/><polygon class="cls-5" points="24.82 23.93 24.82 23.05 24.82 22.16 24.82 21.27 24.82 20.39 25.71 20.39 26.59 20.39 26.59 19.5 27.48 19.5 28.37 19.5 28.37 20.39 27.48 20.39 27.48 21.27 27.48 22.16 27.48 23.05 28.37 23.05 29.25 23.05 30.14 23.05 30.14 22.16 31.03 22.16 31.03 21.27 31.03 20.39 31.03 19.5 31.91 19.5 31.91 20.39 32.8 20.39 33.69 20.39 34.57 20.39 35.46 20.39 35.46 21.27 35.46 22.16 36.34 22.16 37.23 22.16 37.23 21.27 37.23 20.39 38.12 20.39 39 20.39 39 19.5 39 18.61 39 17.73 38.12 17.73 38.12 16.84 37.23 16.84 37.23 17.73 36.34 17.73 36.34 18.61 35.46 18.61 34.57 18.61 34.57 17.73 33.69 17.73 32.8 17.73 32.8 18.61 31.91 18.61 31.03 18.61 30.14 18.61 30.14 17.73 29.25 17.73 29.25 18.61 28.37 18.61 27.48 18.61 26.59 18.61 26.59 17.73 25.71 17.73 24.82 17.73 24.82 18.61 23.93 18.61 23.05 18.61 22.16 18.61 21.28 18.61 21.28 19.5 20.39 19.5 19.5 19.5 19.5 20.39 18.62 20.39 18.62 21.27 18.62 22.16 19.5 22.16 20.39 22.16 21.28 22.16 22.16 22.16 22.16 23.05 23.05 23.05 23.93 23.05 23.93 23.93 23.93 24.82 24.82 24.82 24.82 23.93"/><polygon class="cls-6" points="46.99 48.75 46.1 48.75 46.1 49.64 45.21 49.64 45.21 50.52 44.32 50.52 44.32 51.41 43.44 51.41 42.55 51.41 41.66 51.41 41.66 52.3 40.78 52.3 39.89 52.3 39.89 53.18 39 53.18 39 54.07 38.12 54.07 37.23 54.07 36.34 54.07 36.34 53.18 36.34 52.3 35.46 52.3 35.46 53.18 34.57 53.18 34.57 54.07 34.57 54.96 33.69 54.96 33.69 54.07 33.69 53.18 32.8 53.18 32.8 54.07 31.91 54.07 31.03 54.07 31.03 53.18 31.03 52.3 30.14 52.3 29.25 52.3 28.37 52.3 28.37 53.18 28.37 54.07 27.48 54.07 27.48 54.96 27.48 55.84 27.48 56.73 26.59 56.73 25.71 56.73 25.71 55.84 24.82 55.84 24.82 54.96 23.93 54.96 23.93 54.07 23.05 54.07 23.05 53.18 22.16 53.18 22.16 54.07 22.16 54.96 21.28 54.96 21.28 54.07 20.39 54.07 20.39 54.96 19.5 54.96 19.5 54.07 18.62 54.07 18.62 54.96 18.62 55.84 19.5 55.84 19.5 56.73 18.62 56.73 18.62 57.62 18.62 58.5 19.5 58.5 20.39 58.5 21.28 58.5 21.28 59.39 22.16 59.39 23.05 59.39 23.05 58.5 23.93 58.5 24.82 58.5 25.71 58.5 25.71 59.39 26.59 59.39 27.48 59.39 27.48 58.5 28.37 58.5 29.25 58.5 30.14 58.5 31.03 58.5 31.91 58.5 32.8 58.5 33.69 58.5 34.57 58.5 34.57 57.62 35.46 57.62 36.34 57.62 37.23 57.62 37.23 56.73 38.12 56.73 39 56.73 39 55.84 39.89 55.84 40.78 55.84 41.66 55.84 42.55 55.84 42.55 54.96 43.44 54.96 43.44 54.07 44.32 54.07 45.21 54.07 45.21 53.18 46.1 53.18 46.1 52.3 46.99 52.3 46.99 51.41 47.87 51.41 47.87 50.52 48.76 50.52 48.76 49.64 48.76 48.75 47.87 48.75 46.99 48.75"/></g></g></svg>