<svg xmlns="http://www.w3.org/2000/svg" viewBox="0 0 207.62 277.15"><defs><style>.affe060c-725b-47da-a4a2-e93ada587afc{font-size:25.93px;font-family:Terminal-Grotesque, Terminal Grotesque;}.affe060c-725b-47da-a4a2-e93ada587afc,.bfc4f0fd-f264-454b-8ac6-91cdc186a131,.e1545e5a-6076-438a-95f0-d988971ade1b{fill:#0db1cb;}.bfc4f0fd-f264-454b-8ac6-91cdc186a131{font-size:12px;}.a587456d-48a2-4fe5-9c0d-cafdc964af00,.bfc4f0fd-f264-454b-8ac6-91cdc186a131{font-family:DarkerGrotesque-Black, Darker Grotesque;font-weight:800;}.ac2f827b-b452-4117-a6a1-aa9ab37c3387{letter-spacing:-0.02em;}.a1b506f2-1841-4771-a2e9-e2943b92738d{fill:#66e3eb;}.a587456d-48a2-4fe5-9c0d-cafdc964af00{font-size:13.28px;fill:#fff;}.adaab059-def6-4fdc-aea5-14c9ad1930eb,.b81be1a0-29ac-4a78-8c9b-7a89434ba685,.e835403c-c025-424a-84c3-fe9a938a5d17{font-family:DarkerGrotesque-SemiBold, Darker Grotesque;font-weight:600;}.a55384ce-f181-4864-98a6-41ac2298379c,.e835403c-c025-424a-84c3-fe9a938a5d17{letter-spacing:0em;}.ae755d7e-3f67-4949-adee-456b44db3eab{letter-spacing:-0.01em;}.ed8910ae-841d-4068-b7e0-dff921c44956{letter-spacing:0.01em;}.b81be1a0-29ac-4a78-8c9b-7a89434ba685{letter-spacing:0.01em;}</style></defs><g id="a19f26d4-5203-4eb6-aff3-54cf2e2320fd" data-name="Capa 2"><g id="b6c6795a-d225-4c97-affa-d0a9ec238c25" data-name="Layer 1"><text class="affe060c-725b-47da-a4a2-e93ada587afc" transform="translate(71.02 36.73)">36,104</text><text class="bfc4f0fd-f264-454b-8ac6-91cdc186a131" transform="translate(70.27 11.29)">POPUL<tspan class="ac2f827b-b452-4117-a6a1-aa9ab37c3387" x="32.66" y="0">A</tspan><tspan x="39.58" y="0">TION:</tspan></text><polygon class="e1545e5a-6076-438a-95f0-d988971ade1b" points="145.03 43.97 141.07 43.97 141.07 42.97 144.03 42.97 144.03 41.24 145.76 41.24 145.76 25.66 147.5 25.66 147.5 23.93 149.23 23.93 149.23 22.19 150.96 22.19 150.96 21.46 149.23 21.46 149.23 19.73 147.5 19.73 147.5 18 145.76 18 145.76 4.15 144.03 4.15 144.03 2.42 141.07 2.42 141.07 1.42 145.03 1.42 145.03 3.15 146.76 3.15 146.76 17 148.5 17 148.5 18.73 150.23 18.73 150.23 20.46 151.96 20.46 151.96 23.19 150.23 23.19 150.23 24.93 148.5 24.93 148.5 26.66 146.76 26.66 146.76 42.24 145.03 42.24 145.03 43.97"/><polygon class="e1545e5a-6076-438a-95f0-d988971ade1b" points="66.55 42.55 62.58 42.55 62.58 40.82 60.85 40.82 60.85 26.97 59.12 26.97 59.12 25.24 57.39 25.24 57.39 23.51 55.66 23.51 55.66 20.78 57.39 20.78 57.39 19.05 59.12 19.05 59.12 17.31 60.85 17.31 60.85 1.73 62.58 1.73 62.58 0 66.55 0 66.55 1 63.58 1 63.58 2.73 61.85 2.73 61.85 18.31 60.12 18.31 60.12 20.05 58.39 20.05 58.39 21.78 56.66 21.78 56.66 22.51 58.39 22.51 58.39 24.24 60.12 24.24 60.12 25.97 61.85 25.97 61.85 39.82 63.58 39.82 63.58 41.55 66.55 41.55 66.55 42.55"/><circle class="a1b506f2-1841-4771-a2e9-e2943b92738d" cx="103.81" cy="173.34" r="103.8"/><path class="e1545e5a-6076-438a-95f0-d988971ade1b" d="M103.81,173.34l-.3-103.8h.3c56.94,0,103.8,46.85,103.8,103.8s-46.86,103.8-103.8,103.8a103.84,103.84,0,0,1-38-7.19Z"/><text class="a587456d-48a2-4fe5-9c0d-cafdc964af00" transform="translate(30.64 152.1)">42.16%<tspan class="e835403c-c025-424a-84c3-fe9a938a5d17" x="39.53" y="0"> </tspan><tspan class="adaab059-def6-4fdc-aea5-14c9ad1930eb"><tspan x="-11.61" y="15.11">MUNICI</tspan><tspan class="ae755d7e-3f67-4949-adee-456b44db3eab" x="31.13" y="15.11">P</tspan><tspan x="37.56" y="15.11">AL </tspan><tspan x="0.13" y="30.21">CEN</tspan><tspan class="ed8910ae-841d-4068-b7e0-dff921c44956" x="22.48" y="30.21">T</tspan><tspan x="28.72" y="30.21">RE</tspan></tspan></text><text class="a587456d-48a2-4fe5-9c0d-cafdc964af00" transform="translate(116.12 184.4)">57.84%<tspan class="adaab059-def6-4fdc-aea5-14c9ad1930eb" x="41.33" y="0"> </tspan><tspan class="adaab059-def6-4fdc-aea5-14c9ad1930eb"><tspan x="-11.71" y="15.11">REST OF THE</tspan></tspan><tspan class="b81be1a0-29ac-4a78-8c9b-7a89434ba685"><tspan x="-7.37" y="30.21">T</tspan><tspan class="a55384ce-f181-4864-98a6-41ac2298379c" x="-1.17" y="30.21">ERRITORY</tspan></tspan></text></g></g></svg>