<?xml version="1.0" encoding="utf-8"?>
<!-- Generator: Adobe Illustrator 24.1.2, SVG Export Plug-In . SVG Version: 6.00 Build 0)  -->
<svg version="1.1" id="Capa_1" xmlns="http://www.w3.org/2000/svg" xmlns:xlink="http://www.w3.org/1999/xlink" x="0px" y="0px"
	 viewBox="0 0 207.6 277.1" style="enable-background:new 0 0 207.6 277.1;" xml:space="preserve">
<style type="text/css">
	.st0{enable-background:new    ;}
	.st1{fill:#0DB1CB;}
	.st2{fill:#66E3EB;}
	.st3{fill:#FFFFFF;}
</style>
<g id="a19f26d4-5203-4eb6-aff3-54cf2e2320fd">
	<g id="b6c6795a-d225-4c97-affa-d0a9ec238c25">
		<g class="st0">
			<path class="st1" d="M74.7,36.7v-0.8h-0.8v-0.8H73v-0.8h-0.8v-1.6h2.4v0.8h0.8v0.8h4.1v-0.8h0.8v-3.2h-0.8v-0.8h-3.2V27h3.2v-0.8
				h0.8v-2.4h-0.8V23h-4.1v0.8h-0.8v0.8h-2.4V23H73v-0.8h0.8v-0.8h0.8v-0.8h4.9v0.8h1.6v0.8H82V23h0.8V27H82v0.8h-0.8v0.8H82v0.8
				h0.8v4.9H82v0.8h-0.8v0.8h-1.6v0.8H74.7z"/>
			<path class="st1" d="M88.7,36.7v-0.8h-1.6v-1.6h-0.8v-2.4h-0.8v-6.5h0.8V23h0.8v-1.6h1.6v-0.8h5.7v0.8H96V23h0.8v1.6h-2.4v-0.8
				h-0.8V23h-4.1v0.8h-0.8v2.4h-0.8v2.4h0.8v-0.8h0.8V27h5.7v0.8H96v0.8h0.8v5.7H96v1.6h-1.6v0.8H88.7z M93.6,34.3v-0.8h0.8v-3.2
				h-0.8v-0.8h-4.1v0.8h-0.8v3.2h0.8v0.8H93.6z"/>
			<path class="st1" d="M99,39.2v-0.8h0.8v-0.8h0.8v-0.8H99v-2.4h2.4v4.1h-0.8v0.8H99z"/>
			<path class="st1" d="M106,36.7V24.6h-2.4V23h0.8v-0.8h0.8v-0.8h0.8v-0.8h2.4v16.2H106z"/>
			<path class="st1" d="M114.4,36.7v-0.8h-1.6v-1.6H112v-2.4h-0.8v-6.5h0.8V23h0.8v-1.6h1.6v-0.8h5.7v0.8h1.6V23h0.8v2.4h0.8v6.5
				h-0.8v2.4h-0.8v1.6h-1.6v0.8H114.4z M119.3,34.3v-0.8h0.8v-2.4h0.8v-4.9h-0.8v-2.4h-0.8V23h-4.1v0.8h-0.8v2.4h-0.8v4.9h0.8v2.4
				h0.8v0.8H119.3z"/>
			<path class="st1" d="M132.4,36.7v-4.1h-7.3v-4.9h0.8V27h0.8v-0.8h0.8v-0.8h0.8v-0.8h0.8v-0.8h0.8V23h0.8v-0.8h0.8v-0.8h0.8v-0.8
				h2.4v9.7h2.4v2.4h-2.4v4.1H132.4z M132.4,30.2v-5.7h-0.8v0.8h-0.8v0.8H130V27h-0.8v0.8h-0.8v0.8h-0.8v1.6H132.4z"/>
		</g>
		<g class="st0">
			<path class="st1" d="M72.4,11.3h-1.5V4.5h2.8c0.8,0,1.4,0.2,1.8,0.6s0.6,1,0.6,1.7c0,0.7-0.2,1.2-0.7,1.6S74.4,9,73.7,9h-1.3
				V11.3z M73.5,5.7h-1.1V8h1.1c0.4,0,0.7-0.1,1-0.3c0.3-0.2,0.4-0.5,0.4-0.8c0-0.4-0.1-0.7-0.4-0.9C74.2,5.8,73.9,5.7,73.5,5.7z"/>
			<path class="st1" d="M79.9,11.5c-1.1,0-1.9-0.3-2.5-1S76.5,9,76.5,7.9c0-0.7,0.1-1.3,0.4-1.9s0.6-0.9,1.1-1.2
				c0.5-0.3,1.1-0.4,1.9-0.4c1.1,0,2,0.3,2.5,1C83,6,83.3,6.9,83.3,7.9c0,0.7-0.1,1.3-0.4,1.8c-0.3,0.5-0.6,0.9-1.1,1.2
				C81.3,11.3,80.7,11.5,79.9,11.5z M79.9,10.1c0.4,0,0.8-0.1,1.1-0.3c0.3-0.2,0.5-0.4,0.7-0.8c0.1-0.3,0.2-0.7,0.2-1.1
				c0-0.4-0.1-0.8-0.2-1.1S81.3,6.2,81,6.1c-0.3-0.2-0.7-0.3-1.1-0.3c-0.6,0-1.1,0.2-1.5,0.6c-0.3,0.4-0.5,0.9-0.5,1.6
				c0,0.4,0.1,0.7,0.2,1.1c0.1,0.3,0.4,0.6,0.7,0.8C79.1,10,79.4,10.1,79.9,10.1z"/>
			<path class="st1" d="M85.8,11.3h-1.5V4.5h2.8c0.8,0,1.4,0.2,1.8,0.6s0.6,1,0.6,1.7c0,0.7-0.2,1.2-0.7,1.6S87.8,9,87.1,9h-1.3
				V11.3z M86.9,5.7h-1.1V8h1.1c0.4,0,0.7-0.1,1-0.3c0.3-0.2,0.4-0.5,0.4-0.8c0-0.4-0.1-0.7-0.4-0.9C87.6,5.8,87.3,5.7,86.9,5.7z"/>
			<path class="st1" d="M93.4,11.5c-1,0-1.7-0.3-2.2-0.8c-0.5-0.5-0.8-1.3-0.8-2.2V4.5h1.5v3.9c0,0.5,0.1,0.8,0.2,1.1
				c0.2,0.2,0.3,0.4,0.6,0.5c0.2,0.1,0.4,0.1,0.6,0.1c0.2,0,0.5,0,0.7-0.1c0.2-0.1,0.4-0.2,0.6-0.5s0.2-0.6,0.2-1.1V4.5h1.5v3.9
				c0,1-0.3,1.7-0.8,2.3C95.1,11.2,94.4,11.5,93.4,11.5z"/>
			<path class="st1" d="M97.7,11.3V4.5h1.5v5.5h3.1v1.2H97.7z"/>
		</g>
		<g class="st0">
			<path class="st1" d="M103.1,11.3l2.1-6.8h2.4l2.1,6.8h-1.5l-0.5-1.8h-2.4l-0.5,1.8H103.1z M106.4,5.1l-0.9,3.2h1.8L106.4,5.1z"/>
		</g>
		<g class="st0">
			<path class="st1" d="M110,5.8V4.5h5.3v1.2h-1.9v5.5h-1.5V5.8H110z"/>
			<path class="st1" d="M119.5,10.1v1.2h-3.2v-1.2h0.9V5.8h-0.9V4.5h3.2v1.2h-0.9v4.3H119.5z"/>
			<path class="st1" d="M123.9,11.5c-1.1,0-1.9-0.3-2.5-1s-0.9-1.5-0.9-2.6c0-0.7,0.1-1.3,0.4-1.9s0.6-0.9,1.1-1.2
				c0.5-0.3,1.1-0.4,1.9-0.4c1.1,0,2,0.3,2.5,1c0.6,0.6,0.9,1.5,0.9,2.6c0,0.7-0.1,1.3-0.4,1.8c-0.3,0.5-0.6,0.9-1.1,1.2
				C125.2,11.3,124.6,11.5,123.9,11.5z M123.9,10.1c0.4,0,0.8-0.1,1.1-0.3c0.3-0.2,0.5-0.4,0.7-0.8c0.1-0.3,0.2-0.7,0.2-1.1
				c0-0.4-0.1-0.8-0.2-1.1c-0.1-0.3-0.4-0.6-0.7-0.8c-0.3-0.2-0.7-0.3-1.1-0.3c-0.6,0-1.1,0.2-1.5,0.6s-0.5,0.9-0.5,1.6
				c0,0.4,0.1,0.7,0.2,1.1s0.4,0.6,0.7,0.8C123,10,123.4,10.1,123.9,10.1z"/>
			<path class="st1" d="M132.9,4.5h1.5v6.8h-2.8l-1.8-6.1h0v6.1h-1.5V4.5h2.6l2,6.1h0V4.5z"/>
			<path class="st1" d="M136.6,8.3c-0.3,0-0.5-0.1-0.7-0.2s-0.2-0.4-0.2-0.6c0-0.2,0.1-0.4,0.2-0.6s0.3-0.2,0.7-0.2
				c0.3,0,0.5,0.1,0.6,0.2c0.1,0.2,0.2,0.4,0.2,0.6c0,0.2-0.1,0.4-0.2,0.6C137.1,8.2,136.9,8.3,136.6,8.3z M136.6,11
				c-0.3,0-0.6-0.1-0.7-0.2s-0.2-0.4-0.2-0.6c0-0.2,0.1-0.4,0.2-0.6s0.3-0.2,0.7-0.2c0.3,0,0.5,0.1,0.6,0.2c0.1,0.2,0.2,0.3,0.2,0.6
				c0,0.2-0.1,0.4-0.2,0.6C137.1,10.9,136.9,11,136.6,11z"/>
		</g>
		<g>
			<polygon class="st1" points="145,44 141.1,44 141.1,43 144,43 144,41.2 145.8,41.2 145.8,25.7 147.5,25.7 147.5,23.9 149.2,23.9 
				149.2,22.2 151,22.2 151,21.5 149.2,21.5 149.2,19.7 147.5,19.7 147.5,18 145.8,18 145.8,4.2 144,4.2 144,2.4 141.1,2.4 
				141.1,1.4 145,1.4 145,3.2 146.8,3.2 146.8,17 148.5,17 148.5,18.7 150.2,18.7 150.2,20.5 152,20.5 152,23.2 150.2,23.2 
				150.2,24.9 148.5,24.9 148.5,26.7 146.8,26.7 146.8,42.2 145,42.2 			"/>
		</g>
		<g>
			<polygon class="st1" points="66.6,42.5 62.6,42.5 62.6,40.8 60.8,40.8 60.8,27 59.1,27 59.1,25.2 57.4,25.2 57.4,23.5 55.7,23.5 
				55.7,20.8 57.4,20.8 57.4,19 59.1,19 59.1,17.3 60.8,17.3 60.8,1.7 62.6,1.7 62.6,0 66.6,0 66.6,1 63.6,1 63.6,2.7 61.8,2.7 
				61.8,18.3 60.1,18.3 60.1,20 58.4,20 58.4,21.8 56.7,21.8 56.7,22.5 58.4,22.5 58.4,24.2 60.1,24.2 60.1,26 61.8,26 61.8,39.8 
				63.6,39.8 63.6,41.5 66.6,41.5 			"/>
		</g>
		<g>
			<circle class="st2" cx="103.8" cy="173.3" r="103.8"/>
		</g>
		<g>
			<path class="st1" d="M103.8,173.3l-0.3-103.8h0.3c56.9,0,103.8,46.8,103.8,103.8s-46.9,103.8-103.8,103.8c-13,0-25.9-2.4-38-7.2
				L103.8,173.3z"/>
		</g>
		<g class="st0">
			<path class="st3" d="M31.1,150.7v-1.4c0.5-0.2,0.9-0.5,1.2-0.8c0.4-0.4,0.7-0.8,0.9-1.2c0.2-0.4,0.4-0.9,0.5-1.4
				c0.1-0.5,0.2-0.9,0.2-1.3h1.7c0,0.5-0.1,1.1-0.4,1.7c-0.2,0.6-0.6,1.1-1,1.7c-0.4,0.5-1,1-1.6,1.4h2.1v-1h1.6v1h0.9v1.4h-0.9v1.4
				h-1.6v-1.4H31.1z"/>
			<path class="st3" d="M38.4,152.1v-1.3c0,0,0.1-0.1,0.3-0.2c0.2-0.1,0.5-0.2,0.8-0.4s0.7-0.4,1.1-0.6c0.4-0.2,0.7-0.5,1-0.8
				c0.3-0.3,0.6-0.6,0.7-1c0.2-0.4,0.2-0.7,0.2-1s-0.2-0.5-0.5-0.7c-0.2-0.2-0.5-0.2-0.8-0.2c-0.5,0-0.8,0.2-1.1,0.5
				c-0.3,0.3-0.3,0.8-0.2,1.5l-1.5-0.2c-0.1-0.7,0-1.2,0.2-1.7c0.2-0.5,0.6-0.8,1.1-1.1c0.5-0.2,1-0.4,1.6-0.4
				c0.5,0,0.9,0.1,1.3,0.3c0.4,0.2,0.7,0.4,1,0.7c0.2,0.3,0.4,0.7,0.4,1.1s-0.1,0.8-0.3,1.3c-0.2,0.4-0.4,0.7-0.7,1
				c-0.3,0.3-0.6,0.5-0.9,0.8c-0.3,0.2-0.7,0.4-1,0.6c-0.3,0.2-0.6,0.3-0.8,0.4c-0.2,0.1-0.4,0.1-0.5,0.2h4.3v1.4H38.4z"/>
			<path class="st3" d="M46.3,152.1c-0.4,0-0.6-0.1-0.7-0.3c-0.1-0.2-0.2-0.4-0.2-0.7c0-0.2,0.1-0.4,0.2-0.6s0.4-0.3,0.7-0.3
				c0.4,0,0.6,0.1,0.7,0.3s0.2,0.4,0.2,0.6c0,0.3-0.1,0.5-0.2,0.7S46.6,152.1,46.3,152.1z"/>
			<path class="st3" d="M52.6,150.7v1.4h-3.8v-1.4H50v-4.3c-0.1,0.3-0.2,0.6-0.3,0.8c-0.2,0.2-0.3,0.3-0.5,0.4s-0.3,0.1-0.5,0.1
				c-0.1,0-0.2,0-0.3,0V146c0.1,0,0.2,0,0.4,0c0.2,0,0.4-0.1,0.6-0.1c0.2-0.1,0.4-0.2,0.6-0.4c0.2-0.2,0.3-0.5,0.3-0.8h1.4v6.1H52.6
				z"/>
			<path class="st3" d="M57,152.2c-0.7,0-1.3-0.2-1.8-0.5c-0.5-0.3-0.8-0.8-1.1-1.4c-0.2-0.6-0.4-1.2-0.4-1.9c0-0.5,0.1-1,0.2-1.5
				c0.1-0.5,0.4-0.9,0.7-1.3c0.3-0.4,0.6-0.7,1.1-0.9c0.4-0.2,0.9-0.3,1.4-0.3c0.5,0,0.9,0.1,1.2,0.2c0.3,0.1,0.6,0.3,0.8,0.4
				c0.2,0.2,0.4,0.4,0.5,0.5c0.1,0.2,0.2,0.4,0.3,0.6l-1.6,0.3c-0.1-0.2-0.3-0.4-0.5-0.5c-0.2-0.1-0.4-0.2-0.8-0.2
				c-0.2,0-0.4,0-0.6,0.1c-0.2,0.1-0.4,0.2-0.6,0.5s-0.3,0.5-0.4,0.9c-0.1,0.4-0.1,0.9-0.1,1.4c0-0.1,0-0.2,0.1-0.3
				c0.1-0.2,0.2-0.3,0.4-0.5c0.2-0.2,0.4-0.3,0.7-0.5c0.3-0.1,0.6-0.2,1-0.2c0.6,0,1.1,0.1,1.5,0.4s0.6,0.5,0.8,0.9
				c0.2,0.4,0.2,0.8,0.2,1.2c0,0.4-0.2,0.8-0.4,1.2c-0.2,0.4-0.6,0.7-1,0.9C58.1,152.1,57.6,152.2,57,152.2z M57.1,150.9
				c0.4,0,0.7-0.1,0.9-0.3c0.2-0.2,0.4-0.4,0.5-0.6c0.1-0.3,0.1-0.5,0-0.8s-0.2-0.5-0.4-0.7c-0.2-0.2-0.5-0.3-0.9-0.3
				c-0.3,0-0.6,0.1-0.9,0.2s-0.4,0.3-0.6,0.6c-0.1,0.2-0.2,0.5-0.2,0.8c0.1,0.4,0.3,0.6,0.6,0.8C56.4,150.8,56.8,150.9,57.1,150.9z"
				/>
			<path class="st3" d="M62.4,147.6c-0.5,0-0.9-0.1-1.1-0.4c-0.2-0.3-0.4-0.7-0.4-1.1c0-0.5,0.1-0.9,0.3-1.2
				c0.2-0.3,0.6-0.4,1.1-0.4c0.5,0,0.9,0.1,1.1,0.4c0.2,0.3,0.4,0.7,0.4,1.2c0,0.5-0.1,0.8-0.4,1.1C63.3,147.5,63,147.6,62.4,147.6z
				 M62.5,152.1l-1.1-0.8l3.2-3.3l2.5-3.5l1.1,0.8l-3.1,3.1L62.5,152.1z M62.4,146.6c0.2,0,0.3-0.1,0.4-0.2c0.1-0.1,0.1-0.2,0.1-0.4
				s0-0.3-0.1-0.4s-0.2-0.2-0.4-0.2c-0.2,0-0.3,0.1-0.4,0.2s-0.1,0.3-0.1,0.4s0,0.3,0.1,0.4C62.1,146.6,62.2,146.6,62.4,146.6z
				 M67.1,152.2c-0.5,0-0.9-0.1-1.1-0.4c-0.2-0.3-0.4-0.7-0.4-1.2c0-0.5,0.1-0.8,0.3-1.1c0.2-0.3,0.6-0.4,1.1-0.4s0.9,0.1,1.1,0.4
				c0.2,0.3,0.4,0.7,0.4,1.1c0,0.5-0.1,0.9-0.4,1.1C68,152.1,67.6,152.2,67.1,152.2z M67,151.2c0.2,0,0.3-0.1,0.4-0.2
				c0.1-0.1,0.1-0.3,0.1-0.4s0-0.3-0.1-0.4c-0.1-0.1-0.2-0.2-0.4-0.2c-0.2,0-0.3,0.1-0.4,0.2c-0.1,0.1-0.1,0.3-0.1,0.4
				s0,0.3,0.1,0.4C66.7,151.2,66.8,151.2,67,151.2z"/>
		</g>
		<g class="st0">
		</g>
		<g class="st0">
			<path class="st3" d="M19.8,167.2v-7.5h1.9l2.1,7h0l2.1-7h1.9v7.5h-1.1l0.1-7h0l-2.1,7H23l-2.1-7h0l0.1,7H19.8z"/>
			<path class="st3" d="M32.5,167.4c-1,0-1.8-0.3-2.4-0.9c-0.5-0.6-0.8-1.4-0.8-2.5v-4.3h1.2v4.3c0,0.6,0.1,1,0.3,1.4
				s0.4,0.6,0.7,0.7c0.3,0.1,0.6,0.2,1,0.2c0.4,0,0.8-0.1,1.1-0.2c0.3-0.1,0.5-0.4,0.7-0.7c0.2-0.3,0.3-0.8,0.3-1.4v-4.3h1.2v4.3
				c0,1.1-0.3,1.9-0.8,2.5C34.3,167.1,33.5,167.4,32.5,167.4z"/>
			<path class="st3" d="M42.3,159.7h1.1v7.5h-2.1l-3.1-7h0v7h-1.1v-7.5h2l3.3,7h0V159.7z"/>
			<path class="st3" d="M48.2,166.3v1H45v-1h1v-5.6h-1v-1h3.1v1h-1v5.6H48.2z"/>
			<path class="st3" d="M53,167.3c-0.7,0-1.3-0.1-1.9-0.4c-0.6-0.3-1-0.7-1.3-1.3s-0.5-1.3-0.5-2.1c0-0.8,0.2-1.6,0.5-2.1
				c0.3-0.6,0.8-1,1.3-1.3c0.6-0.3,1.2-0.4,1.9-0.4c1,0,1.7,0.3,2.3,0.8c0.6,0.5,1,1.2,1.1,2h-1.1c-0.1-0.4-0.2-0.8-0.5-1
				c-0.2-0.3-0.5-0.4-0.8-0.6s-0.7-0.2-1-0.2c-0.8,0-1.5,0.2-2,0.7s-0.7,1.2-0.7,2.1c0,0.9,0.2,1.7,0.7,2.1s1.1,0.7,1.9,0.7
				c0.6,0,1.1-0.1,1.5-0.4c0.5-0.3,0.7-0.7,0.8-1.4h1.2c-0.2,0.8-0.5,1.5-1.1,2S54,167.3,53,167.3z"/>
			<path class="st3" d="M60.9,166.3v1h-3.1v-1h1v-5.6h-1v-1h3.1v1h-1v5.6H60.9z"/>
		</g>
		<g class="st0">
			<path class="st3" d="M63.7,167.2h-1.1v-7.5h2.9c0.8,0,1.5,0.2,1.9,0.6c0.5,0.4,0.7,1,0.7,1.8c0,0.7-0.2,1.3-0.7,1.7
				s-1.1,0.6-1.9,0.6h-1.8V167.2z M65.4,160.6h-1.7v3h1.7c0.5,0,0.9-0.1,1.3-0.4c0.3-0.2,0.5-0.6,0.5-1.1c0-0.5-0.2-0.9-0.5-1.1
				C66.3,160.8,65.9,160.6,65.4,160.6z"/>
		</g>
		<g class="st0">
			<path class="st3" d="M68.5,167.2l2.5-7.5h1.8l2.6,7.5h-1.2l-0.7-2.2h-3.1l-0.7,2.2H68.5z M71.9,160.2l-1.3,3.9h2.5L71.9,160.2z"
				/>
			<path class="st3" d="M76.4,167.2v-7.5h1.1v6.5h3.9v1H76.4z"/>
		</g>
		<g class="st0">
			<path class="st3" d="M34.8,182.4c-0.7,0-1.3-0.1-1.9-0.4c-0.6-0.3-1-0.7-1.3-1.3s-0.5-1.3-0.5-2.1c0-0.8,0.2-1.6,0.5-2.1
				c0.3-0.6,0.8-1,1.3-1.3c0.6-0.3,1.2-0.4,1.9-0.4c1,0,1.7,0.3,2.3,0.8c0.6,0.5,1,1.2,1.1,2h-1.1c-0.1-0.4-0.2-0.8-0.5-1
				c-0.2-0.3-0.5-0.4-0.8-0.6s-0.7-0.2-1-0.2c-0.8,0-1.5,0.2-2,0.7s-0.7,1.2-0.7,2.1c0,0.9,0.2,1.7,0.7,2.1s1.1,0.7,1.9,0.7
				c0.6,0,1.1-0.1,1.5-0.4c0.5-0.3,0.7-0.7,0.8-1.4h1.2c-0.2,0.8-0.5,1.5-1.1,2S35.8,182.4,34.8,182.4z"/>
			<path class="st3" d="M40.5,181.4h4.2v0.9h-5.3v-7.5h5.2v1h-4.1v2.3h3.2v0.9h-3.2V181.4z"/>
			<path class="st3" d="M51.2,174.8h1.1v7.5h-2.1l-3.1-7h0v7H46v-7.5h2l3.3,7h0V174.8z"/>
		</g>
		<g class="st0">
			<path class="st3" d="M53.3,175.8v-1H59v1h-2.3v6.5h-1.1v-6.5H53.3z"/>
		</g>
		<g class="st0">
			<path class="st3" d="M60.1,182.3v-7.5h2.6c1,0,1.7,0.2,2.2,0.5s0.8,0.9,0.8,1.7c0,0.6-0.1,1-0.4,1.4c-0.3,0.4-0.7,0.6-1.3,0.6
				c0.3,0,0.6,0.1,0.8,0.2c0.2,0.2,0.3,0.3,0.3,0.6c0.1,0.2,0.1,0.5,0.1,0.7c0,0.2,0,0.5,0.1,0.7c0,0.2,0.1,0.3,0.2,0.4
				c0.1,0.1,0.3,0.1,0.5,0v0.7c-0.1,0.1-0.3,0.2-0.5,0.2s-0.4,0-0.6,0c-0.2-0.1-0.4-0.2-0.5-0.4c-0.1-0.2-0.2-0.5-0.2-0.9
				c0-0.5,0-0.8-0.1-1.1s-0.2-0.5-0.4-0.6s-0.5-0.2-0.9-0.2c-0.4,0-1,0-1.7,0v3.2H60.1z M61.3,178.3h1.5c0.5,0,0.8,0,1.1-0.1
				c0.3-0.1,0.5-0.2,0.7-0.4c0.1-0.2,0.2-0.4,0.2-0.8c0-0.4-0.1-0.7-0.3-0.9c-0.2-0.2-0.4-0.3-0.8-0.4s-0.8-0.1-1.2-0.1h-1.2V178.3z
				"/>
			<path class="st3" d="M68.4,181.4h4.2v0.9h-5.3v-7.5h5.2v1h-4.1v2.3h3.2v0.9h-3.2V181.4z"/>
		</g>
		<g class="st0">
			<path class="st3" d="M119.6,184.5c-0.6,0-1.2-0.1-1.6-0.3c-0.4-0.2-0.7-0.5-1-0.8c-0.2-0.3-0.4-0.7-0.4-1l1.6-0.2
				c0,0.1,0.1,0.2,0.2,0.4c0.1,0.2,0.2,0.3,0.5,0.5c0.2,0.1,0.5,0.2,0.8,0.2c0.4,0,0.8-0.1,1-0.4c0.2-0.3,0.4-0.5,0.4-0.8
				c0-0.2,0-0.5-0.1-0.7c-0.1-0.2-0.2-0.4-0.5-0.5c-0.2-0.1-0.5-0.2-0.8-0.2c-0.3,0-0.5,0.1-0.7,0.2c-0.2,0.1-0.3,0.2-0.4,0.3
				c-0.1,0.1-0.1,0.2-0.1,0.2l-1.7-0.3l0.4-4h5v1.4h-3.9l-0.2,2.2c0.1-0.2,0.3-0.4,0.5-0.5c0.2-0.1,0.4-0.3,0.6-0.4
				c0.3-0.1,0.6-0.2,0.9-0.2c0.6,0,1.1,0.1,1.4,0.4c0.4,0.2,0.6,0.6,0.8,0.9c0.2,0.4,0.2,0.8,0.2,1.2c0,0.4-0.2,0.8-0.4,1.2
				c-0.3,0.4-0.6,0.7-1,1C120.8,184.4,120.2,184.5,119.6,184.5z"/>
			<path class="st3" d="M126.2,184.4h-1.6c0-1,0.2-1.9,0.5-2.7s0.8-1.5,1.3-2.1c0.5-0.6,1.2-1,1.8-1.3h-4.4v-1.4h5.9v1.4
				c-0.2,0.1-0.5,0.2-0.8,0.4c-0.3,0.2-0.6,0.4-0.9,0.7c-0.3,0.3-0.6,0.7-0.9,1.1c-0.3,0.5-0.5,1-0.7,1.6
				C126.3,182.8,126.2,183.6,126.2,184.4z"/>
			<path class="st3" d="M131.6,184.4c-0.4,0-0.6-0.1-0.7-0.3c-0.1-0.2-0.2-0.4-0.2-0.7c0-0.2,0.1-0.4,0.2-0.6
				c0.1-0.2,0.4-0.3,0.7-0.3c0.4,0,0.6,0.1,0.7,0.3s0.2,0.4,0.2,0.6c0,0.3-0.1,0.5-0.2,0.7S132,184.4,131.6,184.4z"/>
			<path class="st3" d="M137,184.5c-0.6,0-1.2-0.1-1.7-0.3c-0.5-0.2-0.9-0.4-1.2-0.8c-0.3-0.3-0.4-0.7-0.4-1.2
				c0-0.5,0.2-0.9,0.5-1.3c0.3-0.4,0.8-0.6,1.4-0.6c-0.4-0.1-0.7-0.2-1-0.4c-0.2-0.2-0.4-0.4-0.4-0.7s-0.1-0.4-0.1-0.6
				c0-0.4,0.1-0.7,0.4-1c0.2-0.3,0.6-0.5,1-0.7c0.4-0.2,0.9-0.3,1.5-0.3c0.9,0,1.6,0.2,2.1,0.6c0.5,0.4,0.8,0.9,0.8,1.4
				c0,0.2,0,0.3-0.1,0.6s-0.2,0.4-0.4,0.7c-0.2,0.2-0.5,0.3-1,0.4c0.6,0.1,1.1,0.3,1.4,0.6c0.3,0.3,0.5,0.8,0.5,1.3
				c0,0.5-0.1,0.9-0.4,1.2c-0.3,0.3-0.7,0.6-1.2,0.7S137.7,184.5,137,184.5z M137,183.3c0.5,0,0.9-0.1,1.2-0.3s0.5-0.5,0.5-0.9
				c0-0.4-0.2-0.8-0.5-1c-0.3-0.2-0.7-0.3-1.2-0.3c-0.5,0-0.9,0.1-1.2,0.3c-0.3,0.2-0.5,0.5-0.5,1c0,0.4,0.2,0.7,0.5,0.9
				C136.1,183.2,136.5,183.3,137,183.3z M137,180.1c0.4,0,0.8-0.1,1-0.3c0.3-0.2,0.4-0.4,0.4-0.7c0-0.4-0.1-0.6-0.4-0.8
				c-0.3-0.2-0.6-0.3-1-0.3c-0.4,0-0.8,0.1-1,0.3s-0.4,0.5-0.4,0.8c0,0.3,0.1,0.6,0.4,0.7C136.3,180,136.6,180.1,137,180.1z"/>
			<path class="st3" d="M141.3,183v-1.4c0.5-0.2,0.9-0.5,1.2-0.8c0.4-0.4,0.7-0.8,0.9-1.2s0.4-0.9,0.5-1.4s0.2-0.9,0.2-1.3h1.7
				c0,0.5-0.1,1.1-0.4,1.7c-0.2,0.6-0.6,1.1-1,1.7c-0.4,0.5-1,1-1.6,1.4h2.1v-1h1.6v1h0.9v1.4h-0.9v1.4H145V183H141.3z"/>
			<path class="st3" d="M149.9,179.9c-0.5,0-0.9-0.1-1.1-0.4c-0.2-0.3-0.4-0.7-0.4-1.1c0-0.5,0.1-0.9,0.3-1.2s0.6-0.4,1.1-0.4
				c0.5,0,0.9,0.1,1.1,0.4s0.4,0.7,0.4,1.2c0,0.5-0.1,0.8-0.4,1.1S150.4,179.9,149.9,179.9z M149.9,184.4l-1.1-0.8l3.2-3.3l2.5-3.5
				l1.1,0.8l-3.1,3.1L149.9,184.4z M149.8,178.9c0.2,0,0.3-0.1,0.4-0.2c0.1-0.1,0.1-0.2,0.1-0.4s0-0.3-0.1-0.4
				c-0.1-0.1-0.2-0.2-0.4-0.2c-0.2,0-0.3,0.1-0.4,0.2c-0.1,0.1-0.1,0.3-0.1,0.4s0,0.3,0.1,0.4C149.5,178.9,149.6,178.9,149.8,178.9z
				 M154.5,184.5c-0.5,0-0.9-0.1-1.1-0.4c-0.2-0.3-0.4-0.7-0.4-1.2c0-0.5,0.1-0.8,0.3-1.1c0.2-0.3,0.6-0.4,1.1-0.4s0.9,0.1,1.1,0.4
				c0.2,0.3,0.4,0.7,0.4,1.1c0,0.5-0.1,0.9-0.4,1.1C155.4,184.4,155,184.5,154.5,184.5z M154.4,183.5c0.2,0,0.3-0.1,0.4-0.2
				c0.1-0.1,0.1-0.3,0.1-0.4s0-0.3-0.1-0.4c-0.1-0.1-0.2-0.2-0.4-0.2c-0.2,0-0.3,0.1-0.4,0.2c-0.1,0.1-0.1,0.3-0.1,0.4
				s0,0.3,0.1,0.4C154.1,183.5,154.3,183.5,154.4,183.5z"/>
		</g>
		<g class="st0">
		</g>
		<g class="st0">
			<path class="st3" d="M105.2,199.5V192h2.6c1,0,1.7,0.2,2.2,0.5c0.5,0.3,0.8,0.9,0.8,1.7c0,0.6-0.1,1-0.4,1.4
				c-0.3,0.4-0.7,0.6-1.3,0.6c0.3,0,0.6,0.1,0.8,0.2c0.2,0.2,0.3,0.3,0.3,0.6c0.1,0.2,0.1,0.5,0.1,0.7c0,0.2,0,0.5,0.1,0.7
				c0,0.2,0.1,0.3,0.2,0.4s0.3,0.1,0.5,0v0.7c-0.1,0.1-0.3,0.2-0.5,0.2s-0.4,0-0.6,0c-0.2-0.1-0.4-0.2-0.5-0.4
				c-0.1-0.2-0.2-0.5-0.2-0.9c0-0.5,0-0.8-0.1-1.1c-0.1-0.3-0.2-0.5-0.4-0.6c-0.2-0.1-0.5-0.2-0.9-0.2c-0.4,0-1,0-1.7,0v3.2H105.2z
				 M106.3,195.5h1.5c0.5,0,0.8,0,1.1-0.1s0.5-0.2,0.7-0.4c0.1-0.2,0.2-0.4,0.2-0.8c0-0.4-0.1-0.7-0.3-0.9c-0.2-0.2-0.4-0.3-0.8-0.4
				s-0.8-0.1-1.2-0.1h-1.2V195.5z"/>
			<path class="st3" d="M113.4,198.6h4.2v0.9h-5.3V192h5.2v1h-4.1v2.3h3.2v0.9h-3.2V198.6z"/>
			<path class="st3" d="M121.8,199.7c-0.5,0-1.1-0.1-1.6-0.3c-0.5-0.2-0.9-0.4-1.2-0.8s-0.5-0.9-0.5-1.5h1.1c0,0,0,0.1,0,0.3
				c0,0.2,0.1,0.3,0.3,0.5c0.1,0.2,0.4,0.4,0.7,0.5c0.3,0.1,0.7,0.2,1.3,0.2c0.4,0,0.8-0.1,1-0.2c0.3-0.1,0.4-0.3,0.5-0.4
				c0.1-0.2,0.2-0.3,0.2-0.5c0-0.3-0.1-0.5-0.3-0.7c-0.2-0.2-0.4-0.3-0.7-0.4c-0.3-0.1-0.6-0.2-1-0.3s-0.7-0.2-1-0.3
				c-0.3-0.1-0.7-0.2-1-0.4c-0.3-0.2-0.5-0.4-0.7-0.7c-0.2-0.3-0.2-0.6-0.2-1c0-0.6,0.3-1.1,0.9-1.4c0.6-0.3,1.3-0.5,2.1-0.5
				c0.5,0,1,0.1,1.4,0.3c0.4,0.2,0.8,0.5,1.1,0.8s0.4,0.8,0.4,1.4h-1.1c0-0.3-0.1-0.6-0.2-0.8s-0.3-0.3-0.5-0.4
				c-0.2-0.1-0.4-0.2-0.6-0.2c-0.2,0-0.4-0.1-0.6-0.1c-0.5,0-0.9,0.1-1.2,0.3c-0.3,0.2-0.5,0.4-0.5,0.8c0,0.3,0.1,0.5,0.3,0.7
				s0.4,0.3,0.7,0.4s0.6,0.2,1,0.3c0.3,0.1,0.7,0.2,1,0.3s0.7,0.2,1,0.4s0.5,0.4,0.7,0.7c0.2,0.3,0.2,0.6,0.2,1.1
				c0,0.4-0.2,0.8-0.4,1.1s-0.6,0.5-1.1,0.7C122.8,199.6,122.3,199.7,121.8,199.7z"/>
			<path class="st3" d="M125.4,193v-1h5.7v1h-2.3v6.5h-1.1V193H125.4z"/>
			<path class="st3" d="M138.3,199.7c-1.2,0-2.1-0.3-2.7-1c-0.6-0.7-0.9-1.6-0.9-2.8c0-0.8,0.1-1.5,0.4-2.1c0.3-0.6,0.7-1,1.2-1.4
				c0.5-0.3,1.2-0.5,2.1-0.5c1.2,0,2.1,0.4,2.7,1.1c0.6,0.7,0.9,1.6,0.9,2.8c0,0.8-0.1,1.5-0.4,2s-0.7,1-1.2,1.4
				C139.8,199.5,139.1,199.7,138.3,199.7z M138.3,198.6c0.9,0,1.5-0.3,1.9-0.8s0.7-1.2,0.7-2c0-0.8-0.2-1.5-0.6-2.1
				c-0.4-0.5-1.1-0.8-1.9-0.8c-0.8,0-1.5,0.3-1.9,0.8c-0.4,0.5-0.7,1.2-0.7,2.1c0,0.5,0.1,1,0.3,1.5c0.2,0.4,0.5,0.8,0.9,1
				C137.3,198.5,137.7,198.6,138.3,198.6z"/>
			<path class="st3" d="M144.5,199.5h-1.1V192h5.2v1h-4.2v2.1h3.2v0.9h-3.2V199.5z"/>
			<path class="st3" d="M152,193v-1h5.7v1h-2.3v6.5h-1.1V193H152z"/>
			<path class="st3" d="M159.8,199.5h-1.1V192h1.1v3.2h3.9V192h1.1v7.5h-1.1v-3.4h-3.9V199.5z"/>
			<path class="st3" d="M167.5,198.6h4.2v0.9h-5.3V192h5.2v1h-4.1v2.3h3.2v0.9h-3.2V198.6z"/>
		</g>
		<g class="st0">
			<path class="st3" d="M108.9,208.1v-1h5.7v1h-2.3v6.5h-1.1v-6.5H108.9z"/>
		</g>
		<g class="st0">
			<path class="st3" d="M116.8,213.7h4.2v0.9h-5.3v-7.5h5.2v1h-4.1v2.3h3.2v0.9h-3.2V213.7z"/>
			<path class="st3" d="M122.2,214.6v-7.5h2.6c1,0,1.7,0.2,2.2,0.5c0.5,0.3,0.8,0.9,0.8,1.7c0,0.6-0.1,1-0.4,1.4
				c-0.3,0.4-0.7,0.6-1.3,0.6c0.3,0,0.6,0.1,0.8,0.2c0.2,0.2,0.3,0.3,0.3,0.6c0.1,0.2,0.1,0.5,0.1,0.7c0,0.2,0,0.5,0.1,0.7
				c0,0.2,0.1,0.3,0.2,0.4s0.3,0.1,0.5,0v0.7c-0.1,0.1-0.3,0.2-0.5,0.2s-0.4,0-0.6,0c-0.2-0.1-0.4-0.2-0.5-0.4
				c-0.1-0.2-0.2-0.5-0.2-0.9c0-0.5,0-0.8-0.1-1.1c-0.1-0.3-0.2-0.5-0.4-0.6c-0.2-0.1-0.5-0.2-0.9-0.2c-0.4,0-1,0-1.7,0v3.2H122.2z
				 M123.4,210.6h1.5c0.5,0,0.8,0,1.1-0.1s0.5-0.2,0.7-0.4c0.1-0.2,0.2-0.4,0.2-0.8c0-0.4-0.1-0.7-0.3-0.9c-0.2-0.2-0.4-0.3-0.8-0.4
				s-0.8-0.1-1.2-0.1h-1.2V210.6z"/>
			<path class="st3" d="M129.5,214.6v-7.5h2.6c1,0,1.7,0.2,2.2,0.5c0.5,0.3,0.8,0.9,0.8,1.7c0,0.6-0.1,1-0.4,1.4
				c-0.3,0.4-0.7,0.6-1.3,0.6c0.3,0,0.6,0.1,0.8,0.2c0.2,0.2,0.3,0.3,0.3,0.6c0.1,0.2,0.1,0.5,0.1,0.7c0,0.2,0,0.5,0.1,0.7
				c0,0.2,0.1,0.3,0.2,0.4c0.1,0.1,0.3,0.1,0.5,0v0.7c-0.1,0.1-0.3,0.2-0.5,0.2s-0.4,0-0.6,0c-0.2-0.1-0.4-0.2-0.5-0.4
				c-0.1-0.2-0.2-0.5-0.2-0.9c0-0.5,0-0.8-0.1-1.1c-0.1-0.3-0.2-0.5-0.4-0.6c-0.2-0.1-0.5-0.2-0.9-0.2s-1,0-1.7,0v3.2H129.5z
				 M130.6,210.6h1.5c0.5,0,0.8,0,1.1-0.1c0.3-0.1,0.5-0.2,0.7-0.4c0.1-0.2,0.2-0.4,0.2-0.8c0-0.4-0.1-0.7-0.3-0.9
				c-0.2-0.2-0.4-0.3-0.8-0.4s-0.8-0.1-1.2-0.1h-1.2V210.6z"/>
			<path class="st3" d="M139.8,213.7v1h-3.1v-1h1v-5.6h-1v-1h3.1v1h-1v5.6H139.8z"/>
			<path class="st3" d="M140.8,208.1v-1h5.7v1h-2.3v6.5h-1.1v-6.5H140.8z"/>
			<path class="st3" d="M150.7,214.8c-1.2,0-2.1-0.3-2.7-1c-0.6-0.7-0.9-1.6-0.9-2.8c0-0.8,0.1-1.5,0.4-2.1c0.3-0.6,0.7-1,1.2-1.4
				c0.5-0.3,1.2-0.5,2.1-0.5c1.2,0,2.1,0.4,2.7,1.1s0.9,1.6,0.9,2.8c0,0.8-0.1,1.5-0.4,2c-0.3,0.6-0.7,1-1.2,1.4
				C152.1,214.6,151.5,214.8,150.7,214.8z M150.7,213.7c0.9,0,1.5-0.3,1.9-0.8s0.7-1.2,0.7-2c0-0.8-0.2-1.5-0.6-2.1
				c-0.4-0.5-1.1-0.8-1.9-0.8c-0.8,0-1.5,0.3-1.9,0.8c-0.4,0.5-0.7,1.2-0.7,2.1c0,0.5,0.1,1,0.3,1.5c0.2,0.4,0.5,0.8,0.9,1
				S150.1,213.7,150.7,213.7z"/>
			<path class="st3" d="M155.6,214.6v-7.5h2.6c1,0,1.7,0.2,2.2,0.5c0.5,0.3,0.8,0.9,0.8,1.7c0,0.6-0.1,1-0.4,1.4
				c-0.3,0.4-0.7,0.6-1.3,0.6c0.3,0,0.6,0.1,0.8,0.2c0.2,0.2,0.3,0.3,0.3,0.6c0.1,0.2,0.1,0.5,0.1,0.7c0,0.2,0,0.5,0.1,0.7
				c0,0.2,0.1,0.3,0.2,0.4s0.3,0.1,0.5,0v0.7c-0.1,0.1-0.3,0.2-0.5,0.2s-0.4,0-0.6,0c-0.2-0.1-0.4-0.2-0.5-0.4
				c-0.1-0.2-0.2-0.5-0.2-0.9c0-0.5,0-0.8-0.1-1.1c-0.1-0.3-0.2-0.5-0.4-0.6c-0.2-0.1-0.5-0.2-0.9-0.2c-0.4,0-1,0-1.7,0v3.2H155.6z
				 M156.7,210.6h1.5c0.5,0,0.8,0,1.1-0.1s0.5-0.2,0.7-0.4c0.1-0.2,0.2-0.4,0.2-0.8c0-0.4-0.1-0.7-0.3-0.9c-0.2-0.2-0.4-0.3-0.8-0.4
				s-0.8-0.1-1.2-0.1h-1.2V210.6z"/>
			<path class="st3" d="M164.3,214.6v-2.7l-2.5-4.8h1.2l1.9,3.8l1.9-3.8h1.2l-2.6,4.8v2.7H164.3z"/>
		</g>
	</g>
</g>
</svg>
