<svg xmlns="http://www.w3.org/2000/svg" viewBox="0 0 207.62 277.04"><defs><style>.cls-1,.cls-7,.cls-8{fill:#ff6656;}.cls-2{fill:#d13828;}.cls-3{font-size:13.28px;fill:#fff;}.cls-3,.cls-8{font-family:DarkerGrotesque-Black, Darker Grotesque;font-weight:800;}.cls-4,.cls-6{font-family:DarkerGrotesque-SemiBold, Darker Grotesque;font-weight:600;}.cls-5{letter-spacing:0.01em;}.cls-6{letter-spacing:0em;}.cls-7{font-size:25.93px;font-family:Terminal-Grotesque, Terminal Grotesque;}.cls-8{font-size:12px;}.cls-9{fill:none;stroke:#ff6656;stroke-miterlimit:10;}</style></defs><g id="Capa_2" data-name="Capa 2"><g id="Layer_1" data-name="Layer 1"><circle class="cls-1" cx="103.81" cy="173.23" r="103.8"/><path class="cls-2" d="M103.81,173.23l-.3-103.8h.3c56.94,0,103.8,46.86,103.8,103.8S160.75,277,103.81,277,0,230.18,0,173.23A103.85,103.85,0,0,1,31.66,98.6Z"/><text class="cls-3" transform="translate(67.73 94.41)">7.2%<tspan class="cls-4"><tspan x="-1.02" y="15.11">ÁREA</tspan><tspan x="-4.77" y="30.21">RU</tspan><tspan class="cls-5" x="10.23" y="30.21">R</tspan><tspan x="17.57" y="30.21">AL</tspan></tspan></text><text class="cls-3" transform="translate(85.16 211.17)">92.8%<tspan class="cls-6" x="34.28" y="0"> </tspan><tspan class="cls-4"><tspan x="4.44" y="15.11">ÁREA</tspan><tspan x="-3.79" y="30.21">URBANA</tspan></tspan></text><text class="cls-7" transform="translate(74.46 36.73)">115,711</text><text class="cls-8" transform="translate(72.64 11.29)">POBLACIÓN:</text><path class="cls-9" d="M141.07,43.47h3.46V41.74h1.74V26.16H148V24.43h1.73V22.69h1.73V21h-1.73V19.23H148V17.5h-1.73V3.65h-1.74V1.92h-3.46"/><path class="cls-9" d="M66.55.5H63.08V2.23H61.35V17.81H59.62v1.74H57.89v1.73H56.16V23h1.73v1.73h1.73v1.73h1.73V40.32h1.73v1.73h3.47"/></g></g></svg>