<svg xmlns="http://www.w3.org/2000/svg" viewBox="0 0 207.62 277.04"><defs><style>.fd80dfa1-825e-4b44-a049-cb5b082aad06{font-size:25.93px;font-family:Terminal-Grotesque, Terminal Grotesque;}.a3079e2c-0c0d-4534-88bd-601591f03654,.b72368e1-8be6-4063-9500-b3dd7bb9eebe,.fd80dfa1-825e-4b44-a049-cb5b082aad06{fill:#ff6656;}.b72368e1-8be6-4063-9500-b3dd7bb9eebe{font-size:12px;}.a80fc953-1034-4d0d-9d8f-39e75f43b339,.b72368e1-8be6-4063-9500-b3dd7bb9eebe{font-family:DarkerGrotesque-Black, Darker Grotesque;font-weight:800;}.b19136e4-8c30-4cb1-b9e9-11e992b33745{letter-spacing:-0.02em;}.ec91e978-20eb-4a29-aec3-d0b4614654aa{fill:none;stroke:#ff6656;stroke-miterlimit:10;}.f4f172e7-98cf-4da8-b7b8-c4fbdf4e41bd{fill:#d13828;}.a80fc953-1034-4d0d-9d8f-39e75f43b339{font-size:13.28px;fill:#fff;}.accdeb3e-320c-4a03-be91-168042923aa5,.e69e1b8c-17a2-478f-abcd-9f71db833330{font-family:DarkerGrotesque-SemiBold, Darker Grotesque;font-weight:600;}.bbc62bd2-c9cf-49e0-9f3c-c11c48dedbee{letter-spacing:0.01em;}.accdeb3e-320c-4a03-be91-168042923aa5{letter-spacing:0em;}</style></defs><g id="a782623c-6199-4632-a30e-4d20d362d050" data-name="Capa 2"><g id="f18b8377-aa8a-463d-9cf6-da582b823b72" data-name="Layer 1"><text class="fd80dfa1-825e-4b44-a049-cb5b082aad06" transform="translate(74.46 36.73)">115,711</text><text class="b72368e1-8be6-4063-9500-b3dd7bb9eebe" transform="translate(70.27 11.29)">POPUL<tspan class="b19136e4-8c30-4cb1-b9e9-11e992b33745" x="32.66" y="0">A</tspan><tspan x="39.58" y="0">TION:</tspan></text><path class="ec91e978-20eb-4a29-aec3-d0b4614654aa" d="M141.07,43.47h3.46V41.74h1.74V26.16H148V24.43h1.73V22.69h1.73V21h-1.73V19.23H148V17.5h-1.73V3.65h-1.74V1.92h-3.46"/><path class="ec91e978-20eb-4a29-aec3-d0b4614654aa" d="M66.55.5H63.08V2.23H61.35V17.81H59.62v1.74H57.89v1.73H56.16V23h1.73v1.73h1.73v1.73h1.73V40.32h1.73v1.73h3.47"/><circle class="a3079e2c-0c0d-4534-88bd-601591f03654" cx="103.81" cy="173.23" r="103.8"/><path class="f4f172e7-98cf-4da8-b7b8-c4fbdf4e41bd" d="M103.81,173.23l-.3-103.8h.3c56.94,0,103.8,46.86,103.8,103.8S160.75,277,103.81,277,0,230.18,0,173.23A103.85,103.85,0,0,1,31.66,98.6Z"/><text class="a80fc953-1034-4d0d-9d8f-39e75f43b339" transform="translate(67.73 94.41)">7.2%<tspan class="e69e1b8c-17a2-478f-abcd-9f71db833330"><tspan x="-4.77" y="15.11">RU</tspan><tspan class="bbc62bd2-c9cf-49e0-9f3c-c11c48dedbee" x="10.23" y="15.11">R</tspan><tspan x="17.57" y="15.11">AL</tspan><tspan x="-4.14" y="30.21">AREAL</tspan></tspan></text><text class="a80fc953-1034-4d0d-9d8f-39e75f43b339" transform="translate(85.16 211.17)">92.8%<tspan class="accdeb3e-320c-4a03-be91-168042923aa5" x="34.28" y="0"> </tspan><tspan class="e69e1b8c-17a2-478f-abcd-9f71db833330"><tspan x="-0.11" y="15.11">URBAN</tspan><tspan x="4.44" y="30.21">AREA</tspan></tspan></text></g></g></svg>