<?xml version="1.0" encoding="utf-8"?>
<!-- Generator: Adobe Illustrator 24.1.2, SVG Export Plug-In . SVG Version: 6.00 Build 0)  -->
<svg version="1.1" id="Capa_1" xmlns="http://www.w3.org/2000/svg" xmlns:xlink="http://www.w3.org/1999/xlink" x="0px" y="0px"
	 viewBox="0 0 207.6 277" style="enable-background:new 0 0 207.6 277;" xml:space="preserve">
<style type="text/css">
	.st0{fill:#FF6656;}
	.st1{fill:#D13828;}
	.st2{enable-background:new    ;}
	.st3{fill:#FFFFFF;}
</style>
<g id="Capa_2_1_">
	<g id="Layer_1">
		<g>
			<circle class="st0" cx="103.8" cy="173.2" r="103.8"/>
		</g>
		<g>
			<path class="st1" d="M103.8,173.2l-0.3-103.8h0.3c56.9,0,103.8,46.9,103.8,103.8S160.8,277,103.8,277S0,230.2,0,173.2
				c0-28.1,11.4-55.1,31.7-74.6L103.8,173.2z"/>
		</g>
		<g class="st2">
			<path class="st3" d="M70.7,94.4h-1.6c0-1,0.2-1.9,0.5-2.7c0.3-0.8,0.8-1.5,1.3-2.1s1.2-1,1.8-1.3h-4.4v-1.4h5.9v1.4
				c-0.2,0.1-0.5,0.2-0.8,0.4c-0.3,0.2-0.6,0.4-0.9,0.7c-0.3,0.3-0.6,0.7-0.9,1.1c-0.3,0.5-0.5,1-0.7,1.6
				C70.8,92.8,70.7,93.6,70.7,94.4z"/>
			<path class="st3" d="M76.2,94.4c-0.4,0-0.6-0.1-0.7-0.3c-0.1-0.2-0.2-0.4-0.2-0.7c0-0.2,0.1-0.4,0.2-0.6s0.4-0.3,0.7-0.3
				c0.4,0,0.6,0.1,0.7,0.3s0.2,0.4,0.2,0.6c0,0.3-0.1,0.5-0.2,0.7S76.5,94.4,76.2,94.4z"/>
			<path class="st3" d="M78.4,94.4v-1.3c0,0,0.1-0.1,0.3-0.2c0.2-0.1,0.5-0.2,0.8-0.4s0.7-0.4,1.1-0.6c0.4-0.2,0.7-0.5,1-0.8
				c0.3-0.3,0.6-0.6,0.7-1c0.2-0.4,0.2-0.7,0.2-1s-0.2-0.5-0.5-0.7c-0.2-0.2-0.5-0.2-0.8-0.2c-0.5,0-0.8,0.2-1.1,0.5
				C80,89,79.9,89.5,80,90.1l-1.5-0.2c-0.1-0.7,0-1.2,0.2-1.7c0.2-0.5,0.6-0.8,1.1-1.1c0.5-0.2,1-0.4,1.6-0.4c0.5,0,0.9,0.1,1.3,0.3
				c0.4,0.2,0.7,0.4,1,0.7c0.2,0.3,0.4,0.7,0.4,1.1s-0.1,0.8-0.3,1.3c-0.2,0.4-0.4,0.7-0.7,1c-0.3,0.3-0.6,0.5-0.9,0.8
				c-0.3,0.2-0.7,0.4-1,0.6c-0.3,0.2-0.6,0.3-0.8,0.4C80.2,93,80.1,93,80,93h4.3v1.4H78.4z"/>
			<path class="st3" d="M86.7,89.9c-0.5,0-0.9-0.1-1.1-0.4c-0.2-0.3-0.4-0.7-0.4-1.1c0-0.5,0.1-0.9,0.3-1.2c0.2-0.3,0.6-0.4,1.1-0.4
				c0.5,0,0.9,0.1,1.1,0.4c0.2,0.3,0.4,0.7,0.4,1.2c0,0.5-0.1,0.8-0.4,1.1C87.6,89.8,87.3,89.9,86.7,89.9z M86.8,94.4l-1.1-0.8
				l3.2-3.3l2.5-3.5l1.1,0.8l-3.1,3.1L86.8,94.4z M86.7,88.9c0.2,0,0.3-0.1,0.4-0.2c0.1-0.1,0.1-0.2,0.1-0.4s0-0.3-0.1-0.4
				s-0.2-0.2-0.4-0.2c-0.2,0-0.3,0.1-0.4,0.2s-0.1,0.3-0.1,0.4s0,0.3,0.1,0.4C86.4,88.9,86.5,88.9,86.7,88.9z M91.4,94.5
				c-0.5,0-0.9-0.1-1.1-0.4c-0.2-0.3-0.4-0.7-0.4-1.2c0-0.5,0.1-0.8,0.3-1.1c0.2-0.3,0.6-0.4,1.1-0.4s0.9,0.1,1.1,0.4
				c0.2,0.3,0.4,0.7,0.4,1.1c0,0.5-0.1,0.9-0.4,1.1C92.3,94.4,91.9,94.5,91.4,94.5z M91.3,93.5c0.2,0,0.3-0.1,0.4-0.2
				c0.1-0.1,0.1-0.3,0.1-0.4s0-0.3-0.1-0.4c-0.1-0.1-0.2-0.2-0.4-0.2c-0.2,0-0.3,0.1-0.4,0.2c-0.1,0.1-0.1,0.3-0.1,0.4
				s0,0.3,0.1,0.4C91,93.5,91.2,93.5,91.3,93.5z"/>
		</g>
		<g class="st2">
			<path class="st3" d="M67,109.5l2.5-7.5h1.8l2.6,7.5h-1.2l-0.7-2.2h-3.1l-0.7,2.2H67z M70.4,102.5l-1.3,3.9h2.5L70.4,102.5z
				 M70.6,101.4h-0.5v-0.2l0.6-1.3h1v0.2L70.6,101.4z"/>
			<path class="st3" d="M74.9,109.5V102h2.6c1,0,1.7,0.2,2.2,0.5s0.8,0.9,0.8,1.7c0,0.6-0.1,1-0.4,1.4c-0.3,0.4-0.7,0.6-1.3,0.6
				c0.3,0,0.6,0.1,0.8,0.2c0.2,0.2,0.3,0.3,0.3,0.6c0.1,0.2,0.1,0.5,0.1,0.7c0,0.2,0,0.5,0.1,0.7c0,0.2,0.1,0.3,0.2,0.4
				c0.1,0.1,0.3,0.1,0.5,0v0.7c-0.1,0.1-0.3,0.2-0.5,0.2s-0.4,0-0.6,0c-0.2-0.1-0.4-0.2-0.5-0.4c-0.1-0.2-0.2-0.5-0.2-0.9
				c0-0.5,0-0.8-0.1-1.1s-0.2-0.5-0.4-0.6s-0.5-0.2-0.9-0.2c-0.4,0-1,0-1.7,0v3.2H74.9z M76,105.5h1.5c0.5,0,0.8,0,1.1-0.1
				c0.3-0.1,0.5-0.2,0.7-0.4c0.1-0.2,0.2-0.4,0.2-0.8c0-0.4-0.1-0.7-0.3-0.9c-0.2-0.2-0.4-0.3-0.8-0.4s-0.8-0.1-1.2-0.1H76V105.5z"
				/>
			<path class="st3" d="M83.1,108.6h4.2v0.9H82V102h5.2v1h-4.1v2.3h3.2v0.9h-3.2V108.6z"/>
			<path class="st3" d="M88,109.5l2.5-7.5h1.8l2.6,7.5h-1.2l-0.7-2.2h-3.1l-0.7,2.2H88z M91.5,102.5l-1.3,3.9h2.5L91.5,102.5z"/>
		</g>
		<g class="st2">
			<path class="st3" d="M63.7,124.6v-7.5h2.6c1,0,1.7,0.2,2.2,0.5s0.8,0.9,0.8,1.7c0,0.6-0.1,1-0.4,1.4c-0.3,0.4-0.7,0.6-1.3,0.6
				c0.3,0,0.6,0.1,0.8,0.2c0.2,0.2,0.3,0.3,0.3,0.6c0.1,0.2,0.1,0.5,0.1,0.7c0,0.2,0,0.5,0.1,0.7c0,0.2,0.1,0.3,0.2,0.4
				c0.1,0.1,0.3,0.1,0.5,0v0.7c-0.1,0.1-0.3,0.2-0.5,0.2s-0.4,0-0.6,0c-0.2-0.1-0.4-0.2-0.5-0.4c-0.1-0.2-0.2-0.5-0.2-0.9
				c0-0.5,0-0.8-0.1-1.1s-0.2-0.5-0.4-0.6s-0.5-0.2-0.9-0.2c-0.4,0-1,0-1.7,0v3.2H63.7z M64.9,120.6h1.5c0.5,0,0.8,0,1.1-0.1
				c0.3-0.1,0.5-0.2,0.7-0.4c0.1-0.2,0.2-0.4,0.2-0.8c0-0.4-0.1-0.7-0.3-0.9c-0.2-0.2-0.4-0.3-0.8-0.4s-0.8-0.1-1.2-0.1h-1.2V120.6z
				"/>
			<path class="st3" d="M74,124.8c-1,0-1.8-0.3-2.4-0.9c-0.5-0.6-0.8-1.4-0.8-2.5v-4.3H72v4.3c0,0.6,0.1,1,0.3,1.4s0.4,0.6,0.7,0.7
				c0.3,0.1,0.6,0.2,1,0.2c0.4,0,0.8-0.1,1.1-0.2c0.3-0.1,0.5-0.4,0.7-0.7c0.2-0.3,0.3-0.8,0.3-1.4v-4.3h1.2v4.3
				c0,1.1-0.3,1.9-0.8,2.5C75.9,124.5,75.1,124.8,74,124.8z"/>
		</g>
		<g class="st2">
			<path class="st3" d="M78.7,124.6v-7.5h2.6c1,0,1.7,0.2,2.2,0.5s0.8,0.9,0.8,1.7c0,0.6-0.1,1-0.4,1.4c-0.3,0.4-0.7,0.6-1.3,0.6
				c0.3,0,0.6,0.1,0.8,0.2c0.2,0.2,0.3,0.3,0.3,0.6c0.1,0.2,0.1,0.5,0.1,0.7c0,0.2,0,0.5,0.1,0.7c0,0.2,0.1,0.3,0.2,0.4
				c0.1,0.1,0.3,0.1,0.5,0v0.7c-0.1,0.1-0.3,0.2-0.5,0.2s-0.4,0-0.6,0c-0.2-0.1-0.4-0.2-0.5-0.4c-0.1-0.2-0.2-0.5-0.2-0.9
				c0-0.5,0-0.8-0.1-1.1s-0.2-0.5-0.4-0.6s-0.5-0.2-0.9-0.2c-0.4,0-1,0-1.7,0v3.2H78.7z M79.9,120.6h1.5c0.5,0,0.8,0,1.1-0.1
				c0.3-0.1,0.5-0.2,0.7-0.4c0.1-0.2,0.2-0.4,0.2-0.8c0-0.4-0.1-0.7-0.3-0.9c-0.2-0.2-0.4-0.3-0.8-0.4s-0.8-0.1-1.2-0.1h-1.2V120.6z
				"/>
		</g>
		<g class="st2">
			<path class="st3" d="M85.6,124.6l2.5-7.5h1.8l2.6,7.5h-1.2l-0.7-2.2h-3.1l-0.7,2.2H85.6z M89,117.6l-1.3,3.9h2.5L89,117.6z"/>
			<path class="st3" d="M93.5,124.6v-7.5h1.1v6.5h3.9v1H93.5z"/>
		</g>
		<g class="st2">
			<path class="st3" d="M88.7,211.3c-0.5,0-0.9-0.1-1.3-0.2c-0.3-0.1-0.6-0.3-0.8-0.5s-0.4-0.4-0.5-0.5c-0.1-0.2-0.2-0.4-0.3-0.6
				l1.6-0.3c0,0,0,0.1,0.1,0.2s0.2,0.2,0.4,0.3c0.2,0.1,0.5,0.2,0.8,0.2c0.2,0,0.4,0,0.6-0.1s0.4-0.2,0.6-0.4
				c0.2-0.2,0.3-0.5,0.4-0.9c0.1-0.4,0.1-0.8,0.1-1.4c0,0-0.1,0.1-0.1,0.3s-0.2,0.3-0.4,0.5c-0.2,0.2-0.4,0.3-0.7,0.5
				s-0.6,0.2-1,0.2c-0.6,0-1.1-0.1-1.5-0.4c-0.4-0.2-0.7-0.5-0.8-0.9c-0.2-0.4-0.2-0.8-0.2-1.2c0-0.4,0.2-0.8,0.4-1.2
				c0.2-0.4,0.6-0.7,1-0.9c0.4-0.2,1-0.4,1.6-0.4c0.6,0,1.1,0.1,1.5,0.3c0.4,0.2,0.8,0.5,1,0.9s0.4,0.8,0.6,1.2
				c0.1,0.5,0.2,0.9,0.2,1.4c0,0.7-0.1,1.3-0.3,1.9c-0.2,0.6-0.6,1.1-1,1.4S89.4,211.3,88.7,211.3z M88.5,207.5
				c0.5,0,0.8-0.1,1.1-0.4c0.3-0.3,0.4-0.6,0.5-1.1c-0.1-0.4-0.3-0.7-0.6-0.9c-0.3-0.2-0.6-0.3-0.9-0.3c-0.4,0-0.7,0.1-0.9,0.3
				c-0.2,0.2-0.4,0.4-0.5,0.7s-0.1,0.5,0,0.8c0.1,0.3,0.2,0.5,0.4,0.7S88.2,207.5,88.5,207.5z"/>
			<path class="st3" d="M93.1,211.2v-1.3c0,0,0.1-0.1,0.3-0.2c0.2-0.1,0.5-0.2,0.8-0.4s0.7-0.4,1.1-0.6c0.4-0.2,0.7-0.5,1-0.8
				c0.3-0.3,0.6-0.6,0.7-1c0.2-0.4,0.2-0.7,0.2-1s-0.2-0.5-0.5-0.7c-0.2-0.2-0.5-0.2-0.8-0.2c-0.5,0-0.8,0.2-1.1,0.5
				c-0.3,0.3-0.3,0.8-0.2,1.5l-1.5-0.2c-0.1-0.7,0-1.2,0.2-1.7c0.2-0.5,0.6-0.8,1.1-1.1c0.5-0.2,1-0.4,1.6-0.4
				c0.5,0,0.9,0.1,1.3,0.3c0.4,0.2,0.7,0.4,1,0.7c0.2,0.3,0.4,0.7,0.4,1.1s-0.1,0.8-0.3,1.3c-0.2,0.4-0.4,0.7-0.7,1
				c-0.3,0.3-0.6,0.5-0.9,0.8c-0.3,0.2-0.7,0.4-1,0.6c-0.3,0.2-0.6,0.3-0.8,0.4c-0.2,0.1-0.4,0.1-0.5,0.2H99v1.4H93.1z"/>
			<path class="st3" d="M101,211.2c-0.4,0-0.6-0.1-0.7-0.3c-0.1-0.2-0.2-0.4-0.2-0.7c0-0.2,0.1-0.4,0.2-0.6s0.4-0.3,0.7-0.3
				c0.4,0,0.6,0.1,0.7,0.3s0.2,0.4,0.2,0.6c0,0.3-0.1,0.5-0.2,0.7S101.4,211.2,101,211.2z"/>
			<path class="st3" d="M106.4,211.3c-0.6,0-1.2-0.1-1.7-0.3c-0.5-0.2-0.9-0.4-1.2-0.8c-0.3-0.3-0.4-0.7-0.4-1.2
				c0-0.5,0.2-0.9,0.5-1.3c0.3-0.4,0.8-0.6,1.4-0.6c-0.4-0.1-0.7-0.2-1-0.4s-0.4-0.4-0.4-0.7c-0.1-0.2-0.1-0.4-0.1-0.6
				c0-0.4,0.1-0.7,0.4-1c0.2-0.3,0.6-0.5,1-0.7c0.4-0.2,0.9-0.3,1.5-0.3c0.9,0,1.6,0.2,2.1,0.6c0.5,0.4,0.8,0.9,0.8,1.4
				c0,0.2,0,0.3-0.1,0.6s-0.2,0.4-0.4,0.7c-0.2,0.2-0.5,0.3-1,0.4c0.6,0.1,1.1,0.3,1.4,0.6c0.3,0.3,0.5,0.8,0.5,1.3
				c0,0.5-0.1,0.9-0.4,1.2c-0.3,0.3-0.7,0.6-1.2,0.7S107,211.3,106.4,211.3z M106.4,210.1c0.5,0,0.9-0.1,1.2-0.3s0.5-0.5,0.5-0.9
				c0-0.4-0.2-0.8-0.5-1c-0.3-0.2-0.7-0.3-1.2-0.3c-0.5,0-0.9,0.1-1.2,0.3c-0.3,0.2-0.5,0.5-0.5,1c0,0.4,0.2,0.7,0.5,0.9
				C105.5,210,105.9,210.1,106.4,210.1z M106.4,206.8c0.4,0,0.8-0.1,1-0.3c0.3-0.2,0.4-0.4,0.4-0.7c0-0.4-0.1-0.6-0.4-0.8
				c-0.3-0.2-0.6-0.3-1-0.3c-0.4,0-0.8,0.1-1,0.3s-0.4,0.5-0.4,0.8c0,0.3,0.1,0.6,0.4,0.7C105.7,206.8,106,206.8,106.4,206.8z"/>
			<path class="st3" d="M112.1,206.7c-0.5,0-0.9-0.1-1.1-0.4c-0.2-0.3-0.4-0.7-0.4-1.1c0-0.5,0.1-0.9,0.3-1.2s0.6-0.4,1.1-0.4
				c0.5,0,0.9,0.1,1.1,0.4s0.4,0.7,0.4,1.2c0,0.5-0.1,0.8-0.4,1.1S112.6,206.7,112.1,206.7z M112.1,211.2l-1.1-0.8l3.2-3.3l2.5-3.5
				l1.1,0.8l-3.1,3.1L112.1,211.2z M112,205.7c0.2,0,0.3-0.1,0.4-0.2c0.1-0.1,0.1-0.2,0.1-0.4s0-0.3-0.1-0.4
				c-0.1-0.1-0.2-0.2-0.4-0.2c-0.2,0-0.3,0.1-0.4,0.2c-0.1,0.1-0.1,0.3-0.1,0.4s0,0.3,0.1,0.4C111.7,205.6,111.9,205.7,112,205.7z
				 M116.7,211.3c-0.5,0-0.9-0.1-1.1-0.4c-0.2-0.3-0.4-0.7-0.4-1.2c0-0.5,0.1-0.8,0.3-1.1c0.2-0.3,0.6-0.4,1.1-0.4s0.9,0.1,1.1,0.4
				c0.2,0.3,0.4,0.7,0.4,1.1c0,0.5-0.1,0.9-0.4,1.1C117.6,211.2,117.2,211.3,116.7,211.3z M116.6,210.3c0.2,0,0.3-0.1,0.4-0.2
				c0.1-0.1,0.1-0.3,0.1-0.4s0-0.3-0.1-0.4c-0.1-0.1-0.2-0.2-0.4-0.2c-0.2,0-0.3,0.1-0.4,0.2c-0.1,0.1-0.1,0.3-0.1,0.4
				s0,0.3,0.1,0.4C116.3,210.2,116.5,210.3,116.6,210.3z"/>
		</g>
		<g class="st2">
		</g>
		<g class="st2">
			<path class="st3" d="M89.9,226.3l2.5-7.5h1.8l2.6,7.5h-1.2l-0.7-2.2h-3.1l-0.7,2.2H89.9z M93.3,219.3l-1.3,3.9h2.5L93.3,219.3z
				 M93.5,218.2H93V218l0.6-1.3h1v0.2L93.5,218.2z"/>
			<path class="st3" d="M97.7,226.3v-7.5h2.6c1,0,1.7,0.2,2.2,0.5s0.8,0.9,0.8,1.7c0,0.6-0.1,1-0.4,1.4c-0.3,0.4-0.7,0.6-1.3,0.6
				c0.3,0,0.6,0.1,0.8,0.2c0.2,0.2,0.3,0.3,0.3,0.6c0.1,0.2,0.1,0.5,0.1,0.7c0,0.2,0,0.5,0.1,0.7c0,0.2,0.1,0.3,0.2,0.4
				c0.1,0.1,0.3,0.1,0.5,0v0.7c-0.1,0.1-0.3,0.2-0.5,0.2s-0.4,0-0.6,0c-0.2-0.1-0.4-0.2-0.5-0.4c-0.1-0.2-0.2-0.5-0.2-0.9
				c0-0.5,0-0.8-0.1-1.1s-0.2-0.5-0.4-0.6s-0.5-0.2-0.9-0.2c-0.4,0-1,0-1.7,0v3.2H97.7z M98.9,222.3h1.5c0.5,0,0.8,0,1.1-0.1
				c0.3-0.1,0.5-0.2,0.7-0.4c0.1-0.2,0.2-0.4,0.2-0.8c0-0.4-0.1-0.7-0.3-0.9c-0.2-0.2-0.4-0.3-0.8-0.4s-0.8-0.1-1.2-0.1h-1.2V222.3z
				"/>
			<path class="st3" d="M106,225.4h4.2v0.9h-5.3v-7.5h5.2v1H106v2.3h3.2v0.9H106V225.4z"/>
			<path class="st3" d="M110.9,226.3l2.5-7.5h1.8l2.6,7.5h-1.2l-0.7-2.2h-3.1l-0.7,2.2H110.9z M114.4,219.3l-1.3,3.9h2.5
				L114.4,219.3z"/>
		</g>
		<g class="st2">
			<path class="st3" d="M85.2,241.5c-1,0-1.8-0.3-2.4-0.9c-0.5-0.6-0.8-1.4-0.8-2.5v-4.3h1.2v4.3c0,0.6,0.1,1,0.3,1.4
				s0.4,0.6,0.7,0.7c0.3,0.1,0.6,0.2,1,0.2c0.4,0,0.8-0.1,1.1-0.2c0.3-0.1,0.5-0.4,0.7-0.7c0.2-0.3,0.3-0.8,0.3-1.4v-4.3h1.2v4.3
				c0,1.1-0.3,1.9-0.8,2.5C87.1,241.3,86.3,241.5,85.2,241.5z"/>
			<path class="st3" d="M89.9,241.4v-7.5h2.6c1,0,1.7,0.2,2.2,0.5s0.8,0.9,0.8,1.7c0,0.6-0.1,1-0.4,1.4c-0.3,0.4-0.7,0.6-1.3,0.6
				c0.3,0,0.6,0.1,0.8,0.2c0.2,0.2,0.3,0.3,0.3,0.6c0.1,0.2,0.1,0.5,0.1,0.7c0,0.2,0,0.5,0.1,0.7c0,0.2,0.1,0.3,0.2,0.4
				c0.1,0.1,0.3,0.1,0.5,0v0.7c-0.1,0.1-0.3,0.2-0.5,0.2s-0.4,0-0.6,0c-0.2-0.1-0.4-0.2-0.5-0.4c-0.1-0.2-0.2-0.5-0.2-0.9
				c0-0.5,0-0.8-0.1-1.1s-0.2-0.5-0.4-0.6s-0.5-0.2-0.9-0.2c-0.4,0-1,0-1.7,0v3.2H89.9z M91.1,237.4h1.5c0.5,0,0.8,0,1.1-0.1
				c0.3-0.1,0.5-0.2,0.7-0.4c0.1-0.2,0.2-0.4,0.2-0.8c0-0.4-0.1-0.7-0.3-0.9c-0.2-0.2-0.4-0.3-0.8-0.4s-0.8-0.1-1.2-0.1h-1.2V237.4z
				"/>
			<path class="st3" d="M97.1,241.4v-7.5h2.8c0.3,0,0.6,0,0.9,0.1c0.3,0,0.7,0.1,0.9,0.3c0.3,0.1,0.5,0.3,0.7,0.6s0.3,0.6,0.3,1.1
				c0,0.3-0.1,0.5-0.2,0.8c-0.1,0.2-0.3,0.4-0.6,0.6c-0.3,0.2-0.7,0.2-1.2,0.3c0.6,0,1.1,0.1,1.5,0.3c0.3,0.2,0.6,0.4,0.7,0.7
				c0.1,0.3,0.2,0.6,0.2,0.9c0,0.5-0.1,0.8-0.3,1.1s-0.5,0.5-0.8,0.6c-0.3,0.1-0.7,0.2-1,0.2c-0.4,0-0.7,0.1-1,0.1H97.1z
				 M98.2,237.1h1.6c0.4,0,0.7,0,1-0.1c0.3,0,0.5-0.1,0.7-0.3c0.2-0.2,0.3-0.4,0.3-0.7c0-0.4-0.1-0.6-0.3-0.8s-0.4-0.3-0.7-0.3
				c-0.3,0-0.6-0.1-0.9-0.1h-1.6V237.1z M98.2,240.5h1.8c0.4,0,0.7,0,1-0.1c0.3,0,0.6-0.2,0.8-0.3c0.2-0.2,0.3-0.4,0.3-0.8
				c0-0.4-0.1-0.7-0.3-0.8s-0.5-0.3-0.8-0.4s-0.7-0.1-1.1-0.1h-1.6V240.5z"/>
			<path class="st3" d="M103.9,241.4l2.5-7.5h1.8l2.6,7.5h-1.2l-0.7-2.2h-3.1l-0.7,2.2H103.9z M107.3,234.4l-1.3,3.9h2.5
				L107.3,234.4z"/>
			<path class="st3" d="M117,233.9h1.1v7.5H116l-3.1-7h0v7h-1.1v-7.5h2l3.3,7h0V233.9z"/>
			<path class="st3" d="M119.2,241.4l2.5-7.5h1.8l2.6,7.5h-1.2l-0.7-2.2H121l-0.7,2.2H119.2z M122.6,234.4l-1.3,3.9h2.5L122.6,234.4
				z"/>
		</g>
		<g class="st2">
			<path class="st0" d="M77.7,36.7V24.6h-2.4V23H76v-0.8h0.8v-0.8h0.8v-0.8h2.4v16.2H77.7z"/>
			<path class="st0" d="M84.8,36.7V24.6h-2.4V23h0.8v-0.8H84v-0.8h0.8v-0.8h2.4v16.2H84.8z"/>
			<path class="st0" d="M93,36.7v-0.8h-1.6v-0.8h-0.8v-0.8h-0.8v-2.4h2.4v1.6H93v0.8h3.2v-0.8h1.6v-1.6h0.8v-1.6h-0.8v-0.8h-0.8
				v-0.8h-0.8v-0.8h-5.7v-3.2h0.8v-2.4h0.8v-1.6h7.3V23h-5.7v1.6H93v0.8h4.1v0.8h1.6V27h0.8v0.8h0.8v1.6h0.8v3.2h-0.8v1.6h-0.8v0.8
				h-0.8v0.8h-1.6v0.8H93z"/>
			<path class="st0" d="M102.8,39.2v-0.8h0.8v-0.8h0.8v-0.8h-1.6v-2.4h2.4v4.1h-0.8v0.8H102.8z"/>
			<path class="st0" d="M110,36.7v-3.2h0.8v-1.6h0.8v-2.4h0.8v-1.6h0.8v-1.6h0.8v-1.6h0.8v-0.8h0.8V23h-8.9v-2.4h12.2V23h-0.8v1.6
				h-0.8v0.8h-0.8V27h-0.8v1.6h-0.8v1.6H114v1.6h-0.8v2.4h-0.8v2.4H110z"/>
			<path class="st0" d="M123.6,36.7V24.6h-2.4V23h0.8v-0.8h0.8v-0.8h0.8v-0.8h2.4v16.2H123.6z"/>
			<path class="st0" d="M130.7,36.7V24.6h-2.4V23h0.8v-0.8h0.8v-0.8h0.8v-0.8h2.4v16.2H130.7z"/>
		</g>
		<g class="st2">
			<path class="st0" d="M74.7,11.3h-1.5V4.5h2.8c0.8,0,1.4,0.2,1.8,0.6s0.6,1,0.6,1.7c0,0.7-0.2,1.2-0.7,1.6S76.8,9,76.1,9h-1.3
				V11.3z M75.9,5.7h-1.1V8h1.1c0.4,0,0.7-0.1,1-0.3c0.3-0.2,0.4-0.5,0.4-0.8c0-0.4-0.1-0.7-0.4-0.9C76.6,5.8,76.2,5.7,75.9,5.7z"/>
			<path class="st0" d="M82.3,11.5c-1.1,0-1.9-0.3-2.5-1S78.9,9,78.9,7.9c0-0.7,0.1-1.3,0.4-1.9s0.6-0.9,1.1-1.2
				c0.5-0.3,1.1-0.4,1.9-0.4c1.1,0,2,0.3,2.5,1c0.6,0.6,0.9,1.5,0.9,2.6c0,0.7-0.1,1.3-0.4,1.8c-0.3,0.5-0.6,0.9-1.1,1.2
				C83.6,11.3,83,11.5,82.3,11.5z M82.3,10.1c0.4,0,0.8-0.1,1.1-0.3C83.7,9.6,83.9,9.3,84,9c0.1-0.3,0.2-0.7,0.2-1.1
				c0-0.4-0.1-0.8-0.2-1.1s-0.4-0.6-0.7-0.8c-0.3-0.2-0.7-0.3-1.1-0.3c-0.6,0-1.1,0.2-1.5,0.6c-0.3,0.4-0.5,0.9-0.5,1.6
				c0,0.4,0.1,0.7,0.2,1.1c0.1,0.3,0.4,0.6,0.7,0.8C81.4,10,81.8,10.1,82.3,10.1z"/>
			<path class="st0" d="M86.7,11.3V4.5h2.8c0.2,0,0.5,0,0.8,0s0.6,0.1,0.9,0.2c0.3,0.1,0.5,0.3,0.7,0.5c0.2,0.2,0.3,0.6,0.3,1
				c0,0.3-0.1,0.5-0.1,0.7c-0.1,0.2-0.3,0.4-0.6,0.5c-0.3,0.1-0.7,0.2-1.2,0.2v0c0.6,0,1,0.1,1.3,0.2c0.3,0.1,0.5,0.3,0.7,0.6
				c0.1,0.2,0.2,0.5,0.2,0.8c0,0.4-0.1,0.7-0.2,0.9c-0.1,0.2-0.3,0.4-0.5,0.5c-0.2,0.1-0.5,0.2-0.7,0.3s-0.5,0.1-0.8,0.1
				c-0.3,0-0.5,0-0.7,0H86.7z M88.1,7.3h1.2c0.2,0,0.5,0,0.7,0c0.2,0,0.4-0.1,0.5-0.2c0.1-0.1,0.2-0.3,0.2-0.5
				c0-0.2-0.1-0.4-0.2-0.5c-0.1-0.1-0.3-0.2-0.5-0.2c-0.2,0-0.5,0-0.7,0h-1.2V7.3z M88.1,10.1h1.3c0.3,0,0.6,0,0.8,0
				s0.4-0.1,0.6-0.2S91,9.5,91,9.2s-0.1-0.5-0.2-0.6c-0.2-0.1-0.4-0.2-0.6-0.2c-0.3,0-0.5,0-0.8,0h-1.2V10.1z"/>
			<path class="st0" d="M93.7,11.3V4.5h1.5v5.5h3.1v1.2H93.7z"/>
			<path class="st0" d="M98.8,11.3l2.1-6.8h2.4l2.1,6.8h-1.5l-0.5-1.8h-2.4l-0.5,1.8H98.8z M102.1,5.1l-0.9,3.2h1.8L102.1,5.1z"/>
			<path class="st0" d="M109.2,11.4c-0.6,0-1.2-0.1-1.7-0.4c-0.5-0.3-0.9-0.6-1.2-1.2c-0.3-0.5-0.5-1.1-0.4-1.9
				c0-0.8,0.2-1.4,0.5-1.9s0.7-0.9,1.2-1.2c0.5-0.3,1.1-0.4,1.8-0.4c0.6,0,1.2,0.1,1.7,0.3c0.5,0.2,0.8,0.5,1.1,0.9
				c0.3,0.4,0.4,0.8,0.5,1.3h-1.5c0-0.3-0.2-0.6-0.4-0.8c-0.2-0.2-0.4-0.3-0.7-0.4c-0.3-0.1-0.5-0.1-0.7-0.1c-0.7,0-1.2,0.2-1.5,0.5
				c-0.3,0.4-0.5,0.9-0.5,1.5c0,0.7,0.2,1.2,0.5,1.6c0.3,0.4,0.8,0.6,1.5,0.6c0.2,0,0.5,0,0.7-0.1c0.3-0.1,0.5-0.2,0.7-0.4
				c0.2-0.2,0.3-0.4,0.4-0.8h1.5c-0.1,0.5-0.3,0.9-0.5,1.3c-0.3,0.4-0.6,0.7-1.1,1S109.8,11.4,109.2,11.4z"/>
			<path class="st0" d="M116.7,10.1v1.2h-3.2v-1.2h0.9V5.8h-0.9V4.5h3.2v1.2h-0.9v4.3H116.7z"/>
			<path class="st0" d="M121.2,11.5c-1.1,0-1.9-0.3-2.5-1s-0.9-1.5-0.9-2.6c0-0.7,0.1-1.3,0.4-1.9s0.6-0.9,1.1-1.2
				c0.5-0.3,1.1-0.4,1.9-0.4c1.1,0,2,0.3,2.5,1c0.6,0.6,0.9,1.5,0.9,2.6c0,0.7-0.1,1.3-0.4,1.8c-0.3,0.5-0.6,0.9-1.1,1.2
				C122.5,11.3,121.9,11.5,121.2,11.5z M121.1,10.1c0.4,0,0.8-0.1,1.1-0.3c0.3-0.2,0.5-0.4,0.7-0.8c0.1-0.3,0.2-0.7,0.2-1.1
				c0-0.4-0.1-0.8-0.2-1.1c-0.1-0.3-0.4-0.6-0.7-0.8c-0.3-0.2-0.7-0.3-1.1-0.3c-0.6,0-1.1,0.2-1.5,0.6s-0.5,0.9-0.5,1.6
				c0,0.4,0.1,0.7,0.2,1.1s0.4,0.6,0.7,0.8C120.3,10,120.7,10.1,121.1,10.1z M121.6,4H121V3.8l0.5-1.2h1.2v0.2L121.6,4z"/>
			<path class="st0" d="M130.2,4.5h1.5v6.8h-2.8l-1.8-6.1h0v6.1h-1.5V4.5h2.6l2,6.1h0V4.5z"/>
			<path class="st0" d="M133.9,8.3c-0.3,0-0.5-0.1-0.7-0.2S133,7.7,133,7.5c0-0.2,0.1-0.4,0.2-0.6s0.3-0.2,0.7-0.2
				c0.3,0,0.5,0.1,0.6,0.2c0.1,0.2,0.2,0.4,0.2,0.6c0,0.2-0.1,0.4-0.2,0.6C134.4,8.2,134.2,8.3,133.9,8.3z M133.9,11
				c-0.3,0-0.6-0.1-0.7-0.2s-0.2-0.4-0.2-0.6c0-0.2,0.1-0.4,0.2-0.6s0.3-0.2,0.7-0.2c0.3,0,0.5,0.1,0.6,0.2c0.1,0.2,0.2,0.3,0.2,0.6
				c0,0.2-0.1,0.4-0.2,0.6C134.4,10.9,134.2,11,133.9,11z"/>
		</g>
		<g>
			<polygon class="st0" points="145,44 141.1,44 141.1,43 144,43 144,41.2 145.8,41.2 145.8,25.7 147.5,25.7 147.5,23.9 149.2,23.9 
				149.2,22.2 151,22.2 151,21.5 149.2,21.5 149.2,19.7 147.5,19.7 147.5,18 145.8,18 145.8,4.1 144,4.1 144,2.4 141.1,2.4 
				141.1,1.4 145,1.4 145,3.1 146.8,3.1 146.8,17 148.5,17 148.5,18.7 150.2,18.7 150.2,20.5 152,20.5 152,23.2 150.2,23.2 
				150.2,24.9 148.5,24.9 148.5,26.7 146.8,26.7 146.8,42.2 145,42.2 			"/>
		</g>
		<g>
			<polygon class="st0" points="66.5,42.5 62.6,42.5 62.6,40.8 60.9,40.8 60.9,27 59.1,27 59.1,25.2 57.4,25.2 57.4,23.5 55.7,23.5 
				55.7,20.8 57.4,20.8 57.4,19 59.1,19 59.1,17.3 60.9,17.3 60.9,1.7 62.6,1.7 62.6,0 66.5,0 66.5,1 63.6,1 63.6,2.7 61.9,2.7 
				61.9,18.3 60.1,18.3 60.1,20 58.4,20 58.4,21.8 56.7,21.8 56.7,22.5 58.4,22.5 58.4,24.2 60.1,24.2 60.1,26 61.9,26 61.9,39.8 
				63.6,39.8 63.6,41.5 66.5,41.5 			"/>
		</g>
	</g>
</g>
</svg>
