<svg xmlns="http://www.w3.org/2000/svg" viewBox="0 0 207.62 277.04"><defs><style>.cls-1{fill:#66e3eb;}.cls-10,.cls-11,.cls-2{fill:#0db1cb;}.cls-3{font-size:13.28px;fill:#fff;}.cls-11,.cls-3{font-family:DarkerGrotesque-Black, Darker Grotesque;font-weight:800;}.cls-4,.cls-5,.cls-8{font-family:DarkerGrotesque-SemiBold, Darker Grotesque;font-weight:600;}.cls-4,.cls-9{letter-spacing:0em;}.cls-6,.cls-8{letter-spacing:0.01em;}.cls-7{letter-spacing:-0.01em;}.cls-10{font-size:25.93px;font-family:Terminal-Grotesque, Terminal Grotesque;}.cls-11{font-size:12px;}</style></defs><g id="Capa_2" data-name="Capa 2"><g id="Layer_1" data-name="Layer 1"><circle class="cls-1" cx="103.81" cy="173.23" r="103.8"/><path class="cls-2" d="M103.81,173.23l-.3-103.8h.3c56.94,0,103.8,46.86,103.8,103.8S160.75,277,103.81,277a103.85,103.85,0,0,1-38-7.2Z"/><text class="cls-3" transform="translate(30.64 151.99)">42.16%<tspan class="cls-4" x="39.53" y="0"> </tspan><tspan class="cls-5"><tspan x="-7.85" y="15.11">CABECE</tspan><tspan class="cls-6" x="35.72" y="15.11">R</tspan><tspan x="43.06" y="15.11">A</tspan><tspan x="-10.09" y="30.21">MUNICI</tspan><tspan class="cls-7" x="32.64" y="30.21">P</tspan><tspan x="39.07" y="30.21">AL</tspan></tspan></text><text class="cls-3" transform="translate(116.12 184.3)">57.84%<tspan class="cls-5" x="41.33" y="0"> </tspan><tspan class="cls-5"><tspan x="-8.7" y="15.11">RESTO DEL </tspan></tspan><tspan class="cls-8"><tspan x="-10.88" y="30.21">T</tspan><tspan class="cls-9" x="-4.68" y="30.21">ERRITORIO</tspan></tspan></text><text class="cls-10" transform="translate(71.02 36.73)">36,104</text><text class="cls-11" transform="translate(72.64 11.29)">POBLACIÓN:</text><polygon class="cls-2" points="145.03 43.97 141.07 43.97 141.07 42.97 144.03 42.97 144.03 41.24 145.76 41.24 145.76 25.66 147.5 25.66 147.5 23.93 149.23 23.93 149.23 22.19 150.96 22.19 150.96 21.46 149.23 21.46 149.23 19.73 147.5 19.73 147.5 18 145.76 18 145.76 4.15 144.03 4.15 144.03 2.42 141.07 2.42 141.07 1.42 145.03 1.42 145.03 3.15 146.76 3.15 146.76 17 148.5 17 148.5 18.73 150.23 18.73 150.23 20.46 151.96 20.46 151.96 23.19 150.23 23.19 150.23 24.93 148.5 24.93 148.5 26.66 146.76 26.66 146.76 42.24 145.03 42.24 145.03 43.97"/><polygon class="cls-2" points="66.55 42.55 62.58 42.55 62.58 40.82 60.85 40.82 60.85 26.97 59.12 26.97 59.12 25.24 57.39 25.24 57.39 23.51 55.66 23.51 55.66 20.78 57.39 20.78 57.39 19.05 59.12 19.05 59.12 17.31 60.85 17.31 60.85 1.73 62.58 1.73 62.58 0 66.55 0 66.55 1 63.58 1 63.58 2.73 61.85 2.73 61.85 18.31 60.12 18.31 60.12 20.05 58.39 20.05 58.39 21.78 56.66 21.78 56.66 22.51 58.39 22.51 58.39 24.24 60.12 24.24 60.12 25.97 61.85 25.97 61.85 39.82 63.58 39.82 63.58 41.55 66.55 41.55 66.55 42.55"/></g></g></svg>