<?xml version="1.0" encoding="utf-8"?>
<!-- Generator: Adobe Illustrator 24.1.2, SVG Export Plug-In . SVG Version: 6.00 Build 0)  -->
<svg version="1.1" id="Capa_1" xmlns="http://www.w3.org/2000/svg" xmlns:xlink="http://www.w3.org/1999/xlink" x="0px" y="0px"
	 viewBox="0 0 207.6 277" style="enable-background:new 0 0 207.6 277;" xml:space="preserve">
<style type="text/css">
	.st0{fill:#66E3EB;}
	.st1{fill:#0DB1CB;}
	.st2{enable-background:new    ;}
	.st3{fill:#FFFFFF;}
</style>
<g id="Capa_2_1_">
	<g id="Layer_1">
		<g>
			<circle class="st0" cx="103.8" cy="173.2" r="103.8"/>
		</g>
		<g>
			<path class="st1" d="M103.8,173.2l-0.3-103.8h0.3c56.9,0,103.8,46.9,103.8,103.8S160.8,277,103.8,277c-13,0-25.9-2.4-38-7.2
				L103.8,173.2z"/>
		</g>
		<g class="st2">
			<path class="st3" d="M31.1,150.6v-1.4c0.5-0.2,0.9-0.5,1.2-0.8c0.4-0.4,0.7-0.8,0.9-1.2c0.2-0.4,0.4-0.9,0.5-1.4
				c0.1-0.5,0.2-0.9,0.2-1.3h1.7c0,0.5-0.1,1.1-0.4,1.7c-0.2,0.6-0.6,1.1-1,1.7c-0.4,0.5-1,1-1.6,1.4h2.1v-1h1.6v1h0.9v1.4h-0.9v1.4
				h-1.6v-1.4H31.1z"/>
			<path class="st3" d="M38.4,152v-1.3c0,0,0.1-0.1,0.3-0.2c0.2-0.1,0.5-0.2,0.8-0.4s0.7-0.4,1.1-0.6c0.4-0.2,0.7-0.5,1-0.8
				c0.3-0.3,0.6-0.6,0.7-1c0.2-0.4,0.2-0.7,0.2-1s-0.2-0.5-0.5-0.7c-0.2-0.2-0.5-0.2-0.8-0.2c-0.5,0-0.8,0.2-1.1,0.5
				c-0.3,0.3-0.3,0.8-0.2,1.5l-1.5-0.2c-0.1-0.7,0-1.2,0.2-1.7c0.2-0.5,0.6-0.8,1.1-1.1c0.5-0.2,1-0.4,1.6-0.4
				c0.5,0,0.9,0.1,1.3,0.3c0.4,0.2,0.7,0.4,1,0.7c0.2,0.3,0.4,0.7,0.4,1.1s-0.1,0.8-0.3,1.3c-0.2,0.4-0.4,0.7-0.7,1
				c-0.3,0.3-0.6,0.5-0.9,0.8c-0.3,0.2-0.7,0.4-1,0.6c-0.3,0.2-0.6,0.3-0.8,0.4c-0.2,0.1-0.4,0.1-0.5,0.2h4.3v1.4H38.4z"/>
			<path class="st3" d="M46.3,152c-0.4,0-0.6-0.1-0.7-0.3c-0.1-0.2-0.2-0.4-0.2-0.7c0-0.2,0.1-0.4,0.2-0.6s0.4-0.3,0.7-0.3
				c0.4,0,0.6,0.1,0.7,0.3s0.2,0.4,0.2,0.6c0,0.3-0.1,0.5-0.2,0.7S46.6,152,46.3,152z"/>
			<path class="st3" d="M52.6,150.6v1.4h-3.8v-1.4H50v-4.3c-0.1,0.3-0.2,0.6-0.3,0.8c-0.2,0.2-0.3,0.3-0.5,0.4s-0.3,0.1-0.5,0.1
				c-0.1,0-0.2,0-0.3,0v-1.8c0.1,0,0.2,0,0.4,0c0.2,0,0.4-0.1,0.6-0.1c0.2-0.1,0.4-0.2,0.6-0.4c0.2-0.2,0.3-0.5,0.3-0.8h1.4v6.1
				H52.6z"/>
			<path class="st3" d="M57,152.1c-0.7,0-1.3-0.2-1.8-0.5c-0.5-0.3-0.8-0.8-1.1-1.4c-0.2-0.6-0.4-1.2-0.4-1.9c0-0.5,0.1-1,0.2-1.5
				c0.1-0.5,0.4-0.9,0.7-1.3c0.3-0.4,0.6-0.7,1.1-0.9c0.4-0.2,0.9-0.3,1.4-0.3c0.5,0,0.9,0.1,1.2,0.2c0.3,0.1,0.6,0.3,0.8,0.4
				c0.2,0.2,0.4,0.4,0.5,0.5c0.1,0.2,0.2,0.4,0.3,0.6l-1.6,0.3c-0.1-0.2-0.3-0.4-0.5-0.5c-0.2-0.1-0.4-0.2-0.8-0.2
				c-0.2,0-0.4,0-0.6,0.1c-0.2,0.1-0.4,0.2-0.6,0.5s-0.3,0.5-0.4,0.9c-0.1,0.4-0.1,0.9-0.1,1.4c0-0.1,0-0.2,0.1-0.3
				c0.1-0.2,0.2-0.3,0.4-0.5c0.2-0.2,0.4-0.3,0.7-0.5c0.3-0.1,0.6-0.2,1-0.2c0.6,0,1.1,0.1,1.5,0.4s0.6,0.5,0.8,0.9
				c0.2,0.4,0.2,0.8,0.2,1.2c0,0.4-0.2,0.8-0.4,1.2c-0.2,0.4-0.6,0.7-1,0.9C58.1,152,57.6,152.1,57,152.1z M57.1,150.8
				c0.4,0,0.7-0.1,0.9-0.3c0.2-0.2,0.4-0.4,0.5-0.6c0.1-0.3,0.1-0.5,0-0.8s-0.2-0.5-0.4-0.7c-0.2-0.2-0.5-0.3-0.9-0.3
				c-0.3,0-0.6,0.1-0.9,0.2s-0.4,0.3-0.6,0.6c-0.1,0.2-0.2,0.5-0.2,0.8c0.1,0.4,0.3,0.6,0.6,0.8C56.4,150.7,56.8,150.8,57.1,150.8z"
				/>
			<path class="st3" d="M62.4,147.5c-0.5,0-0.9-0.1-1.1-0.4c-0.2-0.3-0.4-0.7-0.4-1.1c0-0.5,0.1-0.9,0.3-1.2
				c0.2-0.3,0.6-0.4,1.1-0.4c0.5,0,0.9,0.1,1.1,0.4c0.2,0.3,0.4,0.7,0.4,1.2c0,0.5-0.1,0.8-0.4,1.1C63.3,147.4,63,147.5,62.4,147.5z
				 M62.5,152l-1.1-0.8l3.2-3.3l2.5-3.5l1.1,0.8l-3.1,3.1L62.5,152z M62.4,146.5c0.2,0,0.3-0.1,0.4-0.2c0.1-0.1,0.1-0.2,0.1-0.4
				s0-0.3-0.1-0.4s-0.2-0.2-0.4-0.2c-0.2,0-0.3,0.1-0.4,0.2s-0.1,0.3-0.1,0.4s0,0.3,0.1,0.4C62.1,146.5,62.2,146.5,62.4,146.5z
				 M67.1,152.1c-0.5,0-0.9-0.1-1.1-0.4c-0.2-0.3-0.4-0.7-0.4-1.2c0-0.5,0.1-0.8,0.3-1.1c0.2-0.3,0.6-0.4,1.1-0.4s0.9,0.1,1.1,0.4
				c0.2,0.3,0.4,0.7,0.4,1.1c0,0.5-0.1,0.9-0.4,1.1C68,152,67.6,152.1,67.1,152.1z M67,151.1c0.2,0,0.3-0.1,0.4-0.2
				c0.1-0.1,0.1-0.3,0.1-0.4s0-0.3-0.1-0.4c-0.1-0.1-0.2-0.2-0.4-0.2c-0.2,0-0.3,0.1-0.4,0.2c-0.1,0.1-0.1,0.3-0.1,0.4
				s0,0.3,0.1,0.4C66.7,151.1,66.8,151.1,67,151.1z"/>
		</g>
		<g class="st2">
		</g>
		<g class="st2">
			<path class="st3" d="M26.8,167.2c-0.7,0-1.3-0.1-1.9-0.4c-0.6-0.3-1-0.7-1.3-1.3s-0.5-1.3-0.5-2.1c0-0.8,0.2-1.6,0.5-2.1
				c0.3-0.6,0.8-1,1.3-1.3c0.6-0.3,1.2-0.4,1.9-0.4c1,0,1.7,0.3,2.3,0.8c0.6,0.5,1,1.2,1.1,2h-1.1c-0.1-0.4-0.2-0.8-0.5-1
				c-0.2-0.3-0.5-0.4-0.8-0.6s-0.7-0.2-1-0.2c-0.8,0-1.5,0.2-2,0.7s-0.7,1.2-0.7,2.1c0,0.9,0.2,1.7,0.7,2.1s1.1,0.7,1.9,0.7
				c0.6,0,1.1-0.1,1.5-0.4c0.5-0.3,0.7-0.7,0.8-1.4h1.2c-0.2,0.8-0.5,1.5-1.1,2S27.8,167.2,26.8,167.2z"/>
			<path class="st3" d="M31,167.1l2.5-7.5h1.8l2.6,7.5h-1.2l-0.7-2.2h-3.1l-0.7,2.2H31z M34.4,160.1l-1.3,3.9h2.5L34.4,160.1z"/>
			<path class="st3" d="M38.9,167.1v-7.5h2.8c0.3,0,0.6,0,0.9,0.1c0.3,0,0.7,0.1,0.9,0.3c0.3,0.1,0.5,0.3,0.7,0.6s0.3,0.6,0.3,1.1
				c0,0.3-0.1,0.5-0.2,0.8c-0.1,0.2-0.3,0.4-0.6,0.6c-0.3,0.2-0.7,0.2-1.2,0.3c0.6,0,1.1,0.1,1.5,0.3c0.3,0.2,0.6,0.4,0.7,0.7
				c0.1,0.3,0.2,0.6,0.2,0.9c0,0.5-0.1,0.8-0.3,1.1s-0.5,0.5-0.8,0.6c-0.3,0.1-0.7,0.2-1,0.2c-0.4,0-0.7,0.1-1,0.1H38.9z M40,162.8
				h1.6c0.4,0,0.7,0,1-0.1c0.3,0,0.5-0.1,0.7-0.3c0.2-0.2,0.3-0.4,0.3-0.7c0-0.4-0.1-0.6-0.3-0.8s-0.4-0.3-0.7-0.3
				c-0.3,0-0.6-0.1-0.9-0.1H40V162.8z M40,166.2h1.8c0.4,0,0.7,0,1-0.1c0.3,0,0.6-0.2,0.8-0.3c0.2-0.2,0.3-0.4,0.3-0.8
				c0-0.4-0.1-0.7-0.3-0.8s-0.5-0.3-0.8-0.4s-0.7-0.1-1.1-0.1H40V166.2z"/>
			<path class="st3" d="M47.2,166.2h4.2v0.9h-5.3v-7.5h5.2v1h-4.1v2.3h3.2v0.9h-3.2V166.2z"/>
			<path class="st3" d="M55.9,167.2c-0.7,0-1.3-0.1-1.9-0.4c-0.6-0.3-1-0.7-1.3-1.3s-0.5-1.3-0.5-2.1c0-0.8,0.2-1.6,0.5-2.1
				c0.3-0.6,0.8-1,1.3-1.3c0.6-0.3,1.2-0.4,1.9-0.4c1,0,1.7,0.3,2.3,0.8c0.6,0.5,1,1.2,1.1,2h-1.1c-0.1-0.4-0.2-0.8-0.5-1
				c-0.2-0.3-0.5-0.4-0.8-0.6s-0.7-0.2-1-0.2c-0.8,0-1.5,0.2-2,0.7s-0.7,1.2-0.7,2.1c0,0.9,0.2,1.7,0.7,2.1s1.1,0.7,1.9,0.7
				c0.6,0,1.1-0.1,1.5-0.4c0.5-0.3,0.7-0.7,0.8-1.4h1.2c-0.2,0.8-0.5,1.5-1.1,2S56.9,167.2,55.9,167.2z"/>
			<path class="st3" d="M61.7,166.2h4.2v0.9h-5.3v-7.5h5.2v1h-4.1v2.3h3.2v0.9h-3.2V166.2z"/>
		</g>
		<g class="st2">
			<path class="st3" d="M67.1,167.1v-7.5h2.6c1,0,1.7,0.2,2.2,0.5s0.8,0.9,0.8,1.7c0,0.6-0.1,1-0.4,1.4c-0.3,0.4-0.7,0.6-1.3,0.6
				c0.3,0,0.6,0.1,0.8,0.2c0.2,0.2,0.3,0.3,0.3,0.6c0.1,0.2,0.1,0.5,0.1,0.7c0,0.2,0,0.5,0.1,0.7c0,0.2,0.1,0.3,0.2,0.4
				c0.1,0.1,0.3,0.1,0.5,0v0.7c-0.1,0.1-0.3,0.2-0.5,0.2s-0.4,0-0.6,0c-0.2-0.1-0.4-0.2-0.5-0.4c-0.1-0.2-0.2-0.5-0.2-0.9
				c0-0.5,0-0.8-0.1-1.1s-0.2-0.5-0.4-0.6s-0.5-0.2-0.9-0.2c-0.4,0-1,0-1.7,0v3.2H67.1z M68.3,163.1h1.5c0.5,0,0.8,0,1.1-0.1
				c0.3-0.1,0.5-0.2,0.7-0.4c0.1-0.2,0.2-0.4,0.2-0.8c0-0.4-0.1-0.7-0.3-0.9c-0.2-0.2-0.4-0.3-0.8-0.4s-0.8-0.1-1.2-0.1h-1.2V163.1z
				"/>
		</g>
		<g class="st2">
			<path class="st3" d="M74,167.1l2.5-7.5h1.8l2.6,7.5h-1.2l-0.7-2.2h-3.1l-0.7,2.2H74z M77.4,160.1l-1.3,3.9h2.5L77.4,160.1z"/>
		</g>
		<g class="st2">
			<path class="st3" d="M21.3,182.2v-7.5h1.9l2.1,7h0l2.1-7h1.9v7.5h-1.1l0.1-7h0l-2.1,7h-1.6l-2.1-7h0l0.1,7H21.3z"/>
			<path class="st3" d="M34,182.4c-1,0-1.8-0.3-2.4-0.9c-0.5-0.6-0.8-1.4-0.8-2.5v-4.3H32v4.3c0,0.6,0.1,1,0.3,1.4s0.4,0.6,0.7,0.7
				c0.3,0.1,0.6,0.2,1,0.2c0.4,0,0.8-0.1,1.1-0.2c0.3-0.1,0.5-0.4,0.7-0.7c0.2-0.3,0.3-0.8,0.3-1.4v-4.3h1.2v4.3
				c0,1.1-0.3,1.9-0.8,2.5C35.8,182.1,35,182.4,34,182.4z"/>
			<path class="st3" d="M43.9,174.7H45v7.5h-2.1l-3.1-7h0v7h-1.1v-7.5h2l3.3,7h0V174.7z"/>
			<path class="st3" d="M49.7,181.2v1h-3.1v-1h1v-5.6h-1v-1h3.1v1h-1v5.6H49.7z"/>
			<path class="st3" d="M54.5,182.3c-0.7,0-1.3-0.1-1.9-0.4c-0.6-0.3-1-0.7-1.3-1.3s-0.5-1.3-0.5-2.1c0-0.8,0.2-1.6,0.5-2.1
				c0.3-0.6,0.8-1,1.3-1.3c0.6-0.3,1.2-0.4,1.9-0.4c1,0,1.7,0.3,2.3,0.8c0.6,0.5,1,1.2,1.1,2h-1.1c-0.1-0.4-0.2-0.8-0.5-1
				c-0.2-0.3-0.5-0.4-0.8-0.6s-0.7-0.2-1-0.2c-0.8,0-1.5,0.2-2,0.7s-0.7,1.2-0.7,2.1c0,0.9,0.2,1.7,0.7,2.1s1.1,0.7,1.9,0.7
				c0.6,0,1.1-0.1,1.5-0.4c0.5-0.3,0.7-0.7,0.8-1.4h1.2c-0.2,0.8-0.5,1.5-1.1,2S55.6,182.3,54.5,182.3z"/>
			<path class="st3" d="M62.4,181.2v1h-3.1v-1h1v-5.6h-1v-1h3.1v1h-1v5.6H62.4z"/>
		</g>
		<g class="st2">
			<path class="st3" d="M65.2,182.2h-1.1v-7.5H67c0.8,0,1.5,0.2,1.9,0.6c0.5,0.4,0.7,1,0.7,1.8c0,0.7-0.2,1.3-0.7,1.7
				s-1.1,0.6-1.9,0.6h-1.8V182.2z M66.9,175.6h-1.7v3h1.7c0.5,0,0.9-0.1,1.3-0.4c0.3-0.2,0.5-0.6,0.5-1.1c0-0.5-0.2-0.9-0.5-1.1
				C67.8,175.8,67.4,175.6,66.9,175.6z"/>
		</g>
		<g class="st2">
			<path class="st3" d="M70,182.2l2.5-7.5h1.8l2.6,7.5h-1.2L75,180h-3.1l-0.7,2.2H70z M73.4,175.2l-1.3,3.9h2.5L73.4,175.2z"/>
			<path class="st3" d="M77.9,182.2v-7.5H79v6.5h3.9v1H77.9z"/>
		</g>
		<g class="st2">
			<path class="st3" d="M119.6,184.4c-0.6,0-1.2-0.1-1.6-0.3c-0.4-0.2-0.7-0.5-1-0.8c-0.2-0.3-0.4-0.7-0.4-1l1.6-0.2
				c0,0.1,0.1,0.2,0.2,0.4c0.1,0.2,0.2,0.3,0.5,0.5c0.2,0.1,0.5,0.2,0.8,0.2c0.4,0,0.8-0.1,1-0.4c0.2-0.3,0.4-0.5,0.4-0.8
				c0-0.2,0-0.5-0.1-0.7c-0.1-0.2-0.2-0.4-0.5-0.5c-0.2-0.1-0.5-0.2-0.8-0.2c-0.3,0-0.5,0.1-0.7,0.2c-0.2,0.1-0.3,0.2-0.4,0.3
				c-0.1,0.1-0.1,0.2-0.1,0.2l-1.7-0.3l0.4-4h5v1.4h-3.9l-0.2,2.2c0.1-0.2,0.3-0.4,0.5-0.5c0.2-0.1,0.4-0.3,0.6-0.4
				c0.3-0.1,0.6-0.2,0.9-0.2c0.6,0,1.1,0.1,1.4,0.4c0.4,0.2,0.6,0.6,0.8,0.9c0.2,0.4,0.2,0.8,0.2,1.2c0,0.4-0.2,0.8-0.4,1.2
				c-0.3,0.4-0.6,0.7-1,1C120.8,184.3,120.2,184.4,119.6,184.4z"/>
			<path class="st3" d="M126.2,184.3h-1.6c0-1,0.2-1.9,0.5-2.7s0.8-1.5,1.3-2.1c0.5-0.6,1.2-1,1.8-1.3h-4.4v-1.4h5.9v1.4
				c-0.2,0.1-0.5,0.2-0.8,0.4c-0.3,0.2-0.6,0.4-0.9,0.7c-0.3,0.3-0.6,0.7-0.9,1.1c-0.3,0.5-0.5,1-0.7,1.6
				C126.3,182.7,126.2,183.5,126.2,184.3z"/>
			<path class="st3" d="M131.6,184.3c-0.4,0-0.6-0.1-0.7-0.3c-0.1-0.2-0.2-0.4-0.2-0.7c0-0.2,0.1-0.4,0.2-0.6
				c0.1-0.2,0.4-0.3,0.7-0.3c0.4,0,0.6,0.1,0.7,0.3s0.2,0.4,0.2,0.6c0,0.3-0.1,0.5-0.2,0.7S132,184.3,131.6,184.3z"/>
			<path class="st3" d="M137,184.4c-0.6,0-1.2-0.1-1.7-0.3c-0.5-0.2-0.9-0.4-1.2-0.8c-0.3-0.3-0.4-0.7-0.4-1.2
				c0-0.5,0.2-0.9,0.5-1.3c0.3-0.4,0.8-0.6,1.4-0.6c-0.4-0.1-0.7-0.2-1-0.4c-0.2-0.2-0.4-0.4-0.4-0.7s-0.1-0.4-0.1-0.6
				c0-0.4,0.1-0.7,0.4-1c0.2-0.3,0.6-0.5,1-0.7c0.4-0.2,0.9-0.3,1.5-0.3c0.9,0,1.6,0.2,2.1,0.6c0.5,0.4,0.8,0.9,0.8,1.4
				c0,0.2,0,0.3-0.1,0.6s-0.2,0.4-0.4,0.7c-0.2,0.2-0.5,0.3-1,0.4c0.6,0.1,1.1,0.3,1.4,0.6c0.3,0.3,0.5,0.8,0.5,1.3
				c0,0.5-0.1,0.9-0.4,1.2c-0.3,0.3-0.7,0.6-1.2,0.7S137.7,184.4,137,184.4z M137,183.2c0.5,0,0.9-0.1,1.2-0.3s0.5-0.5,0.5-0.9
				c0-0.4-0.2-0.8-0.5-1c-0.3-0.2-0.7-0.3-1.2-0.3c-0.5,0-0.9,0.1-1.2,0.3c-0.3,0.2-0.5,0.5-0.5,1c0,0.4,0.2,0.7,0.5,0.9
				C136.1,183.1,136.5,183.2,137,183.2z M137,180c0.4,0,0.8-0.1,1-0.3c0.3-0.2,0.4-0.4,0.4-0.7c0-0.4-0.1-0.6-0.4-0.8
				c-0.3-0.2-0.6-0.3-1-0.3c-0.4,0-0.8,0.1-1,0.3s-0.4,0.5-0.4,0.8c0,0.3,0.1,0.6,0.4,0.7C136.3,179.9,136.6,180,137,180z"/>
			<path class="st3" d="M141.3,182.9v-1.4c0.5-0.2,0.9-0.5,1.2-0.8c0.4-0.4,0.7-0.8,0.9-1.2s0.4-0.9,0.5-1.4s0.2-0.9,0.2-1.3h1.7
				c0,0.5-0.1,1.1-0.4,1.7c-0.2,0.6-0.6,1.1-1,1.7c-0.4,0.5-1,1-1.6,1.4h2.1v-1h1.6v1h0.9v1.4h-0.9v1.4H145v-1.4H141.3z"/>
			<path class="st3" d="M149.9,179.8c-0.5,0-0.9-0.1-1.1-0.4c-0.2-0.3-0.4-0.7-0.4-1.1c0-0.5,0.1-0.9,0.3-1.2s0.6-0.4,1.1-0.4
				c0.5,0,0.9,0.1,1.1,0.4s0.4,0.7,0.4,1.2c0,0.5-0.1,0.8-0.4,1.1S150.4,179.8,149.9,179.8z M149.9,184.3l-1.1-0.8l3.2-3.3l2.5-3.5
				l1.1,0.8l-3.1,3.1L149.9,184.3z M149.8,178.8c0.2,0,0.3-0.1,0.4-0.2c0.1-0.1,0.1-0.2,0.1-0.4s0-0.3-0.1-0.4
				c-0.1-0.1-0.2-0.2-0.4-0.2c-0.2,0-0.3,0.1-0.4,0.2c-0.1,0.1-0.1,0.3-0.1,0.4s0,0.3,0.1,0.4C149.5,178.8,149.6,178.8,149.8,178.8z
				 M154.5,184.4c-0.5,0-0.9-0.1-1.1-0.4c-0.2-0.3-0.4-0.7-0.4-1.2c0-0.5,0.1-0.8,0.3-1.1c0.2-0.3,0.6-0.4,1.1-0.4s0.9,0.1,1.1,0.4
				c0.2,0.3,0.4,0.7,0.4,1.1c0,0.5-0.1,0.9-0.4,1.1C155.4,184.3,155,184.4,154.5,184.4z M154.4,183.4c0.2,0,0.3-0.1,0.4-0.2
				c0.1-0.1,0.1-0.3,0.1-0.4s0-0.3-0.1-0.4c-0.1-0.1-0.2-0.2-0.4-0.2c-0.2,0-0.3,0.1-0.4,0.2c-0.1,0.1-0.1,0.3-0.1,0.4
				s0,0.3,0.1,0.4C154.1,183.4,154.3,183.4,154.4,183.4z"/>
		</g>
		<g class="st2">
		</g>
		<g class="st2">
			<path class="st3" d="M108.2,199.4v-7.5h2.6c1,0,1.7,0.2,2.2,0.5c0.5,0.3,0.8,0.9,0.8,1.7c0,0.6-0.1,1-0.4,1.4
				c-0.3,0.4-0.7,0.6-1.3,0.6c0.3,0,0.6,0.1,0.8,0.2c0.2,0.2,0.3,0.3,0.3,0.6c0.1,0.2,0.1,0.5,0.1,0.7c0,0.2,0,0.5,0.1,0.7
				c0,0.2,0.1,0.3,0.2,0.4c0.1,0.1,0.3,0.1,0.5,0v0.7c-0.1,0.1-0.3,0.2-0.5,0.2s-0.4,0-0.6,0c-0.2-0.1-0.4-0.2-0.5-0.4
				c-0.1-0.2-0.2-0.5-0.2-0.9c0-0.5,0-0.8-0.1-1.1c-0.1-0.3-0.2-0.5-0.4-0.6c-0.2-0.1-0.5-0.2-0.9-0.2s-1,0-1.7,0v3.2H108.2z
				 M109.3,195.4h1.5c0.5,0,0.8,0,1.1-0.1c0.3-0.1,0.5-0.2,0.7-0.4c0.1-0.2,0.2-0.4,0.2-0.8c0-0.4-0.1-0.7-0.3-0.9
				c-0.2-0.2-0.4-0.3-0.8-0.4s-0.8-0.1-1.2-0.1h-1.2V195.4z"/>
			<path class="st3" d="M116.5,198.5h4.2v0.9h-5.3v-7.5h5.2v1h-4.1v2.3h3.2v0.9h-3.2V198.5z"/>
			<path class="st3" d="M124.8,199.6c-0.5,0-1.1-0.1-1.6-0.3s-0.9-0.4-1.2-0.8s-0.5-0.9-0.5-1.5h1.1c0,0,0,0.1,0,0.3
				c0,0.2,0.1,0.3,0.3,0.5c0.1,0.2,0.4,0.4,0.7,0.5s0.7,0.2,1.3,0.2c0.4,0,0.8-0.1,1-0.2c0.3-0.1,0.4-0.3,0.5-0.4
				c0.1-0.2,0.2-0.3,0.2-0.5c0-0.3-0.1-0.5-0.3-0.7c-0.2-0.2-0.4-0.3-0.7-0.4c-0.3-0.1-0.6-0.2-1-0.3c-0.4-0.1-0.7-0.2-1-0.3
				c-0.3-0.1-0.7-0.2-0.9-0.4c-0.3-0.2-0.5-0.4-0.7-0.7c-0.2-0.3-0.2-0.6-0.2-1c0-0.6,0.3-1.1,0.9-1.4c0.6-0.3,1.3-0.5,2.1-0.5
				c0.5,0,1,0.1,1.4,0.3c0.4,0.2,0.8,0.5,1.1,0.8s0.4,0.8,0.4,1.4h-1.1c0-0.3-0.1-0.6-0.2-0.8s-0.3-0.3-0.5-0.4
				c-0.2-0.1-0.4-0.2-0.6-0.2c-0.2,0-0.4-0.1-0.6-0.1c-0.5,0-0.9,0.1-1.2,0.3c-0.3,0.2-0.5,0.4-0.5,0.8c0,0.3,0.1,0.5,0.3,0.7
				c0.2,0.2,0.4,0.3,0.7,0.4s0.6,0.2,1,0.3c0.3,0.1,0.7,0.2,1,0.3c0.4,0.1,0.7,0.2,1,0.4c0.3,0.2,0.5,0.4,0.7,0.7
				c0.2,0.3,0.2,0.6,0.2,1.1c0,0.4-0.2,0.8-0.4,1.1c-0.3,0.3-0.6,0.5-1.1,0.7C125.8,199.5,125.3,199.6,124.8,199.6z"/>
			<path class="st3" d="M128.4,192.9v-1h5.7v1h-2.3v6.5h-1.1v-6.5H128.4z"/>
			<path class="st3" d="M138.3,199.6c-1.2,0-2.1-0.3-2.7-1c-0.6-0.7-0.9-1.6-0.9-2.8c0-0.8,0.1-1.5,0.4-2.1c0.3-0.6,0.7-1,1.2-1.4
				c0.5-0.3,1.2-0.5,2.1-0.5c1.2,0,2.1,0.4,2.7,1.1c0.6,0.7,0.9,1.6,0.9,2.8c0,0.8-0.1,1.5-0.4,2s-0.7,1-1.2,1.4
				C139.8,199.4,139.1,199.6,138.3,199.6z M138.3,198.5c0.9,0,1.5-0.3,1.9-0.8s0.7-1.2,0.7-2c0-0.8-0.2-1.5-0.6-2.1
				c-0.4-0.5-1.1-0.8-1.9-0.8c-0.8,0-1.5,0.3-1.9,0.8c-0.4,0.5-0.7,1.2-0.7,2.1c0,0.5,0.1,1,0.3,1.5c0.2,0.4,0.5,0.8,0.9,1
				C137.2,198.4,137.7,198.5,138.3,198.5z"/>
			<path class="st3" d="M152.9,195.7c0,1-0.2,1.7-0.6,2.3c-0.4,0.5-0.9,0.9-1.6,1.1c-0.7,0.2-1.5,0.3-2.4,0.3h-2v-7.5h2
				c0.9,0,1.7,0.1,2.4,0.4c0.7,0.3,1.2,0.7,1.6,1.2S152.9,194.8,152.9,195.7z M147.4,198.5h1.2c0.6,0,1.2-0.1,1.6-0.2
				c0.5-0.1,0.8-0.4,1.1-0.8s0.4-1,0.4-1.8c0-0.9-0.3-1.6-0.8-2.1c-0.6-0.5-1.3-0.7-2.3-0.7h-1.2V198.5z"/>
			<path class="st3" d="M155.2,198.5h4.2v0.9h-5.3v-7.5h5.2v1h-4.1v2.3h3.2v0.9h-3.2V198.5z"/>
			<path class="st3" d="M160.8,199.4v-7.5h1.1v6.5h3.9v1H160.8z"/>
		</g>
		<g class="st2">
			<path class="st3" d="M105.4,208v-1h5.7v1h-2.3v6.5h-1.1V208H105.4z"/>
		</g>
		<g class="st2">
			<path class="st3" d="M113.3,213.6h4.2v0.9h-5.3V207h5.2v1h-4.1v2.3h3.2v0.9h-3.2V213.6z"/>
			<path class="st3" d="M118.7,214.5V207h2.6c1,0,1.7,0.2,2.2,0.5c0.5,0.3,0.8,0.9,0.8,1.7c0,0.6-0.1,1-0.4,1.4
				c-0.3,0.4-0.7,0.6-1.3,0.6c0.3,0,0.6,0.1,0.8,0.2c0.2,0.2,0.3,0.3,0.3,0.6c0.1,0.2,0.1,0.5,0.1,0.7c0,0.2,0,0.5,0.1,0.7
				c0,0.2,0.1,0.3,0.2,0.4s0.3,0.1,0.5,0v0.7c-0.1,0.1-0.3,0.2-0.5,0.2s-0.4,0-0.6,0c-0.2-0.1-0.4-0.2-0.5-0.4
				c-0.1-0.2-0.2-0.5-0.2-0.9c0-0.5,0-0.8-0.1-1.1c-0.1-0.3-0.2-0.5-0.4-0.6c-0.2-0.1-0.5-0.2-0.9-0.2c-0.4,0-1,0-1.7,0v3.2H118.7z
				 M119.8,210.5h1.5c0.5,0,0.8,0,1.1-0.1s0.5-0.2,0.7-0.4c0.1-0.2,0.2-0.4,0.2-0.8c0-0.4-0.1-0.7-0.3-0.9c-0.2-0.2-0.4-0.3-0.8-0.4
				s-0.8-0.1-1.2-0.1h-1.2V210.5z"/>
			<path class="st3" d="M125.9,214.5V207h2.6c1,0,1.7,0.2,2.2,0.5c0.5,0.3,0.8,0.9,0.8,1.7c0,0.6-0.1,1-0.4,1.4
				c-0.3,0.4-0.7,0.6-1.3,0.6c0.3,0,0.6,0.1,0.8,0.2c0.2,0.2,0.3,0.3,0.3,0.6c0.1,0.2,0.1,0.5,0.1,0.7c0,0.2,0,0.5,0.1,0.7
				c0,0.2,0.1,0.3,0.2,0.4c0.1,0.1,0.3,0.1,0.5,0v0.7c-0.1,0.1-0.3,0.2-0.5,0.2s-0.4,0-0.6,0c-0.2-0.1-0.4-0.2-0.5-0.4
				c-0.1-0.2-0.2-0.5-0.2-0.9c0-0.5,0-0.8-0.1-1.1c-0.1-0.3-0.2-0.5-0.4-0.6c-0.2-0.1-0.5-0.2-0.9-0.2s-1,0-1.7,0v3.2H125.9z
				 M127.1,210.5h1.5c0.5,0,0.8,0,1.1-0.1c0.3-0.1,0.5-0.2,0.7-0.4c0.1-0.2,0.2-0.4,0.2-0.8c0-0.4-0.1-0.7-0.3-0.9
				c-0.2-0.2-0.4-0.3-0.8-0.4s-0.8-0.1-1.2-0.1h-1.2V210.5z"/>
			<path class="st3" d="M136.3,213.6v1h-3.1v-1h1V208h-1v-1h3.1v1h-1v5.6H136.3z"/>
			<path class="st3" d="M137.3,208v-1h5.7v1h-2.3v6.5h-1.1V208H137.3z"/>
			<path class="st3" d="M147.2,214.7c-1.2,0-2.1-0.3-2.7-1c-0.6-0.7-0.9-1.6-0.9-2.8c0-0.8,0.1-1.5,0.4-2.1c0.3-0.6,0.7-1,1.2-1.4
				c0.5-0.3,1.2-0.5,2.1-0.5c1.2,0,2.1,0.4,2.7,1.1s0.9,1.6,0.9,2.8c0,0.8-0.1,1.5-0.4,2c-0.3,0.6-0.7,1-1.2,1.4
				C148.6,214.5,148,214.7,147.2,214.7z M147.1,213.6c0.9,0,1.5-0.3,1.9-0.8s0.7-1.2,0.7-2c0-0.8-0.2-1.5-0.6-2.1
				c-0.4-0.5-1.1-0.8-1.9-0.8c-0.8,0-1.5,0.3-1.9,0.8c-0.4,0.5-0.7,1.2-0.7,2.1c0,0.5,0.1,1,0.3,1.5c0.2,0.4,0.5,0.8,0.9,1
				S146.6,213.6,147.1,213.6z"/>
			<path class="st3" d="M152.1,214.5V207h2.6c1,0,1.7,0.2,2.2,0.5c0.5,0.3,0.8,0.9,0.8,1.7c0,0.6-0.1,1-0.4,1.4
				c-0.3,0.4-0.7,0.6-1.3,0.6c0.3,0,0.6,0.1,0.8,0.2c0.2,0.2,0.3,0.3,0.3,0.6c0.1,0.2,0.1,0.5,0.1,0.7c0,0.2,0,0.5,0.1,0.7
				c0,0.2,0.1,0.3,0.2,0.4s0.3,0.1,0.5,0v0.7c-0.1,0.1-0.3,0.2-0.5,0.2s-0.4,0-0.6,0c-0.2-0.1-0.4-0.2-0.5-0.4
				c-0.1-0.2-0.2-0.5-0.2-0.9c0-0.5,0-0.8-0.1-1.1c-0.1-0.3-0.2-0.5-0.4-0.6c-0.2-0.1-0.5-0.2-0.9-0.2c-0.4,0-1,0-1.7,0v3.2H152.1z
				 M153.2,210.5h1.5c0.5,0,0.8,0,1.1-0.1s0.5-0.2,0.7-0.4c0.1-0.2,0.2-0.4,0.2-0.8c0-0.4-0.1-0.7-0.3-0.9c-0.2-0.2-0.4-0.3-0.8-0.4
				s-0.8-0.1-1.2-0.1h-1.2V210.5z"/>
			<path class="st3" d="M162.4,213.6v1h-3.1v-1h1V208h-1v-1h3.1v1h-1v5.6H162.4z"/>
			<path class="st3" d="M167.2,214.7c-1.2,0-2.1-0.3-2.7-1c-0.6-0.7-0.9-1.6-0.9-2.8c0-0.8,0.1-1.5,0.4-2.1c0.3-0.6,0.7-1,1.2-1.4
				c0.5-0.3,1.2-0.5,2.1-0.5c1.2,0,2.1,0.4,2.7,1.1c0.6,0.7,0.9,1.6,0.9,2.8c0,0.8-0.1,1.5-0.4,2s-0.7,1-1.2,1.4
				C168.7,214.5,168,214.7,167.2,214.7z M167.2,213.6c0.9,0,1.5-0.3,1.9-0.8s0.7-1.2,0.7-2c0-0.8-0.2-1.5-0.6-2.1
				c-0.4-0.5-1.1-0.8-1.9-0.8c-0.8,0-1.5,0.3-1.9,0.8c-0.4,0.5-0.7,1.2-0.7,2.1c0,0.5,0.1,1,0.3,1.5c0.2,0.4,0.5,0.8,0.9,1
				C166.1,213.5,166.6,213.6,167.2,213.6z"/>
		</g>
		<g class="st2">
			<path class="st1" d="M74.7,36.7v-0.8h-0.8v-0.8H73v-0.8h-0.8v-1.6h2.4v0.8h0.8v0.8h4.1v-0.8h0.8v-3.2h-0.8v-0.8h-3.2V27h3.2v-0.8
				h0.8v-2.4h-0.8V23h-4.1v0.8h-0.8v0.8h-2.4V23H73v-0.8h0.8v-0.8h0.8v-0.8h4.9v0.8h1.6v0.8H82V23h0.8V27H82v0.8h-0.8v0.8H82v0.8
				h0.8v4.9H82v0.8h-0.8v0.8h-1.6v0.8H74.7z"/>
			<path class="st1" d="M88.7,36.7v-0.8h-1.6v-1.6h-0.8v-2.4h-0.8v-6.5h0.8V23h0.8v-1.6h1.6v-0.8h5.7v0.8H96V23h0.8v1.6h-2.4v-0.8
				h-0.8V23h-4.1v0.8h-0.8v2.4h-0.8v2.4h0.8v-0.8h0.8V27h5.7v0.8H96v0.8h0.8v5.7H96v1.6h-1.6v0.8H88.7z M93.6,34.3v-0.8h0.8v-3.2
				h-0.8v-0.8h-4.1v0.8h-0.8v3.2h0.8v0.8H93.6z"/>
			<path class="st1" d="M99,39.2v-0.8h0.8v-0.8h0.8v-0.8H99v-2.4h2.4v4.1h-0.8v0.8H99z"/>
			<path class="st1" d="M106,36.7V24.6h-2.4V23h0.8v-0.8h0.8v-0.8h0.8v-0.8h2.4v16.2H106z"/>
			<path class="st1" d="M114.4,36.7v-0.8h-1.6v-1.6H112v-2.4h-0.8v-6.5h0.8V23h0.8v-1.6h1.6v-0.8h5.7v0.8h1.6V23h0.8v2.4h0.8v6.5
				h-0.8v2.4h-0.8v1.6h-1.6v0.8H114.4z M119.3,34.3v-0.8h0.8v-2.4h0.8v-4.9h-0.8v-2.4h-0.8V23h-4.1v0.8h-0.8v2.4h-0.8v4.9h0.8v2.4
				h0.8v0.8H119.3z"/>
			<path class="st1" d="M132.4,36.7v-4.1h-7.3v-4.9h0.8V27h0.8v-0.8h0.8v-0.8h0.8v-0.8h0.8v-0.8h0.8V23h0.8v-0.8h0.8v-0.8h0.8v-0.8
				h2.4v9.7h2.4v2.4h-2.4v4.1H132.4z M132.4,30.2v-5.7h-0.8v0.8h-0.8v0.8H130V27h-0.8v0.8h-0.8v0.8h-0.8v1.6H132.4z"/>
		</g>
		<g class="st2">
			<path class="st1" d="M74.7,11.3h-1.5V4.5h2.8c0.8,0,1.4,0.2,1.8,0.6s0.6,1,0.6,1.7c0,0.7-0.2,1.2-0.7,1.6S76.8,9,76.1,9h-1.3
				V11.3z M75.9,5.7h-1.1V8h1.1c0.4,0,0.7-0.1,1-0.3c0.3-0.2,0.4-0.5,0.4-0.8c0-0.4-0.1-0.7-0.4-0.9C76.6,5.8,76.2,5.7,75.9,5.7z"/>
			<path class="st1" d="M82.3,11.5c-1.1,0-1.9-0.3-2.5-1S78.9,9,78.9,7.9c0-0.7,0.1-1.3,0.4-1.9s0.6-0.9,1.1-1.2
				c0.5-0.3,1.1-0.4,1.9-0.4c1.1,0,2,0.3,2.5,1c0.6,0.6,0.9,1.5,0.9,2.6c0,0.7-0.1,1.3-0.4,1.8c-0.3,0.5-0.6,0.9-1.1,1.2
				C83.6,11.3,83,11.5,82.3,11.5z M82.3,10.1c0.4,0,0.8-0.1,1.1-0.3C83.7,9.6,83.9,9.3,84,9c0.1-0.3,0.2-0.7,0.2-1.1
				c0-0.4-0.1-0.8-0.2-1.1s-0.4-0.6-0.7-0.8c-0.3-0.2-0.7-0.3-1.1-0.3c-0.6,0-1.1,0.2-1.5,0.6c-0.3,0.4-0.5,0.9-0.5,1.6
				c0,0.4,0.1,0.7,0.2,1.1c0.1,0.3,0.4,0.6,0.7,0.8C81.4,10,81.8,10.1,82.3,10.1z"/>
			<path class="st1" d="M86.7,11.3V4.5h2.8c0.2,0,0.5,0,0.8,0s0.6,0.1,0.9,0.2c0.3,0.1,0.5,0.3,0.7,0.5c0.2,0.2,0.3,0.6,0.3,1
				c0,0.3-0.1,0.5-0.1,0.7c-0.1,0.2-0.3,0.4-0.6,0.5c-0.3,0.1-0.7,0.2-1.2,0.2v0c0.6,0,1,0.1,1.3,0.2c0.3,0.1,0.5,0.3,0.7,0.6
				c0.1,0.2,0.2,0.5,0.2,0.8c0,0.4-0.1,0.7-0.2,0.9c-0.1,0.2-0.3,0.4-0.5,0.5c-0.2,0.1-0.5,0.2-0.7,0.3s-0.5,0.1-0.8,0.1
				c-0.3,0-0.5,0-0.7,0H86.7z M88.1,7.3h1.2c0.2,0,0.5,0,0.7,0c0.2,0,0.4-0.1,0.5-0.2c0.1-0.1,0.2-0.3,0.2-0.5
				c0-0.2-0.1-0.4-0.2-0.5c-0.1-0.1-0.3-0.2-0.5-0.2c-0.2,0-0.5,0-0.7,0h-1.2V7.3z M88.1,10.1h1.3c0.3,0,0.6,0,0.8,0
				s0.4-0.1,0.6-0.2S91,9.5,91,9.2s-0.1-0.5-0.2-0.6c-0.2-0.1-0.4-0.2-0.6-0.2c-0.3,0-0.5,0-0.8,0h-1.2V10.1z"/>
			<path class="st1" d="M93.7,11.3V4.5h1.5v5.5h3.1v1.2H93.7z"/>
			<path class="st1" d="M98.8,11.3l2.1-6.8h2.4l2.1,6.8h-1.5l-0.5-1.8h-2.4l-0.5,1.8H98.8z M102.1,5.1l-0.9,3.2h1.8L102.1,5.1z"/>
			<path class="st1" d="M109.2,11.4c-0.6,0-1.2-0.1-1.7-0.4c-0.5-0.3-0.9-0.6-1.2-1.2c-0.3-0.5-0.5-1.1-0.4-1.9
				c0-0.8,0.2-1.4,0.5-1.9s0.7-0.9,1.2-1.2c0.5-0.3,1.1-0.4,1.8-0.4c0.6,0,1.2,0.1,1.7,0.3c0.5,0.2,0.8,0.5,1.1,0.9
				c0.3,0.4,0.4,0.8,0.5,1.3h-1.5c0-0.3-0.2-0.6-0.4-0.8c-0.2-0.2-0.4-0.3-0.7-0.4c-0.3-0.1-0.5-0.1-0.7-0.1c-0.7,0-1.2,0.2-1.5,0.5
				c-0.3,0.4-0.5,0.9-0.5,1.5c0,0.7,0.2,1.2,0.5,1.6c0.3,0.4,0.8,0.6,1.5,0.6c0.2,0,0.5,0,0.7-0.1c0.3-0.1,0.5-0.2,0.7-0.4
				c0.2-0.2,0.3-0.4,0.4-0.8h1.5c-0.1,0.5-0.3,0.9-0.5,1.3c-0.3,0.4-0.6,0.7-1.1,1S109.8,11.4,109.2,11.4z"/>
			<path class="st1" d="M116.7,10.1v1.2h-3.2v-1.2h0.9V5.8h-0.9V4.5h3.2v1.2h-0.9v4.3H116.7z"/>
			<path class="st1" d="M121.2,11.5c-1.1,0-1.9-0.3-2.5-1s-0.9-1.5-0.9-2.6c0-0.7,0.1-1.3,0.4-1.9s0.6-0.9,1.1-1.2
				c0.5-0.3,1.1-0.4,1.9-0.4c1.1,0,2,0.3,2.5,1c0.6,0.6,0.9,1.5,0.9,2.6c0,0.7-0.1,1.3-0.4,1.8c-0.3,0.5-0.6,0.9-1.1,1.2
				C122.5,11.3,121.9,11.5,121.2,11.5z M121.1,10.1c0.4,0,0.8-0.1,1.1-0.3c0.3-0.2,0.5-0.4,0.7-0.8c0.1-0.3,0.2-0.7,0.2-1.1
				c0-0.4-0.1-0.8-0.2-1.1c-0.1-0.3-0.4-0.6-0.7-0.8c-0.3-0.2-0.7-0.3-1.1-0.3c-0.6,0-1.1,0.2-1.5,0.6s-0.5,0.9-0.5,1.6
				c0,0.4,0.1,0.7,0.2,1.1s0.4,0.6,0.7,0.8C120.3,10,120.7,10.1,121.1,10.1z M121.6,4H121V3.8l0.5-1.2h1.2v0.2L121.6,4z"/>
			<path class="st1" d="M130.2,4.5h1.5v6.8h-2.8l-1.8-6.1h0v6.1h-1.5V4.5h2.6l2,6.1h0V4.5z"/>
			<path class="st1" d="M133.9,8.3c-0.3,0-0.5-0.1-0.7-0.2S133,7.7,133,7.5c0-0.2,0.1-0.4,0.2-0.6s0.3-0.2,0.7-0.2
				c0.3,0,0.5,0.1,0.6,0.2c0.1,0.2,0.2,0.4,0.2,0.6c0,0.2-0.1,0.4-0.2,0.6C134.4,8.2,134.2,8.3,133.9,8.3z M133.9,11
				c-0.3,0-0.6-0.1-0.7-0.2s-0.2-0.4-0.2-0.6c0-0.2,0.1-0.4,0.2-0.6s0.3-0.2,0.7-0.2c0.3,0,0.5,0.1,0.6,0.2c0.1,0.2,0.2,0.3,0.2,0.6
				c0,0.2-0.1,0.4-0.2,0.6C134.4,10.9,134.2,11,133.9,11z"/>
		</g>
		<g>
			<polygon class="st1" points="145,44 141.1,44 141.1,43 144,43 144,41.2 145.8,41.2 145.8,25.7 147.5,25.7 147.5,23.9 149.2,23.9 
				149.2,22.2 151,22.2 151,21.5 149.2,21.5 149.2,19.7 147.5,19.7 147.5,18 145.8,18 145.8,4.2 144,4.2 144,2.4 141.1,2.4 
				141.1,1.4 145,1.4 145,3.2 146.8,3.2 146.8,17 148.5,17 148.5,18.7 150.2,18.7 150.2,20.5 152,20.5 152,23.2 150.2,23.2 
				150.2,24.9 148.5,24.9 148.5,26.7 146.8,26.7 146.8,42.2 145,42.2 			"/>
		</g>
		<g>
			<polygon class="st1" points="66.6,42.5 62.6,42.5 62.6,40.8 60.8,40.8 60.8,27 59.1,27 59.1,25.2 57.4,25.2 57.4,23.5 55.7,23.5 
				55.7,20.8 57.4,20.8 57.4,19 59.1,19 59.1,17.3 60.8,17.3 60.8,1.7 62.6,1.7 62.6,0 66.6,0 66.6,1 63.6,1 63.6,2.7 61.8,2.7 
				61.8,18.3 60.1,18.3 60.1,20 58.4,20 58.4,21.8 56.7,21.8 56.7,22.5 58.4,22.5 58.4,24.2 60.1,24.2 60.1,26 61.8,26 61.8,39.8 
				63.6,39.8 63.6,41.5 66.6,41.5 			"/>
		</g>
	</g>
</g>
</svg>
