<svg xmlns="http://www.w3.org/2000/svg" viewBox="0 0 219.95 116.57"><defs><style>.cls-1{fill:#f58b1e;}.cls-2{fill:#ffe255;}.cls-3{fill:#ef6824;}.cls-4{fill:#cc3a00;}.cls-5{fill:#f06723;}</style></defs><g id="Capa_2" data-name="Capa 2"><g id="Layer_1" data-name="Layer 1"><polygon class="cls-1" points="180.37 28.6 178.16 28.6 178.16 26.4 178.16 24.2 175.96 24.2 173.76 24.2 173.76 22 173.76 19.79 171.56 19.79 169.37 19.79 167.16 19.79 164.96 19.79 162.77 19.79 162.77 17.6 162.77 15.4 162.77 13.2 164.96 13.2 164.96 11 162.77 11 160.56 11 160.56 13.2 158.37 13.2 156.17 13.2 156.17 15.4 156.17 17.6 156.17 19.79 156.17 22 156.17 24.2 156.17 26.4 156.17 28.6 156.17 30.79 156.17 33 156.17 35.2 156.17 37.39 156.17 39.6 153.96 39.6 153.96 41.79 156.17 41.79 156.17 43.99 158.37 43.99 158.37 46.2 158.37 48.39 158.37 50.59 160.56 50.59 160.56 52.79 162.77 52.79 164.96 52.79 167.16 52.79 167.16 50.59 169.37 50.59 169.37 48.39 171.56 48.39 171.56 46.2 173.76 46.2 173.76 43.99 173.76 41.79 175.96 41.79 175.96 39.6 178.16 39.6 178.16 37.39 180.37 37.39 180.37 35.2 182.56 35.2 182.56 33 182.56 30.79 182.56 28.6 180.37 28.6"/><polygon class="cls-1" points="169.37 11 169.37 8.8 167.16 8.8 164.96 8.8 164.96 11 167.16 11 169.37 11"/><polygon class="cls-1" points="153.96 61.59 153.96 63.79 151.77 63.79 149.57 63.79 149.57 65.99 147.37 65.99 147.37 68.18 145.17 68.18 145.17 70.39 145.17 72.58 145.17 74.78 147.37 74.78 147.37 76.99 149.57 76.99 151.77 76.99 153.96 76.99 156.17 76.99 156.17 74.78 156.17 72.58 156.17 70.39 156.17 68.18 158.37 68.18 158.37 65.99 158.37 63.79 158.37 61.59 156.17 61.59 153.96 61.59"/><polygon class="cls-1" points="151.77 39.6 151.77 37.39 149.57 37.39 147.37 37.39 147.37 39.6 147.37 41.79 145.17 41.79 142.96 41.79 142.96 43.99 140.77 43.99 140.77 46.2 140.77 48.39 140.77 50.59 140.77 52.79 140.77 54.99 140.77 57.2 142.96 57.2 142.96 59.39 145.17 59.39 145.17 61.59 147.37 61.59 147.37 59.39 149.57 59.39 149.57 57.2 151.77 57.2 151.77 54.99 151.77 52.79 153.96 52.79 153.96 50.59 153.96 48.39 153.96 46.2 153.96 43.99 153.96 41.79 151.77 41.79 151.77 39.6"/><polygon class="cls-1" points="140.77 33 142.96 33 142.96 30.79 142.96 28.6 142.96 26.4 142.96 24.2 142.96 22 142.96 19.79 142.96 17.6 142.96 15.4 142.96 13.2 145.17 13.2 147.37 13.2 147.37 11 147.37 8.8 145.17 8.8 142.96 8.8 140.77 8.8 138.57 8.8 136.37 8.8 134.17 8.8 131.97 8.8 129.77 8.8 127.57 8.8 125.38 8.8 123.17 8.8 120.97 8.8 118.77 8.8 116.57 8.8 114.38 8.8 112.17 8.8 109.97 8.8 107.78 8.8 105.57 8.8 105.57 11 103.38 11 103.38 13.2 101.18 13.2 101.18 15.4 101.18 17.6 101.18 19.79 98.97 19.79 96.78 19.79 94.57 19.79 94.57 22 96.78 22 96.78 24.2 96.78 26.4 96.78 28.6 96.78 30.79 96.78 33 94.57 33 94.57 35.2 94.57 37.39 94.57 39.6 94.57 41.79 94.57 43.99 94.57 46.2 94.57 48.39 94.57 50.59 94.57 52.79 94.57 54.99 96.78 54.99 98.97 54.99 101.18 54.99 101.18 57.2 101.18 59.39 101.18 61.59 103.38 61.59 103.38 63.79 103.38 65.99 103.38 68.18 105.57 68.18 107.78 68.18 107.78 70.39 109.97 70.39 112.17 70.39 114.38 70.39 116.57 70.39 118.77 70.39 120.97 70.39 123.17 70.39 123.17 68.18 125.38 68.18 125.38 65.99 127.57 65.99 127.57 63.79 127.57 61.59 127.57 59.39 127.57 57.2 127.57 54.99 127.57 52.79 127.57 50.59 127.57 48.39 127.57 46.2 129.77 46.2 129.77 43.99 129.77 41.79 129.77 39.6 131.97 39.6 134.17 39.6 134.17 37.39 136.37 37.39 138.57 37.39 138.57 35.2 140.77 35.2 140.77 33"/><polygon class="cls-1" points="76.99 43.99 74.78 43.99 72.58 43.99 70.39 43.99 70.39 46.2 68.18 46.2 68.18 48.39 68.18 50.59 65.99 50.59 63.78 50.59 63.78 52.79 63.78 54.99 63.78 57.2 61.59 57.2 61.59 59.39 61.59 61.59 63.78 61.59 63.78 63.79 65.99 63.79 68.18 63.79 68.18 61.59 70.39 61.59 72.58 61.59 74.78 61.59 74.78 59.39 74.78 57.2 74.78 54.99 76.99 54.99 79.18 54.99 79.18 52.79 79.18 50.59 79.18 48.39 79.18 46.2 76.99 46.2 76.99 43.99"/><polygon class="cls-1" points="63.78 41.79 65.99 41.79 65.99 39.6 68.18 39.6 68.18 37.39 68.18 35.2 70.39 35.2 70.39 33 72.58 33 72.58 30.79 74.78 30.79 74.78 28.6 76.99 28.6 76.99 26.4 76.99 24.2 74.78 24.2 74.78 22 74.78 19.79 72.58 19.79 72.58 17.6 72.58 15.4 72.58 13.2 72.58 11 72.58 8.8 70.39 8.8 68.18 8.8 65.99 8.8 63.78 8.8 61.59 8.8 59.39 8.8 57.18 8.8 54.99 8.8 52.79 8.8 50.59 8.8 48.39 8.8 46.2 8.8 43.99 8.8 41.79 8.8 39.59 8.8 39.59 11 37.39 11 37.39 13.2 37.39 15.4 37.39 17.6 35.2 17.6 35.2 19.79 35.2 22 35.2 24.2 35.2 26.4 35.2 28.6 35.2 30.79 35.2 33 35.2 35.2 37.39 35.2 37.39 37.39 37.39 39.6 37.39 41.79 39.59 41.79 39.59 43.99 39.59 46.2 39.59 48.39 41.79 48.39 41.79 50.59 41.79 52.79 43.99 52.79 43.99 54.99 46.2 54.99 48.39 54.99 50.59 54.99 50.59 52.79 52.79 52.79 52.79 50.59 52.79 48.39 54.99 48.39 54.99 46.2 57.18 46.2 57.18 43.99 57.18 41.79 59.39 41.79 61.59 41.79 63.78 41.79"/><path class="cls-2" d="M206.76,19.79V17.6h-2.2V11h-2.21V6.6h-2.19V4.4h-11V6.6h-4.4V8.81h-2.2v4.38h-2.19V15.4h-2.21v2.2h-4.4v6.6h4.4v4.4h4.4V33h2.2v2.2h4.4v2.19h6.6v-6.6H209v-11ZM191.35,17.6h2.21v2.19h-2.21Zm6.6,2.19h-2.19V17.6H198Z"/><path class="cls-2" d="M160.56,8.81H147.37v4.38H143V33h-2.19v2.2h-2.2v2.19h-4.4V39.6h-4.4v6.6h-2.2V66h-2.19v2.19h-2.21v2.21H107.78V68.18h-4.4V61.59h-2.2V55H94.57V33h2.21V22H94.57V19.79h6.61v-6.6h2.2V11h2.19V8.81h-33v11h2.19V24.2H77v4.4H74.78v2.19H72.59V33h-2.2v2.2H68.18v4.4H66v2.19H57.18V46.2H55v2.19h-2.2v4.4h-2.2V55H44v50.6h6.6V68.18h6.59v2.21h2.21v41.79H66V74.78h4.4V72.59h68.18v39.59h6.6v-44h2.2V66h2.2v-2.2H154v-2.2h2.21v-2.2h2.2V57.2h2.19V50.59h-2.19V44h-2.2v-2.2H154v11h-2.19V57.2h-2.2v2.19h-2.2v2.2h-2.2v-2.2H143V57.2h-2.19V44H143v-2.2h4.41v-4.4h4.4v4.4H154V39.6h2.21V13.19h4.39V11H165V8.81h-4.4ZM70.39,46.2V44H77V46.2h2.19V55h-4.4v6.6h-6.6v2.2h-4.4v-2.2H61.59V57.2h2.19V50.59h4.4V46.2Z"/><polygon class="cls-2" points="151.77 76.99 149.57 76.99 149.57 79.18 149.57 81.39 149.57 83.58 149.57 85.78 149.57 87.99 149.57 90.18 149.57 92.38 149.57 94.58 149.57 96.78 149.57 98.97 149.57 101.18 149.57 103.38 149.57 105.58 149.57 107.78 149.57 109.97 149.57 112.18 149.57 114.38 151.77 114.38 153.96 114.38 156.17 114.38 156.17 112.18 156.17 109.97 156.17 107.78 156.17 105.58 156.17 103.38 156.17 101.18 156.17 98.97 156.17 96.78 156.17 94.58 156.17 92.38 156.17 90.18 156.17 87.99 156.17 85.78 156.17 83.58 156.17 81.39 156.17 79.18 156.17 76.99 153.96 76.99 151.77 76.99"/><polygon class="cls-2" points="32.99 15.4 30.79 15.4 30.79 17.6 28.6 17.6 28.6 19.79 28.6 22 28.6 24.2 28.6 26.4 28.6 28.6 28.6 30.79 28.6 33 28.6 35.2 28.6 37.39 28.6 39.6 30.79 39.6 30.79 41.79 30.79 43.99 30.79 46.2 30.79 48.39 30.79 50.59 30.79 52.79 30.79 54.99 30.79 57.2 30.79 59.39 28.6 59.39 26.39 59.39 26.39 61.59 26.39 63.79 26.39 65.99 26.39 68.18 24.2 68.18 24.2 70.39 24.2 72.58 26.39 72.58 28.6 72.58 28.6 70.39 30.79 70.39 30.79 68.18 30.79 65.99 30.79 63.79 30.79 61.59 32.99 61.59 35.2 61.59 35.2 59.39 35.2 57.2 35.2 54.99 35.2 52.79 35.2 50.59 35.2 48.39 35.2 46.2 35.2 43.99 35.2 41.79 35.2 39.6 32.99 39.6 32.99 37.39 32.99 35.2 32.99 33 32.99 30.79 32.99 28.6 32.99 26.4 32.99 24.2 32.99 22 32.99 19.79 32.99 17.6 35.2 17.6 37.39 17.6 37.39 15.4 35.2 15.4 32.99 15.4"/><polygon class="cls-3" points="217.76 109.97 215.55 109.97 213.35 109.97 213.35 107.78 211.16 107.78 211.16 109.97 208.95 109.97 206.76 109.97 206.76 112.18 204.56 112.18 202.35 112.18 202.35 114.38 202.35 116.57 204.56 116.57 206.76 116.57 208.95 116.57 208.95 114.38 211.16 114.38 211.16 116.57 213.35 116.57 215.55 116.57 215.55 114.38 217.76 114.38 219.95 114.38 219.95 112.18 219.95 109.97 217.76 109.97"/><polygon class="cls-3" points="189.16 114.38 186.96 114.38 184.76 114.38 182.56 114.38 180.37 114.38 178.16 114.38 175.96 114.38 175.96 112.18 173.76 112.18 173.76 114.38 173.76 116.57 175.96 116.57 178.16 116.57 180.37 116.57 182.56 116.57 184.76 116.57 186.96 116.57 189.16 116.57 191.35 116.57 193.56 116.57 193.56 114.38 191.35 114.38 189.16 114.38"/><polygon class="cls-3" points="26.39 107.78 26.39 109.97 24.2 109.97 24.2 107.78 22 107.78 22 109.97 22 112.18 19.79 112.18 17.6 112.18 17.6 109.97 15.39 109.97 13.2 109.97 11 109.97 8.79 109.97 6.6 109.97 4.4 109.97 4.4 112.18 4.4 114.38 6.6 114.38 8.79 114.38 11 114.38 13.2 114.38 15.39 114.38 17.6 114.38 19.79 114.38 22 114.38 24.2 114.38 26.39 114.38 26.39 112.18 28.6 112.18 30.79 112.18 30.79 109.97 30.79 107.78 28.6 107.78 26.39 107.78"/><polygon class="cls-4" points="217.76 107.78 217.76 105.58 215.55 105.58 213.35 105.58 213.35 107.78 213.35 109.97 215.55 109.97 217.76 109.97 219.95 109.97 219.95 107.78 217.76 107.78"/><polygon class="cls-4" points="206.76 107.78 206.76 105.58 204.56 105.58 202.35 105.58 202.35 107.78 202.35 109.97 202.35 112.18 204.56 112.18 206.76 112.18 206.76 109.97 208.95 109.97 211.16 109.97 211.16 107.78 208.95 107.78 206.76 107.78"/><rect class="cls-4" x="204.56" y="37.39" width="2.2" height="2.21"/><rect class="cls-4" x="200.16" y="37.39" width="2.2" height="2.21"/><rect class="cls-4" x="195.76" y="17.6" width="2.2" height="2.2"/><rect class="cls-4" x="191.35" y="17.6" width="2.21" height="2.2"/><polygon class="cls-4" points="191.35 109.97 189.16 109.97 186.96 109.97 186.96 112.18 184.76 112.18 184.76 109.97 182.56 109.97 180.37 109.97 180.37 107.78 178.16 107.78 178.16 109.97 175.96 109.97 175.96 107.78 175.96 105.58 173.76 105.58 171.56 105.58 171.56 107.78 171.56 109.97 171.56 112.18 171.56 114.38 173.76 114.38 173.76 112.18 175.96 112.18 175.96 114.38 178.16 114.38 180.37 114.38 182.56 114.38 184.76 114.38 186.96 114.38 189.16 114.38 191.35 114.38 193.56 114.38 193.56 112.18 191.35 112.18 191.35 109.97"/><polygon class="cls-4" points="151.77 114.38 149.57 114.38 149.57 116.57 151.77 116.57 153.96 116.57 156.17 116.57 156.17 114.38 153.96 114.38 151.77 114.38"/><polygon class="cls-4" points="140.77 112.18 138.57 112.18 138.57 114.38 140.77 114.38 142.96 114.38 145.17 114.38 145.17 112.18 142.96 112.18 140.77 112.18"/><polygon class="cls-4" points="61.59 112.18 59.39 112.18 59.39 114.38 61.59 114.38 63.78 114.38 65.99 114.38 65.99 112.18 63.78 112.18 61.59 112.18"/><polygon class="cls-4" points="46.2 105.58 43.99 105.58 43.99 107.78 46.2 107.78 48.39 107.78 50.59 107.78 50.59 105.58 48.39 105.58 46.2 105.58"/><polygon class="cls-4" points="22 105.58 22 107.78 24.2 107.78 24.2 109.97 26.39 109.97 26.39 107.78 26.39 105.58 24.2 105.58 22 105.58"/><polygon class="cls-4" points="19.79 109.97 17.6 109.97 17.6 112.18 19.79 112.18 22 112.18 22 109.97 22 107.78 19.79 107.78 19.79 109.97"/><polygon class="cls-4" points="15.39 107.78 13.2 107.78 13.2 109.97 15.39 109.97 17.6 109.97 17.6 107.78 15.39 107.78"/><polygon class="cls-4" points="8.79 107.78 6.6 107.78 4.4 107.78 4.4 109.97 6.6 109.97 8.79 109.97 11 109.97 11 107.78 11 105.58 8.79 105.58 8.79 107.78"/><polygon class="cls-4" points="4.4 103.38 2.19 103.38 2.19 105.58 2.19 107.78 4.4 107.78 4.4 105.58 4.4 103.38"/><polygon class="cls-4" points="0 109.97 0 112.18 0 114.38 2.19 114.38 4.4 114.38 4.4 112.18 4.4 109.97 2.19 109.97 0 109.97"/><polygon class="cls-5" points="215.55 0 213.35 0 211.16 0 208.95 0 206.76 0 204.56 0 204.56 2.21 202.35 2.21 202.35 4.4 200.16 4.4 200.16 6.6 202.35 6.6 202.35 8.8 202.35 11 204.56 11 206.76 11 206.76 8.8 208.95 8.8 208.95 6.6 211.16 6.6 213.35 6.6 215.55 6.6 217.76 6.6 217.76 4.4 217.76 2.21 215.55 2.21 215.55 0"/><path class="cls-5" d="M206.76,30.79h-11v11H198V44h11v-2.2h2.21v-11h-4.4Zm0,8.81h-2.2V37.39h2.2Zm-6.6-2.21h2.19V39.6h-2.19Z"/><polygon class="cls-5" points="180.37 6.6 178.16 6.6 175.96 6.6 173.76 6.6 173.76 8.8 171.56 8.8 169.37 8.8 169.37 11 167.16 11 164.96 11 164.96 13.2 162.77 13.2 162.77 15.4 162.77 17.6 162.77 19.79 164.96 19.79 167.16 19.79 169.37 19.79 171.56 19.79 173.76 19.79 173.76 17.6 175.96 17.6 178.16 17.6 178.16 15.4 180.37 15.4 180.37 13.2 182.56 13.2 182.56 11 182.56 8.8 180.37 8.8 180.37 6.6"/><polygon class="cls-5" points="26.39 72.58 24.2 72.58 22 72.58 22 74.78 22 76.99 22 79.18 24.2 79.18 24.2 81.39 26.39 81.39 28.6 81.39 28.6 79.18 30.79 79.18 30.79 76.99 30.79 74.78 30.79 72.58 28.6 72.58 26.39 72.58"/></g></g></svg>